ISO-10303-21;
HEADER;
/* Generated by software containing ST-Developer
 * from STEP Tools, Inc. (www.steptools.com) 
 */
/* OPTION: using custom renumber hook */

FILE_DESCRIPTION(
/* description */ ('STEP AP242',
'CAx-IF Rec.Pracs.---Representation and Presentation of Product Manufa
cturing Information (PMI)---4.0---2014-10-13',
'CAx-IF Rec.Pracs.---3D Tessellated Geometry---0.4---2014-09-14','2;1'),

/* implementation_level */ '2;1');

FILE_NAME(
/* name */ '68fb23fe34e6012dc82c97f8',
/* time_stamp */ '2025-10-24T07:00:14Z',
/* author */ (''),
/* organization */ (''),
/* preprocessor_version */ 'ST-DEVELOPER v20',
/* originating_system */ 'ONSHAPE BY PTC INC, 1.205',
/* authorisation */ '  ');

FILE_SCHEMA (('AP242_MANAGED_MODEL_BASED_3D_ENGINEERING_MIM_LF { 1 0 10303 442 1 1 4 }'));
ENDSEC;

DATA;
#10=SHAPE_REPRESENTATION_RELATIONSHIP('','',#1175,#11);
#11=ADVANCED_BREP_SHAPE_REPRESENTATION('',(#1173),#1979);
#12=LINE('',#1780,#40);
#13=LINE('',#1783,#41);
#14=LINE('',#1785,#42);
#15=LINE('',#1787,#43);
#16=LINE('',#1914,#44);
#17=LINE('',#1917,#45);
#18=LINE('',#1918,#46);
#19=LINE('',#1920,#47);
#20=LINE('',#1924,#48);
#21=LINE('',#1928,#49);
#22=LINE('',#1932,#50);
#23=LINE('',#1936,#51);
#24=LINE('',#1938,#52);
#25=LINE('',#1942,#53);
#26=LINE('',#1946,#54);
#27=LINE('',#1950,#55);
#28=LINE('',#1954,#56);
#29=LINE('',#1956,#57);
#30=LINE('',#1958,#58);
#31=LINE('',#1960,#59);
#32=LINE('',#1961,#60);
#33=LINE('',#1963,#61);
#34=LINE('',#1964,#62);
#35=LINE('',#1966,#63);
#36=LINE('',#1967,#64);
#37=LINE('',#1969,#65);
#38=LINE('',#1970,#66);
#39=LINE('',#1972,#67);
#40=VECTOR('',#1458,1.);
#41=VECTOR('',#1459,1.);
#42=VECTOR('',#1460,1.);
#43=VECTOR('',#1461,1.);
#44=VECTOR('',#1614,1.);
#45=VECTOR('',#1615,1.);
#46=VECTOR('',#1616,1.);
#47=VECTOR('',#1617,1.);
#48=VECTOR('',#1620,1.);
#49=VECTOR('',#1623,1.);
#50=VECTOR('',#1626,1.);
#51=VECTOR('',#1631,1.);
#52=VECTOR('',#1632,1.);
#53=VECTOR('',#1635,1.);
#54=VECTOR('',#1638,1.);
#55=VECTOR('',#1641,1.);
#56=VECTOR('',#1644,1.);
#57=VECTOR('',#1645,1.);
#58=VECTOR('',#1648,1.);
#59=VECTOR('',#1651,1.);
#60=VECTOR('',#1652,1.);
#61=VECTOR('',#1655,1.);
#62=VECTOR('',#1656,1.);
#63=VECTOR('',#1659,1.);
#64=VECTOR('',#1660,1.);
#65=VECTOR('',#1663,1.);
#66=VECTOR('',#1664,1.);
#67=VECTOR('',#1667,1.);
#68=PLANE('',#1237);
#69=PLANE('',#1313);
#70=PLANE('',#1318);
#71=PLANE('',#1323);
#72=PLANE('',#1328);
#73=PLANE('',#1329);
#74=PLANE('',#1330);
#75=PLANE('',#1331);
#76=PLANE('',#1332);
#77=PLANE('',#1333);
#78=ORIENTED_EDGE('',*,*,#330,.F.);
#79=ORIENTED_EDGE('',*,*,#331,.T.);
#80=ORIENTED_EDGE('',*,*,#332,.F.);
#81=ORIENTED_EDGE('',*,*,#333,.T.);
#82=ORIENTED_EDGE('',*,*,#334,.F.);
#83=ORIENTED_EDGE('',*,*,#335,.T.);
#84=ORIENTED_EDGE('',*,*,#336,.F.);
#85=ORIENTED_EDGE('',*,*,#337,.T.);
#86=ORIENTED_EDGE('',*,*,#338,.F.);
#87=ORIENTED_EDGE('',*,*,#339,.T.);
#88=ORIENTED_EDGE('',*,*,#340,.F.);
#89=ORIENTED_EDGE('',*,*,#341,.T.);
#90=ORIENTED_EDGE('',*,*,#342,.F.);
#91=ORIENTED_EDGE('',*,*,#343,.T.);
#92=ORIENTED_EDGE('',*,*,#344,.F.);
#93=ORIENTED_EDGE('',*,*,#345,.T.);
#94=ORIENTED_EDGE('',*,*,#346,.F.);
#95=ORIENTED_EDGE('',*,*,#347,.T.);
#96=ORIENTED_EDGE('',*,*,#348,.F.);
#97=ORIENTED_EDGE('',*,*,#349,.T.);
#98=ORIENTED_EDGE('',*,*,#350,.F.);
#99=ORIENTED_EDGE('',*,*,#351,.T.);
#100=ORIENTED_EDGE('',*,*,#352,.F.);
#101=ORIENTED_EDGE('',*,*,#353,.T.);
#102=ORIENTED_EDGE('',*,*,#354,.F.);
#103=ORIENTED_EDGE('',*,*,#355,.T.);
#104=ORIENTED_EDGE('',*,*,#356,.F.);
#105=ORIENTED_EDGE('',*,*,#357,.T.);
#106=ORIENTED_EDGE('',*,*,#358,.F.);
#107=ORIENTED_EDGE('',*,*,#359,.T.);
#108=ORIENTED_EDGE('',*,*,#360,.F.);
#109=ORIENTED_EDGE('',*,*,#361,.T.);
#110=ORIENTED_EDGE('',*,*,#362,.F.);
#111=ORIENTED_EDGE('',*,*,#363,.T.);
#112=ORIENTED_EDGE('',*,*,#364,.F.);
#113=ORIENTED_EDGE('',*,*,#365,.T.);
#114=ORIENTED_EDGE('',*,*,#366,.F.);
#115=ORIENTED_EDGE('',*,*,#367,.T.);
#116=ORIENTED_EDGE('',*,*,#368,.F.);
#117=ORIENTED_EDGE('',*,*,#369,.T.);
#118=ORIENTED_EDGE('',*,*,#370,.T.);
#119=ORIENTED_EDGE('',*,*,#371,.F.);
#120=ORIENTED_EDGE('',*,*,#372,.F.);
#121=ORIENTED_EDGE('',*,*,#373,.T.);
#122=ORIENTED_EDGE('',*,*,#374,.F.);
#123=ORIENTED_EDGE('',*,*,#375,.T.);
#124=ORIENTED_EDGE('',*,*,#376,.F.);
#125=ORIENTED_EDGE('',*,*,#377,.T.);
#126=ORIENTED_EDGE('',*,*,#378,.F.);
#127=ORIENTED_EDGE('',*,*,#379,.T.);
#128=ORIENTED_EDGE('',*,*,#380,.F.);
#129=ORIENTED_EDGE('',*,*,#381,.T.);
#130=ORIENTED_EDGE('',*,*,#382,.F.);
#131=ORIENTED_EDGE('',*,*,#383,.T.);
#132=ORIENTED_EDGE('',*,*,#384,.F.);
#133=ORIENTED_EDGE('',*,*,#385,.T.);
#134=ORIENTED_EDGE('',*,*,#386,.F.);
#135=ORIENTED_EDGE('',*,*,#387,.T.);
#136=ORIENTED_EDGE('',*,*,#388,.F.);
#137=ORIENTED_EDGE('',*,*,#389,.T.);
#138=ORIENTED_EDGE('',*,*,#390,.F.);
#139=ORIENTED_EDGE('',*,*,#391,.T.);
#140=ORIENTED_EDGE('',*,*,#392,.F.);
#141=ORIENTED_EDGE('',*,*,#393,.T.);
#142=ORIENTED_EDGE('',*,*,#394,.F.);
#143=ORIENTED_EDGE('',*,*,#395,.T.);
#144=ORIENTED_EDGE('',*,*,#396,.F.);
#145=ORIENTED_EDGE('',*,*,#397,.T.);
#146=ORIENTED_EDGE('',*,*,#398,.F.);
#147=ORIENTED_EDGE('',*,*,#399,.T.);
#148=ORIENTED_EDGE('',*,*,#400,.F.);
#149=ORIENTED_EDGE('',*,*,#401,.T.);
#150=ORIENTED_EDGE('',*,*,#402,.F.);
#151=ORIENTED_EDGE('',*,*,#403,.T.);
#152=ORIENTED_EDGE('',*,*,#404,.F.);
#153=ORIENTED_EDGE('',*,*,#405,.T.);
#154=ORIENTED_EDGE('',*,*,#406,.F.);
#155=ORIENTED_EDGE('',*,*,#407,.T.);
#156=ORIENTED_EDGE('',*,*,#408,.F.);
#157=ORIENTED_EDGE('',*,*,#409,.T.);
#158=ORIENTED_EDGE('',*,*,#410,.F.);
#159=ORIENTED_EDGE('',*,*,#411,.T.);
#160=ORIENTED_EDGE('',*,*,#412,.F.);
#161=ORIENTED_EDGE('',*,*,#413,.T.);
#162=ORIENTED_EDGE('',*,*,#414,.F.);
#163=ORIENTED_EDGE('',*,*,#415,.T.);
#164=ORIENTED_EDGE('',*,*,#416,.F.);
#165=ORIENTED_EDGE('',*,*,#417,.T.);
#166=ORIENTED_EDGE('',*,*,#418,.F.);
#167=ORIENTED_EDGE('',*,*,#419,.T.);
#168=ORIENTED_EDGE('',*,*,#420,.F.);
#169=ORIENTED_EDGE('',*,*,#421,.T.);
#170=ORIENTED_EDGE('',*,*,#422,.F.);
#171=ORIENTED_EDGE('',*,*,#423,.T.);
#172=ORIENTED_EDGE('',*,*,#424,.F.);
#173=ORIENTED_EDGE('',*,*,#425,.F.);
#174=ORIENTED_EDGE('',*,*,#372,.T.);
#175=ORIENTED_EDGE('',*,*,#426,.T.);
#176=ORIENTED_EDGE('',*,*,#427,.F.);
#177=ORIENTED_EDGE('',*,*,#428,.T.);
#178=ORIENTED_EDGE('',*,*,#429,.F.);
#179=ORIENTED_EDGE('',*,*,#430,.T.);
#180=ORIENTED_EDGE('',*,*,#431,.F.);
#181=ORIENTED_EDGE('',*,*,#432,.T.);
#182=ORIENTED_EDGE('',*,*,#433,.F.);
#183=ORIENTED_EDGE('',*,*,#434,.T.);
#184=ORIENTED_EDGE('',*,*,#422,.T.);
#185=ORIENTED_EDGE('',*,*,#420,.T.);
#186=ORIENTED_EDGE('',*,*,#418,.T.);
#187=ORIENTED_EDGE('',*,*,#416,.T.);
#188=ORIENTED_EDGE('',*,*,#414,.T.);
#189=ORIENTED_EDGE('',*,*,#412,.T.);
#190=ORIENTED_EDGE('',*,*,#410,.T.);
#191=ORIENTED_EDGE('',*,*,#408,.T.);
#192=ORIENTED_EDGE('',*,*,#406,.T.);
#193=ORIENTED_EDGE('',*,*,#404,.T.);
#194=ORIENTED_EDGE('',*,*,#402,.T.);
#195=ORIENTED_EDGE('',*,*,#400,.T.);
#196=ORIENTED_EDGE('',*,*,#398,.T.);
#197=ORIENTED_EDGE('',*,*,#396,.T.);
#198=ORIENTED_EDGE('',*,*,#394,.T.);
#199=ORIENTED_EDGE('',*,*,#392,.T.);
#200=ORIENTED_EDGE('',*,*,#390,.T.);
#201=ORIENTED_EDGE('',*,*,#388,.T.);
#202=ORIENTED_EDGE('',*,*,#386,.T.);
#203=ORIENTED_EDGE('',*,*,#384,.T.);
#204=ORIENTED_EDGE('',*,*,#382,.T.);
#205=ORIENTED_EDGE('',*,*,#380,.T.);
#206=ORIENTED_EDGE('',*,*,#378,.T.);
#207=ORIENTED_EDGE('',*,*,#376,.T.);
#208=ORIENTED_EDGE('',*,*,#374,.T.);
#209=ORIENTED_EDGE('',*,*,#368,.T.);
#210=ORIENTED_EDGE('',*,*,#366,.T.);
#211=ORIENTED_EDGE('',*,*,#364,.T.);
#212=ORIENTED_EDGE('',*,*,#362,.T.);
#213=ORIENTED_EDGE('',*,*,#360,.T.);
#214=ORIENTED_EDGE('',*,*,#358,.T.);
#215=ORIENTED_EDGE('',*,*,#356,.T.);
#216=ORIENTED_EDGE('',*,*,#354,.T.);
#217=ORIENTED_EDGE('',*,*,#352,.T.);
#218=ORIENTED_EDGE('',*,*,#350,.T.);
#219=ORIENTED_EDGE('',*,*,#348,.T.);
#220=ORIENTED_EDGE('',*,*,#346,.T.);
#221=ORIENTED_EDGE('',*,*,#344,.T.);
#222=ORIENTED_EDGE('',*,*,#342,.T.);
#223=ORIENTED_EDGE('',*,*,#340,.T.);
#224=ORIENTED_EDGE('',*,*,#338,.T.);
#225=ORIENTED_EDGE('',*,*,#336,.T.);
#226=ORIENTED_EDGE('',*,*,#334,.T.);
#227=ORIENTED_EDGE('',*,*,#332,.T.);
#228=ORIENTED_EDGE('',*,*,#330,.T.);
#229=ORIENTED_EDGE('',*,*,#423,.F.);
#230=ORIENTED_EDGE('',*,*,#421,.F.);
#231=ORIENTED_EDGE('',*,*,#419,.F.);
#232=ORIENTED_EDGE('',*,*,#417,.F.);
#233=ORIENTED_EDGE('',*,*,#415,.F.);
#234=ORIENTED_EDGE('',*,*,#413,.F.);
#235=ORIENTED_EDGE('',*,*,#411,.F.);
#236=ORIENTED_EDGE('',*,*,#409,.F.);
#237=ORIENTED_EDGE('',*,*,#407,.F.);
#238=ORIENTED_EDGE('',*,*,#405,.F.);
#239=ORIENTED_EDGE('',*,*,#403,.F.);
#240=ORIENTED_EDGE('',*,*,#401,.F.);
#241=ORIENTED_EDGE('',*,*,#399,.F.);
#242=ORIENTED_EDGE('',*,*,#397,.F.);
#243=ORIENTED_EDGE('',*,*,#395,.F.);
#244=ORIENTED_EDGE('',*,*,#393,.F.);
#245=ORIENTED_EDGE('',*,*,#391,.F.);
#246=ORIENTED_EDGE('',*,*,#389,.F.);
#247=ORIENTED_EDGE('',*,*,#387,.F.);
#248=ORIENTED_EDGE('',*,*,#385,.F.);
#249=ORIENTED_EDGE('',*,*,#383,.F.);
#250=ORIENTED_EDGE('',*,*,#381,.F.);
#251=ORIENTED_EDGE('',*,*,#379,.F.);
#252=ORIENTED_EDGE('',*,*,#377,.F.);
#253=ORIENTED_EDGE('',*,*,#375,.F.);
#254=ORIENTED_EDGE('',*,*,#435,.T.);
#255=ORIENTED_EDGE('',*,*,#436,.T.);
#256=ORIENTED_EDGE('',*,*,#437,.F.);
#257=ORIENTED_EDGE('',*,*,#438,.T.);
#258=ORIENTED_EDGE('',*,*,#439,.F.);
#259=ORIENTED_EDGE('',*,*,#440,.T.);
#260=ORIENTED_EDGE('',*,*,#441,.F.);
#261=ORIENTED_EDGE('',*,*,#442,.T.);
#262=ORIENTED_EDGE('',*,*,#443,.F.);
#263=ORIENTED_EDGE('',*,*,#444,.T.);
#264=ORIENTED_EDGE('',*,*,#445,.F.);
#265=ORIENTED_EDGE('',*,*,#370,.F.);
#266=ORIENTED_EDGE('',*,*,#369,.F.);
#267=ORIENTED_EDGE('',*,*,#367,.F.);
#268=ORIENTED_EDGE('',*,*,#365,.F.);
#269=ORIENTED_EDGE('',*,*,#363,.F.);
#270=ORIENTED_EDGE('',*,*,#361,.F.);
#271=ORIENTED_EDGE('',*,*,#359,.F.);
#272=ORIENTED_EDGE('',*,*,#357,.F.);
#273=ORIENTED_EDGE('',*,*,#355,.F.);
#274=ORIENTED_EDGE('',*,*,#353,.F.);
#275=ORIENTED_EDGE('',*,*,#351,.F.);
#276=ORIENTED_EDGE('',*,*,#349,.F.);
#277=ORIENTED_EDGE('',*,*,#347,.F.);
#278=ORIENTED_EDGE('',*,*,#345,.F.);
#279=ORIENTED_EDGE('',*,*,#343,.F.);
#280=ORIENTED_EDGE('',*,*,#341,.F.);
#281=ORIENTED_EDGE('',*,*,#339,.F.);
#282=ORIENTED_EDGE('',*,*,#337,.F.);
#283=ORIENTED_EDGE('',*,*,#335,.F.);
#284=ORIENTED_EDGE('',*,*,#333,.F.);
#285=ORIENTED_EDGE('',*,*,#331,.F.);
#286=ORIENTED_EDGE('',*,*,#445,.T.);
#287=ORIENTED_EDGE('',*,*,#446,.T.);
#288=ORIENTED_EDGE('',*,*,#426,.F.);
#289=ORIENTED_EDGE('',*,*,#371,.T.);
#290=ORIENTED_EDGE('',*,*,#439,.T.);
#291=ORIENTED_EDGE('',*,*,#447,.T.);
#292=ORIENTED_EDGE('',*,*,#432,.F.);
#293=ORIENTED_EDGE('',*,*,#448,.T.);
#294=ORIENTED_EDGE('',*,*,#441,.T.);
#295=ORIENTED_EDGE('',*,*,#449,.T.);
#296=ORIENTED_EDGE('',*,*,#430,.F.);
#297=ORIENTED_EDGE('',*,*,#450,.T.);
#298=ORIENTED_EDGE('',*,*,#443,.T.);
#299=ORIENTED_EDGE('',*,*,#451,.T.);
#300=ORIENTED_EDGE('',*,*,#428,.F.);
#301=ORIENTED_EDGE('',*,*,#452,.T.);
#302=ORIENTED_EDGE('',*,*,#437,.T.);
#303=ORIENTED_EDGE('',*,*,#453,.T.);
#304=ORIENTED_EDGE('',*,*,#434,.F.);
#305=ORIENTED_EDGE('',*,*,#454,.T.);
#306=ORIENTED_EDGE('',*,*,#455,.F.);
#307=ORIENTED_EDGE('',*,*,#435,.F.);
#308=ORIENTED_EDGE('',*,*,#373,.F.);
#309=ORIENTED_EDGE('',*,*,#425,.T.);
#310=ORIENTED_EDGE('',*,*,#427,.T.);
#311=ORIENTED_EDGE('',*,*,#446,.F.);
#312=ORIENTED_EDGE('',*,*,#444,.F.);
#313=ORIENTED_EDGE('',*,*,#452,.F.);
#314=ORIENTED_EDGE('',*,*,#429,.T.);
#315=ORIENTED_EDGE('',*,*,#451,.F.);
#316=ORIENTED_EDGE('',*,*,#442,.F.);
#317=ORIENTED_EDGE('',*,*,#450,.F.);
#318=ORIENTED_EDGE('',*,*,#431,.T.);
#319=ORIENTED_EDGE('',*,*,#449,.F.);
#320=ORIENTED_EDGE('',*,*,#440,.F.);
#321=ORIENTED_EDGE('',*,*,#448,.F.);
#322=ORIENTED_EDGE('',*,*,#433,.T.);
#323=ORIENTED_EDGE('',*,*,#447,.F.);
#324=ORIENTED_EDGE('',*,*,#438,.F.);
#325=ORIENTED_EDGE('',*,*,#454,.F.);
#326=ORIENTED_EDGE('',*,*,#424,.T.);
#327=ORIENTED_EDGE('',*,*,#453,.F.);
#328=ORIENTED_EDGE('',*,*,#436,.F.);
#329=ORIENTED_EDGE('',*,*,#455,.T.);
#330=EDGE_CURVE('',#456,#456,#570,.F.);
#331=EDGE_CURVE('',#457,#457,#571,.F.);
#332=EDGE_CURVE('',#458,#458,#572,.F.);
#333=EDGE_CURVE('',#459,#459,#573,.F.);
#334=EDGE_CURVE('',#460,#460,#574,.F.);
#335=EDGE_CURVE('',#461,#461,#575,.F.);
#336=EDGE_CURVE('',#462,#462,#576,.F.);
#337=EDGE_CURVE('',#463,#463,#577,.F.);
#338=EDGE_CURVE('',#464,#464,#578,.F.);
#339=EDGE_CURVE('',#465,#465,#579,.F.);
#340=EDGE_CURVE('',#466,#466,#580,.F.);
#341=EDGE_CURVE('',#467,#467,#581,.F.);
#342=EDGE_CURVE('',#468,#468,#582,.F.);
#343=EDGE_CURVE('',#469,#469,#583,.F.);
#344=EDGE_CURVE('',#470,#470,#584,.F.);
#345=EDGE_CURVE('',#471,#471,#585,.F.);
#346=EDGE_CURVE('',#472,#472,#586,.F.);
#347=EDGE_CURVE('',#473,#473,#587,.F.);
#348=EDGE_CURVE('',#474,#474,#588,.F.);
#349=EDGE_CURVE('',#475,#475,#589,.F.);
#350=EDGE_CURVE('',#476,#476,#590,.F.);
#351=EDGE_CURVE('',#477,#477,#591,.F.);
#352=EDGE_CURVE('',#478,#478,#592,.F.);
#353=EDGE_CURVE('',#479,#479,#593,.F.);
#354=EDGE_CURVE('',#480,#480,#594,.F.);
#355=EDGE_CURVE('',#481,#481,#595,.F.);
#356=EDGE_CURVE('',#482,#482,#596,.F.);
#357=EDGE_CURVE('',#483,#483,#597,.F.);
#358=EDGE_CURVE('',#484,#484,#598,.F.);
#359=EDGE_CURVE('',#485,#485,#599,.F.);
#360=EDGE_CURVE('',#486,#486,#600,.F.);
#361=EDGE_CURVE('',#487,#487,#601,.F.);
#362=EDGE_CURVE('',#488,#488,#602,.F.);
#363=EDGE_CURVE('',#489,#489,#603,.F.);
#364=EDGE_CURVE('',#490,#490,#604,.F.);
#365=EDGE_CURVE('',#491,#491,#605,.F.);
#366=EDGE_CURVE('',#492,#492,#606,.F.);
#367=EDGE_CURVE('',#493,#493,#607,.F.);
#368=EDGE_CURVE('',#494,#494,#608,.F.);
#369=EDGE_CURVE('',#495,#495,#609,.F.);
#370=EDGE_CURVE('',#496,#497,#12,.T.);
#371=EDGE_CURVE('',#498,#497,#13,.T.);
#372=EDGE_CURVE('',#499,#498,#14,.T.);
#373=EDGE_CURVE('',#499,#496,#15,.T.);
#374=EDGE_CURVE('',#500,#500,#610,.F.);
#375=EDGE_CURVE('',#501,#501,#611,.F.);
#376=EDGE_CURVE('',#502,#502,#612,.F.);
#377=EDGE_CURVE('',#503,#503,#613,.F.);
#378=EDGE_CURVE('',#504,#504,#614,.F.);
#379=EDGE_CURVE('',#505,#505,#615,.F.);
#380=EDGE_CURVE('',#506,#506,#616,.F.);
#381=EDGE_CURVE('',#507,#507,#617,.F.);
#382=EDGE_CURVE('',#508,#508,#618,.F.);
#383=EDGE_CURVE('',#509,#509,#619,.F.);
#384=EDGE_CURVE('',#510,#510,#620,.F.);
#385=EDGE_CURVE('',#511,#511,#621,.F.);
#386=EDGE_CURVE('',#512,#512,#622,.F.);
#387=EDGE_CURVE('',#513,#513,#623,.F.);
#388=EDGE_CURVE('',#514,#514,#624,.F.);
#389=EDGE_CURVE('',#515,#515,#625,.F.);
#390=EDGE_CURVE('',#516,#516,#626,.F.);
#391=EDGE_CURVE('',#517,#517,#627,.F.);
#392=EDGE_CURVE('',#518,#518,#628,.F.);
#393=EDGE_CURVE('',#519,#519,#629,.F.);
#394=EDGE_CURVE('',#520,#520,#630,.F.);
#395=EDGE_CURVE('',#521,#521,#631,.F.);
#396=EDGE_CURVE('',#522,#522,#632,.F.);
#397=EDGE_CURVE('',#523,#523,#633,.F.);
#398=EDGE_CURVE('',#524,#524,#634,.F.);
#399=EDGE_CURVE('',#525,#525,#635,.F.);
#400=EDGE_CURVE('',#526,#526,#636,.F.);
#401=EDGE_CURVE('',#527,#527,#637,.F.);
#402=EDGE_CURVE('',#528,#528,#638,.F.);
#403=EDGE_CURVE('',#529,#529,#639,.F.);
#404=EDGE_CURVE('',#530,#530,#640,.F.);
#405=EDGE_CURVE('',#531,#531,#641,.F.);
#406=EDGE_CURVE('',#532,#532,#642,.F.);
#407=EDGE_CURVE('',#533,#533,#643,.F.);
#408=EDGE_CURVE('',#534,#534,#644,.F.);
#409=EDGE_CURVE('',#535,#535,#645,.F.);
#410=EDGE_CURVE('',#536,#536,#646,.F.);
#411=EDGE_CURVE('',#537,#537,#647,.F.);
#412=EDGE_CURVE('',#538,#538,#648,.F.);
#413=EDGE_CURVE('',#539,#539,#649,.F.);
#414=EDGE_CURVE('',#540,#540,#650,.F.);
#415=EDGE_CURVE('',#541,#541,#651,.F.);
#416=EDGE_CURVE('',#542,#542,#652,.F.);
#417=EDGE_CURVE('',#543,#543,#653,.F.);
#418=EDGE_CURVE('',#544,#544,#654,.F.);
#419=EDGE_CURVE('',#545,#545,#655,.F.);
#420=EDGE_CURVE('',#546,#546,#656,.F.);
#421=EDGE_CURVE('',#547,#547,#657,.F.);
#422=EDGE_CURVE('',#548,#548,#658,.F.);
#423=EDGE_CURVE('',#549,#549,#659,.F.);
#424=EDGE_CURVE('',#550,#551,#16,.T.);
#425=EDGE_CURVE('',#499,#550,#17,.T.);
#426=EDGE_CURVE('',#498,#552,#18,.T.);
#427=EDGE_CURVE('',#553,#552,#19,.T.);
#428=EDGE_CURVE('',#553,#554,#660,.F.);
#429=EDGE_CURVE('',#555,#554,#20,.T.);
#430=EDGE_CURVE('',#555,#556,#661,.F.);
#431=EDGE_CURVE('',#557,#556,#21,.T.);
#432=EDGE_CURVE('',#557,#558,#662,.F.);
#433=EDGE_CURVE('',#559,#558,#22,.T.);
#434=EDGE_CURVE('',#559,#551,#663,.F.);
#435=EDGE_CURVE('',#496,#560,#23,.T.);
#436=EDGE_CURVE('',#560,#561,#24,.T.);
#437=EDGE_CURVE('',#562,#561,#664,.F.);
#438=EDGE_CURVE('',#562,#563,#25,.T.);
#439=EDGE_CURVE('',#564,#563,#665,.F.);
#440=EDGE_CURVE('',#564,#565,#26,.T.);
#441=EDGE_CURVE('',#566,#565,#666,.F.);
#442=EDGE_CURVE('',#566,#567,#27,.T.);
#443=EDGE_CURVE('',#568,#567,#667,.F.);
#444=EDGE_CURVE('',#568,#569,#28,.T.);
#445=EDGE_CURVE('',#497,#569,#29,.T.);
#446=EDGE_CURVE('',#569,#552,#30,.T.);
#447=EDGE_CURVE('',#563,#558,#31,.F.);
#448=EDGE_CURVE('',#557,#564,#32,.T.);
#449=EDGE_CURVE('',#565,#556,#33,.F.);
#450=EDGE_CURVE('',#555,#566,#34,.T.);
#451=EDGE_CURVE('',#567,#554,#35,.F.);
#452=EDGE_CURVE('',#553,#568,#36,.T.);
#453=EDGE_CURVE('',#561,#551,#37,.F.);
#454=EDGE_CURVE('',#559,#562,#38,.T.);
#455=EDGE_CURVE('',#560,#550,#39,.T.);
#456=VERTEX_POINT('',#1681);
#457=VERTEX_POINT('',#1683);
#458=VERTEX_POINT('',#1686);
#459=VERTEX_POINT('',#1688);
#460=VERTEX_POINT('',#1691);
#461=VERTEX_POINT('',#1693);
#462=VERTEX_POINT('',#1696);
#463=VERTEX_POINT('',#1698);
#464=VERTEX_POINT('',#1701);
#465=VERTEX_POINT('',#1703);
#466=VERTEX_POINT('',#1706);
#467=VERTEX_POINT('',#1708);
#468=VERTEX_POINT('',#1711);
#469=VERTEX_POINT('',#1713);
#470=VERTEX_POINT('',#1716);
#471=VERTEX_POINT('',#1718);
#472=VERTEX_POINT('',#1721);
#473=VERTEX_POINT('',#1723);
#474=VERTEX_POINT('',#1726);
#475=VERTEX_POINT('',#1728);
#476=VERTEX_POINT('',#1731);
#477=VERTEX_POINT('',#1733);
#478=VERTEX_POINT('',#1736);
#479=VERTEX_POINT('',#1738);
#480=VERTEX_POINT('',#1741);
#481=VERTEX_POINT('',#1743);
#482=VERTEX_POINT('',#1746);
#483=VERTEX_POINT('',#1748);
#484=VERTEX_POINT('',#1751);
#485=VERTEX_POINT('',#1753);
#486=VERTEX_POINT('',#1756);
#487=VERTEX_POINT('',#1758);
#488=VERTEX_POINT('',#1761);
#489=VERTEX_POINT('',#1763);
#490=VERTEX_POINT('',#1766);
#491=VERTEX_POINT('',#1768);
#492=VERTEX_POINT('',#1771);
#493=VERTEX_POINT('',#1773);
#494=VERTEX_POINT('',#1776);
#495=VERTEX_POINT('',#1778);
#496=VERTEX_POINT('',#1781);
#497=VERTEX_POINT('',#1782);
#498=VERTEX_POINT('',#1784);
#499=VERTEX_POINT('',#1786);
#500=VERTEX_POINT('',#1790);
#501=VERTEX_POINT('',#1792);
#502=VERTEX_POINT('',#1795);
#503=VERTEX_POINT('',#1797);
#504=VERTEX_POINT('',#1800);
#505=VERTEX_POINT('',#1802);
#506=VERTEX_POINT('',#1805);
#507=VERTEX_POINT('',#1807);
#508=VERTEX_POINT('',#1810);
#509=VERTEX_POINT('',#1812);
#510=VERTEX_POINT('',#1815);
#511=VERTEX_POINT('',#1817);
#512=VERTEX_POINT('',#1820);
#513=VERTEX_POINT('',#1822);
#514=VERTEX_POINT('',#1825);
#515=VERTEX_POINT('',#1827);
#516=VERTEX_POINT('',#1830);
#517=VERTEX_POINT('',#1832);
#518=VERTEX_POINT('',#1835);
#519=VERTEX_POINT('',#1837);
#520=VERTEX_POINT('',#1840);
#521=VERTEX_POINT('',#1842);
#522=VERTEX_POINT('',#1845);
#523=VERTEX_POINT('',#1847);
#524=VERTEX_POINT('',#1850);
#525=VERTEX_POINT('',#1852);
#526=VERTEX_POINT('',#1855);
#527=VERTEX_POINT('',#1857);
#528=VERTEX_POINT('',#1860);
#529=VERTEX_POINT('',#1862);
#530=VERTEX_POINT('',#1865);
#531=VERTEX_POINT('',#1867);
#532=VERTEX_POINT('',#1870);
#533=VERTEX_POINT('',#1872);
#534=VERTEX_POINT('',#1875);
#535=VERTEX_POINT('',#1877);
#536=VERTEX_POINT('',#1880);
#537=VERTEX_POINT('',#1882);
#538=VERTEX_POINT('',#1885);
#539=VERTEX_POINT('',#1887);
#540=VERTEX_POINT('',#1890);
#541=VERTEX_POINT('',#1892);
#542=VERTEX_POINT('',#1895);
#543=VERTEX_POINT('',#1897);
#544=VERTEX_POINT('',#1900);
#545=VERTEX_POINT('',#1902);
#546=VERTEX_POINT('',#1905);
#547=VERTEX_POINT('',#1907);
#548=VERTEX_POINT('',#1910);
#549=VERTEX_POINT('',#1912);
#550=VERTEX_POINT('',#1915);
#551=VERTEX_POINT('',#1916);
#552=VERTEX_POINT('',#1919);
#553=VERTEX_POINT('',#1921);
#554=VERTEX_POINT('',#1923);
#555=VERTEX_POINT('',#1925);
#556=VERTEX_POINT('',#1927);
#557=VERTEX_POINT('',#1929);
#558=VERTEX_POINT('',#1931);
#559=VERTEX_POINT('',#1933);
#560=VERTEX_POINT('',#1937);
#561=VERTEX_POINT('',#1939);
#562=VERTEX_POINT('',#1941);
#563=VERTEX_POINT('',#1943);
#564=VERTEX_POINT('',#1945);
#565=VERTEX_POINT('',#1947);
#566=VERTEX_POINT('',#1949);
#567=VERTEX_POINT('',#1951);
#568=VERTEX_POINT('',#1953);
#569=VERTEX_POINT('',#1955);
#570=CIRCLE('',#1178,0.0050927);
#571=CIRCLE('',#1179,0.0050927);
#572=CIRCLE('',#1181,0.0025527);
#573=CIRCLE('',#1182,0.0025527);
#574=CIRCLE('',#1184,0.0025527);
#575=CIRCLE('',#1185,0.0025527);
#576=CIRCLE('',#1187,0.0050927);
#577=CIRCLE('',#1188,0.0050927);
#578=CIRCLE('',#1190,0.0050927);
#579=CIRCLE('',#1191,0.0050927);
#580=CIRCLE('',#1193,0.0050927);
#581=CIRCLE('',#1194,0.0050927);
#582=CIRCLE('',#1196,0.0025527);
#583=CIRCLE('',#1197,0.0025527);
#584=CIRCLE('',#1199,0.0025527);
#585=CIRCLE('',#1200,0.0025527);
#586=CIRCLE('',#1202,0.0025527);
#587=CIRCLE('',#1203,0.0025527);
#588=CIRCLE('',#1205,0.0025527);
#589=CIRCLE('',#1206,0.0025527);
#590=CIRCLE('',#1208,0.0025527);
#591=CIRCLE('',#1209,0.0025527);
#592=CIRCLE('',#1211,0.0050927);
#593=CIRCLE('',#1212,0.0050927);
#594=CIRCLE('',#1214,0.0050927);
#595=CIRCLE('',#1215,0.0050927);
#596=CIRCLE('',#1217,0.0025527);
#597=CIRCLE('',#1218,0.0025527);
#598=CIRCLE('',#1220,0.0025527);
#599=CIRCLE('',#1221,0.0025527);
#600=CIRCLE('',#1223,0.0050927);
#601=CIRCLE('',#1224,0.0050927);
#602=CIRCLE('',#1226,0.0025527);
#603=CIRCLE('',#1227,0.0025527);
#604=CIRCLE('',#1229,0.0025527);
#605=CIRCLE('',#1230,0.0025527);
#606=CIRCLE('',#1232,0.0025527);
#607=CIRCLE('',#1233,0.0025527);
#608=CIRCLE('',#1235,0.0050927);
#609=CIRCLE('',#1236,0.0050927);
#610=CIRCLE('',#1239,0.0025527);
#611=CIRCLE('',#1240,0.0025527);
#612=CIRCLE('',#1242,0.0025527);
#613=CIRCLE('',#1243,0.0025527);
#614=CIRCLE('',#1245,0.0025527);
#615=CIRCLE('',#1246,0.0025527);
#616=CIRCLE('',#1248,0.0050927);
#617=CIRCLE('',#1249,0.0050927);
#618=CIRCLE('',#1251,0.0025527);
#619=CIRCLE('',#1252,0.0025527);
#620=CIRCLE('',#1254,0.0025527);
#621=CIRCLE('',#1255,0.0025527);
#622=CIRCLE('',#1257,0.0025527);
#623=CIRCLE('',#1258,0.0025527);
#624=CIRCLE('',#1260,0.0025527);
#625=CIRCLE('',#1261,0.0025527);
#626=CIRCLE('',#1263,0.0025527);
#627=CIRCLE('',#1264,0.0025527);
#628=CIRCLE('',#1266,0.0025527);
#629=CIRCLE('',#1267,0.0025527);
#630=CIRCLE('',#1269,0.0025527);
#631=CIRCLE('',#1270,0.0025527);
#632=CIRCLE('',#1272,0.0025527);
#633=CIRCLE('',#1273,0.0025527);
#634=CIRCLE('',#1275,0.0025527);
#635=CIRCLE('',#1276,0.0025527);
#636=CIRCLE('',#1278,0.0025527);
#637=CIRCLE('',#1279,0.0025527);
#638=CIRCLE('',#1281,0.0025527);
#639=CIRCLE('',#1282,0.0025527);
#640=CIRCLE('',#1284,0.0025527);
#641=CIRCLE('',#1285,0.0025527);
#642=CIRCLE('',#1287,0.0025527);
#643=CIRCLE('',#1288,0.0025527);
#644=CIRCLE('',#1290,0.0025527);
#645=CIRCLE('',#1291,0.0025527);
#646=CIRCLE('',#1293,0.0025527);
#647=CIRCLE('',#1294,0.0025527);
#648=CIRCLE('',#1296,0.0025527);
#649=CIRCLE('',#1297,0.0025527);
#650=CIRCLE('',#1299,0.0025527);
#651=CIRCLE('',#1300,0.0025527);
#652=CIRCLE('',#1302,0.0025527);
#653=CIRCLE('',#1303,0.0025527);
#654=CIRCLE('',#1305,0.0025527);
#655=CIRCLE('',#1306,0.0025527);
#656=CIRCLE('',#1308,0.0050927);
#657=CIRCLE('',#1309,0.0050927);
#658=CIRCLE('',#1311,0.0025527);
#659=CIRCLE('',#1312,0.0025527);
#660=CIRCLE('',#1314,0.0050927);
#661=CIRCLE('',#1315,0.0050927);
#662=CIRCLE('',#1316,0.031684);
#663=CIRCLE('',#1317,0.0050927);
#664=CIRCLE('',#1319,0.0050927);
#665=CIRCLE('',#1320,0.031684);
#666=CIRCLE('',#1321,0.0050927);
#667=CIRCLE('',#1322,0.0050927);
#668=EDGE_LOOP('',(#78));
#669=EDGE_LOOP('',(#79));
#670=EDGE_LOOP('',(#80));
#671=EDGE_LOOP('',(#81));
#672=EDGE_LOOP('',(#82));
#673=EDGE_LOOP('',(#83));
#674=EDGE_LOOP('',(#84));
#675=EDGE_LOOP('',(#85));
#676=EDGE_LOOP('',(#86));
#677=EDGE_LOOP('',(#87));
#678=EDGE_LOOP('',(#88));
#679=EDGE_LOOP('',(#89));
#680=EDGE_LOOP('',(#90));
#681=EDGE_LOOP('',(#91));
#682=EDGE_LOOP('',(#92));
#683=EDGE_LOOP('',(#93));
#684=EDGE_LOOP('',(#94));
#685=EDGE_LOOP('',(#95));
#686=EDGE_LOOP('',(#96));
#687=EDGE_LOOP('',(#97));
#688=EDGE_LOOP('',(#98));
#689=EDGE_LOOP('',(#99));
#690=EDGE_LOOP('',(#100));
#691=EDGE_LOOP('',(#101));
#692=EDGE_LOOP('',(#102));
#693=EDGE_LOOP('',(#103));
#694=EDGE_LOOP('',(#104));
#695=EDGE_LOOP('',(#105));
#696=EDGE_LOOP('',(#106));
#697=EDGE_LOOP('',(#107));
#698=EDGE_LOOP('',(#108));
#699=EDGE_LOOP('',(#109));
#700=EDGE_LOOP('',(#110));
#701=EDGE_LOOP('',(#111));
#702=EDGE_LOOP('',(#112));
#703=EDGE_LOOP('',(#113));
#704=EDGE_LOOP('',(#114));
#705=EDGE_LOOP('',(#115));
#706=EDGE_LOOP('',(#116));
#707=EDGE_LOOP('',(#117));
#708=EDGE_LOOP('',(#118,#119,#120,#121));
#709=EDGE_LOOP('',(#122));
#710=EDGE_LOOP('',(#123));
#711=EDGE_LOOP('',(#124));
#712=EDGE_LOOP('',(#125));
#713=EDGE_LOOP('',(#126));
#714=EDGE_LOOP('',(#127));
#715=EDGE_LOOP('',(#128));
#716=EDGE_LOOP('',(#129));
#717=EDGE_LOOP('',(#130));
#718=EDGE_LOOP('',(#131));
#719=EDGE_LOOP('',(#132));
#720=EDGE_LOOP('',(#133));
#721=EDGE_LOOP('',(#134));
#722=EDGE_LOOP('',(#135));
#723=EDGE_LOOP('',(#136));
#724=EDGE_LOOP('',(#137));
#725=EDGE_LOOP('',(#138));
#726=EDGE_LOOP('',(#139));
#727=EDGE_LOOP('',(#140));
#728=EDGE_LOOP('',(#141));
#729=EDGE_LOOP('',(#142));
#730=EDGE_LOOP('',(#143));
#731=EDGE_LOOP('',(#144));
#732=EDGE_LOOP('',(#145));
#733=EDGE_LOOP('',(#146));
#734=EDGE_LOOP('',(#147));
#735=EDGE_LOOP('',(#148));
#736=EDGE_LOOP('',(#149));
#737=EDGE_LOOP('',(#150));
#738=EDGE_LOOP('',(#151));
#739=EDGE_LOOP('',(#152));
#740=EDGE_LOOP('',(#153));
#741=EDGE_LOOP('',(#154));
#742=EDGE_LOOP('',(#155));
#743=EDGE_LOOP('',(#156));
#744=EDGE_LOOP('',(#157));
#745=EDGE_LOOP('',(#158));
#746=EDGE_LOOP('',(#159));
#747=EDGE_LOOP('',(#160));
#748=EDGE_LOOP('',(#161));
#749=EDGE_LOOP('',(#162));
#750=EDGE_LOOP('',(#163));
#751=EDGE_LOOP('',(#164));
#752=EDGE_LOOP('',(#165));
#753=EDGE_LOOP('',(#166));
#754=EDGE_LOOP('',(#167));
#755=EDGE_LOOP('',(#168));
#756=EDGE_LOOP('',(#169));
#757=EDGE_LOOP('',(#170));
#758=EDGE_LOOP('',(#171));
#759=EDGE_LOOP('',(#172,#173,#174,#175,#176,#177,#178,#179,#180,#181,#182,
#183));
#760=EDGE_LOOP('',(#184));
#761=EDGE_LOOP('',(#185));
#762=EDGE_LOOP('',(#186));
#763=EDGE_LOOP('',(#187));
#764=EDGE_LOOP('',(#188));
#765=EDGE_LOOP('',(#189));
#766=EDGE_LOOP('',(#190));
#767=EDGE_LOOP('',(#191));
#768=EDGE_LOOP('',(#192));
#769=EDGE_LOOP('',(#193));
#770=EDGE_LOOP('',(#194));
#771=EDGE_LOOP('',(#195));
#772=EDGE_LOOP('',(#196));
#773=EDGE_LOOP('',(#197));
#774=EDGE_LOOP('',(#198));
#775=EDGE_LOOP('',(#199));
#776=EDGE_LOOP('',(#200));
#777=EDGE_LOOP('',(#201));
#778=EDGE_LOOP('',(#202));
#779=EDGE_LOOP('',(#203));
#780=EDGE_LOOP('',(#204));
#781=EDGE_LOOP('',(#205));
#782=EDGE_LOOP('',(#206));
#783=EDGE_LOOP('',(#207));
#784=EDGE_LOOP('',(#208));
#785=EDGE_LOOP('',(#209));
#786=EDGE_LOOP('',(#210));
#787=EDGE_LOOP('',(#211));
#788=EDGE_LOOP('',(#212));
#789=EDGE_LOOP('',(#213));
#790=EDGE_LOOP('',(#214));
#791=EDGE_LOOP('',(#215));
#792=EDGE_LOOP('',(#216));
#793=EDGE_LOOP('',(#217));
#794=EDGE_LOOP('',(#218));
#795=EDGE_LOOP('',(#219));
#796=EDGE_LOOP('',(#220));
#797=EDGE_LOOP('',(#221));
#798=EDGE_LOOP('',(#222));
#799=EDGE_LOOP('',(#223));
#800=EDGE_LOOP('',(#224));
#801=EDGE_LOOP('',(#225));
#802=EDGE_LOOP('',(#226));
#803=EDGE_LOOP('',(#227));
#804=EDGE_LOOP('',(#228));
#805=EDGE_LOOP('',(#229));
#806=EDGE_LOOP('',(#230));
#807=EDGE_LOOP('',(#231));
#808=EDGE_LOOP('',(#232));
#809=EDGE_LOOP('',(#233));
#810=EDGE_LOOP('',(#234));
#811=EDGE_LOOP('',(#235));
#812=EDGE_LOOP('',(#236));
#813=EDGE_LOOP('',(#237));
#814=EDGE_LOOP('',(#238));
#815=EDGE_LOOP('',(#239));
#816=EDGE_LOOP('',(#240));
#817=EDGE_LOOP('',(#241));
#818=EDGE_LOOP('',(#242));
#819=EDGE_LOOP('',(#243));
#820=EDGE_LOOP('',(#244));
#821=EDGE_LOOP('',(#245));
#822=EDGE_LOOP('',(#246));
#823=EDGE_LOOP('',(#247));
#824=EDGE_LOOP('',(#248));
#825=EDGE_LOOP('',(#249));
#826=EDGE_LOOP('',(#250));
#827=EDGE_LOOP('',(#251));
#828=EDGE_LOOP('',(#252));
#829=EDGE_LOOP('',(#253));
#830=EDGE_LOOP('',(#254,#255,#256,#257,#258,#259,#260,#261,#262,#263,#264,
#265));
#831=EDGE_LOOP('',(#266));
#832=EDGE_LOOP('',(#267));
#833=EDGE_LOOP('',(#268));
#834=EDGE_LOOP('',(#269));
#835=EDGE_LOOP('',(#270));
#836=EDGE_LOOP('',(#271));
#837=EDGE_LOOP('',(#272));
#838=EDGE_LOOP('',(#273));
#839=EDGE_LOOP('',(#274));
#840=EDGE_LOOP('',(#275));
#841=EDGE_LOOP('',(#276));
#842=EDGE_LOOP('',(#277));
#843=EDGE_LOOP('',(#278));
#844=EDGE_LOOP('',(#279));
#845=EDGE_LOOP('',(#280));
#846=EDGE_LOOP('',(#281));
#847=EDGE_LOOP('',(#282));
#848=EDGE_LOOP('',(#283));
#849=EDGE_LOOP('',(#284));
#850=EDGE_LOOP('',(#285));
#851=EDGE_LOOP('',(#286,#287,#288,#289));
#852=EDGE_LOOP('',(#290,#291,#292,#293));
#853=EDGE_LOOP('',(#294,#295,#296,#297));
#854=EDGE_LOOP('',(#298,#299,#300,#301));
#855=EDGE_LOOP('',(#302,#303,#304,#305));
#856=EDGE_LOOP('',(#306,#307,#308,#309));
#857=EDGE_LOOP('',(#310,#311,#312,#313));
#858=EDGE_LOOP('',(#314,#315,#316,#317));
#859=EDGE_LOOP('',(#318,#319,#320,#321));
#860=EDGE_LOOP('',(#322,#323,#324,#325));
#861=EDGE_LOOP('',(#326,#327,#328,#329));
#862=FACE_BOUND('',#668,.T.);
#863=FACE_BOUND('',#669,.T.);
#864=FACE_BOUND('',#670,.T.);
#865=FACE_BOUND('',#671,.T.);
#866=FACE_BOUND('',#672,.T.);
#867=FACE_BOUND('',#673,.T.);
#868=FACE_BOUND('',#674,.T.);
#869=FACE_BOUND('',#675,.T.);
#870=FACE_BOUND('',#676,.T.);
#871=FACE_BOUND('',#677,.T.);
#872=FACE_BOUND('',#678,.T.);
#873=FACE_BOUND('',#679,.T.);
#874=FACE_BOUND('',#680,.T.);
#875=FACE_BOUND('',#681,.T.);
#876=FACE_BOUND('',#682,.T.);
#877=FACE_BOUND('',#683,.T.);
#878=FACE_BOUND('',#684,.T.);
#879=FACE_BOUND('',#685,.T.);
#880=FACE_BOUND('',#686,.T.);
#881=FACE_BOUND('',#687,.T.);
#882=FACE_BOUND('',#688,.T.);
#883=FACE_BOUND('',#689,.T.);
#884=FACE_BOUND('',#690,.T.);
#885=FACE_BOUND('',#691,.T.);
#886=FACE_BOUND('',#692,.T.);
#887=FACE_BOUND('',#693,.T.);
#888=FACE_BOUND('',#694,.T.);
#889=FACE_BOUND('',#695,.T.);
#890=FACE_BOUND('',#696,.T.);
#891=FACE_BOUND('',#697,.T.);
#892=FACE_BOUND('',#698,.T.);
#893=FACE_BOUND('',#699,.T.);
#894=FACE_BOUND('',#700,.T.);
#895=FACE_BOUND('',#701,.T.);
#896=FACE_BOUND('',#702,.T.);
#897=FACE_BOUND('',#703,.T.);
#898=FACE_BOUND('',#704,.T.);
#899=FACE_BOUND('',#705,.T.);
#900=FACE_BOUND('',#706,.T.);
#901=FACE_BOUND('',#707,.T.);
#902=FACE_BOUND('',#708,.T.);
#903=FACE_BOUND('',#709,.T.);
#904=FACE_BOUND('',#710,.T.);
#905=FACE_BOUND('',#711,.T.);
#906=FACE_BOUND('',#712,.T.);
#907=FACE_BOUND('',#713,.T.);
#908=FACE_BOUND('',#714,.T.);
#909=FACE_BOUND('',#715,.T.);
#910=FACE_BOUND('',#716,.T.);
#911=FACE_BOUND('',#717,.T.);
#912=FACE_BOUND('',#718,.T.);
#913=FACE_BOUND('',#719,.T.);
#914=FACE_BOUND('',#720,.T.);
#915=FACE_BOUND('',#721,.T.);
#916=FACE_BOUND('',#722,.T.);
#917=FACE_BOUND('',#723,.T.);
#918=FACE_BOUND('',#724,.T.);
#919=FACE_BOUND('',#725,.T.);
#920=FACE_BOUND('',#726,.T.);
#921=FACE_BOUND('',#727,.T.);
#922=FACE_BOUND('',#728,.T.);
#923=FACE_BOUND('',#729,.T.);
#924=FACE_BOUND('',#730,.T.);
#925=FACE_BOUND('',#731,.T.);
#926=FACE_BOUND('',#732,.T.);
#927=FACE_BOUND('',#733,.T.);
#928=FACE_BOUND('',#734,.T.);
#929=FACE_BOUND('',#735,.T.);
#930=FACE_BOUND('',#736,.T.);
#931=FACE_BOUND('',#737,.T.);
#932=FACE_BOUND('',#738,.T.);
#933=FACE_BOUND('',#739,.T.);
#934=FACE_BOUND('',#740,.T.);
#935=FACE_BOUND('',#741,.T.);
#936=FACE_BOUND('',#742,.T.);
#937=FACE_BOUND('',#743,.T.);
#938=FACE_BOUND('',#744,.T.);
#939=FACE_BOUND('',#745,.T.);
#940=FACE_BOUND('',#746,.T.);
#941=FACE_BOUND('',#747,.T.);
#942=FACE_BOUND('',#748,.T.);
#943=FACE_BOUND('',#749,.T.);
#944=FACE_BOUND('',#750,.T.);
#945=FACE_BOUND('',#751,.T.);
#946=FACE_BOUND('',#752,.T.);
#947=FACE_BOUND('',#753,.T.);
#948=FACE_BOUND('',#754,.T.);
#949=FACE_BOUND('',#755,.T.);
#950=FACE_BOUND('',#756,.T.);
#951=FACE_BOUND('',#757,.T.);
#952=FACE_BOUND('',#758,.T.);
#953=FACE_BOUND('',#759,.T.);
#954=FACE_BOUND('',#760,.T.);
#955=FACE_BOUND('',#761,.T.);
#956=FACE_BOUND('',#762,.T.);
#957=FACE_BOUND('',#763,.T.);
#958=FACE_BOUND('',#764,.T.);
#959=FACE_BOUND('',#765,.T.);
#960=FACE_BOUND('',#766,.T.);
#961=FACE_BOUND('',#767,.T.);
#962=FACE_BOUND('',#768,.T.);
#963=FACE_BOUND('',#769,.T.);
#964=FACE_BOUND('',#770,.T.);
#965=FACE_BOUND('',#771,.T.);
#966=FACE_BOUND('',#772,.T.);
#967=FACE_BOUND('',#773,.T.);
#968=FACE_BOUND('',#774,.T.);
#969=FACE_BOUND('',#775,.T.);
#970=FACE_BOUND('',#776,.T.);
#971=FACE_BOUND('',#777,.T.);
#972=FACE_BOUND('',#778,.T.);
#973=FACE_BOUND('',#779,.T.);
#974=FACE_BOUND('',#780,.T.);
#975=FACE_BOUND('',#781,.T.);
#976=FACE_BOUND('',#782,.T.);
#977=FACE_BOUND('',#783,.T.);
#978=FACE_BOUND('',#784,.T.);
#979=FACE_BOUND('',#785,.T.);
#980=FACE_BOUND('',#786,.T.);
#981=FACE_BOUND('',#787,.T.);
#982=FACE_BOUND('',#788,.T.);
#983=FACE_BOUND('',#789,.T.);
#984=FACE_BOUND('',#790,.T.);
#985=FACE_BOUND('',#791,.T.);
#986=FACE_BOUND('',#792,.T.);
#987=FACE_BOUND('',#793,.T.);
#988=FACE_BOUND('',#794,.T.);
#989=FACE_BOUND('',#795,.T.);
#990=FACE_BOUND('',#796,.T.);
#991=FACE_BOUND('',#797,.T.);
#992=FACE_BOUND('',#798,.T.);
#993=FACE_BOUND('',#799,.T.);
#994=FACE_BOUND('',#800,.T.);
#995=FACE_BOUND('',#801,.T.);
#996=FACE_BOUND('',#802,.T.);
#997=FACE_BOUND('',#803,.T.);
#998=FACE_BOUND('',#804,.T.);
#999=FACE_BOUND('',#805,.T.);
#1000=FACE_BOUND('',#806,.T.);
#1001=FACE_BOUND('',#807,.T.);
#1002=FACE_BOUND('',#808,.T.);
#1003=FACE_BOUND('',#809,.T.);
#1004=FACE_BOUND('',#810,.T.);
#1005=FACE_BOUND('',#811,.T.);
#1006=FACE_BOUND('',#812,.T.);
#1007=FACE_BOUND('',#813,.T.);
#1008=FACE_BOUND('',#814,.T.);
#1009=FACE_BOUND('',#815,.T.);
#1010=FACE_BOUND('',#816,.T.);
#1011=FACE_BOUND('',#817,.T.);
#1012=FACE_BOUND('',#818,.T.);
#1013=FACE_BOUND('',#819,.T.);
#1014=FACE_BOUND('',#820,.T.);
#1015=FACE_BOUND('',#821,.T.);
#1016=FACE_BOUND('',#822,.T.);
#1017=FACE_BOUND('',#823,.T.);
#1018=FACE_BOUND('',#824,.T.);
#1019=FACE_BOUND('',#825,.T.);
#1020=FACE_BOUND('',#826,.T.);
#1021=FACE_BOUND('',#827,.T.);
#1022=FACE_BOUND('',#828,.T.);
#1023=FACE_BOUND('',#829,.T.);
#1024=FACE_BOUND('',#830,.T.);
#1025=FACE_BOUND('',#831,.T.);
#1026=FACE_BOUND('',#832,.T.);
#1027=FACE_BOUND('',#833,.T.);
#1028=FACE_BOUND('',#834,.T.);
#1029=FACE_BOUND('',#835,.T.);
#1030=FACE_BOUND('',#836,.T.);
#1031=FACE_BOUND('',#837,.T.);
#1032=FACE_BOUND('',#838,.T.);
#1033=FACE_BOUND('',#839,.T.);
#1034=FACE_BOUND('',#840,.T.);
#1035=FACE_BOUND('',#841,.T.);
#1036=FACE_BOUND('',#842,.T.);
#1037=FACE_BOUND('',#843,.T.);
#1038=FACE_BOUND('',#844,.T.);
#1039=FACE_BOUND('',#845,.T.);
#1040=FACE_BOUND('',#846,.T.);
#1041=FACE_BOUND('',#847,.T.);
#1042=FACE_BOUND('',#848,.T.);
#1043=FACE_BOUND('',#849,.T.);
#1044=FACE_BOUND('',#850,.T.);
#1045=FACE_BOUND('',#851,.T.);
#1046=FACE_BOUND('',#852,.T.);
#1047=FACE_BOUND('',#853,.T.);
#1048=FACE_BOUND('',#854,.T.);
#1049=FACE_BOUND('',#855,.T.);
#1050=FACE_BOUND('',#856,.T.);
#1051=FACE_BOUND('',#857,.T.);
#1052=FACE_BOUND('',#858,.T.);
#1053=FACE_BOUND('',#859,.T.);
#1054=FACE_BOUND('',#860,.T.);
#1055=FACE_BOUND('',#861,.T.);
#1056=CYLINDRICAL_SURFACE('',#1177,0.0050927);
#1057=CYLINDRICAL_SURFACE('',#1180,0.0025527);
#1058=CYLINDRICAL_SURFACE('',#1183,0.0025527);
#1059=CYLINDRICAL_SURFACE('',#1186,0.0050927);
#1060=CYLINDRICAL_SURFACE('',#1189,0.0050927);
#1061=CYLINDRICAL_SURFACE('',#1192,0.0050927);
#1062=CYLINDRICAL_SURFACE('',#1195,0.0025527);
#1063=CYLINDRICAL_SURFACE('',#1198,0.0025527);
#1064=CYLINDRICAL_SURFACE('',#1201,0.0025527);
#1065=CYLINDRICAL_SURFACE('',#1204,0.0025527);
#1066=CYLINDRICAL_SURFACE('',#1207,0.0025527);
#1067=CYLINDRICAL_SURFACE('',#1210,0.0050927);
#1068=CYLINDRICAL_SURFACE('',#1213,0.0050927);
#1069=CYLINDRICAL_SURFACE('',#1216,0.0025527);
#1070=CYLINDRICAL_SURFACE('',#1219,0.0025527);
#1071=CYLINDRICAL_SURFACE('',#1222,0.0050927);
#1072=CYLINDRICAL_SURFACE('',#1225,0.0025527);
#1073=CYLINDRICAL_SURFACE('',#1228,0.0025527);
#1074=CYLINDRICAL_SURFACE('',#1231,0.0025527);
#1075=CYLINDRICAL_SURFACE('',#1234,0.0050927);
#1076=CYLINDRICAL_SURFACE('',#1238,0.0025527);
#1077=CYLINDRICAL_SURFACE('',#1241,0.0025527);
#1078=CYLINDRICAL_SURFACE('',#1244,0.0025527);
#1079=CYLINDRICAL_SURFACE('',#1247,0.0050927);
#1080=CYLINDRICAL_SURFACE('',#1250,0.0025527);
#1081=CYLINDRICAL_SURFACE('',#1253,0.0025527);
#1082=CYLINDRICAL_SURFACE('',#1256,0.0025527);
#1083=CYLINDRICAL_SURFACE('',#1259,0.0025527);
#1084=CYLINDRICAL_SURFACE('',#1262,0.0025527);
#1085=CYLINDRICAL_SURFACE('',#1265,0.0025527);
#1086=CYLINDRICAL_SURFACE('',#1268,0.0025527);
#1087=CYLINDRICAL_SURFACE('',#1271,0.0025527);
#1088=CYLINDRICAL_SURFACE('',#1274,0.0025527);
#1089=CYLINDRICAL_SURFACE('',#1277,0.0025527);
#1090=CYLINDRICAL_SURFACE('',#1280,0.0025527);
#1091=CYLINDRICAL_SURFACE('',#1283,0.0025527);
#1092=CYLINDRICAL_SURFACE('',#1286,0.0025527);
#1093=CYLINDRICAL_SURFACE('',#1289,0.0025527);
#1094=CYLINDRICAL_SURFACE('',#1292,0.0025527);
#1095=CYLINDRICAL_SURFACE('',#1295,0.0025527);
#1096=CYLINDRICAL_SURFACE('',#1298,0.0025527);
#1097=CYLINDRICAL_SURFACE('',#1301,0.0025527);
#1098=CYLINDRICAL_SURFACE('',#1304,0.0025527);
#1099=CYLINDRICAL_SURFACE('',#1307,0.0050927);
#1100=CYLINDRICAL_SURFACE('',#1310,0.0025527);
#1101=CYLINDRICAL_SURFACE('',#1324,0.031684);
#1102=CYLINDRICAL_SURFACE('',#1325,0.0050927);
#1103=CYLINDRICAL_SURFACE('',#1326,0.0050927);
#1104=CYLINDRICAL_SURFACE('',#1327,0.0050927);
#1105=ADVANCED_FACE('',(#862,#863),#1056,.F.);
#1106=ADVANCED_FACE('',(#864,#865),#1057,.F.);
#1107=ADVANCED_FACE('',(#866,#867),#1058,.F.);
#1108=ADVANCED_FACE('',(#868,#869),#1059,.F.);
#1109=ADVANCED_FACE('',(#870,#871),#1060,.F.);
#1110=ADVANCED_FACE('',(#872,#873),#1061,.F.);
#1111=ADVANCED_FACE('',(#874,#875),#1062,.F.);
#1112=ADVANCED_FACE('',(#876,#877),#1063,.F.);
#1113=ADVANCED_FACE('',(#878,#879),#1064,.F.);
#1114=ADVANCED_FACE('',(#880,#881),#1065,.F.);
#1115=ADVANCED_FACE('',(#882,#883),#1066,.F.);
#1116=ADVANCED_FACE('',(#884,#885),#1067,.F.);
#1117=ADVANCED_FACE('',(#886,#887),#1068,.F.);
#1118=ADVANCED_FACE('',(#888,#889),#1069,.F.);
#1119=ADVANCED_FACE('',(#890,#891),#1070,.F.);
#1120=ADVANCED_FACE('',(#892,#893),#1071,.F.);
#1121=ADVANCED_FACE('',(#894,#895),#1072,.F.);
#1122=ADVANCED_FACE('',(#896,#897),#1073,.F.);
#1123=ADVANCED_FACE('',(#898,#899),#1074,.F.);
#1124=ADVANCED_FACE('',(#900,#901),#1075,.F.);
#1125=ADVANCED_FACE('',(#902),#68,.F.);
#1126=ADVANCED_FACE('',(#903,#904),#1076,.F.);
#1127=ADVANCED_FACE('',(#905,#906),#1077,.F.);
#1128=ADVANCED_FACE('',(#907,#908),#1078,.F.);
#1129=ADVANCED_FACE('',(#909,#910),#1079,.F.);
#1130=ADVANCED_FACE('',(#911,#912),#1080,.F.);
#1131=ADVANCED_FACE('',(#913,#914),#1081,.F.);
#1132=ADVANCED_FACE('',(#915,#916),#1082,.F.);
#1133=ADVANCED_FACE('',(#917,#918),#1083,.F.);
#1134=ADVANCED_FACE('',(#919,#920),#1084,.F.);
#1135=ADVANCED_FACE('',(#921,#922),#1085,.F.);
#1136=ADVANCED_FACE('',(#923,#924),#1086,.F.);
#1137=ADVANCED_FACE('',(#925,#926),#1087,.F.);
#1138=ADVANCED_FACE('',(#927,#928),#1088,.F.);
#1139=ADVANCED_FACE('',(#929,#930),#1089,.F.);
#1140=ADVANCED_FACE('',(#931,#932),#1090,.F.);
#1141=ADVANCED_FACE('',(#933,#934),#1091,.F.);
#1142=ADVANCED_FACE('',(#935,#936),#1092,.F.);
#1143=ADVANCED_FACE('',(#937,#938),#1093,.F.);
#1144=ADVANCED_FACE('',(#939,#940),#1094,.F.);
#1145=ADVANCED_FACE('',(#941,#942),#1095,.F.);
#1146=ADVANCED_FACE('',(#943,#944),#1096,.F.);
#1147=ADVANCED_FACE('',(#945,#946),#1097,.F.);
#1148=ADVANCED_FACE('',(#947,#948),#1098,.F.);
#1149=ADVANCED_FACE('',(#949,#950),#1099,.F.);
#1150=ADVANCED_FACE('',(#951,#952),#1100,.F.);
#1151=ADVANCED_FACE('',(#953,#954,#955,#956,#957,#958,#959,#960,#961,#962,
#963,#964,#965,#966,#967,#968,#969,#970,#971,#972,#973,#974,#975,#976,#977,
#978,#979,#980,#981,#982,#983,#984,#985,#986,#987,#988,#989,#990,#991,#992,
#993,#994,#995,#996,#997,#998),#69,.T.);
#1152=ADVANCED_FACE('',(#999,#1000,#1001,#1002,#1003,#1004,#1005,#1006,
#1007,#1008,#1009,#1010,#1011,#1012,#1013,#1014,#1015,#1016,#1017,#1018,
#1019,#1020,#1021,#1022,#1023,#1024,#1025,#1026,#1027,#1028,#1029,#1030,
#1031,#1032,#1033,#1034,#1035,#1036,#1037,#1038,#1039,#1040,#1041,#1042,
#1043,#1044),#70,.F.);
#1153=ADVANCED_FACE('',(#1045),#71,.F.);
#1154=ADVANCED_FACE('',(#1046),#1101,.F.);
#1155=ADVANCED_FACE('',(#1047),#1102,.F.);
#1156=ADVANCED_FACE('',(#1048),#1103,.F.);
#1157=ADVANCED_FACE('',(#1049),#1104,.F.);
#1158=ADVANCED_FACE('',(#1050),#72,.T.);
#1159=ADVANCED_FACE('',(#1051),#73,.F.);
#1160=ADVANCED_FACE('',(#1052),#74,.F.);
#1161=ADVANCED_FACE('',(#1053),#75,.F.);
#1162=ADVANCED_FACE('',(#1054),#76,.F.);
#1163=ADVANCED_FACE('',(#1055),#77,.F.);
#1164=CLOSED_SHELL('',(#1105,#1106,#1107,#1108,#1109,#1110,#1111,#1112,
#1113,#1114,#1115,#1116,#1117,#1118,#1119,#1120,#1121,#1122,#1123,#1124,
#1125,#1126,#1127,#1128,#1129,#1130,#1131,#1132,#1133,#1134,#1135,#1136,
#1137,#1138,#1139,#1140,#1141,#1142,#1143,#1144,#1145,#1146,#1147,#1148,
#1149,#1150,#1151,#1152,#1153,#1154,#1155,#1156,#1157,#1158,#1159,#1160,
#1161,#1162,#1163));
#1165=STYLED_ITEM('',(#1166),#1173);
#1166=PRESENTATION_STYLE_ASSIGNMENT((#1167));
#1167=SURFACE_STYLE_USAGE(.BOTH.,#1168);
#1168=SURFACE_SIDE_STYLE('',(#1169));
#1169=SURFACE_STYLE_FILL_AREA(#1170);
#1170=FILL_AREA_STYLE('',(#1171));
#1171=FILL_AREA_STYLE_COLOUR('',#1172);
#1172=COLOUR_RGB('',0.980392156862745,0.713725490196078,0.00392156862745098);
#1173=MANIFOLD_SOLID_BREP('Alt Shielding D-L',#1164);
#1174=SHAPE_DEFINITION_REPRESENTATION(#1984,#1175);
#1175=SHAPE_REPRESENTATION('Alt Shielding D-L',(#1176),#1979);
#1176=AXIS2_PLACEMENT_3D('',#1678,#1334,#1335);
#1177=AXIS2_PLACEMENT_3D('',#1679,#1336,#1337);
#1178=AXIS2_PLACEMENT_3D('',#1680,#1338,#1339);
#1179=AXIS2_PLACEMENT_3D('',#1682,#1340,#1341);
#1180=AXIS2_PLACEMENT_3D('',#1684,#1342,#1343);
#1181=AXIS2_PLACEMENT_3D('',#1685,#1344,#1345);
#1182=AXIS2_PLACEMENT_3D('',#1687,#1346,#1347);
#1183=AXIS2_PLACEMENT_3D('',#1689,#1348,#1349);
#1184=AXIS2_PLACEMENT_3D('',#1690,#1350,#1351);
#1185=AXIS2_PLACEMENT_3D('',#1692,#1352,#1353);
#1186=AXIS2_PLACEMENT_3D('',#1694,#1354,#1355);
#1187=AXIS2_PLACEMENT_3D('',#1695,#1356,#1357);
#1188=AXIS2_PLACEMENT_3D('',#1697,#1358,#1359);
#1189=AXIS2_PLACEMENT_3D('',#1699,#1360,#1361);
#1190=AXIS2_PLACEMENT_3D('',#1700,#1362,#1363);
#1191=AXIS2_PLACEMENT_3D('',#1702,#1364,#1365);
#1192=AXIS2_PLACEMENT_3D('',#1704,#1366,#1367);
#1193=AXIS2_PLACEMENT_3D('',#1705,#1368,#1369);
#1194=AXIS2_PLACEMENT_3D('',#1707,#1370,#1371);
#1195=AXIS2_PLACEMENT_3D('',#1709,#1372,#1373);
#1196=AXIS2_PLACEMENT_3D('',#1710,#1374,#1375);
#1197=AXIS2_PLACEMENT_3D('',#1712,#1376,#1377);
#1198=AXIS2_PLACEMENT_3D('',#1714,#1378,#1379);
#1199=AXIS2_PLACEMENT_3D('',#1715,#1380,#1381);
#1200=AXIS2_PLACEMENT_3D('',#1717,#1382,#1383);
#1201=AXIS2_PLACEMENT_3D('',#1719,#1384,#1385);
#1202=AXIS2_PLACEMENT_3D('',#1720,#1386,#1387);
#1203=AXIS2_PLACEMENT_3D('',#1722,#1388,#1389);
#1204=AXIS2_PLACEMENT_3D('',#1724,#1390,#1391);
#1205=AXIS2_PLACEMENT_3D('',#1725,#1392,#1393);
#1206=AXIS2_PLACEMENT_3D('',#1727,#1394,#1395);
#1207=AXIS2_PLACEMENT_3D('',#1729,#1396,#1397);
#1208=AXIS2_PLACEMENT_3D('',#1730,#1398,#1399);
#1209=AXIS2_PLACEMENT_3D('',#1732,#1400,#1401);
#1210=AXIS2_PLACEMENT_3D('',#1734,#1402,#1403);
#1211=AXIS2_PLACEMENT_3D('',#1735,#1404,#1405);
#1212=AXIS2_PLACEMENT_3D('',#1737,#1406,#1407);
#1213=AXIS2_PLACEMENT_3D('',#1739,#1408,#1409);
#1214=AXIS2_PLACEMENT_3D('',#1740,#1410,#1411);
#1215=AXIS2_PLACEMENT_3D('',#1742,#1412,#1413);
#1216=AXIS2_PLACEMENT_3D('',#1744,#1414,#1415);
#1217=AXIS2_PLACEMENT_3D('',#1745,#1416,#1417);
#1218=AXIS2_PLACEMENT_3D('',#1747,#1418,#1419);
#1219=AXIS2_PLACEMENT_3D('',#1749,#1420,#1421);
#1220=AXIS2_PLACEMENT_3D('',#1750,#1422,#1423);
#1221=AXIS2_PLACEMENT_3D('',#1752,#1424,#1425);
#1222=AXIS2_PLACEMENT_3D('',#1754,#1426,#1427);
#1223=AXIS2_PLACEMENT_3D('',#1755,#1428,#1429);
#1224=AXIS2_PLACEMENT_3D('',#1757,#1430,#1431);
#1225=AXIS2_PLACEMENT_3D('',#1759,#1432,#1433);
#1226=AXIS2_PLACEMENT_3D('',#1760,#1434,#1435);
#1227=AXIS2_PLACEMENT_3D('',#1762,#1436,#1437);
#1228=AXIS2_PLACEMENT_3D('',#1764,#1438,#1439);
#1229=AXIS2_PLACEMENT_3D('',#1765,#1440,#1441);
#1230=AXIS2_PLACEMENT_3D('',#1767,#1442,#1443);
#1231=AXIS2_PLACEMENT_3D('',#1769,#1444,#1445);
#1232=AXIS2_PLACEMENT_3D('',#1770,#1446,#1447);
#1233=AXIS2_PLACEMENT_3D('',#1772,#1448,#1449);
#1234=AXIS2_PLACEMENT_3D('',#1774,#1450,#1451);
#1235=AXIS2_PLACEMENT_3D('',#1775,#1452,#1453);
#1236=AXIS2_PLACEMENT_3D('',#1777,#1454,#1455);
#1237=AXIS2_PLACEMENT_3D('',#1779,#1456,#1457);
#1238=AXIS2_PLACEMENT_3D('',#1788,#1462,#1463);
#1239=AXIS2_PLACEMENT_3D('',#1789,#1464,#1465);
#1240=AXIS2_PLACEMENT_3D('',#1791,#1466,#1467);
#1241=AXIS2_PLACEMENT_3D('',#1793,#1468,#1469);
#1242=AXIS2_PLACEMENT_3D('',#1794,#1470,#1471);
#1243=AXIS2_PLACEMENT_3D('',#1796,#1472,#1473);
#1244=AXIS2_PLACEMENT_3D('',#1798,#1474,#1475);
#1245=AXIS2_PLACEMENT_3D('',#1799,#1476,#1477);
#1246=AXIS2_PLACEMENT_3D('',#1801,#1478,#1479);
#1247=AXIS2_PLACEMENT_3D('',#1803,#1480,#1481);
#1248=AXIS2_PLACEMENT_3D('',#1804,#1482,#1483);
#1249=AXIS2_PLACEMENT_3D('',#1806,#1484,#1485);
#1250=AXIS2_PLACEMENT_3D('',#1808,#1486,#1487);
#1251=AXIS2_PLACEMENT_3D('',#1809,#1488,#1489);
#1252=AXIS2_PLACEMENT_3D('',#1811,#1490,#1491);
#1253=AXIS2_PLACEMENT_3D('',#1813,#1492,#1493);
#1254=AXIS2_PLACEMENT_3D('',#1814,#1494,#1495);
#1255=AXIS2_PLACEMENT_3D('',#1816,#1496,#1497);
#1256=AXIS2_PLACEMENT_3D('',#1818,#1498,#1499);
#1257=AXIS2_PLACEMENT_3D('',#1819,#1500,#1501);
#1258=AXIS2_PLACEMENT_3D('',#1821,#1502,#1503);
#1259=AXIS2_PLACEMENT_3D('',#1823,#1504,#1505);
#1260=AXIS2_PLACEMENT_3D('',#1824,#1506,#1507);
#1261=AXIS2_PLACEMENT_3D('',#1826,#1508,#1509);
#1262=AXIS2_PLACEMENT_3D('',#1828,#1510,#1511);
#1263=AXIS2_PLACEMENT_3D('',#1829,#1512,#1513);
#1264=AXIS2_PLACEMENT_3D('',#1831,#1514,#1515);
#1265=AXIS2_PLACEMENT_3D('',#1833,#1516,#1517);
#1266=AXIS2_PLACEMENT_3D('',#1834,#1518,#1519);
#1267=AXIS2_PLACEMENT_3D('',#1836,#1520,#1521);
#1268=AXIS2_PLACEMENT_3D('',#1838,#1522,#1523);
#1269=AXIS2_PLACEMENT_3D('',#1839,#1524,#1525);
#1270=AXIS2_PLACEMENT_3D('',#1841,#1526,#1527);
#1271=AXIS2_PLACEMENT_3D('',#1843,#1528,#1529);
#1272=AXIS2_PLACEMENT_3D('',#1844,#1530,#1531);
#1273=AXIS2_PLACEMENT_3D('',#1846,#1532,#1533);
#1274=AXIS2_PLACEMENT_3D('',#1848,#1534,#1535);
#1275=AXIS2_PLACEMENT_3D('',#1849,#1536,#1537);
#1276=AXIS2_PLACEMENT_3D('',#1851,#1538,#1539);
#1277=AXIS2_PLACEMENT_3D('',#1853,#1540,#1541);
#1278=AXIS2_PLACEMENT_3D('',#1854,#1542,#1543);
#1279=AXIS2_PLACEMENT_3D('',#1856,#1544,#1545);
#1280=AXIS2_PLACEMENT_3D('',#1858,#1546,#1547);
#1281=AXIS2_PLACEMENT_3D('',#1859,#1548,#1549);
#1282=AXIS2_PLACEMENT_3D('',#1861,#1550,#1551);
#1283=AXIS2_PLACEMENT_3D('',#1863,#1552,#1553);
#1284=AXIS2_PLACEMENT_3D('',#1864,#1554,#1555);
#1285=AXIS2_PLACEMENT_3D('',#1866,#1556,#1557);
#1286=AXIS2_PLACEMENT_3D('',#1868,#1558,#1559);
#1287=AXIS2_PLACEMENT_3D('',#1869,#1560,#1561);
#1288=AXIS2_PLACEMENT_3D('',#1871,#1562,#1563);
#1289=AXIS2_PLACEMENT_3D('',#1873,#1564,#1565);
#1290=AXIS2_PLACEMENT_3D('',#1874,#1566,#1567);
#1291=AXIS2_PLACEMENT_3D('',#1876,#1568,#1569);
#1292=AXIS2_PLACEMENT_3D('',#1878,#1570,#1571);
#1293=AXIS2_PLACEMENT_3D('',#1879,#1572,#1573);
#1294=AXIS2_PLACEMENT_3D('',#1881,#1574,#1575);
#1295=AXIS2_PLACEMENT_3D('',#1883,#1576,#1577);
#1296=AXIS2_PLACEMENT_3D('',#1884,#1578,#1579);
#1297=AXIS2_PLACEMENT_3D('',#1886,#1580,#1581);
#1298=AXIS2_PLACEMENT_3D('',#1888,#1582,#1583);
#1299=AXIS2_PLACEMENT_3D('',#1889,#1584,#1585);
#1300=AXIS2_PLACEMENT_3D('',#1891,#1586,#1587);
#1301=AXIS2_PLACEMENT_3D('',#1893,#1588,#1589);
#1302=AXIS2_PLACEMENT_3D('',#1894,#1590,#1591);
#1303=AXIS2_PLACEMENT_3D('',#1896,#1592,#1593);
#1304=AXIS2_PLACEMENT_3D('',#1898,#1594,#1595);
#1305=AXIS2_PLACEMENT_3D('',#1899,#1596,#1597);
#1306=AXIS2_PLACEMENT_3D('',#1901,#1598,#1599);
#1307=AXIS2_PLACEMENT_3D('',#1903,#1600,#1601);
#1308=AXIS2_PLACEMENT_3D('',#1904,#1602,#1603);
#1309=AXIS2_PLACEMENT_3D('',#1906,#1604,#1605);
#1310=AXIS2_PLACEMENT_3D('',#1908,#1606,#1607);
#1311=AXIS2_PLACEMENT_3D('',#1909,#1608,#1609);
#1312=AXIS2_PLACEMENT_3D('',#1911,#1610,#1611);
#1313=AXIS2_PLACEMENT_3D('',#1913,#1612,#1613);
#1314=AXIS2_PLACEMENT_3D('',#1922,#1618,#1619);
#1315=AXIS2_PLACEMENT_3D('',#1926,#1621,#1622);
#1316=AXIS2_PLACEMENT_3D('',#1930,#1624,#1625);
#1317=AXIS2_PLACEMENT_3D('',#1934,#1627,#1628);
#1318=AXIS2_PLACEMENT_3D('',#1935,#1629,#1630);
#1319=AXIS2_PLACEMENT_3D('',#1940,#1633,#1634);
#1320=AXIS2_PLACEMENT_3D('',#1944,#1636,#1637);
#1321=AXIS2_PLACEMENT_3D('',#1948,#1639,#1640);
#1322=AXIS2_PLACEMENT_3D('',#1952,#1642,#1643);
#1323=AXIS2_PLACEMENT_3D('',#1957,#1646,#1647);
#1324=AXIS2_PLACEMENT_3D('',#1959,#1649,#1650);
#1325=AXIS2_PLACEMENT_3D('',#1962,#1653,#1654);
#1326=AXIS2_PLACEMENT_3D('',#1965,#1657,#1658);
#1327=AXIS2_PLACEMENT_3D('',#1968,#1661,#1662);
#1328=AXIS2_PLACEMENT_3D('',#1971,#1665,#1666);
#1329=AXIS2_PLACEMENT_3D('',#1973,#1668,#1669);
#1330=AXIS2_PLACEMENT_3D('',#1974,#1670,#1671);
#1331=AXIS2_PLACEMENT_3D('',#1975,#1672,#1673);
#1332=AXIS2_PLACEMENT_3D('',#1976,#1674,#1675);
#1333=AXIS2_PLACEMENT_3D('',#1977,#1676,#1677);
#1334=DIRECTION('',(0.,0.,1.));
#1335=DIRECTION('',(1.,0.,0.));
#1336=DIRECTION('',(-1.,0.,0.));
#1337=DIRECTION('',(0.,0.,1.));
#1338=DIRECTION('',(1.,0.,0.));
#1339=DIRECTION('',(0.,0.,-1.));
#1340=DIRECTION('',(1.,0.,0.));
#1341=DIRECTION('',(0.,0.,-1.));
#1342=DIRECTION('',(-1.,0.,0.));
#1343=DIRECTION('',(0.,0.,1.));
#1344=DIRECTION('',(1.,0.,0.));
#1345=DIRECTION('',(0.,0.,-1.));
#1346=DIRECTION('',(1.,0.,0.));
#1347=DIRECTION('',(0.,0.,-1.));
#1348=DIRECTION('',(-1.,0.,0.));
#1349=DIRECTION('',(0.,0.,1.));
#1350=DIRECTION('',(1.,0.,0.));
#1351=DIRECTION('',(0.,0.,-1.));
#1352=DIRECTION('',(1.,0.,0.));
#1353=DIRECTION('',(0.,0.,-1.));
#1354=DIRECTION('',(-1.,0.,0.));
#1355=DIRECTION('',(0.,0.,1.));
#1356=DIRECTION('',(1.,0.,0.));
#1357=DIRECTION('',(0.,0.,-1.));
#1358=DIRECTION('',(1.,0.,0.));
#1359=DIRECTION('',(0.,0.,-1.));
#1360=DIRECTION('',(-1.,0.,0.));
#1361=DIRECTION('',(0.,0.,1.));
#1362=DIRECTION('',(1.,0.,0.));
#1363=DIRECTION('',(0.,0.,-1.));
#1364=DIRECTION('',(1.,0.,0.));
#1365=DIRECTION('',(0.,0.,-1.));
#1366=DIRECTION('',(-1.,0.,0.));
#1367=DIRECTION('',(0.,0.,1.));
#1368=DIRECTION('',(1.,0.,0.));
#1369=DIRECTION('',(0.,0.,-1.));
#1370=DIRECTION('',(1.,0.,0.));
#1371=DIRECTION('',(0.,0.,-1.));
#1372=DIRECTION('',(-1.,0.,0.));
#1373=DIRECTION('',(0.,0.,1.));
#1374=DIRECTION('',(1.,0.,0.));
#1375=DIRECTION('',(0.,0.,-1.));
#1376=DIRECTION('',(1.,0.,0.));
#1377=DIRECTION('',(0.,0.,-1.));
#1378=DIRECTION('',(-1.,0.,0.));
#1379=DIRECTION('',(0.,0.,1.));
#1380=DIRECTION('',(1.,0.,0.));
#1381=DIRECTION('',(0.,0.,-1.));
#1382=DIRECTION('',(1.,0.,0.));
#1383=DIRECTION('',(0.,0.,-1.));
#1384=DIRECTION('',(-1.,0.,0.));
#1385=DIRECTION('',(0.,0.,1.));
#1386=DIRECTION('',(1.,0.,0.));
#1387=DIRECTION('',(0.,0.,-1.));
#1388=DIRECTION('',(1.,0.,0.));
#1389=DIRECTION('',(0.,0.,-1.));
#1390=DIRECTION('',(-1.,0.,0.));
#1391=DIRECTION('',(0.,0.,1.));
#1392=DIRECTION('',(1.,0.,0.));
#1393=DIRECTION('',(0.,0.,-1.));
#1394=DIRECTION('',(1.,0.,0.));
#1395=DIRECTION('',(0.,0.,-1.));
#1396=DIRECTION('',(-1.,0.,0.));
#1397=DIRECTION('',(0.,0.,1.));
#1398=DIRECTION('',(1.,0.,0.));
#1399=DIRECTION('',(0.,0.,-1.));
#1400=DIRECTION('',(1.,0.,0.));
#1401=DIRECTION('',(0.,0.,-1.));
#1402=DIRECTION('',(-1.,0.,0.));
#1403=DIRECTION('',(0.,0.,1.));
#1404=DIRECTION('',(1.,0.,0.));
#1405=DIRECTION('',(0.,0.,-1.));
#1406=DIRECTION('',(1.,0.,0.));
#1407=DIRECTION('',(0.,0.,-1.));
#1408=DIRECTION('',(-1.,0.,0.));
#1409=DIRECTION('',(0.,0.,1.));
#1410=DIRECTION('',(1.,0.,0.));
#1411=DIRECTION('',(0.,0.,-1.));
#1412=DIRECTION('',(1.,0.,0.));
#1413=DIRECTION('',(0.,0.,-1.));
#1414=DIRECTION('',(-1.,0.,0.));
#1415=DIRECTION('',(0.,0.,1.));
#1416=DIRECTION('',(1.,0.,0.));
#1417=DIRECTION('',(0.,0.,-1.));
#1418=DIRECTION('',(1.,0.,0.));
#1419=DIRECTION('',(0.,0.,-1.));
#1420=DIRECTION('',(-1.,0.,0.));
#1421=DIRECTION('',(0.,0.,1.));
#1422=DIRECTION('',(1.,0.,0.));
#1423=DIRECTION('',(0.,0.,-1.));
#1424=DIRECTION('',(1.,0.,0.));
#1425=DIRECTION('',(0.,0.,-1.));
#1426=DIRECTION('',(-1.,0.,0.));
#1427=DIRECTION('',(0.,0.,1.));
#1428=DIRECTION('',(1.,0.,0.));
#1429=DIRECTION('',(0.,0.,-1.));
#1430=DIRECTION('',(1.,0.,0.));
#1431=DIRECTION('',(0.,0.,-1.));
#1432=DIRECTION('',(-1.,0.,0.));
#1433=DIRECTION('',(0.,0.,1.));
#1434=DIRECTION('',(1.,0.,0.));
#1435=DIRECTION('',(0.,0.,-1.));
#1436=DIRECTION('',(1.,0.,0.));
#1437=DIRECTION('',(0.,0.,-1.));
#1438=DIRECTION('',(-1.,0.,0.));
#1439=DIRECTION('',(0.,0.,1.));
#1440=DIRECTION('',(1.,0.,0.));
#1441=DIRECTION('',(0.,0.,-1.));
#1442=DIRECTION('',(1.,0.,0.));
#1443=DIRECTION('',(0.,0.,-1.));
#1444=DIRECTION('',(-1.,0.,0.));
#1445=DIRECTION('',(0.,0.,1.));
#1446=DIRECTION('',(1.,0.,0.));
#1447=DIRECTION('',(0.,0.,-1.));
#1448=DIRECTION('',(1.,0.,0.));
#1449=DIRECTION('',(0.,0.,-1.));
#1450=DIRECTION('',(-1.,0.,0.));
#1451=DIRECTION('',(0.,0.,1.));
#1452=DIRECTION('',(1.,0.,0.));
#1453=DIRECTION('',(0.,0.,-1.));
#1454=DIRECTION('',(1.,0.,0.));
#1455=DIRECTION('',(0.,0.,-1.));
#1456=DIRECTION('',(0.,1.,0.));
#1457=DIRECTION('',(0.,0.,1.));
#1458=DIRECTION('',(0.,0.,-1.));
#1459=DIRECTION('',(-1.,0.,0.));
#1460=DIRECTION('',(0.,0.,-1.));
#1461=DIRECTION('',(-1.,0.,0.));
#1462=DIRECTION('',(-1.,0.,0.));
#1463=DIRECTION('',(0.,0.,1.));
#1464=DIRECTION('',(1.,0.,0.));
#1465=DIRECTION('',(0.,0.,-1.));
#1466=DIRECTION('',(1.,0.,0.));
#1467=DIRECTION('',(0.,0.,-1.));
#1468=DIRECTION('',(-1.,0.,0.));
#1469=DIRECTION('',(0.,0.,1.));
#1470=DIRECTION('',(1.,0.,0.));
#1471=DIRECTION('',(0.,0.,-1.));
#1472=DIRECTION('',(1.,0.,0.));
#1473=DIRECTION('',(0.,0.,-1.));
#1474=DIRECTION('',(-1.,0.,0.));
#1475=DIRECTION('',(0.,0.,1.));
#1476=DIRECTION('',(1.,0.,0.));
#1477=DIRECTION('',(0.,0.,-1.));
#1478=DIRECTION('',(1.,0.,0.));
#1479=DIRECTION('',(0.,0.,-1.));
#1480=DIRECTION('',(-1.,0.,0.));
#1481=DIRECTION('',(0.,0.,1.));
#1482=DIRECTION('',(1.,0.,0.));
#1483=DIRECTION('',(0.,0.,-1.));
#1484=DIRECTION('',(1.,0.,0.));
#1485=DIRECTION('',(0.,0.,-1.));
#1486=DIRECTION('',(-1.,0.,0.));
#1487=DIRECTION('',(0.,0.,1.));
#1488=DIRECTION('',(1.,0.,0.));
#1489=DIRECTION('',(0.,0.,-1.));
#1490=DIRECTION('',(1.,0.,0.));
#1491=DIRECTION('',(0.,0.,-1.));
#1492=DIRECTION('',(-1.,0.,0.));
#1493=DIRECTION('',(0.,0.,1.));
#1494=DIRECTION('',(1.,0.,0.));
#1495=DIRECTION('',(0.,0.,-1.));
#1496=DIRECTION('',(1.,0.,0.));
#1497=DIRECTION('',(0.,0.,-1.));
#1498=DIRECTION('',(-1.,0.,0.));
#1499=DIRECTION('',(0.,0.,1.));
#1500=DIRECTION('',(1.,0.,0.));
#1501=DIRECTION('',(0.,0.,-1.));
#1502=DIRECTION('',(1.,0.,0.));
#1503=DIRECTION('',(0.,0.,-1.));
#1504=DIRECTION('',(-1.,0.,0.));
#1505=DIRECTION('',(0.,0.,1.));
#1506=DIRECTION('',(1.,0.,0.));
#1507=DIRECTION('',(0.,0.,-1.));
#1508=DIRECTION('',(1.,0.,0.));
#1509=DIRECTION('',(0.,0.,-1.));
#1510=DIRECTION('',(-1.,0.,0.));
#1511=DIRECTION('',(0.,0.,1.));
#1512=DIRECTION('',(1.,0.,0.));
#1513=DIRECTION('',(0.,0.,-1.));
#1514=DIRECTION('',(1.,0.,0.));
#1515=DIRECTION('',(0.,0.,-1.));
#1516=DIRECTION('',(-1.,0.,0.));
#1517=DIRECTION('',(0.,0.,1.));
#1518=DIRECTION('',(1.,0.,0.));
#1519=DIRECTION('',(0.,0.,-1.));
#1520=DIRECTION('',(1.,0.,0.));
#1521=DIRECTION('',(0.,0.,-1.));
#1522=DIRECTION('',(-1.,0.,0.));
#1523=DIRECTION('',(0.,0.,1.));
#1524=DIRECTION('',(1.,0.,0.));
#1525=DIRECTION('',(0.,0.,-1.));
#1526=DIRECTION('',(1.,0.,0.));
#1527=DIRECTION('',(0.,0.,-1.));
#1528=DIRECTION('',(-1.,0.,0.));
#1529=DIRECTION('',(0.,0.,1.));
#1530=DIRECTION('',(1.,0.,0.));
#1531=DIRECTION('',(0.,0.,-1.));
#1532=DIRECTION('',(1.,0.,0.));
#1533=DIRECTION('',(0.,0.,-1.));
#1534=DIRECTION('',(-1.,0.,0.));
#1535=DIRECTION('',(0.,0.,1.));
#1536=DIRECTION('',(1.,0.,0.));
#1537=DIRECTION('',(0.,0.,-1.));
#1538=DIRECTION('',(1.,0.,0.));
#1539=DIRECTION('',(0.,0.,-1.));
#1540=DIRECTION('',(-1.,0.,0.));
#1541=DIRECTION('',(0.,0.,1.));
#1542=DIRECTION('',(1.,0.,0.));
#1543=DIRECTION('',(0.,0.,-1.));
#1544=DIRECTION('',(1.,0.,0.));
#1545=DIRECTION('',(0.,0.,-1.));
#1546=DIRECTION('',(-1.,0.,0.));
#1547=DIRECTION('',(0.,0.,1.));
#1548=DIRECTION('',(1.,0.,0.));
#1549=DIRECTION('',(0.,0.,-1.));
#1550=DIRECTION('',(1.,0.,0.));
#1551=DIRECTION('',(0.,0.,-1.));
#1552=DIRECTION('',(-1.,0.,0.));
#1553=DIRECTION('',(0.,0.,1.));
#1554=DIRECTION('',(1.,0.,0.));
#1555=DIRECTION('',(0.,0.,-1.));
#1556=DIRECTION('',(1.,0.,0.));
#1557=DIRECTION('',(0.,0.,-1.));
#1558=DIRECTION('',(-1.,0.,0.));
#1559=DIRECTION('',(0.,0.,1.));
#1560=DIRECTION('',(1.,0.,0.));
#1561=DIRECTION('',(0.,0.,-1.));
#1562=DIRECTION('',(1.,0.,0.));
#1563=DIRECTION('',(0.,0.,-1.));
#1564=DIRECTION('',(-1.,0.,0.));
#1565=DIRECTION('',(0.,0.,1.));
#1566=DIRECTION('',(1.,0.,0.));
#1567=DIRECTION('',(0.,0.,-1.));
#1568=DIRECTION('',(1.,0.,0.));
#1569=DIRECTION('',(0.,0.,-1.));
#1570=DIRECTION('',(-1.,0.,0.));
#1571=DIRECTION('',(0.,0.,1.));
#1572=DIRECTION('',(1.,0.,0.));
#1573=DIRECTION('',(0.,0.,-1.));
#1574=DIRECTION('',(1.,0.,0.));
#1575=DIRECTION('',(0.,0.,-1.));
#1576=DIRECTION('',(-1.,0.,0.));
#1577=DIRECTION('',(0.,0.,1.));
#1578=DIRECTION('',(1.,0.,0.));
#1579=DIRECTION('',(0.,0.,-1.));
#1580=DIRECTION('',(1.,0.,0.));
#1581=DIRECTION('',(0.,0.,-1.));
#1582=DIRECTION('',(-1.,0.,0.));
#1583=DIRECTION('',(0.,0.,1.));
#1584=DIRECTION('',(1.,0.,0.));
#1585=DIRECTION('',(0.,0.,-1.));
#1586=DIRECTION('',(1.,0.,0.));
#1587=DIRECTION('',(0.,0.,-1.));
#1588=DIRECTION('',(-1.,0.,0.));
#1589=DIRECTION('',(0.,0.,1.));
#1590=DIRECTION('',(1.,0.,0.));
#1591=DIRECTION('',(0.,0.,-1.));
#1592=DIRECTION('',(1.,0.,0.));
#1593=DIRECTION('',(0.,0.,-1.));
#1594=DIRECTION('',(-1.,0.,0.));
#1595=DIRECTION('',(0.,0.,1.));
#1596=DIRECTION('',(1.,0.,0.));
#1597=DIRECTION('',(0.,0.,-1.));
#1598=DIRECTION('',(1.,0.,0.));
#1599=DIRECTION('',(0.,0.,-1.));
#1600=DIRECTION('',(-1.,0.,0.));
#1601=DIRECTION('',(0.,0.,1.));
#1602=DIRECTION('',(1.,0.,0.));
#1603=DIRECTION('',(0.,0.,-1.));
#1604=DIRECTION('',(1.,0.,0.));
#1605=DIRECTION('',(0.,0.,-1.));
#1606=DIRECTION('',(-1.,0.,0.));
#1607=DIRECTION('',(0.,0.,1.));
#1608=DIRECTION('',(1.,0.,0.));
#1609=DIRECTION('',(0.,0.,-1.));
#1610=DIRECTION('',(1.,0.,0.));
#1611=DIRECTION('',(0.,0.,-1.));
#1612=DIRECTION('',(1.,0.,0.));
#1613=DIRECTION('',(0.,0.,-1.));
#1614=DIRECTION('',(0.,0.,-1.));
#1615=DIRECTION('',(0.,1.,0.));
#1616=DIRECTION('',(0.,1.,0.));
#1617=DIRECTION('',(0.,0.,-1.));
#1618=DIRECTION('',(1.,0.,0.));
#1619=DIRECTION('',(0.,0.,-1.));
#1620=DIRECTION('',(0.,0.,-1.));
#1621=DIRECTION('',(1.,0.,0.));
#1622=DIRECTION('',(0.,0.,-1.));
#1623=DIRECTION('',(0.,0.,-1.));
#1624=DIRECTION('',(1.,0.,0.));
#1625=DIRECTION('',(0.,0.,-1.));
#1626=DIRECTION('',(0.,0.,-1.));
#1627=DIRECTION('',(1.,0.,0.));
#1628=DIRECTION('',(0.,0.,-1.));
#1629=DIRECTION('',(1.,0.,0.));
#1630=DIRECTION('',(0.,0.,-1.));
#1631=DIRECTION('',(0.,1.,0.));
#1632=DIRECTION('',(0.,0.,-1.));
#1633=DIRECTION('',(1.,0.,0.));
#1634=DIRECTION('',(0.,0.,-1.));
#1635=DIRECTION('',(0.,0.,-1.));
#1636=DIRECTION('',(1.,0.,0.));
#1637=DIRECTION('',(0.,0.,-1.));
#1638=DIRECTION('',(0.,0.,-1.));
#1639=DIRECTION('',(1.,0.,0.));
#1640=DIRECTION('',(0.,0.,-1.));
#1641=DIRECTION('',(0.,0.,-1.));
#1642=DIRECTION('',(1.,0.,0.));
#1643=DIRECTION('',(0.,0.,-1.));
#1644=DIRECTION('',(0.,0.,-1.));
#1645=DIRECTION('',(0.,1.,0.));
#1646=DIRECTION('',(0.,0.,1.));
#1647=DIRECTION('',(1.,0.,0.));
#1648=DIRECTION('',(1.,0.,0.));
#1649=DIRECTION('',(-1.,0.,0.));
#1650=DIRECTION('',(0.,0.,1.));
#1651=DIRECTION('',(-1.,0.,0.));
#1652=DIRECTION('',(-1.,0.,0.));
#1653=DIRECTION('',(-1.,0.,0.));
#1654=DIRECTION('',(0.,0.,1.));
#1655=DIRECTION('',(-1.,0.,0.));
#1656=DIRECTION('',(-1.,0.,0.));
#1657=DIRECTION('',(-1.,0.,0.));
#1658=DIRECTION('',(0.,0.,1.));
#1659=DIRECTION('',(-1.,0.,0.));
#1660=DIRECTION('',(-1.,0.,0.));
#1661=DIRECTION('',(-1.,0.,0.));
#1662=DIRECTION('',(0.,0.,1.));
#1663=DIRECTION('',(-1.,0.,0.));
#1664=DIRECTION('',(-1.,0.,0.));
#1665=DIRECTION('',(0.,0.,1.));
#1666=DIRECTION('',(1.,0.,0.));
#1667=DIRECTION('',(1.,0.,0.));
#1668=DIRECTION('',(0.,-1.,0.));
#1669=DIRECTION('',(1.,0.,0.));
#1670=DIRECTION('',(0.,-1.,0.));
#1671=DIRECTION('',(1.,0.,0.));
#1672=DIRECTION('',(0.,-1.,0.));
#1673=DIRECTION('',(1.,0.,0.));
#1674=DIRECTION('',(0.,-1.,0.));
#1675=DIRECTION('',(1.,0.,0.));
#1676=DIRECTION('',(0.,-1.,0.));
#1677=DIRECTION('',(1.,0.,0.));
#1678=CARTESIAN_POINT('',(0.,0.,0.));
#1679=CARTESIAN_POINT('',(0.2074512,-0.1143,0.1016));
#1680=CARTESIAN_POINT('',(0.2074512,-0.1143,0.1016));
#1681=CARTESIAN_POINT('',(0.2074512,-0.1143,0.0965073));
#1682=CARTESIAN_POINT('',(0.2064512,-0.1143,0.1016));
#1683=CARTESIAN_POINT('',(0.2064512,-0.1143,0.0965073));
#1684=CARTESIAN_POINT('',(0.2074512,-0.1397,0.1016));
#1685=CARTESIAN_POINT('',(0.2074512,-0.1397,0.1016));
#1686=CARTESIAN_POINT('',(0.2074512,-0.1397,0.0990473));
#1687=CARTESIAN_POINT('',(0.2064512,-0.1397,0.1016));
#1688=CARTESIAN_POINT('',(0.2064512,-0.1397,0.0990473));
#1689=CARTESIAN_POINT('',(0.2074512,-0.1524,0.1016));
#1690=CARTESIAN_POINT('',(0.2074512,-0.1524,0.1016));
#1691=CARTESIAN_POINT('',(0.2074512,-0.1524,0.0990473));
#1692=CARTESIAN_POINT('',(0.2064512,-0.1524,0.1016));
#1693=CARTESIAN_POINT('',(0.2064512,-0.1524,0.0990473));
#1694=CARTESIAN_POINT('',(0.2074512,-0.1651,0.1016));
#1695=CARTESIAN_POINT('',(0.2074512,-0.1651,0.1016));
#1696=CARTESIAN_POINT('',(0.2074512,-0.1651,0.0965073));
#1697=CARTESIAN_POINT('',(0.2064512,-0.1651,0.1016));
#1698=CARTESIAN_POINT('',(0.2064512,-0.1651,0.0965073));
#1699=CARTESIAN_POINT('',(0.2074512,-0.1905,0.1016));
#1700=CARTESIAN_POINT('',(0.2074512,-0.1905,0.1016));
#1701=CARTESIAN_POINT('',(0.2074512,-0.1905,0.0965073));
#1702=CARTESIAN_POINT('',(0.2064512,-0.1905,0.1016));
#1703=CARTESIAN_POINT('',(0.2064512,-0.1905,0.0965073));
#1704=CARTESIAN_POINT('',(0.2074512,-0.1905,-0.1016));
#1705=CARTESIAN_POINT('',(0.2074512,-0.1905,-0.1016));
#1706=CARTESIAN_POINT('',(0.2074512,-0.1905,-0.1066927));
#1707=CARTESIAN_POINT('',(0.2064512,-0.1905,-0.1016));
#1708=CARTESIAN_POINT('',(0.2064512,-0.1905,-0.1066927));
#1709=CARTESIAN_POINT('',(0.2074512,-0.1651,-0.1016));
#1710=CARTESIAN_POINT('',(0.2074512,-0.1651,-0.1016));
#1711=CARTESIAN_POINT('',(0.2074512,-0.1651,-0.1041527));
#1712=CARTESIAN_POINT('',(0.2064512,-0.1651,-0.1016));
#1713=CARTESIAN_POINT('',(0.2064512,-0.1651,-0.1041527));
#1714=CARTESIAN_POINT('',(0.2074512,-0.1778,-0.1016));
#1715=CARTESIAN_POINT('',(0.2074512,-0.1778,-0.1016));
#1716=CARTESIAN_POINT('',(0.2074512,-0.1778,-0.1041527));
#1717=CARTESIAN_POINT('',(0.2064512,-0.1778,-0.1016));
#1718=CARTESIAN_POINT('',(0.2064512,-0.1778,-0.1041527));
#1719=CARTESIAN_POINT('',(0.2074512,-0.1778,-0.3302));
#1720=CARTESIAN_POINT('',(0.2074512,-0.1778,-0.3302));
#1721=CARTESIAN_POINT('',(0.2074512,-0.1778,-0.3327527));
#1722=CARTESIAN_POINT('',(0.2064512,-0.1778,-0.3302));
#1723=CARTESIAN_POINT('',(0.2064512,-0.1778,-0.3327527));
#1724=CARTESIAN_POINT('',(0.2074512,-0.1397,-0.3302));
#1725=CARTESIAN_POINT('',(0.2074512,-0.1397,-0.3302));
#1726=CARTESIAN_POINT('',(0.2074512,-0.1397,-0.3327527));
#1727=CARTESIAN_POINT('',(0.2064512,-0.1397,-0.3302));
#1728=CARTESIAN_POINT('',(0.2064512,-0.1397,-0.3327527));
#1729=CARTESIAN_POINT('',(0.2074512,-0.1524,-0.3302));
#1730=CARTESIAN_POINT('',(0.2074512,-0.1524,-0.3302));
#1731=CARTESIAN_POINT('',(0.2074512,-0.1524,-0.3327527));
#1732=CARTESIAN_POINT('',(0.2064512,-0.1524,-0.3302));
#1733=CARTESIAN_POINT('',(0.2064512,-0.1524,-0.3327527));
#1734=CARTESIAN_POINT('',(0.2074512,-0.1651,-0.3302));
#1735=CARTESIAN_POINT('',(0.2074512,-0.1651,-0.3302));
#1736=CARTESIAN_POINT('',(0.2074512,-0.1651,-0.3352927));
#1737=CARTESIAN_POINT('',(0.2064512,-0.1651,-0.3302));
#1738=CARTESIAN_POINT('',(0.2064512,-0.1651,-0.3352927));
#1739=CARTESIAN_POINT('',(0.2074512,-0.1905,-0.3302));
#1740=CARTESIAN_POINT('',(0.2074512,-0.1905,-0.3302));
#1741=CARTESIAN_POINT('',(0.2074512,-0.1905,-0.3352927));
#1742=CARTESIAN_POINT('',(0.2064512,-0.1905,-0.3302));
#1743=CARTESIAN_POINT('',(0.2064512,-0.1905,-0.3352927));
#1744=CARTESIAN_POINT('',(0.2074512,-0.1778,0.1016));
#1745=CARTESIAN_POINT('',(0.2074512,-0.1778,0.1016));
#1746=CARTESIAN_POINT('',(0.2074512,-0.1778,0.0990473));
#1747=CARTESIAN_POINT('',(0.2064512,-0.1778,0.1016));
#1748=CARTESIAN_POINT('',(0.2064512,-0.1778,0.0990473));
#1749=CARTESIAN_POINT('',(0.2074512,-0.0254,-0.1016));
#1750=CARTESIAN_POINT('',(0.2074512,-0.0254,-0.1016));
#1751=CARTESIAN_POINT('',(0.2074512,-0.0254,-0.1041527));
#1752=CARTESIAN_POINT('',(0.2064512,-0.0254,-0.1016));
#1753=CARTESIAN_POINT('',(0.2064512,-0.0254,-0.1041527));
#1754=CARTESIAN_POINT('',(0.2074512,-0.1143,-0.1016));
#1755=CARTESIAN_POINT('',(0.2074512,-0.1143,-0.1016));
#1756=CARTESIAN_POINT('',(0.2074512,-0.1143,-0.1066927));
#1757=CARTESIAN_POINT('',(0.2064512,-0.1143,-0.1016));
#1758=CARTESIAN_POINT('',(0.2064512,-0.1143,-0.1066927));
#1759=CARTESIAN_POINT('',(0.2074512,-0.1016,-0.1016));
#1760=CARTESIAN_POINT('',(0.2074512,-0.1016,-0.1016));
#1761=CARTESIAN_POINT('',(0.2074512,-0.1016,-0.1041527));
#1762=CARTESIAN_POINT('',(0.2064512,-0.1016,-0.1016));
#1763=CARTESIAN_POINT('',(0.2064512,-0.1016,-0.1041527));
#1764=CARTESIAN_POINT('',(0.2074512,-0.0889,-0.1016));
#1765=CARTESIAN_POINT('',(0.2074512,-0.0889,-0.1016));
#1766=CARTESIAN_POINT('',(0.2074512,-0.0889,-0.1041527));
#1767=CARTESIAN_POINT('',(0.2064512,-0.0889,-0.1016));
#1768=CARTESIAN_POINT('',(0.2064512,-0.0889,-0.1041527));
#1769=CARTESIAN_POINT('',(0.2074512,-0.127,-0.1016));
#1770=CARTESIAN_POINT('',(0.2074512,-0.127,-0.1016));
#1771=CARTESIAN_POINT('',(0.2074512,-0.127,-0.1041527));
#1772=CARTESIAN_POINT('',(0.2064512,-0.127,-0.1016));
#1773=CARTESIAN_POINT('',(0.2064512,-0.127,-0.1041527));
#1774=CARTESIAN_POINT('',(0.2074512,-0.0508,-0.1016));
#1775=CARTESIAN_POINT('',(0.2074512,-0.0508,-0.1016));
#1776=CARTESIAN_POINT('',(0.2074512,-0.0508,-0.1066927));
#1777=CARTESIAN_POINT('',(0.2064512,-0.0508,-0.1016));
#1778=CARTESIAN_POINT('',(0.2064512,-0.0508,-0.1066927));
#1779=CARTESIAN_POINT('',(0.2074512,-0.2047875,-0.3302));
#1780=CARTESIAN_POINT('',(0.2064512,-0.2047875,-0.3302));
#1781=CARTESIAN_POINT('',(0.2064512,-0.2047875,0.117475));
#1782=CARTESIAN_POINT('',(0.2064512,-0.2047875,-0.346074999999995));
#1783=CARTESIAN_POINT('',(0.2074512,-0.2047875,-0.346074999999995));
#1784=CARTESIAN_POINT('',(0.2074512,-0.2047875,-0.346074999999995));
#1785=CARTESIAN_POINT('',(0.2074512,-0.2047875,-0.3302));
#1786=CARTESIAN_POINT('',(0.2074512,-0.2047875,0.117475));
#1787=CARTESIAN_POINT('',(0.2074512,-0.2047875,0.117475));
#1788=CARTESIAN_POINT('',(0.2074512,-0.0127,0.1016));
#1789=CARTESIAN_POINT('',(0.2074512,-0.0127,0.1016));
#1790=CARTESIAN_POINT('',(0.2074512,-0.0127,0.0990473));
#1791=CARTESIAN_POINT('',(0.2064512,-0.0127,0.1016));
#1792=CARTESIAN_POINT('',(0.2064512,-0.0127,0.0990473));
#1793=CARTESIAN_POINT('',(0.2074512,-0.0254,0.1016));
#1794=CARTESIAN_POINT('',(0.2074512,-0.0254,0.1016));
#1795=CARTESIAN_POINT('',(0.2074512,-0.0254,0.0990473));
#1796=CARTESIAN_POINT('',(0.2064512,-0.0254,0.1016));
#1797=CARTESIAN_POINT('',(0.2064512,-0.0254,0.0990473));
#1798=CARTESIAN_POINT('',(0.2074512,-0.0381,0.1016));
#1799=CARTESIAN_POINT('',(0.2074512,-0.0381,0.1016));
#1800=CARTESIAN_POINT('',(0.2074512,-0.0381,0.0990473));
#1801=CARTESIAN_POINT('',(0.2064512,-0.0381,0.1016));
#1802=CARTESIAN_POINT('',(0.2064512,-0.0381,0.0990473));
#1803=CARTESIAN_POINT('',(0.2074512,-0.0508,0.1016));
#1804=CARTESIAN_POINT('',(0.2074512,-0.0508,0.1016));
#1805=CARTESIAN_POINT('',(0.2074512,-0.0508,0.0965073));
#1806=CARTESIAN_POINT('',(0.2064512,-0.0508,0.1016));
#1807=CARTESIAN_POINT('',(0.2064512,-0.0508,0.0965073));
#1808=CARTESIAN_POINT('',(0.2074512,-0.0635,0.1016));
#1809=CARTESIAN_POINT('',(0.2074512,-0.0635,0.1016));
#1810=CARTESIAN_POINT('',(0.2074512,-0.0635,0.0990473));
#1811=CARTESIAN_POINT('',(0.2064512,-0.0635,0.1016));
#1812=CARTESIAN_POINT('',(0.2064512,-0.0635,0.0990473));
#1813=CARTESIAN_POINT('',(0.2074512,-0.0762,0.1016));
#1814=CARTESIAN_POINT('',(0.2074512,-0.0762,0.1016));
#1815=CARTESIAN_POINT('',(0.2074512,-0.0762,0.0990473));
#1816=CARTESIAN_POINT('',(0.2064512,-0.0762,0.1016));
#1817=CARTESIAN_POINT('',(0.2064512,-0.0762,0.0990473));
#1818=CARTESIAN_POINT('',(0.2074512,-0.0893,0.1016));
#1819=CARTESIAN_POINT('',(0.2074512,-0.0893,0.1016));
#1820=CARTESIAN_POINT('',(0.2074512,-0.0893,0.0990473));
#1821=CARTESIAN_POINT('',(0.2064512,-0.0893,0.1016));
#1822=CARTESIAN_POINT('',(0.2064512,-0.0893,0.0990473));
#1823=CARTESIAN_POINT('',(0.2074512,-0.1016,0.1016));
#1824=CARTESIAN_POINT('',(0.2074512,-0.1016,0.1016));
#1825=CARTESIAN_POINT('',(0.2074512,-0.1016,0.0990473));
#1826=CARTESIAN_POINT('',(0.2064512,-0.1016,0.1016));
#1827=CARTESIAN_POINT('',(0.2064512,-0.1016,0.0990473));
#1828=CARTESIAN_POINT('',(0.2074512,-0.0127,-0.3302));
#1829=CARTESIAN_POINT('',(0.2074512,-0.0127,-0.3302));
#1830=CARTESIAN_POINT('',(0.2074512,-0.0127,-0.3327527));
#1831=CARTESIAN_POINT('',(0.2064512,-0.0127,-0.3302));
#1832=CARTESIAN_POINT('',(0.2064512,-0.0127,-0.3327527));
#1833=CARTESIAN_POINT('',(0.2074512,-0.0254,-0.3302));
#1834=CARTESIAN_POINT('',(0.2074512,-0.0254,-0.3302));
#1835=CARTESIAN_POINT('',(0.2074512,-0.0254,-0.3327527));
#1836=CARTESIAN_POINT('',(0.2064512,-0.0254,-0.3302));
#1837=CARTESIAN_POINT('',(0.2064512,-0.0254,-0.3327527));
#1838=CARTESIAN_POINT('',(0.2074512,-0.0508,-0.3302));
#1839=CARTESIAN_POINT('',(0.2074512,-0.0508,-0.3302));
#1840=CARTESIAN_POINT('',(0.2074512,-0.0508,-0.3327527));
#1841=CARTESIAN_POINT('',(0.2064512,-0.0508,-0.3302));
#1842=CARTESIAN_POINT('',(0.2064512,-0.0508,-0.3327527));
#1843=CARTESIAN_POINT('',(0.2074512,-0.1143,-0.3302));
#1844=CARTESIAN_POINT('',(0.2074512,-0.1143,-0.3302));
#1845=CARTESIAN_POINT('',(0.2074512,-0.1143,-0.3327527));
#1846=CARTESIAN_POINT('',(0.2064512,-0.1143,-0.3302));
#1847=CARTESIAN_POINT('',(0.2064512,-0.1143,-0.3327527));
#1848=CARTESIAN_POINT('',(0.2074512,-0.1524,-0.1016));
#1849=CARTESIAN_POINT('',(0.2074512,-0.1524,-0.1016));
#1850=CARTESIAN_POINT('',(0.2074512,-0.1524,-0.1041527));
#1851=CARTESIAN_POINT('',(0.2064512,-0.1524,-0.1016));
#1852=CARTESIAN_POINT('',(0.2064512,-0.1524,-0.1041527));
#1853=CARTESIAN_POINT('',(0.2074512,-0.1397,-0.1016));
#1854=CARTESIAN_POINT('',(0.2074512,-0.1397,-0.1016));
#1855=CARTESIAN_POINT('',(0.2074512,-0.1397,-0.1041527));
#1856=CARTESIAN_POINT('',(0.2064512,-0.1397,-0.1016));
#1857=CARTESIAN_POINT('',(0.2064512,-0.1397,-0.1041527));
#1858=CARTESIAN_POINT('',(0.2074512,-0.0762,-0.3302));
#1859=CARTESIAN_POINT('',(0.2074512,-0.0762,-0.3302));
#1860=CARTESIAN_POINT('',(0.2074512,-0.0762,-0.3327527));
#1861=CARTESIAN_POINT('',(0.2064512,-0.0762,-0.3302));
#1862=CARTESIAN_POINT('',(0.2064512,-0.0762,-0.3327527));
#1863=CARTESIAN_POINT('',(0.2074512,-0.0635,-0.3302));
#1864=CARTESIAN_POINT('',(0.2074512,-0.0635,-0.3302));
#1865=CARTESIAN_POINT('',(0.2074512,-0.0635,-0.3327527));
#1866=CARTESIAN_POINT('',(0.2064512,-0.0635,-0.3302));
#1867=CARTESIAN_POINT('',(0.2064512,-0.0635,-0.3327527));
#1868=CARTESIAN_POINT('',(0.2074512,-0.0381,-0.3302));
#1869=CARTESIAN_POINT('',(0.2074512,-0.0381,-0.3302));
#1870=CARTESIAN_POINT('',(0.2074512,-0.0381,-0.3327527));
#1871=CARTESIAN_POINT('',(0.2064512,-0.0381,-0.3302));
#1872=CARTESIAN_POINT('',(0.2064512,-0.0381,-0.3327527));
#1873=CARTESIAN_POINT('',(0.2074512,-0.0762,-0.1016));
#1874=CARTESIAN_POINT('',(0.2074512,-0.0762,-0.1016));
#1875=CARTESIAN_POINT('',(0.2074512,-0.0762,-0.1041527));
#1876=CARTESIAN_POINT('',(0.2064512,-0.0762,-0.1016));
#1877=CARTESIAN_POINT('',(0.2064512,-0.0762,-0.1041527));
#1878=CARTESIAN_POINT('',(0.2074512,-0.0635,-0.1016));
#1879=CARTESIAN_POINT('',(0.2074512,-0.0635,-0.1016));
#1880=CARTESIAN_POINT('',(0.2074512,-0.0635,-0.1041527));
#1881=CARTESIAN_POINT('',(0.2064512,-0.0635,-0.1016));
#1882=CARTESIAN_POINT('',(0.2064512,-0.0635,-0.1041527));
#1883=CARTESIAN_POINT('',(0.2074512,-0.127,0.1016));
#1884=CARTESIAN_POINT('',(0.2074512,-0.127,0.1016));
#1885=CARTESIAN_POINT('',(0.2074512,-0.127,0.0990473));
#1886=CARTESIAN_POINT('',(0.2064512,-0.127,0.1016));
#1887=CARTESIAN_POINT('',(0.2064512,-0.127,0.0990473));
#1888=CARTESIAN_POINT('',(0.2074512,-0.0381,-0.1016));
#1889=CARTESIAN_POINT('',(0.2074512,-0.0381,-0.1016));
#1890=CARTESIAN_POINT('',(0.2074512,-0.0381,-0.1041527));
#1891=CARTESIAN_POINT('',(0.2064512,-0.0381,-0.1016));
#1892=CARTESIAN_POINT('',(0.2064512,-0.0381,-0.1041527));
#1893=CARTESIAN_POINT('',(0.2074512,-0.0127,-0.1016));
#1894=CARTESIAN_POINT('',(0.2074512,-0.0127,-0.1016));
#1895=CARTESIAN_POINT('',(0.2074512,-0.0127,-0.1041527));
#1896=CARTESIAN_POINT('',(0.2064512,-0.0127,-0.1016));
#1897=CARTESIAN_POINT('',(0.2064512,-0.0127,-0.1041527));
#1898=CARTESIAN_POINT('',(0.2074512,-0.1016,-0.3302));
#1899=CARTESIAN_POINT('',(0.2074512,-0.1016,-0.3302));
#1900=CARTESIAN_POINT('',(0.2074512,-0.1016,-0.3327527));
#1901=CARTESIAN_POINT('',(0.2064512,-0.1016,-0.3302));
#1902=CARTESIAN_POINT('',(0.2064512,-0.1016,-0.3327527));
#1903=CARTESIAN_POINT('',(0.2074512,-0.0889,-0.3302));
#1904=CARTESIAN_POINT('',(0.2074512,-0.0889,-0.3302));
#1905=CARTESIAN_POINT('',(0.2074512,-0.0889,-0.3352927));
#1906=CARTESIAN_POINT('',(0.2064512,-0.0889,-0.3302));
#1907=CARTESIAN_POINT('',(0.2064512,-0.0889,-0.3352927));
#1908=CARTESIAN_POINT('',(0.2074512,-0.127,-0.3302));
#1909=CARTESIAN_POINT('',(0.2074512,-0.127,-0.3302));
#1910=CARTESIAN_POINT('',(0.2074512,-0.127,-0.3327527));
#1911=CARTESIAN_POINT('',(0.2064512,-0.127,-0.3302));
#1912=CARTESIAN_POINT('',(0.2064512,-0.127,-0.3327527));
#1913=CARTESIAN_POINT('',(0.2074512,-0.2032,-0.3302));
#1914=CARTESIAN_POINT('',(0.2074512,0.,-0.3302));
#1915=CARTESIAN_POINT('',(0.2074512,0.,0.117475));
#1916=CARTESIAN_POINT('',(0.2074512,0.,0.1066927));
#1917=CARTESIAN_POINT('',(0.2074512,-0.2032,0.117475));
#1918=CARTESIAN_POINT('',(0.2074512,-0.2032,-0.346074999999995));
#1919=CARTESIAN_POINT('',(0.2074512,0.,-0.346074999999995));
#1920=CARTESIAN_POINT('',(0.2074512,0.,-0.3302));
#1921=CARTESIAN_POINT('',(0.2074512,0.,-0.3352927));
#1922=CARTESIAN_POINT('',(0.2074512,0.,-0.3302));
#1923=CARTESIAN_POINT('',(0.2074512,0.,-0.3251073));
#1924=CARTESIAN_POINT('',(0.2074512,0.,-0.3302));
#1925=CARTESIAN_POINT('',(0.2074512,0.,-0.1066927));
#1926=CARTESIAN_POINT('',(0.2074512,2.77555756156289E-17,-0.1016));
#1927=CARTESIAN_POINT('',(0.2074512,0.,-0.0965073));
#1928=CARTESIAN_POINT('',(0.2074512,0.,-0.3302));
#1929=CARTESIAN_POINT('',(0.2074512,0.,-0.031684));
#1930=CARTESIAN_POINT('',(0.2074512,0.,4.3508026833308E-18));
#1931=CARTESIAN_POINT('',(0.2074512,0.,0.031684));
#1932=CARTESIAN_POINT('',(0.2074512,0.,-0.3302));
#1933=CARTESIAN_POINT('',(0.2074512,0.,0.0965073));
#1934=CARTESIAN_POINT('',(0.2074512,0.,0.1016));
#1935=CARTESIAN_POINT('',(0.2064512,-0.2032,-0.3302));
#1936=CARTESIAN_POINT('',(0.2064512,-0.2032,0.117475));
#1937=CARTESIAN_POINT('',(0.2064512,0.,0.117475));
#1938=CARTESIAN_POINT('',(0.2064512,0.,-0.3302));
#1939=CARTESIAN_POINT('',(0.2064512,0.,0.1066927));
#1940=CARTESIAN_POINT('',(0.2064512,0.,0.1016));
#1941=CARTESIAN_POINT('',(0.2064512,0.,0.0965073));
#1942=CARTESIAN_POINT('',(0.2064512,0.,-0.3302));
#1943=CARTESIAN_POINT('',(0.2064512,0.,0.031684));
#1944=CARTESIAN_POINT('',(0.2064512,0.,4.3508026833308E-18));
#1945=CARTESIAN_POINT('',(0.2064512,0.,-0.031684));
#1946=CARTESIAN_POINT('',(0.2064512,0.,-0.3302));
#1947=CARTESIAN_POINT('',(0.2064512,6.16297582203916E-33,-0.0965073));
#1948=CARTESIAN_POINT('',(0.2064512,2.77555756156289E-17,-0.1016));
#1949=CARTESIAN_POINT('',(0.2064512,6.16297582203916E-33,-0.1066927));
#1950=CARTESIAN_POINT('',(0.2064512,0.,-0.3302));
#1951=CARTESIAN_POINT('',(0.2064512,0.,-0.3251073));
#1952=CARTESIAN_POINT('',(0.2064512,0.,-0.3302));
#1953=CARTESIAN_POINT('',(0.2064512,0.,-0.3352927));
#1954=CARTESIAN_POINT('',(0.2064512,0.,-0.3302));
#1955=CARTESIAN_POINT('',(0.2064512,0.,-0.346074999999995));
#1956=CARTESIAN_POINT('',(0.2064512,-0.2032,-0.346074999999995));
#1957=CARTESIAN_POINT('',(0.2074512,-0.2032,-0.346074999999995));
#1958=CARTESIAN_POINT('',(0.2074512,0.,-0.346074999999995));
#1959=CARTESIAN_POINT('',(0.2074512,0.,4.3508026833308E-18));
#1960=CARTESIAN_POINT('',(0.2074512,0.,0.031684));
#1961=CARTESIAN_POINT('',(0.2074512,0.,-0.031684));
#1962=CARTESIAN_POINT('',(0.2074512,2.77555756156289E-17,-0.1016));
#1963=CARTESIAN_POINT('',(0.2074512,0.,-0.0965073));
#1964=CARTESIAN_POINT('',(0.2074512,0.,-0.1066927));
#1965=CARTESIAN_POINT('',(0.2074512,0.,-0.3302));
#1966=CARTESIAN_POINT('',(0.2074512,0.,-0.3251073));
#1967=CARTESIAN_POINT('',(0.2074512,0.,-0.3352927));
#1968=CARTESIAN_POINT('',(0.2074512,0.,0.1016));
#1969=CARTESIAN_POINT('',(0.2074512,0.,0.1066927));
#1970=CARTESIAN_POINT('',(0.2074512,0.,0.0965073));
#1971=CARTESIAN_POINT('',(0.2074512,-0.2032,0.117475));
#1972=CARTESIAN_POINT('',(0.2074512,0.,0.117475));
#1973=CARTESIAN_POINT('',(0.,0.,0.));
#1974=CARTESIAN_POINT('',(0.,0.,0.));
#1975=CARTESIAN_POINT('',(0.,0.,0.));
#1976=CARTESIAN_POINT('',(0.,0.,0.));
#1977=CARTESIAN_POINT('',(0.,0.,0.));
#1978=MECHANICAL_DESIGN_GEOMETRIC_PRESENTATION_REPRESENTATION('',(#1165),
#1979);
#1979=(
GEOMETRIC_REPRESENTATION_CONTEXT(3)
GLOBAL_UNCERTAINTY_ASSIGNED_CONTEXT((#1980))
GLOBAL_UNIT_ASSIGNED_CONTEXT((#1983,#1982,#1981))
REPRESENTATION_CONTEXT('Alt Shielding D-L','TOP_LEVEL_ASSEMBLY_PART')
);
#1980=UNCERTAINTY_MEASURE_WITH_UNIT(LENGTH_MEASURE(1.E-8),#1983,
'DISTANCE_ACCURACY_VALUE','Maximum Tolerance applied to model');
#1981=(
NAMED_UNIT(*)
SI_UNIT($,.STERADIAN.)
SOLID_ANGLE_UNIT()
);
#1982=(
NAMED_UNIT(*)
PLANE_ANGLE_UNIT()
SI_UNIT($,.RADIAN.)
);
#1983=(
LENGTH_UNIT()
NAMED_UNIT(*)
SI_UNIT($,.METRE.)
);
#1984=PRODUCT_DEFINITION_SHAPE('','',#1985);
#1985=PRODUCT_DEFINITION('','',#1987,#1986);
#1986=PRODUCT_DEFINITION_CONTEXT('',#1993,'design');
#1987=PRODUCT_DEFINITION_FORMATION_WITH_SPECIFIED_SOURCE('','',#1989,
 .NOT_KNOWN.);
#1988=PRODUCT_RELATED_PRODUCT_CATEGORY('','',(#1989));
#1989=PRODUCT('Alt Shielding D-L','Alt Shielding D-L',
'Alt Shielding D-L',(#1991));
#1990=PRODUCT_CATEGORY('','');
#1991=PRODUCT_CONTEXT('',#1993,'mechanical');
#1992=APPLICATION_PROTOCOL_DEFINITION('international standard',
'ap242_managed_model_based_3d_engineering',2011,#1993);
#1993=APPLICATION_CONTEXT('managed model based 3d engineering');
ENDSEC;
END-ISO-10303-21;
