ISO-10303-21;
HEADER;
/* Generated by software containing ST-Developer
 * from STEP Tools, Inc. (www.steptools.com) 
 */
/* OPTION: using custom renumber hook */

FILE_DESCRIPTION(
/* description */ ('STEP AP242',
'CAx-IF Rec.Pracs.---Representation and Presentation of Product Manufa
cturing Information (PMI)---4.0---2014-10-13',
'CAx-IF Rec.Pracs.---3D Tessellated Geometry---0.4---2014-09-14','2;1'),

/* implementation_level */ '2;1');

FILE_NAME(
/* name */ '68fb243734e6012dc82c9842',
/* time_stamp */ '2025-10-24T07:01:11Z',
/* author */ (''),
/* organization */ (''),
/* preprocessor_version */ 'ST-DEVELOPER v20',
/* originating_system */ 'ONSHAPE BY PTC INC, 1.205',
/* authorisation */ '  ');

FILE_SCHEMA (('AP242_MANAGED_MODEL_BASED_3D_ENGINEERING_MIM_LF { 1 0 10303 442 1 1 4 }'));
ENDSEC;

DATA;
#10=SHAPE_REPRESENTATION_RELATIONSHIP('','',#1175,#11);
#11=ADVANCED_BREP_SHAPE_REPRESENTATION('',(#1173),#1979);
#12=CIRCLE('',#1180,0.0025527);
#13=CIRCLE('',#1181,0.0025527);
#14=CIRCLE('',#1183,0.0025527);
#15=CIRCLE('',#1184,0.0025527);
#16=CIRCLE('',#1186,0.0025527);
#17=CIRCLE('',#1187,0.0025527);
#18=CIRCLE('',#1189,0.0025527);
#19=CIRCLE('',#1190,0.0025527);
#20=CIRCLE('',#1192,0.0025527);
#21=CIRCLE('',#1193,0.0025527);
#22=CIRCLE('',#1195,0.0050927);
#23=CIRCLE('',#1196,0.0050927);
#24=CIRCLE('',#1198,0.0025527);
#25=CIRCLE('',#1199,0.0025527);
#26=CIRCLE('',#1201,0.0025527);
#27=CIRCLE('',#1202,0.0025527);
#28=CIRCLE('',#1204,0.0025527);
#29=CIRCLE('',#1205,0.0025527);
#30=CIRCLE('',#1207,0.0025527);
#31=CIRCLE('',#1208,0.0025527);
#32=CIRCLE('',#1210,0.0025527);
#33=CIRCLE('',#1211,0.0025527);
#34=CIRCLE('',#1213,0.0050927);
#35=CIRCLE('',#1214,0.0050927);
#36=CIRCLE('',#1216,0.0025527);
#37=CIRCLE('',#1217,0.0025527);
#38=CIRCLE('',#1219,0.0025527);
#39=CIRCLE('',#1220,0.0025527);
#40=CIRCLE('',#1222,0.0025527);
#41=CIRCLE('',#1223,0.0025527);
#42=CIRCLE('',#1225,0.0025527);
#43=CIRCLE('',#1226,0.0025527);
#44=CIRCLE('',#1228,0.0050927);
#45=CIRCLE('',#1229,0.0050927);
#46=CIRCLE('',#1231,0.0025527);
#47=CIRCLE('',#1232,0.0025527);
#48=CIRCLE('',#1234,0.0025527);
#49=CIRCLE('',#1235,0.0025527);
#50=CIRCLE('',#1237,0.0025527);
#51=CIRCLE('',#1238,0.0025527);
#52=CIRCLE('',#1240,0.0025527);
#53=CIRCLE('',#1241,0.0025527);
#54=CIRCLE('',#1243,0.0025527);
#55=CIRCLE('',#1244,0.0025527);
#56=CIRCLE('',#1246,0.0025527);
#57=CIRCLE('',#1247,0.0025527);
#58=CIRCLE('',#1249,0.0050927);
#59=CIRCLE('',#1250,0.0050927);
#60=CIRCLE('',#1252,0.0025527);
#61=CIRCLE('',#1253,0.0025527);
#62=CIRCLE('',#1255,0.0025527);
#63=CIRCLE('',#1256,0.0025527);
#64=CIRCLE('',#1258,0.0025527);
#65=CIRCLE('',#1259,0.0025527);
#66=CIRCLE('',#1261,0.0025527);
#67=CIRCLE('',#1262,0.0025527);
#68=CIRCLE('',#1264,0.0050927);
#69=CIRCLE('',#1265,0.0050927);
#70=CIRCLE('',#1267,0.0025527);
#71=CIRCLE('',#1268,0.0025527);
#72=CIRCLE('',#1270,0.0025527);
#73=CIRCLE('',#1271,0.0025527);
#74=CIRCLE('',#1273,0.0050927);
#75=CIRCLE('',#1274,0.0050927);
#76=CIRCLE('',#1276,0.0050927);
#77=CIRCLE('',#1277,0.0050927);
#78=CIRCLE('',#1279,0.0025527);
#79=CIRCLE('',#1280,0.0025527);
#80=CIRCLE('',#1282,0.0025527);
#81=CIRCLE('',#1283,0.0025527);
#82=CIRCLE('',#1285,0.0025527);
#83=CIRCLE('',#1286,0.0025527);
#84=CIRCLE('',#1288,0.0025527);
#85=CIRCLE('',#1289,0.0025527);
#86=CIRCLE('',#1291,0.0025527);
#87=CIRCLE('',#1292,0.0025527);
#88=CIRCLE('',#1294,0.0025527);
#89=CIRCLE('',#1295,0.0025527);
#90=CIRCLE('',#1297,0.0050927);
#91=CIRCLE('',#1298,0.0050927);
#92=CIRCLE('',#1300,0.0025527);
#93=CIRCLE('',#1301,0.0025527);
#94=CIRCLE('',#1303,0.0025527);
#95=CIRCLE('',#1304,0.0025527);
#96=CIRCLE('',#1306,0.0025527);
#97=CIRCLE('',#1307,0.0025527);
#98=CIRCLE('',#1309,0.0050927);
#99=CIRCLE('',#1310,0.0050927);
#100=CIRCLE('',#1312,0.0050927);
#101=CIRCLE('',#1313,0.0050927);
#102=CIRCLE('',#1315,0.0050927);
#103=CIRCLE('',#1316,0.0050927);
#104=CIRCLE('',#1317,0.0318586);
#105=CIRCLE('',#1318,0.0050927);
#106=CIRCLE('',#1320,0.0050927);
#107=CIRCLE('',#1321,0.0318586);
#108=CIRCLE('',#1322,0.0050927);
#109=CIRCLE('',#1323,0.0050927);
#110=CYLINDRICAL_SURFACE('',#1179,0.0025527);
#111=CYLINDRICAL_SURFACE('',#1182,0.0025527);
#112=CYLINDRICAL_SURFACE('',#1185,0.0025527);
#113=CYLINDRICAL_SURFACE('',#1188,0.0025527);
#114=CYLINDRICAL_SURFACE('',#1191,0.0025527);
#115=CYLINDRICAL_SURFACE('',#1194,0.0050927);
#116=CYLINDRICAL_SURFACE('',#1197,0.0025527);
#117=CYLINDRICAL_SURFACE('',#1200,0.0025527);
#118=CYLINDRICAL_SURFACE('',#1203,0.0025527);
#119=CYLINDRICAL_SURFACE('',#1206,0.0025527);
#120=CYLINDRICAL_SURFACE('',#1209,0.0025527);
#121=CYLINDRICAL_SURFACE('',#1212,0.0050927);
#122=CYLINDRICAL_SURFACE('',#1215,0.0025527);
#123=CYLINDRICAL_SURFACE('',#1218,0.0025527);
#124=CYLINDRICAL_SURFACE('',#1221,0.0025527);
#125=CYLINDRICAL_SURFACE('',#1224,0.0025527);
#126=CYLINDRICAL_SURFACE('',#1227,0.0050927);
#127=CYLINDRICAL_SURFACE('',#1230,0.0025527);
#128=CYLINDRICAL_SURFACE('',#1233,0.0025527);
#129=CYLINDRICAL_SURFACE('',#1236,0.0025527);
#130=CYLINDRICAL_SURFACE('',#1239,0.0025527);
#131=CYLINDRICAL_SURFACE('',#1242,0.0025527);
#132=CYLINDRICAL_SURFACE('',#1245,0.0025527);
#133=CYLINDRICAL_SURFACE('',#1248,0.0050927);
#134=CYLINDRICAL_SURFACE('',#1251,0.0025527);
#135=CYLINDRICAL_SURFACE('',#1254,0.0025527);
#136=CYLINDRICAL_SURFACE('',#1257,0.0025527);
#137=CYLINDRICAL_SURFACE('',#1260,0.0025527);
#138=CYLINDRICAL_SURFACE('',#1263,0.0050927);
#139=CYLINDRICAL_SURFACE('',#1266,0.0025527);
#140=CYLINDRICAL_SURFACE('',#1269,0.0025527);
#141=CYLINDRICAL_SURFACE('',#1272,0.0050927);
#142=CYLINDRICAL_SURFACE('',#1275,0.0050927);
#143=CYLINDRICAL_SURFACE('',#1278,0.0025527);
#144=CYLINDRICAL_SURFACE('',#1281,0.0025527);
#145=CYLINDRICAL_SURFACE('',#1284,0.0025527);
#146=CYLINDRICAL_SURFACE('',#1287,0.0025527);
#147=CYLINDRICAL_SURFACE('',#1290,0.0025527);
#148=CYLINDRICAL_SURFACE('',#1293,0.0025527);
#149=CYLINDRICAL_SURFACE('',#1296,0.0050927);
#150=CYLINDRICAL_SURFACE('',#1299,0.0025527);
#151=CYLINDRICAL_SURFACE('',#1302,0.0025527);
#152=CYLINDRICAL_SURFACE('',#1305,0.0025527);
#153=CYLINDRICAL_SURFACE('',#1308,0.0050927);
#154=CYLINDRICAL_SURFACE('',#1311,0.0050927);
#155=CYLINDRICAL_SURFACE('',#1325,0.0318586);
#156=CYLINDRICAL_SURFACE('',#1326,0.0050927);
#157=CYLINDRICAL_SURFACE('',#1327,0.0050927);
#158=CYLINDRICAL_SURFACE('',#1328,0.0050927);
#159=ORIENTED_EDGE('',*,*,#411,.T.);
#160=ORIENTED_EDGE('',*,*,#412,.T.);
#161=ORIENTED_EDGE('',*,*,#413,.F.);
#162=ORIENTED_EDGE('',*,*,#414,.F.);
#163=ORIENTED_EDGE('',*,*,#415,.T.);
#164=ORIENTED_EDGE('',*,*,#416,.F.);
#165=ORIENTED_EDGE('',*,*,#417,.F.);
#166=ORIENTED_EDGE('',*,*,#418,.T.);
#167=ORIENTED_EDGE('',*,*,#419,.T.);
#168=ORIENTED_EDGE('',*,*,#420,.F.);
#169=ORIENTED_EDGE('',*,*,#421,.T.);
#170=ORIENTED_EDGE('',*,*,#422,.F.);
#171=ORIENTED_EDGE('',*,*,#423,.T.);
#172=ORIENTED_EDGE('',*,*,#424,.F.);
#173=ORIENTED_EDGE('',*,*,#425,.T.);
#174=ORIENTED_EDGE('',*,*,#426,.F.);
#175=ORIENTED_EDGE('',*,*,#427,.T.);
#176=ORIENTED_EDGE('',*,*,#428,.F.);
#177=ORIENTED_EDGE('',*,*,#429,.T.);
#178=ORIENTED_EDGE('',*,*,#430,.F.);
#179=ORIENTED_EDGE('',*,*,#431,.T.);
#180=ORIENTED_EDGE('',*,*,#432,.F.);
#181=ORIENTED_EDGE('',*,*,#433,.T.);
#182=ORIENTED_EDGE('',*,*,#434,.F.);
#183=ORIENTED_EDGE('',*,*,#435,.T.);
#184=ORIENTED_EDGE('',*,*,#436,.F.);
#185=ORIENTED_EDGE('',*,*,#437,.T.);
#186=ORIENTED_EDGE('',*,*,#438,.F.);
#187=ORIENTED_EDGE('',*,*,#439,.T.);
#188=ORIENTED_EDGE('',*,*,#440,.F.);
#189=ORIENTED_EDGE('',*,*,#441,.T.);
#190=ORIENTED_EDGE('',*,*,#442,.F.);
#191=ORIENTED_EDGE('',*,*,#443,.T.);
#192=ORIENTED_EDGE('',*,*,#444,.F.);
#193=ORIENTED_EDGE('',*,*,#445,.T.);
#194=ORIENTED_EDGE('',*,*,#446,.F.);
#195=ORIENTED_EDGE('',*,*,#447,.T.);
#196=ORIENTED_EDGE('',*,*,#448,.F.);
#197=ORIENTED_EDGE('',*,*,#449,.T.);
#198=ORIENTED_EDGE('',*,*,#450,.F.);
#199=ORIENTED_EDGE('',*,*,#451,.T.);
#200=ORIENTED_EDGE('',*,*,#452,.F.);
#201=ORIENTED_EDGE('',*,*,#453,.T.);
#202=ORIENTED_EDGE('',*,*,#454,.F.);
#203=ORIENTED_EDGE('',*,*,#455,.T.);
#204=ORIENTED_EDGE('',*,*,#456,.F.);
#205=ORIENTED_EDGE('',*,*,#457,.T.);
#206=ORIENTED_EDGE('',*,*,#458,.F.);
#207=ORIENTED_EDGE('',*,*,#459,.T.);
#208=ORIENTED_EDGE('',*,*,#460,.F.);
#209=ORIENTED_EDGE('',*,*,#461,.T.);
#210=ORIENTED_EDGE('',*,*,#462,.F.);
#211=ORIENTED_EDGE('',*,*,#463,.T.);
#212=ORIENTED_EDGE('',*,*,#464,.F.);
#213=ORIENTED_EDGE('',*,*,#465,.T.);
#214=ORIENTED_EDGE('',*,*,#466,.F.);
#215=ORIENTED_EDGE('',*,*,#467,.T.);
#216=ORIENTED_EDGE('',*,*,#468,.F.);
#217=ORIENTED_EDGE('',*,*,#469,.T.);
#218=ORIENTED_EDGE('',*,*,#470,.F.);
#219=ORIENTED_EDGE('',*,*,#471,.T.);
#220=ORIENTED_EDGE('',*,*,#472,.F.);
#221=ORIENTED_EDGE('',*,*,#473,.T.);
#222=ORIENTED_EDGE('',*,*,#474,.F.);
#223=ORIENTED_EDGE('',*,*,#475,.T.);
#224=ORIENTED_EDGE('',*,*,#476,.F.);
#225=ORIENTED_EDGE('',*,*,#477,.T.);
#226=ORIENTED_EDGE('',*,*,#478,.F.);
#227=ORIENTED_EDGE('',*,*,#479,.T.);
#228=ORIENTED_EDGE('',*,*,#480,.F.);
#229=ORIENTED_EDGE('',*,*,#481,.T.);
#230=ORIENTED_EDGE('',*,*,#482,.F.);
#231=ORIENTED_EDGE('',*,*,#483,.T.);
#232=ORIENTED_EDGE('',*,*,#484,.F.);
#233=ORIENTED_EDGE('',*,*,#485,.T.);
#234=ORIENTED_EDGE('',*,*,#486,.F.);
#235=ORIENTED_EDGE('',*,*,#487,.T.);
#236=ORIENTED_EDGE('',*,*,#488,.F.);
#237=ORIENTED_EDGE('',*,*,#489,.T.);
#238=ORIENTED_EDGE('',*,*,#490,.F.);
#239=ORIENTED_EDGE('',*,*,#491,.T.);
#240=ORIENTED_EDGE('',*,*,#492,.F.);
#241=ORIENTED_EDGE('',*,*,#493,.T.);
#242=ORIENTED_EDGE('',*,*,#494,.F.);
#243=ORIENTED_EDGE('',*,*,#495,.T.);
#244=ORIENTED_EDGE('',*,*,#496,.F.);
#245=ORIENTED_EDGE('',*,*,#497,.T.);
#246=ORIENTED_EDGE('',*,*,#498,.F.);
#247=ORIENTED_EDGE('',*,*,#499,.T.);
#248=ORIENTED_EDGE('',*,*,#500,.F.);
#249=ORIENTED_EDGE('',*,*,#501,.T.);
#250=ORIENTED_EDGE('',*,*,#502,.F.);
#251=ORIENTED_EDGE('',*,*,#503,.T.);
#252=ORIENTED_EDGE('',*,*,#504,.F.);
#253=ORIENTED_EDGE('',*,*,#505,.T.);
#254=ORIENTED_EDGE('',*,*,#506,.F.);
#255=ORIENTED_EDGE('',*,*,#507,.T.);
#256=ORIENTED_EDGE('',*,*,#508,.F.);
#257=ORIENTED_EDGE('',*,*,#507,.F.);
#258=ORIENTED_EDGE('',*,*,#505,.F.);
#259=ORIENTED_EDGE('',*,*,#503,.F.);
#260=ORIENTED_EDGE('',*,*,#501,.F.);
#261=ORIENTED_EDGE('',*,*,#499,.F.);
#262=ORIENTED_EDGE('',*,*,#497,.F.);
#263=ORIENTED_EDGE('',*,*,#495,.F.);
#264=ORIENTED_EDGE('',*,*,#493,.F.);
#265=ORIENTED_EDGE('',*,*,#491,.F.);
#266=ORIENTED_EDGE('',*,*,#489,.F.);
#267=ORIENTED_EDGE('',*,*,#487,.F.);
#268=ORIENTED_EDGE('',*,*,#485,.F.);
#269=ORIENTED_EDGE('',*,*,#483,.F.);
#270=ORIENTED_EDGE('',*,*,#481,.F.);
#271=ORIENTED_EDGE('',*,*,#479,.F.);
#272=ORIENTED_EDGE('',*,*,#477,.F.);
#273=ORIENTED_EDGE('',*,*,#475,.F.);
#274=ORIENTED_EDGE('',*,*,#473,.F.);
#275=ORIENTED_EDGE('',*,*,#471,.F.);
#276=ORIENTED_EDGE('',*,*,#469,.F.);
#277=ORIENTED_EDGE('',*,*,#467,.F.);
#278=ORIENTED_EDGE('',*,*,#465,.F.);
#279=ORIENTED_EDGE('',*,*,#463,.F.);
#280=ORIENTED_EDGE('',*,*,#461,.F.);
#281=ORIENTED_EDGE('',*,*,#459,.F.);
#282=ORIENTED_EDGE('',*,*,#457,.F.);
#283=ORIENTED_EDGE('',*,*,#455,.F.);
#284=ORIENTED_EDGE('',*,*,#453,.F.);
#285=ORIENTED_EDGE('',*,*,#451,.F.);
#286=ORIENTED_EDGE('',*,*,#449,.F.);
#287=ORIENTED_EDGE('',*,*,#447,.F.);
#288=ORIENTED_EDGE('',*,*,#445,.F.);
#289=ORIENTED_EDGE('',*,*,#443,.F.);
#290=ORIENTED_EDGE('',*,*,#441,.F.);
#291=ORIENTED_EDGE('',*,*,#439,.F.);
#292=ORIENTED_EDGE('',*,*,#437,.F.);
#293=ORIENTED_EDGE('',*,*,#435,.F.);
#294=ORIENTED_EDGE('',*,*,#433,.F.);
#295=ORIENTED_EDGE('',*,*,#431,.F.);
#296=ORIENTED_EDGE('',*,*,#429,.F.);
#297=ORIENTED_EDGE('',*,*,#427,.F.);
#298=ORIENTED_EDGE('',*,*,#425,.F.);
#299=ORIENTED_EDGE('',*,*,#423,.F.);
#300=ORIENTED_EDGE('',*,*,#421,.F.);
#301=ORIENTED_EDGE('',*,*,#419,.F.);
#302=ORIENTED_EDGE('',*,*,#412,.F.);
#303=ORIENTED_EDGE('',*,*,#509,.T.);
#304=ORIENTED_EDGE('',*,*,#417,.T.);
#305=ORIENTED_EDGE('',*,*,#510,.F.);
#306=ORIENTED_EDGE('',*,*,#511,.F.);
#307=ORIENTED_EDGE('',*,*,#512,.F.);
#308=ORIENTED_EDGE('',*,*,#513,.F.);
#309=ORIENTED_EDGE('',*,*,#514,.F.);
#310=ORIENTED_EDGE('',*,*,#515,.F.);
#311=ORIENTED_EDGE('',*,*,#516,.F.);
#312=ORIENTED_EDGE('',*,*,#517,.F.);
#313=ORIENTED_EDGE('',*,*,#518,.F.);
#314=ORIENTED_EDGE('',*,*,#508,.T.);
#315=ORIENTED_EDGE('',*,*,#506,.T.);
#316=ORIENTED_EDGE('',*,*,#504,.T.);
#317=ORIENTED_EDGE('',*,*,#502,.T.);
#318=ORIENTED_EDGE('',*,*,#500,.T.);
#319=ORIENTED_EDGE('',*,*,#498,.T.);
#320=ORIENTED_EDGE('',*,*,#496,.T.);
#321=ORIENTED_EDGE('',*,*,#494,.T.);
#322=ORIENTED_EDGE('',*,*,#492,.T.);
#323=ORIENTED_EDGE('',*,*,#490,.T.);
#324=ORIENTED_EDGE('',*,*,#488,.T.);
#325=ORIENTED_EDGE('',*,*,#486,.T.);
#326=ORIENTED_EDGE('',*,*,#484,.T.);
#327=ORIENTED_EDGE('',*,*,#482,.T.);
#328=ORIENTED_EDGE('',*,*,#480,.T.);
#329=ORIENTED_EDGE('',*,*,#478,.T.);
#330=ORIENTED_EDGE('',*,*,#476,.T.);
#331=ORIENTED_EDGE('',*,*,#474,.T.);
#332=ORIENTED_EDGE('',*,*,#472,.T.);
#333=ORIENTED_EDGE('',*,*,#470,.T.);
#334=ORIENTED_EDGE('',*,*,#468,.T.);
#335=ORIENTED_EDGE('',*,*,#466,.T.);
#336=ORIENTED_EDGE('',*,*,#464,.T.);
#337=ORIENTED_EDGE('',*,*,#462,.T.);
#338=ORIENTED_EDGE('',*,*,#460,.T.);
#339=ORIENTED_EDGE('',*,*,#458,.T.);
#340=ORIENTED_EDGE('',*,*,#456,.T.);
#341=ORIENTED_EDGE('',*,*,#454,.T.);
#342=ORIENTED_EDGE('',*,*,#452,.T.);
#343=ORIENTED_EDGE('',*,*,#450,.T.);
#344=ORIENTED_EDGE('',*,*,#448,.T.);
#345=ORIENTED_EDGE('',*,*,#446,.T.);
#346=ORIENTED_EDGE('',*,*,#444,.T.);
#347=ORIENTED_EDGE('',*,*,#442,.T.);
#348=ORIENTED_EDGE('',*,*,#440,.T.);
#349=ORIENTED_EDGE('',*,*,#438,.T.);
#350=ORIENTED_EDGE('',*,*,#436,.T.);
#351=ORIENTED_EDGE('',*,*,#434,.T.);
#352=ORIENTED_EDGE('',*,*,#432,.T.);
#353=ORIENTED_EDGE('',*,*,#430,.T.);
#354=ORIENTED_EDGE('',*,*,#428,.T.);
#355=ORIENTED_EDGE('',*,*,#426,.T.);
#356=ORIENTED_EDGE('',*,*,#424,.T.);
#357=ORIENTED_EDGE('',*,*,#422,.T.);
#358=ORIENTED_EDGE('',*,*,#420,.T.);
#359=ORIENTED_EDGE('',*,*,#519,.F.);
#360=ORIENTED_EDGE('',*,*,#414,.T.);
#361=ORIENTED_EDGE('',*,*,#520,.T.);
#362=ORIENTED_EDGE('',*,*,#521,.T.);
#363=ORIENTED_EDGE('',*,*,#522,.T.);
#364=ORIENTED_EDGE('',*,*,#523,.T.);
#365=ORIENTED_EDGE('',*,*,#524,.T.);
#366=ORIENTED_EDGE('',*,*,#525,.T.);
#367=ORIENTED_EDGE('',*,*,#526,.T.);
#368=ORIENTED_EDGE('',*,*,#527,.T.);
#369=ORIENTED_EDGE('',*,*,#528,.T.);
#370=ORIENTED_EDGE('',*,*,#415,.F.);
#371=ORIENTED_EDGE('',*,*,#411,.F.);
#372=ORIENTED_EDGE('',*,*,#519,.T.);
#373=ORIENTED_EDGE('',*,*,#418,.F.);
#374=ORIENTED_EDGE('',*,*,#509,.F.);
#375=ORIENTED_EDGE('',*,*,#516,.T.);
#376=ORIENTED_EDGE('',*,*,#529,.T.);
#377=ORIENTED_EDGE('',*,*,#522,.F.);
#378=ORIENTED_EDGE('',*,*,#530,.T.);
#379=ORIENTED_EDGE('',*,*,#514,.T.);
#380=ORIENTED_EDGE('',*,*,#531,.T.);
#381=ORIENTED_EDGE('',*,*,#524,.F.);
#382=ORIENTED_EDGE('',*,*,#532,.T.);
#383=ORIENTED_EDGE('',*,*,#512,.T.);
#384=ORIENTED_EDGE('',*,*,#533,.T.);
#385=ORIENTED_EDGE('',*,*,#526,.F.);
#386=ORIENTED_EDGE('',*,*,#534,.T.);
#387=ORIENTED_EDGE('',*,*,#518,.T.);
#388=ORIENTED_EDGE('',*,*,#535,.T.);
#389=ORIENTED_EDGE('',*,*,#520,.F.);
#390=ORIENTED_EDGE('',*,*,#413,.T.);
#391=ORIENTED_EDGE('',*,*,#528,.F.);
#392=ORIENTED_EDGE('',*,*,#536,.T.);
#393=ORIENTED_EDGE('',*,*,#510,.T.);
#394=ORIENTED_EDGE('',*,*,#416,.T.);
#395=ORIENTED_EDGE('',*,*,#533,.F.);
#396=ORIENTED_EDGE('',*,*,#511,.T.);
#397=ORIENTED_EDGE('',*,*,#536,.F.);
#398=ORIENTED_EDGE('',*,*,#527,.F.);
#399=ORIENTED_EDGE('',*,*,#531,.F.);
#400=ORIENTED_EDGE('',*,*,#513,.T.);
#401=ORIENTED_EDGE('',*,*,#534,.F.);
#402=ORIENTED_EDGE('',*,*,#525,.F.);
#403=ORIENTED_EDGE('',*,*,#529,.F.);
#404=ORIENTED_EDGE('',*,*,#515,.T.);
#405=ORIENTED_EDGE('',*,*,#532,.F.);
#406=ORIENTED_EDGE('',*,*,#523,.F.);
#407=ORIENTED_EDGE('',*,*,#535,.F.);
#408=ORIENTED_EDGE('',*,*,#517,.T.);
#409=ORIENTED_EDGE('',*,*,#530,.F.);
#410=ORIENTED_EDGE('',*,*,#521,.F.);
#411=EDGE_CURVE('',#537,#538,#651,.T.);
#412=EDGE_CURVE('',#538,#539,#652,.T.);
#413=EDGE_CURVE('',#540,#539,#653,.F.);
#414=EDGE_CURVE('',#537,#540,#654,.T.);
#415=EDGE_CURVE('',#541,#542,#655,.T.);
#416=EDGE_CURVE('',#543,#542,#656,.T.);
#417=EDGE_CURVE('',#544,#543,#657,.T.);
#418=EDGE_CURVE('',#544,#541,#658,.T.);
#419=EDGE_CURVE('',#545,#545,#12,.F.);
#420=EDGE_CURVE('',#546,#546,#13,.F.);
#421=EDGE_CURVE('',#547,#547,#14,.F.);
#422=EDGE_CURVE('',#548,#548,#15,.F.);
#423=EDGE_CURVE('',#549,#549,#16,.F.);
#424=EDGE_CURVE('',#550,#550,#17,.F.);
#425=EDGE_CURVE('',#551,#551,#18,.F.);
#426=EDGE_CURVE('',#552,#552,#19,.F.);
#427=EDGE_CURVE('',#553,#553,#20,.F.);
#428=EDGE_CURVE('',#554,#554,#21,.F.);
#429=EDGE_CURVE('',#555,#555,#22,.F.);
#430=EDGE_CURVE('',#556,#556,#23,.F.);
#431=EDGE_CURVE('',#557,#557,#24,.F.);
#432=EDGE_CURVE('',#558,#558,#25,.F.);
#433=EDGE_CURVE('',#559,#559,#26,.F.);
#434=EDGE_CURVE('',#560,#560,#27,.F.);
#435=EDGE_CURVE('',#561,#561,#28,.F.);
#436=EDGE_CURVE('',#562,#562,#29,.F.);
#437=EDGE_CURVE('',#563,#563,#30,.F.);
#438=EDGE_CURVE('',#564,#564,#31,.F.);
#439=EDGE_CURVE('',#565,#565,#32,.F.);
#440=EDGE_CURVE('',#566,#566,#33,.F.);
#441=EDGE_CURVE('',#567,#567,#34,.F.);
#442=EDGE_CURVE('',#568,#568,#35,.F.);
#443=EDGE_CURVE('',#569,#569,#36,.F.);
#444=EDGE_CURVE('',#570,#570,#37,.F.);
#445=EDGE_CURVE('',#571,#571,#38,.F.);
#446=EDGE_CURVE('',#572,#572,#39,.F.);
#447=EDGE_CURVE('',#573,#573,#40,.F.);
#448=EDGE_CURVE('',#574,#574,#41,.F.);
#449=EDGE_CURVE('',#575,#575,#42,.F.);
#450=EDGE_CURVE('',#576,#576,#43,.F.);
#451=EDGE_CURVE('',#577,#577,#44,.F.);
#452=EDGE_CURVE('',#578,#578,#45,.F.);
#453=EDGE_CURVE('',#579,#579,#46,.F.);
#454=EDGE_CURVE('',#580,#580,#47,.F.);
#455=EDGE_CURVE('',#581,#581,#48,.F.);
#456=EDGE_CURVE('',#582,#582,#49,.F.);
#457=EDGE_CURVE('',#583,#583,#50,.F.);
#458=EDGE_CURVE('',#584,#584,#51,.F.);
#459=EDGE_CURVE('',#585,#585,#52,.F.);
#460=EDGE_CURVE('',#586,#586,#53,.F.);
#461=EDGE_CURVE('',#587,#587,#54,.F.);
#462=EDGE_CURVE('',#588,#588,#55,.F.);
#463=EDGE_CURVE('',#589,#589,#56,.F.);
#464=EDGE_CURVE('',#590,#590,#57,.F.);
#465=EDGE_CURVE('',#591,#591,#58,.F.);
#466=EDGE_CURVE('',#592,#592,#59,.F.);
#467=EDGE_CURVE('',#593,#593,#60,.F.);
#468=EDGE_CURVE('',#594,#594,#61,.F.);
#469=EDGE_CURVE('',#595,#595,#62,.F.);
#470=EDGE_CURVE('',#596,#596,#63,.F.);
#471=EDGE_CURVE('',#597,#597,#64,.F.);
#472=EDGE_CURVE('',#598,#598,#65,.F.);
#473=EDGE_CURVE('',#599,#599,#66,.F.);
#474=EDGE_CURVE('',#600,#600,#67,.F.);
#475=EDGE_CURVE('',#601,#601,#68,.F.);
#476=EDGE_CURVE('',#602,#602,#69,.F.);
#477=EDGE_CURVE('',#603,#603,#70,.F.);
#478=EDGE_CURVE('',#604,#604,#71,.F.);
#479=EDGE_CURVE('',#605,#605,#72,.F.);
#480=EDGE_CURVE('',#606,#606,#73,.F.);
#481=EDGE_CURVE('',#607,#607,#74,.F.);
#482=EDGE_CURVE('',#608,#608,#75,.F.);
#483=EDGE_CURVE('',#609,#609,#76,.F.);
#484=EDGE_CURVE('',#610,#610,#77,.F.);
#485=EDGE_CURVE('',#611,#611,#78,.F.);
#486=EDGE_CURVE('',#612,#612,#79,.F.);
#487=EDGE_CURVE('',#613,#613,#80,.F.);
#488=EDGE_CURVE('',#614,#614,#81,.F.);
#489=EDGE_CURVE('',#615,#615,#82,.F.);
#490=EDGE_CURVE('',#616,#616,#83,.F.);
#491=EDGE_CURVE('',#617,#617,#84,.F.);
#492=EDGE_CURVE('',#618,#618,#85,.F.);
#493=EDGE_CURVE('',#619,#619,#86,.F.);
#494=EDGE_CURVE('',#620,#620,#87,.F.);
#495=EDGE_CURVE('',#621,#621,#88,.F.);
#496=EDGE_CURVE('',#622,#622,#89,.F.);
#497=EDGE_CURVE('',#623,#623,#90,.F.);
#498=EDGE_CURVE('',#624,#624,#91,.F.);
#499=EDGE_CURVE('',#625,#625,#92,.F.);
#500=EDGE_CURVE('',#626,#626,#93,.F.);
#501=EDGE_CURVE('',#627,#627,#94,.F.);
#502=EDGE_CURVE('',#628,#628,#95,.F.);
#503=EDGE_CURVE('',#629,#629,#96,.F.);
#504=EDGE_CURVE('',#630,#630,#97,.F.);
#505=EDGE_CURVE('',#631,#631,#98,.F.);
#506=EDGE_CURVE('',#632,#632,#99,.F.);
#507=EDGE_CURVE('',#633,#633,#100,.F.);
#508=EDGE_CURVE('',#634,#634,#101,.F.);
#509=EDGE_CURVE('',#538,#544,#659,.T.);
#510=EDGE_CURVE('',#635,#543,#660,.T.);
#511=EDGE_CURVE('',#636,#635,#661,.T.);
#512=EDGE_CURVE('',#637,#636,#102,.F.);
#513=EDGE_CURVE('',#638,#637,#662,.T.);
#514=EDGE_CURVE('',#639,#638,#103,.F.);
#515=EDGE_CURVE('',#640,#639,#663,.T.);
#516=EDGE_CURVE('',#641,#640,#104,.F.);
#517=EDGE_CURVE('',#642,#641,#664,.T.);
#518=EDGE_CURVE('',#539,#642,#105,.F.);
#519=EDGE_CURVE('',#537,#541,#665,.T.);
#520=EDGE_CURVE('',#540,#643,#106,.F.);
#521=EDGE_CURVE('',#643,#644,#666,.T.);
#522=EDGE_CURVE('',#644,#645,#107,.F.);
#523=EDGE_CURVE('',#645,#646,#667,.T.);
#524=EDGE_CURVE('',#646,#647,#108,.F.);
#525=EDGE_CURVE('',#647,#648,#668,.T.);
#526=EDGE_CURVE('',#648,#649,#109,.F.);
#527=EDGE_CURVE('',#649,#650,#669,.T.);
#528=EDGE_CURVE('',#650,#542,#670,.T.);
#529=EDGE_CURVE('',#640,#645,#671,.T.);
#530=EDGE_CURVE('',#644,#641,#672,.F.);
#531=EDGE_CURVE('',#638,#647,#673,.T.);
#532=EDGE_CURVE('',#646,#639,#674,.F.);
#533=EDGE_CURVE('',#636,#649,#675,.T.);
#534=EDGE_CURVE('',#648,#637,#676,.F.);
#535=EDGE_CURVE('',#642,#643,#677,.T.);
#536=EDGE_CURVE('',#650,#635,#678,.T.);
#537=VERTEX_POINT('',#1681);
#538=VERTEX_POINT('',#1682);
#539=VERTEX_POINT('',#1684);
#540=VERTEX_POINT('',#1686);
#541=VERTEX_POINT('',#1690);
#542=VERTEX_POINT('',#1691);
#543=VERTEX_POINT('',#1693);
#544=VERTEX_POINT('',#1695);
#545=VERTEX_POINT('',#1699);
#546=VERTEX_POINT('',#1701);
#547=VERTEX_POINT('',#1704);
#548=VERTEX_POINT('',#1706);
#549=VERTEX_POINT('',#1709);
#550=VERTEX_POINT('',#1711);
#551=VERTEX_POINT('',#1714);
#552=VERTEX_POINT('',#1716);
#553=VERTEX_POINT('',#1719);
#554=VERTEX_POINT('',#1721);
#555=VERTEX_POINT('',#1724);
#556=VERTEX_POINT('',#1726);
#557=VERTEX_POINT('',#1729);
#558=VERTEX_POINT('',#1731);
#559=VERTEX_POINT('',#1734);
#560=VERTEX_POINT('',#1736);
#561=VERTEX_POINT('',#1739);
#562=VERTEX_POINT('',#1741);
#563=VERTEX_POINT('',#1744);
#564=VERTEX_POINT('',#1746);
#565=VERTEX_POINT('',#1749);
#566=VERTEX_POINT('',#1751);
#567=VERTEX_POINT('',#1754);
#568=VERTEX_POINT('',#1756);
#569=VERTEX_POINT('',#1759);
#570=VERTEX_POINT('',#1761);
#571=VERTEX_POINT('',#1764);
#572=VERTEX_POINT('',#1766);
#573=VERTEX_POINT('',#1769);
#574=VERTEX_POINT('',#1771);
#575=VERTEX_POINT('',#1774);
#576=VERTEX_POINT('',#1776);
#577=VERTEX_POINT('',#1779);
#578=VERTEX_POINT('',#1781);
#579=VERTEX_POINT('',#1784);
#580=VERTEX_POINT('',#1786);
#581=VERTEX_POINT('',#1789);
#582=VERTEX_POINT('',#1791);
#583=VERTEX_POINT('',#1794);
#584=VERTEX_POINT('',#1796);
#585=VERTEX_POINT('',#1799);
#586=VERTEX_POINT('',#1801);
#587=VERTEX_POINT('',#1804);
#588=VERTEX_POINT('',#1806);
#589=VERTEX_POINT('',#1809);
#590=VERTEX_POINT('',#1811);
#591=VERTEX_POINT('',#1814);
#592=VERTEX_POINT('',#1816);
#593=VERTEX_POINT('',#1819);
#594=VERTEX_POINT('',#1821);
#595=VERTEX_POINT('',#1824);
#596=VERTEX_POINT('',#1826);
#597=VERTEX_POINT('',#1829);
#598=VERTEX_POINT('',#1831);
#599=VERTEX_POINT('',#1834);
#600=VERTEX_POINT('',#1836);
#601=VERTEX_POINT('',#1839);
#602=VERTEX_POINT('',#1841);
#603=VERTEX_POINT('',#1844);
#604=VERTEX_POINT('',#1846);
#605=VERTEX_POINT('',#1849);
#606=VERTEX_POINT('',#1851);
#607=VERTEX_POINT('',#1854);
#608=VERTEX_POINT('',#1856);
#609=VERTEX_POINT('',#1859);
#610=VERTEX_POINT('',#1861);
#611=VERTEX_POINT('',#1864);
#612=VERTEX_POINT('',#1866);
#613=VERTEX_POINT('',#1869);
#614=VERTEX_POINT('',#1871);
#615=VERTEX_POINT('',#1874);
#616=VERTEX_POINT('',#1876);
#617=VERTEX_POINT('',#1879);
#618=VERTEX_POINT('',#1881);
#619=VERTEX_POINT('',#1884);
#620=VERTEX_POINT('',#1886);
#621=VERTEX_POINT('',#1889);
#622=VERTEX_POINT('',#1891);
#623=VERTEX_POINT('',#1894);
#624=VERTEX_POINT('',#1896);
#625=VERTEX_POINT('',#1899);
#626=VERTEX_POINT('',#1901);
#627=VERTEX_POINT('',#1904);
#628=VERTEX_POINT('',#1906);
#629=VERTEX_POINT('',#1909);
#630=VERTEX_POINT('',#1911);
#631=VERTEX_POINT('',#1914);
#632=VERTEX_POINT('',#1916);
#633=VERTEX_POINT('',#1919);
#634=VERTEX_POINT('',#1921);
#635=VERTEX_POINT('',#1925);
#636=VERTEX_POINT('',#1927);
#637=VERTEX_POINT('',#1929);
#638=VERTEX_POINT('',#1931);
#639=VERTEX_POINT('',#1933);
#640=VERTEX_POINT('',#1935);
#641=VERTEX_POINT('',#1937);
#642=VERTEX_POINT('',#1939);
#643=VERTEX_POINT('',#1944);
#644=VERTEX_POINT('',#1946);
#645=VERTEX_POINT('',#1948);
#646=VERTEX_POINT('',#1950);
#647=VERTEX_POINT('',#1952);
#648=VERTEX_POINT('',#1954);
#649=VERTEX_POINT('',#1956);
#650=VERTEX_POINT('',#1958);
#651=LINE('',#1680,#679);
#652=LINE('',#1683,#680);
#653=LINE('',#1685,#681);
#654=LINE('',#1687,#682);
#655=LINE('',#1689,#683);
#656=LINE('',#1692,#684);
#657=LINE('',#1694,#685);
#658=LINE('',#1696,#686);
#659=LINE('',#1923,#687);
#660=LINE('',#1924,#688);
#661=LINE('',#1926,#689);
#662=LINE('',#1930,#690);
#663=LINE('',#1934,#691);
#664=LINE('',#1938,#692);
#665=LINE('',#1942,#693);
#666=LINE('',#1945,#694);
#667=LINE('',#1949,#695);
#668=LINE('',#1953,#696);
#669=LINE('',#1957,#697);
#670=LINE('',#1959,#698);
#671=LINE('',#1962,#699);
#672=LINE('',#1963,#700);
#673=LINE('',#1965,#701);
#674=LINE('',#1966,#702);
#675=LINE('',#1968,#703);
#676=LINE('',#1969,#704);
#677=LINE('',#1971,#705);
#678=LINE('',#1973,#706);
#679=VECTOR('',#1338,1.);
#680=VECTOR('',#1339,1.);
#681=VECTOR('',#1340,1.);
#682=VECTOR('',#1341,1.);
#683=VECTOR('',#1344,1.);
#684=VECTOR('',#1345,1.);
#685=VECTOR('',#1346,1.);
#686=VECTOR('',#1347,1.);
#687=VECTOR('',#1620,1.);
#688=VECTOR('',#1621,1.);
#689=VECTOR('',#1622,1.);
#690=VECTOR('',#1625,1.);
#691=VECTOR('',#1628,1.);
#692=VECTOR('',#1631,1.);
#693=VECTOR('',#1636,1.);
#694=VECTOR('',#1639,1.);
#695=VECTOR('',#1642,1.);
#696=VECTOR('',#1645,1.);
#697=VECTOR('',#1648,1.);
#698=VECTOR('',#1649,1.);
#699=VECTOR('',#1654,1.);
#700=VECTOR('',#1655,1.);
#701=VECTOR('',#1658,1.);
#702=VECTOR('',#1659,1.);
#703=VECTOR('',#1662,1.);
#704=VECTOR('',#1663,1.);
#705=VECTOR('',#1666,1.);
#706=VECTOR('',#1669,1.);
#707=EDGE_LOOP('',(#159,#160,#161,#162));
#708=EDGE_LOOP('',(#163,#164,#165,#166));
#709=EDGE_LOOP('',(#167));
#710=EDGE_LOOP('',(#168));
#711=EDGE_LOOP('',(#169));
#712=EDGE_LOOP('',(#170));
#713=EDGE_LOOP('',(#171));
#714=EDGE_LOOP('',(#172));
#715=EDGE_LOOP('',(#173));
#716=EDGE_LOOP('',(#174));
#717=EDGE_LOOP('',(#175));
#718=EDGE_LOOP('',(#176));
#719=EDGE_LOOP('',(#177));
#720=EDGE_LOOP('',(#178));
#721=EDGE_LOOP('',(#179));
#722=EDGE_LOOP('',(#180));
#723=EDGE_LOOP('',(#181));
#724=EDGE_LOOP('',(#182));
#725=EDGE_LOOP('',(#183));
#726=EDGE_LOOP('',(#184));
#727=EDGE_LOOP('',(#185));
#728=EDGE_LOOP('',(#186));
#729=EDGE_LOOP('',(#187));
#730=EDGE_LOOP('',(#188));
#731=EDGE_LOOP('',(#189));
#732=EDGE_LOOP('',(#190));
#733=EDGE_LOOP('',(#191));
#734=EDGE_LOOP('',(#192));
#735=EDGE_LOOP('',(#193));
#736=EDGE_LOOP('',(#194));
#737=EDGE_LOOP('',(#195));
#738=EDGE_LOOP('',(#196));
#739=EDGE_LOOP('',(#197));
#740=EDGE_LOOP('',(#198));
#741=EDGE_LOOP('',(#199));
#742=EDGE_LOOP('',(#200));
#743=EDGE_LOOP('',(#201));
#744=EDGE_LOOP('',(#202));
#745=EDGE_LOOP('',(#203));
#746=EDGE_LOOP('',(#204));
#747=EDGE_LOOP('',(#205));
#748=EDGE_LOOP('',(#206));
#749=EDGE_LOOP('',(#207));
#750=EDGE_LOOP('',(#208));
#751=EDGE_LOOP('',(#209));
#752=EDGE_LOOP('',(#210));
#753=EDGE_LOOP('',(#211));
#754=EDGE_LOOP('',(#212));
#755=EDGE_LOOP('',(#213));
#756=EDGE_LOOP('',(#214));
#757=EDGE_LOOP('',(#215));
#758=EDGE_LOOP('',(#216));
#759=EDGE_LOOP('',(#217));
#760=EDGE_LOOP('',(#218));
#761=EDGE_LOOP('',(#219));
#762=EDGE_LOOP('',(#220));
#763=EDGE_LOOP('',(#221));
#764=EDGE_LOOP('',(#222));
#765=EDGE_LOOP('',(#223));
#766=EDGE_LOOP('',(#224));
#767=EDGE_LOOP('',(#225));
#768=EDGE_LOOP('',(#226));
#769=EDGE_LOOP('',(#227));
#770=EDGE_LOOP('',(#228));
#771=EDGE_LOOP('',(#229));
#772=EDGE_LOOP('',(#230));
#773=EDGE_LOOP('',(#231));
#774=EDGE_LOOP('',(#232));
#775=EDGE_LOOP('',(#233));
#776=EDGE_LOOP('',(#234));
#777=EDGE_LOOP('',(#235));
#778=EDGE_LOOP('',(#236));
#779=EDGE_LOOP('',(#237));
#780=EDGE_LOOP('',(#238));
#781=EDGE_LOOP('',(#239));
#782=EDGE_LOOP('',(#240));
#783=EDGE_LOOP('',(#241));
#784=EDGE_LOOP('',(#242));
#785=EDGE_LOOP('',(#243));
#786=EDGE_LOOP('',(#244));
#787=EDGE_LOOP('',(#245));
#788=EDGE_LOOP('',(#246));
#789=EDGE_LOOP('',(#247));
#790=EDGE_LOOP('',(#248));
#791=EDGE_LOOP('',(#249));
#792=EDGE_LOOP('',(#250));
#793=EDGE_LOOP('',(#251));
#794=EDGE_LOOP('',(#252));
#795=EDGE_LOOP('',(#253));
#796=EDGE_LOOP('',(#254));
#797=EDGE_LOOP('',(#255));
#798=EDGE_LOOP('',(#256));
#799=EDGE_LOOP('',(#257));
#800=EDGE_LOOP('',(#258));
#801=EDGE_LOOP('',(#259));
#802=EDGE_LOOP('',(#260));
#803=EDGE_LOOP('',(#261));
#804=EDGE_LOOP('',(#262));
#805=EDGE_LOOP('',(#263));
#806=EDGE_LOOP('',(#264));
#807=EDGE_LOOP('',(#265));
#808=EDGE_LOOP('',(#266));
#809=EDGE_LOOP('',(#267));
#810=EDGE_LOOP('',(#268));
#811=EDGE_LOOP('',(#269));
#812=EDGE_LOOP('',(#270));
#813=EDGE_LOOP('',(#271));
#814=EDGE_LOOP('',(#272));
#815=EDGE_LOOP('',(#273));
#816=EDGE_LOOP('',(#274));
#817=EDGE_LOOP('',(#275));
#818=EDGE_LOOP('',(#276));
#819=EDGE_LOOP('',(#277));
#820=EDGE_LOOP('',(#278));
#821=EDGE_LOOP('',(#279));
#822=EDGE_LOOP('',(#280));
#823=EDGE_LOOP('',(#281));
#824=EDGE_LOOP('',(#282));
#825=EDGE_LOOP('',(#283));
#826=EDGE_LOOP('',(#284));
#827=EDGE_LOOP('',(#285));
#828=EDGE_LOOP('',(#286));
#829=EDGE_LOOP('',(#287));
#830=EDGE_LOOP('',(#288));
#831=EDGE_LOOP('',(#289));
#832=EDGE_LOOP('',(#290));
#833=EDGE_LOOP('',(#291));
#834=EDGE_LOOP('',(#292));
#835=EDGE_LOOP('',(#293));
#836=EDGE_LOOP('',(#294));
#837=EDGE_LOOP('',(#295));
#838=EDGE_LOOP('',(#296));
#839=EDGE_LOOP('',(#297));
#840=EDGE_LOOP('',(#298));
#841=EDGE_LOOP('',(#299));
#842=EDGE_LOOP('',(#300));
#843=EDGE_LOOP('',(#301));
#844=EDGE_LOOP('',(#302,#303,#304,#305,#306,#307,#308,#309,#310,#311,#312,
#313));
#845=EDGE_LOOP('',(#314));
#846=EDGE_LOOP('',(#315));
#847=EDGE_LOOP('',(#316));
#848=EDGE_LOOP('',(#317));
#849=EDGE_LOOP('',(#318));
#850=EDGE_LOOP('',(#319));
#851=EDGE_LOOP('',(#320));
#852=EDGE_LOOP('',(#321));
#853=EDGE_LOOP('',(#322));
#854=EDGE_LOOP('',(#323));
#855=EDGE_LOOP('',(#324));
#856=EDGE_LOOP('',(#325));
#857=EDGE_LOOP('',(#326));
#858=EDGE_LOOP('',(#327));
#859=EDGE_LOOP('',(#328));
#860=EDGE_LOOP('',(#329));
#861=EDGE_LOOP('',(#330));
#862=EDGE_LOOP('',(#331));
#863=EDGE_LOOP('',(#332));
#864=EDGE_LOOP('',(#333));
#865=EDGE_LOOP('',(#334));
#866=EDGE_LOOP('',(#335));
#867=EDGE_LOOP('',(#336));
#868=EDGE_LOOP('',(#337));
#869=EDGE_LOOP('',(#338));
#870=EDGE_LOOP('',(#339));
#871=EDGE_LOOP('',(#340));
#872=EDGE_LOOP('',(#341));
#873=EDGE_LOOP('',(#342));
#874=EDGE_LOOP('',(#343));
#875=EDGE_LOOP('',(#344));
#876=EDGE_LOOP('',(#345));
#877=EDGE_LOOP('',(#346));
#878=EDGE_LOOP('',(#347));
#879=EDGE_LOOP('',(#348));
#880=EDGE_LOOP('',(#349));
#881=EDGE_LOOP('',(#350));
#882=EDGE_LOOP('',(#351));
#883=EDGE_LOOP('',(#352));
#884=EDGE_LOOP('',(#353));
#885=EDGE_LOOP('',(#354));
#886=EDGE_LOOP('',(#355));
#887=EDGE_LOOP('',(#356));
#888=EDGE_LOOP('',(#357));
#889=EDGE_LOOP('',(#358));
#890=EDGE_LOOP('',(#359,#360,#361,#362,#363,#364,#365,#366,#367,#368,#369,
#370));
#891=EDGE_LOOP('',(#371,#372,#373,#374));
#892=EDGE_LOOP('',(#375,#376,#377,#378));
#893=EDGE_LOOP('',(#379,#380,#381,#382));
#894=EDGE_LOOP('',(#383,#384,#385,#386));
#895=EDGE_LOOP('',(#387,#388,#389,#390));
#896=EDGE_LOOP('',(#391,#392,#393,#394));
#897=EDGE_LOOP('',(#395,#396,#397,#398));
#898=EDGE_LOOP('',(#399,#400,#401,#402));
#899=EDGE_LOOP('',(#403,#404,#405,#406));
#900=EDGE_LOOP('',(#407,#408,#409,#410));
#901=FACE_BOUND('',#707,.T.);
#902=FACE_BOUND('',#708,.T.);
#903=FACE_BOUND('',#709,.T.);
#904=FACE_BOUND('',#710,.T.);
#905=FACE_BOUND('',#711,.T.);
#906=FACE_BOUND('',#712,.T.);
#907=FACE_BOUND('',#713,.T.);
#908=FACE_BOUND('',#714,.T.);
#909=FACE_BOUND('',#715,.T.);
#910=FACE_BOUND('',#716,.T.);
#911=FACE_BOUND('',#717,.T.);
#912=FACE_BOUND('',#718,.T.);
#913=FACE_BOUND('',#719,.T.);
#914=FACE_BOUND('',#720,.T.);
#915=FACE_BOUND('',#721,.T.);
#916=FACE_BOUND('',#722,.T.);
#917=FACE_BOUND('',#723,.T.);
#918=FACE_BOUND('',#724,.T.);
#919=FACE_BOUND('',#725,.T.);
#920=FACE_BOUND('',#726,.T.);
#921=FACE_BOUND('',#727,.T.);
#922=FACE_BOUND('',#728,.T.);
#923=FACE_BOUND('',#729,.T.);
#924=FACE_BOUND('',#730,.T.);
#925=FACE_BOUND('',#731,.T.);
#926=FACE_BOUND('',#732,.T.);
#927=FACE_BOUND('',#733,.T.);
#928=FACE_BOUND('',#734,.T.);
#929=FACE_BOUND('',#735,.T.);
#930=FACE_BOUND('',#736,.T.);
#931=FACE_BOUND('',#737,.T.);
#932=FACE_BOUND('',#738,.T.);
#933=FACE_BOUND('',#739,.T.);
#934=FACE_BOUND('',#740,.T.);
#935=FACE_BOUND('',#741,.T.);
#936=FACE_BOUND('',#742,.T.);
#937=FACE_BOUND('',#743,.T.);
#938=FACE_BOUND('',#744,.T.);
#939=FACE_BOUND('',#745,.T.);
#940=FACE_BOUND('',#746,.T.);
#941=FACE_BOUND('',#747,.T.);
#942=FACE_BOUND('',#748,.T.);
#943=FACE_BOUND('',#749,.T.);
#944=FACE_BOUND('',#750,.T.);
#945=FACE_BOUND('',#751,.T.);
#946=FACE_BOUND('',#752,.T.);
#947=FACE_BOUND('',#753,.T.);
#948=FACE_BOUND('',#754,.T.);
#949=FACE_BOUND('',#755,.T.);
#950=FACE_BOUND('',#756,.T.);
#951=FACE_BOUND('',#757,.T.);
#952=FACE_BOUND('',#758,.T.);
#953=FACE_BOUND('',#759,.T.);
#954=FACE_BOUND('',#760,.T.);
#955=FACE_BOUND('',#761,.T.);
#956=FACE_BOUND('',#762,.T.);
#957=FACE_BOUND('',#763,.T.);
#958=FACE_BOUND('',#764,.T.);
#959=FACE_BOUND('',#765,.T.);
#960=FACE_BOUND('',#766,.T.);
#961=FACE_BOUND('',#767,.T.);
#962=FACE_BOUND('',#768,.T.);
#963=FACE_BOUND('',#769,.T.);
#964=FACE_BOUND('',#770,.T.);
#965=FACE_BOUND('',#771,.T.);
#966=FACE_BOUND('',#772,.T.);
#967=FACE_BOUND('',#773,.T.);
#968=FACE_BOUND('',#774,.T.);
#969=FACE_BOUND('',#775,.T.);
#970=FACE_BOUND('',#776,.T.);
#971=FACE_BOUND('',#777,.T.);
#972=FACE_BOUND('',#778,.T.);
#973=FACE_BOUND('',#779,.T.);
#974=FACE_BOUND('',#780,.T.);
#975=FACE_BOUND('',#781,.T.);
#976=FACE_BOUND('',#782,.T.);
#977=FACE_BOUND('',#783,.T.);
#978=FACE_BOUND('',#784,.T.);
#979=FACE_BOUND('',#785,.T.);
#980=FACE_BOUND('',#786,.T.);
#981=FACE_BOUND('',#787,.T.);
#982=FACE_BOUND('',#788,.T.);
#983=FACE_BOUND('',#789,.T.);
#984=FACE_BOUND('',#790,.T.);
#985=FACE_BOUND('',#791,.T.);
#986=FACE_BOUND('',#792,.T.);
#987=FACE_BOUND('',#793,.T.);
#988=FACE_BOUND('',#794,.T.);
#989=FACE_BOUND('',#795,.T.);
#990=FACE_BOUND('',#796,.T.);
#991=FACE_BOUND('',#797,.T.);
#992=FACE_BOUND('',#798,.T.);
#993=FACE_BOUND('',#799,.T.);
#994=FACE_BOUND('',#800,.T.);
#995=FACE_BOUND('',#801,.T.);
#996=FACE_BOUND('',#802,.T.);
#997=FACE_BOUND('',#803,.T.);
#998=FACE_BOUND('',#804,.T.);
#999=FACE_BOUND('',#805,.T.);
#1000=FACE_BOUND('',#806,.T.);
#1001=FACE_BOUND('',#807,.T.);
#1002=FACE_BOUND('',#808,.T.);
#1003=FACE_BOUND('',#809,.T.);
#1004=FACE_BOUND('',#810,.T.);
#1005=FACE_BOUND('',#811,.T.);
#1006=FACE_BOUND('',#812,.T.);
#1007=FACE_BOUND('',#813,.T.);
#1008=FACE_BOUND('',#814,.T.);
#1009=FACE_BOUND('',#815,.T.);
#1010=FACE_BOUND('',#816,.T.);
#1011=FACE_BOUND('',#817,.T.);
#1012=FACE_BOUND('',#818,.T.);
#1013=FACE_BOUND('',#819,.T.);
#1014=FACE_BOUND('',#820,.T.);
#1015=FACE_BOUND('',#821,.T.);
#1016=FACE_BOUND('',#822,.T.);
#1017=FACE_BOUND('',#823,.T.);
#1018=FACE_BOUND('',#824,.T.);
#1019=FACE_BOUND('',#825,.T.);
#1020=FACE_BOUND('',#826,.T.);
#1021=FACE_BOUND('',#827,.T.);
#1022=FACE_BOUND('',#828,.T.);
#1023=FACE_BOUND('',#829,.T.);
#1024=FACE_BOUND('',#830,.T.);
#1025=FACE_BOUND('',#831,.T.);
#1026=FACE_BOUND('',#832,.T.);
#1027=FACE_BOUND('',#833,.T.);
#1028=FACE_BOUND('',#834,.T.);
#1029=FACE_BOUND('',#835,.T.);
#1030=FACE_BOUND('',#836,.T.);
#1031=FACE_BOUND('',#837,.T.);
#1032=FACE_BOUND('',#838,.T.);
#1033=FACE_BOUND('',#839,.T.);
#1034=FACE_BOUND('',#840,.T.);
#1035=FACE_BOUND('',#841,.T.);
#1036=FACE_BOUND('',#842,.T.);
#1037=FACE_BOUND('',#843,.T.);
#1038=FACE_BOUND('',#844,.T.);
#1039=FACE_BOUND('',#845,.T.);
#1040=FACE_BOUND('',#846,.T.);
#1041=FACE_BOUND('',#847,.T.);
#1042=FACE_BOUND('',#848,.T.);
#1043=FACE_BOUND('',#849,.T.);
#1044=FACE_BOUND('',#850,.T.);
#1045=FACE_BOUND('',#851,.T.);
#1046=FACE_BOUND('',#852,.T.);
#1047=FACE_BOUND('',#853,.T.);
#1048=FACE_BOUND('',#854,.T.);
#1049=FACE_BOUND('',#855,.T.);
#1050=FACE_BOUND('',#856,.T.);
#1051=FACE_BOUND('',#857,.T.);
#1052=FACE_BOUND('',#858,.T.);
#1053=FACE_BOUND('',#859,.T.);
#1054=FACE_BOUND('',#860,.T.);
#1055=FACE_BOUND('',#861,.T.);
#1056=FACE_BOUND('',#862,.T.);
#1057=FACE_BOUND('',#863,.T.);
#1058=FACE_BOUND('',#864,.T.);
#1059=FACE_BOUND('',#865,.T.);
#1060=FACE_BOUND('',#866,.T.);
#1061=FACE_BOUND('',#867,.T.);
#1062=FACE_BOUND('',#868,.T.);
#1063=FACE_BOUND('',#869,.T.);
#1064=FACE_BOUND('',#870,.T.);
#1065=FACE_BOUND('',#871,.T.);
#1066=FACE_BOUND('',#872,.T.);
#1067=FACE_BOUND('',#873,.T.);
#1068=FACE_BOUND('',#874,.T.);
#1069=FACE_BOUND('',#875,.T.);
#1070=FACE_BOUND('',#876,.T.);
#1071=FACE_BOUND('',#877,.T.);
#1072=FACE_BOUND('',#878,.T.);
#1073=FACE_BOUND('',#879,.T.);
#1074=FACE_BOUND('',#880,.T.);
#1075=FACE_BOUND('',#881,.T.);
#1076=FACE_BOUND('',#882,.T.);
#1077=FACE_BOUND('',#883,.T.);
#1078=FACE_BOUND('',#884,.T.);
#1079=FACE_BOUND('',#885,.T.);
#1080=FACE_BOUND('',#886,.T.);
#1081=FACE_BOUND('',#887,.T.);
#1082=FACE_BOUND('',#888,.T.);
#1083=FACE_BOUND('',#889,.T.);
#1084=FACE_BOUND('',#890,.T.);
#1085=FACE_BOUND('',#891,.T.);
#1086=FACE_BOUND('',#892,.T.);
#1087=FACE_BOUND('',#893,.T.);
#1088=FACE_BOUND('',#894,.T.);
#1089=FACE_BOUND('',#895,.T.);
#1090=FACE_BOUND('',#896,.T.);
#1091=FACE_BOUND('',#897,.T.);
#1092=FACE_BOUND('',#898,.T.);
#1093=FACE_BOUND('',#899,.T.);
#1094=FACE_BOUND('',#900,.T.);
#1095=PLANE('',#1177);
#1096=PLANE('',#1178);
#1097=PLANE('',#1314);
#1098=PLANE('',#1319);
#1099=PLANE('',#1324);
#1100=PLANE('',#1329);
#1101=PLANE('',#1330);
#1102=PLANE('',#1331);
#1103=PLANE('',#1332);
#1104=PLANE('',#1333);
#1105=ADVANCED_FACE('',(#901),#1095,.T.);
#1106=ADVANCED_FACE('',(#902),#1096,.F.);
#1107=ADVANCED_FACE('',(#903,#904),#110,.F.);
#1108=ADVANCED_FACE('',(#905,#906),#111,.F.);
#1109=ADVANCED_FACE('',(#907,#908),#112,.F.);
#1110=ADVANCED_FACE('',(#909,#910),#113,.F.);
#1111=ADVANCED_FACE('',(#911,#912),#114,.F.);
#1112=ADVANCED_FACE('',(#913,#914),#115,.F.);
#1113=ADVANCED_FACE('',(#915,#916),#116,.F.);
#1114=ADVANCED_FACE('',(#917,#918),#117,.F.);
#1115=ADVANCED_FACE('',(#919,#920),#118,.F.);
#1116=ADVANCED_FACE('',(#921,#922),#119,.F.);
#1117=ADVANCED_FACE('',(#923,#924),#120,.F.);
#1118=ADVANCED_FACE('',(#925,#926),#121,.F.);
#1119=ADVANCED_FACE('',(#927,#928),#122,.F.);
#1120=ADVANCED_FACE('',(#929,#930),#123,.F.);
#1121=ADVANCED_FACE('',(#931,#932),#124,.F.);
#1122=ADVANCED_FACE('',(#933,#934),#125,.F.);
#1123=ADVANCED_FACE('',(#935,#936),#126,.F.);
#1124=ADVANCED_FACE('',(#937,#938),#127,.F.);
#1125=ADVANCED_FACE('',(#939,#940),#128,.F.);
#1126=ADVANCED_FACE('',(#941,#942),#129,.F.);
#1127=ADVANCED_FACE('',(#943,#944),#130,.F.);
#1128=ADVANCED_FACE('',(#945,#946),#131,.F.);
#1129=ADVANCED_FACE('',(#947,#948),#132,.F.);
#1130=ADVANCED_FACE('',(#949,#950),#133,.F.);
#1131=ADVANCED_FACE('',(#951,#952),#134,.F.);
#1132=ADVANCED_FACE('',(#953,#954),#135,.F.);
#1133=ADVANCED_FACE('',(#955,#956),#136,.F.);
#1134=ADVANCED_FACE('',(#957,#958),#137,.F.);
#1135=ADVANCED_FACE('',(#959,#960),#138,.F.);
#1136=ADVANCED_FACE('',(#961,#962),#139,.F.);
#1137=ADVANCED_FACE('',(#963,#964),#140,.F.);
#1138=ADVANCED_FACE('',(#965,#966),#141,.F.);
#1139=ADVANCED_FACE('',(#967,#968),#142,.F.);
#1140=ADVANCED_FACE('',(#969,#970),#143,.F.);
#1141=ADVANCED_FACE('',(#971,#972),#144,.F.);
#1142=ADVANCED_FACE('',(#973,#974),#145,.F.);
#1143=ADVANCED_FACE('',(#975,#976),#146,.F.);
#1144=ADVANCED_FACE('',(#977,#978),#147,.F.);
#1145=ADVANCED_FACE('',(#979,#980),#148,.F.);
#1146=ADVANCED_FACE('',(#981,#982),#149,.F.);
#1147=ADVANCED_FACE('',(#983,#984),#150,.F.);
#1148=ADVANCED_FACE('',(#985,#986),#151,.F.);
#1149=ADVANCED_FACE('',(#987,#988),#152,.F.);
#1150=ADVANCED_FACE('',(#989,#990),#153,.F.);
#1151=ADVANCED_FACE('',(#991,#992),#154,.F.);
#1152=ADVANCED_FACE('',(#993,#994,#995,#996,#997,#998,#999,#1000,#1001,
#1002,#1003,#1004,#1005,#1006,#1007,#1008,#1009,#1010,#1011,#1012,#1013,
#1014,#1015,#1016,#1017,#1018,#1019,#1020,#1021,#1022,#1023,#1024,#1025,
#1026,#1027,#1028,#1029,#1030,#1031,#1032,#1033,#1034,#1035,#1036,#1037,
#1038),#1097,.F.);
#1153=ADVANCED_FACE('',(#1039,#1040,#1041,#1042,#1043,#1044,#1045,#1046,
#1047,#1048,#1049,#1050,#1051,#1052,#1053,#1054,#1055,#1056,#1057,#1058,
#1059,#1060,#1061,#1062,#1063,#1064,#1065,#1066,#1067,#1068,#1069,#1070,
#1071,#1072,#1073,#1074,#1075,#1076,#1077,#1078,#1079,#1080,#1081,#1082,
#1083,#1084),#1098,.T.);
#1154=ADVANCED_FACE('',(#1085),#1099,.F.);
#1155=ADVANCED_FACE('',(#1086),#155,.F.);
#1156=ADVANCED_FACE('',(#1087),#156,.F.);
#1157=ADVANCED_FACE('',(#1088),#157,.F.);
#1158=ADVANCED_FACE('',(#1089),#158,.F.);
#1159=ADVANCED_FACE('',(#1090),#1100,.T.);
#1160=ADVANCED_FACE('',(#1091),#1101,.T.);
#1161=ADVANCED_FACE('',(#1092),#1102,.T.);
#1162=ADVANCED_FACE('',(#1093),#1103,.T.);
#1163=ADVANCED_FACE('',(#1094),#1104,.T.);
#1164=CLOSED_SHELL('',(#1105,#1106,#1107,#1108,#1109,#1110,#1111,#1112,
#1113,#1114,#1115,#1116,#1117,#1118,#1119,#1120,#1121,#1122,#1123,#1124,
#1125,#1126,#1127,#1128,#1129,#1130,#1131,#1132,#1133,#1134,#1135,#1136,
#1137,#1138,#1139,#1140,#1141,#1142,#1143,#1144,#1145,#1146,#1147,#1148,
#1149,#1150,#1151,#1152,#1153,#1154,#1155,#1156,#1157,#1158,#1159,#1160,
#1161,#1162,#1163));
#1165=STYLED_ITEM('',(#1166),#1173);
#1166=PRESENTATION_STYLE_ASSIGNMENT((#1167));
#1167=SURFACE_STYLE_USAGE(.BOTH.,#1168);
#1168=SURFACE_SIDE_STYLE('',(#1169));
#1169=SURFACE_STYLE_FILL_AREA(#1170);
#1170=FILL_AREA_STYLE('',(#1171));
#1171=FILL_AREA_STYLE_COLOUR('',#1172);
#1172=COLOUR_RGB('',0.980392156862745,0.713725490196078,0.00392156862745098);
#1173=MANIFOLD_SOLID_BREP('Alt Shielding ND-R',#1164);
#1174=SHAPE_DEFINITION_REPRESENTATION(#1984,#1175);
#1175=SHAPE_REPRESENTATION('Alt Shielding ND-R',(#1176),#1979);
#1176=AXIS2_PLACEMENT_3D('',#1678,#1334,#1335);
#1177=AXIS2_PLACEMENT_3D('',#1679,#1336,#1337);
#1178=AXIS2_PLACEMENT_3D('',#1688,#1342,#1343);
#1179=AXIS2_PLACEMENT_3D('',#1697,#1348,#1349);
#1180=AXIS2_PLACEMENT_3D('',#1698,#1350,#1351);
#1181=AXIS2_PLACEMENT_3D('',#1700,#1352,#1353);
#1182=AXIS2_PLACEMENT_3D('',#1702,#1354,#1355);
#1183=AXIS2_PLACEMENT_3D('',#1703,#1356,#1357);
#1184=AXIS2_PLACEMENT_3D('',#1705,#1358,#1359);
#1185=AXIS2_PLACEMENT_3D('',#1707,#1360,#1361);
#1186=AXIS2_PLACEMENT_3D('',#1708,#1362,#1363);
#1187=AXIS2_PLACEMENT_3D('',#1710,#1364,#1365);
#1188=AXIS2_PLACEMENT_3D('',#1712,#1366,#1367);
#1189=AXIS2_PLACEMENT_3D('',#1713,#1368,#1369);
#1190=AXIS2_PLACEMENT_3D('',#1715,#1370,#1371);
#1191=AXIS2_PLACEMENT_3D('',#1717,#1372,#1373);
#1192=AXIS2_PLACEMENT_3D('',#1718,#1374,#1375);
#1193=AXIS2_PLACEMENT_3D('',#1720,#1376,#1377);
#1194=AXIS2_PLACEMENT_3D('',#1722,#1378,#1379);
#1195=AXIS2_PLACEMENT_3D('',#1723,#1380,#1381);
#1196=AXIS2_PLACEMENT_3D('',#1725,#1382,#1383);
#1197=AXIS2_PLACEMENT_3D('',#1727,#1384,#1385);
#1198=AXIS2_PLACEMENT_3D('',#1728,#1386,#1387);
#1199=AXIS2_PLACEMENT_3D('',#1730,#1388,#1389);
#1200=AXIS2_PLACEMENT_3D('',#1732,#1390,#1391);
#1201=AXIS2_PLACEMENT_3D('',#1733,#1392,#1393);
#1202=AXIS2_PLACEMENT_3D('',#1735,#1394,#1395);
#1203=AXIS2_PLACEMENT_3D('',#1737,#1396,#1397);
#1204=AXIS2_PLACEMENT_3D('',#1738,#1398,#1399);
#1205=AXIS2_PLACEMENT_3D('',#1740,#1400,#1401);
#1206=AXIS2_PLACEMENT_3D('',#1742,#1402,#1403);
#1207=AXIS2_PLACEMENT_3D('',#1743,#1404,#1405);
#1208=AXIS2_PLACEMENT_3D('',#1745,#1406,#1407);
#1209=AXIS2_PLACEMENT_3D('',#1747,#1408,#1409);
#1210=AXIS2_PLACEMENT_3D('',#1748,#1410,#1411);
#1211=AXIS2_PLACEMENT_3D('',#1750,#1412,#1413);
#1212=AXIS2_PLACEMENT_3D('',#1752,#1414,#1415);
#1213=AXIS2_PLACEMENT_3D('',#1753,#1416,#1417);
#1214=AXIS2_PLACEMENT_3D('',#1755,#1418,#1419);
#1215=AXIS2_PLACEMENT_3D('',#1757,#1420,#1421);
#1216=AXIS2_PLACEMENT_3D('',#1758,#1422,#1423);
#1217=AXIS2_PLACEMENT_3D('',#1760,#1424,#1425);
#1218=AXIS2_PLACEMENT_3D('',#1762,#1426,#1427);
#1219=AXIS2_PLACEMENT_3D('',#1763,#1428,#1429);
#1220=AXIS2_PLACEMENT_3D('',#1765,#1430,#1431);
#1221=AXIS2_PLACEMENT_3D('',#1767,#1432,#1433);
#1222=AXIS2_PLACEMENT_3D('',#1768,#1434,#1435);
#1223=AXIS2_PLACEMENT_3D('',#1770,#1436,#1437);
#1224=AXIS2_PLACEMENT_3D('',#1772,#1438,#1439);
#1225=AXIS2_PLACEMENT_3D('',#1773,#1440,#1441);
#1226=AXIS2_PLACEMENT_3D('',#1775,#1442,#1443);
#1227=AXIS2_PLACEMENT_3D('',#1777,#1444,#1445);
#1228=AXIS2_PLACEMENT_3D('',#1778,#1446,#1447);
#1229=AXIS2_PLACEMENT_3D('',#1780,#1448,#1449);
#1230=AXIS2_PLACEMENT_3D('',#1782,#1450,#1451);
#1231=AXIS2_PLACEMENT_3D('',#1783,#1452,#1453);
#1232=AXIS2_PLACEMENT_3D('',#1785,#1454,#1455);
#1233=AXIS2_PLACEMENT_3D('',#1787,#1456,#1457);
#1234=AXIS2_PLACEMENT_3D('',#1788,#1458,#1459);
#1235=AXIS2_PLACEMENT_3D('',#1790,#1460,#1461);
#1236=AXIS2_PLACEMENT_3D('',#1792,#1462,#1463);
#1237=AXIS2_PLACEMENT_3D('',#1793,#1464,#1465);
#1238=AXIS2_PLACEMENT_3D('',#1795,#1466,#1467);
#1239=AXIS2_PLACEMENT_3D('',#1797,#1468,#1469);
#1240=AXIS2_PLACEMENT_3D('',#1798,#1470,#1471);
#1241=AXIS2_PLACEMENT_3D('',#1800,#1472,#1473);
#1242=AXIS2_PLACEMENT_3D('',#1802,#1474,#1475);
#1243=AXIS2_PLACEMENT_3D('',#1803,#1476,#1477);
#1244=AXIS2_PLACEMENT_3D('',#1805,#1478,#1479);
#1245=AXIS2_PLACEMENT_3D('',#1807,#1480,#1481);
#1246=AXIS2_PLACEMENT_3D('',#1808,#1482,#1483);
#1247=AXIS2_PLACEMENT_3D('',#1810,#1484,#1485);
#1248=AXIS2_PLACEMENT_3D('',#1812,#1486,#1487);
#1249=AXIS2_PLACEMENT_3D('',#1813,#1488,#1489);
#1250=AXIS2_PLACEMENT_3D('',#1815,#1490,#1491);
#1251=AXIS2_PLACEMENT_3D('',#1817,#1492,#1493);
#1252=AXIS2_PLACEMENT_3D('',#1818,#1494,#1495);
#1253=AXIS2_PLACEMENT_3D('',#1820,#1496,#1497);
#1254=AXIS2_PLACEMENT_3D('',#1822,#1498,#1499);
#1255=AXIS2_PLACEMENT_3D('',#1823,#1500,#1501);
#1256=AXIS2_PLACEMENT_3D('',#1825,#1502,#1503);
#1257=AXIS2_PLACEMENT_3D('',#1827,#1504,#1505);
#1258=AXIS2_PLACEMENT_3D('',#1828,#1506,#1507);
#1259=AXIS2_PLACEMENT_3D('',#1830,#1508,#1509);
#1260=AXIS2_PLACEMENT_3D('',#1832,#1510,#1511);
#1261=AXIS2_PLACEMENT_3D('',#1833,#1512,#1513);
#1262=AXIS2_PLACEMENT_3D('',#1835,#1514,#1515);
#1263=AXIS2_PLACEMENT_3D('',#1837,#1516,#1517);
#1264=AXIS2_PLACEMENT_3D('',#1838,#1518,#1519);
#1265=AXIS2_PLACEMENT_3D('',#1840,#1520,#1521);
#1266=AXIS2_PLACEMENT_3D('',#1842,#1522,#1523);
#1267=AXIS2_PLACEMENT_3D('',#1843,#1524,#1525);
#1268=AXIS2_PLACEMENT_3D('',#1845,#1526,#1527);
#1269=AXIS2_PLACEMENT_3D('',#1847,#1528,#1529);
#1270=AXIS2_PLACEMENT_3D('',#1848,#1530,#1531);
#1271=AXIS2_PLACEMENT_3D('',#1850,#1532,#1533);
#1272=AXIS2_PLACEMENT_3D('',#1852,#1534,#1535);
#1273=AXIS2_PLACEMENT_3D('',#1853,#1536,#1537);
#1274=AXIS2_PLACEMENT_3D('',#1855,#1538,#1539);
#1275=AXIS2_PLACEMENT_3D('',#1857,#1540,#1541);
#1276=AXIS2_PLACEMENT_3D('',#1858,#1542,#1543);
#1277=AXIS2_PLACEMENT_3D('',#1860,#1544,#1545);
#1278=AXIS2_PLACEMENT_3D('',#1862,#1546,#1547);
#1279=AXIS2_PLACEMENT_3D('',#1863,#1548,#1549);
#1280=AXIS2_PLACEMENT_3D('',#1865,#1550,#1551);
#1281=AXIS2_PLACEMENT_3D('',#1867,#1552,#1553);
#1282=AXIS2_PLACEMENT_3D('',#1868,#1554,#1555);
#1283=AXIS2_PLACEMENT_3D('',#1870,#1556,#1557);
#1284=AXIS2_PLACEMENT_3D('',#1872,#1558,#1559);
#1285=AXIS2_PLACEMENT_3D('',#1873,#1560,#1561);
#1286=AXIS2_PLACEMENT_3D('',#1875,#1562,#1563);
#1287=AXIS2_PLACEMENT_3D('',#1877,#1564,#1565);
#1288=AXIS2_PLACEMENT_3D('',#1878,#1566,#1567);
#1289=AXIS2_PLACEMENT_3D('',#1880,#1568,#1569);
#1290=AXIS2_PLACEMENT_3D('',#1882,#1570,#1571);
#1291=AXIS2_PLACEMENT_3D('',#1883,#1572,#1573);
#1292=AXIS2_PLACEMENT_3D('',#1885,#1574,#1575);
#1293=AXIS2_PLACEMENT_3D('',#1887,#1576,#1577);
#1294=AXIS2_PLACEMENT_3D('',#1888,#1578,#1579);
#1295=AXIS2_PLACEMENT_3D('',#1890,#1580,#1581);
#1296=AXIS2_PLACEMENT_3D('',#1892,#1582,#1583);
#1297=AXIS2_PLACEMENT_3D('',#1893,#1584,#1585);
#1298=AXIS2_PLACEMENT_3D('',#1895,#1586,#1587);
#1299=AXIS2_PLACEMENT_3D('',#1897,#1588,#1589);
#1300=AXIS2_PLACEMENT_3D('',#1898,#1590,#1591);
#1301=AXIS2_PLACEMENT_3D('',#1900,#1592,#1593);
#1302=AXIS2_PLACEMENT_3D('',#1902,#1594,#1595);
#1303=AXIS2_PLACEMENT_3D('',#1903,#1596,#1597);
#1304=AXIS2_PLACEMENT_3D('',#1905,#1598,#1599);
#1305=AXIS2_PLACEMENT_3D('',#1907,#1600,#1601);
#1306=AXIS2_PLACEMENT_3D('',#1908,#1602,#1603);
#1307=AXIS2_PLACEMENT_3D('',#1910,#1604,#1605);
#1308=AXIS2_PLACEMENT_3D('',#1912,#1606,#1607);
#1309=AXIS2_PLACEMENT_3D('',#1913,#1608,#1609);
#1310=AXIS2_PLACEMENT_3D('',#1915,#1610,#1611);
#1311=AXIS2_PLACEMENT_3D('',#1917,#1612,#1613);
#1312=AXIS2_PLACEMENT_3D('',#1918,#1614,#1615);
#1313=AXIS2_PLACEMENT_3D('',#1920,#1616,#1617);
#1314=AXIS2_PLACEMENT_3D('',#1922,#1618,#1619);
#1315=AXIS2_PLACEMENT_3D('',#1928,#1623,#1624);
#1316=AXIS2_PLACEMENT_3D('',#1932,#1626,#1627);
#1317=AXIS2_PLACEMENT_3D('',#1936,#1629,#1630);
#1318=AXIS2_PLACEMENT_3D('',#1940,#1632,#1633);
#1319=AXIS2_PLACEMENT_3D('',#1941,#1634,#1635);
#1320=AXIS2_PLACEMENT_3D('',#1943,#1637,#1638);
#1321=AXIS2_PLACEMENT_3D('',#1947,#1640,#1641);
#1322=AXIS2_PLACEMENT_3D('',#1951,#1643,#1644);
#1323=AXIS2_PLACEMENT_3D('',#1955,#1646,#1647);
#1324=AXIS2_PLACEMENT_3D('',#1960,#1650,#1651);
#1325=AXIS2_PLACEMENT_3D('',#1961,#1652,#1653);
#1326=AXIS2_PLACEMENT_3D('',#1964,#1656,#1657);
#1327=AXIS2_PLACEMENT_3D('',#1967,#1660,#1661);
#1328=AXIS2_PLACEMENT_3D('',#1970,#1664,#1665);
#1329=AXIS2_PLACEMENT_3D('',#1972,#1667,#1668);
#1330=AXIS2_PLACEMENT_3D('',#1974,#1670,#1671);
#1331=AXIS2_PLACEMENT_3D('',#1975,#1672,#1673);
#1332=AXIS2_PLACEMENT_3D('',#1976,#1674,#1675);
#1333=AXIS2_PLACEMENT_3D('',#1977,#1676,#1677);
#1334=DIRECTION('',(0.,0.,1.));
#1335=DIRECTION('',(1.,0.,0.));
#1336=DIRECTION('',(0.,-1.,0.));
#1337=DIRECTION('',(1.,0.,0.));
#1338=DIRECTION('',(-1.,0.,0.));
#1339=DIRECTION('',(0.,0.,-1.));
#1340=DIRECTION('',(1.,0.,0.));
#1341=DIRECTION('',(0.,0.,-1.));
#1342=DIRECTION('',(0.,-1.,0.));
#1343=DIRECTION('',(0.,0.,-1.));
#1344=DIRECTION('',(0.,0.,-1.));
#1345=DIRECTION('',(1.,0.,0.));
#1346=DIRECTION('',(0.,0.,-1.));
#1347=DIRECTION('',(1.,0.,0.));
#1348=DIRECTION('',(1.,0.,0.));
#1349=DIRECTION('',(0.,0.,-1.));
#1350=DIRECTION('',(1.,0.,0.));
#1351=DIRECTION('',(0.,0.,-1.));
#1352=DIRECTION('',(1.,0.,0.));
#1353=DIRECTION('',(0.,0.,-1.));
#1354=DIRECTION('',(1.,0.,0.));
#1355=DIRECTION('',(0.,0.,-1.));
#1356=DIRECTION('',(1.,0.,0.));
#1357=DIRECTION('',(0.,0.,-1.));
#1358=DIRECTION('',(1.,0.,0.));
#1359=DIRECTION('',(0.,0.,-1.));
#1360=DIRECTION('',(1.,0.,0.));
#1361=DIRECTION('',(0.,0.,-1.));
#1362=DIRECTION('',(1.,0.,0.));
#1363=DIRECTION('',(0.,0.,-1.));
#1364=DIRECTION('',(1.,0.,0.));
#1365=DIRECTION('',(0.,0.,-1.));
#1366=DIRECTION('',(1.,0.,0.));
#1367=DIRECTION('',(0.,0.,-1.));
#1368=DIRECTION('',(1.,0.,0.));
#1369=DIRECTION('',(0.,0.,-1.));
#1370=DIRECTION('',(1.,0.,0.));
#1371=DIRECTION('',(0.,0.,-1.));
#1372=DIRECTION('',(1.,0.,0.));
#1373=DIRECTION('',(0.,0.,-1.));
#1374=DIRECTION('',(1.,0.,0.));
#1375=DIRECTION('',(0.,0.,-1.));
#1376=DIRECTION('',(1.,0.,0.));
#1377=DIRECTION('',(0.,0.,-1.));
#1378=DIRECTION('',(1.,0.,0.));
#1379=DIRECTION('',(0.,0.,-1.));
#1380=DIRECTION('',(1.,0.,0.));
#1381=DIRECTION('',(0.,0.,-1.));
#1382=DIRECTION('',(1.,0.,0.));
#1383=DIRECTION('',(0.,0.,-1.));
#1384=DIRECTION('',(1.,0.,0.));
#1385=DIRECTION('',(0.,0.,-1.));
#1386=DIRECTION('',(1.,0.,0.));
#1387=DIRECTION('',(0.,0.,-1.));
#1388=DIRECTION('',(1.,0.,0.));
#1389=DIRECTION('',(0.,0.,-1.));
#1390=DIRECTION('',(1.,0.,0.));
#1391=DIRECTION('',(0.,0.,-1.));
#1392=DIRECTION('',(1.,0.,0.));
#1393=DIRECTION('',(0.,0.,-1.));
#1394=DIRECTION('',(1.,0.,0.));
#1395=DIRECTION('',(0.,0.,-1.));
#1396=DIRECTION('',(1.,0.,0.));
#1397=DIRECTION('',(0.,0.,-1.));
#1398=DIRECTION('',(1.,0.,0.));
#1399=DIRECTION('',(0.,0.,-1.));
#1400=DIRECTION('',(1.,0.,0.));
#1401=DIRECTION('',(0.,0.,-1.));
#1402=DIRECTION('',(1.,0.,0.));
#1403=DIRECTION('',(0.,0.,-1.));
#1404=DIRECTION('',(1.,0.,0.));
#1405=DIRECTION('',(0.,0.,-1.));
#1406=DIRECTION('',(1.,0.,0.));
#1407=DIRECTION('',(0.,0.,-1.));
#1408=DIRECTION('',(1.,0.,0.));
#1409=DIRECTION('',(0.,0.,-1.));
#1410=DIRECTION('',(1.,0.,0.));
#1411=DIRECTION('',(0.,0.,-1.));
#1412=DIRECTION('',(1.,0.,0.));
#1413=DIRECTION('',(0.,0.,-1.));
#1414=DIRECTION('',(1.,0.,0.));
#1415=DIRECTION('',(0.,0.,-1.));
#1416=DIRECTION('',(1.,0.,0.));
#1417=DIRECTION('',(0.,0.,-1.));
#1418=DIRECTION('',(1.,0.,0.));
#1419=DIRECTION('',(0.,0.,-1.));
#1420=DIRECTION('',(1.,0.,0.));
#1421=DIRECTION('',(0.,0.,-1.));
#1422=DIRECTION('',(1.,0.,0.));
#1423=DIRECTION('',(0.,0.,-1.));
#1424=DIRECTION('',(1.,0.,0.));
#1425=DIRECTION('',(0.,0.,-1.));
#1426=DIRECTION('',(1.,0.,0.));
#1427=DIRECTION('',(0.,0.,-1.));
#1428=DIRECTION('',(1.,0.,0.));
#1429=DIRECTION('',(0.,0.,-1.));
#1430=DIRECTION('',(1.,0.,0.));
#1431=DIRECTION('',(0.,0.,-1.));
#1432=DIRECTION('',(1.,0.,0.));
#1433=DIRECTION('',(0.,0.,-1.));
#1434=DIRECTION('',(1.,0.,0.));
#1435=DIRECTION('',(0.,0.,-1.));
#1436=DIRECTION('',(1.,0.,0.));
#1437=DIRECTION('',(0.,0.,-1.));
#1438=DIRECTION('',(1.,0.,0.));
#1439=DIRECTION('',(0.,0.,-1.));
#1440=DIRECTION('',(1.,0.,0.));
#1441=DIRECTION('',(0.,0.,-1.));
#1442=DIRECTION('',(1.,0.,0.));
#1443=DIRECTION('',(0.,0.,-1.));
#1444=DIRECTION('',(1.,0.,0.));
#1445=DIRECTION('',(0.,0.,-1.));
#1446=DIRECTION('',(1.,0.,0.));
#1447=DIRECTION('',(0.,0.,-1.));
#1448=DIRECTION('',(1.,0.,0.));
#1449=DIRECTION('',(0.,0.,-1.));
#1450=DIRECTION('',(1.,0.,0.));
#1451=DIRECTION('',(0.,0.,-1.));
#1452=DIRECTION('',(1.,0.,0.));
#1453=DIRECTION('',(0.,0.,-1.));
#1454=DIRECTION('',(1.,0.,0.));
#1455=DIRECTION('',(0.,0.,-1.));
#1456=DIRECTION('',(1.,0.,0.));
#1457=DIRECTION('',(0.,0.,-1.));
#1458=DIRECTION('',(1.,0.,0.));
#1459=DIRECTION('',(0.,0.,-1.));
#1460=DIRECTION('',(1.,0.,0.));
#1461=DIRECTION('',(0.,0.,-1.));
#1462=DIRECTION('',(1.,0.,0.));
#1463=DIRECTION('',(0.,0.,-1.));
#1464=DIRECTION('',(1.,0.,0.));
#1465=DIRECTION('',(0.,0.,-1.));
#1466=DIRECTION('',(1.,0.,0.));
#1467=DIRECTION('',(0.,0.,-1.));
#1468=DIRECTION('',(1.,0.,0.));
#1469=DIRECTION('',(0.,0.,-1.));
#1470=DIRECTION('',(1.,0.,0.));
#1471=DIRECTION('',(0.,0.,-1.));
#1472=DIRECTION('',(1.,0.,0.));
#1473=DIRECTION('',(0.,0.,-1.));
#1474=DIRECTION('',(1.,0.,0.));
#1475=DIRECTION('',(0.,0.,-1.));
#1476=DIRECTION('',(1.,0.,0.));
#1477=DIRECTION('',(0.,0.,-1.));
#1478=DIRECTION('',(1.,0.,0.));
#1479=DIRECTION('',(0.,0.,-1.));
#1480=DIRECTION('',(1.,0.,0.));
#1481=DIRECTION('',(0.,0.,-1.));
#1482=DIRECTION('',(1.,0.,0.));
#1483=DIRECTION('',(0.,0.,-1.));
#1484=DIRECTION('',(1.,0.,0.));
#1485=DIRECTION('',(0.,0.,-1.));
#1486=DIRECTION('',(1.,0.,0.));
#1487=DIRECTION('',(0.,0.,-1.));
#1488=DIRECTION('',(1.,0.,0.));
#1489=DIRECTION('',(0.,0.,-1.));
#1490=DIRECTION('',(1.,0.,0.));
#1491=DIRECTION('',(0.,0.,-1.));
#1492=DIRECTION('',(1.,0.,0.));
#1493=DIRECTION('',(0.,0.,-1.));
#1494=DIRECTION('',(1.,0.,0.));
#1495=DIRECTION('',(0.,0.,-1.));
#1496=DIRECTION('',(1.,0.,0.));
#1497=DIRECTION('',(0.,0.,-1.));
#1498=DIRECTION('',(1.,0.,0.));
#1499=DIRECTION('',(0.,0.,-1.));
#1500=DIRECTION('',(1.,0.,0.));
#1501=DIRECTION('',(0.,0.,-1.));
#1502=DIRECTION('',(1.,0.,0.));
#1503=DIRECTION('',(0.,0.,-1.));
#1504=DIRECTION('',(1.,0.,0.));
#1505=DIRECTION('',(0.,0.,-1.));
#1506=DIRECTION('',(1.,0.,0.));
#1507=DIRECTION('',(0.,0.,-1.));
#1508=DIRECTION('',(1.,0.,0.));
#1509=DIRECTION('',(0.,0.,-1.));
#1510=DIRECTION('',(1.,0.,0.));
#1511=DIRECTION('',(0.,0.,-1.));
#1512=DIRECTION('',(1.,0.,0.));
#1513=DIRECTION('',(0.,0.,-1.));
#1514=DIRECTION('',(1.,0.,0.));
#1515=DIRECTION('',(0.,0.,-1.));
#1516=DIRECTION('',(1.,0.,0.));
#1517=DIRECTION('',(0.,0.,-1.));
#1518=DIRECTION('',(1.,0.,0.));
#1519=DIRECTION('',(0.,0.,-1.));
#1520=DIRECTION('',(1.,0.,0.));
#1521=DIRECTION('',(0.,0.,-1.));
#1522=DIRECTION('',(1.,0.,0.));
#1523=DIRECTION('',(0.,0.,-1.));
#1524=DIRECTION('',(1.,0.,0.));
#1525=DIRECTION('',(0.,0.,-1.));
#1526=DIRECTION('',(1.,0.,0.));
#1527=DIRECTION('',(0.,0.,-1.));
#1528=DIRECTION('',(1.,0.,0.));
#1529=DIRECTION('',(0.,0.,-1.));
#1530=DIRECTION('',(1.,0.,0.));
#1531=DIRECTION('',(0.,0.,-1.));
#1532=DIRECTION('',(1.,0.,0.));
#1533=DIRECTION('',(0.,0.,-1.));
#1534=DIRECTION('',(1.,0.,0.));
#1535=DIRECTION('',(0.,0.,-1.));
#1536=DIRECTION('',(1.,0.,0.));
#1537=DIRECTION('',(0.,0.,-1.));
#1538=DIRECTION('',(1.,0.,0.));
#1539=DIRECTION('',(0.,0.,-1.));
#1540=DIRECTION('',(1.,0.,0.));
#1541=DIRECTION('',(0.,0.,-1.));
#1542=DIRECTION('',(1.,0.,0.));
#1543=DIRECTION('',(0.,0.,-1.));
#1544=DIRECTION('',(1.,0.,0.));
#1545=DIRECTION('',(0.,0.,-1.));
#1546=DIRECTION('',(1.,0.,0.));
#1547=DIRECTION('',(0.,0.,-1.));
#1548=DIRECTION('',(1.,0.,0.));
#1549=DIRECTION('',(0.,0.,-1.));
#1550=DIRECTION('',(1.,0.,0.));
#1551=DIRECTION('',(0.,0.,-1.));
#1552=DIRECTION('',(1.,0.,0.));
#1553=DIRECTION('',(0.,0.,-1.));
#1554=DIRECTION('',(1.,0.,0.));
#1555=DIRECTION('',(0.,0.,-1.));
#1556=DIRECTION('',(1.,0.,0.));
#1557=DIRECTION('',(0.,0.,-1.));
#1558=DIRECTION('',(1.,0.,0.));
#1559=DIRECTION('',(0.,0.,-1.));
#1560=DIRECTION('',(1.,0.,0.));
#1561=DIRECTION('',(0.,0.,-1.));
#1562=DIRECTION('',(1.,0.,0.));
#1563=DIRECTION('',(0.,0.,-1.));
#1564=DIRECTION('',(1.,0.,0.));
#1565=DIRECTION('',(0.,0.,-1.));
#1566=DIRECTION('',(1.,0.,0.));
#1567=DIRECTION('',(0.,0.,-1.));
#1568=DIRECTION('',(1.,0.,0.));
#1569=DIRECTION('',(0.,0.,-1.));
#1570=DIRECTION('',(1.,0.,0.));
#1571=DIRECTION('',(0.,0.,-1.));
#1572=DIRECTION('',(1.,0.,0.));
#1573=DIRECTION('',(0.,0.,-1.));
#1574=DIRECTION('',(1.,0.,0.));
#1575=DIRECTION('',(0.,0.,-1.));
#1576=DIRECTION('',(1.,0.,0.));
#1577=DIRECTION('',(0.,0.,-1.));
#1578=DIRECTION('',(1.,0.,0.));
#1579=DIRECTION('',(0.,0.,-1.));
#1580=DIRECTION('',(1.,0.,0.));
#1581=DIRECTION('',(0.,0.,-1.));
#1582=DIRECTION('',(1.,0.,0.));
#1583=DIRECTION('',(0.,0.,-1.));
#1584=DIRECTION('',(1.,0.,0.));
#1585=DIRECTION('',(0.,0.,-1.));
#1586=DIRECTION('',(1.,0.,0.));
#1587=DIRECTION('',(0.,0.,-1.));
#1588=DIRECTION('',(1.,0.,0.));
#1589=DIRECTION('',(0.,0.,-1.));
#1590=DIRECTION('',(1.,0.,0.));
#1591=DIRECTION('',(0.,0.,-1.));
#1592=DIRECTION('',(1.,0.,0.));
#1593=DIRECTION('',(0.,0.,-1.));
#1594=DIRECTION('',(1.,0.,0.));
#1595=DIRECTION('',(0.,0.,-1.));
#1596=DIRECTION('',(1.,0.,0.));
#1597=DIRECTION('',(0.,0.,-1.));
#1598=DIRECTION('',(1.,0.,0.));
#1599=DIRECTION('',(0.,0.,-1.));
#1600=DIRECTION('',(1.,0.,0.));
#1601=DIRECTION('',(0.,0.,-1.));
#1602=DIRECTION('',(1.,0.,0.));
#1603=DIRECTION('',(0.,0.,-1.));
#1604=DIRECTION('',(1.,0.,0.));
#1605=DIRECTION('',(0.,0.,-1.));
#1606=DIRECTION('',(1.,0.,0.));
#1607=DIRECTION('',(0.,0.,-1.));
#1608=DIRECTION('',(1.,0.,0.));
#1609=DIRECTION('',(0.,0.,-1.));
#1610=DIRECTION('',(1.,0.,0.));
#1611=DIRECTION('',(0.,0.,-1.));
#1612=DIRECTION('',(1.,0.,0.));
#1613=DIRECTION('',(0.,0.,-1.));
#1614=DIRECTION('',(1.,0.,0.));
#1615=DIRECTION('',(0.,0.,-1.));
#1616=DIRECTION('',(1.,0.,0.));
#1617=DIRECTION('',(0.,0.,-1.));
#1618=DIRECTION('',(1.,0.,0.));
#1619=DIRECTION('',(0.,0.,-1.));
#1620=DIRECTION('',(0.,1.,0.));
#1621=DIRECTION('',(0.,1.,0.));
#1622=DIRECTION('',(0.,0.,-1.));
#1623=DIRECTION('',(1.,0.,0.));
#1624=DIRECTION('',(0.,0.,-1.));
#1625=DIRECTION('',(0.,0.,-1.));
#1626=DIRECTION('',(1.,0.,0.));
#1627=DIRECTION('',(0.,0.,-1.));
#1628=DIRECTION('',(0.,0.,-1.));
#1629=DIRECTION('',(1.,0.,0.));
#1630=DIRECTION('',(0.,0.,-1.));
#1631=DIRECTION('',(0.,0.,-1.));
#1632=DIRECTION('',(1.,0.,0.));
#1633=DIRECTION('',(0.,0.,-1.));
#1634=DIRECTION('',(1.,0.,0.));
#1635=DIRECTION('',(0.,0.,-1.));
#1636=DIRECTION('',(0.,1.,0.));
#1637=DIRECTION('',(1.,0.,0.));
#1638=DIRECTION('',(0.,0.,-1.));
#1639=DIRECTION('',(0.,0.,-1.));
#1640=DIRECTION('',(1.,0.,0.));
#1641=DIRECTION('',(0.,0.,-1.));
#1642=DIRECTION('',(0.,0.,-1.));
#1643=DIRECTION('',(1.,0.,0.));
#1644=DIRECTION('',(0.,0.,-1.));
#1645=DIRECTION('',(0.,0.,-1.));
#1646=DIRECTION('',(1.,0.,0.));
#1647=DIRECTION('',(0.,0.,-1.));
#1648=DIRECTION('',(0.,0.,-1.));
#1649=DIRECTION('',(0.,1.,0.));
#1650=DIRECTION('',(0.,0.,-1.));
#1651=DIRECTION('',(-1.,0.,0.));
#1652=DIRECTION('',(1.,0.,0.));
#1653=DIRECTION('',(0.,0.,-1.));
#1654=DIRECTION('',(1.,0.,0.));
#1655=DIRECTION('',(1.,0.,0.));
#1656=DIRECTION('',(1.,0.,0.));
#1657=DIRECTION('',(0.,0.,-1.));
#1658=DIRECTION('',(1.,0.,0.));
#1659=DIRECTION('',(1.,0.,0.));
#1660=DIRECTION('',(1.,0.,0.));
#1661=DIRECTION('',(0.,0.,-1.));
#1662=DIRECTION('',(1.,0.,0.));
#1663=DIRECTION('',(1.,0.,0.));
#1664=DIRECTION('',(1.,0.,0.));
#1665=DIRECTION('',(0.,0.,-1.));
#1666=DIRECTION('',(1.,0.,0.));
#1667=DIRECTION('',(0.,0.,-1.));
#1668=DIRECTION('',(-1.,0.,0.));
#1669=DIRECTION('',(-1.,0.,0.));
#1670=DIRECTION('',(0.,-1.,0.));
#1671=DIRECTION('',(1.,0.,0.));
#1672=DIRECTION('',(0.,-1.,0.));
#1673=DIRECTION('',(1.,0.,0.));
#1674=DIRECTION('',(0.,-1.,0.));
#1675=DIRECTION('',(1.,0.,0.));
#1676=DIRECTION('',(0.,-1.,0.));
#1677=DIRECTION('',(1.,0.,0.));
#1678=CARTESIAN_POINT('',(0.,0.,0.));
#1679=CARTESIAN_POINT('',(0.,0.,0.));
#1680=CARTESIAN_POINT('',(-0.2074512,0.,0.117475));
#1681=CARTESIAN_POINT('',(-0.2064512,0.,0.117475));
#1682=CARTESIAN_POINT('',(-0.2074512,0.,0.117475));
#1683=CARTESIAN_POINT('',(-0.2074512,0.,-0.03140075));
#1684=CARTESIAN_POINT('',(-0.2074512,0.,0.1066927));
#1685=CARTESIAN_POINT('',(-0.2074512,0.,0.1066927));
#1686=CARTESIAN_POINT('',(-0.2064512,0.,0.1066927));
#1687=CARTESIAN_POINT('',(-0.2064512,0.,-0.03140075));
#1688=CARTESIAN_POINT('',(-0.2074512,0.2047875,-0.03140075));
#1689=CARTESIAN_POINT('',(-0.2064512,0.2047875,-0.03140075));
#1690=CARTESIAN_POINT('',(-0.2064512,0.2047875,0.117475));
#1691=CARTESIAN_POINT('',(-0.2064512,0.2047875,-0.346074999999995));
#1692=CARTESIAN_POINT('',(-0.2074512,0.2047875,-0.346074999999995));
#1693=CARTESIAN_POINT('',(-0.2074512,0.2047875,-0.346074999999995));
#1694=CARTESIAN_POINT('',(-0.2074512,0.2047875,-0.03140075));
#1695=CARTESIAN_POINT('',(-0.2074512,0.2047875,0.117475));
#1696=CARTESIAN_POINT('',(-0.2074512,0.2047875,0.117475));
#1697=CARTESIAN_POINT('',(-0.2074512,0.127,-0.3302));
#1698=CARTESIAN_POINT('',(-0.2074512,0.127,-0.3302));
#1699=CARTESIAN_POINT('',(-0.2074512,0.127,-0.3327527));
#1700=CARTESIAN_POINT('',(-0.2064512,0.127,-0.3302));
#1701=CARTESIAN_POINT('',(-0.2064512,0.127,-0.3327527));
#1702=CARTESIAN_POINT('',(-0.2074512,0.0127,-0.3302));
#1703=CARTESIAN_POINT('',(-0.2074512,0.0127,-0.3302));
#1704=CARTESIAN_POINT('',(-0.2074512,0.0127,-0.3327527));
#1705=CARTESIAN_POINT('',(-0.2064512,0.0127,-0.3302));
#1706=CARTESIAN_POINT('',(-0.2064512,0.0127,-0.3327527));
#1707=CARTESIAN_POINT('',(-0.2074512,0.127,0.1016));
#1708=CARTESIAN_POINT('',(-0.2074512,0.127,0.1016));
#1709=CARTESIAN_POINT('',(-0.2074512,0.127,0.0990473));
#1710=CARTESIAN_POINT('',(-0.2064512,0.127,0.1016));
#1711=CARTESIAN_POINT('',(-0.2064512,0.127,0.0990473));
#1712=CARTESIAN_POINT('',(-0.2074512,0.0508,-0.3302));
#1713=CARTESIAN_POINT('',(-0.2074512,0.0508,-0.3302));
#1714=CARTESIAN_POINT('',(-0.2074512,0.0508,-0.3327527));
#1715=CARTESIAN_POINT('',(-0.2064512,0.0508,-0.3302));
#1716=CARTESIAN_POINT('',(-0.2064512,0.0508,-0.3327527));
#1717=CARTESIAN_POINT('',(-0.2074512,0.0254,-0.3302));
#1718=CARTESIAN_POINT('',(-0.2074512,0.0254,-0.3302));
#1719=CARTESIAN_POINT('',(-0.2074512,0.0254,-0.3327527));
#1720=CARTESIAN_POINT('',(-0.2064512,0.0254,-0.3302));
#1721=CARTESIAN_POINT('',(-0.2064512,0.0254,-0.3327527));
#1722=CARTESIAN_POINT('',(-0.2074512,0.0508,-0.1016));
#1723=CARTESIAN_POINT('',(-0.2074512,0.0508,-0.1016));
#1724=CARTESIAN_POINT('',(-0.2074512,0.0508,-0.1066927));
#1725=CARTESIAN_POINT('',(-0.2064512,0.0508,-0.1016));
#1726=CARTESIAN_POINT('',(-0.2064512,0.0508,-0.1066927));
#1727=CARTESIAN_POINT('',(-0.2074512,0.0635,-0.1016));
#1728=CARTESIAN_POINT('',(-0.2074512,0.0635,-0.1016));
#1729=CARTESIAN_POINT('',(-0.2074512,0.0635,-0.1041527));
#1730=CARTESIAN_POINT('',(-0.2064512,0.0635,-0.1016));
#1731=CARTESIAN_POINT('',(-0.2064512,0.0635,-0.1041527));
#1732=CARTESIAN_POINT('',(-0.2074512,0.1016,-0.3302));
#1733=CARTESIAN_POINT('',(-0.2074512,0.1016,-0.3302));
#1734=CARTESIAN_POINT('',(-0.2074512,0.1016,-0.3327527));
#1735=CARTESIAN_POINT('',(-0.2064512,0.1016,-0.3302));
#1736=CARTESIAN_POINT('',(-0.2064512,0.1016,-0.3327527));
#1737=CARTESIAN_POINT('',(-0.2074512,0.0635,-0.3302));
#1738=CARTESIAN_POINT('',(-0.2074512,0.0635,-0.3302));
#1739=CARTESIAN_POINT('',(-0.2074512,0.0635,-0.3327527));
#1740=CARTESIAN_POINT('',(-0.2064512,0.0635,-0.3302));
#1741=CARTESIAN_POINT('',(-0.2064512,0.0635,-0.3327527));
#1742=CARTESIAN_POINT('',(-0.2074512,0.0381,-0.3302));
#1743=CARTESIAN_POINT('',(-0.2074512,0.0381,-0.3302));
#1744=CARTESIAN_POINT('',(-0.2074512,0.0381,-0.3327527));
#1745=CARTESIAN_POINT('',(-0.2064512,0.0381,-0.3302));
#1746=CARTESIAN_POINT('',(-0.2064512,0.0381,-0.3327527));
#1747=CARTESIAN_POINT('',(-0.2074512,0.0889,-0.3302));
#1748=CARTESIAN_POINT('',(-0.2074512,0.0889,-0.3302));
#1749=CARTESIAN_POINT('',(-0.2074512,0.0889,-0.3327527));
#1750=CARTESIAN_POINT('',(-0.2064512,0.0889,-0.3302));
#1751=CARTESIAN_POINT('',(-0.2064512,0.0889,-0.3327527));
#1752=CARTESIAN_POINT('',(-0.2074512,0.0762,-0.3302));
#1753=CARTESIAN_POINT('',(-0.2074512,0.0762,-0.3302));
#1754=CARTESIAN_POINT('',(-0.2074512,0.0762,-0.3352927));
#1755=CARTESIAN_POINT('',(-0.2064512,0.0762,-0.3302));
#1756=CARTESIAN_POINT('',(-0.2064512,0.0762,-0.3352927));
#1757=CARTESIAN_POINT('',(-0.2074512,0.1143,-0.3302));
#1758=CARTESIAN_POINT('',(-0.2074512,0.1143,-0.3302));
#1759=CARTESIAN_POINT('',(-0.2074512,0.1143,-0.3327527));
#1760=CARTESIAN_POINT('',(-0.2064512,0.1143,-0.3302));
#1761=CARTESIAN_POINT('',(-0.2064512,0.1143,-0.3327527));
#1762=CARTESIAN_POINT('',(-0.2074512,0.0127,0.1016));
#1763=CARTESIAN_POINT('',(-0.2074512,0.0127,0.1016));
#1764=CARTESIAN_POINT('',(-0.2074512,0.0127,0.0990473));
#1765=CARTESIAN_POINT('',(-0.2064512,0.0127,0.1016));
#1766=CARTESIAN_POINT('',(-0.2064512,0.0127,0.0990473));
#1767=CARTESIAN_POINT('',(-0.2074512,0.0254,0.1016));
#1768=CARTESIAN_POINT('',(-0.2074512,0.0254,0.1016));
#1769=CARTESIAN_POINT('',(-0.2074512,0.0254,0.0990473));
#1770=CARTESIAN_POINT('',(-0.2064512,0.0254,0.1016));
#1771=CARTESIAN_POINT('',(-0.2064512,0.0254,0.0990473));
#1772=CARTESIAN_POINT('',(-0.2074512,0.0381,0.1016));
#1773=CARTESIAN_POINT('',(-0.2074512,0.0381,0.1016));
#1774=CARTESIAN_POINT('',(-0.2074512,0.0381,0.0990473));
#1775=CARTESIAN_POINT('',(-0.2064512,0.0381,0.1016));
#1776=CARTESIAN_POINT('',(-0.2064512,0.0381,0.0990473));
#1777=CARTESIAN_POINT('',(-0.2074512,0.0508,0.1016));
#1778=CARTESIAN_POINT('',(-0.2074512,0.0508,0.1016));
#1779=CARTESIAN_POINT('',(-0.2074512,0.0508,0.0965073));
#1780=CARTESIAN_POINT('',(-0.2064512,0.0508,0.1016));
#1781=CARTESIAN_POINT('',(-0.2064512,0.0508,0.0965073));
#1782=CARTESIAN_POINT('',(-0.2074512,0.0635,0.1016));
#1783=CARTESIAN_POINT('',(-0.2074512,0.0635,0.1016));
#1784=CARTESIAN_POINT('',(-0.2074512,0.0635,0.0990473));
#1785=CARTESIAN_POINT('',(-0.2064512,0.0635,0.1016));
#1786=CARTESIAN_POINT('',(-0.2064512,0.0635,0.0990473));
#1787=CARTESIAN_POINT('',(-0.2074512,0.0762,0.1016));
#1788=CARTESIAN_POINT('',(-0.2074512,0.0762,0.1016));
#1789=CARTESIAN_POINT('',(-0.2074512,0.0762,0.0990473));
#1790=CARTESIAN_POINT('',(-0.2064512,0.0762,0.1016));
#1791=CARTESIAN_POINT('',(-0.2064512,0.0762,0.0990473));
#1792=CARTESIAN_POINT('',(-0.2074512,0.0889,0.1016));
#1793=CARTESIAN_POINT('',(-0.2074512,0.0889,0.1016));
#1794=CARTESIAN_POINT('',(-0.2074512,0.0889,0.0990473));
#1795=CARTESIAN_POINT('',(-0.2064512,0.0889,0.1016));
#1796=CARTESIAN_POINT('',(-0.2064512,0.0889,0.0990473));
#1797=CARTESIAN_POINT('',(-0.2074512,0.0381,-0.1016));
#1798=CARTESIAN_POINT('',(-0.2074512,0.0381,-0.1016));
#1799=CARTESIAN_POINT('',(-0.2074512,0.0381,-0.1041527));
#1800=CARTESIAN_POINT('',(-0.2064512,0.0381,-0.1016));
#1801=CARTESIAN_POINT('',(-0.2064512,0.0381,-0.1041527));
#1802=CARTESIAN_POINT('',(-0.2074512,0.0127,-0.1016));
#1803=CARTESIAN_POINT('',(-0.2074512,0.0127,-0.1016));
#1804=CARTESIAN_POINT('',(-0.2074512,0.0127,-0.1041527));
#1805=CARTESIAN_POINT('',(-0.2064512,0.0127,-0.1016));
#1806=CARTESIAN_POINT('',(-0.2064512,0.0127,-0.1041527));
#1807=CARTESIAN_POINT('',(-0.2074512,0.0254,-0.1016));
#1808=CARTESIAN_POINT('',(-0.2074512,0.0254,-0.1016));
#1809=CARTESIAN_POINT('',(-0.2074512,0.0254,-0.1041527));
#1810=CARTESIAN_POINT('',(-0.2064512,0.0254,-0.1016));
#1811=CARTESIAN_POINT('',(-0.2064512,0.0254,-0.1041527));
#1812=CARTESIAN_POINT('',(-0.2074512,0.1143,-0.1016));
#1813=CARTESIAN_POINT('',(-0.2074512,0.1143,-0.1016));
#1814=CARTESIAN_POINT('',(-0.2074512,0.1143,-0.1066927));
#1815=CARTESIAN_POINT('',(-0.2064512,0.1143,-0.1016));
#1816=CARTESIAN_POINT('',(-0.2064512,0.1143,-0.1066927));
#1817=CARTESIAN_POINT('',(-0.2074512,0.127,-0.1016));
#1818=CARTESIAN_POINT('',(-0.2074512,0.127,-0.1016));
#1819=CARTESIAN_POINT('',(-0.2074512,0.127,-0.1041527));
#1820=CARTESIAN_POINT('',(-0.2064512,0.127,-0.1016));
#1821=CARTESIAN_POINT('',(-0.2064512,0.127,-0.1041527));
#1822=CARTESIAN_POINT('',(-0.2074512,0.0889,-0.1016));
#1823=CARTESIAN_POINT('',(-0.2074512,0.0889,-0.1016));
#1824=CARTESIAN_POINT('',(-0.2074512,0.0889,-0.1041527));
#1825=CARTESIAN_POINT('',(-0.2064512,0.0889,-0.1016));
#1826=CARTESIAN_POINT('',(-0.2064512,0.0889,-0.1041527));
#1827=CARTESIAN_POINT('',(-0.2074512,0.1016,-0.1016));
#1828=CARTESIAN_POINT('',(-0.2074512,0.1016,-0.1016));
#1829=CARTESIAN_POINT('',(-0.2074512,0.1016,-0.1041527));
#1830=CARTESIAN_POINT('',(-0.2064512,0.1016,-0.1016));
#1831=CARTESIAN_POINT('',(-0.2064512,0.1016,-0.1041527));
#1832=CARTESIAN_POINT('',(-0.2074512,0.1016,0.1016));
#1833=CARTESIAN_POINT('',(-0.2074512,0.1016,0.1016));
#1834=CARTESIAN_POINT('',(-0.2074512,0.1016,0.0990473));
#1835=CARTESIAN_POINT('',(-0.2064512,0.1016,0.1016));
#1836=CARTESIAN_POINT('',(-0.2064512,0.1016,0.0990473));
#1837=CARTESIAN_POINT('',(-0.2074512,0.1143,0.1016));
#1838=CARTESIAN_POINT('',(-0.2074512,0.1143,0.1016));
#1839=CARTESIAN_POINT('',(-0.2074512,0.1143,0.0965073));
#1840=CARTESIAN_POINT('',(-0.2064512,0.1143,0.1016));
#1841=CARTESIAN_POINT('',(-0.2064512,0.1143,0.0965073));
#1842=CARTESIAN_POINT('',(-0.2074512,0.0762,-0.1016));
#1843=CARTESIAN_POINT('',(-0.2074512,0.0762,-0.1016));
#1844=CARTESIAN_POINT('',(-0.2074512,0.0762,-0.1041527));
#1845=CARTESIAN_POINT('',(-0.2064512,0.0762,-0.1016));
#1846=CARTESIAN_POINT('',(-0.2064512,0.0762,-0.1041527));
#1847=CARTESIAN_POINT('',(-0.2074512,0.1778,0.1016));
#1848=CARTESIAN_POINT('',(-0.2074512,0.1778,0.1016));
#1849=CARTESIAN_POINT('',(-0.2074512,0.1778,0.0990473));
#1850=CARTESIAN_POINT('',(-0.2064512,0.1778,0.1016));
#1851=CARTESIAN_POINT('',(-0.2064512,0.1778,0.0990473));
#1852=CARTESIAN_POINT('',(-0.2074512,0.1905,-0.3302));
#1853=CARTESIAN_POINT('',(-0.2074512,0.1905,-0.3302));
#1854=CARTESIAN_POINT('',(-0.2074512,0.1905,-0.3352927));
#1855=CARTESIAN_POINT('',(-0.2064512,0.1905,-0.3302));
#1856=CARTESIAN_POINT('',(-0.2064512,0.1905,-0.3352927));
#1857=CARTESIAN_POINT('',(-0.2074512,0.1651,-0.3302));
#1858=CARTESIAN_POINT('',(-0.2074512,0.1651,-0.3302));
#1859=CARTESIAN_POINT('',(-0.2074512,0.1651,-0.3352927));
#1860=CARTESIAN_POINT('',(-0.2064512,0.1651,-0.3302));
#1861=CARTESIAN_POINT('',(-0.2064512,0.1651,-0.3352927));
#1862=CARTESIAN_POINT('',(-0.2074512,0.1778,-0.1016));
#1863=CARTESIAN_POINT('',(-0.2074512,0.1778,-0.1016));
#1864=CARTESIAN_POINT('',(-0.2074512,0.1778,-0.1041527));
#1865=CARTESIAN_POINT('',(-0.2064512,0.1778,-0.1016));
#1866=CARTESIAN_POINT('',(-0.2064512,0.1778,-0.1041527));
#1867=CARTESIAN_POINT('',(-0.2074512,0.1778,-0.3302));
#1868=CARTESIAN_POINT('',(-0.2074512,0.1778,-0.3302));
#1869=CARTESIAN_POINT('',(-0.2074512,0.1778,-0.3327527));
#1870=CARTESIAN_POINT('',(-0.2064512,0.1778,-0.3302));
#1871=CARTESIAN_POINT('',(-0.2064512,0.1778,-0.3327527));
#1872=CARTESIAN_POINT('',(-0.2074512,0.1397,0.1016));
#1873=CARTESIAN_POINT('',(-0.2074512,0.1397,0.1016));
#1874=CARTESIAN_POINT('',(-0.2074512,0.1397,0.0990473));
#1875=CARTESIAN_POINT('',(-0.2064512,0.1397,0.1016));
#1876=CARTESIAN_POINT('',(-0.2064512,0.1397,0.0990473));
#1877=CARTESIAN_POINT('',(-0.2074512,0.1524,0.1016));
#1878=CARTESIAN_POINT('',(-0.2074512,0.1524,0.1016));
#1879=CARTESIAN_POINT('',(-0.2074512,0.1524,0.0990473));
#1880=CARTESIAN_POINT('',(-0.2064512,0.1524,0.1016));
#1881=CARTESIAN_POINT('',(-0.2064512,0.1524,0.0990473));
#1882=CARTESIAN_POINT('',(-0.2074512,0.1524,-0.3302));
#1883=CARTESIAN_POINT('',(-0.2074512,0.1524,-0.3302));
#1884=CARTESIAN_POINT('',(-0.2074512,0.1524,-0.3327527));
#1885=CARTESIAN_POINT('',(-0.2064512,0.1524,-0.3302));
#1886=CARTESIAN_POINT('',(-0.2064512,0.1524,-0.3327527));
#1887=CARTESIAN_POINT('',(-0.2074512,0.1397,-0.3302));
#1888=CARTESIAN_POINT('',(-0.2074512,0.1397,-0.3302));
#1889=CARTESIAN_POINT('',(-0.2074512,0.1397,-0.3327527));
#1890=CARTESIAN_POINT('',(-0.2064512,0.1397,-0.3302));
#1891=CARTESIAN_POINT('',(-0.2064512,0.1397,-0.3327527));
#1892=CARTESIAN_POINT('',(-0.2074512,0.1905,-0.1016));
#1893=CARTESIAN_POINT('',(-0.2074512,0.1905,-0.1016));
#1894=CARTESIAN_POINT('',(-0.2074512,0.1905,-0.1066927));
#1895=CARTESIAN_POINT('',(-0.2064512,0.1905,-0.1016));
#1896=CARTESIAN_POINT('',(-0.2064512,0.1905,-0.1066927));
#1897=CARTESIAN_POINT('',(-0.2074512,0.1651,-0.1016));
#1898=CARTESIAN_POINT('',(-0.2074512,0.1651,-0.1016));
#1899=CARTESIAN_POINT('',(-0.2074512,0.1651,-0.1041527));
#1900=CARTESIAN_POINT('',(-0.2064512,0.1651,-0.1016));
#1901=CARTESIAN_POINT('',(-0.2064512,0.1651,-0.1041527));
#1902=CARTESIAN_POINT('',(-0.2074512,0.1524,-0.1016));
#1903=CARTESIAN_POINT('',(-0.2074512,0.1524,-0.1016));
#1904=CARTESIAN_POINT('',(-0.2074512,0.1524,-0.1041527));
#1905=CARTESIAN_POINT('',(-0.2064512,0.1524,-0.1016));
#1906=CARTESIAN_POINT('',(-0.2064512,0.1524,-0.1041527));
#1907=CARTESIAN_POINT('',(-0.2074512,0.1397,-0.1016));
#1908=CARTESIAN_POINT('',(-0.2074512,0.1397,-0.1016));
#1909=CARTESIAN_POINT('',(-0.2074512,0.1397,-0.1041527));
#1910=CARTESIAN_POINT('',(-0.2064512,0.1397,-0.1016));
#1911=CARTESIAN_POINT('',(-0.2064512,0.1397,-0.1041527));
#1912=CARTESIAN_POINT('',(-0.2074512,0.1905,0.1016));
#1913=CARTESIAN_POINT('',(-0.2074512,0.1905,0.1016));
#1914=CARTESIAN_POINT('',(-0.2074512,0.1905,0.0965073));
#1915=CARTESIAN_POINT('',(-0.2064512,0.1905,0.1016));
#1916=CARTESIAN_POINT('',(-0.2064512,0.1905,0.0965073));
#1917=CARTESIAN_POINT('',(-0.2074512,0.1651,0.1016));
#1918=CARTESIAN_POINT('',(-0.2074512,0.1651,0.1016));
#1919=CARTESIAN_POINT('',(-0.2074512,0.1651,0.0965073));
#1920=CARTESIAN_POINT('',(-0.2064512,0.1651,0.1016));
#1921=CARTESIAN_POINT('',(-0.2064512,0.1651,0.0965073));
#1922=CARTESIAN_POINT('',(-0.2074512,-0.2032,-0.03140075));
#1923=CARTESIAN_POINT('',(-0.2074512,-0.2032,0.117475));
#1924=CARTESIAN_POINT('',(-0.2074512,-0.2032,-0.346074999999995));
#1925=CARTESIAN_POINT('',(-0.2074512,0.,-0.346074999999995));
#1926=CARTESIAN_POINT('',(-0.2074512,0.,-0.03140075));
#1927=CARTESIAN_POINT('',(-0.2074512,0.,-0.3352927));
#1928=CARTESIAN_POINT('',(-0.2074512,0.,-0.3302));
#1929=CARTESIAN_POINT('',(-0.2074512,0.,-0.3251073));
#1930=CARTESIAN_POINT('',(-0.2074512,0.,-0.03140075));
#1931=CARTESIAN_POINT('',(-0.2074512,0.,-0.1066927));
#1932=CARTESIAN_POINT('',(-0.2074512,2.77555756156289E-17,-0.1016));
#1933=CARTESIAN_POINT('',(-0.2074512,0.,-0.0965073));
#1934=CARTESIAN_POINT('',(-0.2074512,0.,-0.03140075));
#1935=CARTESIAN_POINT('',(-0.2074512,0.,-0.0318586));
#1936=CARTESIAN_POINT('',(-0.2074512,0.,3.27278284544536E-18));
#1937=CARTESIAN_POINT('',(-0.2074512,0.,0.0318586));
#1938=CARTESIAN_POINT('',(-0.2074512,0.,-0.03140075));
#1939=CARTESIAN_POINT('',(-0.2074512,0.,0.0965073));
#1940=CARTESIAN_POINT('',(-0.2074512,0.,0.1016));
#1941=CARTESIAN_POINT('',(-0.2064512,-0.2032,-0.03140075));
#1942=CARTESIAN_POINT('',(-0.2064512,-0.2032,0.117475));
#1943=CARTESIAN_POINT('',(-0.2064512,0.,0.1016));
#1944=CARTESIAN_POINT('',(-0.2064512,0.,0.0965073));
#1945=CARTESIAN_POINT('',(-0.2064512,0.,-0.03140075));
#1946=CARTESIAN_POINT('',(-0.2064512,0.,0.0318586));
#1947=CARTESIAN_POINT('',(-0.2064512,0.,3.27278284544536E-18));
#1948=CARTESIAN_POINT('',(-0.2064512,0.,-0.0318586));
#1949=CARTESIAN_POINT('',(-0.2064512,0.,-0.03140075));
#1950=CARTESIAN_POINT('',(-0.2064512,6.16297582203916E-33,-0.0965073));
#1951=CARTESIAN_POINT('',(-0.2064512,2.77555756156289E-17,-0.1016));
#1952=CARTESIAN_POINT('',(-0.2064512,6.16297582203916E-33,-0.1066927));
#1953=CARTESIAN_POINT('',(-0.2064512,0.,-0.03140075));
#1954=CARTESIAN_POINT('',(-0.2064512,0.,-0.3251073));
#1955=CARTESIAN_POINT('',(-0.2064512,0.,-0.3302));
#1956=CARTESIAN_POINT('',(-0.2064512,0.,-0.3352927));
#1957=CARTESIAN_POINT('',(-0.2064512,0.,-0.03140075));
#1958=CARTESIAN_POINT('',(-0.2064512,0.,-0.346074999999995));
#1959=CARTESIAN_POINT('',(-0.2064512,-0.2032,-0.346074999999995));
#1960=CARTESIAN_POINT('',(-0.2074512,-0.2032,0.117475));
#1961=CARTESIAN_POINT('',(-0.2074512,0.,3.27278284544536E-18));
#1962=CARTESIAN_POINT('',(-0.2074512,0.,-0.0318586));
#1963=CARTESIAN_POINT('',(-0.2074512,0.,0.0318586));
#1964=CARTESIAN_POINT('',(-0.2074512,2.77555756156289E-17,-0.1016));
#1965=CARTESIAN_POINT('',(-0.2074512,0.,-0.1066927));
#1966=CARTESIAN_POINT('',(-0.2074512,0.,-0.0965073));
#1967=CARTESIAN_POINT('',(-0.2074512,0.,-0.3302));
#1968=CARTESIAN_POINT('',(-0.2074512,0.,-0.3352927));
#1969=CARTESIAN_POINT('',(-0.2074512,0.,-0.3251073));
#1970=CARTESIAN_POINT('',(-0.2074512,0.,0.1016));
#1971=CARTESIAN_POINT('',(-0.2074512,0.,0.0965073));
#1972=CARTESIAN_POINT('',(-0.2074512,-0.2032,-0.346074999999995));
#1973=CARTESIAN_POINT('',(-0.2074512,0.,-0.346074999999995));
#1974=CARTESIAN_POINT('',(0.,0.,0.));
#1975=CARTESIAN_POINT('',(0.,0.,0.));
#1976=CARTESIAN_POINT('',(0.,0.,0.));
#1977=CARTESIAN_POINT('',(0.,0.,0.));
#1978=MECHANICAL_DESIGN_GEOMETRIC_PRESENTATION_REPRESENTATION('',(#1165),
#1979);
#1979=(
GEOMETRIC_REPRESENTATION_CONTEXT(3)
GLOBAL_UNCERTAINTY_ASSIGNED_CONTEXT((#1980))
GLOBAL_UNIT_ASSIGNED_CONTEXT((#1983,#1982,#1981))
REPRESENTATION_CONTEXT('Alt Shielding ND-R','TOP_LEVEL_ASSEMBLY_PART')
);
#1980=UNCERTAINTY_MEASURE_WITH_UNIT(LENGTH_MEASURE(1.E-8),#1983,
'DISTANCE_ACCURACY_VALUE','Maximum Tolerance applied to model');
#1981=(
NAMED_UNIT(*)
SI_UNIT($,.STERADIAN.)
SOLID_ANGLE_UNIT()
);
#1982=(
NAMED_UNIT(*)
PLANE_ANGLE_UNIT()
SI_UNIT($,.RADIAN.)
);
#1983=(
LENGTH_UNIT()
NAMED_UNIT(*)
SI_UNIT($,.METRE.)
);
#1984=PRODUCT_DEFINITION_SHAPE('','',#1985);
#1985=PRODUCT_DEFINITION('','',#1987,#1986);
#1986=PRODUCT_DEFINITION_CONTEXT('',#1993,'design');
#1987=PRODUCT_DEFINITION_FORMATION_WITH_SPECIFIED_SOURCE('','',#1989,
 .NOT_KNOWN.);
#1988=PRODUCT_RELATED_PRODUCT_CATEGORY('','',(#1989));
#1989=PRODUCT('Alt Shielding ND-R','Alt Shielding ND-R',
'Alt Shielding ND-R',(#1991));
#1990=PRODUCT_CATEGORY('','');
#1991=PRODUCT_CONTEXT('',#1993,'mechanical');
#1992=APPLICATION_PROTOCOL_DEFINITION('international standard',
'ap242_managed_model_based_3d_engineering',2011,#1993);
#1993=APPLICATION_CONTEXT('managed model based 3d engineering');
ENDSEC;
END-ISO-10303-21;
