ISO-10303-21;
HEADER;
/* Generated by software containing ST-Developer
 * from STEP Tools, Inc. (www.steptools.com) 
 */
/* OPTION: using custom renumber hook */

FILE_DESCRIPTION(
/* description */ ('STEP AP242',
'CAx-IF Rec.Pracs.---Representation and Presentation of Product Manufa
cturing Information (PMI)---4.0---2014-10-13',
'CAx-IF Rec.Pracs.---3D Tessellated Geometry---0.4---2014-09-14','2;1'),

/* implementation_level */ '2;1');

FILE_NAME(
/* name */ '68fb242534e6012dc82c9839',
/* time_stamp */ '2025-10-24T07:00:53Z',
/* author */ (''),
/* organization */ (''),
/* preprocessor_version */ 'ST-DEVELOPER v20',
/* originating_system */ 'ONSHAPE BY PTC INC, 1.205',
/* authorisation */ '  ');

FILE_SCHEMA (('AP242_MANAGED_MODEL_BASED_3D_ENGINEERING_MIM_LF { 1 0 10303 442 1 1 4 }'));
ENDSEC;

DATA;
#10=SHAPE_REPRESENTATION_RELATIONSHIP('','',#1175,#11);
#11=ADVANCED_BREP_SHAPE_REPRESENTATION('',(#1173),#1979);
#12=CIRCLE('',#1180,0.0050927);
#13=CIRCLE('',#1181,0.0050927);
#14=CIRCLE('',#1183,0.0025527);
#15=CIRCLE('',#1184,0.0025527);
#16=CIRCLE('',#1186,0.0025527);
#17=CIRCLE('',#1187,0.0025527);
#18=CIRCLE('',#1189,0.0050927);
#19=CIRCLE('',#1190,0.0050927);
#20=CIRCLE('',#1192,0.0050927);
#21=CIRCLE('',#1193,0.0050927);
#22=CIRCLE('',#1195,0.0050927);
#23=CIRCLE('',#1196,0.0050927);
#24=CIRCLE('',#1198,0.0025527);
#25=CIRCLE('',#1199,0.0025527);
#26=CIRCLE('',#1201,0.0025527);
#27=CIRCLE('',#1202,0.0025527);
#28=CIRCLE('',#1204,0.0025527);
#29=CIRCLE('',#1205,0.0025527);
#30=CIRCLE('',#1207,0.0025527);
#31=CIRCLE('',#1208,0.0025527);
#32=CIRCLE('',#1210,0.0025527);
#33=CIRCLE('',#1211,0.0025527);
#34=CIRCLE('',#1213,0.0050927);
#35=CIRCLE('',#1214,0.0050927);
#36=CIRCLE('',#1216,0.0050927);
#37=CIRCLE('',#1217,0.0050927);
#38=CIRCLE('',#1219,0.0025527);
#39=CIRCLE('',#1220,0.0025527);
#40=CIRCLE('',#1222,0.0025527);
#41=CIRCLE('',#1223,0.0025527);
#42=CIRCLE('',#1225,0.0050927);
#43=CIRCLE('',#1226,0.0050927);
#44=CIRCLE('',#1228,0.0025527);
#45=CIRCLE('',#1229,0.0025527);
#46=CIRCLE('',#1231,0.0025527);
#47=CIRCLE('',#1232,0.0025527);
#48=CIRCLE('',#1234,0.0025527);
#49=CIRCLE('',#1235,0.0025527);
#50=CIRCLE('',#1237,0.0050927);
#51=CIRCLE('',#1238,0.0050927);
#52=CIRCLE('',#1240,0.0050927);
#53=CIRCLE('',#1241,0.0050927);
#54=CIRCLE('',#1243,0.0025527);
#55=CIRCLE('',#1244,0.0025527);
#56=CIRCLE('',#1246,0.0025527);
#57=CIRCLE('',#1247,0.0025527);
#58=CIRCLE('',#1249,0.0025527);
#59=CIRCLE('',#1250,0.0025527);
#60=CIRCLE('',#1252,0.0050927);
#61=CIRCLE('',#1253,0.0050927);
#62=CIRCLE('',#1255,0.0025527);
#63=CIRCLE('',#1256,0.0025527);
#64=CIRCLE('',#1258,0.0025527);
#65=CIRCLE('',#1259,0.0025527);
#66=CIRCLE('',#1261,0.0025527);
#67=CIRCLE('',#1262,0.0025527);
#68=CIRCLE('',#1264,0.0025527);
#69=CIRCLE('',#1265,0.0025527);
#70=CIRCLE('',#1267,0.0025527);
#71=CIRCLE('',#1268,0.0025527);
#72=CIRCLE('',#1270,0.0025527);
#73=CIRCLE('',#1271,0.0025527);
#74=CIRCLE('',#1273,0.0025527);
#75=CIRCLE('',#1274,0.0025527);
#76=CIRCLE('',#1276,0.0025527);
#77=CIRCLE('',#1277,0.0025527);
#78=CIRCLE('',#1279,0.0025527);
#79=CIRCLE('',#1280,0.0025527);
#80=CIRCLE('',#1282,0.0025527);
#81=CIRCLE('',#1283,0.0025527);
#82=CIRCLE('',#1285,0.0050927);
#83=CIRCLE('',#1286,0.0050927);
#84=CIRCLE('',#1288,0.0050927);
#85=CIRCLE('',#1289,0.0050927);
#86=CIRCLE('',#1291,0.0025527);
#87=CIRCLE('',#1292,0.0025527);
#88=CIRCLE('',#1294,0.0025527);
#89=CIRCLE('',#1295,0.0025527);
#90=CIRCLE('',#1297,0.0025527);
#91=CIRCLE('',#1298,0.0025527);
#92=CIRCLE('',#1300,0.0025527);
#93=CIRCLE('',#1301,0.0025527);
#94=CIRCLE('',#1303,0.0025527);
#95=CIRCLE('',#1304,0.0025527);
#96=CIRCLE('',#1306,0.0025527);
#97=CIRCLE('',#1307,0.0025527);
#98=CIRCLE('',#1309,0.0050927);
#99=CIRCLE('',#1310,0.0050927);
#100=CIRCLE('',#1312,0.0025527);
#101=CIRCLE('',#1313,0.0025527);
#102=CIRCLE('',#1315,0.0025527);
#103=CIRCLE('',#1316,0.0025527);
#104=CIRCLE('',#1318,0.0025527);
#105=CIRCLE('',#1319,0.0025527);
#106=CIRCLE('',#1321,0.0025527);
#107=CIRCLE('',#1322,0.0025527);
#108=CIRCLE('',#1324,0.0318586);
#109=CIRCLE('',#1325,0.0318586);
#110=CYLINDRICAL_SURFACE('',#1179,0.0050927);
#111=CYLINDRICAL_SURFACE('',#1182,0.0025527);
#112=CYLINDRICAL_SURFACE('',#1185,0.0025527);
#113=CYLINDRICAL_SURFACE('',#1188,0.0050927);
#114=CYLINDRICAL_SURFACE('',#1191,0.0050927);
#115=CYLINDRICAL_SURFACE('',#1194,0.0050927);
#116=CYLINDRICAL_SURFACE('',#1197,0.0025527);
#117=CYLINDRICAL_SURFACE('',#1200,0.0025527);
#118=CYLINDRICAL_SURFACE('',#1203,0.0025527);
#119=CYLINDRICAL_SURFACE('',#1206,0.0025527);
#120=CYLINDRICAL_SURFACE('',#1209,0.0025527);
#121=CYLINDRICAL_SURFACE('',#1212,0.0050927);
#122=CYLINDRICAL_SURFACE('',#1215,0.0050927);
#123=CYLINDRICAL_SURFACE('',#1218,0.0025527);
#124=CYLINDRICAL_SURFACE('',#1221,0.0025527);
#125=CYLINDRICAL_SURFACE('',#1224,0.0050927);
#126=CYLINDRICAL_SURFACE('',#1227,0.0025527);
#127=CYLINDRICAL_SURFACE('',#1230,0.0025527);
#128=CYLINDRICAL_SURFACE('',#1233,0.0025527);
#129=CYLINDRICAL_SURFACE('',#1236,0.0050927);
#130=CYLINDRICAL_SURFACE('',#1239,0.0050927);
#131=CYLINDRICAL_SURFACE('',#1242,0.0025527);
#132=CYLINDRICAL_SURFACE('',#1245,0.0025527);
#133=CYLINDRICAL_SURFACE('',#1248,0.0025527);
#134=CYLINDRICAL_SURFACE('',#1251,0.0050927);
#135=CYLINDRICAL_SURFACE('',#1254,0.0025527);
#136=CYLINDRICAL_SURFACE('',#1257,0.0025527);
#137=CYLINDRICAL_SURFACE('',#1260,0.0025527);
#138=CYLINDRICAL_SURFACE('',#1263,0.0025527);
#139=CYLINDRICAL_SURFACE('',#1266,0.0025527);
#140=CYLINDRICAL_SURFACE('',#1269,0.0025527);
#141=CYLINDRICAL_SURFACE('',#1272,0.0025527);
#142=CYLINDRICAL_SURFACE('',#1275,0.0025527);
#143=CYLINDRICAL_SURFACE('',#1278,0.0025527);
#144=CYLINDRICAL_SURFACE('',#1281,0.0025527);
#145=CYLINDRICAL_SURFACE('',#1284,0.0050927);
#146=CYLINDRICAL_SURFACE('',#1287,0.0050927);
#147=CYLINDRICAL_SURFACE('',#1290,0.0025527);
#148=CYLINDRICAL_SURFACE('',#1293,0.0025527);
#149=CYLINDRICAL_SURFACE('',#1296,0.0025527);
#150=CYLINDRICAL_SURFACE('',#1299,0.0025527);
#151=CYLINDRICAL_SURFACE('',#1302,0.0025527);
#152=CYLINDRICAL_SURFACE('',#1305,0.0025527);
#153=CYLINDRICAL_SURFACE('',#1308,0.0050927);
#154=CYLINDRICAL_SURFACE('',#1311,0.0025527);
#155=CYLINDRICAL_SURFACE('',#1314,0.0025527);
#156=CYLINDRICAL_SURFACE('',#1317,0.0025527);
#157=CYLINDRICAL_SURFACE('',#1320,0.0025527);
#158=CYLINDRICAL_SURFACE('',#1323,0.0318586);
#159=ORIENTED_EDGE('',*,*,#411,.F.);
#160=ORIENTED_EDGE('',*,*,#412,.F.);
#161=ORIENTED_EDGE('',*,*,#413,.F.);
#162=ORIENTED_EDGE('',*,*,#414,.T.);
#163=ORIENTED_EDGE('',*,*,#415,.F.);
#164=ORIENTED_EDGE('',*,*,#416,.F.);
#165=ORIENTED_EDGE('',*,*,#417,.T.);
#166=ORIENTED_EDGE('',*,*,#413,.T.);
#167=ORIENTED_EDGE('',*,*,#418,.T.);
#168=ORIENTED_EDGE('',*,*,#419,.F.);
#169=ORIENTED_EDGE('',*,*,#420,.T.);
#170=ORIENTED_EDGE('',*,*,#421,.F.);
#171=ORIENTED_EDGE('',*,*,#422,.T.);
#172=ORIENTED_EDGE('',*,*,#423,.F.);
#173=ORIENTED_EDGE('',*,*,#424,.T.);
#174=ORIENTED_EDGE('',*,*,#425,.F.);
#175=ORIENTED_EDGE('',*,*,#426,.T.);
#176=ORIENTED_EDGE('',*,*,#427,.F.);
#177=ORIENTED_EDGE('',*,*,#428,.T.);
#178=ORIENTED_EDGE('',*,*,#429,.F.);
#179=ORIENTED_EDGE('',*,*,#430,.T.);
#180=ORIENTED_EDGE('',*,*,#431,.F.);
#181=ORIENTED_EDGE('',*,*,#432,.T.);
#182=ORIENTED_EDGE('',*,*,#433,.F.);
#183=ORIENTED_EDGE('',*,*,#434,.T.);
#184=ORIENTED_EDGE('',*,*,#435,.F.);
#185=ORIENTED_EDGE('',*,*,#436,.T.);
#186=ORIENTED_EDGE('',*,*,#437,.F.);
#187=ORIENTED_EDGE('',*,*,#438,.T.);
#188=ORIENTED_EDGE('',*,*,#439,.F.);
#189=ORIENTED_EDGE('',*,*,#440,.T.);
#190=ORIENTED_EDGE('',*,*,#441,.F.);
#191=ORIENTED_EDGE('',*,*,#442,.T.);
#192=ORIENTED_EDGE('',*,*,#443,.F.);
#193=ORIENTED_EDGE('',*,*,#444,.T.);
#194=ORIENTED_EDGE('',*,*,#445,.F.);
#195=ORIENTED_EDGE('',*,*,#446,.T.);
#196=ORIENTED_EDGE('',*,*,#447,.F.);
#197=ORIENTED_EDGE('',*,*,#448,.T.);
#198=ORIENTED_EDGE('',*,*,#449,.F.);
#199=ORIENTED_EDGE('',*,*,#450,.T.);
#200=ORIENTED_EDGE('',*,*,#451,.F.);
#201=ORIENTED_EDGE('',*,*,#452,.T.);
#202=ORIENTED_EDGE('',*,*,#453,.F.);
#203=ORIENTED_EDGE('',*,*,#454,.T.);
#204=ORIENTED_EDGE('',*,*,#455,.F.);
#205=ORIENTED_EDGE('',*,*,#456,.T.);
#206=ORIENTED_EDGE('',*,*,#457,.F.);
#207=ORIENTED_EDGE('',*,*,#458,.F.);
#208=ORIENTED_EDGE('',*,*,#459,.T.);
#209=ORIENTED_EDGE('',*,*,#460,.F.);
#210=ORIENTED_EDGE('',*,*,#461,.F.);
#211=ORIENTED_EDGE('',*,*,#462,.T.);
#212=ORIENTED_EDGE('',*,*,#463,.F.);
#213=ORIENTED_EDGE('',*,*,#464,.T.);
#214=ORIENTED_EDGE('',*,*,#465,.F.);
#215=ORIENTED_EDGE('',*,*,#466,.T.);
#216=ORIENTED_EDGE('',*,*,#467,.F.);
#217=ORIENTED_EDGE('',*,*,#468,.T.);
#218=ORIENTED_EDGE('',*,*,#469,.F.);
#219=ORIENTED_EDGE('',*,*,#470,.T.);
#220=ORIENTED_EDGE('',*,*,#471,.F.);
#221=ORIENTED_EDGE('',*,*,#472,.T.);
#222=ORIENTED_EDGE('',*,*,#473,.F.);
#223=ORIENTED_EDGE('',*,*,#474,.T.);
#224=ORIENTED_EDGE('',*,*,#475,.F.);
#225=ORIENTED_EDGE('',*,*,#476,.T.);
#226=ORIENTED_EDGE('',*,*,#477,.F.);
#227=ORIENTED_EDGE('',*,*,#478,.T.);
#228=ORIENTED_EDGE('',*,*,#479,.F.);
#229=ORIENTED_EDGE('',*,*,#480,.T.);
#230=ORIENTED_EDGE('',*,*,#481,.F.);
#231=ORIENTED_EDGE('',*,*,#482,.T.);
#232=ORIENTED_EDGE('',*,*,#483,.F.);
#233=ORIENTED_EDGE('',*,*,#484,.T.);
#234=ORIENTED_EDGE('',*,*,#485,.F.);
#235=ORIENTED_EDGE('',*,*,#486,.T.);
#236=ORIENTED_EDGE('',*,*,#487,.F.);
#237=ORIENTED_EDGE('',*,*,#488,.T.);
#238=ORIENTED_EDGE('',*,*,#489,.F.);
#239=ORIENTED_EDGE('',*,*,#490,.F.);
#240=ORIENTED_EDGE('',*,*,#491,.T.);
#241=ORIENTED_EDGE('',*,*,#492,.F.);
#242=ORIENTED_EDGE('',*,*,#493,.F.);
#243=ORIENTED_EDGE('',*,*,#494,.T.);
#244=ORIENTED_EDGE('',*,*,#495,.F.);
#245=ORIENTED_EDGE('',*,*,#496,.T.);
#246=ORIENTED_EDGE('',*,*,#497,.F.);
#247=ORIENTED_EDGE('',*,*,#498,.T.);
#248=ORIENTED_EDGE('',*,*,#499,.F.);
#249=ORIENTED_EDGE('',*,*,#500,.T.);
#250=ORIENTED_EDGE('',*,*,#501,.F.);
#251=ORIENTED_EDGE('',*,*,#502,.T.);
#252=ORIENTED_EDGE('',*,*,#503,.F.);
#253=ORIENTED_EDGE('',*,*,#504,.T.);
#254=ORIENTED_EDGE('',*,*,#505,.F.);
#255=ORIENTED_EDGE('',*,*,#506,.T.);
#256=ORIENTED_EDGE('',*,*,#507,.F.);
#257=ORIENTED_EDGE('',*,*,#508,.F.);
#258=ORIENTED_EDGE('',*,*,#509,.T.);
#259=ORIENTED_EDGE('',*,*,#510,.F.);
#260=ORIENTED_EDGE('',*,*,#511,.F.);
#261=ORIENTED_EDGE('',*,*,#512,.T.);
#262=ORIENTED_EDGE('',*,*,#513,.F.);
#263=ORIENTED_EDGE('',*,*,#514,.T.);
#264=ORIENTED_EDGE('',*,*,#515,.F.);
#265=ORIENTED_EDGE('',*,*,#516,.T.);
#266=ORIENTED_EDGE('',*,*,#517,.F.);
#267=ORIENTED_EDGE('',*,*,#518,.T.);
#268=ORIENTED_EDGE('',*,*,#519,.F.);
#269=ORIENTED_EDGE('',*,*,#520,.F.);
#270=ORIENTED_EDGE('',*,*,#521,.T.);
#271=ORIENTED_EDGE('',*,*,#522,.F.);
#272=ORIENTED_EDGE('',*,*,#523,.F.);
#273=ORIENTED_EDGE('',*,*,#524,.T.);
#274=ORIENTED_EDGE('',*,*,#525,.T.);
#275=ORIENTED_EDGE('',*,*,#526,.F.);
#276=ORIENTED_EDGE('',*,*,#416,.T.);
#277=ORIENTED_EDGE('',*,*,#518,.F.);
#278=ORIENTED_EDGE('',*,*,#516,.F.);
#279=ORIENTED_EDGE('',*,*,#514,.F.);
#280=ORIENTED_EDGE('',*,*,#512,.F.);
#281=ORIENTED_EDGE('',*,*,#506,.F.);
#282=ORIENTED_EDGE('',*,*,#504,.F.);
#283=ORIENTED_EDGE('',*,*,#502,.F.);
#284=ORIENTED_EDGE('',*,*,#500,.F.);
#285=ORIENTED_EDGE('',*,*,#498,.F.);
#286=ORIENTED_EDGE('',*,*,#496,.F.);
#287=ORIENTED_EDGE('',*,*,#494,.F.);
#288=ORIENTED_EDGE('',*,*,#488,.F.);
#289=ORIENTED_EDGE('',*,*,#486,.F.);
#290=ORIENTED_EDGE('',*,*,#484,.F.);
#291=ORIENTED_EDGE('',*,*,#482,.F.);
#292=ORIENTED_EDGE('',*,*,#480,.F.);
#293=ORIENTED_EDGE('',*,*,#478,.F.);
#294=ORIENTED_EDGE('',*,*,#476,.F.);
#295=ORIENTED_EDGE('',*,*,#474,.F.);
#296=ORIENTED_EDGE('',*,*,#472,.F.);
#297=ORIENTED_EDGE('',*,*,#470,.F.);
#298=ORIENTED_EDGE('',*,*,#468,.F.);
#299=ORIENTED_EDGE('',*,*,#466,.F.);
#300=ORIENTED_EDGE('',*,*,#464,.F.);
#301=ORIENTED_EDGE('',*,*,#462,.F.);
#302=ORIENTED_EDGE('',*,*,#526,.T.);
#303=ORIENTED_EDGE('',*,*,#527,.T.);
#304=ORIENTED_EDGE('',*,*,#459,.F.);
#305=ORIENTED_EDGE('',*,*,#528,.T.);
#306=ORIENTED_EDGE('',*,*,#521,.F.);
#307=ORIENTED_EDGE('',*,*,#529,.T.);
#308=ORIENTED_EDGE('',*,*,#509,.F.);
#309=ORIENTED_EDGE('',*,*,#530,.T.);
#310=ORIENTED_EDGE('',*,*,#491,.F.);
#311=ORIENTED_EDGE('',*,*,#531,.T.);
#312=ORIENTED_EDGE('',*,*,#414,.F.);
#313=ORIENTED_EDGE('',*,*,#417,.F.);
#314=ORIENTED_EDGE('',*,*,#456,.F.);
#315=ORIENTED_EDGE('',*,*,#454,.F.);
#316=ORIENTED_EDGE('',*,*,#452,.F.);
#317=ORIENTED_EDGE('',*,*,#450,.F.);
#318=ORIENTED_EDGE('',*,*,#448,.F.);
#319=ORIENTED_EDGE('',*,*,#446,.F.);
#320=ORIENTED_EDGE('',*,*,#444,.F.);
#321=ORIENTED_EDGE('',*,*,#442,.F.);
#322=ORIENTED_EDGE('',*,*,#440,.F.);
#323=ORIENTED_EDGE('',*,*,#438,.F.);
#324=ORIENTED_EDGE('',*,*,#436,.F.);
#325=ORIENTED_EDGE('',*,*,#434,.F.);
#326=ORIENTED_EDGE('',*,*,#432,.F.);
#327=ORIENTED_EDGE('',*,*,#430,.F.);
#328=ORIENTED_EDGE('',*,*,#428,.F.);
#329=ORIENTED_EDGE('',*,*,#426,.F.);
#330=ORIENTED_EDGE('',*,*,#424,.F.);
#331=ORIENTED_EDGE('',*,*,#422,.F.);
#332=ORIENTED_EDGE('',*,*,#420,.F.);
#333=ORIENTED_EDGE('',*,*,#418,.F.);
#334=ORIENTED_EDGE('',*,*,#532,.F.);
#335=ORIENTED_EDGE('',*,*,#524,.F.);
#336=ORIENTED_EDGE('',*,*,#415,.T.);
#337=ORIENTED_EDGE('',*,*,#412,.T.);
#338=ORIENTED_EDGE('',*,*,#533,.F.);
#339=ORIENTED_EDGE('',*,*,#493,.T.);
#340=ORIENTED_EDGE('',*,*,#534,.F.);
#341=ORIENTED_EDGE('',*,*,#511,.T.);
#342=ORIENTED_EDGE('',*,*,#535,.F.);
#343=ORIENTED_EDGE('',*,*,#523,.T.);
#344=ORIENTED_EDGE('',*,*,#536,.F.);
#345=ORIENTED_EDGE('',*,*,#461,.T.);
#346=ORIENTED_EDGE('',*,*,#519,.T.);
#347=ORIENTED_EDGE('',*,*,#517,.T.);
#348=ORIENTED_EDGE('',*,*,#515,.T.);
#349=ORIENTED_EDGE('',*,*,#513,.T.);
#350=ORIENTED_EDGE('',*,*,#507,.T.);
#351=ORIENTED_EDGE('',*,*,#505,.T.);
#352=ORIENTED_EDGE('',*,*,#503,.T.);
#353=ORIENTED_EDGE('',*,*,#501,.T.);
#354=ORIENTED_EDGE('',*,*,#499,.T.);
#355=ORIENTED_EDGE('',*,*,#497,.T.);
#356=ORIENTED_EDGE('',*,*,#495,.T.);
#357=ORIENTED_EDGE('',*,*,#489,.T.);
#358=ORIENTED_EDGE('',*,*,#487,.T.);
#359=ORIENTED_EDGE('',*,*,#485,.T.);
#360=ORIENTED_EDGE('',*,*,#483,.T.);
#361=ORIENTED_EDGE('',*,*,#481,.T.);
#362=ORIENTED_EDGE('',*,*,#479,.T.);
#363=ORIENTED_EDGE('',*,*,#477,.T.);
#364=ORIENTED_EDGE('',*,*,#475,.T.);
#365=ORIENTED_EDGE('',*,*,#473,.T.);
#366=ORIENTED_EDGE('',*,*,#471,.T.);
#367=ORIENTED_EDGE('',*,*,#469,.T.);
#368=ORIENTED_EDGE('',*,*,#467,.T.);
#369=ORIENTED_EDGE('',*,*,#465,.T.);
#370=ORIENTED_EDGE('',*,*,#463,.T.);
#371=ORIENTED_EDGE('',*,*,#457,.T.);
#372=ORIENTED_EDGE('',*,*,#455,.T.);
#373=ORIENTED_EDGE('',*,*,#453,.T.);
#374=ORIENTED_EDGE('',*,*,#451,.T.);
#375=ORIENTED_EDGE('',*,*,#449,.T.);
#376=ORIENTED_EDGE('',*,*,#447,.T.);
#377=ORIENTED_EDGE('',*,*,#445,.T.);
#378=ORIENTED_EDGE('',*,*,#443,.T.);
#379=ORIENTED_EDGE('',*,*,#441,.T.);
#380=ORIENTED_EDGE('',*,*,#439,.T.);
#381=ORIENTED_EDGE('',*,*,#437,.T.);
#382=ORIENTED_EDGE('',*,*,#435,.T.);
#383=ORIENTED_EDGE('',*,*,#433,.T.);
#384=ORIENTED_EDGE('',*,*,#431,.T.);
#385=ORIENTED_EDGE('',*,*,#429,.T.);
#386=ORIENTED_EDGE('',*,*,#427,.T.);
#387=ORIENTED_EDGE('',*,*,#425,.T.);
#388=ORIENTED_EDGE('',*,*,#423,.T.);
#389=ORIENTED_EDGE('',*,*,#421,.T.);
#390=ORIENTED_EDGE('',*,*,#419,.T.);
#391=ORIENTED_EDGE('',*,*,#490,.T.);
#392=ORIENTED_EDGE('',*,*,#533,.T.);
#393=ORIENTED_EDGE('',*,*,#411,.T.);
#394=ORIENTED_EDGE('',*,*,#531,.F.);
#395=ORIENTED_EDGE('',*,*,#508,.T.);
#396=ORIENTED_EDGE('',*,*,#534,.T.);
#397=ORIENTED_EDGE('',*,*,#492,.T.);
#398=ORIENTED_EDGE('',*,*,#530,.F.);
#399=ORIENTED_EDGE('',*,*,#520,.T.);
#400=ORIENTED_EDGE('',*,*,#535,.T.);
#401=ORIENTED_EDGE('',*,*,#510,.T.);
#402=ORIENTED_EDGE('',*,*,#529,.F.);
#403=ORIENTED_EDGE('',*,*,#458,.T.);
#404=ORIENTED_EDGE('',*,*,#536,.T.);
#405=ORIENTED_EDGE('',*,*,#522,.T.);
#406=ORIENTED_EDGE('',*,*,#528,.F.);
#407=ORIENTED_EDGE('',*,*,#525,.F.);
#408=ORIENTED_EDGE('',*,*,#532,.T.);
#409=ORIENTED_EDGE('',*,*,#460,.T.);
#410=ORIENTED_EDGE('',*,*,#527,.F.);
#411=EDGE_CURVE('',#537,#538,#651,.T.);
#412=EDGE_CURVE('',#539,#537,#652,.T.);
#413=EDGE_CURVE('',#540,#539,#653,.T.);
#414=EDGE_CURVE('',#540,#538,#654,.T.);
#415=EDGE_CURVE('',#541,#539,#655,.T.);
#416=EDGE_CURVE('',#542,#541,#656,.T.);
#417=EDGE_CURVE('',#542,#540,#657,.T.);
#418=EDGE_CURVE('',#543,#543,#12,.F.);
#419=EDGE_CURVE('',#544,#544,#13,.F.);
#420=EDGE_CURVE('',#545,#545,#14,.F.);
#421=EDGE_CURVE('',#546,#546,#15,.F.);
#422=EDGE_CURVE('',#547,#547,#16,.F.);
#423=EDGE_CURVE('',#548,#548,#17,.F.);
#424=EDGE_CURVE('',#549,#549,#18,.F.);
#425=EDGE_CURVE('',#550,#550,#19,.F.);
#426=EDGE_CURVE('',#551,#551,#20,.F.);
#427=EDGE_CURVE('',#552,#552,#21,.F.);
#428=EDGE_CURVE('',#553,#553,#22,.F.);
#429=EDGE_CURVE('',#554,#554,#23,.F.);
#430=EDGE_CURVE('',#555,#555,#24,.F.);
#431=EDGE_CURVE('',#556,#556,#25,.F.);
#432=EDGE_CURVE('',#557,#557,#26,.F.);
#433=EDGE_CURVE('',#558,#558,#27,.F.);
#434=EDGE_CURVE('',#559,#559,#28,.F.);
#435=EDGE_CURVE('',#560,#560,#29,.F.);
#436=EDGE_CURVE('',#561,#561,#30,.F.);
#437=EDGE_CURVE('',#562,#562,#31,.F.);
#438=EDGE_CURVE('',#563,#563,#32,.F.);
#439=EDGE_CURVE('',#564,#564,#33,.F.);
#440=EDGE_CURVE('',#565,#565,#34,.F.);
#441=EDGE_CURVE('',#566,#566,#35,.F.);
#442=EDGE_CURVE('',#567,#567,#36,.F.);
#443=EDGE_CURVE('',#568,#568,#37,.F.);
#444=EDGE_CURVE('',#569,#569,#38,.F.);
#445=EDGE_CURVE('',#570,#570,#39,.F.);
#446=EDGE_CURVE('',#571,#571,#40,.F.);
#447=EDGE_CURVE('',#572,#572,#41,.F.);
#448=EDGE_CURVE('',#573,#573,#42,.F.);
#449=EDGE_CURVE('',#574,#574,#43,.F.);
#450=EDGE_CURVE('',#575,#575,#44,.F.);
#451=EDGE_CURVE('',#576,#576,#45,.F.);
#452=EDGE_CURVE('',#577,#577,#46,.F.);
#453=EDGE_CURVE('',#578,#578,#47,.F.);
#454=EDGE_CURVE('',#579,#579,#48,.F.);
#455=EDGE_CURVE('',#580,#580,#49,.F.);
#456=EDGE_CURVE('',#581,#581,#50,.F.);
#457=EDGE_CURVE('',#582,#582,#51,.F.);
#458=EDGE_CURVE('',#583,#584,#658,.T.);
#459=EDGE_CURVE('',#583,#585,#52,.F.);
#460=EDGE_CURVE('',#586,#585,#659,.F.);
#461=EDGE_CURVE('',#584,#586,#53,.F.);
#462=EDGE_CURVE('',#587,#587,#54,.F.);
#463=EDGE_CURVE('',#588,#588,#55,.F.);
#464=EDGE_CURVE('',#589,#589,#56,.F.);
#465=EDGE_CURVE('',#590,#590,#57,.F.);
#466=EDGE_CURVE('',#591,#591,#58,.F.);
#467=EDGE_CURVE('',#592,#592,#59,.F.);
#468=EDGE_CURVE('',#593,#593,#60,.F.);
#469=EDGE_CURVE('',#594,#594,#61,.F.);
#470=EDGE_CURVE('',#595,#595,#62,.F.);
#471=EDGE_CURVE('',#596,#596,#63,.F.);
#472=EDGE_CURVE('',#597,#597,#64,.F.);
#473=EDGE_CURVE('',#598,#598,#65,.F.);
#474=EDGE_CURVE('',#599,#599,#66,.F.);
#475=EDGE_CURVE('',#600,#600,#67,.F.);
#476=EDGE_CURVE('',#601,#601,#68,.F.);
#477=EDGE_CURVE('',#602,#602,#69,.F.);
#478=EDGE_CURVE('',#603,#603,#70,.F.);
#479=EDGE_CURVE('',#604,#604,#71,.F.);
#480=EDGE_CURVE('',#605,#605,#72,.F.);
#481=EDGE_CURVE('',#606,#606,#73,.F.);
#482=EDGE_CURVE('',#607,#607,#74,.F.);
#483=EDGE_CURVE('',#608,#608,#75,.F.);
#484=EDGE_CURVE('',#609,#609,#76,.F.);
#485=EDGE_CURVE('',#610,#610,#77,.F.);
#486=EDGE_CURVE('',#611,#611,#78,.F.);
#487=EDGE_CURVE('',#612,#612,#79,.F.);
#488=EDGE_CURVE('',#613,#613,#80,.F.);
#489=EDGE_CURVE('',#614,#614,#81,.F.);
#490=EDGE_CURVE('',#615,#616,#660,.T.);
#491=EDGE_CURVE('',#615,#617,#82,.F.);
#492=EDGE_CURVE('',#618,#617,#661,.F.);
#493=EDGE_CURVE('',#616,#618,#83,.F.);
#494=EDGE_CURVE('',#619,#619,#84,.F.);
#495=EDGE_CURVE('',#620,#620,#85,.F.);
#496=EDGE_CURVE('',#621,#621,#86,.F.);
#497=EDGE_CURVE('',#622,#622,#87,.F.);
#498=EDGE_CURVE('',#623,#623,#88,.F.);
#499=EDGE_CURVE('',#624,#624,#89,.F.);
#500=EDGE_CURVE('',#625,#625,#90,.F.);
#501=EDGE_CURVE('',#626,#626,#91,.F.);
#502=EDGE_CURVE('',#627,#627,#92,.F.);
#503=EDGE_CURVE('',#628,#628,#93,.F.);
#504=EDGE_CURVE('',#629,#629,#94,.F.);
#505=EDGE_CURVE('',#630,#630,#95,.F.);
#506=EDGE_CURVE('',#631,#631,#96,.F.);
#507=EDGE_CURVE('',#632,#632,#97,.F.);
#508=EDGE_CURVE('',#633,#634,#662,.T.);
#509=EDGE_CURVE('',#633,#635,#98,.F.);
#510=EDGE_CURVE('',#636,#635,#663,.F.);
#511=EDGE_CURVE('',#634,#636,#99,.F.);
#512=EDGE_CURVE('',#637,#637,#100,.F.);
#513=EDGE_CURVE('',#638,#638,#101,.F.);
#514=EDGE_CURVE('',#639,#639,#102,.F.);
#515=EDGE_CURVE('',#640,#640,#103,.F.);
#516=EDGE_CURVE('',#641,#641,#104,.F.);
#517=EDGE_CURVE('',#642,#642,#105,.F.);
#518=EDGE_CURVE('',#643,#643,#106,.F.);
#519=EDGE_CURVE('',#644,#644,#107,.F.);
#520=EDGE_CURVE('',#645,#646,#664,.T.);
#521=EDGE_CURVE('',#645,#647,#108,.F.);
#522=EDGE_CURVE('',#648,#647,#665,.F.);
#523=EDGE_CURVE('',#646,#648,#109,.F.);
#524=EDGE_CURVE('',#541,#649,#666,.T.);
#525=EDGE_CURVE('',#649,#650,#667,.T.);
#526=EDGE_CURVE('',#542,#650,#668,.T.);
#527=EDGE_CURVE('',#650,#585,#669,.T.);
#528=EDGE_CURVE('',#583,#647,#670,.T.);
#529=EDGE_CURVE('',#645,#635,#671,.T.);
#530=EDGE_CURVE('',#633,#617,#672,.T.);
#531=EDGE_CURVE('',#615,#538,#673,.T.);
#532=EDGE_CURVE('',#649,#586,#674,.T.);
#533=EDGE_CURVE('',#616,#537,#675,.T.);
#534=EDGE_CURVE('',#634,#618,#676,.T.);
#535=EDGE_CURVE('',#646,#636,#677,.T.);
#536=EDGE_CURVE('',#584,#648,#678,.T.);
#537=VERTEX_POINT('',#1681);
#538=VERTEX_POINT('',#1682);
#539=VERTEX_POINT('',#1684);
#540=VERTEX_POINT('',#1686);
#541=VERTEX_POINT('',#1690);
#542=VERTEX_POINT('',#1692);
#543=VERTEX_POINT('',#1696);
#544=VERTEX_POINT('',#1698);
#545=VERTEX_POINT('',#1701);
#546=VERTEX_POINT('',#1703);
#547=VERTEX_POINT('',#1706);
#548=VERTEX_POINT('',#1708);
#549=VERTEX_POINT('',#1711);
#550=VERTEX_POINT('',#1713);
#551=VERTEX_POINT('',#1716);
#552=VERTEX_POINT('',#1718);
#553=VERTEX_POINT('',#1721);
#554=VERTEX_POINT('',#1723);
#555=VERTEX_POINT('',#1726);
#556=VERTEX_POINT('',#1728);
#557=VERTEX_POINT('',#1731);
#558=VERTEX_POINT('',#1733);
#559=VERTEX_POINT('',#1736);
#560=VERTEX_POINT('',#1738);
#561=VERTEX_POINT('',#1741);
#562=VERTEX_POINT('',#1743);
#563=VERTEX_POINT('',#1746);
#564=VERTEX_POINT('',#1748);
#565=VERTEX_POINT('',#1751);
#566=VERTEX_POINT('',#1753);
#567=VERTEX_POINT('',#1756);
#568=VERTEX_POINT('',#1758);
#569=VERTEX_POINT('',#1761);
#570=VERTEX_POINT('',#1763);
#571=VERTEX_POINT('',#1766);
#572=VERTEX_POINT('',#1768);
#573=VERTEX_POINT('',#1771);
#574=VERTEX_POINT('',#1773);
#575=VERTEX_POINT('',#1776);
#576=VERTEX_POINT('',#1778);
#577=VERTEX_POINT('',#1781);
#578=VERTEX_POINT('',#1783);
#579=VERTEX_POINT('',#1786);
#580=VERTEX_POINT('',#1788);
#581=VERTEX_POINT('',#1791);
#582=VERTEX_POINT('',#1793);
#583=VERTEX_POINT('',#1796);
#584=VERTEX_POINT('',#1797);
#585=VERTEX_POINT('',#1799);
#586=VERTEX_POINT('',#1801);
#587=VERTEX_POINT('',#1805);
#588=VERTEX_POINT('',#1807);
#589=VERTEX_POINT('',#1810);
#590=VERTEX_POINT('',#1812);
#591=VERTEX_POINT('',#1815);
#592=VERTEX_POINT('',#1817);
#593=VERTEX_POINT('',#1820);
#594=VERTEX_POINT('',#1822);
#595=VERTEX_POINT('',#1825);
#596=VERTEX_POINT('',#1827);
#597=VERTEX_POINT('',#1830);
#598=VERTEX_POINT('',#1832);
#599=VERTEX_POINT('',#1835);
#600=VERTEX_POINT('',#1837);
#601=VERTEX_POINT('',#1840);
#602=VERTEX_POINT('',#1842);
#603=VERTEX_POINT('',#1845);
#604=VERTEX_POINT('',#1847);
#605=VERTEX_POINT('',#1850);
#606=VERTEX_POINT('',#1852);
#607=VERTEX_POINT('',#1855);
#608=VERTEX_POINT('',#1857);
#609=VERTEX_POINT('',#1860);
#610=VERTEX_POINT('',#1862);
#611=VERTEX_POINT('',#1865);
#612=VERTEX_POINT('',#1867);
#613=VERTEX_POINT('',#1870);
#614=VERTEX_POINT('',#1872);
#615=VERTEX_POINT('',#1875);
#616=VERTEX_POINT('',#1876);
#617=VERTEX_POINT('',#1878);
#618=VERTEX_POINT('',#1880);
#619=VERTEX_POINT('',#1884);
#620=VERTEX_POINT('',#1886);
#621=VERTEX_POINT('',#1889);
#622=VERTEX_POINT('',#1891);
#623=VERTEX_POINT('',#1894);
#624=VERTEX_POINT('',#1896);
#625=VERTEX_POINT('',#1899);
#626=VERTEX_POINT('',#1901);
#627=VERTEX_POINT('',#1904);
#628=VERTEX_POINT('',#1906);
#629=VERTEX_POINT('',#1909);
#630=VERTEX_POINT('',#1911);
#631=VERTEX_POINT('',#1914);
#632=VERTEX_POINT('',#1916);
#633=VERTEX_POINT('',#1919);
#634=VERTEX_POINT('',#1920);
#635=VERTEX_POINT('',#1922);
#636=VERTEX_POINT('',#1924);
#637=VERTEX_POINT('',#1928);
#638=VERTEX_POINT('',#1930);
#639=VERTEX_POINT('',#1933);
#640=VERTEX_POINT('',#1935);
#641=VERTEX_POINT('',#1938);
#642=VERTEX_POINT('',#1940);
#643=VERTEX_POINT('',#1943);
#644=VERTEX_POINT('',#1945);
#645=VERTEX_POINT('',#1948);
#646=VERTEX_POINT('',#1949);
#647=VERTEX_POINT('',#1951);
#648=VERTEX_POINT('',#1953);
#649=VERTEX_POINT('',#1957);
#650=VERTEX_POINT('',#1959);
#651=LINE('',#1680,#679);
#652=LINE('',#1683,#680);
#653=LINE('',#1685,#681);
#654=LINE('',#1687,#682);
#655=LINE('',#1689,#683);
#656=LINE('',#1691,#684);
#657=LINE('',#1693,#685);
#658=LINE('',#1795,#686);
#659=LINE('',#1800,#687);
#660=LINE('',#1874,#688);
#661=LINE('',#1879,#689);
#662=LINE('',#1918,#690);
#663=LINE('',#1923,#691);
#664=LINE('',#1947,#692);
#665=LINE('',#1952,#693);
#666=LINE('',#1956,#694);
#667=LINE('',#1958,#695);
#668=LINE('',#1960,#696);
#669=LINE('',#1962,#697);
#670=LINE('',#1963,#698);
#671=LINE('',#1964,#699);
#672=LINE('',#1965,#700);
#673=LINE('',#1966,#701);
#674=LINE('',#1968,#702);
#675=LINE('',#1969,#703);
#676=LINE('',#1970,#704);
#677=LINE('',#1971,#705);
#678=LINE('',#1972,#706);
#679=VECTOR('',#1338,1.);
#680=VECTOR('',#1339,1.);
#681=VECTOR('',#1340,1.);
#682=VECTOR('',#1341,1.);
#683=VECTOR('',#1344,1.);
#684=VECTOR('',#1345,1.);
#685=VECTOR('',#1346,1.);
#686=VECTOR('',#1469,1.);
#687=VECTOR('',#1472,1.);
#688=VECTOR('',#1561,1.);
#689=VECTOR('',#1564,1.);
#690=VECTOR('',#1611,1.);
#691=VECTOR('',#1614,1.);
#692=VECTOR('',#1643,1.);
#693=VECTOR('',#1646,1.);
#694=VECTOR('',#1651,1.);
#695=VECTOR('',#1652,1.);
#696=VECTOR('',#1653,1.);
#697=VECTOR('',#1656,1.);
#698=VECTOR('',#1657,1.);
#699=VECTOR('',#1658,1.);
#700=VECTOR('',#1659,1.);
#701=VECTOR('',#1660,1.);
#702=VECTOR('',#1663,1.);
#703=VECTOR('',#1664,1.);
#704=VECTOR('',#1665,1.);
#705=VECTOR('',#1666,1.);
#706=VECTOR('',#1667,1.);
#707=EDGE_LOOP('',(#159,#160,#161,#162));
#708=EDGE_LOOP('',(#163,#164,#165,#166));
#709=EDGE_LOOP('',(#167));
#710=EDGE_LOOP('',(#168));
#711=EDGE_LOOP('',(#169));
#712=EDGE_LOOP('',(#170));
#713=EDGE_LOOP('',(#171));
#714=EDGE_LOOP('',(#172));
#715=EDGE_LOOP('',(#173));
#716=EDGE_LOOP('',(#174));
#717=EDGE_LOOP('',(#175));
#718=EDGE_LOOP('',(#176));
#719=EDGE_LOOP('',(#177));
#720=EDGE_LOOP('',(#178));
#721=EDGE_LOOP('',(#179));
#722=EDGE_LOOP('',(#180));
#723=EDGE_LOOP('',(#181));
#724=EDGE_LOOP('',(#182));
#725=EDGE_LOOP('',(#183));
#726=EDGE_LOOP('',(#184));
#727=EDGE_LOOP('',(#185));
#728=EDGE_LOOP('',(#186));
#729=EDGE_LOOP('',(#187));
#730=EDGE_LOOP('',(#188));
#731=EDGE_LOOP('',(#189));
#732=EDGE_LOOP('',(#190));
#733=EDGE_LOOP('',(#191));
#734=EDGE_LOOP('',(#192));
#735=EDGE_LOOP('',(#193));
#736=EDGE_LOOP('',(#194));
#737=EDGE_LOOP('',(#195));
#738=EDGE_LOOP('',(#196));
#739=EDGE_LOOP('',(#197));
#740=EDGE_LOOP('',(#198));
#741=EDGE_LOOP('',(#199));
#742=EDGE_LOOP('',(#200));
#743=EDGE_LOOP('',(#201));
#744=EDGE_LOOP('',(#202));
#745=EDGE_LOOP('',(#203));
#746=EDGE_LOOP('',(#204));
#747=EDGE_LOOP('',(#205));
#748=EDGE_LOOP('',(#206));
#749=EDGE_LOOP('',(#207,#208,#209,#210));
#750=EDGE_LOOP('',(#211));
#751=EDGE_LOOP('',(#212));
#752=EDGE_LOOP('',(#213));
#753=EDGE_LOOP('',(#214));
#754=EDGE_LOOP('',(#215));
#755=EDGE_LOOP('',(#216));
#756=EDGE_LOOP('',(#217));
#757=EDGE_LOOP('',(#218));
#758=EDGE_LOOP('',(#219));
#759=EDGE_LOOP('',(#220));
#760=EDGE_LOOP('',(#221));
#761=EDGE_LOOP('',(#222));
#762=EDGE_LOOP('',(#223));
#763=EDGE_LOOP('',(#224));
#764=EDGE_LOOP('',(#225));
#765=EDGE_LOOP('',(#226));
#766=EDGE_LOOP('',(#227));
#767=EDGE_LOOP('',(#228));
#768=EDGE_LOOP('',(#229));
#769=EDGE_LOOP('',(#230));
#770=EDGE_LOOP('',(#231));
#771=EDGE_LOOP('',(#232));
#772=EDGE_LOOP('',(#233));
#773=EDGE_LOOP('',(#234));
#774=EDGE_LOOP('',(#235));
#775=EDGE_LOOP('',(#236));
#776=EDGE_LOOP('',(#237));
#777=EDGE_LOOP('',(#238));
#778=EDGE_LOOP('',(#239,#240,#241,#242));
#779=EDGE_LOOP('',(#243));
#780=EDGE_LOOP('',(#244));
#781=EDGE_LOOP('',(#245));
#782=EDGE_LOOP('',(#246));
#783=EDGE_LOOP('',(#247));
#784=EDGE_LOOP('',(#248));
#785=EDGE_LOOP('',(#249));
#786=EDGE_LOOP('',(#250));
#787=EDGE_LOOP('',(#251));
#788=EDGE_LOOP('',(#252));
#789=EDGE_LOOP('',(#253));
#790=EDGE_LOOP('',(#254));
#791=EDGE_LOOP('',(#255));
#792=EDGE_LOOP('',(#256));
#793=EDGE_LOOP('',(#257,#258,#259,#260));
#794=EDGE_LOOP('',(#261));
#795=EDGE_LOOP('',(#262));
#796=EDGE_LOOP('',(#263));
#797=EDGE_LOOP('',(#264));
#798=EDGE_LOOP('',(#265));
#799=EDGE_LOOP('',(#266));
#800=EDGE_LOOP('',(#267));
#801=EDGE_LOOP('',(#268));
#802=EDGE_LOOP('',(#269,#270,#271,#272));
#803=EDGE_LOOP('',(#273,#274,#275,#276));
#804=EDGE_LOOP('',(#277));
#805=EDGE_LOOP('',(#278));
#806=EDGE_LOOP('',(#279));
#807=EDGE_LOOP('',(#280));
#808=EDGE_LOOP('',(#281));
#809=EDGE_LOOP('',(#282));
#810=EDGE_LOOP('',(#283));
#811=EDGE_LOOP('',(#284));
#812=EDGE_LOOP('',(#285));
#813=EDGE_LOOP('',(#286));
#814=EDGE_LOOP('',(#287));
#815=EDGE_LOOP('',(#288));
#816=EDGE_LOOP('',(#289));
#817=EDGE_LOOP('',(#290));
#818=EDGE_LOOP('',(#291));
#819=EDGE_LOOP('',(#292));
#820=EDGE_LOOP('',(#293));
#821=EDGE_LOOP('',(#294));
#822=EDGE_LOOP('',(#295));
#823=EDGE_LOOP('',(#296));
#824=EDGE_LOOP('',(#297));
#825=EDGE_LOOP('',(#298));
#826=EDGE_LOOP('',(#299));
#827=EDGE_LOOP('',(#300));
#828=EDGE_LOOP('',(#301));
#829=EDGE_LOOP('',(#302,#303,#304,#305,#306,#307,#308,#309,#310,#311,#312,
#313));
#830=EDGE_LOOP('',(#314));
#831=EDGE_LOOP('',(#315));
#832=EDGE_LOOP('',(#316));
#833=EDGE_LOOP('',(#317));
#834=EDGE_LOOP('',(#318));
#835=EDGE_LOOP('',(#319));
#836=EDGE_LOOP('',(#320));
#837=EDGE_LOOP('',(#321));
#838=EDGE_LOOP('',(#322));
#839=EDGE_LOOP('',(#323));
#840=EDGE_LOOP('',(#324));
#841=EDGE_LOOP('',(#325));
#842=EDGE_LOOP('',(#326));
#843=EDGE_LOOP('',(#327));
#844=EDGE_LOOP('',(#328));
#845=EDGE_LOOP('',(#329));
#846=EDGE_LOOP('',(#330));
#847=EDGE_LOOP('',(#331));
#848=EDGE_LOOP('',(#332));
#849=EDGE_LOOP('',(#333));
#850=EDGE_LOOP('',(#334,#335,#336,#337,#338,#339,#340,#341,#342,#343,#344,
#345));
#851=EDGE_LOOP('',(#346));
#852=EDGE_LOOP('',(#347));
#853=EDGE_LOOP('',(#348));
#854=EDGE_LOOP('',(#349));
#855=EDGE_LOOP('',(#350));
#856=EDGE_LOOP('',(#351));
#857=EDGE_LOOP('',(#352));
#858=EDGE_LOOP('',(#353));
#859=EDGE_LOOP('',(#354));
#860=EDGE_LOOP('',(#355));
#861=EDGE_LOOP('',(#356));
#862=EDGE_LOOP('',(#357));
#863=EDGE_LOOP('',(#358));
#864=EDGE_LOOP('',(#359));
#865=EDGE_LOOP('',(#360));
#866=EDGE_LOOP('',(#361));
#867=EDGE_LOOP('',(#362));
#868=EDGE_LOOP('',(#363));
#869=EDGE_LOOP('',(#364));
#870=EDGE_LOOP('',(#365));
#871=EDGE_LOOP('',(#366));
#872=EDGE_LOOP('',(#367));
#873=EDGE_LOOP('',(#368));
#874=EDGE_LOOP('',(#369));
#875=EDGE_LOOP('',(#370));
#876=EDGE_LOOP('',(#371));
#877=EDGE_LOOP('',(#372));
#878=EDGE_LOOP('',(#373));
#879=EDGE_LOOP('',(#374));
#880=EDGE_LOOP('',(#375));
#881=EDGE_LOOP('',(#376));
#882=EDGE_LOOP('',(#377));
#883=EDGE_LOOP('',(#378));
#884=EDGE_LOOP('',(#379));
#885=EDGE_LOOP('',(#380));
#886=EDGE_LOOP('',(#381));
#887=EDGE_LOOP('',(#382));
#888=EDGE_LOOP('',(#383));
#889=EDGE_LOOP('',(#384));
#890=EDGE_LOOP('',(#385));
#891=EDGE_LOOP('',(#386));
#892=EDGE_LOOP('',(#387));
#893=EDGE_LOOP('',(#388));
#894=EDGE_LOOP('',(#389));
#895=EDGE_LOOP('',(#390));
#896=EDGE_LOOP('',(#391,#392,#393,#394));
#897=EDGE_LOOP('',(#395,#396,#397,#398));
#898=EDGE_LOOP('',(#399,#400,#401,#402));
#899=EDGE_LOOP('',(#403,#404,#405,#406));
#900=EDGE_LOOP('',(#407,#408,#409,#410));
#901=FACE_BOUND('',#707,.T.);
#902=FACE_BOUND('',#708,.T.);
#903=FACE_BOUND('',#709,.T.);
#904=FACE_BOUND('',#710,.T.);
#905=FACE_BOUND('',#711,.T.);
#906=FACE_BOUND('',#712,.T.);
#907=FACE_BOUND('',#713,.T.);
#908=FACE_BOUND('',#714,.T.);
#909=FACE_BOUND('',#715,.T.);
#910=FACE_BOUND('',#716,.T.);
#911=FACE_BOUND('',#717,.T.);
#912=FACE_BOUND('',#718,.T.);
#913=FACE_BOUND('',#719,.T.);
#914=FACE_BOUND('',#720,.T.);
#915=FACE_BOUND('',#721,.T.);
#916=FACE_BOUND('',#722,.T.);
#917=FACE_BOUND('',#723,.T.);
#918=FACE_BOUND('',#724,.T.);
#919=FACE_BOUND('',#725,.T.);
#920=FACE_BOUND('',#726,.T.);
#921=FACE_BOUND('',#727,.T.);
#922=FACE_BOUND('',#728,.T.);
#923=FACE_BOUND('',#729,.T.);
#924=FACE_BOUND('',#730,.T.);
#925=FACE_BOUND('',#731,.T.);
#926=FACE_BOUND('',#732,.T.);
#927=FACE_BOUND('',#733,.T.);
#928=FACE_BOUND('',#734,.T.);
#929=FACE_BOUND('',#735,.T.);
#930=FACE_BOUND('',#736,.T.);
#931=FACE_BOUND('',#737,.T.);
#932=FACE_BOUND('',#738,.T.);
#933=FACE_BOUND('',#739,.T.);
#934=FACE_BOUND('',#740,.T.);
#935=FACE_BOUND('',#741,.T.);
#936=FACE_BOUND('',#742,.T.);
#937=FACE_BOUND('',#743,.T.);
#938=FACE_BOUND('',#744,.T.);
#939=FACE_BOUND('',#745,.T.);
#940=FACE_BOUND('',#746,.T.);
#941=FACE_BOUND('',#747,.T.);
#942=FACE_BOUND('',#748,.T.);
#943=FACE_BOUND('',#749,.T.);
#944=FACE_BOUND('',#750,.T.);
#945=FACE_BOUND('',#751,.T.);
#946=FACE_BOUND('',#752,.T.);
#947=FACE_BOUND('',#753,.T.);
#948=FACE_BOUND('',#754,.T.);
#949=FACE_BOUND('',#755,.T.);
#950=FACE_BOUND('',#756,.T.);
#951=FACE_BOUND('',#757,.T.);
#952=FACE_BOUND('',#758,.T.);
#953=FACE_BOUND('',#759,.T.);
#954=FACE_BOUND('',#760,.T.);
#955=FACE_BOUND('',#761,.T.);
#956=FACE_BOUND('',#762,.T.);
#957=FACE_BOUND('',#763,.T.);
#958=FACE_BOUND('',#764,.T.);
#959=FACE_BOUND('',#765,.T.);
#960=FACE_BOUND('',#766,.T.);
#961=FACE_BOUND('',#767,.T.);
#962=FACE_BOUND('',#768,.T.);
#963=FACE_BOUND('',#769,.T.);
#964=FACE_BOUND('',#770,.T.);
#965=FACE_BOUND('',#771,.T.);
#966=FACE_BOUND('',#772,.T.);
#967=FACE_BOUND('',#773,.T.);
#968=FACE_BOUND('',#774,.T.);
#969=FACE_BOUND('',#775,.T.);
#970=FACE_BOUND('',#776,.T.);
#971=FACE_BOUND('',#777,.T.);
#972=FACE_BOUND('',#778,.T.);
#973=FACE_BOUND('',#779,.T.);
#974=FACE_BOUND('',#780,.T.);
#975=FACE_BOUND('',#781,.T.);
#976=FACE_BOUND('',#782,.T.);
#977=FACE_BOUND('',#783,.T.);
#978=FACE_BOUND('',#784,.T.);
#979=FACE_BOUND('',#785,.T.);
#980=FACE_BOUND('',#786,.T.);
#981=FACE_BOUND('',#787,.T.);
#982=FACE_BOUND('',#788,.T.);
#983=FACE_BOUND('',#789,.T.);
#984=FACE_BOUND('',#790,.T.);
#985=FACE_BOUND('',#791,.T.);
#986=FACE_BOUND('',#792,.T.);
#987=FACE_BOUND('',#793,.T.);
#988=FACE_BOUND('',#794,.T.);
#989=FACE_BOUND('',#795,.T.);
#990=FACE_BOUND('',#796,.T.);
#991=FACE_BOUND('',#797,.T.);
#992=FACE_BOUND('',#798,.T.);
#993=FACE_BOUND('',#799,.T.);
#994=FACE_BOUND('',#800,.T.);
#995=FACE_BOUND('',#801,.T.);
#996=FACE_BOUND('',#802,.T.);
#997=FACE_BOUND('',#803,.T.);
#998=FACE_BOUND('',#804,.T.);
#999=FACE_BOUND('',#805,.T.);
#1000=FACE_BOUND('',#806,.T.);
#1001=FACE_BOUND('',#807,.T.);
#1002=FACE_BOUND('',#808,.T.);
#1003=FACE_BOUND('',#809,.T.);
#1004=FACE_BOUND('',#810,.T.);
#1005=FACE_BOUND('',#811,.T.);
#1006=FACE_BOUND('',#812,.T.);
#1007=FACE_BOUND('',#813,.T.);
#1008=FACE_BOUND('',#814,.T.);
#1009=FACE_BOUND('',#815,.T.);
#1010=FACE_BOUND('',#816,.T.);
#1011=FACE_BOUND('',#817,.T.);
#1012=FACE_BOUND('',#818,.T.);
#1013=FACE_BOUND('',#819,.T.);
#1014=FACE_BOUND('',#820,.T.);
#1015=FACE_BOUND('',#821,.T.);
#1016=FACE_BOUND('',#822,.T.);
#1017=FACE_BOUND('',#823,.T.);
#1018=FACE_BOUND('',#824,.T.);
#1019=FACE_BOUND('',#825,.T.);
#1020=FACE_BOUND('',#826,.T.);
#1021=FACE_BOUND('',#827,.T.);
#1022=FACE_BOUND('',#828,.T.);
#1023=FACE_BOUND('',#829,.T.);
#1024=FACE_BOUND('',#830,.T.);
#1025=FACE_BOUND('',#831,.T.);
#1026=FACE_BOUND('',#832,.T.);
#1027=FACE_BOUND('',#833,.T.);
#1028=FACE_BOUND('',#834,.T.);
#1029=FACE_BOUND('',#835,.T.);
#1030=FACE_BOUND('',#836,.T.);
#1031=FACE_BOUND('',#837,.T.);
#1032=FACE_BOUND('',#838,.T.);
#1033=FACE_BOUND('',#839,.T.);
#1034=FACE_BOUND('',#840,.T.);
#1035=FACE_BOUND('',#841,.T.);
#1036=FACE_BOUND('',#842,.T.);
#1037=FACE_BOUND('',#843,.T.);
#1038=FACE_BOUND('',#844,.T.);
#1039=FACE_BOUND('',#845,.T.);
#1040=FACE_BOUND('',#846,.T.);
#1041=FACE_BOUND('',#847,.T.);
#1042=FACE_BOUND('',#848,.T.);
#1043=FACE_BOUND('',#849,.T.);
#1044=FACE_BOUND('',#850,.T.);
#1045=FACE_BOUND('',#851,.T.);
#1046=FACE_BOUND('',#852,.T.);
#1047=FACE_BOUND('',#853,.T.);
#1048=FACE_BOUND('',#854,.T.);
#1049=FACE_BOUND('',#855,.T.);
#1050=FACE_BOUND('',#856,.T.);
#1051=FACE_BOUND('',#857,.T.);
#1052=FACE_BOUND('',#858,.T.);
#1053=FACE_BOUND('',#859,.T.);
#1054=FACE_BOUND('',#860,.T.);
#1055=FACE_BOUND('',#861,.T.);
#1056=FACE_BOUND('',#862,.T.);
#1057=FACE_BOUND('',#863,.T.);
#1058=FACE_BOUND('',#864,.T.);
#1059=FACE_BOUND('',#865,.T.);
#1060=FACE_BOUND('',#866,.T.);
#1061=FACE_BOUND('',#867,.T.);
#1062=FACE_BOUND('',#868,.T.);
#1063=FACE_BOUND('',#869,.T.);
#1064=FACE_BOUND('',#870,.T.);
#1065=FACE_BOUND('',#871,.T.);
#1066=FACE_BOUND('',#872,.T.);
#1067=FACE_BOUND('',#873,.T.);
#1068=FACE_BOUND('',#874,.T.);
#1069=FACE_BOUND('',#875,.T.);
#1070=FACE_BOUND('',#876,.T.);
#1071=FACE_BOUND('',#877,.T.);
#1072=FACE_BOUND('',#878,.T.);
#1073=FACE_BOUND('',#879,.T.);
#1074=FACE_BOUND('',#880,.T.);
#1075=FACE_BOUND('',#881,.T.);
#1076=FACE_BOUND('',#882,.T.);
#1077=FACE_BOUND('',#883,.T.);
#1078=FACE_BOUND('',#884,.T.);
#1079=FACE_BOUND('',#885,.T.);
#1080=FACE_BOUND('',#886,.T.);
#1081=FACE_BOUND('',#887,.T.);
#1082=FACE_BOUND('',#888,.T.);
#1083=FACE_BOUND('',#889,.T.);
#1084=FACE_BOUND('',#890,.T.);
#1085=FACE_BOUND('',#891,.T.);
#1086=FACE_BOUND('',#892,.T.);
#1087=FACE_BOUND('',#893,.T.);
#1088=FACE_BOUND('',#894,.T.);
#1089=FACE_BOUND('',#895,.T.);
#1090=FACE_BOUND('',#896,.T.);
#1091=FACE_BOUND('',#897,.T.);
#1092=FACE_BOUND('',#898,.T.);
#1093=FACE_BOUND('',#899,.T.);
#1094=FACE_BOUND('',#900,.T.);
#1095=PLANE('',#1177);
#1096=PLANE('',#1178);
#1097=PLANE('',#1326);
#1098=PLANE('',#1327);
#1099=PLANE('',#1328);
#1100=PLANE('',#1329);
#1101=PLANE('',#1330);
#1102=PLANE('',#1331);
#1103=PLANE('',#1332);
#1104=PLANE('',#1333);
#1105=ADVANCED_FACE('',(#901),#1095,.T.);
#1106=ADVANCED_FACE('',(#902),#1096,.T.);
#1107=ADVANCED_FACE('',(#903,#904),#110,.F.);
#1108=ADVANCED_FACE('',(#905,#906),#111,.F.);
#1109=ADVANCED_FACE('',(#907,#908),#112,.F.);
#1110=ADVANCED_FACE('',(#909,#910),#113,.F.);
#1111=ADVANCED_FACE('',(#911,#912),#114,.F.);
#1112=ADVANCED_FACE('',(#913,#914),#115,.F.);
#1113=ADVANCED_FACE('',(#915,#916),#116,.F.);
#1114=ADVANCED_FACE('',(#917,#918),#117,.F.);
#1115=ADVANCED_FACE('',(#919,#920),#118,.F.);
#1116=ADVANCED_FACE('',(#921,#922),#119,.F.);
#1117=ADVANCED_FACE('',(#923,#924),#120,.F.);
#1118=ADVANCED_FACE('',(#925,#926),#121,.F.);
#1119=ADVANCED_FACE('',(#927,#928),#122,.F.);
#1120=ADVANCED_FACE('',(#929,#930),#123,.F.);
#1121=ADVANCED_FACE('',(#931,#932),#124,.F.);
#1122=ADVANCED_FACE('',(#933,#934),#125,.F.);
#1123=ADVANCED_FACE('',(#935,#936),#126,.F.);
#1124=ADVANCED_FACE('',(#937,#938),#127,.F.);
#1125=ADVANCED_FACE('',(#939,#940),#128,.F.);
#1126=ADVANCED_FACE('',(#941,#942),#129,.F.);
#1127=ADVANCED_FACE('',(#943),#130,.F.);
#1128=ADVANCED_FACE('',(#944,#945),#131,.F.);
#1129=ADVANCED_FACE('',(#946,#947),#132,.F.);
#1130=ADVANCED_FACE('',(#948,#949),#133,.F.);
#1131=ADVANCED_FACE('',(#950,#951),#134,.F.);
#1132=ADVANCED_FACE('',(#952,#953),#135,.F.);
#1133=ADVANCED_FACE('',(#954,#955),#136,.F.);
#1134=ADVANCED_FACE('',(#956,#957),#137,.F.);
#1135=ADVANCED_FACE('',(#958,#959),#138,.F.);
#1136=ADVANCED_FACE('',(#960,#961),#139,.F.);
#1137=ADVANCED_FACE('',(#962,#963),#140,.F.);
#1138=ADVANCED_FACE('',(#964,#965),#141,.F.);
#1139=ADVANCED_FACE('',(#966,#967),#142,.F.);
#1140=ADVANCED_FACE('',(#968,#969),#143,.F.);
#1141=ADVANCED_FACE('',(#970,#971),#144,.F.);
#1142=ADVANCED_FACE('',(#972),#145,.F.);
#1143=ADVANCED_FACE('',(#973,#974),#146,.F.);
#1144=ADVANCED_FACE('',(#975,#976),#147,.F.);
#1145=ADVANCED_FACE('',(#977,#978),#148,.F.);
#1146=ADVANCED_FACE('',(#979,#980),#149,.F.);
#1147=ADVANCED_FACE('',(#981,#982),#150,.F.);
#1148=ADVANCED_FACE('',(#983,#984),#151,.F.);
#1149=ADVANCED_FACE('',(#985,#986),#152,.F.);
#1150=ADVANCED_FACE('',(#987),#153,.F.);
#1151=ADVANCED_FACE('',(#988,#989),#154,.F.);
#1152=ADVANCED_FACE('',(#990,#991),#155,.F.);
#1153=ADVANCED_FACE('',(#992,#993),#156,.F.);
#1154=ADVANCED_FACE('',(#994,#995),#157,.F.);
#1155=ADVANCED_FACE('',(#996),#158,.F.);
#1156=ADVANCED_FACE('',(#997),#1097,.F.);
#1157=ADVANCED_FACE('',(#998,#999,#1000,#1001,#1002,#1003,#1004,#1005,#1006,
#1007,#1008,#1009,#1010,#1011,#1012,#1013,#1014,#1015,#1016,#1017,#1018,
#1019,#1020,#1021,#1022,#1023,#1024,#1025,#1026,#1027,#1028,#1029,#1030,
#1031,#1032,#1033,#1034,#1035,#1036,#1037,#1038,#1039,#1040,#1041,#1042,
#1043),#1098,.F.);
#1158=ADVANCED_FACE('',(#1044,#1045,#1046,#1047,#1048,#1049,#1050,#1051,
#1052,#1053,#1054,#1055,#1056,#1057,#1058,#1059,#1060,#1061,#1062,#1063,
#1064,#1065,#1066,#1067,#1068,#1069,#1070,#1071,#1072,#1073,#1074,#1075,
#1076,#1077,#1078,#1079,#1080,#1081,#1082,#1083,#1084,#1085,#1086,#1087,
#1088,#1089),#1099,.T.);
#1159=ADVANCED_FACE('',(#1090),#1100,.F.);
#1160=ADVANCED_FACE('',(#1091),#1101,.F.);
#1161=ADVANCED_FACE('',(#1092),#1102,.F.);
#1162=ADVANCED_FACE('',(#1093),#1103,.F.);
#1163=ADVANCED_FACE('',(#1094),#1104,.F.);
#1164=CLOSED_SHELL('',(#1105,#1106,#1107,#1108,#1109,#1110,#1111,#1112,
#1113,#1114,#1115,#1116,#1117,#1118,#1119,#1120,#1121,#1122,#1123,#1124,
#1125,#1126,#1127,#1128,#1129,#1130,#1131,#1132,#1133,#1134,#1135,#1136,
#1137,#1138,#1139,#1140,#1141,#1142,#1143,#1144,#1145,#1146,#1147,#1148,
#1149,#1150,#1151,#1152,#1153,#1154,#1155,#1156,#1157,#1158,#1159,#1160,
#1161,#1162,#1163));
#1165=STYLED_ITEM('',(#1166),#1173);
#1166=PRESENTATION_STYLE_ASSIGNMENT((#1167));
#1167=SURFACE_STYLE_USAGE(.BOTH.,#1168);
#1168=SURFACE_SIDE_STYLE('',(#1169));
#1169=SURFACE_STYLE_FILL_AREA(#1170);
#1170=FILL_AREA_STYLE('',(#1171));
#1171=FILL_AREA_STYLE_COLOUR('',#1172);
#1172=COLOUR_RGB('',0.980392156862745,0.713725490196078,0.00392156862745098);
#1173=MANIFOLD_SOLID_BREP('Alt Shielding ND-L',#1164);
#1174=SHAPE_DEFINITION_REPRESENTATION(#1984,#1175);
#1175=SHAPE_REPRESENTATION('Alt Shielding ND-L',(#1176),#1979);
#1176=AXIS2_PLACEMENT_3D('',#1678,#1334,#1335);
#1177=AXIS2_PLACEMENT_3D('',#1679,#1336,#1337);
#1178=AXIS2_PLACEMENT_3D('',#1688,#1342,#1343);
#1179=AXIS2_PLACEMENT_3D('',#1694,#1347,#1348);
#1180=AXIS2_PLACEMENT_3D('',#1695,#1349,#1350);
#1181=AXIS2_PLACEMENT_3D('',#1697,#1351,#1352);
#1182=AXIS2_PLACEMENT_3D('',#1699,#1353,#1354);
#1183=AXIS2_PLACEMENT_3D('',#1700,#1355,#1356);
#1184=AXIS2_PLACEMENT_3D('',#1702,#1357,#1358);
#1185=AXIS2_PLACEMENT_3D('',#1704,#1359,#1360);
#1186=AXIS2_PLACEMENT_3D('',#1705,#1361,#1362);
#1187=AXIS2_PLACEMENT_3D('',#1707,#1363,#1364);
#1188=AXIS2_PLACEMENT_3D('',#1709,#1365,#1366);
#1189=AXIS2_PLACEMENT_3D('',#1710,#1367,#1368);
#1190=AXIS2_PLACEMENT_3D('',#1712,#1369,#1370);
#1191=AXIS2_PLACEMENT_3D('',#1714,#1371,#1372);
#1192=AXIS2_PLACEMENT_3D('',#1715,#1373,#1374);
#1193=AXIS2_PLACEMENT_3D('',#1717,#1375,#1376);
#1194=AXIS2_PLACEMENT_3D('',#1719,#1377,#1378);
#1195=AXIS2_PLACEMENT_3D('',#1720,#1379,#1380);
#1196=AXIS2_PLACEMENT_3D('',#1722,#1381,#1382);
#1197=AXIS2_PLACEMENT_3D('',#1724,#1383,#1384);
#1198=AXIS2_PLACEMENT_3D('',#1725,#1385,#1386);
#1199=AXIS2_PLACEMENT_3D('',#1727,#1387,#1388);
#1200=AXIS2_PLACEMENT_3D('',#1729,#1389,#1390);
#1201=AXIS2_PLACEMENT_3D('',#1730,#1391,#1392);
#1202=AXIS2_PLACEMENT_3D('',#1732,#1393,#1394);
#1203=AXIS2_PLACEMENT_3D('',#1734,#1395,#1396);
#1204=AXIS2_PLACEMENT_3D('',#1735,#1397,#1398);
#1205=AXIS2_PLACEMENT_3D('',#1737,#1399,#1400);
#1206=AXIS2_PLACEMENT_3D('',#1739,#1401,#1402);
#1207=AXIS2_PLACEMENT_3D('',#1740,#1403,#1404);
#1208=AXIS2_PLACEMENT_3D('',#1742,#1405,#1406);
#1209=AXIS2_PLACEMENT_3D('',#1744,#1407,#1408);
#1210=AXIS2_PLACEMENT_3D('',#1745,#1409,#1410);
#1211=AXIS2_PLACEMENT_3D('',#1747,#1411,#1412);
#1212=AXIS2_PLACEMENT_3D('',#1749,#1413,#1414);
#1213=AXIS2_PLACEMENT_3D('',#1750,#1415,#1416);
#1214=AXIS2_PLACEMENT_3D('',#1752,#1417,#1418);
#1215=AXIS2_PLACEMENT_3D('',#1754,#1419,#1420);
#1216=AXIS2_PLACEMENT_3D('',#1755,#1421,#1422);
#1217=AXIS2_PLACEMENT_3D('',#1757,#1423,#1424);
#1218=AXIS2_PLACEMENT_3D('',#1759,#1425,#1426);
#1219=AXIS2_PLACEMENT_3D('',#1760,#1427,#1428);
#1220=AXIS2_PLACEMENT_3D('',#1762,#1429,#1430);
#1221=AXIS2_PLACEMENT_3D('',#1764,#1431,#1432);
#1222=AXIS2_PLACEMENT_3D('',#1765,#1433,#1434);
#1223=AXIS2_PLACEMENT_3D('',#1767,#1435,#1436);
#1224=AXIS2_PLACEMENT_3D('',#1769,#1437,#1438);
#1225=AXIS2_PLACEMENT_3D('',#1770,#1439,#1440);
#1226=AXIS2_PLACEMENT_3D('',#1772,#1441,#1442);
#1227=AXIS2_PLACEMENT_3D('',#1774,#1443,#1444);
#1228=AXIS2_PLACEMENT_3D('',#1775,#1445,#1446);
#1229=AXIS2_PLACEMENT_3D('',#1777,#1447,#1448);
#1230=AXIS2_PLACEMENT_3D('',#1779,#1449,#1450);
#1231=AXIS2_PLACEMENT_3D('',#1780,#1451,#1452);
#1232=AXIS2_PLACEMENT_3D('',#1782,#1453,#1454);
#1233=AXIS2_PLACEMENT_3D('',#1784,#1455,#1456);
#1234=AXIS2_PLACEMENT_3D('',#1785,#1457,#1458);
#1235=AXIS2_PLACEMENT_3D('',#1787,#1459,#1460);
#1236=AXIS2_PLACEMENT_3D('',#1789,#1461,#1462);
#1237=AXIS2_PLACEMENT_3D('',#1790,#1463,#1464);
#1238=AXIS2_PLACEMENT_3D('',#1792,#1465,#1466);
#1239=AXIS2_PLACEMENT_3D('',#1794,#1467,#1468);
#1240=AXIS2_PLACEMENT_3D('',#1798,#1470,#1471);
#1241=AXIS2_PLACEMENT_3D('',#1802,#1473,#1474);
#1242=AXIS2_PLACEMENT_3D('',#1803,#1475,#1476);
#1243=AXIS2_PLACEMENT_3D('',#1804,#1477,#1478);
#1244=AXIS2_PLACEMENT_3D('',#1806,#1479,#1480);
#1245=AXIS2_PLACEMENT_3D('',#1808,#1481,#1482);
#1246=AXIS2_PLACEMENT_3D('',#1809,#1483,#1484);
#1247=AXIS2_PLACEMENT_3D('',#1811,#1485,#1486);
#1248=AXIS2_PLACEMENT_3D('',#1813,#1487,#1488);
#1249=AXIS2_PLACEMENT_3D('',#1814,#1489,#1490);
#1250=AXIS2_PLACEMENT_3D('',#1816,#1491,#1492);
#1251=AXIS2_PLACEMENT_3D('',#1818,#1493,#1494);
#1252=AXIS2_PLACEMENT_3D('',#1819,#1495,#1496);
#1253=AXIS2_PLACEMENT_3D('',#1821,#1497,#1498);
#1254=AXIS2_PLACEMENT_3D('',#1823,#1499,#1500);
#1255=AXIS2_PLACEMENT_3D('',#1824,#1501,#1502);
#1256=AXIS2_PLACEMENT_3D('',#1826,#1503,#1504);
#1257=AXIS2_PLACEMENT_3D('',#1828,#1505,#1506);
#1258=AXIS2_PLACEMENT_3D('',#1829,#1507,#1508);
#1259=AXIS2_PLACEMENT_3D('',#1831,#1509,#1510);
#1260=AXIS2_PLACEMENT_3D('',#1833,#1511,#1512);
#1261=AXIS2_PLACEMENT_3D('',#1834,#1513,#1514);
#1262=AXIS2_PLACEMENT_3D('',#1836,#1515,#1516);
#1263=AXIS2_PLACEMENT_3D('',#1838,#1517,#1518);
#1264=AXIS2_PLACEMENT_3D('',#1839,#1519,#1520);
#1265=AXIS2_PLACEMENT_3D('',#1841,#1521,#1522);
#1266=AXIS2_PLACEMENT_3D('',#1843,#1523,#1524);
#1267=AXIS2_PLACEMENT_3D('',#1844,#1525,#1526);
#1268=AXIS2_PLACEMENT_3D('',#1846,#1527,#1528);
#1269=AXIS2_PLACEMENT_3D('',#1848,#1529,#1530);
#1270=AXIS2_PLACEMENT_3D('',#1849,#1531,#1532);
#1271=AXIS2_PLACEMENT_3D('',#1851,#1533,#1534);
#1272=AXIS2_PLACEMENT_3D('',#1853,#1535,#1536);
#1273=AXIS2_PLACEMENT_3D('',#1854,#1537,#1538);
#1274=AXIS2_PLACEMENT_3D('',#1856,#1539,#1540);
#1275=AXIS2_PLACEMENT_3D('',#1858,#1541,#1542);
#1276=AXIS2_PLACEMENT_3D('',#1859,#1543,#1544);
#1277=AXIS2_PLACEMENT_3D('',#1861,#1545,#1546);
#1278=AXIS2_PLACEMENT_3D('',#1863,#1547,#1548);
#1279=AXIS2_PLACEMENT_3D('',#1864,#1549,#1550);
#1280=AXIS2_PLACEMENT_3D('',#1866,#1551,#1552);
#1281=AXIS2_PLACEMENT_3D('',#1868,#1553,#1554);
#1282=AXIS2_PLACEMENT_3D('',#1869,#1555,#1556);
#1283=AXIS2_PLACEMENT_3D('',#1871,#1557,#1558);
#1284=AXIS2_PLACEMENT_3D('',#1873,#1559,#1560);
#1285=AXIS2_PLACEMENT_3D('',#1877,#1562,#1563);
#1286=AXIS2_PLACEMENT_3D('',#1881,#1565,#1566);
#1287=AXIS2_PLACEMENT_3D('',#1882,#1567,#1568);
#1288=AXIS2_PLACEMENT_3D('',#1883,#1569,#1570);
#1289=AXIS2_PLACEMENT_3D('',#1885,#1571,#1572);
#1290=AXIS2_PLACEMENT_3D('',#1887,#1573,#1574);
#1291=AXIS2_PLACEMENT_3D('',#1888,#1575,#1576);
#1292=AXIS2_PLACEMENT_3D('',#1890,#1577,#1578);
#1293=AXIS2_PLACEMENT_3D('',#1892,#1579,#1580);
#1294=AXIS2_PLACEMENT_3D('',#1893,#1581,#1582);
#1295=AXIS2_PLACEMENT_3D('',#1895,#1583,#1584);
#1296=AXIS2_PLACEMENT_3D('',#1897,#1585,#1586);
#1297=AXIS2_PLACEMENT_3D('',#1898,#1587,#1588);
#1298=AXIS2_PLACEMENT_3D('',#1900,#1589,#1590);
#1299=AXIS2_PLACEMENT_3D('',#1902,#1591,#1592);
#1300=AXIS2_PLACEMENT_3D('',#1903,#1593,#1594);
#1301=AXIS2_PLACEMENT_3D('',#1905,#1595,#1596);
#1302=AXIS2_PLACEMENT_3D('',#1907,#1597,#1598);
#1303=AXIS2_PLACEMENT_3D('',#1908,#1599,#1600);
#1304=AXIS2_PLACEMENT_3D('',#1910,#1601,#1602);
#1305=AXIS2_PLACEMENT_3D('',#1912,#1603,#1604);
#1306=AXIS2_PLACEMENT_3D('',#1913,#1605,#1606);
#1307=AXIS2_PLACEMENT_3D('',#1915,#1607,#1608);
#1308=AXIS2_PLACEMENT_3D('',#1917,#1609,#1610);
#1309=AXIS2_PLACEMENT_3D('',#1921,#1612,#1613);
#1310=AXIS2_PLACEMENT_3D('',#1925,#1615,#1616);
#1311=AXIS2_PLACEMENT_3D('',#1926,#1617,#1618);
#1312=AXIS2_PLACEMENT_3D('',#1927,#1619,#1620);
#1313=AXIS2_PLACEMENT_3D('',#1929,#1621,#1622);
#1314=AXIS2_PLACEMENT_3D('',#1931,#1623,#1624);
#1315=AXIS2_PLACEMENT_3D('',#1932,#1625,#1626);
#1316=AXIS2_PLACEMENT_3D('',#1934,#1627,#1628);
#1317=AXIS2_PLACEMENT_3D('',#1936,#1629,#1630);
#1318=AXIS2_PLACEMENT_3D('',#1937,#1631,#1632);
#1319=AXIS2_PLACEMENT_3D('',#1939,#1633,#1634);
#1320=AXIS2_PLACEMENT_3D('',#1941,#1635,#1636);
#1321=AXIS2_PLACEMENT_3D('',#1942,#1637,#1638);
#1322=AXIS2_PLACEMENT_3D('',#1944,#1639,#1640);
#1323=AXIS2_PLACEMENT_3D('',#1946,#1641,#1642);
#1324=AXIS2_PLACEMENT_3D('',#1950,#1644,#1645);
#1325=AXIS2_PLACEMENT_3D('',#1954,#1647,#1648);
#1326=AXIS2_PLACEMENT_3D('',#1955,#1649,#1650);
#1327=AXIS2_PLACEMENT_3D('',#1961,#1654,#1655);
#1328=AXIS2_PLACEMENT_3D('',#1967,#1661,#1662);
#1329=AXIS2_PLACEMENT_3D('',#1973,#1668,#1669);
#1330=AXIS2_PLACEMENT_3D('',#1974,#1670,#1671);
#1331=AXIS2_PLACEMENT_3D('',#1975,#1672,#1673);
#1332=AXIS2_PLACEMENT_3D('',#1976,#1674,#1675);
#1333=AXIS2_PLACEMENT_3D('',#1977,#1676,#1677);
#1334=DIRECTION('',(0.,0.,1.));
#1335=DIRECTION('',(1.,0.,0.));
#1336=DIRECTION('',(0.,0.,-1.));
#1337=DIRECTION('',(-1.,0.,0.));
#1338=DIRECTION('',(-1.,0.,0.));
#1339=DIRECTION('',(0.,1.,0.));
#1340=DIRECTION('',(1.,0.,0.));
#1341=DIRECTION('',(0.,1.,0.));
#1342=DIRECTION('',(0.,-1.,0.));
#1343=DIRECTION('',(0.,0.,-1.));
#1344=DIRECTION('',(0.,0.,-1.));
#1345=DIRECTION('',(1.,0.,0.));
#1346=DIRECTION('',(0.,0.,-1.));
#1347=DIRECTION('',(1.,0.,0.));
#1348=DIRECTION('',(0.,0.,-1.));
#1349=DIRECTION('',(1.,0.,0.));
#1350=DIRECTION('',(0.,0.,-1.));
#1351=DIRECTION('',(1.,0.,0.));
#1352=DIRECTION('',(0.,0.,-1.));
#1353=DIRECTION('',(1.,0.,0.));
#1354=DIRECTION('',(0.,0.,-1.));
#1355=DIRECTION('',(1.,0.,0.));
#1356=DIRECTION('',(0.,0.,-1.));
#1357=DIRECTION('',(1.,0.,0.));
#1358=DIRECTION('',(0.,0.,-1.));
#1359=DIRECTION('',(1.,0.,0.));
#1360=DIRECTION('',(0.,0.,-1.));
#1361=DIRECTION('',(1.,0.,0.));
#1362=DIRECTION('',(0.,0.,-1.));
#1363=DIRECTION('',(1.,0.,0.));
#1364=DIRECTION('',(0.,0.,-1.));
#1365=DIRECTION('',(1.,0.,0.));
#1366=DIRECTION('',(0.,0.,-1.));
#1367=DIRECTION('',(1.,0.,0.));
#1368=DIRECTION('',(0.,0.,-1.));
#1369=DIRECTION('',(1.,0.,0.));
#1370=DIRECTION('',(0.,0.,-1.));
#1371=DIRECTION('',(1.,0.,0.));
#1372=DIRECTION('',(0.,0.,-1.));
#1373=DIRECTION('',(1.,0.,0.));
#1374=DIRECTION('',(0.,0.,-1.));
#1375=DIRECTION('',(1.,0.,0.));
#1376=DIRECTION('',(0.,0.,-1.));
#1377=DIRECTION('',(1.,0.,0.));
#1378=DIRECTION('',(0.,0.,-1.));
#1379=DIRECTION('',(1.,0.,0.));
#1380=DIRECTION('',(0.,0.,-1.));
#1381=DIRECTION('',(1.,0.,0.));
#1382=DIRECTION('',(0.,0.,-1.));
#1383=DIRECTION('',(1.,0.,0.));
#1384=DIRECTION('',(0.,0.,-1.));
#1385=DIRECTION('',(1.,0.,0.));
#1386=DIRECTION('',(0.,0.,-1.));
#1387=DIRECTION('',(1.,0.,0.));
#1388=DIRECTION('',(0.,0.,-1.));
#1389=DIRECTION('',(1.,0.,0.));
#1390=DIRECTION('',(0.,0.,-1.));
#1391=DIRECTION('',(1.,0.,0.));
#1392=DIRECTION('',(0.,0.,-1.));
#1393=DIRECTION('',(1.,0.,0.));
#1394=DIRECTION('',(0.,0.,-1.));
#1395=DIRECTION('',(1.,0.,0.));
#1396=DIRECTION('',(0.,0.,-1.));
#1397=DIRECTION('',(1.,0.,0.));
#1398=DIRECTION('',(0.,0.,-1.));
#1399=DIRECTION('',(1.,0.,0.));
#1400=DIRECTION('',(0.,0.,-1.));
#1401=DIRECTION('',(1.,0.,0.));
#1402=DIRECTION('',(0.,0.,-1.));
#1403=DIRECTION('',(1.,0.,0.));
#1404=DIRECTION('',(0.,0.,-1.));
#1405=DIRECTION('',(1.,0.,0.));
#1406=DIRECTION('',(0.,0.,-1.));
#1407=DIRECTION('',(1.,0.,0.));
#1408=DIRECTION('',(0.,0.,-1.));
#1409=DIRECTION('',(1.,0.,0.));
#1410=DIRECTION('',(0.,0.,-1.));
#1411=DIRECTION('',(1.,0.,0.));
#1412=DIRECTION('',(0.,0.,-1.));
#1413=DIRECTION('',(1.,0.,0.));
#1414=DIRECTION('',(0.,0.,-1.));
#1415=DIRECTION('',(1.,0.,0.));
#1416=DIRECTION('',(0.,0.,-1.));
#1417=DIRECTION('',(1.,0.,0.));
#1418=DIRECTION('',(0.,0.,-1.));
#1419=DIRECTION('',(1.,0.,0.));
#1420=DIRECTION('',(0.,0.,-1.));
#1421=DIRECTION('',(1.,0.,0.));
#1422=DIRECTION('',(0.,0.,-1.));
#1423=DIRECTION('',(1.,0.,0.));
#1424=DIRECTION('',(0.,0.,-1.));
#1425=DIRECTION('',(1.,0.,0.));
#1426=DIRECTION('',(0.,0.,-1.));
#1427=DIRECTION('',(1.,0.,0.));
#1428=DIRECTION('',(0.,0.,-1.));
#1429=DIRECTION('',(1.,0.,0.));
#1430=DIRECTION('',(0.,0.,-1.));
#1431=DIRECTION('',(1.,0.,0.));
#1432=DIRECTION('',(0.,0.,-1.));
#1433=DIRECTION('',(1.,0.,0.));
#1434=DIRECTION('',(0.,0.,-1.));
#1435=DIRECTION('',(1.,0.,0.));
#1436=DIRECTION('',(0.,0.,-1.));
#1437=DIRECTION('',(1.,0.,0.));
#1438=DIRECTION('',(0.,0.,-1.));
#1439=DIRECTION('',(1.,0.,0.));
#1440=DIRECTION('',(0.,0.,-1.));
#1441=DIRECTION('',(1.,0.,0.));
#1442=DIRECTION('',(0.,0.,-1.));
#1443=DIRECTION('',(1.,0.,0.));
#1444=DIRECTION('',(0.,0.,-1.));
#1445=DIRECTION('',(1.,0.,0.));
#1446=DIRECTION('',(0.,0.,-1.));
#1447=DIRECTION('',(1.,0.,0.));
#1448=DIRECTION('',(0.,0.,-1.));
#1449=DIRECTION('',(1.,0.,0.));
#1450=DIRECTION('',(0.,0.,-1.));
#1451=DIRECTION('',(1.,0.,0.));
#1452=DIRECTION('',(0.,0.,-1.));
#1453=DIRECTION('',(1.,0.,0.));
#1454=DIRECTION('',(0.,0.,-1.));
#1455=DIRECTION('',(1.,0.,0.));
#1456=DIRECTION('',(0.,0.,-1.));
#1457=DIRECTION('',(1.,0.,0.));
#1458=DIRECTION('',(0.,0.,-1.));
#1459=DIRECTION('',(1.,0.,0.));
#1460=DIRECTION('',(0.,0.,-1.));
#1461=DIRECTION('',(1.,0.,0.));
#1462=DIRECTION('',(0.,0.,-1.));
#1463=DIRECTION('',(1.,0.,0.));
#1464=DIRECTION('',(0.,0.,-1.));
#1465=DIRECTION('',(1.,0.,0.));
#1466=DIRECTION('',(0.,0.,-1.));
#1467=DIRECTION('',(1.,0.,0.));
#1468=DIRECTION('',(0.,0.,-1.));
#1469=DIRECTION('',(1.,0.,0.));
#1470=DIRECTION('',(1.,0.,0.));
#1471=DIRECTION('',(0.,0.,-1.));
#1472=DIRECTION('',(1.,0.,0.));
#1473=DIRECTION('',(1.,0.,0.));
#1474=DIRECTION('',(0.,0.,-1.));
#1475=DIRECTION('',(1.,0.,0.));
#1476=DIRECTION('',(0.,0.,-1.));
#1477=DIRECTION('',(1.,0.,0.));
#1478=DIRECTION('',(0.,0.,-1.));
#1479=DIRECTION('',(1.,0.,0.));
#1480=DIRECTION('',(0.,0.,-1.));
#1481=DIRECTION('',(1.,0.,0.));
#1482=DIRECTION('',(0.,0.,-1.));
#1483=DIRECTION('',(1.,0.,0.));
#1484=DIRECTION('',(0.,0.,-1.));
#1485=DIRECTION('',(1.,0.,0.));
#1486=DIRECTION('',(0.,0.,-1.));
#1487=DIRECTION('',(1.,0.,0.));
#1488=DIRECTION('',(0.,0.,-1.));
#1489=DIRECTION('',(1.,0.,0.));
#1490=DIRECTION('',(0.,0.,-1.));
#1491=DIRECTION('',(1.,0.,0.));
#1492=DIRECTION('',(0.,0.,-1.));
#1493=DIRECTION('',(1.,0.,0.));
#1494=DIRECTION('',(0.,0.,-1.));
#1495=DIRECTION('',(1.,0.,0.));
#1496=DIRECTION('',(0.,0.,-1.));
#1497=DIRECTION('',(1.,0.,0.));
#1498=DIRECTION('',(0.,0.,-1.));
#1499=DIRECTION('',(1.,0.,0.));
#1500=DIRECTION('',(0.,0.,-1.));
#1501=DIRECTION('',(1.,0.,0.));
#1502=DIRECTION('',(0.,0.,-1.));
#1503=DIRECTION('',(1.,0.,0.));
#1504=DIRECTION('',(0.,0.,-1.));
#1505=DIRECTION('',(1.,0.,0.));
#1506=DIRECTION('',(0.,0.,-1.));
#1507=DIRECTION('',(1.,0.,0.));
#1508=DIRECTION('',(0.,0.,-1.));
#1509=DIRECTION('',(1.,0.,0.));
#1510=DIRECTION('',(0.,0.,-1.));
#1511=DIRECTION('',(1.,0.,0.));
#1512=DIRECTION('',(0.,0.,-1.));
#1513=DIRECTION('',(1.,0.,0.));
#1514=DIRECTION('',(0.,0.,-1.));
#1515=DIRECTION('',(1.,0.,0.));
#1516=DIRECTION('',(0.,0.,-1.));
#1517=DIRECTION('',(1.,0.,0.));
#1518=DIRECTION('',(0.,0.,-1.));
#1519=DIRECTION('',(1.,0.,0.));
#1520=DIRECTION('',(0.,0.,-1.));
#1521=DIRECTION('',(1.,0.,0.));
#1522=DIRECTION('',(0.,0.,-1.));
#1523=DIRECTION('',(1.,0.,0.));
#1524=DIRECTION('',(0.,0.,-1.));
#1525=DIRECTION('',(1.,0.,0.));
#1526=DIRECTION('',(0.,0.,-1.));
#1527=DIRECTION('',(1.,0.,0.));
#1528=DIRECTION('',(0.,0.,-1.));
#1529=DIRECTION('',(1.,0.,0.));
#1530=DIRECTION('',(0.,0.,-1.));
#1531=DIRECTION('',(1.,0.,0.));
#1532=DIRECTION('',(0.,0.,-1.));
#1533=DIRECTION('',(1.,0.,0.));
#1534=DIRECTION('',(0.,0.,-1.));
#1535=DIRECTION('',(1.,0.,0.));
#1536=DIRECTION('',(0.,0.,-1.));
#1537=DIRECTION('',(1.,0.,0.));
#1538=DIRECTION('',(0.,0.,-1.));
#1539=DIRECTION('',(1.,0.,0.));
#1540=DIRECTION('',(0.,0.,-1.));
#1541=DIRECTION('',(1.,0.,0.));
#1542=DIRECTION('',(0.,0.,-1.));
#1543=DIRECTION('',(1.,0.,0.));
#1544=DIRECTION('',(0.,0.,-1.));
#1545=DIRECTION('',(1.,0.,0.));
#1546=DIRECTION('',(0.,0.,-1.));
#1547=DIRECTION('',(1.,0.,0.));
#1548=DIRECTION('',(0.,0.,-1.));
#1549=DIRECTION('',(1.,0.,0.));
#1550=DIRECTION('',(0.,0.,-1.));
#1551=DIRECTION('',(1.,0.,0.));
#1552=DIRECTION('',(0.,0.,-1.));
#1553=DIRECTION('',(1.,0.,0.));
#1554=DIRECTION('',(0.,0.,-1.));
#1555=DIRECTION('',(1.,0.,0.));
#1556=DIRECTION('',(0.,0.,-1.));
#1557=DIRECTION('',(1.,0.,0.));
#1558=DIRECTION('',(0.,0.,-1.));
#1559=DIRECTION('',(1.,0.,0.));
#1560=DIRECTION('',(0.,0.,-1.));
#1561=DIRECTION('',(1.,0.,0.));
#1562=DIRECTION('',(1.,0.,0.));
#1563=DIRECTION('',(0.,0.,-1.));
#1564=DIRECTION('',(1.,0.,0.));
#1565=DIRECTION('',(1.,0.,0.));
#1566=DIRECTION('',(0.,0.,-1.));
#1567=DIRECTION('',(1.,0.,0.));
#1568=DIRECTION('',(0.,0.,-1.));
#1569=DIRECTION('',(1.,0.,0.));
#1570=DIRECTION('',(0.,0.,-1.));
#1571=DIRECTION('',(1.,0.,0.));
#1572=DIRECTION('',(0.,0.,-1.));
#1573=DIRECTION('',(1.,0.,0.));
#1574=DIRECTION('',(0.,0.,-1.));
#1575=DIRECTION('',(1.,0.,0.));
#1576=DIRECTION('',(0.,0.,-1.));
#1577=DIRECTION('',(1.,0.,0.));
#1578=DIRECTION('',(0.,0.,-1.));
#1579=DIRECTION('',(1.,0.,0.));
#1580=DIRECTION('',(0.,0.,-1.));
#1581=DIRECTION('',(1.,0.,0.));
#1582=DIRECTION('',(0.,0.,-1.));
#1583=DIRECTION('',(1.,0.,0.));
#1584=DIRECTION('',(0.,0.,-1.));
#1585=DIRECTION('',(1.,0.,0.));
#1586=DIRECTION('',(0.,0.,-1.));
#1587=DIRECTION('',(1.,0.,0.));
#1588=DIRECTION('',(0.,0.,-1.));
#1589=DIRECTION('',(1.,0.,0.));
#1590=DIRECTION('',(0.,0.,-1.));
#1591=DIRECTION('',(1.,0.,0.));
#1592=DIRECTION('',(0.,0.,-1.));
#1593=DIRECTION('',(1.,0.,0.));
#1594=DIRECTION('',(0.,0.,-1.));
#1595=DIRECTION('',(1.,0.,0.));
#1596=DIRECTION('',(0.,0.,-1.));
#1597=DIRECTION('',(1.,0.,0.));
#1598=DIRECTION('',(0.,0.,-1.));
#1599=DIRECTION('',(1.,0.,0.));
#1600=DIRECTION('',(0.,0.,-1.));
#1601=DIRECTION('',(1.,0.,0.));
#1602=DIRECTION('',(0.,0.,-1.));
#1603=DIRECTION('',(1.,0.,0.));
#1604=DIRECTION('',(0.,0.,-1.));
#1605=DIRECTION('',(1.,0.,0.));
#1606=DIRECTION('',(0.,0.,-1.));
#1607=DIRECTION('',(1.,0.,0.));
#1608=DIRECTION('',(0.,0.,-1.));
#1609=DIRECTION('',(1.,0.,0.));
#1610=DIRECTION('',(0.,0.,-1.));
#1611=DIRECTION('',(1.,0.,0.));
#1612=DIRECTION('',(1.,0.,0.));
#1613=DIRECTION('',(0.,0.,-1.));
#1614=DIRECTION('',(1.,0.,0.));
#1615=DIRECTION('',(1.,0.,0.));
#1616=DIRECTION('',(0.,0.,-1.));
#1617=DIRECTION('',(1.,0.,0.));
#1618=DIRECTION('',(0.,0.,-1.));
#1619=DIRECTION('',(1.,0.,0.));
#1620=DIRECTION('',(0.,0.,-1.));
#1621=DIRECTION('',(1.,0.,0.));
#1622=DIRECTION('',(0.,0.,-1.));
#1623=DIRECTION('',(1.,0.,0.));
#1624=DIRECTION('',(0.,0.,-1.));
#1625=DIRECTION('',(1.,0.,0.));
#1626=DIRECTION('',(0.,0.,-1.));
#1627=DIRECTION('',(1.,0.,0.));
#1628=DIRECTION('',(0.,0.,-1.));
#1629=DIRECTION('',(1.,0.,0.));
#1630=DIRECTION('',(0.,0.,-1.));
#1631=DIRECTION('',(1.,0.,0.));
#1632=DIRECTION('',(0.,0.,-1.));
#1633=DIRECTION('',(1.,0.,0.));
#1634=DIRECTION('',(0.,0.,-1.));
#1635=DIRECTION('',(1.,0.,0.));
#1636=DIRECTION('',(0.,0.,-1.));
#1637=DIRECTION('',(1.,0.,0.));
#1638=DIRECTION('',(0.,0.,-1.));
#1639=DIRECTION('',(1.,0.,0.));
#1640=DIRECTION('',(0.,0.,-1.));
#1641=DIRECTION('',(1.,0.,0.));
#1642=DIRECTION('',(0.,0.,-1.));
#1643=DIRECTION('',(1.,0.,0.));
#1644=DIRECTION('',(1.,0.,0.));
#1645=DIRECTION('',(0.,0.,-1.));
#1646=DIRECTION('',(1.,0.,0.));
#1647=DIRECTION('',(1.,0.,0.));
#1648=DIRECTION('',(0.,0.,-1.));
#1649=DIRECTION('',(0.,0.,-1.));
#1650=DIRECTION('',(-1.,0.,0.));
#1651=DIRECTION('',(0.,1.,0.));
#1652=DIRECTION('',(-1.,0.,0.));
#1653=DIRECTION('',(0.,1.,0.));
#1654=DIRECTION('',(1.,0.,0.));
#1655=DIRECTION('',(0.,0.,-1.));
#1656=DIRECTION('',(0.,0.,-1.));
#1657=DIRECTION('',(0.,0.,-1.));
#1658=DIRECTION('',(0.,0.,-1.));
#1659=DIRECTION('',(0.,0.,-1.));
#1660=DIRECTION('',(0.,0.,-1.));
#1661=DIRECTION('',(1.,0.,0.));
#1662=DIRECTION('',(0.,0.,-1.));
#1663=DIRECTION('',(0.,0.,-1.));
#1664=DIRECTION('',(0.,0.,-1.));
#1665=DIRECTION('',(0.,0.,-1.));
#1666=DIRECTION('',(0.,0.,-1.));
#1667=DIRECTION('',(0.,0.,-1.));
#1668=DIRECTION('',(0.,-1.,0.));
#1669=DIRECTION('',(1.,0.,0.));
#1670=DIRECTION('',(0.,-1.,0.));
#1671=DIRECTION('',(1.,0.,0.));
#1672=DIRECTION('',(0.,-1.,0.));
#1673=DIRECTION('',(1.,0.,0.));
#1674=DIRECTION('',(0.,-1.,0.));
#1675=DIRECTION('',(1.,0.,0.));
#1676=DIRECTION('',(0.,-1.,0.));
#1677=DIRECTION('',(1.,0.,0.));
#1678=CARTESIAN_POINT('',(0.,0.,0.));
#1679=CARTESIAN_POINT('',(-0.2074512,-0.2032,-0.346074999999995));
#1680=CARTESIAN_POINT('',(-0.2074512,0.,-0.346074999999995));
#1681=CARTESIAN_POINT('',(-0.2064512,0.,-0.346074999999995));
#1682=CARTESIAN_POINT('',(-0.2074512,0.,-0.346074999999995));
#1683=CARTESIAN_POINT('',(-0.2064512,-0.2032,-0.346074999999995));
#1684=CARTESIAN_POINT('',(-0.2064512,-0.2047875,-0.346074999999995));
#1685=CARTESIAN_POINT('',(-0.2074512,-0.2047875,-0.346074999999995));
#1686=CARTESIAN_POINT('',(-0.2074512,-0.2047875,-0.346074999999995));
#1687=CARTESIAN_POINT('',(-0.2074512,-0.2032,-0.346074999999995));
#1688=CARTESIAN_POINT('',(-0.2074512,-0.2047875,-0.03140075));
#1689=CARTESIAN_POINT('',(-0.2064512,-0.2047875,-0.03140075));
#1690=CARTESIAN_POINT('',(-0.2064512,-0.2047875,0.117475));
#1691=CARTESIAN_POINT('',(-0.2074512,-0.2047875,0.117475));
#1692=CARTESIAN_POINT('',(-0.2074512,-0.2047875,0.117475));
#1693=CARTESIAN_POINT('',(-0.2074512,-0.2047875,-0.03140075));
#1694=CARTESIAN_POINT('',(-0.2074512,-0.1143,0.1016));
#1695=CARTESIAN_POINT('',(-0.2074512,-0.1143,0.1016));
#1696=CARTESIAN_POINT('',(-0.2074512,-0.1143,0.0965073));
#1697=CARTESIAN_POINT('',(-0.2064512,-0.1143,0.1016));
#1698=CARTESIAN_POINT('',(-0.2064512,-0.1143,0.0965073));
#1699=CARTESIAN_POINT('',(-0.2074512,-0.1397,0.1016));
#1700=CARTESIAN_POINT('',(-0.2074512,-0.1397,0.1016));
#1701=CARTESIAN_POINT('',(-0.2074512,-0.1397,0.0990473));
#1702=CARTESIAN_POINT('',(-0.2064512,-0.1397,0.1016));
#1703=CARTESIAN_POINT('',(-0.2064512,-0.1397,0.0990473));
#1704=CARTESIAN_POINT('',(-0.2074512,-0.1524,0.1016));
#1705=CARTESIAN_POINT('',(-0.2074512,-0.1524,0.1016));
#1706=CARTESIAN_POINT('',(-0.2074512,-0.1524,0.0990473));
#1707=CARTESIAN_POINT('',(-0.2064512,-0.1524,0.1016));
#1708=CARTESIAN_POINT('',(-0.2064512,-0.1524,0.0990473));
#1709=CARTESIAN_POINT('',(-0.2074512,-0.1651,0.1016));
#1710=CARTESIAN_POINT('',(-0.2074512,-0.1651,0.1016));
#1711=CARTESIAN_POINT('',(-0.2074512,-0.1651,0.0965073));
#1712=CARTESIAN_POINT('',(-0.2064512,-0.1651,0.1016));
#1713=CARTESIAN_POINT('',(-0.2064512,-0.1651,0.0965073));
#1714=CARTESIAN_POINT('',(-0.2074512,-0.1905,0.1016));
#1715=CARTESIAN_POINT('',(-0.2074512,-0.1905,0.1016));
#1716=CARTESIAN_POINT('',(-0.2074512,-0.1905,0.0965073));
#1717=CARTESIAN_POINT('',(-0.2064512,-0.1905,0.1016));
#1718=CARTESIAN_POINT('',(-0.2064512,-0.1905,0.0965073));
#1719=CARTESIAN_POINT('',(-0.2074512,-0.1905,-0.1016));
#1720=CARTESIAN_POINT('',(-0.2074512,-0.1905,-0.1016));
#1721=CARTESIAN_POINT('',(-0.2074512,-0.1905,-0.1066927));
#1722=CARTESIAN_POINT('',(-0.2064512,-0.1905,-0.1016));
#1723=CARTESIAN_POINT('',(-0.2064512,-0.1905,-0.1066927));
#1724=CARTESIAN_POINT('',(-0.2074512,-0.1651,-0.1016));
#1725=CARTESIAN_POINT('',(-0.2074512,-0.1651,-0.1016));
#1726=CARTESIAN_POINT('',(-0.2074512,-0.1651,-0.1041527));
#1727=CARTESIAN_POINT('',(-0.2064512,-0.1651,-0.1016));
#1728=CARTESIAN_POINT('',(-0.2064512,-0.1651,-0.1041527));
#1729=CARTESIAN_POINT('',(-0.2074512,-0.1778,-0.1016));
#1730=CARTESIAN_POINT('',(-0.2074512,-0.1778,-0.1016));
#1731=CARTESIAN_POINT('',(-0.2074512,-0.1778,-0.1041527));
#1732=CARTESIAN_POINT('',(-0.2064512,-0.1778,-0.1016));
#1733=CARTESIAN_POINT('',(-0.2064512,-0.1778,-0.1041527));
#1734=CARTESIAN_POINT('',(-0.2074512,-0.1778,-0.3302));
#1735=CARTESIAN_POINT('',(-0.2074512,-0.1778,-0.3302));
#1736=CARTESIAN_POINT('',(-0.2074512,-0.1778,-0.3327527));
#1737=CARTESIAN_POINT('',(-0.2064512,-0.1778,-0.3302));
#1738=CARTESIAN_POINT('',(-0.2064512,-0.1778,-0.3327527));
#1739=CARTESIAN_POINT('',(-0.2074512,-0.1397,-0.3302));
#1740=CARTESIAN_POINT('',(-0.2074512,-0.1397,-0.3302));
#1741=CARTESIAN_POINT('',(-0.2074512,-0.1397,-0.3327527));
#1742=CARTESIAN_POINT('',(-0.2064512,-0.1397,-0.3302));
#1743=CARTESIAN_POINT('',(-0.2064512,-0.1397,-0.3327527));
#1744=CARTESIAN_POINT('',(-0.2074512,-0.1524,-0.3302));
#1745=CARTESIAN_POINT('',(-0.2074512,-0.1524,-0.3302));
#1746=CARTESIAN_POINT('',(-0.2074512,-0.1524,-0.3327527));
#1747=CARTESIAN_POINT('',(-0.2064512,-0.1524,-0.3302));
#1748=CARTESIAN_POINT('',(-0.2064512,-0.1524,-0.3327527));
#1749=CARTESIAN_POINT('',(-0.2074512,-0.1651,-0.3302));
#1750=CARTESIAN_POINT('',(-0.2074512,-0.1651,-0.3302));
#1751=CARTESIAN_POINT('',(-0.2074512,-0.1651,-0.3352927));
#1752=CARTESIAN_POINT('',(-0.2064512,-0.1651,-0.3302));
#1753=CARTESIAN_POINT('',(-0.2064512,-0.1651,-0.3352927));
#1754=CARTESIAN_POINT('',(-0.2074512,-0.1905,-0.3302));
#1755=CARTESIAN_POINT('',(-0.2074512,-0.1905,-0.3302));
#1756=CARTESIAN_POINT('',(-0.2074512,-0.1905,-0.3352927));
#1757=CARTESIAN_POINT('',(-0.2064512,-0.1905,-0.3302));
#1758=CARTESIAN_POINT('',(-0.2064512,-0.1905,-0.3352927));
#1759=CARTESIAN_POINT('',(-0.2074512,-0.1778,0.1016));
#1760=CARTESIAN_POINT('',(-0.2074512,-0.1778,0.1016));
#1761=CARTESIAN_POINT('',(-0.2074512,-0.1778,0.0990473));
#1762=CARTESIAN_POINT('',(-0.2064512,-0.1778,0.1016));
#1763=CARTESIAN_POINT('',(-0.2064512,-0.1778,0.0990473));
#1764=CARTESIAN_POINT('',(-0.2074512,-0.0254,-0.1016));
#1765=CARTESIAN_POINT('',(-0.2074512,-0.0254,-0.1016));
#1766=CARTESIAN_POINT('',(-0.2074512,-0.0254,-0.1041527));
#1767=CARTESIAN_POINT('',(-0.2064512,-0.0254,-0.1016));
#1768=CARTESIAN_POINT('',(-0.2064512,-0.0254,-0.1041527));
#1769=CARTESIAN_POINT('',(-0.2074512,-0.1143,-0.1016));
#1770=CARTESIAN_POINT('',(-0.2074512,-0.1143,-0.1016));
#1771=CARTESIAN_POINT('',(-0.2074512,-0.1143,-0.1066927));
#1772=CARTESIAN_POINT('',(-0.2064512,-0.1143,-0.1016));
#1773=CARTESIAN_POINT('',(-0.2064512,-0.1143,-0.1066927));
#1774=CARTESIAN_POINT('',(-0.2074512,-0.1016,-0.1016));
#1775=CARTESIAN_POINT('',(-0.2074512,-0.1016,-0.1016));
#1776=CARTESIAN_POINT('',(-0.2074512,-0.1016,-0.1041527));
#1777=CARTESIAN_POINT('',(-0.2064512,-0.1016,-0.1016));
#1778=CARTESIAN_POINT('',(-0.2064512,-0.1016,-0.1041527));
#1779=CARTESIAN_POINT('',(-0.2074512,-0.0889,-0.1016));
#1780=CARTESIAN_POINT('',(-0.2074512,-0.0889,-0.1016));
#1781=CARTESIAN_POINT('',(-0.2074512,-0.0889,-0.1041527));
#1782=CARTESIAN_POINT('',(-0.2064512,-0.0889,-0.1016));
#1783=CARTESIAN_POINT('',(-0.2064512,-0.0889,-0.1041527));
#1784=CARTESIAN_POINT('',(-0.2074512,-0.127,-0.1016));
#1785=CARTESIAN_POINT('',(-0.2074512,-0.127,-0.1016));
#1786=CARTESIAN_POINT('',(-0.2074512,-0.127,-0.1041527));
#1787=CARTESIAN_POINT('',(-0.2064512,-0.127,-0.1016));
#1788=CARTESIAN_POINT('',(-0.2064512,-0.127,-0.1041527));
#1789=CARTESIAN_POINT('',(-0.2074512,-0.0508,-0.1016));
#1790=CARTESIAN_POINT('',(-0.2074512,-0.0508,-0.1016));
#1791=CARTESIAN_POINT('',(-0.2074512,-0.0508,-0.1066927));
#1792=CARTESIAN_POINT('',(-0.2064512,-0.0508,-0.1016));
#1793=CARTESIAN_POINT('',(-0.2064512,-0.0508,-0.1066927));
#1794=CARTESIAN_POINT('',(-0.2074512,0.,0.1016));
#1795=CARTESIAN_POINT('',(-0.2074512,0.,0.0965073));
#1796=CARTESIAN_POINT('',(-0.2074512,0.,0.0965073));
#1797=CARTESIAN_POINT('',(-0.2064512,0.,0.0965073));
#1798=CARTESIAN_POINT('',(-0.2074512,0.,0.1016));
#1799=CARTESIAN_POINT('',(-0.2074512,0.,0.1066927));
#1800=CARTESIAN_POINT('',(-0.2074512,0.,0.1066927));
#1801=CARTESIAN_POINT('',(-0.2064512,0.,0.1066927));
#1802=CARTESIAN_POINT('',(-0.2064512,0.,0.1016));
#1803=CARTESIAN_POINT('',(-0.2074512,-0.0127,0.1016));
#1804=CARTESIAN_POINT('',(-0.2074512,-0.0127,0.1016));
#1805=CARTESIAN_POINT('',(-0.2074512,-0.0127,0.0990473));
#1806=CARTESIAN_POINT('',(-0.2064512,-0.0127,0.1016));
#1807=CARTESIAN_POINT('',(-0.2064512,-0.0127,0.0990473));
#1808=CARTESIAN_POINT('',(-0.2074512,-0.0254,0.1016));
#1809=CARTESIAN_POINT('',(-0.2074512,-0.0254,0.1016));
#1810=CARTESIAN_POINT('',(-0.2074512,-0.0254,0.0990473));
#1811=CARTESIAN_POINT('',(-0.2064512,-0.0254,0.1016));
#1812=CARTESIAN_POINT('',(-0.2064512,-0.0254,0.0990473));
#1813=CARTESIAN_POINT('',(-0.2074512,-0.0381,0.1016));
#1814=CARTESIAN_POINT('',(-0.2074512,-0.0381,0.1016));
#1815=CARTESIAN_POINT('',(-0.2074512,-0.0381,0.0990473));
#1816=CARTESIAN_POINT('',(-0.2064512,-0.0381,0.1016));
#1817=CARTESIAN_POINT('',(-0.2064512,-0.0381,0.0990473));
#1818=CARTESIAN_POINT('',(-0.2074512,-0.0508,0.1016));
#1819=CARTESIAN_POINT('',(-0.2074512,-0.0508,0.1016));
#1820=CARTESIAN_POINT('',(-0.2074512,-0.0508,0.0965073));
#1821=CARTESIAN_POINT('',(-0.2064512,-0.0508,0.1016));
#1822=CARTESIAN_POINT('',(-0.2064512,-0.0508,0.0965073));
#1823=CARTESIAN_POINT('',(-0.2074512,-0.0635,0.1016));
#1824=CARTESIAN_POINT('',(-0.2074512,-0.0635,0.1016));
#1825=CARTESIAN_POINT('',(-0.2074512,-0.0635,0.0990473));
#1826=CARTESIAN_POINT('',(-0.2064512,-0.0635,0.1016));
#1827=CARTESIAN_POINT('',(-0.2064512,-0.0635,0.0990473));
#1828=CARTESIAN_POINT('',(-0.2074512,-0.0762,0.1016));
#1829=CARTESIAN_POINT('',(-0.2074512,-0.0762,0.1016));
#1830=CARTESIAN_POINT('',(-0.2074512,-0.0762,0.0990473));
#1831=CARTESIAN_POINT('',(-0.2064512,-0.0762,0.1016));
#1832=CARTESIAN_POINT('',(-0.2064512,-0.0762,0.0990473));
#1833=CARTESIAN_POINT('',(-0.2074512,-0.0893,0.1016));
#1834=CARTESIAN_POINT('',(-0.2074512,-0.0893,0.1016));
#1835=CARTESIAN_POINT('',(-0.2074512,-0.0893,0.0990473));
#1836=CARTESIAN_POINT('',(-0.2064512,-0.0893,0.1016));
#1837=CARTESIAN_POINT('',(-0.2064512,-0.0893,0.0990473));
#1838=CARTESIAN_POINT('',(-0.2074512,-0.1016,0.1016));
#1839=CARTESIAN_POINT('',(-0.2074512,-0.1016,0.1016));
#1840=CARTESIAN_POINT('',(-0.2074512,-0.1016,0.0990473));
#1841=CARTESIAN_POINT('',(-0.2064512,-0.1016,0.1016));
#1842=CARTESIAN_POINT('',(-0.2064512,-0.1016,0.0990473));
#1843=CARTESIAN_POINT('',(-0.2074512,-0.0127,-0.3302));
#1844=CARTESIAN_POINT('',(-0.2074512,-0.0127,-0.3302));
#1845=CARTESIAN_POINT('',(-0.2074512,-0.0127,-0.3327527));
#1846=CARTESIAN_POINT('',(-0.2064512,-0.0127,-0.3302));
#1847=CARTESIAN_POINT('',(-0.2064512,-0.0127,-0.3327527));
#1848=CARTESIAN_POINT('',(-0.2074512,-0.0254,-0.3302));
#1849=CARTESIAN_POINT('',(-0.2074512,-0.0254,-0.3302));
#1850=CARTESIAN_POINT('',(-0.2074512,-0.0254,-0.3327527));
#1851=CARTESIAN_POINT('',(-0.2064512,-0.0254,-0.3302));
#1852=CARTESIAN_POINT('',(-0.2064512,-0.0254,-0.3327527));
#1853=CARTESIAN_POINT('',(-0.2074512,-0.0508,-0.3302));
#1854=CARTESIAN_POINT('',(-0.2074512,-0.0508,-0.3302));
#1855=CARTESIAN_POINT('',(-0.2074512,-0.0508,-0.3327527));
#1856=CARTESIAN_POINT('',(-0.2064512,-0.0508,-0.3302));
#1857=CARTESIAN_POINT('',(-0.2064512,-0.0508,-0.3327527));
#1858=CARTESIAN_POINT('',(-0.2074512,-0.1143,-0.3302));
#1859=CARTESIAN_POINT('',(-0.2074512,-0.1143,-0.3302));
#1860=CARTESIAN_POINT('',(-0.2074512,-0.1143,-0.3327527));
#1861=CARTESIAN_POINT('',(-0.2064512,-0.1143,-0.3302));
#1862=CARTESIAN_POINT('',(-0.2064512,-0.1143,-0.3327527));
#1863=CARTESIAN_POINT('',(-0.2074512,-0.1524,-0.1016));
#1864=CARTESIAN_POINT('',(-0.2074512,-0.1524,-0.1016));
#1865=CARTESIAN_POINT('',(-0.2074512,-0.1524,-0.1041527));
#1866=CARTESIAN_POINT('',(-0.2064512,-0.1524,-0.1016));
#1867=CARTESIAN_POINT('',(-0.2064512,-0.1524,-0.1041527));
#1868=CARTESIAN_POINT('',(-0.2074512,-0.1397,-0.1016));
#1869=CARTESIAN_POINT('',(-0.2074512,-0.1397,-0.1016));
#1870=CARTESIAN_POINT('',(-0.2074512,-0.1397,-0.1041527));
#1871=CARTESIAN_POINT('',(-0.2064512,-0.1397,-0.1016));
#1872=CARTESIAN_POINT('',(-0.2064512,-0.1397,-0.1041527));
#1873=CARTESIAN_POINT('',(-0.2074512,0.,-0.3302));
#1874=CARTESIAN_POINT('',(-0.2074512,0.,-0.3352927));
#1875=CARTESIAN_POINT('',(-0.2074512,0.,-0.3352927));
#1876=CARTESIAN_POINT('',(-0.2064512,0.,-0.3352927));
#1877=CARTESIAN_POINT('',(-0.2074512,0.,-0.3302));
#1878=CARTESIAN_POINT('',(-0.2074512,0.,-0.3251073));
#1879=CARTESIAN_POINT('',(-0.2074512,0.,-0.3251073));
#1880=CARTESIAN_POINT('',(-0.2064512,0.,-0.3251073));
#1881=CARTESIAN_POINT('',(-0.2064512,0.,-0.3302));
#1882=CARTESIAN_POINT('',(-0.2074512,-0.0762,-0.3302));
#1883=CARTESIAN_POINT('',(-0.2074512,-0.0762,-0.3302));
#1884=CARTESIAN_POINT('',(-0.2074512,-0.0762,-0.3352927));
#1885=CARTESIAN_POINT('',(-0.2064512,-0.0762,-0.3302));
#1886=CARTESIAN_POINT('',(-0.2064512,-0.0762,-0.3352927));
#1887=CARTESIAN_POINT('',(-0.2074512,-0.0635,-0.3302));
#1888=CARTESIAN_POINT('',(-0.2074512,-0.0635,-0.3302));
#1889=CARTESIAN_POINT('',(-0.2074512,-0.0635,-0.3327527));
#1890=CARTESIAN_POINT('',(-0.2064512,-0.0635,-0.3302));
#1891=CARTESIAN_POINT('',(-0.2064512,-0.0635,-0.3327527));
#1892=CARTESIAN_POINT('',(-0.2074512,-0.0381,-0.3302));
#1893=CARTESIAN_POINT('',(-0.2074512,-0.0381,-0.3302));
#1894=CARTESIAN_POINT('',(-0.2074512,-0.0381,-0.3327527));
#1895=CARTESIAN_POINT('',(-0.2064512,-0.0381,-0.3302));
#1896=CARTESIAN_POINT('',(-0.2064512,-0.0381,-0.3327527));
#1897=CARTESIAN_POINT('',(-0.2074512,-0.0762,-0.1016));
#1898=CARTESIAN_POINT('',(-0.2074512,-0.0762,-0.1016));
#1899=CARTESIAN_POINT('',(-0.2074512,-0.0762,-0.1041527));
#1900=CARTESIAN_POINT('',(-0.2064512,-0.0762,-0.1016));
#1901=CARTESIAN_POINT('',(-0.2064512,-0.0762,-0.1041527));
#1902=CARTESIAN_POINT('',(-0.2074512,-0.0635,-0.1016));
#1903=CARTESIAN_POINT('',(-0.2074512,-0.0635,-0.1016));
#1904=CARTESIAN_POINT('',(-0.2074512,-0.0635,-0.1041527));
#1905=CARTESIAN_POINT('',(-0.2064512,-0.0635,-0.1016));
#1906=CARTESIAN_POINT('',(-0.2064512,-0.0635,-0.1041527));
#1907=CARTESIAN_POINT('',(-0.2074512,-0.127,0.1016));
#1908=CARTESIAN_POINT('',(-0.2074512,-0.127,0.1016));
#1909=CARTESIAN_POINT('',(-0.2074512,-0.127,0.0990473));
#1910=CARTESIAN_POINT('',(-0.2064512,-0.127,0.1016));
#1911=CARTESIAN_POINT('',(-0.2064512,-0.127,0.0990473));
#1912=CARTESIAN_POINT('',(-0.2074512,-0.0381,-0.1016));
#1913=CARTESIAN_POINT('',(-0.2074512,-0.0381,-0.1016));
#1914=CARTESIAN_POINT('',(-0.2074512,-0.0381,-0.1041527));
#1915=CARTESIAN_POINT('',(-0.2064512,-0.0381,-0.1016));
#1916=CARTESIAN_POINT('',(-0.2064512,-0.0381,-0.1041527));
#1917=CARTESIAN_POINT('',(-0.2074512,2.77555756156289E-17,-0.1016));
#1918=CARTESIAN_POINT('',(-0.2074512,0.,-0.1066927));
#1919=CARTESIAN_POINT('',(-0.2074512,0.,-0.1066927));
#1920=CARTESIAN_POINT('',(-0.2064512,6.16297582203916E-33,-0.1066927));
#1921=CARTESIAN_POINT('',(-0.2074512,2.77555756156289E-17,-0.1016));
#1922=CARTESIAN_POINT('',(-0.2074512,0.,-0.0965073));
#1923=CARTESIAN_POINT('',(-0.2074512,0.,-0.0965073));
#1924=CARTESIAN_POINT('',(-0.2064512,6.16297582203916E-33,-0.0965073));
#1925=CARTESIAN_POINT('',(-0.2064512,2.77555756156289E-17,-0.1016));
#1926=CARTESIAN_POINT('',(-0.2074512,-0.0127,-0.1016));
#1927=CARTESIAN_POINT('',(-0.2074512,-0.0127,-0.1016));
#1928=CARTESIAN_POINT('',(-0.2074512,-0.0127,-0.1041527));
#1929=CARTESIAN_POINT('',(-0.2064512,-0.0127,-0.1016));
#1930=CARTESIAN_POINT('',(-0.2064512,-0.0127,-0.1041527));
#1931=CARTESIAN_POINT('',(-0.2074512,-0.1016,-0.3302));
#1932=CARTESIAN_POINT('',(-0.2074512,-0.1016,-0.3302));
#1933=CARTESIAN_POINT('',(-0.2074512,-0.1016,-0.3327527));
#1934=CARTESIAN_POINT('',(-0.2064512,-0.1016,-0.3302));
#1935=CARTESIAN_POINT('',(-0.2064512,-0.1016,-0.3327527));
#1936=CARTESIAN_POINT('',(-0.2074512,-0.0889,-0.3302));
#1937=CARTESIAN_POINT('',(-0.2074512,-0.0889,-0.3302));
#1938=CARTESIAN_POINT('',(-0.2074512,-0.0889,-0.3327527));
#1939=CARTESIAN_POINT('',(-0.2064512,-0.0889,-0.3302));
#1940=CARTESIAN_POINT('',(-0.2064512,-0.0889,-0.3327527));
#1941=CARTESIAN_POINT('',(-0.2074512,-0.127,-0.3302));
#1942=CARTESIAN_POINT('',(-0.2074512,-0.127,-0.3302));
#1943=CARTESIAN_POINT('',(-0.2074512,-0.127,-0.3327527));
#1944=CARTESIAN_POINT('',(-0.2064512,-0.127,-0.3302));
#1945=CARTESIAN_POINT('',(-0.2064512,-0.127,-0.3327527));
#1946=CARTESIAN_POINT('',(-0.2074512,0.,3.27278284544536E-18));
#1947=CARTESIAN_POINT('',(-0.2074512,0.,-0.0318586));
#1948=CARTESIAN_POINT('',(-0.2074512,0.,-0.0318586));
#1949=CARTESIAN_POINT('',(-0.2064512,0.,-0.0318586));
#1950=CARTESIAN_POINT('',(-0.2074512,0.,3.27278284544536E-18));
#1951=CARTESIAN_POINT('',(-0.2074512,0.,0.0318586));
#1952=CARTESIAN_POINT('',(-0.2074512,0.,0.0318586));
#1953=CARTESIAN_POINT('',(-0.2064512,0.,0.0318586));
#1954=CARTESIAN_POINT('',(-0.2064512,0.,3.27278284544536E-18));
#1955=CARTESIAN_POINT('',(-0.2074512,-0.2032,0.117475));
#1956=CARTESIAN_POINT('',(-0.2064512,-0.2032,0.117475));
#1957=CARTESIAN_POINT('',(-0.2064512,0.,0.117475));
#1958=CARTESIAN_POINT('',(-0.2074512,0.,0.117475));
#1959=CARTESIAN_POINT('',(-0.2074512,0.,0.117475));
#1960=CARTESIAN_POINT('',(-0.2074512,-0.2032,0.117475));
#1961=CARTESIAN_POINT('',(-0.2074512,-0.2032,-0.03140075));
#1962=CARTESIAN_POINT('',(-0.2074512,0.,-0.03140075));
#1963=CARTESIAN_POINT('',(-0.2074512,0.,-0.03140075));
#1964=CARTESIAN_POINT('',(-0.2074512,0.,-0.03140075));
#1965=CARTESIAN_POINT('',(-0.2074512,0.,-0.03140075));
#1966=CARTESIAN_POINT('',(-0.2074512,0.,-0.03140075));
#1967=CARTESIAN_POINT('',(-0.2064512,-0.2032,-0.03140075));
#1968=CARTESIAN_POINT('',(-0.2064512,0.,-0.03140075));
#1969=CARTESIAN_POINT('',(-0.2064512,0.,-0.03140075));
#1970=CARTESIAN_POINT('',(-0.2064512,0.,-0.03140075));
#1971=CARTESIAN_POINT('',(-0.2064512,0.,-0.03140075));
#1972=CARTESIAN_POINT('',(-0.2064512,0.,-0.03140075));
#1973=CARTESIAN_POINT('',(0.,0.,0.));
#1974=CARTESIAN_POINT('',(0.,0.,0.));
#1975=CARTESIAN_POINT('',(0.,0.,0.));
#1976=CARTESIAN_POINT('',(0.,0.,0.));
#1977=CARTESIAN_POINT('',(0.,0.,0.));
#1978=MECHANICAL_DESIGN_GEOMETRIC_PRESENTATION_REPRESENTATION('',(#1165),
#1979);
#1979=(
GEOMETRIC_REPRESENTATION_CONTEXT(3)
GLOBAL_UNCERTAINTY_ASSIGNED_CONTEXT((#1980))
GLOBAL_UNIT_ASSIGNED_CONTEXT((#1983,#1982,#1981))
REPRESENTATION_CONTEXT('Alt Shielding ND-L','TOP_LEVEL_ASSEMBLY_PART')
);
#1980=UNCERTAINTY_MEASURE_WITH_UNIT(LENGTH_MEASURE(1.E-8),#1983,
'DISTANCE_ACCURACY_VALUE','Maximum Tolerance applied to model');
#1981=(
NAMED_UNIT(*)
SI_UNIT($,.STERADIAN.)
SOLID_ANGLE_UNIT()
);
#1982=(
NAMED_UNIT(*)
PLANE_ANGLE_UNIT()
SI_UNIT($,.RADIAN.)
);
#1983=(
LENGTH_UNIT()
NAMED_UNIT(*)
SI_UNIT($,.METRE.)
);
#1984=PRODUCT_DEFINITION_SHAPE('','',#1985);
#1985=PRODUCT_DEFINITION('','',#1987,#1986);
#1986=PRODUCT_DEFINITION_CONTEXT('',#1993,'design');
#1987=PRODUCT_DEFINITION_FORMATION_WITH_SPECIFIED_SOURCE('','',#1989,
 .NOT_KNOWN.);
#1988=PRODUCT_RELATED_PRODUCT_CATEGORY('','',(#1989));
#1989=PRODUCT('Alt Shielding ND-L','Alt Shielding ND-L',
'Alt Shielding ND-L',(#1991));
#1990=PRODUCT_CATEGORY('','');
#1991=PRODUCT_CONTEXT('',#1993,'mechanical');
#1992=APPLICATION_PROTOCOL_DEFINITION('international standard',
'ap242_managed_model_based_3d_engineering',2011,#1993);
#1993=APPLICATION_CONTEXT('managed model based 3d engineering');
ENDSEC;
END-ISO-10303-21;
