ISO-10303-21;
HEADER;
/* Generated by software containing ST-Developer
 * from STEP Tools, Inc. (www.steptools.com) 
 */
/* OPTION: using custom renumber hook */

FILE_DESCRIPTION(
/* description */ ('STEP AP242',
'CAx-IF Rec.Pracs.---Representation and Presentation of Product Manufa
cturing Information (PMI)---4.0---2014-10-13',
'CAx-IF Rec.Pracs.---3D Tessellated Geometry---0.4---2014-09-14','2;1'),

/* implementation_level */ '2;1');

FILE_NAME(
/* name */ '68fb267734e6012dc82c9930',
/* time_stamp */ '2025-10-24T07:10:47Z',
/* author */ (''),
/* organization */ (''),
/* preprocessor_version */ 'ST-DEVELOPER v20',
/* originating_system */ 'ONSHAPE BY PTC INC, 1.205',
/* authorisation */ '  ');

FILE_SCHEMA (('AP242_MANAGED_MODEL_BASED_3D_ENGINEERING_MIM_LF { 1 0 10303 442 1 1 4 }'));
ENDSEC;

DATA;
#10=SHAPE_REPRESENTATION_RELATIONSHIP('','',#755,#11);
#11=ADVANCED_BREP_SHAPE_REPRESENTATION('',(#753),#1197);
#12=LINE('',#1051,#84);
#13=LINE('',#1054,#85);
#14=LINE('',#1056,#86);
#15=LINE('',#1058,#87);
#16=LINE('',#1059,#88);
#17=LINE('',#1062,#89);
#18=LINE('',#1064,#90);
#19=LINE('',#1066,#91);
#20=LINE('',#1067,#92);
#21=LINE('',#1070,#93);
#22=LINE('',#1072,#94);
#23=LINE('',#1074,#95);
#24=LINE('',#1075,#96);
#25=LINE('',#1078,#97);
#26=LINE('',#1080,#98);
#27=LINE('',#1082,#99);
#28=LINE('',#1083,#100);
#29=LINE('',#1086,#101);
#30=LINE('',#1088,#102);
#31=LINE('',#1090,#103);
#32=LINE('',#1091,#104);
#33=LINE('',#1094,#105);
#34=LINE('',#1096,#106);
#35=LINE('',#1098,#107);
#36=LINE('',#1100,#108);
#37=LINE('',#1103,#109);
#38=LINE('',#1105,#110);
#39=LINE('',#1107,#111);
#40=LINE('',#1108,#112);
#41=LINE('',#1111,#113);
#42=LINE('',#1113,#114);
#43=LINE('',#1115,#115);
#44=LINE('',#1116,#116);
#45=LINE('',#1119,#117);
#46=LINE('',#1121,#118);
#47=LINE('',#1123,#119);
#48=LINE('',#1124,#120);
#49=LINE('',#1127,#121);
#50=LINE('',#1129,#122);
#51=LINE('',#1131,#123);
#52=LINE('',#1132,#124);
#53=LINE('',#1135,#125);
#54=LINE('',#1137,#126);
#55=LINE('',#1139,#127);
#56=LINE('',#1140,#128);
#57=LINE('',#1143,#129);
#58=LINE('',#1145,#130);
#59=LINE('',#1147,#131);
#60=LINE('',#1149,#132);
#61=LINE('',#1150,#133);
#62=LINE('',#1152,#134);
#63=LINE('',#1154,#135);
#64=LINE('',#1157,#136);
#65=LINE('',#1158,#137);
#66=LINE('',#1160,#138);
#67=LINE('',#1162,#139);
#68=LINE('',#1165,#140);
#69=LINE('',#1166,#141);
#70=LINE('',#1168,#142);
#71=LINE('',#1170,#143);
#72=LINE('',#1173,#144);
#73=LINE('',#1174,#145);
#74=LINE('',#1176,#146);
#75=LINE('',#1178,#147);
#76=LINE('',#1181,#148);
#77=LINE('',#1182,#149);
#78=LINE('',#1184,#150);
#79=LINE('',#1186,#151);
#80=LINE('',#1189,#152);
#81=LINE('',#1190,#153);
#82=LINE('',#1192,#154);
#83=LINE('',#1194,#155);
#84=VECTOR('',#877,1.);
#85=VECTOR('',#878,1.);
#86=VECTOR('',#879,1.);
#87=VECTOR('',#880,1.);
#88=VECTOR('',#881,1.);
#89=VECTOR('',#882,1.);
#90=VECTOR('',#883,1.);
#91=VECTOR('',#884,1.);
#92=VECTOR('',#885,1.);
#93=VECTOR('',#886,1.);
#94=VECTOR('',#887,1.);
#95=VECTOR('',#888,1.);
#96=VECTOR('',#889,1.);
#97=VECTOR('',#890,1.);
#98=VECTOR('',#891,1.);
#99=VECTOR('',#892,1.);
#100=VECTOR('',#893,1.);
#101=VECTOR('',#894,1.);
#102=VECTOR('',#895,1.);
#103=VECTOR('',#896,1.);
#104=VECTOR('',#897,1.);
#105=VECTOR('',#898,1.);
#106=VECTOR('',#899,1.);
#107=VECTOR('',#900,1.);
#108=VECTOR('',#903,1.);
#109=VECTOR('',#904,1.);
#110=VECTOR('',#905,1.);
#111=VECTOR('',#906,1.);
#112=VECTOR('',#907,1.);
#113=VECTOR('',#908,1.);
#114=VECTOR('',#909,1.);
#115=VECTOR('',#910,1.);
#116=VECTOR('',#911,1.);
#117=VECTOR('',#912,1.);
#118=VECTOR('',#913,1.);
#119=VECTOR('',#914,1.);
#120=VECTOR('',#915,1.);
#121=VECTOR('',#916,1.);
#122=VECTOR('',#917,1.);
#123=VECTOR('',#918,1.);
#124=VECTOR('',#919,1.);
#125=VECTOR('',#920,1.);
#126=VECTOR('',#921,1.);
#127=VECTOR('',#922,1.);
#128=VECTOR('',#923,1.);
#129=VECTOR('',#924,1.);
#130=VECTOR('',#925,1.);
#131=VECTOR('',#926,1.);
#132=VECTOR('',#929,1.);
#133=VECTOR('',#930,1.);
#134=VECTOR('',#933,1.);
#135=VECTOR('',#936,1.);
#136=VECTOR('',#941,1.);
#137=VECTOR('',#942,1.);
#138=VECTOR('',#945,1.);
#139=VECTOR('',#948,1.);
#140=VECTOR('',#953,1.);
#141=VECTOR('',#954,1.);
#142=VECTOR('',#957,1.);
#143=VECTOR('',#960,1.);
#144=VECTOR('',#965,1.);
#145=VECTOR('',#966,1.);
#146=VECTOR('',#969,1.);
#147=VECTOR('',#972,1.);
#148=VECTOR('',#977,1.);
#149=VECTOR('',#978,1.);
#150=VECTOR('',#981,1.);
#151=VECTOR('',#984,1.);
#152=VECTOR('',#989,1.);
#153=VECTOR('',#990,1.);
#154=VECTOR('',#993,1.);
#155=VECTOR('',#996,1.);
#156=PLANE('',#787);
#157=PLANE('',#788);
#158=PLANE('',#789);
#159=PLANE('',#790);
#160=PLANE('',#791);
#161=PLANE('',#792);
#162=PLANE('',#793);
#163=PLANE('',#794);
#164=PLANE('',#795);
#165=PLANE('',#796);
#166=PLANE('',#797);
#167=PLANE('',#798);
#168=PLANE('',#799);
#169=PLANE('',#800);
#170=PLANE('',#801);
#171=PLANE('',#802);
#172=PLANE('',#803);
#173=PLANE('',#804);
#174=PLANE('',#805);
#175=PLANE('',#806);
#176=PLANE('',#807);
#177=PLANE('',#808);
#178=PLANE('',#809);
#179=PLANE('',#810);
#180=PLANE('',#811);
#181=PLANE('',#812);
#182=ORIENTED_EDGE('',*,*,#366,.T.);
#183=ORIENTED_EDGE('',*,*,#367,.F.);
#184=ORIENTED_EDGE('',*,*,#368,.T.);
#185=ORIENTED_EDGE('',*,*,#369,.F.);
#186=ORIENTED_EDGE('',*,*,#370,.T.);
#187=ORIENTED_EDGE('',*,*,#371,.F.);
#188=ORIENTED_EDGE('',*,*,#372,.T.);
#189=ORIENTED_EDGE('',*,*,#373,.F.);
#190=ORIENTED_EDGE('',*,*,#374,.T.);
#191=ORIENTED_EDGE('',*,*,#375,.F.);
#192=ORIENTED_EDGE('',*,*,#376,.T.);
#193=ORIENTED_EDGE('',*,*,#377,.F.);
#194=ORIENTED_EDGE('',*,*,#378,.T.);
#195=ORIENTED_EDGE('',*,*,#379,.F.);
#196=ORIENTED_EDGE('',*,*,#380,.F.);
#197=ORIENTED_EDGE('',*,*,#381,.T.);
#198=ORIENTED_EDGE('',*,*,#382,.T.);
#199=ORIENTED_EDGE('',*,*,#383,.F.);
#200=ORIENTED_EDGE('',*,*,#384,.T.);
#201=ORIENTED_EDGE('',*,*,#385,.F.);
#202=ORIENTED_EDGE('',*,*,#386,.F.);
#203=ORIENTED_EDGE('',*,*,#387,.T.);
#204=ORIENTED_EDGE('',*,*,#388,.T.);
#205=ORIENTED_EDGE('',*,*,#389,.F.);
#206=ORIENTED_EDGE('',*,*,#390,.F.);
#207=ORIENTED_EDGE('',*,*,#391,.T.);
#208=ORIENTED_EDGE('',*,*,#392,.T.);
#209=ORIENTED_EDGE('',*,*,#393,.F.);
#210=ORIENTED_EDGE('',*,*,#394,.F.);
#211=ORIENTED_EDGE('',*,*,#395,.T.);
#212=ORIENTED_EDGE('',*,*,#396,.T.);
#213=ORIENTED_EDGE('',*,*,#397,.F.);
#214=ORIENTED_EDGE('',*,*,#398,.F.);
#215=ORIENTED_EDGE('',*,*,#399,.T.);
#216=ORIENTED_EDGE('',*,*,#400,.T.);
#217=ORIENTED_EDGE('',*,*,#401,.F.);
#218=ORIENTED_EDGE('',*,*,#402,.F.);
#219=ORIENTED_EDGE('',*,*,#403,.T.);
#220=ORIENTED_EDGE('',*,*,#404,.T.);
#221=ORIENTED_EDGE('',*,*,#405,.F.);
#222=ORIENTED_EDGE('',*,*,#406,.F.);
#223=ORIENTED_EDGE('',*,*,#407,.T.);
#224=ORIENTED_EDGE('',*,*,#408,.T.);
#225=ORIENTED_EDGE('',*,*,#409,.F.);
#226=ORIENTED_EDGE('',*,*,#382,.F.);
#227=ORIENTED_EDGE('',*,*,#380,.T.);
#228=ORIENTED_EDGE('',*,*,#378,.F.);
#229=ORIENTED_EDGE('',*,*,#376,.F.);
#230=ORIENTED_EDGE('',*,*,#374,.F.);
#231=ORIENTED_EDGE('',*,*,#372,.F.);
#232=ORIENTED_EDGE('',*,*,#370,.F.);
#233=ORIENTED_EDGE('',*,*,#368,.F.);
#234=ORIENTED_EDGE('',*,*,#366,.F.);
#235=ORIENTED_EDGE('',*,*,#384,.F.);
#236=ORIENTED_EDGE('',*,*,#410,.F.);
#237=ORIENTED_EDGE('',*,*,#411,.T.);
#238=ORIENTED_EDGE('',*,*,#412,.T.);
#239=ORIENTED_EDGE('',*,*,#413,.F.);
#240=ORIENTED_EDGE('',*,*,#414,.F.);
#241=ORIENTED_EDGE('',*,*,#415,.T.);
#242=ORIENTED_EDGE('',*,*,#416,.T.);
#243=ORIENTED_EDGE('',*,*,#417,.F.);
#244=ORIENTED_EDGE('',*,*,#418,.F.);
#245=ORIENTED_EDGE('',*,*,#419,.T.);
#246=ORIENTED_EDGE('',*,*,#420,.T.);
#247=ORIENTED_EDGE('',*,*,#421,.F.);
#248=ORIENTED_EDGE('',*,*,#422,.F.);
#249=ORIENTED_EDGE('',*,*,#423,.T.);
#250=ORIENTED_EDGE('',*,*,#424,.T.);
#251=ORIENTED_EDGE('',*,*,#425,.F.);
#252=ORIENTED_EDGE('',*,*,#426,.F.);
#253=ORIENTED_EDGE('',*,*,#427,.T.);
#254=ORIENTED_EDGE('',*,*,#428,.T.);
#255=ORIENTED_EDGE('',*,*,#429,.F.);
#256=ORIENTED_EDGE('',*,*,#430,.F.);
#257=ORIENTED_EDGE('',*,*,#431,.T.);
#258=ORIENTED_EDGE('',*,*,#432,.T.);
#259=ORIENTED_EDGE('',*,*,#433,.F.);
#260=ORIENTED_EDGE('',*,*,#383,.T.);
#261=ORIENTED_EDGE('',*,*,#381,.F.);
#262=ORIENTED_EDGE('',*,*,#379,.T.);
#263=ORIENTED_EDGE('',*,*,#377,.T.);
#264=ORIENTED_EDGE('',*,*,#375,.T.);
#265=ORIENTED_EDGE('',*,*,#373,.T.);
#266=ORIENTED_EDGE('',*,*,#371,.T.);
#267=ORIENTED_EDGE('',*,*,#369,.T.);
#268=ORIENTED_EDGE('',*,*,#367,.T.);
#269=ORIENTED_EDGE('',*,*,#385,.T.);
#270=ORIENTED_EDGE('',*,*,#406,.T.);
#271=ORIENTED_EDGE('',*,*,#434,.F.);
#272=ORIENTED_EDGE('',*,*,#431,.F.);
#273=ORIENTED_EDGE('',*,*,#435,.T.);
#274=ORIENTED_EDGE('',*,*,#435,.F.);
#275=ORIENTED_EDGE('',*,*,#430,.T.);
#276=ORIENTED_EDGE('',*,*,#436,.T.);
#277=ORIENTED_EDGE('',*,*,#407,.F.);
#278=ORIENTED_EDGE('',*,*,#436,.F.);
#279=ORIENTED_EDGE('',*,*,#433,.T.);
#280=ORIENTED_EDGE('',*,*,#437,.T.);
#281=ORIENTED_EDGE('',*,*,#408,.F.);
#282=ORIENTED_EDGE('',*,*,#409,.T.);
#283=ORIENTED_EDGE('',*,*,#437,.F.);
#284=ORIENTED_EDGE('',*,*,#432,.F.);
#285=ORIENTED_EDGE('',*,*,#434,.T.);
#286=ORIENTED_EDGE('',*,*,#402,.T.);
#287=ORIENTED_EDGE('',*,*,#438,.F.);
#288=ORIENTED_EDGE('',*,*,#427,.F.);
#289=ORIENTED_EDGE('',*,*,#439,.T.);
#290=ORIENTED_EDGE('',*,*,#439,.F.);
#291=ORIENTED_EDGE('',*,*,#426,.T.);
#292=ORIENTED_EDGE('',*,*,#440,.T.);
#293=ORIENTED_EDGE('',*,*,#403,.F.);
#294=ORIENTED_EDGE('',*,*,#440,.F.);
#295=ORIENTED_EDGE('',*,*,#429,.T.);
#296=ORIENTED_EDGE('',*,*,#441,.T.);
#297=ORIENTED_EDGE('',*,*,#404,.F.);
#298=ORIENTED_EDGE('',*,*,#405,.T.);
#299=ORIENTED_EDGE('',*,*,#441,.F.);
#300=ORIENTED_EDGE('',*,*,#428,.F.);
#301=ORIENTED_EDGE('',*,*,#438,.T.);
#302=ORIENTED_EDGE('',*,*,#398,.T.);
#303=ORIENTED_EDGE('',*,*,#442,.F.);
#304=ORIENTED_EDGE('',*,*,#423,.F.);
#305=ORIENTED_EDGE('',*,*,#443,.T.);
#306=ORIENTED_EDGE('',*,*,#443,.F.);
#307=ORIENTED_EDGE('',*,*,#422,.T.);
#308=ORIENTED_EDGE('',*,*,#444,.T.);
#309=ORIENTED_EDGE('',*,*,#399,.F.);
#310=ORIENTED_EDGE('',*,*,#444,.F.);
#311=ORIENTED_EDGE('',*,*,#425,.T.);
#312=ORIENTED_EDGE('',*,*,#445,.T.);
#313=ORIENTED_EDGE('',*,*,#400,.F.);
#314=ORIENTED_EDGE('',*,*,#401,.T.);
#315=ORIENTED_EDGE('',*,*,#445,.F.);
#316=ORIENTED_EDGE('',*,*,#424,.F.);
#317=ORIENTED_EDGE('',*,*,#442,.T.);
#318=ORIENTED_EDGE('',*,*,#394,.T.);
#319=ORIENTED_EDGE('',*,*,#446,.F.);
#320=ORIENTED_EDGE('',*,*,#419,.F.);
#321=ORIENTED_EDGE('',*,*,#447,.T.);
#322=ORIENTED_EDGE('',*,*,#447,.F.);
#323=ORIENTED_EDGE('',*,*,#418,.T.);
#324=ORIENTED_EDGE('',*,*,#448,.T.);
#325=ORIENTED_EDGE('',*,*,#395,.F.);
#326=ORIENTED_EDGE('',*,*,#448,.F.);
#327=ORIENTED_EDGE('',*,*,#421,.T.);
#328=ORIENTED_EDGE('',*,*,#449,.T.);
#329=ORIENTED_EDGE('',*,*,#396,.F.);
#330=ORIENTED_EDGE('',*,*,#397,.T.);
#331=ORIENTED_EDGE('',*,*,#449,.F.);
#332=ORIENTED_EDGE('',*,*,#420,.F.);
#333=ORIENTED_EDGE('',*,*,#446,.T.);
#334=ORIENTED_EDGE('',*,*,#390,.T.);
#335=ORIENTED_EDGE('',*,*,#450,.F.);
#336=ORIENTED_EDGE('',*,*,#415,.F.);
#337=ORIENTED_EDGE('',*,*,#451,.T.);
#338=ORIENTED_EDGE('',*,*,#451,.F.);
#339=ORIENTED_EDGE('',*,*,#414,.T.);
#340=ORIENTED_EDGE('',*,*,#452,.T.);
#341=ORIENTED_EDGE('',*,*,#391,.F.);
#342=ORIENTED_EDGE('',*,*,#452,.F.);
#343=ORIENTED_EDGE('',*,*,#417,.T.);
#344=ORIENTED_EDGE('',*,*,#453,.T.);
#345=ORIENTED_EDGE('',*,*,#392,.F.);
#346=ORIENTED_EDGE('',*,*,#393,.T.);
#347=ORIENTED_EDGE('',*,*,#453,.F.);
#348=ORIENTED_EDGE('',*,*,#416,.F.);
#349=ORIENTED_EDGE('',*,*,#450,.T.);
#350=ORIENTED_EDGE('',*,*,#386,.T.);
#351=ORIENTED_EDGE('',*,*,#454,.F.);
#352=ORIENTED_EDGE('',*,*,#411,.F.);
#353=ORIENTED_EDGE('',*,*,#455,.T.);
#354=ORIENTED_EDGE('',*,*,#455,.F.);
#355=ORIENTED_EDGE('',*,*,#410,.T.);
#356=ORIENTED_EDGE('',*,*,#456,.T.);
#357=ORIENTED_EDGE('',*,*,#387,.F.);
#358=ORIENTED_EDGE('',*,*,#456,.F.);
#359=ORIENTED_EDGE('',*,*,#413,.T.);
#360=ORIENTED_EDGE('',*,*,#457,.T.);
#361=ORIENTED_EDGE('',*,*,#388,.F.);
#362=ORIENTED_EDGE('',*,*,#389,.T.);
#363=ORIENTED_EDGE('',*,*,#457,.F.);
#364=ORIENTED_EDGE('',*,*,#412,.F.);
#365=ORIENTED_EDGE('',*,*,#454,.T.);
#366=EDGE_CURVE('',#458,#458,#526,.T.);
#367=EDGE_CURVE('',#459,#459,#527,.T.);
#368=EDGE_CURVE('',#460,#460,#528,.T.);
#369=EDGE_CURVE('',#461,#461,#529,.T.);
#370=EDGE_CURVE('',#462,#462,#530,.T.);
#371=EDGE_CURVE('',#463,#463,#531,.T.);
#372=EDGE_CURVE('',#464,#464,#532,.T.);
#373=EDGE_CURVE('',#465,#465,#533,.T.);
#374=EDGE_CURVE('',#466,#466,#534,.T.);
#375=EDGE_CURVE('',#467,#467,#535,.T.);
#376=EDGE_CURVE('',#468,#468,#536,.T.);
#377=EDGE_CURVE('',#469,#469,#537,.T.);
#378=EDGE_CURVE('',#470,#470,#538,.T.);
#379=EDGE_CURVE('',#471,#471,#539,.T.);
#380=EDGE_CURVE('',#472,#472,#540,.T.);
#381=EDGE_CURVE('',#473,#473,#541,.T.);
#382=EDGE_CURVE('',#474,#474,#542,.T.);
#383=EDGE_CURVE('',#475,#475,#543,.T.);
#384=EDGE_CURVE('',#476,#476,#544,.T.);
#385=EDGE_CURVE('',#477,#477,#545,.T.);
#386=EDGE_CURVE('',#478,#479,#12,.T.);
#387=EDGE_CURVE('',#478,#480,#13,.T.);
#388=EDGE_CURVE('',#480,#481,#14,.T.);
#389=EDGE_CURVE('',#479,#481,#15,.T.);
#390=EDGE_CURVE('',#482,#483,#16,.T.);
#391=EDGE_CURVE('',#482,#484,#17,.T.);
#392=EDGE_CURVE('',#484,#485,#18,.T.);
#393=EDGE_CURVE('',#483,#485,#19,.T.);
#394=EDGE_CURVE('',#486,#487,#20,.T.);
#395=EDGE_CURVE('',#486,#488,#21,.T.);
#396=EDGE_CURVE('',#488,#489,#22,.T.);
#397=EDGE_CURVE('',#487,#489,#23,.T.);
#398=EDGE_CURVE('',#490,#491,#24,.T.);
#399=EDGE_CURVE('',#490,#492,#25,.T.);
#400=EDGE_CURVE('',#492,#493,#26,.T.);
#401=EDGE_CURVE('',#491,#493,#27,.T.);
#402=EDGE_CURVE('',#494,#495,#28,.T.);
#403=EDGE_CURVE('',#494,#496,#29,.T.);
#404=EDGE_CURVE('',#496,#497,#30,.T.);
#405=EDGE_CURVE('',#495,#497,#31,.T.);
#406=EDGE_CURVE('',#498,#499,#32,.T.);
#407=EDGE_CURVE('',#498,#500,#33,.T.);
#408=EDGE_CURVE('',#500,#501,#34,.T.);
#409=EDGE_CURVE('',#499,#501,#35,.T.);
#410=EDGE_CURVE('',#502,#503,#36,.T.);
#411=EDGE_CURVE('',#502,#504,#37,.T.);
#412=EDGE_CURVE('',#504,#505,#38,.T.);
#413=EDGE_CURVE('',#503,#505,#39,.T.);
#414=EDGE_CURVE('',#506,#507,#40,.T.);
#415=EDGE_CURVE('',#506,#508,#41,.T.);
#416=EDGE_CURVE('',#508,#509,#42,.T.);
#417=EDGE_CURVE('',#507,#509,#43,.T.);
#418=EDGE_CURVE('',#510,#511,#44,.T.);
#419=EDGE_CURVE('',#510,#512,#45,.T.);
#420=EDGE_CURVE('',#512,#513,#46,.T.);
#421=EDGE_CURVE('',#511,#513,#47,.T.);
#422=EDGE_CURVE('',#514,#515,#48,.T.);
#423=EDGE_CURVE('',#514,#516,#49,.T.);
#424=EDGE_CURVE('',#516,#517,#50,.T.);
#425=EDGE_CURVE('',#515,#517,#51,.T.);
#426=EDGE_CURVE('',#518,#519,#52,.T.);
#427=EDGE_CURVE('',#518,#520,#53,.T.);
#428=EDGE_CURVE('',#520,#521,#54,.T.);
#429=EDGE_CURVE('',#519,#521,#55,.T.);
#430=EDGE_CURVE('',#522,#523,#56,.T.);
#431=EDGE_CURVE('',#522,#524,#57,.T.);
#432=EDGE_CURVE('',#524,#525,#58,.T.);
#433=EDGE_CURVE('',#523,#525,#59,.T.);
#434=EDGE_CURVE('',#524,#499,#60,.T.);
#435=EDGE_CURVE('',#522,#498,#61,.T.);
#436=EDGE_CURVE('',#523,#500,#62,.T.);
#437=EDGE_CURVE('',#525,#501,#63,.T.);
#438=EDGE_CURVE('',#520,#495,#64,.T.);
#439=EDGE_CURVE('',#518,#494,#65,.T.);
#440=EDGE_CURVE('',#519,#496,#66,.T.);
#441=EDGE_CURVE('',#521,#497,#67,.T.);
#442=EDGE_CURVE('',#516,#491,#68,.T.);
#443=EDGE_CURVE('',#514,#490,#69,.T.);
#444=EDGE_CURVE('',#515,#492,#70,.T.);
#445=EDGE_CURVE('',#517,#493,#71,.T.);
#446=EDGE_CURVE('',#512,#487,#72,.T.);
#447=EDGE_CURVE('',#510,#486,#73,.T.);
#448=EDGE_CURVE('',#511,#488,#74,.T.);
#449=EDGE_CURVE('',#513,#489,#75,.T.);
#450=EDGE_CURVE('',#508,#483,#76,.T.);
#451=EDGE_CURVE('',#506,#482,#77,.T.);
#452=EDGE_CURVE('',#507,#484,#78,.T.);
#453=EDGE_CURVE('',#509,#485,#79,.T.);
#454=EDGE_CURVE('',#504,#479,#80,.T.);
#455=EDGE_CURVE('',#502,#478,#81,.T.);
#456=EDGE_CURVE('',#503,#480,#82,.T.);
#457=EDGE_CURVE('',#505,#481,#83,.T.);
#458=VERTEX_POINT('',#1002);
#459=VERTEX_POINT('',#1004);
#460=VERTEX_POINT('',#1007);
#461=VERTEX_POINT('',#1009);
#462=VERTEX_POINT('',#1012);
#463=VERTEX_POINT('',#1014);
#464=VERTEX_POINT('',#1017);
#465=VERTEX_POINT('',#1019);
#466=VERTEX_POINT('',#1022);
#467=VERTEX_POINT('',#1024);
#468=VERTEX_POINT('',#1027);
#469=VERTEX_POINT('',#1029);
#470=VERTEX_POINT('',#1032);
#471=VERTEX_POINT('',#1034);
#472=VERTEX_POINT('',#1037);
#473=VERTEX_POINT('',#1039);
#474=VERTEX_POINT('',#1042);
#475=VERTEX_POINT('',#1044);
#476=VERTEX_POINT('',#1047);
#477=VERTEX_POINT('',#1049);
#478=VERTEX_POINT('',#1052);
#479=VERTEX_POINT('',#1053);
#480=VERTEX_POINT('',#1055);
#481=VERTEX_POINT('',#1057);
#482=VERTEX_POINT('',#1060);
#483=VERTEX_POINT('',#1061);
#484=VERTEX_POINT('',#1063);
#485=VERTEX_POINT('',#1065);
#486=VERTEX_POINT('',#1068);
#487=VERTEX_POINT('',#1069);
#488=VERTEX_POINT('',#1071);
#489=VERTEX_POINT('',#1073);
#490=VERTEX_POINT('',#1076);
#491=VERTEX_POINT('',#1077);
#492=VERTEX_POINT('',#1079);
#493=VERTEX_POINT('',#1081);
#494=VERTEX_POINT('',#1084);
#495=VERTEX_POINT('',#1085);
#496=VERTEX_POINT('',#1087);
#497=VERTEX_POINT('',#1089);
#498=VERTEX_POINT('',#1092);
#499=VERTEX_POINT('',#1093);
#500=VERTEX_POINT('',#1095);
#501=VERTEX_POINT('',#1097);
#502=VERTEX_POINT('',#1101);
#503=VERTEX_POINT('',#1102);
#504=VERTEX_POINT('',#1104);
#505=VERTEX_POINT('',#1106);
#506=VERTEX_POINT('',#1109);
#507=VERTEX_POINT('',#1110);
#508=VERTEX_POINT('',#1112);
#509=VERTEX_POINT('',#1114);
#510=VERTEX_POINT('',#1117);
#511=VERTEX_POINT('',#1118);
#512=VERTEX_POINT('',#1120);
#513=VERTEX_POINT('',#1122);
#514=VERTEX_POINT('',#1125);
#515=VERTEX_POINT('',#1126);
#516=VERTEX_POINT('',#1128);
#517=VERTEX_POINT('',#1130);
#518=VERTEX_POINT('',#1133);
#519=VERTEX_POINT('',#1134);
#520=VERTEX_POINT('',#1136);
#521=VERTEX_POINT('',#1138);
#522=VERTEX_POINT('',#1141);
#523=VERTEX_POINT('',#1142);
#524=VERTEX_POINT('',#1144);
#525=VERTEX_POINT('',#1146);
#526=CIRCLE('',#758,0.002);
#527=CIRCLE('',#759,0.002);
#528=CIRCLE('',#761,0.002);
#529=CIRCLE('',#762,0.002);
#530=CIRCLE('',#764,0.002);
#531=CIRCLE('',#765,0.002);
#532=CIRCLE('',#767,0.002);
#533=CIRCLE('',#768,0.002);
#534=CIRCLE('',#770,0.002);
#535=CIRCLE('',#771,0.002);
#536=CIRCLE('',#773,0.002);
#537=CIRCLE('',#774,0.002);
#538=CIRCLE('',#776,0.002);
#539=CIRCLE('',#777,0.002);
#540=CIRCLE('',#779,0.0708);
#541=CIRCLE('',#780,0.0708);
#542=CIRCLE('',#782,0.0127);
#543=CIRCLE('',#783,0.0127);
#544=CIRCLE('',#785,0.002);
#545=CIRCLE('',#786,0.002);
#546=EDGE_LOOP('',(#182));
#547=EDGE_LOOP('',(#183));
#548=EDGE_LOOP('',(#184));
#549=EDGE_LOOP('',(#185));
#550=EDGE_LOOP('',(#186));
#551=EDGE_LOOP('',(#187));
#552=EDGE_LOOP('',(#188));
#553=EDGE_LOOP('',(#189));
#554=EDGE_LOOP('',(#190));
#555=EDGE_LOOP('',(#191));
#556=EDGE_LOOP('',(#192));
#557=EDGE_LOOP('',(#193));
#558=EDGE_LOOP('',(#194));
#559=EDGE_LOOP('',(#195));
#560=EDGE_LOOP('',(#196));
#561=EDGE_LOOP('',(#197));
#562=EDGE_LOOP('',(#198));
#563=EDGE_LOOP('',(#199));
#564=EDGE_LOOP('',(#200));
#565=EDGE_LOOP('',(#201));
#566=EDGE_LOOP('',(#202,#203,#204,#205));
#567=EDGE_LOOP('',(#206,#207,#208,#209));
#568=EDGE_LOOP('',(#210,#211,#212,#213));
#569=EDGE_LOOP('',(#214,#215,#216,#217));
#570=EDGE_LOOP('',(#218,#219,#220,#221));
#571=EDGE_LOOP('',(#222,#223,#224,#225));
#572=EDGE_LOOP('',(#226));
#573=EDGE_LOOP('',(#227));
#574=EDGE_LOOP('',(#228));
#575=EDGE_LOOP('',(#229));
#576=EDGE_LOOP('',(#230));
#577=EDGE_LOOP('',(#231));
#578=EDGE_LOOP('',(#232));
#579=EDGE_LOOP('',(#233));
#580=EDGE_LOOP('',(#234));
#581=EDGE_LOOP('',(#235));
#582=EDGE_LOOP('',(#236,#237,#238,#239));
#583=EDGE_LOOP('',(#240,#241,#242,#243));
#584=EDGE_LOOP('',(#244,#245,#246,#247));
#585=EDGE_LOOP('',(#248,#249,#250,#251));
#586=EDGE_LOOP('',(#252,#253,#254,#255));
#587=EDGE_LOOP('',(#256,#257,#258,#259));
#588=EDGE_LOOP('',(#260));
#589=EDGE_LOOP('',(#261));
#590=EDGE_LOOP('',(#262));
#591=EDGE_LOOP('',(#263));
#592=EDGE_LOOP('',(#264));
#593=EDGE_LOOP('',(#265));
#594=EDGE_LOOP('',(#266));
#595=EDGE_LOOP('',(#267));
#596=EDGE_LOOP('',(#268));
#597=EDGE_LOOP('',(#269));
#598=EDGE_LOOP('',(#270,#271,#272,#273));
#599=EDGE_LOOP('',(#274,#275,#276,#277));
#600=EDGE_LOOP('',(#278,#279,#280,#281));
#601=EDGE_LOOP('',(#282,#283,#284,#285));
#602=EDGE_LOOP('',(#286,#287,#288,#289));
#603=EDGE_LOOP('',(#290,#291,#292,#293));
#604=EDGE_LOOP('',(#294,#295,#296,#297));
#605=EDGE_LOOP('',(#298,#299,#300,#301));
#606=EDGE_LOOP('',(#302,#303,#304,#305));
#607=EDGE_LOOP('',(#306,#307,#308,#309));
#608=EDGE_LOOP('',(#310,#311,#312,#313));
#609=EDGE_LOOP('',(#314,#315,#316,#317));
#610=EDGE_LOOP('',(#318,#319,#320,#321));
#611=EDGE_LOOP('',(#322,#323,#324,#325));
#612=EDGE_LOOP('',(#326,#327,#328,#329));
#613=EDGE_LOOP('',(#330,#331,#332,#333));
#614=EDGE_LOOP('',(#334,#335,#336,#337));
#615=EDGE_LOOP('',(#338,#339,#340,#341));
#616=EDGE_LOOP('',(#342,#343,#344,#345));
#617=EDGE_LOOP('',(#346,#347,#348,#349));
#618=EDGE_LOOP('',(#350,#351,#352,#353));
#619=EDGE_LOOP('',(#354,#355,#356,#357));
#620=EDGE_LOOP('',(#358,#359,#360,#361));
#621=EDGE_LOOP('',(#362,#363,#364,#365));
#622=FACE_BOUND('',#546,.T.);
#623=FACE_BOUND('',#547,.T.);
#624=FACE_BOUND('',#548,.T.);
#625=FACE_BOUND('',#549,.T.);
#626=FACE_BOUND('',#550,.T.);
#627=FACE_BOUND('',#551,.T.);
#628=FACE_BOUND('',#552,.T.);
#629=FACE_BOUND('',#553,.T.);
#630=FACE_BOUND('',#554,.T.);
#631=FACE_BOUND('',#555,.T.);
#632=FACE_BOUND('',#556,.T.);
#633=FACE_BOUND('',#557,.T.);
#634=FACE_BOUND('',#558,.T.);
#635=FACE_BOUND('',#559,.T.);
#636=FACE_BOUND('',#560,.T.);
#637=FACE_BOUND('',#561,.T.);
#638=FACE_BOUND('',#562,.T.);
#639=FACE_BOUND('',#563,.T.);
#640=FACE_BOUND('',#564,.T.);
#641=FACE_BOUND('',#565,.T.);
#642=FACE_BOUND('',#566,.T.);
#643=FACE_BOUND('',#567,.T.);
#644=FACE_BOUND('',#568,.T.);
#645=FACE_BOUND('',#569,.T.);
#646=FACE_BOUND('',#570,.T.);
#647=FACE_BOUND('',#571,.T.);
#648=FACE_BOUND('',#572,.T.);
#649=FACE_BOUND('',#573,.T.);
#650=FACE_BOUND('',#574,.T.);
#651=FACE_BOUND('',#575,.T.);
#652=FACE_BOUND('',#576,.T.);
#653=FACE_BOUND('',#577,.T.);
#654=FACE_BOUND('',#578,.T.);
#655=FACE_BOUND('',#579,.T.);
#656=FACE_BOUND('',#580,.T.);
#657=FACE_BOUND('',#581,.T.);
#658=FACE_BOUND('',#582,.T.);
#659=FACE_BOUND('',#583,.T.);
#660=FACE_BOUND('',#584,.T.);
#661=FACE_BOUND('',#585,.T.);
#662=FACE_BOUND('',#586,.T.);
#663=FACE_BOUND('',#587,.T.);
#664=FACE_BOUND('',#588,.T.);
#665=FACE_BOUND('',#589,.T.);
#666=FACE_BOUND('',#590,.T.);
#667=FACE_BOUND('',#591,.T.);
#668=FACE_BOUND('',#592,.T.);
#669=FACE_BOUND('',#593,.T.);
#670=FACE_BOUND('',#594,.T.);
#671=FACE_BOUND('',#595,.T.);
#672=FACE_BOUND('',#596,.T.);
#673=FACE_BOUND('',#597,.T.);
#674=FACE_BOUND('',#598,.T.);
#675=FACE_BOUND('',#599,.T.);
#676=FACE_BOUND('',#600,.T.);
#677=FACE_BOUND('',#601,.T.);
#678=FACE_BOUND('',#602,.T.);
#679=FACE_BOUND('',#603,.T.);
#680=FACE_BOUND('',#604,.T.);
#681=FACE_BOUND('',#605,.T.);
#682=FACE_BOUND('',#606,.T.);
#683=FACE_BOUND('',#607,.T.);
#684=FACE_BOUND('',#608,.T.);
#685=FACE_BOUND('',#609,.T.);
#686=FACE_BOUND('',#610,.T.);
#687=FACE_BOUND('',#611,.T.);
#688=FACE_BOUND('',#612,.T.);
#689=FACE_BOUND('',#613,.T.);
#690=FACE_BOUND('',#614,.T.);
#691=FACE_BOUND('',#615,.T.);
#692=FACE_BOUND('',#616,.T.);
#693=FACE_BOUND('',#617,.T.);
#694=FACE_BOUND('',#618,.T.);
#695=FACE_BOUND('',#619,.T.);
#696=FACE_BOUND('',#620,.T.);
#697=FACE_BOUND('',#621,.T.);
#698=CYLINDRICAL_SURFACE('',#757,0.002);
#699=CYLINDRICAL_SURFACE('',#760,0.002);
#700=CYLINDRICAL_SURFACE('',#763,0.002);
#701=CYLINDRICAL_SURFACE('',#766,0.002);
#702=CYLINDRICAL_SURFACE('',#769,0.002);
#703=CYLINDRICAL_SURFACE('',#772,0.002);
#704=CYLINDRICAL_SURFACE('',#775,0.002);
#705=CYLINDRICAL_SURFACE('',#778,0.0708);
#706=CYLINDRICAL_SURFACE('',#781,0.0127);
#707=CYLINDRICAL_SURFACE('',#784,0.002);
#708=ADVANCED_FACE('',(#622,#623),#698,.F.);
#709=ADVANCED_FACE('',(#624,#625),#699,.F.);
#710=ADVANCED_FACE('',(#626,#627),#700,.F.);
#711=ADVANCED_FACE('',(#628,#629),#701,.F.);
#712=ADVANCED_FACE('',(#630,#631),#702,.F.);
#713=ADVANCED_FACE('',(#632,#633),#703,.F.);
#714=ADVANCED_FACE('',(#634,#635),#704,.F.);
#715=ADVANCED_FACE('',(#636,#637),#705,.T.);
#716=ADVANCED_FACE('',(#638,#639),#706,.F.);
#717=ADVANCED_FACE('',(#640,#641),#707,.F.);
#718=ADVANCED_FACE('',(#642,#643,#644,#645,#646,#647,#648,#649,#650,#651,
#652,#653,#654,#655,#656,#657),#156,.T.);
#719=ADVANCED_FACE('',(#658,#659,#660,#661,#662,#663,#664,#665,#666,#667,
#668,#669,#670,#671,#672,#673),#157,.F.);
#720=ADVANCED_FACE('',(#674),#158,.F.);
#721=ADVANCED_FACE('',(#675),#159,.T.);
#722=ADVANCED_FACE('',(#676),#160,.T.);
#723=ADVANCED_FACE('',(#677),#161,.F.);
#724=ADVANCED_FACE('',(#678),#162,.F.);
#725=ADVANCED_FACE('',(#679),#163,.T.);
#726=ADVANCED_FACE('',(#680),#164,.T.);
#727=ADVANCED_FACE('',(#681),#165,.F.);
#728=ADVANCED_FACE('',(#682),#166,.F.);
#729=ADVANCED_FACE('',(#683),#167,.T.);
#730=ADVANCED_FACE('',(#684),#168,.T.);
#731=ADVANCED_FACE('',(#685),#169,.F.);
#732=ADVANCED_FACE('',(#686),#170,.F.);
#733=ADVANCED_FACE('',(#687),#171,.T.);
#734=ADVANCED_FACE('',(#688),#172,.T.);
#735=ADVANCED_FACE('',(#689),#173,.F.);
#736=ADVANCED_FACE('',(#690),#174,.F.);
#737=ADVANCED_FACE('',(#691),#175,.T.);
#738=ADVANCED_FACE('',(#692),#176,.T.);
#739=ADVANCED_FACE('',(#693),#177,.F.);
#740=ADVANCED_FACE('',(#694),#178,.F.);
#741=ADVANCED_FACE('',(#695),#179,.T.);
#742=ADVANCED_FACE('',(#696),#180,.T.);
#743=ADVANCED_FACE('',(#697),#181,.F.);
#744=CLOSED_SHELL('',(#708,#709,#710,#711,#712,#713,#714,#715,#716,#717,
#718,#719,#720,#721,#722,#723,#724,#725,#726,#727,#728,#729,#730,#731,#732,
#733,#734,#735,#736,#737,#738,#739,#740,#741,#742,#743));
#745=STYLED_ITEM('',(#746),#753);
#746=PRESENTATION_STYLE_ASSIGNMENT((#747));
#747=SURFACE_STYLE_USAGE(.BOTH.,#748);
#748=SURFACE_SIDE_STYLE('',(#749));
#749=SURFACE_STYLE_FILL_AREA(#750);
#750=FILL_AREA_STYLE('',(#751));
#751=FILL_AREA_STYLE_COLOUR('',#752);
#752=COLOUR_RGB('',0.917647058823529,0.725490196078431,0.490196078431373);
#753=MANIFOLD_SOLID_BREP('Mast Mount Flange',#744);
#754=SHAPE_DEFINITION_REPRESENTATION(#1202,#755);
#755=SHAPE_REPRESENTATION('Mast Mount Flange',(#756),#1197);
#756=AXIS2_PLACEMENT_3D('',#999,#813,#814);
#757=AXIS2_PLACEMENT_3D('',#1000,#815,#816);
#758=AXIS2_PLACEMENT_3D('',#1001,#817,#818);
#759=AXIS2_PLACEMENT_3D('',#1003,#819,#820);
#760=AXIS2_PLACEMENT_3D('',#1005,#821,#822);
#761=AXIS2_PLACEMENT_3D('',#1006,#823,#824);
#762=AXIS2_PLACEMENT_3D('',#1008,#825,#826);
#763=AXIS2_PLACEMENT_3D('',#1010,#827,#828);
#764=AXIS2_PLACEMENT_3D('',#1011,#829,#830);
#765=AXIS2_PLACEMENT_3D('',#1013,#831,#832);
#766=AXIS2_PLACEMENT_3D('',#1015,#833,#834);
#767=AXIS2_PLACEMENT_3D('',#1016,#835,#836);
#768=AXIS2_PLACEMENT_3D('',#1018,#837,#838);
#769=AXIS2_PLACEMENT_3D('',#1020,#839,#840);
#770=AXIS2_PLACEMENT_3D('',#1021,#841,#842);
#771=AXIS2_PLACEMENT_3D('',#1023,#843,#844);
#772=AXIS2_PLACEMENT_3D('',#1025,#845,#846);
#773=AXIS2_PLACEMENT_3D('',#1026,#847,#848);
#774=AXIS2_PLACEMENT_3D('',#1028,#849,#850);
#775=AXIS2_PLACEMENT_3D('',#1030,#851,#852);
#776=AXIS2_PLACEMENT_3D('',#1031,#853,#854);
#777=AXIS2_PLACEMENT_3D('',#1033,#855,#856);
#778=AXIS2_PLACEMENT_3D('',#1035,#857,#858);
#779=AXIS2_PLACEMENT_3D('',#1036,#859,#860);
#780=AXIS2_PLACEMENT_3D('',#1038,#861,#862);
#781=AXIS2_PLACEMENT_3D('',#1040,#863,#864);
#782=AXIS2_PLACEMENT_3D('',#1041,#865,#866);
#783=AXIS2_PLACEMENT_3D('',#1043,#867,#868);
#784=AXIS2_PLACEMENT_3D('',#1045,#869,#870);
#785=AXIS2_PLACEMENT_3D('',#1046,#871,#872);
#786=AXIS2_PLACEMENT_3D('',#1048,#873,#874);
#787=AXIS2_PLACEMENT_3D('',#1050,#875,#876);
#788=AXIS2_PLACEMENT_3D('',#1099,#901,#902);
#789=AXIS2_PLACEMENT_3D('',#1148,#927,#928);
#790=AXIS2_PLACEMENT_3D('',#1151,#931,#932);
#791=AXIS2_PLACEMENT_3D('',#1153,#934,#935);
#792=AXIS2_PLACEMENT_3D('',#1155,#937,#938);
#793=AXIS2_PLACEMENT_3D('',#1156,#939,#940);
#794=AXIS2_PLACEMENT_3D('',#1159,#943,#944);
#795=AXIS2_PLACEMENT_3D('',#1161,#946,#947);
#796=AXIS2_PLACEMENT_3D('',#1163,#949,#950);
#797=AXIS2_PLACEMENT_3D('',#1164,#951,#952);
#798=AXIS2_PLACEMENT_3D('',#1167,#955,#956);
#799=AXIS2_PLACEMENT_3D('',#1169,#958,#959);
#800=AXIS2_PLACEMENT_3D('',#1171,#961,#962);
#801=AXIS2_PLACEMENT_3D('',#1172,#963,#964);
#802=AXIS2_PLACEMENT_3D('',#1175,#967,#968);
#803=AXIS2_PLACEMENT_3D('',#1177,#970,#971);
#804=AXIS2_PLACEMENT_3D('',#1179,#973,#974);
#805=AXIS2_PLACEMENT_3D('',#1180,#975,#976);
#806=AXIS2_PLACEMENT_3D('',#1183,#979,#980);
#807=AXIS2_PLACEMENT_3D('',#1185,#982,#983);
#808=AXIS2_PLACEMENT_3D('',#1187,#985,#986);
#809=AXIS2_PLACEMENT_3D('',#1188,#987,#988);
#810=AXIS2_PLACEMENT_3D('',#1191,#991,#992);
#811=AXIS2_PLACEMENT_3D('',#1193,#994,#995);
#812=AXIS2_PLACEMENT_3D('',#1195,#997,#998);
#813=DIRECTION('',(0.,0.,1.));
#814=DIRECTION('',(1.,0.,0.));
#815=DIRECTION('',(0.,0.,-1.));
#816=DIRECTION('',(-1.,0.,0.));
#817=DIRECTION('',(0.,0.,1.));
#818=DIRECTION('',(1.,0.,0.));
#819=DIRECTION('',(0.,0.,1.));
#820=DIRECTION('',(1.,0.,0.));
#821=DIRECTION('',(0.,0.,-1.));
#822=DIRECTION('',(-1.,0.,0.));
#823=DIRECTION('',(0.,0.,1.));
#824=DIRECTION('',(1.,0.,0.));
#825=DIRECTION('',(0.,0.,1.));
#826=DIRECTION('',(1.,0.,0.));
#827=DIRECTION('',(0.,0.,-1.));
#828=DIRECTION('',(-1.,0.,0.));
#829=DIRECTION('',(0.,0.,1.));
#830=DIRECTION('',(1.,0.,0.));
#831=DIRECTION('',(0.,0.,1.));
#832=DIRECTION('',(1.,0.,0.));
#833=DIRECTION('',(0.,0.,-1.));
#834=DIRECTION('',(-1.,0.,0.));
#835=DIRECTION('',(0.,0.,1.));
#836=DIRECTION('',(1.,0.,0.));
#837=DIRECTION('',(0.,0.,1.));
#838=DIRECTION('',(1.,0.,0.));
#839=DIRECTION('',(0.,0.,-1.));
#840=DIRECTION('',(-1.,0.,0.));
#841=DIRECTION('',(0.,0.,1.));
#842=DIRECTION('',(1.,0.,0.));
#843=DIRECTION('',(0.,0.,1.));
#844=DIRECTION('',(1.,0.,0.));
#845=DIRECTION('',(0.,0.,-1.));
#846=DIRECTION('',(-1.,0.,0.));
#847=DIRECTION('',(0.,0.,1.));
#848=DIRECTION('',(1.,0.,0.));
#849=DIRECTION('',(0.,0.,1.));
#850=DIRECTION('',(1.,0.,0.));
#851=DIRECTION('',(0.,0.,-1.));
#852=DIRECTION('',(-1.,0.,0.));
#853=DIRECTION('',(0.,0.,1.));
#854=DIRECTION('',(1.,0.,0.));
#855=DIRECTION('',(0.,0.,1.));
#856=DIRECTION('',(1.,0.,0.));
#857=DIRECTION('',(0.,0.,-1.));
#858=DIRECTION('',(-1.,0.,0.));
#859=DIRECTION('',(0.,0.,1.));
#860=DIRECTION('',(1.,0.,0.));
#861=DIRECTION('',(0.,0.,1.));
#862=DIRECTION('',(1.,0.,0.));
#863=DIRECTION('',(0.,0.,-1.));
#864=DIRECTION('',(-1.,0.,0.));
#865=DIRECTION('',(0.,0.,1.));
#866=DIRECTION('',(1.,0.,0.));
#867=DIRECTION('',(0.,0.,1.));
#868=DIRECTION('',(1.,0.,0.));
#869=DIRECTION('',(0.,0.,-1.));
#870=DIRECTION('',(-1.,0.,0.));
#871=DIRECTION('',(0.,0.,1.));
#872=DIRECTION('',(1.,0.,0.));
#873=DIRECTION('',(0.,0.,1.));
#874=DIRECTION('',(1.,0.,0.));
#875=DIRECTION('',(0.,0.,1.));
#876=DIRECTION('',(1.,0.,0.));
#877=DIRECTION('',(1.54778923153769E-15,-1.,0.));
#878=DIRECTION('',(1.,1.25142204051621E-15,0.));
#879=DIRECTION('',(1.54778923153769E-15,-1.,0.));
#880=DIRECTION('',(1.,1.25142204051621E-15,0.));
#881=DIRECTION('',(0.866025403784439,-0.5,0.));
#882=DIRECTION('',(0.5,0.866025403784439,0.));
#883=DIRECTION('',(0.866025403784439,-0.5,0.));
#884=DIRECTION('',(0.5,0.866025403784439,0.));
#885=DIRECTION('',(0.866025403784438,0.5,0.));
#886=DIRECTION('',(-0.5,0.866025403784438,0.));
#887=DIRECTION('',(0.866025403784438,0.5,0.));
#888=DIRECTION('',(-0.5,0.866025403784438,0.));
#889=DIRECTION('',(-7.7389461576881E-16,1.,0.));
#890=DIRECTION('',(-1.,-8.34281360344139E-16,0.));
#891=DIRECTION('',(-1.16084192365321E-15,1.,0.));
#892=DIRECTION('',(-1.,-8.34281360344139E-16,0.));
#893=DIRECTION('',(-0.86602540378444,0.5,0.));
#894=DIRECTION('',(-0.5,-0.866025403784439,0.));
#895=DIRECTION('',(-0.866025403784439,0.5,0.));
#896=DIRECTION('',(-0.5,-0.866025403784439,0.));
#897=DIRECTION('',(-0.866025403784438,-0.5,0.));
#898=DIRECTION('',(0.5,-0.866025403784438,0.));
#899=DIRECTION('',(-0.866025403784438,-0.5,0.));
#900=DIRECTION('',(0.5,-0.866025403784439,0.));
#901=DIRECTION('',(0.,0.,1.));
#902=DIRECTION('',(1.,0.,0.));
#903=DIRECTION('',(1.,1.25142204051621E-15,0.));
#904=DIRECTION('',(1.54778923153769E-15,-1.,0.));
#905=DIRECTION('',(1.,1.25142204051621E-15,0.));
#906=DIRECTION('',(1.54778923153769E-15,-1.,0.));
#907=DIRECTION('',(0.5,0.866025403784439,0.));
#908=DIRECTION('',(0.866025403784439,-0.5,0.));
#909=DIRECTION('',(0.5,0.866025403784439,0.));
#910=DIRECTION('',(0.866025403784439,-0.5,0.));
#911=DIRECTION('',(-0.5,0.866025403784438,0.));
#912=DIRECTION('',(0.866025403784438,0.5,0.));
#913=DIRECTION('',(-0.5,0.866025403784438,0.));
#914=DIRECTION('',(0.866025403784438,0.5,0.));
#915=DIRECTION('',(-1.,-8.34281360344139E-16,0.));
#916=DIRECTION('',(-7.7389461576881E-16,1.,0.));
#917=DIRECTION('',(-1.,-8.34281360344139E-16,0.));
#918=DIRECTION('',(-1.16084192365321E-15,1.,0.));
#919=DIRECTION('',(-0.5,-0.866025403784439,0.));
#920=DIRECTION('',(-0.86602540378444,0.5,0.));
#921=DIRECTION('',(-0.5,-0.866025403784439,0.));
#922=DIRECTION('',(-0.866025403784439,0.5,0.));
#923=DIRECTION('',(0.5,-0.866025403784438,0.));
#924=DIRECTION('',(-0.866025403784438,-0.5,0.));
#925=DIRECTION('',(0.5,-0.866025403784439,0.));
#926=DIRECTION('',(-0.866025403784438,-0.5,0.));
#927=DIRECTION('',(-0.5,0.866025403784438,0.));
#928=DIRECTION('',(-0.866025403784438,-0.5,0.));
#929=DIRECTION('',(0.,0.,1.));
#930=DIRECTION('',(0.,0.,1.));
#931=DIRECTION('',(-0.866025403784438,-0.5,0.));
#932=DIRECTION('',(0.5,-0.866025403784438,0.));
#933=DIRECTION('',(0.,0.,1.));
#934=DIRECTION('',(-0.5,0.866025403784438,0.));
#935=DIRECTION('',(-0.866025403784438,-0.5,0.));
#936=DIRECTION('',(0.,0.,1.));
#937=DIRECTION('',(-0.866025403784438,-0.5,0.));
#938=DIRECTION('',(0.5,-0.866025403784439,0.));
#939=DIRECTION('',(0.5,0.866025403784439,0.));
#940=DIRECTION('',(-0.86602540378444,0.5,0.));
#941=DIRECTION('',(0.,0.,1.));
#942=DIRECTION('',(0.,0.,1.));
#943=DIRECTION('',(-0.866025403784439,0.5,0.));
#944=DIRECTION('',(-0.5,-0.866025403784439,0.));
#945=DIRECTION('',(0.,0.,1.));
#946=DIRECTION('',(0.5,0.866025403784439,0.));
#947=DIRECTION('',(-0.866025403784439,0.5,0.));
#948=DIRECTION('',(0.,0.,1.));
#949=DIRECTION('',(-0.866025403784439,0.5,0.));
#950=DIRECTION('',(-0.5,-0.866025403784439,0.));
#951=DIRECTION('',(1.,7.73894615768809E-16,0.));
#952=DIRECTION('',(-7.7389461576881E-16,1.,0.));
#953=DIRECTION('',(0.,0.,1.));
#954=DIRECTION('',(0.,0.,1.));
#955=DIRECTION('',(-8.34281360344139E-16,1.,0.));
#956=DIRECTION('',(-1.,-8.34281360344139E-16,0.));
#957=DIRECTION('',(0.,0.,1.));
#958=DIRECTION('',(1.,1.16084192365321E-15,0.));
#959=DIRECTION('',(-1.16084192365321E-15,1.,0.));
#960=DIRECTION('',(0.,0.,1.));
#961=DIRECTION('',(-8.34281360344139E-16,1.,0.));
#962=DIRECTION('',(-1.,-8.34281360344139E-16,0.));
#963=DIRECTION('',(0.5,-0.866025403784438,0.));
#964=DIRECTION('',(0.866025403784438,0.5,0.));
#965=DIRECTION('',(0.,0.,1.));
#966=DIRECTION('',(0.,0.,1.));
#967=DIRECTION('',(0.866025403784438,0.5,0.));
#968=DIRECTION('',(-0.5,0.866025403784438,0.));
#969=DIRECTION('',(0.,0.,1.));
#970=DIRECTION('',(0.5,-0.866025403784438,0.));
#971=DIRECTION('',(0.866025403784438,0.5,0.));
#972=DIRECTION('',(0.,0.,1.));
#973=DIRECTION('',(0.866025403784438,0.5,0.));
#974=DIRECTION('',(-0.5,0.866025403784438,0.));
#975=DIRECTION('',(-0.5,-0.866025403784439,0.));
#976=DIRECTION('',(0.866025403784439,-0.5,0.));
#977=DIRECTION('',(0.,0.,1.));
#978=DIRECTION('',(0.,0.,1.));
#979=DIRECTION('',(0.866025403784439,-0.5,0.));
#980=DIRECTION('',(0.5,0.866025403784439,0.));
#981=DIRECTION('',(0.,0.,1.));
#982=DIRECTION('',(-0.5,-0.866025403784439,0.));
#983=DIRECTION('',(0.866025403784439,-0.5,0.));
#984=DIRECTION('',(0.,0.,1.));
#985=DIRECTION('',(0.866025403784439,-0.5,0.));
#986=DIRECTION('',(0.5,0.866025403784439,0.));
#987=DIRECTION('',(-1.,-1.54778923153769E-15,0.));
#988=DIRECTION('',(1.54778923153769E-15,-1.,0.));
#989=DIRECTION('',(0.,0.,1.));
#990=DIRECTION('',(0.,0.,1.));
#991=DIRECTION('',(1.25142204051621E-15,-1.,0.));
#992=DIRECTION('',(1.,1.25142204051621E-15,0.));
#993=DIRECTION('',(0.,0.,1.));
#994=DIRECTION('',(-1.,-1.54778923153769E-15,0.));
#995=DIRECTION('',(1.54778923153769E-15,-1.,0.));
#996=DIRECTION('',(0.,0.,1.));
#997=DIRECTION('',(1.25142204051621E-15,-1.,0.));
#998=DIRECTION('',(1.,1.25142204051621E-15,0.));
#999=CARTESIAN_POINT('',(0.,0.,0.));
#1000=CARTESIAN_POINT('',(-0.0433405914483697,0.0338613811429112,0.130984));
#1001=CARTESIAN_POINT('',(-0.0433405914483697,0.0338613811429112,0.130984));
#1002=CARTESIAN_POINT('',(-0.0413405914483697,0.0338613811429112,0.130984));
#1003=CARTESIAN_POINT('',(-0.0433405914483697,0.0338613811429112,0.1193));
#1004=CARTESIAN_POINT('',(-0.0413405914483697,0.0338613811429112,0.1193));
#1005=CARTESIAN_POINT('',(-0.00670281388728311,0.0545900383402727,0.130984));
#1006=CARTESIAN_POINT('',(-0.00670281388728311,0.0545900383402727,0.130984));
#1007=CARTESIAN_POINT('',(-0.00470281388728311,0.0545900383402727,0.130984));
#1008=CARTESIAN_POINT('',(-0.00670281388728311,0.0545900383402727,0.1193));
#1009=CARTESIAN_POINT('',(-0.00470281388728311,0.0545900383402727,0.1193));
#1010=CARTESIAN_POINT('',(0.0338613811429112,0.0433405914483697,0.130984));
#1011=CARTESIAN_POINT('',(0.0338613811429112,0.0433405914483697,0.130984));
#1012=CARTESIAN_POINT('',(0.0358613811429112,0.0433405914483697,0.130984));
#1013=CARTESIAN_POINT('',(0.0338613811429112,0.0433405914483697,0.1193));
#1014=CARTESIAN_POINT('',(0.0358613811429112,0.0433405914483697,0.1193));
#1015=CARTESIAN_POINT('',(0.0433405914483697,-0.0338613811429112,0.130984));
#1016=CARTESIAN_POINT('',(0.0433405914483697,-0.0338613811429112,0.130984));
#1017=CARTESIAN_POINT('',(0.0453405914483697,-0.0338613811429112,0.130984));
#1018=CARTESIAN_POINT('',(0.0433405914483697,-0.0338613811429112,0.1193));
#1019=CARTESIAN_POINT('',(0.0453405914483697,-0.0338613811429112,0.1193));
#1020=CARTESIAN_POINT('',(0.0067028138872831,-0.0545900383402727,0.130984));
#1021=CARTESIAN_POINT('',(0.0067028138872831,-0.0545900383402727,0.130984));
#1022=CARTESIAN_POINT('',(0.0087028138872831,-0.0545900383402727,0.130984));
#1023=CARTESIAN_POINT('',(0.0067028138872831,-0.0545900383402727,0.1193));
#1024=CARTESIAN_POINT('',(0.0087028138872831,-0.0545900383402727,0.1193));
#1025=CARTESIAN_POINT('',(-0.0338613811429112,-0.0433405914483697,0.130984));
#1026=CARTESIAN_POINT('',(-0.0338613811429112,-0.0433405914483697,0.130984));
#1027=CARTESIAN_POINT('',(-0.0318613811429112,-0.0433405914483697,0.130984));
#1028=CARTESIAN_POINT('',(-0.0338613811429112,-0.0433405914483697,0.1193));
#1029=CARTESIAN_POINT('',(-0.0318613811429112,-0.0433405914483697,0.1193));
#1030=CARTESIAN_POINT('',(-0.0545900383402727,-0.00670281388728311,0.130984));
#1031=CARTESIAN_POINT('',(-0.0545900383402727,-0.00670281388728311,0.130984));
#1032=CARTESIAN_POINT('',(-0.0525900383402727,-0.00670281388728311,0.130984));
#1033=CARTESIAN_POINT('',(-0.0545900383402727,-0.00670281388728311,0.1193));
#1034=CARTESIAN_POINT('',(-0.0525900383402727,-0.00670281388728311,0.1193));
#1035=CARTESIAN_POINT('',(-2.42861286636753E-17,2.0832928289249E-18,0.130984));
#1036=CARTESIAN_POINT('',(-2.42861286636753E-17,2.0832928289249E-18,0.130984));
#1037=CARTESIAN_POINT('',(0.0708,2.0832928289249E-18,0.130984));
#1038=CARTESIAN_POINT('',(-2.42861286636753E-17,2.0832928289249E-18,0.1193));
#1039=CARTESIAN_POINT('',(0.0708,2.0832928289249E-18,0.1193));
#1040=CARTESIAN_POINT('',(0.,7.77650717458569E-19,0.130984));
#1041=CARTESIAN_POINT('',(0.,7.77650717458569E-19,0.130984));
#1042=CARTESIAN_POINT('',(0.0127,7.77650717458569E-19,0.130984));
#1043=CARTESIAN_POINT('',(0.,7.77650717458569E-19,0.1193));
#1044=CARTESIAN_POINT('',(0.0127,7.77650717458569E-19,0.1193));
#1045=CARTESIAN_POINT('',(0.0545900383402727,0.00670281388728311,0.130984));
#1046=CARTESIAN_POINT('',(0.0545900383402727,0.00670281388728311,0.130984));
#1047=CARTESIAN_POINT('',(0.0565900383402727,0.00670281388728311,0.130984));
#1048=CARTESIAN_POINT('',(0.0545900383402727,0.00670281388728311,0.1193));
#1049=CARTESIAN_POINT('',(0.0565900383402727,0.00670281388728311,0.1193));
#1050=CARTESIAN_POINT('',(0.0889968151033209,1.11022302462516E-16,0.130984));
#1051=CARTESIAN_POINT('',(-0.0206185,-5.86391018660147E-17,0.130984));
#1052=CARTESIAN_POINT('',(-0.0206185,-0.0342842701892219,0.130984));
#1053=CARTESIAN_POINT('',(-0.0206185,-0.0433520701892227,0.130984));
#1054=CARTESIAN_POINT('',(0.088996815103321,-0.0342842701892217,0.130984));
#1055=CARTESIAN_POINT('',(0.0128535430245879,-0.0342842701892219,0.130984));
#1056=CARTESIAN_POINT('',(0.0128535430245878,-6.83143411499149E-18,0.130984));
#1057=CARTESIAN_POINT('',(0.0128535430245879,-0.0433520701892227,0.130984));
#1058=CARTESIAN_POINT('',(0.088996815103321,-0.0433520701892226,0.130984));
#1059=CARTESIAN_POINT('',(0.0564383613274907,-0.0563928961556207,0.130984));
#1060=CARTESIAN_POINT('',(0.0193817989340757,-0.0349982798825404,0.130984));
#1061=CARTESIAN_POINT('',(0.0272347440905123,-0.0395321798825404,0.130984));
#1062=CARTESIAN_POINT('',(0.0519402527099059,0.0213946162730803,0.130984));
#1063=CARTESIAN_POINT('',(0.0400002989340757,0.00071400969331853,0.130984));
#1064=CARTESIAN_POINT('',(0.0770568613274907,-0.0206806065797617,0.130984));
#1065=CARTESIAN_POINT('',(0.0478532440905123,-0.00381989030668146,0.130984));
#1066=CARTESIAN_POINT('',(0.0597931978663425,0.0168607162730803,0.130984));
#1067=CARTESIAN_POINT('',(0.0731743828397845,0.0274052565797621,0.130984));
#1068=CARTESIAN_POINT('',(0.0361178204463696,0.00601064030668174,0.130984));
#1069=CARTESIAN_POINT('',(0.0439707656028061,0.0105445403066817,0.130984));
#1070=CARTESIAN_POINT('',(0.051940252709906,-0.0213946162730803,0.130984));
#1071=CARTESIAN_POINT('',(0.0232642774217816,0.0282736298825405,0.130984));
#1072=CARTESIAN_POINT('',(0.0603208398151967,0.0496682461556208,0.130984));
#1073=CARTESIAN_POINT('',(0.0311172225782182,0.0328075298825405,0.130984));
#1074=CARTESIAN_POINT('',(0.0597931978663425,-0.0168607162730802,0.130984));
#1075=CARTESIAN_POINT('',(0.0206185,5.81046925687125E-17,0.130984));
#1076=CARTESIAN_POINT('',(0.0206185,0.0342842701892219,0.130984));
#1077=CARTESIAN_POINT('',(0.0206185,0.0433520701892231,0.130984));
#1078=CARTESIAN_POINT('',(0.0889968151033209,0.0342842701892219,0.130984));
#1079=CARTESIAN_POINT('',(-0.012853543024588,0.0342842701892219,0.130984));
#1080=CARTESIAN_POINT('',(-0.012853543024588,-7.2098631914549E-18,0.130984));
#1081=CARTESIAN_POINT('',(-0.012853543024588,0.0433520701892231,0.130984));
#1082=CARTESIAN_POINT('',(0.0889968151033209,0.0433520701892232,0.130984));
#1083=CARTESIAN_POINT('',(0.0770568613274908,-0.0206806065797615,0.130984));
#1084=CARTESIAN_POINT('',(-0.0193817989340756,0.0349982798825406,0.130984));
#1085=CARTESIAN_POINT('',(-0.0272347440905122,0.0395321798825406,0.130984));
#1086=CARTESIAN_POINT('',(-0.00744184515824554,0.0556788864623022,0.130984));
#1087=CARTESIAN_POINT('',(-0.0400002989340758,-0.000714009693318522,0.130984));
#1088=CARTESIAN_POINT('',(0.0564383613274907,-0.0563928961556207,0.130984));
#1089=CARTESIAN_POINT('',(-0.0478532440905123,0.00381989030668147,0.130984));
#1090=CARTESIAN_POINT('',(-0.0152947903146821,0.0602127864623022,0.130984));
#1091=CARTESIAN_POINT('',(0.0603208398151967,0.0496682461556207,0.130984));
#1092=CARTESIAN_POINT('',(-0.0361178204463697,-0.00601064030668159,0.130984));
#1093=CARTESIAN_POINT('',(-0.0439707656028062,-0.0105445403066816,0.130984));
#1094=CARTESIAN_POINT('',(-0.00744184515824545,-0.0556788864623022,0.130984));
#1095=CARTESIAN_POINT('',(-0.0232642774217817,-0.0282736298825405,0.130984));
#1096=CARTESIAN_POINT('',(0.0731743828397847,0.0274052565797618,0.130984));
#1097=CARTESIAN_POINT('',(-0.0311172225782182,-0.0328075298825405,0.130984));
#1098=CARTESIAN_POINT('',(-0.015294790314682,-0.0602127864623022,0.130984));
#1099=CARTESIAN_POINT('',(0.0889968151033209,1.11022302462516E-16,0.1193));
#1100=CARTESIAN_POINT('',(0.088996815103321,-0.0342842701892217,0.1193));
#1101=CARTESIAN_POINT('',(-0.0206185,-0.0342842701892219,0.1193));
#1102=CARTESIAN_POINT('',(0.0128535430245879,-0.0342842701892219,0.1193));
#1103=CARTESIAN_POINT('',(-0.0206185,-5.86391018660147E-17,0.1193));
#1104=CARTESIAN_POINT('',(-0.0206185,-0.0433520701892227,0.1193));
#1105=CARTESIAN_POINT('',(0.088996815103321,-0.0433520701892226,0.1193));
#1106=CARTESIAN_POINT('',(0.0128535430245879,-0.0433520701892227,0.1193));
#1107=CARTESIAN_POINT('',(0.0128535430245878,-6.83143411499149E-18,0.1193));
#1108=CARTESIAN_POINT('',(0.0519402527099059,0.0213946162730803,0.1193));
#1109=CARTESIAN_POINT('',(0.0193817989340757,-0.0349982798825404,0.1193));
#1110=CARTESIAN_POINT('',(0.0400002989340757,0.00071400969331853,0.1193));
#1111=CARTESIAN_POINT('',(0.0564383613274907,-0.0563928961556207,0.1193));
#1112=CARTESIAN_POINT('',(0.0272347440905123,-0.0395321798825404,0.1193));
#1113=CARTESIAN_POINT('',(0.0597931978663425,0.0168607162730803,0.1193));
#1114=CARTESIAN_POINT('',(0.0478532440905123,-0.00381989030668146,0.1193));
#1115=CARTESIAN_POINT('',(0.0770568613274907,-0.0206806065797617,0.1193));
#1116=CARTESIAN_POINT('',(0.051940252709906,-0.0213946162730803,0.1193));
#1117=CARTESIAN_POINT('',(0.0361178204463696,0.00601064030668174,0.1193));
#1118=CARTESIAN_POINT('',(0.0232642774217816,0.0282736298825405,0.1193));
#1119=CARTESIAN_POINT('',(0.0731743828397845,0.0274052565797621,0.1193));
#1120=CARTESIAN_POINT('',(0.0439707656028061,0.0105445403066817,0.1193));
#1121=CARTESIAN_POINT('',(0.0597931978663425,-0.0168607162730802,0.1193));
#1122=CARTESIAN_POINT('',(0.0311172225782182,0.0328075298825405,0.1193));
#1123=CARTESIAN_POINT('',(0.0603208398151967,0.0496682461556208,0.1193));
#1124=CARTESIAN_POINT('',(0.0889968151033209,0.0342842701892219,0.1193));
#1125=CARTESIAN_POINT('',(0.0206185,0.0342842701892219,0.1193));
#1126=CARTESIAN_POINT('',(-0.012853543024588,0.0342842701892219,0.1193));
#1127=CARTESIAN_POINT('',(0.0206185,5.81046925687125E-17,0.1193));
#1128=CARTESIAN_POINT('',(0.0206185,0.0433520701892231,0.1193));
#1129=CARTESIAN_POINT('',(0.0889968151033209,0.0433520701892232,0.1193));
#1130=CARTESIAN_POINT('',(-0.012853543024588,0.0433520701892231,0.1193));
#1131=CARTESIAN_POINT('',(-0.012853543024588,-7.2098631914549E-18,0.1193));
#1132=CARTESIAN_POINT('',(-0.00744184515824554,0.0556788864623022,0.1193));
#1133=CARTESIAN_POINT('',(-0.0193817989340756,0.0349982798825406,0.1193));
#1134=CARTESIAN_POINT('',(-0.0400002989340758,-0.000714009693318522,0.1193));
#1135=CARTESIAN_POINT('',(0.0770568613274908,-0.0206806065797615,0.1193));
#1136=CARTESIAN_POINT('',(-0.0272347440905122,0.0395321798825406,0.1193));
#1137=CARTESIAN_POINT('',(-0.0152947903146821,0.0602127864623022,0.1193));
#1138=CARTESIAN_POINT('',(-0.0478532440905123,0.00381989030668147,0.1193));
#1139=CARTESIAN_POINT('',(0.0564383613274907,-0.0563928961556207,0.1193));
#1140=CARTESIAN_POINT('',(-0.00744184515824545,-0.0556788864623022,0.1193));
#1141=CARTESIAN_POINT('',(-0.0361178204463697,-0.00601064030668159,0.1193));
#1142=CARTESIAN_POINT('',(-0.0232642774217817,-0.0282736298825405,0.1193));
#1143=CARTESIAN_POINT('',(0.0603208398151967,0.0496682461556207,0.1193));
#1144=CARTESIAN_POINT('',(-0.0439707656028062,-0.0105445403066816,0.1193));
#1145=CARTESIAN_POINT('',(-0.015294790314682,-0.0602127864623022,0.1193));
#1146=CARTESIAN_POINT('',(-0.0311172225782182,-0.0328075298825405,0.1193));
#1147=CARTESIAN_POINT('',(0.0731743828397847,0.0274052565797618,0.1193));
#1148=CARTESIAN_POINT('',(-0.040044293024588,-0.00827759030668159,-2.30715222266213));
#1149=CARTESIAN_POINT('',(-0.0439707656028062,-0.0105445403066816,-2.30715222266213));
#1150=CARTESIAN_POINT('',(-0.0361178204463697,-0.00601064030668159,-2.30715222266213));
#1151=CARTESIAN_POINT('',(-0.0296910489340756,-0.0171421350946111,-2.30715222266213));
#1152=CARTESIAN_POINT('',(-0.0232642774217816,-0.0282736298825405,-2.30715222266213));
#1153=CARTESIAN_POINT('',(-0.02719075,-0.0305405798825405,-2.30715222266213));
#1154=CARTESIAN_POINT('',(-0.0311172225782182,-0.0328075298825405,-2.30715222266213));
#1155=CARTESIAN_POINT('',(-0.0375439940905122,-0.0216760350946111,-2.30715222266213));
#1156=CARTESIAN_POINT('',(-0.023308271512294,0.0372652298825406,-2.30715222266213));
#1157=CARTESIAN_POINT('',(-0.0272347440905122,0.0395321798825406,-2.30715222266213));
#1158=CARTESIAN_POINT('',(-0.0193817989340756,0.0349982798825406,-2.30715222266213));
#1159=CARTESIAN_POINT('',(-0.0296910489340757,0.0171421350946111,-2.30715222266213));
#1160=CARTESIAN_POINT('',(-0.0400002989340758,-0.000714009693318523,-2.30715222266213));
#1161=CARTESIAN_POINT('',(-0.043926771512294,0.00155294030668148,-2.30715222266213));
#1162=CARTESIAN_POINT('',(-0.0478532440905123,0.00381989030668147,-2.30715222266213));
#1163=CARTESIAN_POINT('',(-0.0375439940905122,0.0216760350946111,-2.30715222266213));
#1164=CARTESIAN_POINT('',(0.0206185,0.0388181701892225,-2.30715222266213));
#1165=CARTESIAN_POINT('',(0.0206185,0.0433520701892231,-2.30715222266213));
#1166=CARTESIAN_POINT('',(0.0206185,0.0342842701892219,-2.30715222266213));
#1167=CARTESIAN_POINT('',(0.00388247848770599,0.0342842701892219,-2.30715222266213));
#1168=CARTESIAN_POINT('',(-0.012853543024588,0.0342842701892219,-2.30715222266213));
#1169=CARTESIAN_POINT('',(-0.012853543024588,0.0388181701892224,-2.30715222266213));
#1170=CARTESIAN_POINT('',(-0.012853543024588,0.0433520701892231,-2.30715222266213));
#1171=CARTESIAN_POINT('',(0.00388247848770598,0.0433520701892231,-2.30715222266213));
#1172=CARTESIAN_POINT('',(0.0400442930245879,0.00827759030668175,-2.30715222266213));
#1173=CARTESIAN_POINT('',(0.0439707656028061,0.0105445403066817,-2.30715222266213));
#1174=CARTESIAN_POINT('',(0.0361178204463696,0.00601064030668174,-2.30715222266213));
#1175=CARTESIAN_POINT('',(0.0296910489340756,0.0171421350946111,-2.30715222266213));
#1176=CARTESIAN_POINT('',(0.0232642774217816,0.0282736298825405,-2.30715222266213));
#1177=CARTESIAN_POINT('',(0.02719075,0.0305405798825405,-2.30715222266213));
#1178=CARTESIAN_POINT('',(0.0311172225782182,0.0328075298825405,-2.30715222266213));
#1179=CARTESIAN_POINT('',(0.0375439940905122,0.0216760350946111,-2.30715222266213));
#1180=CARTESIAN_POINT('',(0.023308271512294,-0.0372652298825404,-2.30715222266213));
#1181=CARTESIAN_POINT('',(0.0272347440905123,-0.0395321798825404,-2.30715222266213));
#1182=CARTESIAN_POINT('',(0.0193817989340757,-0.0349982798825404,-2.30715222266213));
#1183=CARTESIAN_POINT('',(0.0296910489340757,-0.017142135094611,-2.30715222266213));
#1184=CARTESIAN_POINT('',(0.0400002989340757,0.00071400969331853,-2.30715222266213));
#1185=CARTESIAN_POINT('',(0.043926771512294,-0.00155294030668146,-2.30715222266213));
#1186=CARTESIAN_POINT('',(0.0478532440905123,-0.00381989030668146,-2.30715222266213));
#1187=CARTESIAN_POINT('',(0.0375439940905122,-0.021676035094611,-2.30715222266213));
#1188=CARTESIAN_POINT('',(-0.0206185,-0.0388181701892223,-2.30715222266213));
#1189=CARTESIAN_POINT('',(-0.0206185,-0.0433520701892227,-2.30715222266213));
#1190=CARTESIAN_POINT('',(-0.0206185,-0.0342842701892219,-2.30715222266213));
#1191=CARTESIAN_POINT('',(-0.00388247848770606,-0.0342842701892219,-2.30715222266213));
#1192=CARTESIAN_POINT('',(0.0128535430245879,-0.0342842701892219,-2.30715222266213));
#1193=CARTESIAN_POINT('',(0.0128535430245879,-0.0388181701892222,-2.30715222266213));
#1194=CARTESIAN_POINT('',(0.0128535430245879,-0.0433520701892227,-2.30715222266213));
#1195=CARTESIAN_POINT('',(-0.00388247848770605,-0.0433520701892227,-2.30715222266213));
#1196=MECHANICAL_DESIGN_GEOMETRIC_PRESENTATION_REPRESENTATION('',(#745),
#1197);
#1197=(
GEOMETRIC_REPRESENTATION_CONTEXT(3)
GLOBAL_UNCERTAINTY_ASSIGNED_CONTEXT((#1198))
GLOBAL_UNIT_ASSIGNED_CONTEXT((#1201,#1200,#1199))
REPRESENTATION_CONTEXT('Mast Mount Flange','TOP_LEVEL_ASSEMBLY_PART')
);
#1198=UNCERTAINTY_MEASURE_WITH_UNIT(LENGTH_MEASURE(1.E-8),#1201,
'DISTANCE_ACCURACY_VALUE','Maximum Tolerance applied to model');
#1199=(
NAMED_UNIT(*)
SI_UNIT($,.STERADIAN.)
SOLID_ANGLE_UNIT()
);
#1200=(
NAMED_UNIT(*)
PLANE_ANGLE_UNIT()
SI_UNIT($,.RADIAN.)
);
#1201=(
LENGTH_UNIT()
NAMED_UNIT(*)
SI_UNIT($,.METRE.)
);
#1202=PRODUCT_DEFINITION_SHAPE('','',#1203);
#1203=PRODUCT_DEFINITION('','',#1205,#1204);
#1204=PRODUCT_DEFINITION_CONTEXT('',#1211,'design');
#1205=PRODUCT_DEFINITION_FORMATION_WITH_SPECIFIED_SOURCE('','',#1207,
 .NOT_KNOWN.);
#1206=PRODUCT_RELATED_PRODUCT_CATEGORY('','',(#1207));
#1207=PRODUCT('Mast Mount Flange','Mast Mount Flange',
'Mast Mount Flange',(#1209));
#1208=PRODUCT_CATEGORY('','');
#1209=PRODUCT_CONTEXT('',#1211,'mechanical');
#1210=APPLICATION_PROTOCOL_DEFINITION('international standard',
'ap242_managed_model_based_3d_engineering',2011,#1211);
#1211=APPLICATION_CONTEXT('managed model based 3d engineering');
ENDSEC;
END-ISO-10303-21;
