ISO-10303-21;
HEADER;
/* Generated by software containing ST-Developer
 * from STEP Tools, Inc. (www.steptools.com) 
 */
/* OPTION: using custom renumber hook */

FILE_DESCRIPTION(
/* description */ ('STEP AP242',
'CAx-IF Rec.Pracs.---Representation and Presentation of Product Manufa
cturing Information (PMI)---4.0---2014-10-13',
'CAx-IF Rec.Pracs.---3D Tessellated Geometry---0.4---2014-09-14','2;1'),

/* implementation_level */ '2;1');

FILE_NAME(
/* name */ '68fb265734e6012dc82c9921',
/* time_stamp */ '2025-10-24T07:10:16Z',
/* author */ (''),
/* organization */ (''),
/* preprocessor_version */ 'ST-DEVELOPER v20',
/* originating_system */ 'ONSHAPE BY PTC INC, 1.205',
/* authorisation */ '  ');

FILE_SCHEMA (('AP242_MANAGED_MODEL_BASED_3D_ENGINEERING_MIM_LF { 1 0 10303 442 1 1 4 }'));
ENDSEC;

DATA;
#10=SHAPE_REPRESENTATION_RELATIONSHIP('','',#681,#11);
#11=ADVANCED_BREP_SHAPE_REPRESENTATION('',(#679),#1069);
#12=CYLINDRICAL_SURFACE('',#699,0.0127);
#13=CIRCLE('',#685,0.0127);
#14=CIRCLE('',#687,0.0127);
#15=ORIENTED_EDGE('',*,*,#199,.F.);
#16=ORIENTED_EDGE('',*,*,#200,.T.);
#17=ORIENTED_EDGE('',*,*,#201,.T.);
#18=ORIENTED_EDGE('',*,*,#202,.T.);
#19=ORIENTED_EDGE('',*,*,#203,.T.);
#20=ORIENTED_EDGE('',*,*,#204,.F.);
#21=ORIENTED_EDGE('',*,*,#205,.F.);
#22=ORIENTED_EDGE('',*,*,#206,.F.);
#23=ORIENTED_EDGE('',*,*,#207,.T.);
#24=ORIENTED_EDGE('',*,*,#208,.F.);
#25=ORIENTED_EDGE('',*,*,#209,.F.);
#26=ORIENTED_EDGE('',*,*,#210,.F.);
#27=ORIENTED_EDGE('',*,*,#211,.F.);
#28=ORIENTED_EDGE('',*,*,#212,.T.);
#29=ORIENTED_EDGE('',*,*,#213,.F.);
#30=ORIENTED_EDGE('',*,*,#214,.F.);
#31=ORIENTED_EDGE('',*,*,#215,.F.);
#32=ORIENTED_EDGE('',*,*,#216,.F.);
#33=ORIENTED_EDGE('',*,*,#217,.T.);
#34=ORIENTED_EDGE('',*,*,#218,.F.);
#35=ORIENTED_EDGE('',*,*,#219,.F.);
#36=ORIENTED_EDGE('',*,*,#220,.F.);
#37=ORIENTED_EDGE('',*,*,#221,.F.);
#38=ORIENTED_EDGE('',*,*,#222,.T.);
#39=ORIENTED_EDGE('',*,*,#223,.F.);
#40=ORIENTED_EDGE('',*,*,#224,.F.);
#41=ORIENTED_EDGE('',*,*,#225,.F.);
#42=ORIENTED_EDGE('',*,*,#226,.F.);
#43=ORIENTED_EDGE('',*,*,#227,.T.);
#44=ORIENTED_EDGE('',*,*,#228,.F.);
#45=ORIENTED_EDGE('',*,*,#229,.F.);
#46=ORIENTED_EDGE('',*,*,#230,.F.);
#47=ORIENTED_EDGE('',*,*,#201,.F.);
#48=ORIENTED_EDGE('',*,*,#231,.T.);
#49=ORIENTED_EDGE('',*,*,#232,.F.);
#50=ORIENTED_EDGE('',*,*,#233,.F.);
#51=ORIENTED_EDGE('',*,*,#234,.T.);
#52=ORIENTED_EDGE('',*,*,#235,.T.);
#53=ORIENTED_EDGE('',*,*,#236,.T.);
#54=ORIENTED_EDGE('',*,*,#237,.F.);
#55=ORIENTED_EDGE('',*,*,#199,.T.);
#56=ORIENTED_EDGE('',*,*,#238,.T.);
#57=ORIENTED_EDGE('',*,*,#239,.T.);
#58=ORIENTED_EDGE('',*,*,#240,.T.);
#59=ORIENTED_EDGE('',*,*,#241,.F.);
#60=ORIENTED_EDGE('',*,*,#242,.T.);
#61=ORIENTED_EDGE('',*,*,#243,.T.);
#62=ORIENTED_EDGE('',*,*,#244,.T.);
#63=ORIENTED_EDGE('',*,*,#245,.T.);
#64=ORIENTED_EDGE('',*,*,#246,.F.);
#65=ORIENTED_EDGE('',*,*,#247,.T.);
#66=ORIENTED_EDGE('',*,*,#248,.T.);
#67=ORIENTED_EDGE('',*,*,#249,.T.);
#68=ORIENTED_EDGE('',*,*,#250,.T.);
#69=ORIENTED_EDGE('',*,*,#251,.F.);
#70=ORIENTED_EDGE('',*,*,#252,.T.);
#71=ORIENTED_EDGE('',*,*,#253,.T.);
#72=ORIENTED_EDGE('',*,*,#254,.T.);
#73=ORIENTED_EDGE('',*,*,#255,.T.);
#74=ORIENTED_EDGE('',*,*,#256,.F.);
#75=ORIENTED_EDGE('',*,*,#257,.T.);
#76=ORIENTED_EDGE('',*,*,#258,.T.);
#77=ORIENTED_EDGE('',*,*,#259,.T.);
#78=ORIENTED_EDGE('',*,*,#260,.T.);
#79=ORIENTED_EDGE('',*,*,#261,.F.);
#80=ORIENTED_EDGE('',*,*,#262,.T.);
#81=ORIENTED_EDGE('',*,*,#252,.F.);
#82=ORIENTED_EDGE('',*,*,#263,.T.);
#83=ORIENTED_EDGE('',*,*,#216,.T.);
#84=ORIENTED_EDGE('',*,*,#264,.T.);
#85=ORIENTED_EDGE('',*,*,#242,.F.);
#86=ORIENTED_EDGE('',*,*,#265,.T.);
#87=ORIENTED_EDGE('',*,*,#226,.T.);
#88=ORIENTED_EDGE('',*,*,#266,.T.);
#89=ORIENTED_EDGE('',*,*,#257,.F.);
#90=ORIENTED_EDGE('',*,*,#267,.T.);
#91=ORIENTED_EDGE('',*,*,#211,.T.);
#92=ORIENTED_EDGE('',*,*,#268,.T.);
#93=ORIENTED_EDGE('',*,*,#247,.F.);
#94=ORIENTED_EDGE('',*,*,#269,.T.);
#95=ORIENTED_EDGE('',*,*,#221,.T.);
#96=ORIENTED_EDGE('',*,*,#270,.T.);
#97=ORIENTED_EDGE('',*,*,#262,.F.);
#98=ORIENTED_EDGE('',*,*,#271,.T.);
#99=ORIENTED_EDGE('',*,*,#206,.T.);
#100=ORIENTED_EDGE('',*,*,#272,.T.);
#101=ORIENTED_EDGE('',*,*,#273,.F.);
#102=ORIENTED_EDGE('',*,*,#234,.F.);
#103=ORIENTED_EDGE('',*,*,#272,.F.);
#104=ORIENTED_EDGE('',*,*,#205,.T.);
#105=ORIENTED_EDGE('',*,*,#274,.F.);
#106=ORIENTED_EDGE('',*,*,#238,.F.);
#107=ORIENTED_EDGE('',*,*,#202,.F.);
#108=ORIENTED_EDGE('',*,*,#230,.T.);
#109=ORIENTED_EDGE('',*,*,#275,.F.);
#110=ORIENTED_EDGE('',*,*,#243,.F.);
#111=ORIENTED_EDGE('',*,*,#266,.F.);
#112=ORIENTED_EDGE('',*,*,#225,.T.);
#113=ORIENTED_EDGE('',*,*,#276,.F.);
#114=ORIENTED_EDGE('',*,*,#248,.F.);
#115=ORIENTED_EDGE('',*,*,#270,.F.);
#116=ORIENTED_EDGE('',*,*,#220,.T.);
#117=ORIENTED_EDGE('',*,*,#277,.F.);
#118=ORIENTED_EDGE('',*,*,#253,.F.);
#119=ORIENTED_EDGE('',*,*,#264,.F.);
#120=ORIENTED_EDGE('',*,*,#215,.T.);
#121=ORIENTED_EDGE('',*,*,#278,.F.);
#122=ORIENTED_EDGE('',*,*,#258,.F.);
#123=ORIENTED_EDGE('',*,*,#268,.F.);
#124=ORIENTED_EDGE('',*,*,#210,.T.);
#125=ORIENTED_EDGE('',*,*,#203,.F.);
#126=ORIENTED_EDGE('',*,*,#233,.T.);
#127=ORIENTED_EDGE('',*,*,#209,.T.);
#128=ORIENTED_EDGE('',*,*,#279,.F.);
#129=ORIENTED_EDGE('',*,*,#259,.F.);
#130=ORIENTED_EDGE('',*,*,#278,.T.);
#131=ORIENTED_EDGE('',*,*,#207,.F.);
#132=ORIENTED_EDGE('',*,*,#271,.F.);
#133=ORIENTED_EDGE('',*,*,#261,.T.);
#134=ORIENTED_EDGE('',*,*,#280,.T.);
#135=ORIENTED_EDGE('',*,*,#208,.T.);
#136=ORIENTED_EDGE('',*,*,#280,.F.);
#137=ORIENTED_EDGE('',*,*,#260,.F.);
#138=ORIENTED_EDGE('',*,*,#279,.T.);
#139=ORIENTED_EDGE('',*,*,#224,.T.);
#140=ORIENTED_EDGE('',*,*,#281,.F.);
#141=ORIENTED_EDGE('',*,*,#244,.F.);
#142=ORIENTED_EDGE('',*,*,#275,.T.);
#143=ORIENTED_EDGE('',*,*,#222,.F.);
#144=ORIENTED_EDGE('',*,*,#269,.F.);
#145=ORIENTED_EDGE('',*,*,#246,.T.);
#146=ORIENTED_EDGE('',*,*,#282,.T.);
#147=ORIENTED_EDGE('',*,*,#223,.T.);
#148=ORIENTED_EDGE('',*,*,#282,.F.);
#149=ORIENTED_EDGE('',*,*,#245,.F.);
#150=ORIENTED_EDGE('',*,*,#281,.T.);
#151=ORIENTED_EDGE('',*,*,#214,.T.);
#152=ORIENTED_EDGE('',*,*,#283,.F.);
#153=ORIENTED_EDGE('',*,*,#254,.F.);
#154=ORIENTED_EDGE('',*,*,#277,.T.);
#155=ORIENTED_EDGE('',*,*,#212,.F.);
#156=ORIENTED_EDGE('',*,*,#267,.F.);
#157=ORIENTED_EDGE('',*,*,#256,.T.);
#158=ORIENTED_EDGE('',*,*,#284,.T.);
#159=ORIENTED_EDGE('',*,*,#213,.T.);
#160=ORIENTED_EDGE('',*,*,#284,.F.);
#161=ORIENTED_EDGE('',*,*,#255,.F.);
#162=ORIENTED_EDGE('',*,*,#283,.T.);
#163=ORIENTED_EDGE('',*,*,#229,.T.);
#164=ORIENTED_EDGE('',*,*,#285,.F.);
#165=ORIENTED_EDGE('',*,*,#239,.F.);
#166=ORIENTED_EDGE('',*,*,#274,.T.);
#167=ORIENTED_EDGE('',*,*,#227,.F.);
#168=ORIENTED_EDGE('',*,*,#265,.F.);
#169=ORIENTED_EDGE('',*,*,#241,.T.);
#170=ORIENTED_EDGE('',*,*,#286,.T.);
#171=ORIENTED_EDGE('',*,*,#228,.T.);
#172=ORIENTED_EDGE('',*,*,#286,.F.);
#173=ORIENTED_EDGE('',*,*,#240,.F.);
#174=ORIENTED_EDGE('',*,*,#285,.T.);
#175=ORIENTED_EDGE('',*,*,#219,.T.);
#176=ORIENTED_EDGE('',*,*,#287,.F.);
#177=ORIENTED_EDGE('',*,*,#249,.F.);
#178=ORIENTED_EDGE('',*,*,#276,.T.);
#179=ORIENTED_EDGE('',*,*,#217,.F.);
#180=ORIENTED_EDGE('',*,*,#263,.F.);
#181=ORIENTED_EDGE('',*,*,#251,.T.);
#182=ORIENTED_EDGE('',*,*,#288,.T.);
#183=ORIENTED_EDGE('',*,*,#218,.T.);
#184=ORIENTED_EDGE('',*,*,#288,.F.);
#185=ORIENTED_EDGE('',*,*,#250,.F.);
#186=ORIENTED_EDGE('',*,*,#287,.T.);
#187=ORIENTED_EDGE('',*,*,#204,.T.);
#188=ORIENTED_EDGE('',*,*,#289,.F.);
#189=ORIENTED_EDGE('',*,*,#235,.F.);
#190=ORIENTED_EDGE('',*,*,#273,.T.);
#191=ORIENTED_EDGE('',*,*,#231,.F.);
#192=ORIENTED_EDGE('',*,*,#200,.F.);
#193=ORIENTED_EDGE('',*,*,#237,.T.);
#194=ORIENTED_EDGE('',*,*,#290,.T.);
#195=ORIENTED_EDGE('',*,*,#232,.T.);
#196=ORIENTED_EDGE('',*,*,#290,.F.);
#197=ORIENTED_EDGE('',*,*,#236,.F.);
#198=ORIENTED_EDGE('',*,*,#289,.T.);
#199=EDGE_CURVE('',#291,#292,#353,.T.);
#200=EDGE_CURVE('',#291,#293,#354,.T.);
#201=EDGE_CURVE('',#293,#294,#355,.T.);
#202=EDGE_CURVE('',#294,#292,#356,.T.);
#203=EDGE_CURVE('',#295,#295,#13,.T.);
#204=EDGE_CURVE('',#296,#297,#357,.T.);
#205=EDGE_CURVE('',#298,#296,#358,.T.);
#206=EDGE_CURVE('',#299,#298,#359,.T.);
#207=EDGE_CURVE('',#299,#300,#360,.T.);
#208=EDGE_CURVE('',#301,#300,#361,.T.);
#209=EDGE_CURVE('',#302,#301,#362,.T.);
#210=EDGE_CURVE('',#303,#302,#363,.T.);
#211=EDGE_CURVE('',#304,#303,#364,.T.);
#212=EDGE_CURVE('',#304,#305,#365,.T.);
#213=EDGE_CURVE('',#306,#305,#366,.T.);
#214=EDGE_CURVE('',#307,#306,#367,.T.);
#215=EDGE_CURVE('',#308,#307,#368,.T.);
#216=EDGE_CURVE('',#309,#308,#369,.T.);
#217=EDGE_CURVE('',#309,#310,#370,.T.);
#218=EDGE_CURVE('',#311,#310,#371,.T.);
#219=EDGE_CURVE('',#312,#311,#372,.T.);
#220=EDGE_CURVE('',#313,#312,#373,.T.);
#221=EDGE_CURVE('',#314,#313,#374,.T.);
#222=EDGE_CURVE('',#314,#315,#375,.T.);
#223=EDGE_CURVE('',#316,#315,#376,.T.);
#224=EDGE_CURVE('',#317,#316,#377,.T.);
#225=EDGE_CURVE('',#318,#317,#378,.T.);
#226=EDGE_CURVE('',#319,#318,#379,.T.);
#227=EDGE_CURVE('',#319,#320,#380,.T.);
#228=EDGE_CURVE('',#321,#320,#381,.T.);
#229=EDGE_CURVE('',#322,#321,#382,.T.);
#230=EDGE_CURVE('',#294,#322,#383,.T.);
#231=EDGE_CURVE('',#293,#323,#384,.T.);
#232=EDGE_CURVE('',#297,#323,#385,.T.);
#233=EDGE_CURVE('',#324,#324,#14,.T.);
#234=EDGE_CURVE('',#325,#326,#386,.T.);
#235=EDGE_CURVE('',#326,#327,#387,.T.);
#236=EDGE_CURVE('',#327,#328,#388,.T.);
#237=EDGE_CURVE('',#291,#328,#389,.T.);
#238=EDGE_CURVE('',#292,#329,#390,.T.);
#239=EDGE_CURVE('',#329,#330,#391,.T.);
#240=EDGE_CURVE('',#330,#331,#392,.T.);
#241=EDGE_CURVE('',#332,#331,#393,.T.);
#242=EDGE_CURVE('',#332,#333,#394,.T.);
#243=EDGE_CURVE('',#333,#334,#395,.T.);
#244=EDGE_CURVE('',#334,#335,#396,.T.);
#245=EDGE_CURVE('',#335,#336,#397,.T.);
#246=EDGE_CURVE('',#337,#336,#398,.T.);
#247=EDGE_CURVE('',#337,#338,#399,.T.);
#248=EDGE_CURVE('',#338,#339,#400,.T.);
#249=EDGE_CURVE('',#339,#340,#401,.T.);
#250=EDGE_CURVE('',#340,#341,#402,.T.);
#251=EDGE_CURVE('',#342,#341,#403,.T.);
#252=EDGE_CURVE('',#342,#343,#404,.T.);
#253=EDGE_CURVE('',#343,#344,#405,.T.);
#254=EDGE_CURVE('',#344,#345,#406,.T.);
#255=EDGE_CURVE('',#345,#346,#407,.T.);
#256=EDGE_CURVE('',#347,#346,#408,.T.);
#257=EDGE_CURVE('',#347,#348,#409,.T.);
#258=EDGE_CURVE('',#348,#349,#410,.T.);
#259=EDGE_CURVE('',#349,#350,#411,.T.);
#260=EDGE_CURVE('',#350,#351,#412,.T.);
#261=EDGE_CURVE('',#352,#351,#413,.T.);
#262=EDGE_CURVE('',#352,#325,#414,.T.);
#263=EDGE_CURVE('',#342,#309,#415,.T.);
#264=EDGE_CURVE('',#308,#343,#416,.T.);
#265=EDGE_CURVE('',#332,#319,#417,.T.);
#266=EDGE_CURVE('',#318,#333,#418,.T.);
#267=EDGE_CURVE('',#347,#304,#419,.T.);
#268=EDGE_CURVE('',#303,#348,#420,.T.);
#269=EDGE_CURVE('',#337,#314,#421,.T.);
#270=EDGE_CURVE('',#313,#338,#422,.T.);
#271=EDGE_CURVE('',#352,#299,#423,.T.);
#272=EDGE_CURVE('',#298,#325,#424,.T.);
#273=EDGE_CURVE('',#326,#296,#425,.T.);
#274=EDGE_CURVE('',#329,#322,#426,.T.);
#275=EDGE_CURVE('',#334,#317,#427,.T.);
#276=EDGE_CURVE('',#339,#312,#428,.T.);
#277=EDGE_CURVE('',#344,#307,#429,.T.);
#278=EDGE_CURVE('',#349,#302,#430,.T.);
#279=EDGE_CURVE('',#350,#301,#431,.T.);
#280=EDGE_CURVE('',#351,#300,#432,.T.);
#281=EDGE_CURVE('',#335,#316,#433,.T.);
#282=EDGE_CURVE('',#336,#315,#434,.T.);
#283=EDGE_CURVE('',#345,#306,#435,.T.);
#284=EDGE_CURVE('',#346,#305,#436,.T.);
#285=EDGE_CURVE('',#330,#321,#437,.T.);
#286=EDGE_CURVE('',#331,#320,#438,.T.);
#287=EDGE_CURVE('',#340,#311,#439,.T.);
#288=EDGE_CURVE('',#341,#310,#440,.T.);
#289=EDGE_CURVE('',#327,#297,#441,.T.);
#290=EDGE_CURVE('',#328,#323,#442,.T.);
#291=VERTEX_POINT('',#883);
#292=VERTEX_POINT('',#884);
#293=VERTEX_POINT('',#886);
#294=VERTEX_POINT('',#888);
#295=VERTEX_POINT('',#892);
#296=VERTEX_POINT('',#894);
#297=VERTEX_POINT('',#895);
#298=VERTEX_POINT('',#897);
#299=VERTEX_POINT('',#899);
#300=VERTEX_POINT('',#901);
#301=VERTEX_POINT('',#903);
#302=VERTEX_POINT('',#905);
#303=VERTEX_POINT('',#907);
#304=VERTEX_POINT('',#909);
#305=VERTEX_POINT('',#911);
#306=VERTEX_POINT('',#913);
#307=VERTEX_POINT('',#915);
#308=VERTEX_POINT('',#917);
#309=VERTEX_POINT('',#919);
#310=VERTEX_POINT('',#921);
#311=VERTEX_POINT('',#923);
#312=VERTEX_POINT('',#925);
#313=VERTEX_POINT('',#927);
#314=VERTEX_POINT('',#929);
#315=VERTEX_POINT('',#931);
#316=VERTEX_POINT('',#933);
#317=VERTEX_POINT('',#935);
#318=VERTEX_POINT('',#937);
#319=VERTEX_POINT('',#939);
#320=VERTEX_POINT('',#941);
#321=VERTEX_POINT('',#943);
#322=VERTEX_POINT('',#945);
#323=VERTEX_POINT('',#948);
#324=VERTEX_POINT('',#952);
#325=VERTEX_POINT('',#954);
#326=VERTEX_POINT('',#955);
#327=VERTEX_POINT('',#957);
#328=VERTEX_POINT('',#959);
#329=VERTEX_POINT('',#962);
#330=VERTEX_POINT('',#964);
#331=VERTEX_POINT('',#966);
#332=VERTEX_POINT('',#968);
#333=VERTEX_POINT('',#970);
#334=VERTEX_POINT('',#972);
#335=VERTEX_POINT('',#974);
#336=VERTEX_POINT('',#976);
#337=VERTEX_POINT('',#978);
#338=VERTEX_POINT('',#980);
#339=VERTEX_POINT('',#982);
#340=VERTEX_POINT('',#984);
#341=VERTEX_POINT('',#986);
#342=VERTEX_POINT('',#988);
#343=VERTEX_POINT('',#990);
#344=VERTEX_POINT('',#992);
#345=VERTEX_POINT('',#994);
#346=VERTEX_POINT('',#996);
#347=VERTEX_POINT('',#998);
#348=VERTEX_POINT('',#1000);
#349=VERTEX_POINT('',#1002);
#350=VERTEX_POINT('',#1004);
#351=VERTEX_POINT('',#1006);
#352=VERTEX_POINT('',#1008);
#353=LINE('',#882,#443);
#354=LINE('',#885,#444);
#355=LINE('',#887,#445);
#356=LINE('',#889,#446);
#357=LINE('',#893,#447);
#358=LINE('',#896,#448);
#359=LINE('',#898,#449);
#360=LINE('',#900,#450);
#361=LINE('',#902,#451);
#362=LINE('',#904,#452);
#363=LINE('',#906,#453);
#364=LINE('',#908,#454);
#365=LINE('',#910,#455);
#366=LINE('',#912,#456);
#367=LINE('',#914,#457);
#368=LINE('',#916,#458);
#369=LINE('',#918,#459);
#370=LINE('',#920,#460);
#371=LINE('',#922,#461);
#372=LINE('',#924,#462);
#373=LINE('',#926,#463);
#374=LINE('',#928,#464);
#375=LINE('',#930,#465);
#376=LINE('',#932,#466);
#377=LINE('',#934,#467);
#378=LINE('',#936,#468);
#379=LINE('',#938,#469);
#380=LINE('',#940,#470);
#381=LINE('',#942,#471);
#382=LINE('',#944,#472);
#383=LINE('',#946,#473);
#384=LINE('',#947,#474);
#385=LINE('',#949,#475);
#386=LINE('',#953,#476);
#387=LINE('',#956,#477);
#388=LINE('',#958,#478);
#389=LINE('',#960,#479);
#390=LINE('',#961,#480);
#391=LINE('',#963,#481);
#392=LINE('',#965,#482);
#393=LINE('',#967,#483);
#394=LINE('',#969,#484);
#395=LINE('',#971,#485);
#396=LINE('',#973,#486);
#397=LINE('',#975,#487);
#398=LINE('',#977,#488);
#399=LINE('',#979,#489);
#400=LINE('',#981,#490);
#401=LINE('',#983,#491);
#402=LINE('',#985,#492);
#403=LINE('',#987,#493);
#404=LINE('',#989,#494);
#405=LINE('',#991,#495);
#406=LINE('',#993,#496);
#407=LINE('',#995,#497);
#408=LINE('',#997,#498);
#409=LINE('',#999,#499);
#410=LINE('',#1001,#500);
#411=LINE('',#1003,#501);
#412=LINE('',#1005,#502);
#413=LINE('',#1007,#503);
#414=LINE('',#1009,#504);
#415=LINE('',#1011,#505);
#416=LINE('',#1012,#506);
#417=LINE('',#1014,#507);
#418=LINE('',#1015,#508);
#419=LINE('',#1017,#509);
#420=LINE('',#1018,#510);
#421=LINE('',#1020,#511);
#422=LINE('',#1021,#512);
#423=LINE('',#1023,#513);
#424=LINE('',#1024,#514);
#425=LINE('',#1026,#515);
#426=LINE('',#1028,#516);
#427=LINE('',#1030,#517);
#428=LINE('',#1032,#518);
#429=LINE('',#1034,#519);
#430=LINE('',#1036,#520);
#431=LINE('',#1039,#521);
#432=LINE('',#1041,#522);
#433=LINE('',#1044,#523);
#434=LINE('',#1046,#524);
#435=LINE('',#1049,#525);
#436=LINE('',#1051,#526);
#437=LINE('',#1054,#527);
#438=LINE('',#1056,#528);
#439=LINE('',#1059,#529);
#440=LINE('',#1061,#530);
#441=LINE('',#1064,#531);
#442=LINE('',#1066,#532);
#443=VECTOR('',#722,1.);
#444=VECTOR('',#723,1.);
#445=VECTOR('',#724,1.);
#446=VECTOR('',#725,1.);
#447=VECTOR('',#730,1.);
#448=VECTOR('',#731,1.);
#449=VECTOR('',#732,1.);
#450=VECTOR('',#733,1.);
#451=VECTOR('',#734,1.);
#452=VECTOR('',#735,1.);
#453=VECTOR('',#736,1.);
#454=VECTOR('',#737,1.);
#455=VECTOR('',#738,1.);
#456=VECTOR('',#739,1.);
#457=VECTOR('',#740,1.);
#458=VECTOR('',#741,1.);
#459=VECTOR('',#742,1.);
#460=VECTOR('',#743,1.);
#461=VECTOR('',#744,1.);
#462=VECTOR('',#745,1.);
#463=VECTOR('',#746,1.);
#464=VECTOR('',#747,1.);
#465=VECTOR('',#748,1.);
#466=VECTOR('',#749,1.);
#467=VECTOR('',#750,1.);
#468=VECTOR('',#751,1.);
#469=VECTOR('',#752,1.);
#470=VECTOR('',#753,1.);
#471=VECTOR('',#754,1.);
#472=VECTOR('',#755,1.);
#473=VECTOR('',#756,1.);
#474=VECTOR('',#757,1.);
#475=VECTOR('',#758,1.);
#476=VECTOR('',#763,1.);
#477=VECTOR('',#764,1.);
#478=VECTOR('',#765,1.);
#479=VECTOR('',#766,1.);
#480=VECTOR('',#767,1.);
#481=VECTOR('',#768,1.);
#482=VECTOR('',#769,1.);
#483=VECTOR('',#770,1.);
#484=VECTOR('',#771,1.);
#485=VECTOR('',#772,1.);
#486=VECTOR('',#773,1.);
#487=VECTOR('',#774,1.);
#488=VECTOR('',#775,1.);
#489=VECTOR('',#776,1.);
#490=VECTOR('',#777,1.);
#491=VECTOR('',#778,1.);
#492=VECTOR('',#779,1.);
#493=VECTOR('',#780,1.);
#494=VECTOR('',#781,1.);
#495=VECTOR('',#782,1.);
#496=VECTOR('',#783,1.);
#497=VECTOR('',#784,1.);
#498=VECTOR('',#785,1.);
#499=VECTOR('',#786,1.);
#500=VECTOR('',#787,1.);
#501=VECTOR('',#788,1.);
#502=VECTOR('',#789,1.);
#503=VECTOR('',#790,1.);
#504=VECTOR('',#791,1.);
#505=VECTOR('',#794,1.);
#506=VECTOR('',#795,1.);
#507=VECTOR('',#798,1.);
#508=VECTOR('',#799,1.);
#509=VECTOR('',#802,1.);
#510=VECTOR('',#803,1.);
#511=VECTOR('',#806,1.);
#512=VECTOR('',#807,1.);
#513=VECTOR('',#810,1.);
#514=VECTOR('',#811,1.);
#515=VECTOR('',#814,1.);
#516=VECTOR('',#817,1.);
#517=VECTOR('',#820,1.);
#518=VECTOR('',#823,1.);
#519=VECTOR('',#826,1.);
#520=VECTOR('',#829,1.);
#521=VECTOR('',#834,1.);
#522=VECTOR('',#837,1.);
#523=VECTOR('',#842,1.);
#524=VECTOR('',#845,1.);
#525=VECTOR('',#850,1.);
#526=VECTOR('',#853,1.);
#527=VECTOR('',#858,1.);
#528=VECTOR('',#861,1.);
#529=VECTOR('',#866,1.);
#530=VECTOR('',#869,1.);
#531=VECTOR('',#874,1.);
#532=VECTOR('',#877,1.);
#533=EDGE_LOOP('',(#15,#16,#17,#18));
#534=EDGE_LOOP('',(#19));
#535=EDGE_LOOP('',(#20,#21,#22,#23,#24,#25,#26,#27,#28,#29,#30,#31,#32,
#33,#34,#35,#36,#37,#38,#39,#40,#41,#42,#43,#44,#45,#46,#47,#48,#49));
#536=EDGE_LOOP('',(#50));
#537=EDGE_LOOP('',(#51,#52,#53,#54,#55,#56,#57,#58,#59,#60,#61,#62,#63,
#64,#65,#66,#67,#68,#69,#70,#71,#72,#73,#74,#75,#76,#77,#78,#79,#80));
#538=EDGE_LOOP('',(#81,#82,#83,#84));
#539=EDGE_LOOP('',(#85,#86,#87,#88));
#540=EDGE_LOOP('',(#89,#90,#91,#92));
#541=EDGE_LOOP('',(#93,#94,#95,#96));
#542=EDGE_LOOP('',(#97,#98,#99,#100));
#543=EDGE_LOOP('',(#101,#102,#103,#104));
#544=EDGE_LOOP('',(#105,#106,#107,#108));
#545=EDGE_LOOP('',(#109,#110,#111,#112));
#546=EDGE_LOOP('',(#113,#114,#115,#116));
#547=EDGE_LOOP('',(#117,#118,#119,#120));
#548=EDGE_LOOP('',(#121,#122,#123,#124));
#549=EDGE_LOOP('',(#125));
#550=EDGE_LOOP('',(#126));
#551=EDGE_LOOP('',(#127,#128,#129,#130));
#552=EDGE_LOOP('',(#131,#132,#133,#134));
#553=EDGE_LOOP('',(#135,#136,#137,#138));
#554=EDGE_LOOP('',(#139,#140,#141,#142));
#555=EDGE_LOOP('',(#143,#144,#145,#146));
#556=EDGE_LOOP('',(#147,#148,#149,#150));
#557=EDGE_LOOP('',(#151,#152,#153,#154));
#558=EDGE_LOOP('',(#155,#156,#157,#158));
#559=EDGE_LOOP('',(#159,#160,#161,#162));
#560=EDGE_LOOP('',(#163,#164,#165,#166));
#561=EDGE_LOOP('',(#167,#168,#169,#170));
#562=EDGE_LOOP('',(#171,#172,#173,#174));
#563=EDGE_LOOP('',(#175,#176,#177,#178));
#564=EDGE_LOOP('',(#179,#180,#181,#182));
#565=EDGE_LOOP('',(#183,#184,#185,#186));
#566=EDGE_LOOP('',(#187,#188,#189,#190));
#567=EDGE_LOOP('',(#191,#192,#193,#194));
#568=EDGE_LOOP('',(#195,#196,#197,#198));
#569=FACE_BOUND('',#533,.T.);
#570=FACE_BOUND('',#534,.T.);
#571=FACE_BOUND('',#535,.T.);
#572=FACE_BOUND('',#536,.T.);
#573=FACE_BOUND('',#537,.T.);
#574=FACE_BOUND('',#538,.T.);
#575=FACE_BOUND('',#539,.T.);
#576=FACE_BOUND('',#540,.T.);
#577=FACE_BOUND('',#541,.T.);
#578=FACE_BOUND('',#542,.T.);
#579=FACE_BOUND('',#543,.T.);
#580=FACE_BOUND('',#544,.T.);
#581=FACE_BOUND('',#545,.T.);
#582=FACE_BOUND('',#546,.T.);
#583=FACE_BOUND('',#547,.T.);
#584=FACE_BOUND('',#548,.T.);
#585=FACE_BOUND('',#549,.T.);
#586=FACE_BOUND('',#550,.T.);
#587=FACE_BOUND('',#551,.T.);
#588=FACE_BOUND('',#552,.T.);
#589=FACE_BOUND('',#553,.T.);
#590=FACE_BOUND('',#554,.T.);
#591=FACE_BOUND('',#555,.T.);
#592=FACE_BOUND('',#556,.T.);
#593=FACE_BOUND('',#557,.T.);
#594=FACE_BOUND('',#558,.T.);
#595=FACE_BOUND('',#559,.T.);
#596=FACE_BOUND('',#560,.T.);
#597=FACE_BOUND('',#561,.T.);
#598=FACE_BOUND('',#562,.T.);
#599=FACE_BOUND('',#563,.T.);
#600=FACE_BOUND('',#564,.T.);
#601=FACE_BOUND('',#565,.T.);
#602=FACE_BOUND('',#566,.T.);
#603=FACE_BOUND('',#567,.T.);
#604=FACE_BOUND('',#568,.T.);
#605=PLANE('',#683);
#606=PLANE('',#684);
#607=PLANE('',#686);
#608=PLANE('',#688);
#609=PLANE('',#689);
#610=PLANE('',#690);
#611=PLANE('',#691);
#612=PLANE('',#692);
#613=PLANE('',#693);
#614=PLANE('',#694);
#615=PLANE('',#695);
#616=PLANE('',#696);
#617=PLANE('',#697);
#618=PLANE('',#698);
#619=PLANE('',#700);
#620=PLANE('',#701);
#621=PLANE('',#702);
#622=PLANE('',#703);
#623=PLANE('',#704);
#624=PLANE('',#705);
#625=PLANE('',#706);
#626=PLANE('',#707);
#627=PLANE('',#708);
#628=PLANE('',#709);
#629=PLANE('',#710);
#630=PLANE('',#711);
#631=PLANE('',#712);
#632=PLANE('',#713);
#633=PLANE('',#714);
#634=PLANE('',#715);
#635=PLANE('',#716);
#636=PLANE('',#717);
#637=ADVANCED_FACE('',(#569),#605,.T.);
#638=ADVANCED_FACE('',(#570,#571),#606,.F.);
#639=ADVANCED_FACE('',(#572,#573),#607,.T.);
#640=ADVANCED_FACE('',(#574),#608,.T.);
#641=ADVANCED_FACE('',(#575),#609,.T.);
#642=ADVANCED_FACE('',(#576),#610,.T.);
#643=ADVANCED_FACE('',(#577),#611,.T.);
#644=ADVANCED_FACE('',(#578),#612,.T.);
#645=ADVANCED_FACE('',(#579),#613,.T.);
#646=ADVANCED_FACE('',(#580),#614,.T.);
#647=ADVANCED_FACE('',(#581),#615,.T.);
#648=ADVANCED_FACE('',(#582),#616,.T.);
#649=ADVANCED_FACE('',(#583),#617,.T.);
#650=ADVANCED_FACE('',(#584),#618,.T.);
#651=ADVANCED_FACE('',(#585,#586),#12,.F.);
#652=ADVANCED_FACE('',(#587),#619,.F.);
#653=ADVANCED_FACE('',(#588),#620,.T.);
#654=ADVANCED_FACE('',(#589),#621,.F.);
#655=ADVANCED_FACE('',(#590),#622,.F.);
#656=ADVANCED_FACE('',(#591),#623,.T.);
#657=ADVANCED_FACE('',(#592),#624,.F.);
#658=ADVANCED_FACE('',(#593),#625,.F.);
#659=ADVANCED_FACE('',(#594),#626,.T.);
#660=ADVANCED_FACE('',(#595),#627,.F.);
#661=ADVANCED_FACE('',(#596),#628,.F.);
#662=ADVANCED_FACE('',(#597),#629,.T.);
#663=ADVANCED_FACE('',(#598),#630,.F.);
#664=ADVANCED_FACE('',(#599),#631,.F.);
#665=ADVANCED_FACE('',(#600),#632,.T.);
#666=ADVANCED_FACE('',(#601),#633,.F.);
#667=ADVANCED_FACE('',(#602),#634,.F.);
#668=ADVANCED_FACE('',(#603),#635,.T.);
#669=ADVANCED_FACE('',(#604),#636,.F.);
#670=CLOSED_SHELL('',(#637,#638,#639,#640,#641,#642,#643,#644,#645,#646,
#647,#648,#649,#650,#651,#652,#653,#654,#655,#656,#657,#658,#659,#660,#661,
#662,#663,#664,#665,#666,#667,#668,#669));
#671=STYLED_ITEM('',(#672),#679);
#672=PRESENTATION_STYLE_ASSIGNMENT((#673));
#673=SURFACE_STYLE_USAGE(.BOTH.,#674);
#674=SURFACE_SIDE_STYLE('',(#675));
#675=SURFACE_STYLE_FILL_AREA(#676);
#676=FILL_AREA_STYLE('',(#677));
#677=FILL_AREA_STYLE_COLOUR('',#678);
#678=COLOUR_RGB('',0.917647058823529,0.725490196078431,0.490196078431373);
#679=MANIFOLD_SOLID_BREP('Mast Center B',#670);
#680=SHAPE_DEFINITION_REPRESENTATION(#1074,#681);
#681=SHAPE_REPRESENTATION('Mast Center B',(#682),#1069);
#682=AXIS2_PLACEMENT_3D('',#880,#718,#719);
#683=AXIS2_PLACEMENT_3D('',#881,#720,#721);
#684=AXIS2_PLACEMENT_3D('',#890,#726,#727);
#685=AXIS2_PLACEMENT_3D('',#891,#728,#729);
#686=AXIS2_PLACEMENT_3D('',#950,#759,#760);
#687=AXIS2_PLACEMENT_3D('',#951,#761,#762);
#688=AXIS2_PLACEMENT_3D('',#1010,#792,#793);
#689=AXIS2_PLACEMENT_3D('',#1013,#796,#797);
#690=AXIS2_PLACEMENT_3D('',#1016,#800,#801);
#691=AXIS2_PLACEMENT_3D('',#1019,#804,#805);
#692=AXIS2_PLACEMENT_3D('',#1022,#808,#809);
#693=AXIS2_PLACEMENT_3D('',#1025,#812,#813);
#694=AXIS2_PLACEMENT_3D('',#1027,#815,#816);
#695=AXIS2_PLACEMENT_3D('',#1029,#818,#819);
#696=AXIS2_PLACEMENT_3D('',#1031,#821,#822);
#697=AXIS2_PLACEMENT_3D('',#1033,#824,#825);
#698=AXIS2_PLACEMENT_3D('',#1035,#827,#828);
#699=AXIS2_PLACEMENT_3D('',#1037,#830,#831);
#700=AXIS2_PLACEMENT_3D('',#1038,#832,#833);
#701=AXIS2_PLACEMENT_3D('',#1040,#835,#836);
#702=AXIS2_PLACEMENT_3D('',#1042,#838,#839);
#703=AXIS2_PLACEMENT_3D('',#1043,#840,#841);
#704=AXIS2_PLACEMENT_3D('',#1045,#843,#844);
#705=AXIS2_PLACEMENT_3D('',#1047,#846,#847);
#706=AXIS2_PLACEMENT_3D('',#1048,#848,#849);
#707=AXIS2_PLACEMENT_3D('',#1050,#851,#852);
#708=AXIS2_PLACEMENT_3D('',#1052,#854,#855);
#709=AXIS2_PLACEMENT_3D('',#1053,#856,#857);
#710=AXIS2_PLACEMENT_3D('',#1055,#859,#860);
#711=AXIS2_PLACEMENT_3D('',#1057,#862,#863);
#712=AXIS2_PLACEMENT_3D('',#1058,#864,#865);
#713=AXIS2_PLACEMENT_3D('',#1060,#867,#868);
#714=AXIS2_PLACEMENT_3D('',#1062,#870,#871);
#715=AXIS2_PLACEMENT_3D('',#1063,#872,#873);
#716=AXIS2_PLACEMENT_3D('',#1065,#875,#876);
#717=AXIS2_PLACEMENT_3D('',#1067,#878,#879);
#718=DIRECTION('',(0.,0.,1.));
#719=DIRECTION('',(1.,0.,0.));
#720=DIRECTION('',(0.866025403784438,0.5,0.));
#721=DIRECTION('',(-0.5,0.866025403784438,0.));
#722=DIRECTION('',(-0.5,0.866025403784438,0.));
#723=DIRECTION('',(0.,0.,-1.));
#724=DIRECTION('',(-0.5,0.866025403784438,0.));
#725=DIRECTION('',(0.,0.,1.));
#726=DIRECTION('',(0.,0.,1.));
#727=DIRECTION('',(1.,0.,0.));
#728=DIRECTION('',(0.,0.,1.));
#729=DIRECTION('',(1.,0.,0.));
#730=DIRECTION('',(-0.866025403784438,-0.5,0.));
#731=DIRECTION('',(-0.5,0.866025403784438,0.));
#732=DIRECTION('',(0.5,0.866025403784439,0.));
#733=DIRECTION('',(-0.866025403784439,0.5,0.));
#734=DIRECTION('',(0.5,0.866025403784439,0.));
#735=DIRECTION('',(-0.866025403784439,0.5,0.));
#736=DIRECTION('',(0.5,0.866025403784439,0.));
#737=DIRECTION('',(1.,1.38777878078144E-15,0.));
#738=DIRECTION('',(0.,1.,0.));
#739=DIRECTION('',(1.,0.,0.));
#740=DIRECTION('',(0.,1.,0.));
#741=DIRECTION('',(1.,1.38777878078144E-15,0.));
#742=DIRECTION('',(0.5,-0.866025403784438,0.));
#743=DIRECTION('',(0.866025403784438,0.5,0.));
#744=DIRECTION('',(0.5,-0.866025403784438,0.));
#745=DIRECTION('',(0.866025403784438,0.5,0.));
#746=DIRECTION('',(0.5,-0.866025403784438,0.));
#747=DIRECTION('',(-0.5,-0.866025403784439,0.));
#748=DIRECTION('',(0.866025403784439,-0.5,0.));
#749=DIRECTION('',(-0.5,-0.866025403784439,0.));
#750=DIRECTION('',(0.866025403784439,-0.5,0.));
#751=DIRECTION('',(-0.5,-0.866025403784439,0.));
#752=DIRECTION('',(-1.,-9.71445146547012E-16,0.));
#753=DIRECTION('',(9.71445146547012E-16,-1.,0.));
#754=DIRECTION('',(-1.,-9.71445146547012E-16,0.));
#755=DIRECTION('',(9.71445146547012E-16,-1.,0.));
#756=DIRECTION('',(-1.,-9.71445146547012E-16,0.));
#757=DIRECTION('',(-0.866025403784438,-0.5,0.));
#758=DIRECTION('',(-0.5,0.866025403784438,0.));
#759=DIRECTION('',(0.,0.,1.));
#760=DIRECTION('',(1.,0.,0.));
#761=DIRECTION('',(0.,0.,1.));
#762=DIRECTION('',(1.,0.,0.));
#763=DIRECTION('',(-0.5,0.866025403784438,0.));
#764=DIRECTION('',(-0.866025403784438,-0.5,0.));
#765=DIRECTION('',(-0.5,0.866025403784438,0.));
#766=DIRECTION('',(-0.866025403784438,-0.5,0.));
#767=DIRECTION('',(-1.,-9.71445146547012E-16,0.));
#768=DIRECTION('',(9.71445146547012E-16,-1.,0.));
#769=DIRECTION('',(-1.,-9.71445146547012E-16,0.));
#770=DIRECTION('',(9.71445146547012E-16,-1.,0.));
#771=DIRECTION('',(-1.,-9.71445146547012E-16,0.));
#772=DIRECTION('',(-0.5,-0.866025403784439,0.));
#773=DIRECTION('',(0.866025403784439,-0.5,0.));
#774=DIRECTION('',(-0.5,-0.866025403784439,0.));
#775=DIRECTION('',(0.866025403784439,-0.5,0.));
#776=DIRECTION('',(-0.5,-0.866025403784439,0.));
#777=DIRECTION('',(0.5,-0.866025403784438,0.));
#778=DIRECTION('',(0.866025403784438,0.5,0.));
#779=DIRECTION('',(0.5,-0.866025403784438,0.));
#780=DIRECTION('',(0.866025403784438,0.5,0.));
#781=DIRECTION('',(0.5,-0.866025403784438,0.));
#782=DIRECTION('',(1.,1.38777878078144E-15,0.));
#783=DIRECTION('',(0.,1.,0.));
#784=DIRECTION('',(1.,0.,0.));
#785=DIRECTION('',(0.,1.,0.));
#786=DIRECTION('',(1.,1.38777878078144E-15,0.));
#787=DIRECTION('',(0.5,0.866025403784439,0.));
#788=DIRECTION('',(-0.866025403784439,0.5,0.));
#789=DIRECTION('',(0.5,0.866025403784439,0.));
#790=DIRECTION('',(-0.866025403784439,0.5,0.));
#791=DIRECTION('',(0.5,0.866025403784439,0.));
#792=DIRECTION('',(-0.866025403784438,-0.5,0.));
#793=DIRECTION('',(0.5,-0.866025403784438,0.));
#794=DIRECTION('',(0.,0.,-1.));
#795=DIRECTION('',(0.,0.,1.));
#796=DIRECTION('',(-9.71445146547012E-16,1.,0.));
#797=DIRECTION('',(-1.,-9.71445146547012E-16,0.));
#798=DIRECTION('',(0.,0.,-1.));
#799=DIRECTION('',(0.,0.,1.));
#800=DIRECTION('',(1.38777878078144E-15,-1.,0.));
#801=DIRECTION('',(1.,1.38777878078145E-15,0.));
#802=DIRECTION('',(0.,0.,-1.));
#803=DIRECTION('',(0.,0.,1.));
#804=DIRECTION('',(-0.866025403784439,0.5,0.));
#805=DIRECTION('',(-0.5,-0.866025403784439,0.));
#806=DIRECTION('',(0.,0.,-1.));
#807=DIRECTION('',(0.,0.,1.));
#808=DIRECTION('',(0.866025403784439,-0.5,0.));
#809=DIRECTION('',(0.5,0.866025403784439,0.));
#810=DIRECTION('',(0.,0.,-1.));
#811=DIRECTION('',(0.,0.,1.));
#812=DIRECTION('',(0.866025403784438,0.5,0.));
#813=DIRECTION('',(-0.5,0.866025403784438,0.));
#814=DIRECTION('',(0.,0.,-1.));
#815=DIRECTION('',(-9.71445146547012E-16,1.,0.));
#816=DIRECTION('',(-1.,-9.71445146547012E-16,0.));
#817=DIRECTION('',(0.,0.,-1.));
#818=DIRECTION('',(-0.866025403784439,0.5,0.));
#819=DIRECTION('',(-0.5,-0.866025403784439,0.));
#820=DIRECTION('',(0.,0.,-1.));
#821=DIRECTION('',(-0.866025403784438,-0.5,0.));
#822=DIRECTION('',(0.5,-0.866025403784438,0.));
#823=DIRECTION('',(0.,0.,-1.));
#824=DIRECTION('',(1.38777878078144E-15,-1.,0.));
#825=DIRECTION('',(1.,1.38777878078145E-15,0.));
#826=DIRECTION('',(0.,0.,-1.));
#827=DIRECTION('',(0.866025403784439,-0.5,0.));
#828=DIRECTION('',(0.5,0.866025403784439,0.));
#829=DIRECTION('',(0.,0.,-1.));
#830=DIRECTION('',(0.,0.,1.));
#831=DIRECTION('',(1.,0.,0.));
#832=DIRECTION('',(-0.5,-0.866025403784439,0.));
#833=DIRECTION('',(0.,0.,1.));
#834=DIRECTION('',(0.,0.,-1.));
#835=DIRECTION('',(-0.5,-0.866025403784439,0.));
#836=DIRECTION('',(0.,0.,1.));
#837=DIRECTION('',(0.,0.,-1.));
#838=DIRECTION('',(-0.866025403784439,0.5,0.));
#839=DIRECTION('',(0.,0.,1.));
#840=DIRECTION('',(0.5,0.866025403784439,0.));
#841=DIRECTION('',(0.,0.,1.));
#842=DIRECTION('',(0.,0.,-1.));
#843=DIRECTION('',(0.5,0.866025403784439,0.));
#844=DIRECTION('',(0.,0.,1.));
#845=DIRECTION('',(0.,0.,-1.));
#846=DIRECTION('',(0.866025403784439,-0.5,0.));
#847=DIRECTION('',(0.,0.,1.));
#848=DIRECTION('',(-1.,0.,0.));
#849=DIRECTION('',(0.,0.,1.));
#850=DIRECTION('',(0.,0.,-1.));
#851=DIRECTION('',(-1.,0.,0.));
#852=DIRECTION('',(0.,0.,1.));
#853=DIRECTION('',(0.,0.,-1.));
#854=DIRECTION('',(0.,1.,0.));
#855=DIRECTION('',(0.,0.,1.));
#856=DIRECTION('',(1.,9.71445146547012E-16,0.));
#857=DIRECTION('',(0.,0.,1.));
#858=DIRECTION('',(0.,0.,-1.));
#859=DIRECTION('',(1.,9.71445146547012E-16,0.));
#860=DIRECTION('',(0.,0.,1.));
#861=DIRECTION('',(0.,0.,-1.));
#862=DIRECTION('',(9.71445146547012E-16,-1.,0.));
#863=DIRECTION('',(0.,0.,1.));
#864=DIRECTION('',(-0.5,0.866025403784438,0.));
#865=DIRECTION('',(0.,0.,1.));
#866=DIRECTION('',(0.,0.,-1.));
#867=DIRECTION('',(-0.5,0.866025403784438,0.));
#868=DIRECTION('',(0.,0.,1.));
#869=DIRECTION('',(0.,0.,-1.));
#870=DIRECTION('',(0.866025403784438,0.5,0.));
#871=DIRECTION('',(0.,0.,1.));
#872=DIRECTION('',(0.5,-0.866025403784438,0.));
#873=DIRECTION('',(0.,0.,1.));
#874=DIRECTION('',(0.,0.,-1.));
#875=DIRECTION('',(0.5,-0.866025403784438,0.));
#876=DIRECTION('',(0.,0.,1.));
#877=DIRECTION('',(0.,0.,-1.));
#878=DIRECTION('',(-0.866025403784438,-0.5,0.));
#879=DIRECTION('',(0.,0.,1.));
#880=CARTESIAN_POINT('',(0.,0.,0.));
#881=CARTESIAN_POINT('',(0.0375,0.021650635094611,0.258585));
#882=CARTESIAN_POINT('',(0.0375,0.021650635094611,0.2675512));
#883=CARTESIAN_POINT('',(0.0333333333333333,0.0288675134594813,0.2675512));
#884=CARTESIAN_POINT('',(0.025,0.0433012701892219,0.2675512));
#885=CARTESIAN_POINT('',(0.0333333333333333,0.0288675134594813,0.2675512));
#886=CARTESIAN_POINT('',(0.0333333333333333,0.0288675134594813,0.258585));
#887=CARTESIAN_POINT('',(0.0375,0.021650635094611,0.258585));
#888=CARTESIAN_POINT('',(0.025,0.0433012701892219,0.258585));
#889=CARTESIAN_POINT('',(0.025,0.0433012701892219,0.258585));
#890=CARTESIAN_POINT('',(0.0889968151033209,1.11022302462516E-16,0.258585));
#891=CARTESIAN_POINT('',(0.,7.77650717458569E-19,0.258585));
#892=CARTESIAN_POINT('',(0.0127,7.77650717458569E-19,0.258585));
#893=CARTESIAN_POINT('',(0.0377841881789606,0.0121922067297407,0.258585));
#894=CARTESIAN_POINT('',(0.0416666666666667,0.0144337567297407,0.258585));
#895=CARTESIAN_POINT('',(0.0339017096912546,0.00995065672974068,0.258585));
#896=CARTESIAN_POINT('',(0.0375,0.021650635094611,0.258585));
#897=CARTESIAN_POINT('',(0.05,6.24500451351651E-17,0.258585));
#898=CARTESIAN_POINT('',(0.044870775,-0.00888407830345242,0.258585));
#899=CARTESIAN_POINT('',(0.0416666666666667,-0.0144337567297406,0.258585));
#900=CARTESIAN_POINT('',(0.0377841881789607,-0.0121922067297406,0.258585));
#901=CARTESIAN_POINT('',(0.0339017096912547,-0.00995065672974061,0.258585));
#902=CARTESIAN_POINT('',(0.029735043024588,-0.017167535094611,0.258585));
#903=CARTESIAN_POINT('',(0.0255683763579213,-0.0243844134594812,0.258585));
#904=CARTESIAN_POINT('',(0.0294508548456273,-0.0266259634594813,0.258585));
#905=CARTESIAN_POINT('',(0.0333333333333334,-0.0288675134594812,0.258585));
#906=CARTESIAN_POINT('',(0.030129225,-0.0344171918857694,0.258585));
#907=CARTESIAN_POINT('',(0.025,-0.0433012701892219,0.258585));
#908=CARTESIAN_POINT('',(5.72458747072346E-17,-0.0433012701892219,0.258585));
#909=CARTESIAN_POINT('',(0.00833333333333332,-0.043301270189222,0.258585));
#910=CARTESIAN_POINT('',(0.00833333333333332,-0.0388181701892219,0.258585));
#911=CARTESIAN_POINT('',(0.00833333333333332,-0.0343350701892218,0.258585));
#912=CARTESIAN_POINT('',(-1.56125112837912E-17,-0.0343350701892218,0.258585));
#913=CARTESIAN_POINT('',(-0.00833333333333335,-0.0343350701892218,0.258585));
#914=CARTESIAN_POINT('',(-0.00833333333333335,-0.0388181701892219,0.258585));
#915=CARTESIAN_POINT('',(-0.00833333333333335,-0.043301270189222,0.258585));
#916=CARTESIAN_POINT('',(5.72458747072346E-17,-0.0433012701892219,0.258585));
#917=CARTESIAN_POINT('',(-0.025,-0.043301270189222,0.258585));
#918=CARTESIAN_POINT('',(-0.0375,-0.021650635094611,0.258585));
#919=CARTESIAN_POINT('',(-0.0333333333333333,-0.0288675134594813,0.258585));
#920=CARTESIAN_POINT('',(-0.0294508548456273,-0.0266259634594814,0.258585));
#921=CARTESIAN_POINT('',(-0.0255683763579213,-0.0243844134594813,0.258585));
#922=CARTESIAN_POINT('',(-0.0297350430245879,-0.017167535094611,0.258585));
#923=CARTESIAN_POINT('',(-0.0339017096912546,-0.00995065672974067,0.258585));
#924=CARTESIAN_POINT('',(-0.0377841881789606,-0.0121922067297407,0.258585));
#925=CARTESIAN_POINT('',(-0.0416666666666667,-0.0144337567297407,0.258585));
#926=CARTESIAN_POINT('',(-0.0375,-0.021650635094611,0.258585));
#927=CARTESIAN_POINT('',(-0.05,-4.16333634234433E-17,0.258585));
#928=CARTESIAN_POINT('',(-0.0375,0.021650635094611,0.258585));
#929=CARTESIAN_POINT('',(-0.0416666666666667,0.0144337567297406,0.258585));
#930=CARTESIAN_POINT('',(-0.0377841881789606,0.0121922067297406,0.258585));
#931=CARTESIAN_POINT('',(-0.0339017096912547,0.0099506567297406,0.258585));
#932=CARTESIAN_POINT('',(-0.029735043024588,0.017167535094611,0.258585));
#933=CARTESIAN_POINT('',(-0.0255683763579213,0.0243844134594812,0.258585));
#934=CARTESIAN_POINT('',(-0.0294508548456273,0.0266259634594813,0.258585));
#935=CARTESIAN_POINT('',(-0.0333333333333334,0.0288675134594812,0.258585));
#936=CARTESIAN_POINT('',(-0.0375,0.021650635094611,0.258585));
#937=CARTESIAN_POINT('',(-0.025,0.0433012701892219,0.258585));
#938=CARTESIAN_POINT('',(-3.46944695195361E-17,0.0433012701892219,0.258585));
#939=CARTESIAN_POINT('',(-0.00833333333333338,0.043301270189222,0.258585));
#940=CARTESIAN_POINT('',(-0.00833333333333338,0.0388181701892219,0.258585));
#941=CARTESIAN_POINT('',(-0.00833333333333337,0.0343350701892219,0.258585));
#942=CARTESIAN_POINT('',(-3.16199138156938E-17,0.0343350701892219,0.258585));
#943=CARTESIAN_POINT('',(0.00833333333333331,0.0343350701892219,0.258585));
#944=CARTESIAN_POINT('',(0.0083333333333333,0.0388181701892219,0.258585));
#945=CARTESIAN_POINT('',(0.0083333333333333,0.043301270189222,0.258585));
#946=CARTESIAN_POINT('',(-3.46944695195361E-17,0.0433012701892219,0.258585));
#947=CARTESIAN_POINT('',(0.0294508548456273,0.0266259634594814,0.258585));
#948=CARTESIAN_POINT('',(0.0255683763579213,0.0243844134594813,0.258585));
#949=CARTESIAN_POINT('',(0.0297350430245879,0.017167535094611,0.258585));
#950=CARTESIAN_POINT('',(0.0889968151033209,1.11022302462516E-16,0.2675512));
#951=CARTESIAN_POINT('',(0.,7.77650717458569E-19,0.2675512));
#952=CARTESIAN_POINT('',(0.0127,7.77650717458569E-19,0.2675512));
#953=CARTESIAN_POINT('',(0.0375,0.021650635094611,0.2675512));
#954=CARTESIAN_POINT('',(0.05,6.24500451351651E-17,0.2675512));
#955=CARTESIAN_POINT('',(0.0416666666666667,0.0144337567297407,0.2675512));
#956=CARTESIAN_POINT('',(0.0377841881789606,0.0121922067297407,0.2675512));
#957=CARTESIAN_POINT('',(0.0339017096912546,0.00995065672974068,0.2675512));
#958=CARTESIAN_POINT('',(0.0297350430245879,0.017167535094611,0.2675512));
#959=CARTESIAN_POINT('',(0.0255683763579213,0.0243844134594813,0.2675512));
#960=CARTESIAN_POINT('',(0.0294508548456273,0.0266259634594814,0.2675512));
#961=CARTESIAN_POINT('',(-3.46944695195361E-17,0.0433012701892219,0.2675512));
#962=CARTESIAN_POINT('',(0.0083333333333333,0.043301270189222,0.2675512));
#963=CARTESIAN_POINT('',(0.0083333333333333,0.0388181701892219,0.2675512));
#964=CARTESIAN_POINT('',(0.00833333333333331,0.0343350701892219,0.2675512));
#965=CARTESIAN_POINT('',(-3.16199138156938E-17,0.0343350701892219,0.2675512));
#966=CARTESIAN_POINT('',(-0.00833333333333337,0.0343350701892219,0.2675512));
#967=CARTESIAN_POINT('',(-0.00833333333333338,0.0388181701892219,0.2675512));
#968=CARTESIAN_POINT('',(-0.00833333333333338,0.043301270189222,0.2675512));
#969=CARTESIAN_POINT('',(-3.46944695195361E-17,0.0433012701892219,0.2675512));
#970=CARTESIAN_POINT('',(-0.025,0.0433012701892219,0.2675512));
#971=CARTESIAN_POINT('',(-0.0375,0.021650635094611,0.2675512));
#972=CARTESIAN_POINT('',(-0.0333333333333334,0.0288675134594812,0.2675512));
#973=CARTESIAN_POINT('',(-0.0294508548456273,0.0266259634594813,0.2675512));
#974=CARTESIAN_POINT('',(-0.0255683763579213,0.0243844134594812,0.2675512));
#975=CARTESIAN_POINT('',(-0.029735043024588,0.017167535094611,0.2675512));
#976=CARTESIAN_POINT('',(-0.0339017096912547,0.0099506567297406,0.2675512));
#977=CARTESIAN_POINT('',(-0.0377841881789606,0.0121922067297406,0.2675512));
#978=CARTESIAN_POINT('',(-0.0416666666666667,0.0144337567297406,0.2675512));
#979=CARTESIAN_POINT('',(-0.0375,0.021650635094611,0.2675512));
#980=CARTESIAN_POINT('',(-0.05,-4.16333634234433E-17,0.2675512));
#981=CARTESIAN_POINT('',(-0.0375,-0.021650635094611,0.2675512));
#982=CARTESIAN_POINT('',(-0.0416666666666667,-0.0144337567297407,0.2675512));
#983=CARTESIAN_POINT('',(-0.0377841881789606,-0.0121922067297407,0.2675512));
#984=CARTESIAN_POINT('',(-0.0339017096912546,-0.00995065672974067,0.2675512));
#985=CARTESIAN_POINT('',(-0.0297350430245879,-0.017167535094611,0.2675512));
#986=CARTESIAN_POINT('',(-0.0255683763579213,-0.0243844134594813,0.2675512));
#987=CARTESIAN_POINT('',(-0.0294508548456273,-0.0266259634594814,0.2675512));
#988=CARTESIAN_POINT('',(-0.0333333333333333,-0.0288675134594813,0.2675512));
#989=CARTESIAN_POINT('',(-0.0375,-0.021650635094611,0.2675512));
#990=CARTESIAN_POINT('',(-0.025,-0.043301270189222,0.2675512));
#991=CARTESIAN_POINT('',(5.72458747072346E-17,-0.0433012701892219,0.2675512));
#992=CARTESIAN_POINT('',(-0.00833333333333335,-0.043301270189222,0.2675512));
#993=CARTESIAN_POINT('',(-0.00833333333333335,-0.0388181701892219,0.2675512));
#994=CARTESIAN_POINT('',(-0.00833333333333335,-0.0343350701892218,0.2675512));
#995=CARTESIAN_POINT('',(-1.56125112837912E-17,-0.0343350701892218,0.2675512));
#996=CARTESIAN_POINT('',(0.00833333333333332,-0.0343350701892218,0.2675512));
#997=CARTESIAN_POINT('',(0.00833333333333332,-0.0388181701892219,0.2675512));
#998=CARTESIAN_POINT('',(0.00833333333333332,-0.043301270189222,0.2675512));
#999=CARTESIAN_POINT('',(5.72458747072346E-17,-0.0433012701892219,0.2675512));
#1000=CARTESIAN_POINT('',(0.025,-0.0433012701892219,0.2675512));
#1001=CARTESIAN_POINT('',(0.030129225,-0.0344171918857694,0.2675512));
#1002=CARTESIAN_POINT('',(0.0333333333333334,-0.0288675134594812,0.2675512));
#1003=CARTESIAN_POINT('',(0.0294508548456273,-0.0266259634594813,0.2675512));
#1004=CARTESIAN_POINT('',(0.0255683763579213,-0.0243844134594812,0.2675512));
#1005=CARTESIAN_POINT('',(0.029735043024588,-0.017167535094611,0.2675512));
#1006=CARTESIAN_POINT('',(0.0339017096912547,-0.00995065672974061,0.2675512));
#1007=CARTESIAN_POINT('',(0.0377841881789607,-0.0121922067297406,0.2675512));
#1008=CARTESIAN_POINT('',(0.0416666666666667,-0.0144337567297406,0.2675512));
#1009=CARTESIAN_POINT('',(0.044870775,-0.00888407830345242,0.2675512));
#1010=CARTESIAN_POINT('',(-0.0375,-0.021650635094611,0.258585));
#1011=CARTESIAN_POINT('',(-0.0333333333333333,-0.0288675134594813,0.2675512));
#1012=CARTESIAN_POINT('',(-0.025,-0.043301270189222,0.258585));
#1013=CARTESIAN_POINT('',(-3.46944695195361E-17,0.0433012701892219,0.258585));
#1014=CARTESIAN_POINT('',(-0.00833333333333338,0.043301270189222,0.2675512));
#1015=CARTESIAN_POINT('',(-0.025,0.0433012701892219,0.258585));
#1016=CARTESIAN_POINT('',(5.72458747072346E-17,-0.0433012701892219,0.258585));
#1017=CARTESIAN_POINT('',(0.00833333333333332,-0.043301270189222,0.2675512));
#1018=CARTESIAN_POINT('',(0.025,-0.0433012701892219,0.258585));
#1019=CARTESIAN_POINT('',(-0.0375,0.021650635094611,0.258585));
#1020=CARTESIAN_POINT('',(-0.0416666666666667,0.0144337567297406,0.2675512));
#1021=CARTESIAN_POINT('',(-0.05,-4.16333634234433E-17,0.258585));
#1022=CARTESIAN_POINT('',(0.044870775,-0.00888407830345242,0.258585));
#1023=CARTESIAN_POINT('',(0.0416666666666667,-0.0144337567297406,0.2675512));
#1024=CARTESIAN_POINT('',(0.05,6.24500451351651E-17,0.258585));
#1025=CARTESIAN_POINT('',(0.0375,0.021650635094611,0.258585));
#1026=CARTESIAN_POINT('',(0.0416666666666667,0.0144337567297407,0.2675512));
#1027=CARTESIAN_POINT('',(-3.46944695195361E-17,0.0433012701892219,0.258585));
#1028=CARTESIAN_POINT('',(0.0083333333333333,0.043301270189222,0.2675512));
#1029=CARTESIAN_POINT('',(-0.0375,0.021650635094611,0.258585));
#1030=CARTESIAN_POINT('',(-0.0333333333333334,0.0288675134594812,0.2675512));
#1031=CARTESIAN_POINT('',(-0.0375,-0.021650635094611,0.258585));
#1032=CARTESIAN_POINT('',(-0.0416666666666667,-0.0144337567297407,0.2675512));
#1033=CARTESIAN_POINT('',(5.72458747072346E-17,-0.0433012701892219,0.258585));
#1034=CARTESIAN_POINT('',(-0.00833333333333335,-0.043301270189222,0.2675512));
#1035=CARTESIAN_POINT('',(0.030129225,-0.0344171918857694,0.258585));
#1036=CARTESIAN_POINT('',(0.0333333333333334,-0.0288675134594812,0.2675512));
#1037=CARTESIAN_POINT('',(0.,7.77650717458569E-19,0.258585));
#1038=CARTESIAN_POINT('',(0.0294508548456273,-0.0266259634594813,0.2675512));
#1039=CARTESIAN_POINT('',(0.0255683763579213,-0.0243844134594812,0.2675512));
#1040=CARTESIAN_POINT('',(0.0377841881789607,-0.0121922067297406,0.2675512));
#1041=CARTESIAN_POINT('',(0.0339017096912547,-0.00995065672974061,0.2675512));
#1042=CARTESIAN_POINT('',(0.029735043024588,-0.017167535094611,0.2675512));
#1043=CARTESIAN_POINT('',(-0.0294508548456273,0.0266259634594813,0.2675512));
#1044=CARTESIAN_POINT('',(-0.0255683763579213,0.0243844134594812,0.2675512));
#1045=CARTESIAN_POINT('',(-0.0377841881789606,0.0121922067297406,0.2675512));
#1046=CARTESIAN_POINT('',(-0.0339017096912547,0.0099506567297406,0.2675512));
#1047=CARTESIAN_POINT('',(-0.029735043024588,0.017167535094611,0.2675512));
#1048=CARTESIAN_POINT('',(-0.00833333333333335,-0.0388181701892219,0.2675512));
#1049=CARTESIAN_POINT('',(-0.00833333333333335,-0.0343350701892218,0.2675512));
#1050=CARTESIAN_POINT('',(0.00833333333333332,-0.0388181701892219,0.2675512));
#1051=CARTESIAN_POINT('',(0.00833333333333332,-0.0343350701892218,0.2675512));
#1052=CARTESIAN_POINT('',(-1.56125112837912E-17,-0.0343350701892218,0.2675512));
#1053=CARTESIAN_POINT('',(0.0083333333333333,0.0388181701892219,0.2675512));
#1054=CARTESIAN_POINT('',(0.00833333333333331,0.0343350701892219,0.2675512));
#1055=CARTESIAN_POINT('',(-0.00833333333333338,0.0388181701892219,0.2675512));
#1056=CARTESIAN_POINT('',(-0.00833333333333337,0.0343350701892219,0.2675512));
#1057=CARTESIAN_POINT('',(-3.16199138156938E-17,0.0343350701892219,0.2675512));
#1058=CARTESIAN_POINT('',(-0.0377841881789606,-0.0121922067297407,0.2675512));
#1059=CARTESIAN_POINT('',(-0.0339017096912546,-0.00995065672974067,0.2675512));
#1060=CARTESIAN_POINT('',(-0.0294508548456273,-0.0266259634594814,0.2675512));
#1061=CARTESIAN_POINT('',(-0.0255683763579213,-0.0243844134594813,0.2675512));
#1062=CARTESIAN_POINT('',(-0.0297350430245879,-0.017167535094611,0.2675512));
#1063=CARTESIAN_POINT('',(0.0377841881789606,0.0121922067297407,0.2675512));
#1064=CARTESIAN_POINT('',(0.0339017096912546,0.00995065672974068,0.2675512));
#1065=CARTESIAN_POINT('',(0.0294508548456273,0.0266259634594814,0.2675512));
#1066=CARTESIAN_POINT('',(0.0255683763579213,0.0243844134594813,0.2675512));
#1067=CARTESIAN_POINT('',(0.0297350430245879,0.017167535094611,0.2675512));
#1068=MECHANICAL_DESIGN_GEOMETRIC_PRESENTATION_REPRESENTATION('',(#671),
#1069);
#1069=(
GEOMETRIC_REPRESENTATION_CONTEXT(3)
GLOBAL_UNCERTAINTY_ASSIGNED_CONTEXT((#1070))
GLOBAL_UNIT_ASSIGNED_CONTEXT((#1073,#1072,#1071))
REPRESENTATION_CONTEXT('Mast Center B','TOP_LEVEL_ASSEMBLY_PART')
);
#1070=UNCERTAINTY_MEASURE_WITH_UNIT(LENGTH_MEASURE(1.E-8),#1073,
'DISTANCE_ACCURACY_VALUE','Maximum Tolerance applied to model');
#1071=(
NAMED_UNIT(*)
SI_UNIT($,.STERADIAN.)
SOLID_ANGLE_UNIT()
);
#1072=(
NAMED_UNIT(*)
PLANE_ANGLE_UNIT()
SI_UNIT($,.RADIAN.)
);
#1073=(
LENGTH_UNIT()
NAMED_UNIT(*)
SI_UNIT($,.METRE.)
);
#1074=PRODUCT_DEFINITION_SHAPE('','',#1075);
#1075=PRODUCT_DEFINITION('','',#1077,#1076);
#1076=PRODUCT_DEFINITION_CONTEXT('',#1083,'design');
#1077=PRODUCT_DEFINITION_FORMATION_WITH_SPECIFIED_SOURCE('','',#1079,
 .NOT_KNOWN.);
#1078=PRODUCT_RELATED_PRODUCT_CATEGORY('','',(#1079));
#1079=PRODUCT('Mast Center B','Mast Center B','Mast Center B',(#1081));
#1080=PRODUCT_CATEGORY('','');
#1081=PRODUCT_CONTEXT('',#1083,'mechanical');
#1082=APPLICATION_PROTOCOL_DEFINITION('international standard',
'ap242_managed_model_based_3d_engineering',2011,#1083);
#1083=APPLICATION_CONTEXT('managed model based 3d engineering');
ENDSEC;
END-ISO-10303-21;
