ISO-10303-21;
HEADER;
/* Generated by software containing ST-Developer
 * from STEP Tools, Inc. (www.steptools.com) 
 */
/* OPTION: using custom renumber hook */

FILE_DESCRIPTION(
/* description */ ('STEP AP242',
'CAx-IF Rec.Pracs.---Representation and Presentation of Product Manufa
cturing Information (PMI)---4.0---2014-10-13',
'CAx-IF Rec.Pracs.---3D Tessellated Geometry---0.4---2014-09-14','2;1'),

/* implementation_level */ '2;1');

FILE_NAME(
/* name */ '68fb1d6134e6012dc82c93d8',
/* time_stamp */ '2025-10-24T06:32:02Z',
/* author */ (''),
/* organization */ (''),
/* preprocessor_version */ 'ST-DEVELOPER v20',
/* originating_system */ 'ONSHAPE BY PTC INC, 1.205',
/* authorisation */ '  ');

FILE_SCHEMA (('AP242_MANAGED_MODEL_BASED_3D_ENGINEERING_MIM_LF { 1 0 10303 442 1 1 4 }'));
ENDSEC;

DATA;
#10=SHAPE_REPRESENTATION_RELATIONSHIP('','',#251,#11);
#11=ADVANCED_BREP_SHAPE_REPRESENTATION('',(#249),#419);
#12=CYLINDRICAL_SURFACE('',#262,0.0711614795394196);
#13=CYLINDRICAL_SURFACE('',#266,0.002);
#14=CYLINDRICAL_SURFACE('',#271,0.0495900383402727);
#15=CYLINDRICAL_SURFACE('',#273,0.0857852548360825);
#16=CYLINDRICAL_SURFACE('',#277,0.07346);
#17=CIRCLE('',#256,0.07346);
#18=CIRCLE('',#257,0.0711614795394194);
#19=CIRCLE('',#259,0.002);
#20=CIRCLE('',#260,0.0711614795394194);
#21=CIRCLE('',#261,0.0495900383402727);
#22=CIRCLE('',#263,0.0711614795394194);
#23=CIRCLE('',#264,0.0711614795394196);
#24=CIRCLE('',#267,0.002);
#25=CIRCLE('',#269,0.0495900383402727);
#26=CIRCLE('',#270,0.0857852548360825);
#27=CIRCLE('',#274,0.0857852548360825);
#28=CIRCLE('',#276,0.07346);
#29=ORIENTED_EDGE('',*,*,#93,.T.);
#30=ORIENTED_EDGE('',*,*,#94,.T.);
#31=ORIENTED_EDGE('',*,*,#95,.T.);
#32=ORIENTED_EDGE('',*,*,#96,.T.);
#33=ORIENTED_EDGE('',*,*,#97,.F.);
#34=ORIENTED_EDGE('',*,*,#98,.F.);
#35=ORIENTED_EDGE('',*,*,#99,.F.);
#36=ORIENTED_EDGE('',*,*,#100,.F.);
#37=ORIENTED_EDGE('',*,*,#101,.T.);
#38=ORIENTED_EDGE('',*,*,#102,.T.);
#39=ORIENTED_EDGE('',*,*,#103,.F.);
#40=ORIENTED_EDGE('',*,*,#104,.F.);
#41=ORIENTED_EDGE('',*,*,#95,.F.);
#42=ORIENTED_EDGE('',*,*,#105,.T.);
#43=ORIENTED_EDGE('',*,*,#104,.T.);
#44=ORIENTED_EDGE('',*,*,#106,.T.);
#45=ORIENTED_EDGE('',*,*,#107,.F.);
#46=ORIENTED_EDGE('',*,*,#108,.F.);
#47=ORIENTED_EDGE('',*,*,#109,.T.);
#48=ORIENTED_EDGE('',*,*,#110,.F.);
#49=ORIENTED_EDGE('',*,*,#111,.F.);
#50=ORIENTED_EDGE('',*,*,#112,.F.);
#51=ORIENTED_EDGE('',*,*,#108,.T.);
#52=ORIENTED_EDGE('',*,*,#113,.T.);
#53=ORIENTED_EDGE('',*,*,#114,.T.);
#54=ORIENTED_EDGE('',*,*,#96,.F.);
#55=ORIENTED_EDGE('',*,*,#106,.F.);
#56=ORIENTED_EDGE('',*,*,#103,.T.);
#57=ORIENTED_EDGE('',*,*,#115,.T.);
#58=ORIENTED_EDGE('',*,*,#109,.F.);
#59=ORIENTED_EDGE('',*,*,#112,.T.);
#60=ORIENTED_EDGE('',*,*,#116,.F.);
#61=ORIENTED_EDGE('',*,*,#117,.F.);
#62=ORIENTED_EDGE('',*,*,#107,.T.);
#63=ORIENTED_EDGE('',*,*,#118,.T.);
#64=ORIENTED_EDGE('',*,*,#97,.T.);
#65=ORIENTED_EDGE('',*,*,#114,.F.);
#66=ORIENTED_EDGE('',*,*,#119,.F.);
#67=ORIENTED_EDGE('',*,*,#120,.F.);
#68=ORIENTED_EDGE('',*,*,#116,.T.);
#69=ORIENTED_EDGE('',*,*,#115,.F.);
#70=ORIENTED_EDGE('',*,*,#102,.F.);
#71=ORIENTED_EDGE('',*,*,#121,.T.);
#72=ORIENTED_EDGE('',*,*,#118,.F.);
#73=ORIENTED_EDGE('',*,*,#122,.F.);
#74=ORIENTED_EDGE('',*,*,#110,.T.);
#75=ORIENTED_EDGE('',*,*,#117,.T.);
#76=ORIENTED_EDGE('',*,*,#120,.T.);
#77=ORIENTED_EDGE('',*,*,#113,.F.);
#78=ORIENTED_EDGE('',*,*,#111,.T.);
#79=ORIENTED_EDGE('',*,*,#122,.T.);
#80=ORIENTED_EDGE('',*,*,#119,.T.);
#81=ORIENTED_EDGE('',*,*,#101,.F.);
#82=ORIENTED_EDGE('',*,*,#123,.T.);
#83=ORIENTED_EDGE('',*,*,#98,.T.);
#84=ORIENTED_EDGE('',*,*,#121,.F.);
#85=ORIENTED_EDGE('',*,*,#124,.F.);
#86=ORIENTED_EDGE('',*,*,#93,.F.);
#87=ORIENTED_EDGE('',*,*,#123,.F.);
#88=ORIENTED_EDGE('',*,*,#100,.T.);
#89=ORIENTED_EDGE('',*,*,#124,.T.);
#90=ORIENTED_EDGE('',*,*,#99,.T.);
#91=ORIENTED_EDGE('',*,*,#105,.F.);
#92=ORIENTED_EDGE('',*,*,#94,.F.);
#93=EDGE_CURVE('',#125,#126,#147,.T.);
#94=EDGE_CURVE('',#126,#127,#148,.F.);
#95=EDGE_CURVE('',#127,#128,#149,.T.);
#96=EDGE_CURVE('',#128,#129,#150,.T.);
#97=EDGE_CURVE('',#130,#129,#151,.T.);
#98=EDGE_CURVE('',#125,#130,#152,.T.);
#99=EDGE_CURVE('',#131,#132,#153,.F.);
#100=EDGE_CURVE('',#133,#131,#154,.T.);
#101=EDGE_CURVE('',#133,#134,#155,.T.);
#102=EDGE_CURVE('',#134,#135,#156,.T.);
#103=EDGE_CURVE('',#136,#135,#157,.T.);
#104=EDGE_CURVE('',#132,#136,#158,.T.);
#105=EDGE_CURVE('',#127,#132,#17,.T.);
#106=EDGE_CURVE('',#136,#128,#18,.F.);
#107=EDGE_CURVE('',#137,#137,#19,.F.);
#108=EDGE_CURVE('',#138,#139,#20,.T.);
#109=EDGE_CURVE('',#138,#140,#159,.T.);
#110=EDGE_CURVE('',#141,#140,#21,.F.);
#111=EDGE_CURVE('',#139,#141,#160,.T.);
#112=EDGE_CURVE('',#138,#142,#161,.T.);
#113=EDGE_CURVE('',#139,#143,#162,.T.);
#114=EDGE_CURVE('',#143,#129,#22,.T.);
#115=EDGE_CURVE('',#135,#142,#23,.T.);
#116=EDGE_CURVE('',#144,#142,#163,.T.);
#117=EDGE_CURVE('',#140,#144,#164,.T.);
#118=EDGE_CURVE('',#145,#145,#24,.T.);
#119=EDGE_CURVE('',#146,#143,#165,.T.);
#120=EDGE_CURVE('',#144,#146,#25,.T.);
#121=EDGE_CURVE('',#134,#130,#26,.T.);
#122=EDGE_CURVE('',#141,#146,#166,.T.);
#123=EDGE_CURVE('',#133,#125,#27,.F.);
#124=EDGE_CURVE('',#126,#131,#28,.T.);
#125=VERTEX_POINT('',#353);
#126=VERTEX_POINT('',#354);
#127=VERTEX_POINT('',#356);
#128=VERTEX_POINT('',#358);
#129=VERTEX_POINT('',#360);
#130=VERTEX_POINT('',#362);
#131=VERTEX_POINT('',#366);
#132=VERTEX_POINT('',#367);
#133=VERTEX_POINT('',#369);
#134=VERTEX_POINT('',#371);
#135=VERTEX_POINT('',#373);
#136=VERTEX_POINT('',#375);
#137=VERTEX_POINT('',#382);
#138=VERTEX_POINT('',#384);
#139=VERTEX_POINT('',#385);
#140=VERTEX_POINT('',#387);
#141=VERTEX_POINT('',#389);
#142=VERTEX_POINT('',#393);
#143=VERTEX_POINT('',#395);
#144=VERTEX_POINT('',#400);
#145=VERTEX_POINT('',#404);
#146=VERTEX_POINT('',#407);
#147=LINE('',#352,#167);
#148=LINE('',#355,#168);
#149=LINE('',#357,#169);
#150=LINE('',#359,#170);
#151=LINE('',#361,#171);
#152=LINE('',#363,#172);
#153=LINE('',#365,#173);
#154=LINE('',#368,#174);
#155=LINE('',#370,#175);
#156=LINE('',#372,#176);
#157=LINE('',#374,#177);
#158=LINE('',#376,#178);
#159=LINE('',#386,#179);
#160=LINE('',#390,#180);
#161=LINE('',#392,#181);
#162=LINE('',#394,#182);
#163=LINE('',#399,#183);
#164=LINE('',#401,#184);
#165=LINE('',#406,#185);
#166=LINE('',#411,#186);
#167=VECTOR('',#282,1.);
#168=VECTOR('',#283,1.);
#169=VECTOR('',#284,1.);
#170=VECTOR('',#285,1.);
#171=VECTOR('',#286,1.);
#172=VECTOR('',#287,1.);
#173=VECTOR('',#290,1.);
#174=VECTOR('',#291,1.);
#175=VECTOR('',#292,1.);
#176=VECTOR('',#293,1.);
#177=VECTOR('',#294,1.);
#178=VECTOR('',#295,1.);
#179=VECTOR('',#308,1.);
#180=VECTOR('',#311,1.);
#181=VECTOR('',#314,1.);
#182=VECTOR('',#315,1.);
#183=VECTOR('',#322,1.);
#184=VECTOR('',#323,1.);
#185=VECTOR('',#330,1.);
#186=VECTOR('',#337,1.);
#187=EDGE_LOOP('',(#29,#30,#31,#32,#33,#34));
#188=EDGE_LOOP('',(#35,#36,#37,#38,#39,#40));
#189=EDGE_LOOP('',(#41,#42,#43,#44));
#190=EDGE_LOOP('',(#45));
#191=EDGE_LOOP('',(#46,#47,#48,#49));
#192=EDGE_LOOP('',(#50,#51,#52,#53,#54,#55,#56,#57));
#193=EDGE_LOOP('',(#58,#59,#60,#61));
#194=EDGE_LOOP('',(#62));
#195=EDGE_LOOP('',(#63));
#196=EDGE_LOOP('',(#64,#65,#66,#67,#68,#69,#70,#71));
#197=EDGE_LOOP('',(#72));
#198=EDGE_LOOP('',(#73,#74,#75,#76));
#199=EDGE_LOOP('',(#77,#78,#79,#80));
#200=EDGE_LOOP('',(#81,#82,#83,#84));
#201=EDGE_LOOP('',(#85,#86,#87,#88));
#202=EDGE_LOOP('',(#89,#90,#91,#92));
#203=FACE_BOUND('',#187,.T.);
#204=FACE_BOUND('',#188,.T.);
#205=FACE_BOUND('',#189,.T.);
#206=FACE_BOUND('',#190,.T.);
#207=FACE_BOUND('',#191,.T.);
#208=FACE_BOUND('',#192,.T.);
#209=FACE_BOUND('',#193,.T.);
#210=FACE_BOUND('',#194,.T.);
#211=FACE_BOUND('',#195,.T.);
#212=FACE_BOUND('',#196,.T.);
#213=FACE_BOUND('',#197,.T.);
#214=FACE_BOUND('',#198,.T.);
#215=FACE_BOUND('',#199,.T.);
#216=FACE_BOUND('',#200,.T.);
#217=FACE_BOUND('',#201,.T.);
#218=FACE_BOUND('',#202,.T.);
#219=PLANE('',#253);
#220=PLANE('',#254);
#221=PLANE('',#255);
#222=PLANE('',#258);
#223=PLANE('',#265);
#224=PLANE('',#268);
#225=PLANE('',#272);
#226=PLANE('',#275);
#227=ADVANCED_FACE('',(#203),#219,.T.);
#228=ADVANCED_FACE('',(#204),#220,.F.);
#229=ADVANCED_FACE('',(#205),#221,.T.);
#230=ADVANCED_FACE('',(#206,#207),#222,.F.);
#231=ADVANCED_FACE('',(#208),#12,.F.);
#232=ADVANCED_FACE('',(#209),#223,.T.);
#233=ADVANCED_FACE('',(#210,#211),#13,.F.);
#234=ADVANCED_FACE('',(#212,#213),#224,.T.);
#235=ADVANCED_FACE('',(#214),#14,.F.);
#236=ADVANCED_FACE('',(#215),#225,.F.);
#237=ADVANCED_FACE('',(#216),#15,.T.);
#238=ADVANCED_FACE('',(#217),#226,.T.);
#239=ADVANCED_FACE('',(#218),#16,.F.);
#240=CLOSED_SHELL('',(#227,#228,#229,#230,#231,#232,#233,#234,#235,#236,
#237,#238,#239));
#241=STYLED_ITEM('',(#242),#249);
#242=PRESENTATION_STYLE_ASSIGNMENT((#243));
#243=SURFACE_STYLE_USAGE(.BOTH.,#244);
#244=SURFACE_SIDE_STYLE('',(#245));
#245=SURFACE_STYLE_FILL_AREA(#246);
#246=FILL_AREA_STYLE('',(#247));
#247=FILL_AREA_STYLE_COLOUR('',#248);
#248=COLOUR_RGB('',0.972549019607843,0.529411764705882,0.00392156862745098);
#249=MANIFOLD_SOLID_BREP('Part 26',#240);
#250=SHAPE_DEFINITION_REPRESENTATION(#424,#251);
#251=SHAPE_REPRESENTATION('Part 26',(#252),#419);
#252=AXIS2_PLACEMENT_3D('',#350,#278,#279);
#253=AXIS2_PLACEMENT_3D('',#351,#280,#281);
#254=AXIS2_PLACEMENT_3D('',#364,#288,#289);
#255=AXIS2_PLACEMENT_3D('',#377,#296,#297);
#256=AXIS2_PLACEMENT_3D('',#378,#298,#299);
#257=AXIS2_PLACEMENT_3D('',#379,#300,#301);
#258=AXIS2_PLACEMENT_3D('',#380,#302,#303);
#259=AXIS2_PLACEMENT_3D('',#381,#304,#305);
#260=AXIS2_PLACEMENT_3D('',#383,#306,#307);
#261=AXIS2_PLACEMENT_3D('',#388,#309,#310);
#262=AXIS2_PLACEMENT_3D('',#391,#312,#313);
#263=AXIS2_PLACEMENT_3D('',#396,#316,#317);
#264=AXIS2_PLACEMENT_3D('',#397,#318,#319);
#265=AXIS2_PLACEMENT_3D('',#398,#320,#321);
#266=AXIS2_PLACEMENT_3D('',#402,#324,#325);
#267=AXIS2_PLACEMENT_3D('',#403,#326,#327);
#268=AXIS2_PLACEMENT_3D('',#405,#328,#329);
#269=AXIS2_PLACEMENT_3D('',#408,#331,#332);
#270=AXIS2_PLACEMENT_3D('',#409,#333,#334);
#271=AXIS2_PLACEMENT_3D('',#410,#335,#336);
#272=AXIS2_PLACEMENT_3D('',#412,#338,#339);
#273=AXIS2_PLACEMENT_3D('',#413,#340,#341);
#274=AXIS2_PLACEMENT_3D('',#414,#342,#343);
#275=AXIS2_PLACEMENT_3D('',#415,#344,#345);
#276=AXIS2_PLACEMENT_3D('',#416,#346,#347);
#277=AXIS2_PLACEMENT_3D('',#417,#348,#349);
#278=DIRECTION('',(0.,0.,1.));
#279=DIRECTION('',(1.,0.,0.));
#280=DIRECTION('',(0.5,-0.866025403784438,0.));
#281=DIRECTION('',(0.866025403784438,0.5,0.));
#282=DIRECTION('',(0.866025403784439,0.5,0.));
#283=DIRECTION('',(0.,0.,-1.));
#284=DIRECTION('',(0.866025403784439,0.5,0.));
#285=DIRECTION('',(0.,0.,1.));
#286=DIRECTION('',(0.866025403784438,0.5,0.));
#287=DIRECTION('',(0.,0.,1.));
#288=DIRECTION('',(-1.,0.,0.));
#289=DIRECTION('',(0.,0.,1.));
#290=DIRECTION('',(0.,0.,-1.));
#291=DIRECTION('',(0.,-1.,0.));
#292=DIRECTION('',(0.,0.,1.));
#293=DIRECTION('',(0.,-1.,0.));
#294=DIRECTION('',(0.,0.,1.));
#295=DIRECTION('',(0.,-1.,0.));
#296=DIRECTION('',(0.,0.,-1.));
#297=DIRECTION('',(-1.,0.,0.));
#298=DIRECTION('',(0.,0.,-1.));
#299=DIRECTION('',(-1.,0.,0.));
#300=DIRECTION('',(0.,0.,-1.));
#301=DIRECTION('',(-1.,0.,0.));
#302=DIRECTION('',(0.,0.,1.));
#303=DIRECTION('',(1.,0.,0.));
#304=DIRECTION('',(0.,0.,1.));
#305=DIRECTION('',(1.,0.,0.));
#306=DIRECTION('',(0.,0.,1.));
#307=DIRECTION('',(1.,0.,0.));
#308=DIRECTION('',(0.299644787182946,-0.954050838013409,0.));
#309=DIRECTION('',(0.,0.,1.));
#310=DIRECTION('',(1.,0.,0.));
#311=DIRECTION('',(0.958184056204515,-0.286152606899645,0.));
#312=DIRECTION('',(0.,0.,1.));
#313=DIRECTION('',(1.,0.,0.));
#314=DIRECTION('',(0.,0.,1.));
#315=DIRECTION('',(0.,0.,1.));
#316=DIRECTION('',(0.,0.,1.));
#317=DIRECTION('',(1.,0.,0.));
#318=DIRECTION('',(0.,0.,1.));
#319=DIRECTION('',(1.,0.,0.));
#320=DIRECTION('',(0.954050838013409,0.299644787182946,0.));
#321=DIRECTION('',(-0.299644787182946,0.954050838013409,0.));
#322=DIRECTION('',(-0.299644787182946,0.954050838013409,0.));
#323=DIRECTION('',(0.,0.,1.));
#324=DIRECTION('',(0.,0.,1.));
#325=DIRECTION('',(1.,0.,0.));
#326=DIRECTION('',(0.,0.,1.));
#327=DIRECTION('',(1.,0.,0.));
#328=DIRECTION('',(0.,0.,1.));
#329=DIRECTION('',(1.,0.,0.));
#330=DIRECTION('',(-0.958184056204515,0.286152606899645,0.));
#331=DIRECTION('',(0.,0.,1.));
#332=DIRECTION('',(1.,0.,0.));
#333=DIRECTION('',(0.,0.,1.));
#334=DIRECTION('',(1.,0.,0.));
#335=DIRECTION('',(0.,0.,1.));
#336=DIRECTION('',(1.,0.,0.));
#337=DIRECTION('',(0.,0.,1.));
#338=DIRECTION('',(0.286152606899645,0.958184056204515,0.));
#339=DIRECTION('',(-0.958184056204515,0.286152606899645,0.));
#340=DIRECTION('',(0.,0.,1.));
#341=DIRECTION('',(1.,0.,0.));
#342=DIRECTION('',(0.,0.,-1.));
#343=DIRECTION('',(-1.,0.,0.));
#344=DIRECTION('',(0.,0.,-1.));
#345=DIRECTION('',(-1.,0.,0.));
#346=DIRECTION('',(0.,0.,-1.));
#347=DIRECTION('',(-1.,0.,0.));
#348=DIRECTION('',(0.,0.,-1.));
#349=DIRECTION('',(-1.,0.,0.));
#350=CARTESIAN_POINT('',(0.,0.,0.));
#351=CARTESIAN_POINT('',(-0.0622041468609056,-0.0359135809348548,0.130982));
#352=CARTESIAN_POINT('',(-0.0689552180600871,-0.0398113137090206,0.1237183558));
#353=CARTESIAN_POINT('',(-0.0742922099581693,-0.0428926274180412,0.1237183558));
#354=CARTESIAN_POINT('',(-0.0636182261620049,-0.03673,0.1237183558));
#355=CARTESIAN_POINT('',(-0.0636182261620049,-0.03673,0.127406924962997));
#356=CARTESIAN_POINT('',(-0.0636182261620049,-0.03673,0.128374080762997));
#357=CARTESIAN_POINT('',(-0.0689552180600871,-0.0398113137090206,0.128374080762997));
#358=CARTESIAN_POINT('',(-0.0616276490520238,-0.0355807397697097,0.128374080762997));
#359=CARTESIAN_POINT('',(-0.0616276490520238,-0.0355807397697097,0.130982));
#360=CARTESIAN_POINT('',(-0.0616276490520238,-0.0355807397697097,0.133984));
#361=CARTESIAN_POINT('',(-0.0622041468609056,-0.0359135809348548,0.133984));
#362=CARTESIAN_POINT('',(-0.0742922099581693,-0.0428926274180412,0.133984));
#363=CARTESIAN_POINT('',(-0.0742922099581693,-0.0428926274180412,0.130982));
#364=CARTESIAN_POINT('',(0.,0.0718271618697097,0.130982));
#365=CARTESIAN_POINT('',(0.,0.07346,0.127406924962997));
#366=CARTESIAN_POINT('',(0.,0.07346,0.1237183558));
#367=CARTESIAN_POINT('',(0.,0.07346,0.128374080762996));
#368=CARTESIAN_POINT('',(0.,0.0796226274180412,0.1237183558));
#369=CARTESIAN_POINT('',(0.,0.0857852548360825,0.1237183558));
#370=CARTESIAN_POINT('',(0.,0.0857852548360825,0.130982));
#371=CARTESIAN_POINT('',(0.,0.0857852548360825,0.133984));
#372=CARTESIAN_POINT('',(0.,0.0718271618697097,0.133984));
#373=CARTESIAN_POINT('',(4.35738390702699E-18,0.0711614795394194,0.133984));
#374=CARTESIAN_POINT('',(4.35738390702699E-18,0.0711614795394194,0.130982));
#375=CARTESIAN_POINT('',(4.35738390702699E-18,0.0711614795394194,0.128374080762997));
#376=CARTESIAN_POINT('',(0.,0.0796226274180412,0.128374080762997));
#377=CARTESIAN_POINT('',(0.,-0.07213,0.128374080762997));
#378=CARTESIAN_POINT('',(-2.42861286636753E-17,2.0832928289249E-18,0.128374080762997));
#379=CARTESIAN_POINT('',(0.,-1.7347234759768E-18,0.128374080762997));
#380=CARTESIAN_POINT('',(0.0889968151033209,1.11022302462516E-16,0.130984));
#381=CARTESIAN_POINT('',(-0.0433405914483697,0.0338613811429112,0.130984));
#382=CARTESIAN_POINT('',(-0.0413405914483697,0.0338613811429112,0.130984));
#383=CARTESIAN_POINT('',(0.,-1.7347234759768E-18,0.130984));
#384=CARTESIAN_POINT('',(-0.0363333326569663,0.0611869684514393,0.130984));
#385=CARTESIAN_POINT('',(-0.0659000414544403,0.0268540631291105,0.130984));
#386=CARTESIAN_POINT('',(-0.0329715843227262,0.050483365543394,0.130984));
#387=CARTESIAN_POINT('',(-0.029609835988486,0.0397797626353486,0.130984));
#388=CARTESIAN_POINT('',(-2.42861286636753E-17,2.0832928289249E-18,0.130984));
#389=CARTESIAN_POINT('',(-0.045090794117673,0.020639578203717,0.130984));
#390=CARTESIAN_POINT('',(-0.0554954177860567,0.0237468206664137,0.130984));
#391=CARTESIAN_POINT('',(9.11758585742072E-18,-1.83880688453541E-16,0.130982));
#392=CARTESIAN_POINT('',(-0.0363333326569664,0.0611869684514393,0.130982));
#393=CARTESIAN_POINT('',(-0.0363333326569664,0.0611869684514393,0.133984));
#394=CARTESIAN_POINT('',(-0.0659000414544403,0.0268540631291105,0.130982));
#395=CARTESIAN_POINT('',(-0.0659000414544403,0.0268540631291105,0.133984));
#396=CARTESIAN_POINT('',(0.,-1.7347234759768E-18,0.133984));
#397=CARTESIAN_POINT('',(9.11758585742072E-18,-1.83880688453541E-16,0.133984));
#398=CARTESIAN_POINT('',(-0.0329715843227262,0.050483365543394,0.130982));
#399=CARTESIAN_POINT('',(-0.0329715843227262,0.050483365543394,0.133984));
#400=CARTESIAN_POINT('',(-0.029609835988486,0.0397797626353486,0.133984));
#401=CARTESIAN_POINT('',(-0.029609835988486,0.0397797626353486,0.130982));
#402=CARTESIAN_POINT('',(-0.0433405914483697,0.0338613811429112,0.130982));
#403=CARTESIAN_POINT('',(-0.0433405914483697,0.0338613811429112,0.133984));
#404=CARTESIAN_POINT('',(-0.0413405914483697,0.0338613811429112,0.133984));
#405=CARTESIAN_POINT('',(-2.77555756156289E-17,1.38777878078145E-17,0.133984));
#406=CARTESIAN_POINT('',(-0.0554954177860567,0.0237468206664137,0.133984));
#407=CARTESIAN_POINT('',(-0.045090794117673,0.020639578203717,0.133984));
#408=CARTESIAN_POINT('',(-2.42861286636753E-17,2.0832928289249E-18,0.133984));
#409=CARTESIAN_POINT('',(-2.42861286636753E-17,2.0832928289249E-18,0.133984));
#410=CARTESIAN_POINT('',(-2.42861286636753E-17,2.0832928289249E-18,0.130982));
#411=CARTESIAN_POINT('',(-0.045090794117673,0.020639578203717,0.130982));
#412=CARTESIAN_POINT('',(-0.0554954177860567,0.0237468206664137,0.130982));
#413=CARTESIAN_POINT('',(-2.42861286636753E-17,2.0832928289249E-18,0.130982));
#414=CARTESIAN_POINT('',(-2.42861286636753E-17,2.0832928289249E-18,0.1237183558));
#415=CARTESIAN_POINT('',(0.,-0.0797372864364906,0.1237183558));
#416=CARTESIAN_POINT('',(-2.42861286636753E-17,2.0832928289249E-18,0.1237183558));
#417=CARTESIAN_POINT('',(-2.42861286636753E-17,2.0832928289249E-18,0.127406924962997));
#418=MECHANICAL_DESIGN_GEOMETRIC_PRESENTATION_REPRESENTATION('',(#241),
#419);
#419=(
GEOMETRIC_REPRESENTATION_CONTEXT(3)
GLOBAL_UNCERTAINTY_ASSIGNED_CONTEXT((#420))
GLOBAL_UNIT_ASSIGNED_CONTEXT((#423,#422,#421))
REPRESENTATION_CONTEXT('Part 26','TOP_LEVEL_ASSEMBLY_PART')
);
#420=UNCERTAINTY_MEASURE_WITH_UNIT(LENGTH_MEASURE(1.E-8),#423,
'DISTANCE_ACCURACY_VALUE','Maximum Tolerance applied to model');
#421=(
NAMED_UNIT(*)
SI_UNIT($,.STERADIAN.)
SOLID_ANGLE_UNIT()
);
#422=(
NAMED_UNIT(*)
PLANE_ANGLE_UNIT()
SI_UNIT($,.RADIAN.)
);
#423=(
LENGTH_UNIT()
NAMED_UNIT(*)
SI_UNIT($,.METRE.)
);
#424=PRODUCT_DEFINITION_SHAPE('','',#425);
#425=PRODUCT_DEFINITION('','',#427,#426);
#426=PRODUCT_DEFINITION_CONTEXT('',#433,'design');
#427=PRODUCT_DEFINITION_FORMATION_WITH_SPECIFIED_SOURCE('','',#429,
 .NOT_KNOWN.);
#428=PRODUCT_RELATED_PRODUCT_CATEGORY('','',(#429));
#429=PRODUCT('Part 26','Part 26','Part 26',(#431));
#430=PRODUCT_CATEGORY('','');
#431=PRODUCT_CONTEXT('',#433,'mechanical');
#432=APPLICATION_PROTOCOL_DEFINITION('international standard',
'ap242_managed_model_based_3d_engineering',2011,#433);
#433=APPLICATION_CONTEXT('managed model based 3d engineering');
ENDSEC;
END-ISO-10303-21;
