ISO-10303-21;
HEADER;
/* Generated by software containing ST-Developer
 * from STEP Tools, Inc. (www.steptools.com) 
 */
/* OPTION: using custom renumber hook */

FILE_DESCRIPTION(
/* description */ ('STEP AP242',
'CAx-IF Rec.Pracs.---Representation and Presentation of Product Manufa
cturing Information (PMI)---4.0---2014-10-13',
'CAx-IF Rec.Pracs.---3D Tessellated Geometry---0.4---2014-09-14','2;1'),

/* implementation_level */ '2;1');

FILE_NAME(
/* name */ '68fb1dc134e6012dc82c9427',
/* time_stamp */ '2025-10-24T06:33:37Z',
/* author */ (''),
/* organization */ (''),
/* preprocessor_version */ 'ST-DEVELOPER v20',
/* originating_system */ 'ONSHAPE BY PTC INC, 1.205',
/* authorisation */ '  ');

FILE_SCHEMA (('AP242_MANAGED_MODEL_BASED_3D_ENGINEERING_MIM_LF { 1 0 10303 442 1 1 4 }'));
ENDSEC;

DATA;
#10=SHAPE_REPRESENTATION_RELATIONSHIP('','',#415,#11);
#11=ADVANCED_BREP_SHAPE_REPRESENTATION('',(#413),#741);
#12=CYLINDRICAL_SURFACE('',#428,0.0724928442);
#13=CYLINDRICAL_SURFACE('',#445,0.0869817286729813);
#14=CYLINDRICAL_SURFACE('',#449,0.0882888844729813);
#15=CYLINDRICAL_SURFACE('',#450,0.0717671558);
#16=CYLINDRICAL_SURFACE('',#460,0.0045112);
#17=CYLINDRICAL_SURFACE('',#464,0.0045112);
#18=CYLINDRICAL_SURFACE('',#468,0.0045112);
#19=CYLINDRICAL_SURFACE('',#472,0.0045112);
#20=LINE('',#622,#44);
#21=LINE('',#642,#45);
#22=LINE('',#647,#46);
#23=LINE('',#667,#47);
#24=LINE('',#672,#48);
#25=LINE('',#677,#49);
#26=LINE('',#679,#50);
#27=LINE('',#683,#51);
#28=LINE('',#688,#52);
#29=LINE('',#689,#53);
#30=LINE('',#691,#54);
#31=LINE('',#692,#55);
#32=LINE('',#694,#56);
#33=LINE('',#698,#57);
#34=LINE('',#699,#58);
#35=LINE('',#703,#59);
#36=LINE('',#704,#60);
#37=LINE('',#708,#61);
#38=LINE('',#709,#62);
#39=LINE('',#713,#63);
#40=LINE('',#714,#64);
#41=LINE('',#718,#65);
#42=LINE('',#720,#66);
#43=LINE('',#721,#67);
#44=VECTOR('',#481,1.);
#45=VECTOR('',#500,1.);
#46=VECTOR('',#505,1.);
#47=VECTOR('',#524,1.);
#48=VECTOR('',#529,1.);
#49=VECTOR('',#538,1.);
#50=VECTOR('',#541,1.);
#51=VECTOR('',#544,1.);
#52=VECTOR('',#549,1.);
#53=VECTOR('',#550,1.);
#54=VECTOR('',#553,1.);
#55=VECTOR('',#554,1.);
#56=VECTOR('',#557,1.);
#57=VECTOR('',#560,1.);
#58=VECTOR('',#561,1.);
#59=VECTOR('',#564,1.);
#60=VECTOR('',#565,1.);
#61=VECTOR('',#568,1.);
#62=VECTOR('',#569,1.);
#63=VECTOR('',#572,1.);
#64=VECTOR('',#573,1.);
#65=VECTOR('',#576,1.);
#66=VECTOR('',#579,1.);
#67=VECTOR('',#580,1.);
#68=ORIENTED_EDGE('',*,*,#196,.T.);
#69=ORIENTED_EDGE('',*,*,#197,.T.);
#70=ORIENTED_EDGE('',*,*,#198,.F.);
#71=ORIENTED_EDGE('',*,*,#199,.F.);
#72=ORIENTED_EDGE('',*,*,#200,.F.);
#73=ORIENTED_EDGE('',*,*,#201,.F.);
#74=ORIENTED_EDGE('',*,*,#202,.F.);
#75=ORIENTED_EDGE('',*,*,#203,.F.);
#76=ORIENTED_EDGE('',*,*,#204,.F.);
#77=ORIENTED_EDGE('',*,*,#205,.F.);
#78=ORIENTED_EDGE('',*,*,#206,.F.);
#79=ORIENTED_EDGE('',*,*,#207,.T.);
#80=ORIENTED_EDGE('',*,*,#208,.T.);
#81=ORIENTED_EDGE('',*,*,#209,.T.);
#82=ORIENTED_EDGE('',*,*,#210,.F.);
#83=ORIENTED_EDGE('',*,*,#211,.F.);
#84=ORIENTED_EDGE('',*,*,#212,.F.);
#85=ORIENTED_EDGE('',*,*,#213,.F.);
#86=ORIENTED_EDGE('',*,*,#214,.F.);
#87=ORIENTED_EDGE('',*,*,#215,.F.);
#88=ORIENTED_EDGE('',*,*,#216,.F.);
#89=ORIENTED_EDGE('',*,*,#217,.F.);
#90=ORIENTED_EDGE('',*,*,#218,.F.);
#91=ORIENTED_EDGE('',*,*,#219,.T.);
#92=ORIENTED_EDGE('',*,*,#220,.F.);
#93=ORIENTED_EDGE('',*,*,#221,.T.);
#94=ORIENTED_EDGE('',*,*,#218,.T.);
#95=ORIENTED_EDGE('',*,*,#222,.F.);
#96=ORIENTED_EDGE('',*,*,#216,.T.);
#97=ORIENTED_EDGE('',*,*,#223,.F.);
#98=ORIENTED_EDGE('',*,*,#214,.T.);
#99=ORIENTED_EDGE('',*,*,#224,.F.);
#100=ORIENTED_EDGE('',*,*,#212,.T.);
#101=ORIENTED_EDGE('',*,*,#225,.F.);
#102=ORIENTED_EDGE('',*,*,#210,.T.);
#103=ORIENTED_EDGE('',*,*,#226,.T.);
#104=ORIENTED_EDGE('',*,*,#220,.T.);
#105=ORIENTED_EDGE('',*,*,#227,.T.);
#106=ORIENTED_EDGE('',*,*,#228,.F.);
#107=ORIENTED_EDGE('',*,*,#229,.T.);
#108=ORIENTED_EDGE('',*,*,#230,.F.);
#109=ORIENTED_EDGE('',*,*,#231,.T.);
#110=ORIENTED_EDGE('',*,*,#228,.T.);
#111=ORIENTED_EDGE('',*,*,#232,.T.);
#112=ORIENTED_EDGE('',*,*,#230,.T.);
#113=ORIENTED_EDGE('',*,*,#233,.T.);
#114=ORIENTED_EDGE('',*,*,#196,.F.);
#115=ORIENTED_EDGE('',*,*,#234,.T.);
#116=ORIENTED_EDGE('',*,*,#235,.F.);
#117=ORIENTED_EDGE('',*,*,#236,.F.);
#118=ORIENTED_EDGE('',*,*,#237,.F.);
#119=ORIENTED_EDGE('',*,*,#206,.T.);
#120=ORIENTED_EDGE('',*,*,#238,.F.);
#121=ORIENTED_EDGE('',*,*,#239,.F.);
#122=ORIENTED_EDGE('',*,*,#240,.F.);
#123=ORIENTED_EDGE('',*,*,#204,.T.);
#124=ORIENTED_EDGE('',*,*,#241,.F.);
#125=ORIENTED_EDGE('',*,*,#242,.F.);
#126=ORIENTED_EDGE('',*,*,#243,.F.);
#127=ORIENTED_EDGE('',*,*,#202,.T.);
#128=ORIENTED_EDGE('',*,*,#244,.F.);
#129=ORIENTED_EDGE('',*,*,#245,.F.);
#130=ORIENTED_EDGE('',*,*,#246,.F.);
#131=ORIENTED_EDGE('',*,*,#200,.T.);
#132=ORIENTED_EDGE('',*,*,#247,.F.);
#133=ORIENTED_EDGE('',*,*,#248,.F.);
#134=ORIENTED_EDGE('',*,*,#249,.F.);
#135=ORIENTED_EDGE('',*,*,#198,.T.);
#136=ORIENTED_EDGE('',*,*,#208,.F.);
#137=ORIENTED_EDGE('',*,*,#250,.T.);
#138=ORIENTED_EDGE('',*,*,#236,.T.);
#139=ORIENTED_EDGE('',*,*,#251,.T.);
#140=ORIENTED_EDGE('',*,*,#211,.T.);
#141=ORIENTED_EDGE('',*,*,#252,.F.);
#142=ORIENTED_EDGE('',*,*,#248,.T.);
#143=ORIENTED_EDGE('',*,*,#253,.F.);
#144=ORIENTED_EDGE('',*,*,#249,.T.);
#145=ORIENTED_EDGE('',*,*,#252,.T.);
#146=ORIENTED_EDGE('',*,*,#225,.T.);
#147=ORIENTED_EDGE('',*,*,#253,.T.);
#148=ORIENTED_EDGE('',*,*,#247,.T.);
#149=ORIENTED_EDGE('',*,*,#199,.T.);
#150=ORIENTED_EDGE('',*,*,#213,.T.);
#151=ORIENTED_EDGE('',*,*,#254,.F.);
#152=ORIENTED_EDGE('',*,*,#245,.T.);
#153=ORIENTED_EDGE('',*,*,#255,.F.);
#154=ORIENTED_EDGE('',*,*,#246,.T.);
#155=ORIENTED_EDGE('',*,*,#254,.T.);
#156=ORIENTED_EDGE('',*,*,#224,.T.);
#157=ORIENTED_EDGE('',*,*,#255,.T.);
#158=ORIENTED_EDGE('',*,*,#244,.T.);
#159=ORIENTED_EDGE('',*,*,#201,.T.);
#160=ORIENTED_EDGE('',*,*,#215,.T.);
#161=ORIENTED_EDGE('',*,*,#256,.F.);
#162=ORIENTED_EDGE('',*,*,#242,.T.);
#163=ORIENTED_EDGE('',*,*,#257,.F.);
#164=ORIENTED_EDGE('',*,*,#243,.T.);
#165=ORIENTED_EDGE('',*,*,#256,.T.);
#166=ORIENTED_EDGE('',*,*,#223,.T.);
#167=ORIENTED_EDGE('',*,*,#257,.T.);
#168=ORIENTED_EDGE('',*,*,#241,.T.);
#169=ORIENTED_EDGE('',*,*,#203,.T.);
#170=ORIENTED_EDGE('',*,*,#217,.T.);
#171=ORIENTED_EDGE('',*,*,#258,.F.);
#172=ORIENTED_EDGE('',*,*,#239,.T.);
#173=ORIENTED_EDGE('',*,*,#259,.F.);
#174=ORIENTED_EDGE('',*,*,#240,.T.);
#175=ORIENTED_EDGE('',*,*,#258,.T.);
#176=ORIENTED_EDGE('',*,*,#222,.T.);
#177=ORIENTED_EDGE('',*,*,#259,.T.);
#178=ORIENTED_EDGE('',*,*,#238,.T.);
#179=ORIENTED_EDGE('',*,*,#205,.T.);
#180=ORIENTED_EDGE('',*,*,#209,.F.);
#181=ORIENTED_EDGE('',*,*,#251,.F.);
#182=ORIENTED_EDGE('',*,*,#235,.T.);
#183=ORIENTED_EDGE('',*,*,#197,.F.);
#184=ORIENTED_EDGE('',*,*,#233,.F.);
#185=ORIENTED_EDGE('',*,*,#232,.F.);
#186=ORIENTED_EDGE('',*,*,#227,.F.);
#187=ORIENTED_EDGE('',*,*,#226,.F.);
#188=ORIENTED_EDGE('',*,*,#229,.F.);
#189=ORIENTED_EDGE('',*,*,#231,.F.);
#190=ORIENTED_EDGE('',*,*,#234,.F.);
#191=ORIENTED_EDGE('',*,*,#207,.F.);
#192=ORIENTED_EDGE('',*,*,#237,.T.);
#193=ORIENTED_EDGE('',*,*,#250,.F.);
#194=ORIENTED_EDGE('',*,*,#219,.F.);
#195=ORIENTED_EDGE('',*,*,#221,.F.);
#196=EDGE_CURVE('',#260,#261,#300,.T.);
#197=EDGE_CURVE('',#261,#262,#20,.T.);
#198=EDGE_CURVE('',#263,#262,#301,.T.);
#199=EDGE_CURVE('',#264,#263,#302,.F.);
#200=EDGE_CURVE('',#265,#264,#303,.T.);
#201=EDGE_CURVE('',#266,#265,#304,.F.);
#202=EDGE_CURVE('',#267,#266,#305,.T.);
#203=EDGE_CURVE('',#268,#267,#306,.F.);
#204=EDGE_CURVE('',#269,#268,#307,.T.);
#205=EDGE_CURVE('',#270,#269,#308,.F.);
#206=EDGE_CURVE('',#271,#270,#309,.T.);
#207=EDGE_CURVE('',#271,#260,#21,.T.);
#208=EDGE_CURVE('',#272,#273,#310,.T.);
#209=EDGE_CURVE('',#273,#274,#22,.T.);
#210=EDGE_CURVE('',#275,#274,#311,.T.);
#211=EDGE_CURVE('',#276,#275,#312,.T.);
#212=EDGE_CURVE('',#277,#276,#313,.T.);
#213=EDGE_CURVE('',#278,#277,#314,.T.);
#214=EDGE_CURVE('',#279,#278,#315,.T.);
#215=EDGE_CURVE('',#280,#279,#316,.T.);
#216=EDGE_CURVE('',#281,#280,#317,.T.);
#217=EDGE_CURVE('',#282,#281,#318,.T.);
#218=EDGE_CURVE('',#283,#282,#319,.T.);
#219=EDGE_CURVE('',#283,#272,#23,.F.);
#220=EDGE_CURVE('',#284,#285,#320,.T.);
#221=EDGE_CURVE('',#284,#283,#24,.T.);
#222=EDGE_CURVE('',#281,#282,#321,.T.);
#223=EDGE_CURVE('',#279,#280,#322,.T.);
#224=EDGE_CURVE('',#277,#278,#323,.T.);
#225=EDGE_CURVE('',#275,#276,#324,.T.);
#226=EDGE_CURVE('',#274,#285,#25,.T.);
#227=EDGE_CURVE('',#285,#286,#26,.F.);
#228=EDGE_CURVE('',#287,#286,#325,.T.);
#229=EDGE_CURVE('',#287,#284,#27,.T.);
#230=EDGE_CURVE('',#288,#289,#326,.T.);
#231=EDGE_CURVE('',#288,#287,#28,.T.);
#232=EDGE_CURVE('',#286,#289,#29,.T.);
#233=EDGE_CURVE('',#289,#261,#30,.T.);
#234=EDGE_CURVE('',#260,#288,#31,.F.);
#235=EDGE_CURVE('',#290,#262,#32,.T.);
#236=EDGE_CURVE('',#291,#290,#327,.T.);
#237=EDGE_CURVE('',#271,#291,#33,.F.);
#238=EDGE_CURVE('',#292,#270,#34,.F.);
#239=EDGE_CURVE('',#293,#292,#328,.T.);
#240=EDGE_CURVE('',#269,#293,#35,.T.);
#241=EDGE_CURVE('',#294,#268,#36,.F.);
#242=EDGE_CURVE('',#295,#294,#329,.T.);
#243=EDGE_CURVE('',#267,#295,#37,.T.);
#244=EDGE_CURVE('',#296,#266,#38,.F.);
#245=EDGE_CURVE('',#297,#296,#330,.T.);
#246=EDGE_CURVE('',#265,#297,#39,.T.);
#247=EDGE_CURVE('',#298,#264,#40,.F.);
#248=EDGE_CURVE('',#299,#298,#331,.T.);
#249=EDGE_CURVE('',#263,#299,#41,.T.);
#250=EDGE_CURVE('',#272,#291,#42,.T.);
#251=EDGE_CURVE('',#290,#273,#43,.T.);
#252=EDGE_CURVE('',#299,#275,#332,.T.);
#253=EDGE_CURVE('',#276,#298,#333,.T.);
#254=EDGE_CURVE('',#297,#277,#334,.T.);
#255=EDGE_CURVE('',#278,#296,#335,.T.);
#256=EDGE_CURVE('',#295,#279,#336,.T.);
#257=EDGE_CURVE('',#280,#294,#337,.T.);
#258=EDGE_CURVE('',#293,#281,#338,.T.);
#259=EDGE_CURVE('',#282,#292,#339,.T.);
#260=VERTEX_POINT('',#620);
#261=VERTEX_POINT('',#621);
#262=VERTEX_POINT('',#623);
#263=VERTEX_POINT('',#625);
#264=VERTEX_POINT('',#627);
#265=VERTEX_POINT('',#629);
#266=VERTEX_POINT('',#631);
#267=VERTEX_POINT('',#633);
#268=VERTEX_POINT('',#635);
#269=VERTEX_POINT('',#637);
#270=VERTEX_POINT('',#639);
#271=VERTEX_POINT('',#641);
#272=VERTEX_POINT('',#645);
#273=VERTEX_POINT('',#646);
#274=VERTEX_POINT('',#648);
#275=VERTEX_POINT('',#650);
#276=VERTEX_POINT('',#652);
#277=VERTEX_POINT('',#654);
#278=VERTEX_POINT('',#656);
#279=VERTEX_POINT('',#658);
#280=VERTEX_POINT('',#660);
#281=VERTEX_POINT('',#662);
#282=VERTEX_POINT('',#664);
#283=VERTEX_POINT('',#666);
#284=VERTEX_POINT('',#670);
#285=VERTEX_POINT('',#671);
#286=VERTEX_POINT('',#680);
#287=VERTEX_POINT('',#682);
#288=VERTEX_POINT('',#686);
#289=VERTEX_POINT('',#687);
#290=VERTEX_POINT('',#695);
#291=VERTEX_POINT('',#697);
#292=VERTEX_POINT('',#700);
#293=VERTEX_POINT('',#702);
#294=VERTEX_POINT('',#705);
#295=VERTEX_POINT('',#707);
#296=VERTEX_POINT('',#710);
#297=VERTEX_POINT('',#712);
#298=VERTEX_POINT('',#715);
#299=VERTEX_POINT('',#717);
#300=CIRCLE('',#418,0.0882888844729813);
#301=CIRCLE('',#419,0.0717671558);
#302=CIRCLE('',#420,0.0045112);
#303=CIRCLE('',#421,0.0717671558);
#304=CIRCLE('',#422,0.0045112);
#305=CIRCLE('',#423,0.0717671558);
#306=CIRCLE('',#424,0.0045112);
#307=CIRCLE('',#425,0.0717671558);
#308=CIRCLE('',#426,0.0045112);
#309=CIRCLE('',#427,0.0717671558);
#310=CIRCLE('',#429,0.0724928442);
#311=CIRCLE('',#430,0.0724928442);
#312=CIRCLE('',#431,0.0724928442);
#313=CIRCLE('',#432,0.0724928442);
#314=CIRCLE('',#433,0.0724928442);
#315=CIRCLE('',#434,0.0724928442);
#316=CIRCLE('',#435,0.0724928442);
#317=CIRCLE('',#436,0.0724928442);
#318=CIRCLE('',#437,0.0724928442);
#319=CIRCLE('',#438,0.0724928442);
#320=CIRCLE('',#440,0.0869817286729813);
#321=CIRCLE('',#441,0.0045112);
#322=CIRCLE('',#442,0.0045112);
#323=CIRCLE('',#443,0.0045112);
#324=CIRCLE('',#444,0.0045112);
#325=CIRCLE('',#446,0.0869817286729813);
#326=CIRCLE('',#448,0.0882888844729813);
#327=CIRCLE('',#451,0.0717671558);
#328=CIRCLE('',#452,0.0717671558);
#329=CIRCLE('',#453,0.0717671558);
#330=CIRCLE('',#454,0.0717671558);
#331=CIRCLE('',#455,0.0717671558);
#332=CIRCLE('',#458,0.0045112);
#333=CIRCLE('',#459,0.0045112);
#334=CIRCLE('',#462,0.0045112);
#335=CIRCLE('',#463,0.0045112);
#336=CIRCLE('',#466,0.0045112);
#337=CIRCLE('',#467,0.0045112);
#338=CIRCLE('',#470,0.0045112);
#339=CIRCLE('',#471,0.0045112);
#340=EDGE_LOOP('',(#68,#69,#70,#71,#72,#73,#74,#75,#76,#77,#78,#79));
#341=EDGE_LOOP('',(#80,#81,#82,#83,#84,#85,#86,#87,#88,#89,#90,#91));
#342=EDGE_LOOP('',(#92,#93,#94,#95,#96,#97,#98,#99,#100,#101,#102,#103));
#343=EDGE_LOOP('',(#104,#105,#106,#107));
#344=EDGE_LOOP('',(#108,#109,#110,#111));
#345=EDGE_LOOP('',(#112,#113,#114,#115));
#346=EDGE_LOOP('',(#116,#117,#118,#119,#120,#121,#122,#123,#124,#125,#126,
#127,#128,#129,#130,#131,#132,#133,#134,#135));
#347=EDGE_LOOP('',(#136,#137,#138,#139));
#348=EDGE_LOOP('',(#140,#141,#142,#143));
#349=EDGE_LOOP('',(#144,#145,#146,#147,#148,#149));
#350=EDGE_LOOP('',(#150,#151,#152,#153));
#351=EDGE_LOOP('',(#154,#155,#156,#157,#158,#159));
#352=EDGE_LOOP('',(#160,#161,#162,#163));
#353=EDGE_LOOP('',(#164,#165,#166,#167,#168,#169));
#354=EDGE_LOOP('',(#170,#171,#172,#173));
#355=EDGE_LOOP('',(#174,#175,#176,#177,#178,#179));
#356=EDGE_LOOP('',(#180,#181,#182,#183,#184,#185,#186,#187));
#357=EDGE_LOOP('',(#188,#189,#190,#191,#192,#193,#194,#195));
#358=FACE_BOUND('',#340,.T.);
#359=FACE_BOUND('',#341,.T.);
#360=FACE_BOUND('',#342,.T.);
#361=FACE_BOUND('',#343,.T.);
#362=FACE_BOUND('',#344,.T.);
#363=FACE_BOUND('',#345,.T.);
#364=FACE_BOUND('',#346,.T.);
#365=FACE_BOUND('',#347,.T.);
#366=FACE_BOUND('',#348,.T.);
#367=FACE_BOUND('',#349,.T.);
#368=FACE_BOUND('',#350,.T.);
#369=FACE_BOUND('',#351,.T.);
#370=FACE_BOUND('',#352,.T.);
#371=FACE_BOUND('',#353,.T.);
#372=FACE_BOUND('',#354,.T.);
#373=FACE_BOUND('',#355,.T.);
#374=FACE_BOUND('',#356,.T.);
#375=FACE_BOUND('',#357,.T.);
#376=PLANE('',#417);
#377=PLANE('',#439);
#378=PLANE('',#447);
#379=PLANE('',#456);
#380=PLANE('',#457);
#381=PLANE('',#461);
#382=PLANE('',#465);
#383=PLANE('',#469);
#384=PLANE('',#473);
#385=PLANE('',#474);
#386=ADVANCED_FACE('',(#358),#376,.F.);
#387=ADVANCED_FACE('',(#359),#12,.T.);
#388=ADVANCED_FACE('',(#360),#377,.F.);
#389=ADVANCED_FACE('',(#361),#13,.F.);
#390=ADVANCED_FACE('',(#362),#378,.F.);
#391=ADVANCED_FACE('',(#363),#14,.T.);
#392=ADVANCED_FACE('',(#364),#15,.F.);
#393=ADVANCED_FACE('',(#365),#379,.F.);
#394=ADVANCED_FACE('',(#366),#380,.F.);
#395=ADVANCED_FACE('',(#367),#16,.F.);
#396=ADVANCED_FACE('',(#368),#381,.F.);
#397=ADVANCED_FACE('',(#369),#17,.F.);
#398=ADVANCED_FACE('',(#370),#382,.F.);
#399=ADVANCED_FACE('',(#371),#18,.F.);
#400=ADVANCED_FACE('',(#372),#383,.F.);
#401=ADVANCED_FACE('',(#373),#19,.F.);
#402=ADVANCED_FACE('',(#374),#384,.F.);
#403=ADVANCED_FACE('',(#375),#385,.F.);
#404=CLOSED_SHELL('',(#386,#387,#388,#389,#390,#391,#392,#393,#394,#395,
#396,#397,#398,#399,#400,#401,#402,#403));
#405=STYLED_ITEM('',(#406),#413);
#406=PRESENTATION_STYLE_ASSIGNMENT((#407));
#407=SURFACE_STYLE_USAGE(.BOTH.,#408);
#408=SURFACE_SIDE_STYLE('',(#409));
#409=SURFACE_STYLE_FILL_AREA(#410);
#410=FILL_AREA_STYLE('',(#411));
#411=FILL_AREA_STYLE_COLOUR('',#412);
#412=COLOUR_RGB('',0.768627450980392,0.886274509803922,0.952941176470588);
#413=MANIFOLD_SOLID_BREP('Part 30',#404);
#414=SHAPE_DEFINITION_REPRESENTATION(#746,#415);
#415=SHAPE_REPRESENTATION('Part 30',(#416),#741);
#416=AXIS2_PLACEMENT_3D('',#617,#475,#476);
#417=AXIS2_PLACEMENT_3D('',#618,#477,#478);
#418=AXIS2_PLACEMENT_3D('',#619,#479,#480);
#419=AXIS2_PLACEMENT_3D('',#624,#482,#483);
#420=AXIS2_PLACEMENT_3D('',#626,#484,#485);
#421=AXIS2_PLACEMENT_3D('',#628,#486,#487);
#422=AXIS2_PLACEMENT_3D('',#630,#488,#489);
#423=AXIS2_PLACEMENT_3D('',#632,#490,#491);
#424=AXIS2_PLACEMENT_3D('',#634,#492,#493);
#425=AXIS2_PLACEMENT_3D('',#636,#494,#495);
#426=AXIS2_PLACEMENT_3D('',#638,#496,#497);
#427=AXIS2_PLACEMENT_3D('',#640,#498,#499);
#428=AXIS2_PLACEMENT_3D('',#643,#501,#502);
#429=AXIS2_PLACEMENT_3D('',#644,#503,#504);
#430=AXIS2_PLACEMENT_3D('',#649,#506,#507);
#431=AXIS2_PLACEMENT_3D('',#651,#508,#509);
#432=AXIS2_PLACEMENT_3D('',#653,#510,#511);
#433=AXIS2_PLACEMENT_3D('',#655,#512,#513);
#434=AXIS2_PLACEMENT_3D('',#657,#514,#515);
#435=AXIS2_PLACEMENT_3D('',#659,#516,#517);
#436=AXIS2_PLACEMENT_3D('',#661,#518,#519);
#437=AXIS2_PLACEMENT_3D('',#663,#520,#521);
#438=AXIS2_PLACEMENT_3D('',#665,#522,#523);
#439=AXIS2_PLACEMENT_3D('',#668,#525,#526);
#440=AXIS2_PLACEMENT_3D('',#669,#527,#528);
#441=AXIS2_PLACEMENT_3D('',#673,#530,#531);
#442=AXIS2_PLACEMENT_3D('',#674,#532,#533);
#443=AXIS2_PLACEMENT_3D('',#675,#534,#535);
#444=AXIS2_PLACEMENT_3D('',#676,#536,#537);
#445=AXIS2_PLACEMENT_3D('',#678,#539,#540);
#446=AXIS2_PLACEMENT_3D('',#681,#542,#543);
#447=AXIS2_PLACEMENT_3D('',#684,#545,#546);
#448=AXIS2_PLACEMENT_3D('',#685,#547,#548);
#449=AXIS2_PLACEMENT_3D('',#690,#551,#552);
#450=AXIS2_PLACEMENT_3D('',#693,#555,#556);
#451=AXIS2_PLACEMENT_3D('',#696,#558,#559);
#452=AXIS2_PLACEMENT_3D('',#701,#562,#563);
#453=AXIS2_PLACEMENT_3D('',#706,#566,#567);
#454=AXIS2_PLACEMENT_3D('',#711,#570,#571);
#455=AXIS2_PLACEMENT_3D('',#716,#574,#575);
#456=AXIS2_PLACEMENT_3D('',#719,#577,#578);
#457=AXIS2_PLACEMENT_3D('',#722,#581,#582);
#458=AXIS2_PLACEMENT_3D('',#723,#583,#584);
#459=AXIS2_PLACEMENT_3D('',#724,#585,#586);
#460=AXIS2_PLACEMENT_3D('',#725,#587,#588);
#461=AXIS2_PLACEMENT_3D('',#726,#589,#590);
#462=AXIS2_PLACEMENT_3D('',#727,#591,#592);
#463=AXIS2_PLACEMENT_3D('',#728,#593,#594);
#464=AXIS2_PLACEMENT_3D('',#729,#595,#596);
#465=AXIS2_PLACEMENT_3D('',#730,#597,#598);
#466=AXIS2_PLACEMENT_3D('',#731,#599,#600);
#467=AXIS2_PLACEMENT_3D('',#732,#601,#602);
#468=AXIS2_PLACEMENT_3D('',#733,#603,#604);
#469=AXIS2_PLACEMENT_3D('',#734,#605,#606);
#470=AXIS2_PLACEMENT_3D('',#735,#607,#608);
#471=AXIS2_PLACEMENT_3D('',#736,#609,#610);
#472=AXIS2_PLACEMENT_3D('',#737,#611,#612);
#473=AXIS2_PLACEMENT_3D('',#738,#613,#614);
#474=AXIS2_PLACEMENT_3D('',#739,#615,#616);
#475=DIRECTION('',(0.,0.,1.));
#476=DIRECTION('',(1.,0.,0.));
#477=DIRECTION('',(0.,0.,1.));
#478=DIRECTION('',(1.,0.,0.));
#479=DIRECTION('',(0.,0.,-1.));
#480=DIRECTION('',(-1.,0.,0.));
#481=DIRECTION('',(-0.38268343236509,0.923879532511287,0.));
#482=DIRECTION('',(0.,0.,-1.));
#483=DIRECTION('',(-1.,0.,0.));
#484=DIRECTION('',(0.,0.,1.));
#485=DIRECTION('',(1.,0.,0.));
#486=DIRECTION('',(0.,0.,-1.));
#487=DIRECTION('',(-1.,0.,0.));
#488=DIRECTION('',(0.,0.,1.));
#489=DIRECTION('',(1.,0.,0.));
#490=DIRECTION('',(0.,0.,-1.));
#491=DIRECTION('',(-1.,0.,0.));
#492=DIRECTION('',(0.,0.,1.));
#493=DIRECTION('',(1.,0.,0.));
#494=DIRECTION('',(0.,0.,-1.));
#495=DIRECTION('',(-1.,0.,0.));
#496=DIRECTION('',(0.,0.,1.));
#497=DIRECTION('',(1.,0.,0.));
#498=DIRECTION('',(0.,0.,-1.));
#499=DIRECTION('',(-1.,0.,0.));
#500=DIRECTION('',(-0.38268343236509,0.923879532511287,0.));
#501=DIRECTION('',(0.,0.,-1.));
#502=DIRECTION('',(-1.,0.,0.));
#503=DIRECTION('',(0.,0.,-1.));
#504=DIRECTION('',(-1.,0.,0.));
#505=DIRECTION('',(0.,0.,-1.));
#506=DIRECTION('',(0.,0.,-1.));
#507=DIRECTION('',(-1.,0.,0.));
#508=DIRECTION('',(0.,0.,-1.));
#509=DIRECTION('',(-1.,0.,0.));
#510=DIRECTION('',(0.,0.,-1.));
#511=DIRECTION('',(-1.,0.,0.));
#512=DIRECTION('',(0.,0.,-1.));
#513=DIRECTION('',(-1.,0.,0.));
#514=DIRECTION('',(0.,0.,-1.));
#515=DIRECTION('',(-1.,0.,0.));
#516=DIRECTION('',(0.,0.,-1.));
#517=DIRECTION('',(-1.,0.,0.));
#518=DIRECTION('',(0.,0.,-1.));
#519=DIRECTION('',(-1.,0.,0.));
#520=DIRECTION('',(0.,0.,-1.));
#521=DIRECTION('',(-1.,0.,0.));
#522=DIRECTION('',(0.,0.,-1.));
#523=DIRECTION('',(-1.,0.,0.));
#524=DIRECTION('',(0.,0.,-1.));
#525=DIRECTION('',(0.,0.,-1.));
#526=DIRECTION('',(-1.,0.,0.));
#527=DIRECTION('',(0.,0.,-1.));
#528=DIRECTION('',(-1.,0.,0.));
#529=DIRECTION('',(0.38268343236509,-0.923879532511287,0.));
#530=DIRECTION('',(0.,0.,1.));
#531=DIRECTION('',(1.,0.,0.));
#532=DIRECTION('',(0.,0.,1.));
#533=DIRECTION('',(1.,0.,0.));
#534=DIRECTION('',(0.,0.,1.));
#535=DIRECTION('',(1.,0.,0.));
#536=DIRECTION('',(0.,0.,1.));
#537=DIRECTION('',(1.,0.,0.));
#538=DIRECTION('',(0.38268343236509,-0.923879532511287,0.));
#539=DIRECTION('',(0.,0.,-1.));
#540=DIRECTION('',(-1.,0.,0.));
#541=DIRECTION('',(0.,0.,-1.));
#542=DIRECTION('',(0.,0.,-1.));
#543=DIRECTION('',(-1.,0.,0.));
#544=DIRECTION('',(0.,0.,-1.));
#545=DIRECTION('',(0.,0.,-1.));
#546=DIRECTION('',(-1.,0.,0.));
#547=DIRECTION('',(0.,0.,-1.));
#548=DIRECTION('',(-1.,0.,0.));
#549=DIRECTION('',(0.38268343236509,-0.923879532511287,0.));
#550=DIRECTION('',(0.38268343236509,-0.923879532511287,0.));
#551=DIRECTION('',(0.,0.,-1.));
#552=DIRECTION('',(-1.,0.,0.));
#553=DIRECTION('',(0.,0.,-1.));
#554=DIRECTION('',(0.,0.,-1.));
#555=DIRECTION('',(0.,0.,-1.));
#556=DIRECTION('',(-1.,0.,0.));
#557=DIRECTION('',(0.,0.,-1.));
#558=DIRECTION('',(0.,0.,-1.));
#559=DIRECTION('',(-1.,0.,0.));
#560=DIRECTION('',(0.,0.,-1.));
#561=DIRECTION('',(0.,0.,1.));
#562=DIRECTION('',(0.,0.,1.));
#563=DIRECTION('',(1.,0.,0.));
#564=DIRECTION('',(0.,0.,1.));
#565=DIRECTION('',(0.,0.,1.));
#566=DIRECTION('',(0.,0.,1.));
#567=DIRECTION('',(1.,0.,0.));
#568=DIRECTION('',(0.,0.,1.));
#569=DIRECTION('',(0.,0.,1.));
#570=DIRECTION('',(0.,0.,1.));
#571=DIRECTION('',(1.,0.,0.));
#572=DIRECTION('',(0.,0.,1.));
#573=DIRECTION('',(0.,0.,1.));
#574=DIRECTION('',(0.,0.,1.));
#575=DIRECTION('',(1.,0.,0.));
#576=DIRECTION('',(0.,0.,1.));
#577=DIRECTION('',(0.,0.,-1.));
#578=DIRECTION('',(-1.,0.,0.));
#579=DIRECTION('',(0.38268343236509,-0.923879532511287,0.));
#580=DIRECTION('',(0.38268343236509,-0.923879532511287,0.));
#581=DIRECTION('',(0.,0.,1.));
#582=DIRECTION('',(1.,0.,0.));
#583=DIRECTION('',(0.,0.,1.));
#584=DIRECTION('',(1.,0.,0.));
#585=DIRECTION('',(0.,0.,1.));
#586=DIRECTION('',(1.,0.,0.));
#587=DIRECTION('',(0.,0.,1.));
#588=DIRECTION('',(1.,0.,0.));
#589=DIRECTION('',(0.,0.,1.));
#590=DIRECTION('',(1.,0.,0.));
#591=DIRECTION('',(0.,0.,1.));
#592=DIRECTION('',(1.,0.,0.));
#593=DIRECTION('',(0.,0.,1.));
#594=DIRECTION('',(1.,0.,0.));
#595=DIRECTION('',(0.,0.,1.));
#596=DIRECTION('',(1.,0.,0.));
#597=DIRECTION('',(0.,0.,1.));
#598=DIRECTION('',(1.,0.,0.));
#599=DIRECTION('',(0.,0.,1.));
#600=DIRECTION('',(1.,0.,0.));
#601=DIRECTION('',(0.,0.,1.));
#602=DIRECTION('',(1.,0.,0.));
#603=DIRECTION('',(0.,0.,1.));
#604=DIRECTION('',(1.,0.,0.));
#605=DIRECTION('',(0.,0.,1.));
#606=DIRECTION('',(1.,0.,0.));
#607=DIRECTION('',(0.,0.,1.));
#608=DIRECTION('',(1.,0.,0.));
#609=DIRECTION('',(0.,0.,1.));
#610=DIRECTION('',(1.,0.,0.));
#611=DIRECTION('',(0.,0.,1.));
#612=DIRECTION('',(1.,0.,0.));
#613=DIRECTION('',(0.923879532511287,0.38268343236509,2.45681174236573E-17));
#614=DIRECTION('',(-0.38268343236509,0.923879532511287,-1.01764474388536E-17));
#615=DIRECTION('',(0.923879532511287,0.38268343236509,2.45681174236573E-17));
#616=DIRECTION('',(-0.38268343236509,0.923879532511287,-1.01764474388536E-17));
#617=CARTESIAN_POINT('',(0.,0.,0.));
#618=CARTESIAN_POINT('',(0.,-0.0800280201364906,0.1175512));
#619=CARTESIAN_POINT('',(-2.42861286636753E-17,2.0832928289249E-18,0.1175512));
#620=CARTESIAN_POINT('',(-0.0337866933498054,0.081568293312841,0.1175512));
#621=CARTESIAN_POINT('',(0.0337866933498054,-0.0815682933128409,0.1175512));
#622=CARTESIAN_POINT('',(0.0282941778617231,-0.0683081879299683,0.1175512));
#623=CARTESIAN_POINT('',(0.0274641015126242,-0.0663042063501686,0.1175512));
#624=CARTESIAN_POINT('',(-2.42861286636753E-17,2.0832928289249E-18,0.1175512));
#625=CARTESIAN_POINT('',(0.0485245341714959,-0.0528762161568014,0.1175512));
#626=CARTESIAN_POINT('',(0.0530330085889911,-0.0530330085889911,0.1175512));
#627=CARTESIAN_POINT('',(0.0528762161568014,-0.048524534171496,0.1175512));
#628=CARTESIAN_POINT('',(-2.42861286636753E-17,2.0832928289249E-18,0.1175512));
#629=CARTESIAN_POINT('',(0.0717011581745431,-0.00307710384137681,0.1175512));
#630=CARTESIAN_POINT('',(0.075,-6.66266257189155E-18,0.1175512));
#631=CARTESIAN_POINT('',(0.0717011581745431,0.0030771038413768,0.1175512));
#632=CARTESIAN_POINT('',(-2.42861286636753E-17,2.0832928289249E-18,0.1175512));
#633=CARTESIAN_POINT('',(0.0528762161568014,0.0485245341714959,0.1175512));
#634=CARTESIAN_POINT('',(0.0530330085889911,0.0530330085889911,0.1175512));
#635=CARTESIAN_POINT('',(0.0485245341714959,0.0528762161568014,0.1175512));
#636=CARTESIAN_POINT('',(-2.42861286636753E-17,2.0832928289249E-18,0.1175512));
#637=CARTESIAN_POINT('',(0.00307710384137683,0.0717011581745431,0.1175512));
#638=CARTESIAN_POINT('',(0.,0.075,0.1175512));
#639=CARTESIAN_POINT('',(-0.00307710384137683,0.0717011581745431,0.1175512));
#640=CARTESIAN_POINT('',(-2.42861286636753E-17,2.0832928289249E-18,0.1175512));
#641=CARTESIAN_POINT('',(-0.0274641015126242,0.0663042063501687,0.1175512));
#642=CARTESIAN_POINT('',(0.0282941778617231,-0.0683081879299683,0.1175512));
#643=CARTESIAN_POINT('',(-2.42861286636753E-17,2.0832928289249E-18,0.1188));
#644=CARTESIAN_POINT('',(-2.42861286636753E-17,2.0832928289249E-18,0.127406924962997));
#645=CARTESIAN_POINT('',(-0.0277418104403637,0.0669746550099095,0.127406924962997));
#646=CARTESIAN_POINT('',(0.0277418104403637,-0.0669746550099095,0.127406924962997));
#647=CARTESIAN_POINT('',(0.0277418104403637,-0.0669746550099095,0.1188));
#648=CARTESIAN_POINT('',(0.0277418104403637,-0.0669746550099095,0.1217512));
#649=CARTESIAN_POINT('',(-2.42861286636753E-17,2.0832928289249E-18,0.1217512));
#650=CARTESIAN_POINT('',(0.0485875278606213,-0.0538002285924402,0.1217512));
#651=CARTESIAN_POINT('',(-2.42861286636753E-17,2.0832928289249E-18,0.1217512));
#652=CARTESIAN_POINT('',(0.0538002285924402,-0.0485875278606213,0.1217512));
#653=CARTESIAN_POINT('',(-2.42861286636753E-17,2.0832928289249E-18,0.1217512));
#654=CARTESIAN_POINT('',(0.0723990768984364,-0.00368593603576524,0.1217512));
#655=CARTESIAN_POINT('',(-2.42861286636753E-17,2.0832928289249E-18,0.1217512));
#656=CARTESIAN_POINT('',(0.0723990768984364,0.00368593603576526,0.1217512));
#657=CARTESIAN_POINT('',(-2.42861286636753E-17,2.0832928289249E-18,0.1217512));
#658=CARTESIAN_POINT('',(0.0538002285924402,0.0485875278606213,0.1217512));
#659=CARTESIAN_POINT('',(-2.42861286636753E-17,2.0832928289249E-18,0.1217512));
#660=CARTESIAN_POINT('',(0.0485875278606212,0.0538002285924402,0.1217512));
#661=CARTESIAN_POINT('',(-2.42861286636753E-17,2.0832928289249E-18,0.1217512));
#662=CARTESIAN_POINT('',(0.00368593603576524,0.0723990768984365,0.1217512));
#663=CARTESIAN_POINT('',(-2.42861286636753E-17,2.0832928289249E-18,0.1217512));
#664=CARTESIAN_POINT('',(-0.00368593603576528,0.0723990768984364,0.1217512));
#665=CARTESIAN_POINT('',(-2.42861286636753E-17,2.0832928289249E-18,0.1217512));
#666=CARTESIAN_POINT('',(-0.0277418104403637,0.0669746550099095,0.1217512));
#667=CARTESIAN_POINT('',(-0.0277418104403637,0.0669746550099095,0.1188));
#668=CARTESIAN_POINT('',(0.,-0.0797372864364906,0.1217512));
#669=CARTESIAN_POINT('',(-2.42861286636753E-17,2.0832928289249E-18,0.1217512));
#670=CARTESIAN_POINT('',(-0.0332864664816254,0.0803606388234175,0.1217512));
#671=CARTESIAN_POINT('',(0.0332864664816254,-0.0803606388234175,0.1217512));
#672=CARTESIAN_POINT('',(0.0281913879763283,-0.0680600311945736,0.1217512));
#673=CARTESIAN_POINT('',(0.,0.075,0.1217512));
#674=CARTESIAN_POINT('',(0.0530330085889911,0.0530330085889911,0.1217512));
#675=CARTESIAN_POINT('',(0.075,-6.66266257189155E-18,0.1217512));
#676=CARTESIAN_POINT('',(0.0530330085889911,-0.0530330085889911,0.1217512));
#677=CARTESIAN_POINT('',(0.0281913879763283,-0.0680600311945736,0.1217512));
#678=CARTESIAN_POINT('',(-2.42861286636753E-17,2.0832928289249E-18,0.1188));
#679=CARTESIAN_POINT('',(0.0332864664816254,-0.0803606388234175,0.1188));
#680=CARTESIAN_POINT('',(0.0332864664816254,-0.0803606388234175,0.127406924962997));
#681=CARTESIAN_POINT('',(-2.42861286636753E-17,2.0832928289249E-18,0.127406924962997));
#682=CARTESIAN_POINT('',(-0.0332864664816254,0.0803606388234175,0.127406924962997));
#683=CARTESIAN_POINT('',(-0.0332864664816254,0.0803606388234175,0.1188));
#684=CARTESIAN_POINT('',(0.,-0.0876353065729813,0.127406924962997));
#685=CARTESIAN_POINT('',(-2.42861286636753E-17,2.0832928289249E-18,0.127406924962997));
#686=CARTESIAN_POINT('',(-0.0337866933498054,0.081568293312841,0.127406924962997));
#687=CARTESIAN_POINT('',(0.0337866933498054,-0.0815682933128409,0.127406924962997));
#688=CARTESIAN_POINT('',(0.0309837597745585,-0.0748014130610492,0.127406924962997));
#689=CARTESIAN_POINT('',(0.0309837597745585,-0.0748014130610492,0.127406924962997));
#690=CARTESIAN_POINT('',(-2.42861286636753E-17,2.0832928289249E-18,0.1188));
#691=CARTESIAN_POINT('',(0.0337866933498054,-0.0815682933128409,0.1188));
#692=CARTESIAN_POINT('',(-0.0337866933498054,0.081568293312841,0.1188));
#693=CARTESIAN_POINT('',(-2.42861286636753E-17,2.0832928289249E-18,0.1188));
#694=CARTESIAN_POINT('',(0.0274641015126242,-0.0663042063501686,0.1188));
#695=CARTESIAN_POINT('',(0.0274641015126242,-0.0663042063501686,0.127406924962997));
#696=CARTESIAN_POINT('',(-2.42861286636753E-17,2.0832928289249E-18,0.127406924962997));
#697=CARTESIAN_POINT('',(-0.0274641015126242,0.0663042063501687,0.127406924962997));
#698=CARTESIAN_POINT('',(-0.0274641015126242,0.0663042063501687,0.1188));
#699=CARTESIAN_POINT('',(-0.00307710384137682,0.0717011581745431,0.1196512));
#700=CARTESIAN_POINT('',(-0.0030771038413769,0.0717011581745431,0.1217512));
#701=CARTESIAN_POINT('',(-2.42861286636753E-17,2.0832928289249E-18,0.1217512));
#702=CARTESIAN_POINT('',(0.0030771038413769,0.0717011581745431,0.1217512));
#703=CARTESIAN_POINT('',(0.00307710384137681,0.0717011581745431,0.1196512));
#704=CARTESIAN_POINT('',(0.0485245341714959,0.0528762161568014,0.1196512));
#705=CARTESIAN_POINT('',(0.0485245341714959,0.0528762161568014,0.1217512));
#706=CARTESIAN_POINT('',(-2.42861286636753E-17,2.0832928289249E-18,0.1217512));
#707=CARTESIAN_POINT('',(0.0528762161568014,0.0485245341714959,0.1217512));
#708=CARTESIAN_POINT('',(0.0528762161568014,0.0485245341714959,0.1196512));
#709=CARTESIAN_POINT('',(0.0717011581745431,0.00307710384137679,0.1196512));
#710=CARTESIAN_POINT('',(0.0717011581745431,0.00307710384137685,0.1217512));
#711=CARTESIAN_POINT('',(-2.42861286636753E-17,2.0832928289249E-18,0.1217512));
#712=CARTESIAN_POINT('',(0.0717011581745431,-0.00307710384137686,0.1217512));
#713=CARTESIAN_POINT('',(0.0717011581745431,-0.0030771038413768,0.1196512));
#714=CARTESIAN_POINT('',(0.0528762161568013,-0.048524534171496,0.1196512));
#715=CARTESIAN_POINT('',(0.0528762161568014,-0.048524534171496,0.1217512));
#716=CARTESIAN_POINT('',(-2.42861286636753E-17,2.0832928289249E-18,0.1217512));
#717=CARTESIAN_POINT('',(0.0485245341714959,-0.0528762161568015,0.1217512));
#718=CARTESIAN_POINT('',(0.0485245341714959,-0.0528762161568014,0.1196512));
#719=CARTESIAN_POINT('',(0.,-0.07213,0.127406924962997));
#720=CARTESIAN_POINT('',(0.0255018060634928,-0.0615668060634928,0.127406924962997));
#721=CARTESIAN_POINT('',(0.0255018060634928,-0.0615668060634928,0.127406924962997));
#722=CARTESIAN_POINT('',(-2.77555756156289E-17,0.,0.1217512));
#723=CARTESIAN_POINT('',(0.0530330085889911,-0.0530330085889911,0.1217512));
#724=CARTESIAN_POINT('',(0.0530330085889911,-0.0530330085889911,0.1217512));
#725=CARTESIAN_POINT('',(0.0530330085889911,-0.0530330085889911,0.1175492));
#726=CARTESIAN_POINT('',(-2.77555756156289E-17,0.,0.1217512));
#727=CARTESIAN_POINT('',(0.075,-6.66266257189155E-18,0.1217512));
#728=CARTESIAN_POINT('',(0.075,-6.66266257189155E-18,0.1217512));
#729=CARTESIAN_POINT('',(0.075,-6.66266257189155E-18,0.1175492));
#730=CARTESIAN_POINT('',(-2.77555756156289E-17,0.,0.1217512));
#731=CARTESIAN_POINT('',(0.0530330085889911,0.0530330085889911,0.1217512));
#732=CARTESIAN_POINT('',(0.0530330085889911,0.0530330085889911,0.1217512));
#733=CARTESIAN_POINT('',(0.0530330085889911,0.0530330085889911,0.1175492));
#734=CARTESIAN_POINT('',(-2.77555756156289E-17,0.,0.1217512));
#735=CARTESIAN_POINT('',(0.,0.075,0.1217512));
#736=CARTESIAN_POINT('',(0.,0.075,0.1217512));
#737=CARTESIAN_POINT('',(0.,0.075,0.1175492));
#738=CARTESIAN_POINT('',(-3.46944695195361E-18,4.62592926927149E-18,0.0811674666666669));
#739=CARTESIAN_POINT('',(-3.46944695195361E-18,4.62592926927149E-18,0.0811674666666669));
#740=MECHANICAL_DESIGN_GEOMETRIC_PRESENTATION_REPRESENTATION('',(#405),
#741);
#741=(
GEOMETRIC_REPRESENTATION_CONTEXT(3)
GLOBAL_UNCERTAINTY_ASSIGNED_CONTEXT((#742))
GLOBAL_UNIT_ASSIGNED_CONTEXT((#745,#744,#743))
REPRESENTATION_CONTEXT('Part 30','TOP_LEVEL_ASSEMBLY_PART')
);
#742=UNCERTAINTY_MEASURE_WITH_UNIT(LENGTH_MEASURE(1.E-8),#745,
'DISTANCE_ACCURACY_VALUE','Maximum Tolerance applied to model');
#743=(
NAMED_UNIT(*)
SI_UNIT($,.STERADIAN.)
SOLID_ANGLE_UNIT()
);
#744=(
NAMED_UNIT(*)
PLANE_ANGLE_UNIT()
SI_UNIT($,.RADIAN.)
);
#745=(
LENGTH_UNIT()
NAMED_UNIT(*)
SI_UNIT($,.METRE.)
);
#746=PRODUCT_DEFINITION_SHAPE('','',#747);
#747=PRODUCT_DEFINITION('','',#749,#748);
#748=PRODUCT_DEFINITION_CONTEXT('',#755,'design');
#749=PRODUCT_DEFINITION_FORMATION_WITH_SPECIFIED_SOURCE('','',#751,
 .NOT_KNOWN.);
#750=PRODUCT_RELATED_PRODUCT_CATEGORY('','',(#751));
#751=PRODUCT('Part 30','Part 30','Part 30',(#753));
#752=PRODUCT_CATEGORY('','');
#753=PRODUCT_CONTEXT('',#755,'mechanical');
#754=APPLICATION_PROTOCOL_DEFINITION('international standard',
'ap242_managed_model_based_3d_engineering',2011,#755);
#755=APPLICATION_CONTEXT('managed model based 3d engineering');
ENDSEC;
END-ISO-10303-21;
