ISO-10303-21;
HEADER;
/* Generated by software containing ST-Developer
 * from STEP Tools, Inc. (www.steptools.com) 
 */
/* OPTION: using custom renumber hook */

FILE_DESCRIPTION(
/* description */ ('STEP AP242',
'CAx-IF Rec.Pracs.---Representation and Presentation of Product Manufa
cturing Information (PMI)---4.0---2014-10-13',
'CAx-IF Rec.Pracs.---3D Tessellated Geometry---0.4---2014-09-14','2;1'),

/* implementation_level */ '2;1');

FILE_NAME(
/* name */ '68fb1dad34e6012dc82c941a',
/* time_stamp */ '2025-10-24T06:33:17Z',
/* author */ (''),
/* organization */ (''),
/* preprocessor_version */ 'ST-DEVELOPER v20',
/* originating_system */ 'ONSHAPE BY PTC INC, 1.205',
/* authorisation */ '  ');

FILE_SCHEMA (('AP242_MANAGED_MODEL_BASED_3D_ENGINEERING_MIM_LF { 1 0 10303 442 1 1 4 }'));
ENDSEC;

DATA;
#10=SHAPE_REPRESENTATION_RELATIONSHIP('','',#415,#11);
#11=ADVANCED_BREP_SHAPE_REPRESENTATION('',(#413),#741);
#12=CYLINDRICAL_SURFACE('',#423,0.0045112);
#13=CYLINDRICAL_SURFACE('',#431,0.0045112);
#14=CYLINDRICAL_SURFACE('',#439,0.0045112);
#15=CYLINDRICAL_SURFACE('',#447,0.0045112);
#16=CYLINDRICAL_SURFACE('',#450,0.0882888844729813);
#17=CYLINDRICAL_SURFACE('',#455,0.0869817286729813);
#18=CYLINDRICAL_SURFACE('',#466,0.0717671558);
#19=CYLINDRICAL_SURFACE('',#472,0.0724928442);
#20=CIRCLE('',#419,0.0724928442);
#21=CIRCLE('',#420,0.0045112);
#22=CIRCLE('',#421,0.0717671558);
#23=CIRCLE('',#422,0.0045112);
#24=CIRCLE('',#424,0.0045112);
#25=CIRCLE('',#425,0.0045112);
#26=CIRCLE('',#427,0.0724928442);
#27=CIRCLE('',#428,0.0045112);
#28=CIRCLE('',#429,0.0717671558);
#29=CIRCLE('',#430,0.0045112);
#30=CIRCLE('',#432,0.0045112);
#31=CIRCLE('',#433,0.0045112);
#32=CIRCLE('',#435,0.0724928442);
#33=CIRCLE('',#436,0.0045112);
#34=CIRCLE('',#437,0.0717671558);
#35=CIRCLE('',#438,0.0045112);
#36=CIRCLE('',#440,0.0045112);
#37=CIRCLE('',#441,0.0045112);
#38=CIRCLE('',#443,0.0724928442);
#39=CIRCLE('',#444,0.0045112);
#40=CIRCLE('',#445,0.0717671558);
#41=CIRCLE('',#446,0.0045112);
#42=CIRCLE('',#448,0.0045112);
#43=CIRCLE('',#449,0.0045112);
#44=CIRCLE('',#451,0.0882888844729813);
#45=CIRCLE('',#452,0.0882888844729813);
#46=CIRCLE('',#454,0.0869817286729813);
#47=CIRCLE('',#456,0.0869817286729813);
#48=CIRCLE('',#458,0.0724928442);
#49=CIRCLE('',#459,0.0724928442);
#50=CIRCLE('',#460,0.0724928442);
#51=CIRCLE('',#461,0.0724928442);
#52=CIRCLE('',#462,0.0724928442);
#53=CIRCLE('',#464,0.0724928442);
#54=CIRCLE('',#465,0.0717671558);
#55=CIRCLE('',#467,0.0717671558);
#56=CIRCLE('',#468,0.0717671558);
#57=CIRCLE('',#469,0.0717671558);
#58=CIRCLE('',#470,0.0717671558);
#59=CIRCLE('',#471,0.0717671558);
#60=ORIENTED_EDGE('',*,*,#188,.T.);
#61=ORIENTED_EDGE('',*,*,#189,.T.);
#62=ORIENTED_EDGE('',*,*,#190,.T.);
#63=ORIENTED_EDGE('',*,*,#191,.T.);
#64=ORIENTED_EDGE('',*,*,#192,.F.);
#65=ORIENTED_EDGE('',*,*,#193,.T.);
#66=ORIENTED_EDGE('',*,*,#194,.T.);
#67=ORIENTED_EDGE('',*,*,#195,.T.);
#68=ORIENTED_EDGE('',*,*,#196,.T.);
#69=ORIENTED_EDGE('',*,*,#197,.F.);
#70=ORIENTED_EDGE('',*,*,#198,.T.);
#71=ORIENTED_EDGE('',*,*,#199,.F.);
#72=ORIENTED_EDGE('',*,*,#200,.T.);
#73=ORIENTED_EDGE('',*,*,#197,.T.);
#74=ORIENTED_EDGE('',*,*,#201,.T.);
#75=ORIENTED_EDGE('',*,*,#199,.T.);
#76=ORIENTED_EDGE('',*,*,#202,.T.);
#77=ORIENTED_EDGE('',*,*,#203,.T.);
#78=ORIENTED_EDGE('',*,*,#204,.T.);
#79=ORIENTED_EDGE('',*,*,#205,.F.);
#80=ORIENTED_EDGE('',*,*,#206,.T.);
#81=ORIENTED_EDGE('',*,*,#207,.F.);
#82=ORIENTED_EDGE('',*,*,#208,.T.);
#83=ORIENTED_EDGE('',*,*,#205,.T.);
#84=ORIENTED_EDGE('',*,*,#209,.T.);
#85=ORIENTED_EDGE('',*,*,#207,.T.);
#86=ORIENTED_EDGE('',*,*,#210,.T.);
#87=ORIENTED_EDGE('',*,*,#211,.T.);
#88=ORIENTED_EDGE('',*,*,#212,.T.);
#89=ORIENTED_EDGE('',*,*,#213,.F.);
#90=ORIENTED_EDGE('',*,*,#214,.T.);
#91=ORIENTED_EDGE('',*,*,#215,.F.);
#92=ORIENTED_EDGE('',*,*,#216,.T.);
#93=ORIENTED_EDGE('',*,*,#213,.T.);
#94=ORIENTED_EDGE('',*,*,#217,.T.);
#95=ORIENTED_EDGE('',*,*,#215,.T.);
#96=ORIENTED_EDGE('',*,*,#218,.T.);
#97=ORIENTED_EDGE('',*,*,#219,.T.);
#98=ORIENTED_EDGE('',*,*,#220,.T.);
#99=ORIENTED_EDGE('',*,*,#221,.F.);
#100=ORIENTED_EDGE('',*,*,#222,.T.);
#101=ORIENTED_EDGE('',*,*,#223,.F.);
#102=ORIENTED_EDGE('',*,*,#224,.T.);
#103=ORIENTED_EDGE('',*,*,#221,.T.);
#104=ORIENTED_EDGE('',*,*,#225,.T.);
#105=ORIENTED_EDGE('',*,*,#223,.T.);
#106=ORIENTED_EDGE('',*,*,#226,.T.);
#107=ORIENTED_EDGE('',*,*,#227,.T.);
#108=ORIENTED_EDGE('',*,*,#228,.F.);
#109=ORIENTED_EDGE('',*,*,#229,.T.);
#110=ORIENTED_EDGE('',*,*,#194,.F.);
#111=ORIENTED_EDGE('',*,*,#230,.F.);
#112=ORIENTED_EDGE('',*,*,#195,.F.);
#113=ORIENTED_EDGE('',*,*,#229,.F.);
#114=ORIENTED_EDGE('',*,*,#231,.F.);
#115=ORIENTED_EDGE('',*,*,#232,.T.);
#116=ORIENTED_EDGE('',*,*,#233,.F.);
#117=ORIENTED_EDGE('',*,*,#234,.T.);
#118=ORIENTED_EDGE('',*,*,#188,.F.);
#119=ORIENTED_EDGE('',*,*,#232,.F.);
#120=ORIENTED_EDGE('',*,*,#189,.F.);
#121=ORIENTED_EDGE('',*,*,#234,.F.);
#122=ORIENTED_EDGE('',*,*,#235,.F.);
#123=ORIENTED_EDGE('',*,*,#236,.T.);
#124=ORIENTED_EDGE('',*,*,#225,.F.);
#125=ORIENTED_EDGE('',*,*,#237,.T.);
#126=ORIENTED_EDGE('',*,*,#217,.F.);
#127=ORIENTED_EDGE('',*,*,#238,.T.);
#128=ORIENTED_EDGE('',*,*,#209,.F.);
#129=ORIENTED_EDGE('',*,*,#239,.T.);
#130=ORIENTED_EDGE('',*,*,#201,.F.);
#131=ORIENTED_EDGE('',*,*,#240,.T.);
#132=ORIENTED_EDGE('',*,*,#191,.F.);
#133=ORIENTED_EDGE('',*,*,#241,.F.);
#134=ORIENTED_EDGE('',*,*,#242,.F.);
#135=ORIENTED_EDGE('',*,*,#243,.T.);
#136=ORIENTED_EDGE('',*,*,#243,.F.);
#137=ORIENTED_EDGE('',*,*,#244,.T.);
#138=ORIENTED_EDGE('',*,*,#245,.T.);
#139=ORIENTED_EDGE('',*,*,#226,.F.);
#140=ORIENTED_EDGE('',*,*,#222,.F.);
#141=ORIENTED_EDGE('',*,*,#224,.F.);
#142=ORIENTED_EDGE('',*,*,#246,.T.);
#143=ORIENTED_EDGE('',*,*,#218,.F.);
#144=ORIENTED_EDGE('',*,*,#214,.F.);
#145=ORIENTED_EDGE('',*,*,#216,.F.);
#146=ORIENTED_EDGE('',*,*,#247,.T.);
#147=ORIENTED_EDGE('',*,*,#210,.F.);
#148=ORIENTED_EDGE('',*,*,#206,.F.);
#149=ORIENTED_EDGE('',*,*,#208,.F.);
#150=ORIENTED_EDGE('',*,*,#248,.T.);
#151=ORIENTED_EDGE('',*,*,#202,.F.);
#152=ORIENTED_EDGE('',*,*,#198,.F.);
#153=ORIENTED_EDGE('',*,*,#200,.F.);
#154=ORIENTED_EDGE('',*,*,#249,.T.);
#155=ORIENTED_EDGE('',*,*,#192,.T.);
#156=ORIENTED_EDGE('',*,*,#250,.F.);
#157=ORIENTED_EDGE('',*,*,#241,.T.);
#158=ORIENTED_EDGE('',*,*,#190,.F.);
#159=ORIENTED_EDGE('',*,*,#240,.F.);
#160=ORIENTED_EDGE('',*,*,#196,.F.);
#161=ORIENTED_EDGE('',*,*,#239,.F.);
#162=ORIENTED_EDGE('',*,*,#204,.F.);
#163=ORIENTED_EDGE('',*,*,#238,.F.);
#164=ORIENTED_EDGE('',*,*,#212,.F.);
#165=ORIENTED_EDGE('',*,*,#237,.F.);
#166=ORIENTED_EDGE('',*,*,#220,.F.);
#167=ORIENTED_EDGE('',*,*,#236,.F.);
#168=ORIENTED_EDGE('',*,*,#251,.F.);
#169=ORIENTED_EDGE('',*,*,#230,.T.);
#170=ORIENTED_EDGE('',*,*,#193,.F.);
#171=ORIENTED_EDGE('',*,*,#249,.F.);
#172=ORIENTED_EDGE('',*,*,#203,.F.);
#173=ORIENTED_EDGE('',*,*,#248,.F.);
#174=ORIENTED_EDGE('',*,*,#211,.F.);
#175=ORIENTED_EDGE('',*,*,#247,.F.);
#176=ORIENTED_EDGE('',*,*,#219,.F.);
#177=ORIENTED_EDGE('',*,*,#246,.F.);
#178=ORIENTED_EDGE('',*,*,#227,.F.);
#179=ORIENTED_EDGE('',*,*,#245,.F.);
#180=ORIENTED_EDGE('',*,*,#250,.T.);
#181=ORIENTED_EDGE('',*,*,#235,.T.);
#182=ORIENTED_EDGE('',*,*,#233,.T.);
#183=ORIENTED_EDGE('',*,*,#231,.T.);
#184=ORIENTED_EDGE('',*,*,#228,.T.);
#185=ORIENTED_EDGE('',*,*,#251,.T.);
#186=ORIENTED_EDGE('',*,*,#244,.F.);
#187=ORIENTED_EDGE('',*,*,#242,.T.);
#188=EDGE_CURVE('',#252,#253,#292,.T.);
#189=EDGE_CURVE('',#253,#254,#293,.T.);
#190=EDGE_CURVE('',#254,#255,#294,.F.);
#191=EDGE_CURVE('',#255,#256,#295,.T.);
#192=EDGE_CURVE('',#257,#256,#296,.F.);
#193=EDGE_CURVE('',#257,#258,#297,.T.);
#194=EDGE_CURVE('',#258,#259,#298,.F.);
#195=EDGE_CURVE('',#259,#252,#299,.T.);
#196=EDGE_CURVE('',#260,#261,#20,.T.);
#197=EDGE_CURVE('',#262,#261,#21,.T.);
#198=EDGE_CURVE('',#262,#263,#22,.T.);
#199=EDGE_CURVE('',#260,#263,#23,.T.);
#200=EDGE_CURVE('',#264,#262,#300,.T.);
#201=EDGE_CURVE('',#261,#260,#24,.T.);
#202=EDGE_CURVE('',#263,#265,#301,.F.);
#203=EDGE_CURVE('',#265,#264,#25,.F.);
#204=EDGE_CURVE('',#266,#267,#26,.T.);
#205=EDGE_CURVE('',#268,#267,#27,.T.);
#206=EDGE_CURVE('',#268,#269,#28,.T.);
#207=EDGE_CURVE('',#266,#269,#29,.T.);
#208=EDGE_CURVE('',#270,#268,#302,.T.);
#209=EDGE_CURVE('',#267,#266,#30,.T.);
#210=EDGE_CURVE('',#269,#271,#303,.F.);
#211=EDGE_CURVE('',#271,#270,#31,.F.);
#212=EDGE_CURVE('',#272,#273,#32,.T.);
#213=EDGE_CURVE('',#274,#273,#33,.T.);
#214=EDGE_CURVE('',#274,#275,#34,.T.);
#215=EDGE_CURVE('',#272,#275,#35,.T.);
#216=EDGE_CURVE('',#276,#274,#304,.T.);
#217=EDGE_CURVE('',#273,#272,#36,.T.);
#218=EDGE_CURVE('',#275,#277,#305,.F.);
#219=EDGE_CURVE('',#277,#276,#37,.F.);
#220=EDGE_CURVE('',#278,#279,#38,.T.);
#221=EDGE_CURVE('',#280,#279,#39,.T.);
#222=EDGE_CURVE('',#280,#281,#40,.T.);
#223=EDGE_CURVE('',#278,#281,#41,.T.);
#224=EDGE_CURVE('',#282,#280,#306,.T.);
#225=EDGE_CURVE('',#279,#278,#42,.T.);
#226=EDGE_CURVE('',#281,#283,#307,.F.);
#227=EDGE_CURVE('',#283,#282,#43,.F.);
#228=EDGE_CURVE('',#284,#285,#308,.T.);
#229=EDGE_CURVE('',#284,#259,#44,.T.);
#230=EDGE_CURVE('',#285,#258,#45,.T.);
#231=EDGE_CURVE('',#286,#284,#309,.T.);
#232=EDGE_CURVE('',#286,#252,#46,.T.);
#233=EDGE_CURVE('',#287,#286,#310,.F.);
#234=EDGE_CURVE('',#287,#253,#47,.T.);
#235=EDGE_CURVE('',#288,#287,#311,.T.);
#236=EDGE_CURVE('',#288,#278,#48,.T.);
#237=EDGE_CURVE('',#279,#272,#49,.T.);
#238=EDGE_CURVE('',#273,#266,#50,.T.);
#239=EDGE_CURVE('',#267,#260,#51,.T.);
#240=EDGE_CURVE('',#261,#254,#52,.T.);
#241=EDGE_CURVE('',#289,#255,#53,.T.);
#242=EDGE_CURVE('',#290,#289,#312,.T.);
#243=EDGE_CURVE('',#290,#256,#54,.T.);
#244=EDGE_CURVE('',#290,#291,#313,.T.);
#245=EDGE_CURVE('',#291,#283,#55,.T.);
#246=EDGE_CURVE('',#282,#277,#56,.T.);
#247=EDGE_CURVE('',#276,#271,#57,.T.);
#248=EDGE_CURVE('',#270,#265,#58,.T.);
#249=EDGE_CURVE('',#264,#257,#59,.T.);
#250=EDGE_CURVE('',#289,#288,#314,.T.);
#251=EDGE_CURVE('',#285,#291,#315,.T.);
#252=VERTEX_POINT('',#620);
#253=VERTEX_POINT('',#621);
#254=VERTEX_POINT('',#623);
#255=VERTEX_POINT('',#625);
#256=VERTEX_POINT('',#627);
#257=VERTEX_POINT('',#629);
#258=VERTEX_POINT('',#631);
#259=VERTEX_POINT('',#633);
#260=VERTEX_POINT('',#637);
#261=VERTEX_POINT('',#638);
#262=VERTEX_POINT('',#640);
#263=VERTEX_POINT('',#642);
#264=VERTEX_POINT('',#646);
#265=VERTEX_POINT('',#649);
#266=VERTEX_POINT('',#653);
#267=VERTEX_POINT('',#654);
#268=VERTEX_POINT('',#656);
#269=VERTEX_POINT('',#658);
#270=VERTEX_POINT('',#662);
#271=VERTEX_POINT('',#665);
#272=VERTEX_POINT('',#669);
#273=VERTEX_POINT('',#670);
#274=VERTEX_POINT('',#672);
#275=VERTEX_POINT('',#674);
#276=VERTEX_POINT('',#678);
#277=VERTEX_POINT('',#681);
#278=VERTEX_POINT('',#685);
#279=VERTEX_POINT('',#686);
#280=VERTEX_POINT('',#688);
#281=VERTEX_POINT('',#690);
#282=VERTEX_POINT('',#694);
#283=VERTEX_POINT('',#697);
#284=VERTEX_POINT('',#701);
#285=VERTEX_POINT('',#702);
#286=VERTEX_POINT('',#707);
#287=VERTEX_POINT('',#711);
#288=VERTEX_POINT('',#715);
#289=VERTEX_POINT('',#723);
#290=VERTEX_POINT('',#725);
#291=VERTEX_POINT('',#729);
#292=LINE('',#619,#316);
#293=LINE('',#622,#317);
#294=LINE('',#624,#318);
#295=LINE('',#626,#319);
#296=LINE('',#628,#320);
#297=LINE('',#630,#321);
#298=LINE('',#632,#322);
#299=LINE('',#634,#323);
#300=LINE('',#645,#324);
#301=LINE('',#648,#325);
#302=LINE('',#661,#326);
#303=LINE('',#664,#327);
#304=LINE('',#677,#328);
#305=LINE('',#680,#329);
#306=LINE('',#693,#330);
#307=LINE('',#696,#331);
#308=LINE('',#700,#332);
#309=LINE('',#706,#333);
#310=LINE('',#710,#334);
#311=LINE('',#714,#335);
#312=LINE('',#724,#336);
#313=LINE('',#728,#337);
#314=LINE('',#736,#338);
#315=LINE('',#738,#339);
#316=VECTOR('',#479,1.);
#317=VECTOR('',#480,1.);
#318=VECTOR('',#481,1.);
#319=VECTOR('',#482,1.);
#320=VECTOR('',#483,1.);
#321=VECTOR('',#484,1.);
#322=VECTOR('',#485,1.);
#323=VECTOR('',#486,1.);
#324=VECTOR('',#499,1.);
#325=VECTOR('',#502,1.);
#326=VECTOR('',#517,1.);
#327=VECTOR('',#520,1.);
#328=VECTOR('',#535,1.);
#329=VECTOR('',#538,1.);
#330=VECTOR('',#553,1.);
#331=VECTOR('',#556,1.);
#332=VECTOR('',#561,1.);
#333=VECTOR('',#568,1.);
#334=VECTOR('',#573,1.);
#335=VECTOR('',#578,1.);
#336=VECTOR('',#593,1.);
#337=VECTOR('',#598,1.);
#338=VECTOR('',#611,1.);
#339=VECTOR('',#614,1.);
#340=EDGE_LOOP('',(#60,#61,#62,#63,#64,#65,#66,#67));
#341=EDGE_LOOP('',(#68,#69,#70,#71));
#342=EDGE_LOOP('',(#72,#73,#74,#75,#76,#77));
#343=EDGE_LOOP('',(#78,#79,#80,#81));
#344=EDGE_LOOP('',(#82,#83,#84,#85,#86,#87));
#345=EDGE_LOOP('',(#88,#89,#90,#91));
#346=EDGE_LOOP('',(#92,#93,#94,#95,#96,#97));
#347=EDGE_LOOP('',(#98,#99,#100,#101));
#348=EDGE_LOOP('',(#102,#103,#104,#105,#106,#107));
#349=EDGE_LOOP('',(#108,#109,#110,#111));
#350=EDGE_LOOP('',(#112,#113,#114,#115));
#351=EDGE_LOOP('',(#116,#117,#118,#119));
#352=EDGE_LOOP('',(#120,#121,#122,#123,#124,#125,#126,#127,#128,#129,#130,
#131));
#353=EDGE_LOOP('',(#132,#133,#134,#135));
#354=EDGE_LOOP('',(#136,#137,#138,#139,#140,#141,#142,#143,#144,#145,#146,
#147,#148,#149,#150,#151,#152,#153,#154,#155));
#355=EDGE_LOOP('',(#156,#157,#158,#159,#160,#161,#162,#163,#164,#165,#166,
#167));
#356=EDGE_LOOP('',(#168,#169,#170,#171,#172,#173,#174,#175,#176,#177,#178,
#179));
#357=EDGE_LOOP('',(#180,#181,#182,#183,#184,#185,#186,#187));
#358=FACE_BOUND('',#340,.T.);
#359=FACE_BOUND('',#341,.T.);
#360=FACE_BOUND('',#342,.T.);
#361=FACE_BOUND('',#343,.T.);
#362=FACE_BOUND('',#344,.T.);
#363=FACE_BOUND('',#345,.T.);
#364=FACE_BOUND('',#346,.T.);
#365=FACE_BOUND('',#347,.T.);
#366=FACE_BOUND('',#348,.T.);
#367=FACE_BOUND('',#349,.T.);
#368=FACE_BOUND('',#350,.T.);
#369=FACE_BOUND('',#351,.T.);
#370=FACE_BOUND('',#352,.T.);
#371=FACE_BOUND('',#353,.T.);
#372=FACE_BOUND('',#354,.T.);
#373=FACE_BOUND('',#355,.T.);
#374=FACE_BOUND('',#356,.T.);
#375=FACE_BOUND('',#357,.T.);
#376=PLANE('',#417);
#377=PLANE('',#418);
#378=PLANE('',#426);
#379=PLANE('',#434);
#380=PLANE('',#442);
#381=PLANE('',#453);
#382=PLANE('',#457);
#383=PLANE('',#463);
#384=PLANE('',#473);
#385=PLANE('',#474);
#386=ADVANCED_FACE('',(#358),#376,.T.);
#387=ADVANCED_FACE('',(#359),#377,.F.);
#388=ADVANCED_FACE('',(#360),#12,.F.);
#389=ADVANCED_FACE('',(#361),#378,.F.);
#390=ADVANCED_FACE('',(#362),#13,.F.);
#391=ADVANCED_FACE('',(#363),#379,.F.);
#392=ADVANCED_FACE('',(#364),#14,.F.);
#393=ADVANCED_FACE('',(#365),#380,.F.);
#394=ADVANCED_FACE('',(#366),#15,.F.);
#395=ADVANCED_FACE('',(#367),#16,.T.);
#396=ADVANCED_FACE('',(#368),#381,.F.);
#397=ADVANCED_FACE('',(#369),#17,.F.);
#398=ADVANCED_FACE('',(#370),#382,.F.);
#399=ADVANCED_FACE('',(#371),#383,.F.);
#400=ADVANCED_FACE('',(#372),#18,.F.);
#401=ADVANCED_FACE('',(#373),#19,.T.);
#402=ADVANCED_FACE('',(#374),#384,.F.);
#403=ADVANCED_FACE('',(#375),#385,.T.);
#404=CLOSED_SHELL('',(#386,#387,#388,#389,#390,#391,#392,#393,#394,#395,
#396,#397,#398,#399,#400,#401,#402,#403));
#405=STYLED_ITEM('',(#406),#413);
#406=PRESENTATION_STYLE_ASSIGNMENT((#407));
#407=SURFACE_STYLE_USAGE(.BOTH.,#408);
#408=SURFACE_SIDE_STYLE('',(#409));
#409=SURFACE_STYLE_FILL_AREA(#410);
#410=FILL_AREA_STYLE('',(#411));
#411=FILL_AREA_STYLE_COLOUR('',#412);
#412=COLOUR_RGB('',0.768627450980392,0.886274509803922,0.952941176470588);
#413=MANIFOLD_SOLID_BREP('Part 29',#404);
#414=SHAPE_DEFINITION_REPRESENTATION(#746,#415);
#415=SHAPE_REPRESENTATION('Part 29',(#416),#741);
#416=AXIS2_PLACEMENT_3D('',#617,#475,#476);
#417=AXIS2_PLACEMENT_3D('',#618,#477,#478);
#418=AXIS2_PLACEMENT_3D('',#635,#487,#488);
#419=AXIS2_PLACEMENT_3D('',#636,#489,#490);
#420=AXIS2_PLACEMENT_3D('',#639,#491,#492);
#421=AXIS2_PLACEMENT_3D('',#641,#493,#494);
#422=AXIS2_PLACEMENT_3D('',#643,#495,#496);
#423=AXIS2_PLACEMENT_3D('',#644,#497,#498);
#424=AXIS2_PLACEMENT_3D('',#647,#500,#501);
#425=AXIS2_PLACEMENT_3D('',#650,#503,#504);
#426=AXIS2_PLACEMENT_3D('',#651,#505,#506);
#427=AXIS2_PLACEMENT_3D('',#652,#507,#508);
#428=AXIS2_PLACEMENT_3D('',#655,#509,#510);
#429=AXIS2_PLACEMENT_3D('',#657,#511,#512);
#430=AXIS2_PLACEMENT_3D('',#659,#513,#514);
#431=AXIS2_PLACEMENT_3D('',#660,#515,#516);
#432=AXIS2_PLACEMENT_3D('',#663,#518,#519);
#433=AXIS2_PLACEMENT_3D('',#666,#521,#522);
#434=AXIS2_PLACEMENT_3D('',#667,#523,#524);
#435=AXIS2_PLACEMENT_3D('',#668,#525,#526);
#436=AXIS2_PLACEMENT_3D('',#671,#527,#528);
#437=AXIS2_PLACEMENT_3D('',#673,#529,#530);
#438=AXIS2_PLACEMENT_3D('',#675,#531,#532);
#439=AXIS2_PLACEMENT_3D('',#676,#533,#534);
#440=AXIS2_PLACEMENT_3D('',#679,#536,#537);
#441=AXIS2_PLACEMENT_3D('',#682,#539,#540);
#442=AXIS2_PLACEMENT_3D('',#683,#541,#542);
#443=AXIS2_PLACEMENT_3D('',#684,#543,#544);
#444=AXIS2_PLACEMENT_3D('',#687,#545,#546);
#445=AXIS2_PLACEMENT_3D('',#689,#547,#548);
#446=AXIS2_PLACEMENT_3D('',#691,#549,#550);
#447=AXIS2_PLACEMENT_3D('',#692,#551,#552);
#448=AXIS2_PLACEMENT_3D('',#695,#554,#555);
#449=AXIS2_PLACEMENT_3D('',#698,#557,#558);
#450=AXIS2_PLACEMENT_3D('',#699,#559,#560);
#451=AXIS2_PLACEMENT_3D('',#703,#562,#563);
#452=AXIS2_PLACEMENT_3D('',#704,#564,#565);
#453=AXIS2_PLACEMENT_3D('',#705,#566,#567);
#454=AXIS2_PLACEMENT_3D('',#708,#569,#570);
#455=AXIS2_PLACEMENT_3D('',#709,#571,#572);
#456=AXIS2_PLACEMENT_3D('',#712,#574,#575);
#457=AXIS2_PLACEMENT_3D('',#713,#576,#577);
#458=AXIS2_PLACEMENT_3D('',#716,#579,#580);
#459=AXIS2_PLACEMENT_3D('',#717,#581,#582);
#460=AXIS2_PLACEMENT_3D('',#718,#583,#584);
#461=AXIS2_PLACEMENT_3D('',#719,#585,#586);
#462=AXIS2_PLACEMENT_3D('',#720,#587,#588);
#463=AXIS2_PLACEMENT_3D('',#721,#589,#590);
#464=AXIS2_PLACEMENT_3D('',#722,#591,#592);
#465=AXIS2_PLACEMENT_3D('',#726,#594,#595);
#466=AXIS2_PLACEMENT_3D('',#727,#596,#597);
#467=AXIS2_PLACEMENT_3D('',#730,#599,#600);
#468=AXIS2_PLACEMENT_3D('',#731,#601,#602);
#469=AXIS2_PLACEMENT_3D('',#732,#603,#604);
#470=AXIS2_PLACEMENT_3D('',#733,#605,#606);
#471=AXIS2_PLACEMENT_3D('',#734,#607,#608);
#472=AXIS2_PLACEMENT_3D('',#735,#609,#610);
#473=AXIS2_PLACEMENT_3D('',#737,#612,#613);
#474=AXIS2_PLACEMENT_3D('',#739,#615,#616);
#475=DIRECTION('',(0.,0.,1.));
#476=DIRECTION('',(1.,0.,0.));
#477=DIRECTION('',(0.923879532511287,0.38268343236509,2.45681174236573E-17));
#478=DIRECTION('',(-0.38268343236509,0.923879532511287,-1.01764474388536E-17));
#479=DIRECTION('',(0.,0.,-1.));
#480=DIRECTION('',(0.38268343236509,-0.923879532511287,0.));
#481=DIRECTION('',(0.,0.,-1.));
#482=DIRECTION('',(0.38268343236509,-0.923879532511287,0.));
#483=DIRECTION('',(0.,0.,-1.));
#484=DIRECTION('',(-0.38268343236509,0.923879532511287,0.));
#485=DIRECTION('',(0.,0.,-1.));
#486=DIRECTION('',(0.38268343236509,-0.923879532511287,0.));
#487=DIRECTION('',(0.,0.,1.));
#488=DIRECTION('',(1.,0.,0.));
#489=DIRECTION('',(0.,0.,-1.));
#490=DIRECTION('',(-1.,0.,0.));
#491=DIRECTION('',(0.,0.,1.));
#492=DIRECTION('',(1.,0.,0.));
#493=DIRECTION('',(0.,0.,1.));
#494=DIRECTION('',(1.,0.,0.));
#495=DIRECTION('',(0.,0.,1.));
#496=DIRECTION('',(1.,0.,0.));
#497=DIRECTION('',(0.,0.,1.));
#498=DIRECTION('',(1.,0.,0.));
#499=DIRECTION('',(0.,0.,1.));
#500=DIRECTION('',(0.,0.,1.));
#501=DIRECTION('',(1.,0.,0.));
#502=DIRECTION('',(0.,0.,1.));
#503=DIRECTION('',(0.,0.,1.));
#504=DIRECTION('',(1.,0.,0.));
#505=DIRECTION('',(0.,0.,1.));
#506=DIRECTION('',(1.,0.,0.));
#507=DIRECTION('',(0.,0.,-1.));
#508=DIRECTION('',(-1.,0.,0.));
#509=DIRECTION('',(0.,0.,1.));
#510=DIRECTION('',(1.,0.,0.));
#511=DIRECTION('',(0.,0.,1.));
#512=DIRECTION('',(1.,0.,0.));
#513=DIRECTION('',(0.,0.,1.));
#514=DIRECTION('',(1.,0.,0.));
#515=DIRECTION('',(0.,0.,1.));
#516=DIRECTION('',(1.,0.,0.));
#517=DIRECTION('',(0.,0.,1.));
#518=DIRECTION('',(0.,0.,1.));
#519=DIRECTION('',(1.,0.,0.));
#520=DIRECTION('',(0.,0.,1.));
#521=DIRECTION('',(0.,0.,1.));
#522=DIRECTION('',(1.,0.,0.));
#523=DIRECTION('',(0.,0.,1.));
#524=DIRECTION('',(1.,0.,0.));
#525=DIRECTION('',(0.,0.,-1.));
#526=DIRECTION('',(-1.,0.,0.));
#527=DIRECTION('',(0.,0.,1.));
#528=DIRECTION('',(1.,0.,0.));
#529=DIRECTION('',(0.,0.,1.));
#530=DIRECTION('',(1.,0.,0.));
#531=DIRECTION('',(0.,0.,1.));
#532=DIRECTION('',(1.,0.,0.));
#533=DIRECTION('',(0.,0.,1.));
#534=DIRECTION('',(1.,0.,0.));
#535=DIRECTION('',(0.,0.,1.));
#536=DIRECTION('',(0.,0.,1.));
#537=DIRECTION('',(1.,0.,0.));
#538=DIRECTION('',(0.,0.,1.));
#539=DIRECTION('',(0.,0.,1.));
#540=DIRECTION('',(1.,0.,0.));
#541=DIRECTION('',(0.,0.,1.));
#542=DIRECTION('',(1.,0.,0.));
#543=DIRECTION('',(0.,0.,-1.));
#544=DIRECTION('',(-1.,0.,0.));
#545=DIRECTION('',(0.,0.,1.));
#546=DIRECTION('',(1.,0.,0.));
#547=DIRECTION('',(0.,0.,1.));
#548=DIRECTION('',(1.,0.,0.));
#549=DIRECTION('',(0.,0.,1.));
#550=DIRECTION('',(1.,0.,0.));
#551=DIRECTION('',(0.,0.,1.));
#552=DIRECTION('',(1.,0.,0.));
#553=DIRECTION('',(0.,0.,1.));
#554=DIRECTION('',(0.,0.,1.));
#555=DIRECTION('',(1.,0.,0.));
#556=DIRECTION('',(0.,0.,1.));
#557=DIRECTION('',(0.,0.,1.));
#558=DIRECTION('',(1.,0.,0.));
#559=DIRECTION('',(0.,0.,-1.));
#560=DIRECTION('',(-1.,0.,0.));
#561=DIRECTION('',(0.,0.,-1.));
#562=DIRECTION('',(0.,0.,-1.));
#563=DIRECTION('',(-1.,0.,0.));
#564=DIRECTION('',(0.,0.,-1.));
#565=DIRECTION('',(-1.,0.,0.));
#566=DIRECTION('',(0.,0.,-1.));
#567=DIRECTION('',(-1.,0.,0.));
#568=DIRECTION('',(0.38268343236509,-0.923879532511287,0.));
#569=DIRECTION('',(0.,0.,-1.));
#570=DIRECTION('',(-1.,0.,0.));
#571=DIRECTION('',(0.,0.,-1.));
#572=DIRECTION('',(-1.,0.,0.));
#573=DIRECTION('',(0.,0.,-1.));
#574=DIRECTION('',(0.,0.,-1.));
#575=DIRECTION('',(-1.,0.,0.));
#576=DIRECTION('',(0.,0.,-1.));
#577=DIRECTION('',(-1.,0.,0.));
#578=DIRECTION('',(0.38268343236509,-0.923879532511287,0.));
#579=DIRECTION('',(0.,0.,-1.));
#580=DIRECTION('',(-1.,0.,0.));
#581=DIRECTION('',(0.,0.,-1.));
#582=DIRECTION('',(-1.,0.,0.));
#583=DIRECTION('',(0.,0.,-1.));
#584=DIRECTION('',(-1.,0.,0.));
#585=DIRECTION('',(0.,0.,-1.));
#586=DIRECTION('',(-1.,0.,0.));
#587=DIRECTION('',(0.,0.,-1.));
#588=DIRECTION('',(-1.,0.,0.));
#589=DIRECTION('',(0.,0.,-1.));
#590=DIRECTION('',(-1.,0.,0.));
#591=DIRECTION('',(0.,0.,-1.));
#592=DIRECTION('',(-1.,0.,0.));
#593=DIRECTION('',(0.38268343236509,-0.923879532511287,0.));
#594=DIRECTION('',(0.,0.,-1.));
#595=DIRECTION('',(-1.,0.,0.));
#596=DIRECTION('',(0.,0.,-1.));
#597=DIRECTION('',(-1.,0.,0.));
#598=DIRECTION('',(0.,0.,-1.));
#599=DIRECTION('',(0.,0.,-1.));
#600=DIRECTION('',(-1.,0.,0.));
#601=DIRECTION('',(0.,0.,-1.));
#602=DIRECTION('',(-1.,0.,0.));
#603=DIRECTION('',(0.,0.,-1.));
#604=DIRECTION('',(-1.,0.,0.));
#605=DIRECTION('',(0.,0.,-1.));
#606=DIRECTION('',(-1.,0.,0.));
#607=DIRECTION('',(0.,0.,-1.));
#608=DIRECTION('',(-1.,0.,0.));
#609=DIRECTION('',(0.,0.,-1.));
#610=DIRECTION('',(-1.,0.,0.));
#611=DIRECTION('',(0.,0.,-1.));
#612=DIRECTION('',(0.,0.,1.));
#613=DIRECTION('',(1.,0.,0.));
#614=DIRECTION('',(-0.38268343236509,0.923879532511287,0.));
#615=DIRECTION('',(0.923879532511287,0.38268343236509,2.45681174236573E-17));
#616=DIRECTION('',(-0.38268343236509,0.923879532511287,-1.01764474388536E-17));
#617=CARTESIAN_POINT('',(0.,0.,0.));
#618=CARTESIAN_POINT('',(-3.46944695195361E-18,4.62592926927149E-18,0.0811674666666669));
#619=CARTESIAN_POINT('',(-0.0332864664816254,0.0803606388234175,0.1188));
#620=CARTESIAN_POINT('',(-0.0332864664816254,0.0803606388234175,0.127406924962997));
#621=CARTESIAN_POINT('',(-0.0332864664816254,0.0803606388234175,0.1217512));
#622=CARTESIAN_POINT('',(0.0281913879763283,-0.0680600311945736,0.1217512));
#623=CARTESIAN_POINT('',(-0.0277418104403637,0.0669746550099095,0.1217512));
#624=CARTESIAN_POINT('',(-0.0277418104403637,0.0669746550099095,0.1188));
#625=CARTESIAN_POINT('',(-0.0277418104403637,0.0669746550099095,0.127406924962997));
#626=CARTESIAN_POINT('',(0.0255018060634928,-0.0615668060634928,0.127406924962997));
#627=CARTESIAN_POINT('',(-0.0274641015126242,0.0663042063501687,0.127406924962997));
#628=CARTESIAN_POINT('',(-0.0274641015126242,0.0663042063501687,0.1188));
#629=CARTESIAN_POINT('',(-0.0274641015126242,0.0663042063501687,0.1175512));
#630=CARTESIAN_POINT('',(0.0282941778617231,-0.0683081879299683,0.1175512));
#631=CARTESIAN_POINT('',(-0.0337866933498054,0.0815682933128409,0.1175512));
#632=CARTESIAN_POINT('',(-0.0337866933498054,0.081568293312841,0.1188));
#633=CARTESIAN_POINT('',(-0.0337866933498054,0.0815682933128409,0.127406924962997));
#634=CARTESIAN_POINT('',(0.0309837597745585,-0.0748014130610492,0.127406924962997));
#635=CARTESIAN_POINT('',(-2.77555756156289E-17,0.,0.1217512));
#636=CARTESIAN_POINT('',(-2.42861286636753E-17,2.0832928289249E-18,0.1217512));
#637=CARTESIAN_POINT('',(-0.0538002285924402,0.0485875278606213,0.1217512));
#638=CARTESIAN_POINT('',(-0.0485875278606213,0.0538002285924402,0.1217512));
#639=CARTESIAN_POINT('',(-0.0530330085889911,0.0530330085889911,0.1217512));
#640=CARTESIAN_POINT('',(-0.0485245341714959,0.0528762161568015,0.1217512));
#641=CARTESIAN_POINT('',(-2.42861286636753E-17,2.0832928289249E-18,0.1217512));
#642=CARTESIAN_POINT('',(-0.0528762161568015,0.0485245341714959,0.1217512));
#643=CARTESIAN_POINT('',(-0.0530330085889911,0.0530330085889911,0.1217512));
#644=CARTESIAN_POINT('',(-0.0530330085889911,0.0530330085889911,0.1175492));
#645=CARTESIAN_POINT('',(-0.0485245341714959,0.0528762161568016,0.1196512));
#646=CARTESIAN_POINT('',(-0.0485245341714959,0.0528762161568016,0.1175512));
#647=CARTESIAN_POINT('',(-0.0530330085889911,0.0530330085889911,0.1217512));
#648=CARTESIAN_POINT('',(-0.0528762161568016,0.0485245341714959,0.1196512));
#649=CARTESIAN_POINT('',(-0.0528762161568016,0.0485245341714959,0.1175512));
#650=CARTESIAN_POINT('',(-0.0530330085889911,0.0530330085889911,0.1175512));
#651=CARTESIAN_POINT('',(-2.77555756156289E-17,0.,0.1217512));
#652=CARTESIAN_POINT('',(-2.42861286636753E-17,2.0832928289249E-18,0.1217512));
#653=CARTESIAN_POINT('',(-0.0723990768984365,-0.00368593603576529,0.1217512));
#654=CARTESIAN_POINT('',(-0.0723990768984365,0.00368593603576524,0.1217512));
#655=CARTESIAN_POINT('',(-0.075,2.76231332015677E-19,0.1217512));
#656=CARTESIAN_POINT('',(-0.0717011581745431,0.00307710384137691,0.1217512));
#657=CARTESIAN_POINT('',(-2.42861286636753E-17,2.0832928289249E-18,0.1217512));
#658=CARTESIAN_POINT('',(-0.0717011581745431,-0.00307710384137691,0.1217512));
#659=CARTESIAN_POINT('',(-0.075,2.76231332015677E-19,0.1217512));
#660=CARTESIAN_POINT('',(-0.075,2.76231332015677E-19,0.1175492));
#661=CARTESIAN_POINT('',(-0.0717011581745432,0.00307710384137697,0.1196512));
#662=CARTESIAN_POINT('',(-0.0717011581745432,0.00307710384137695,0.1175512));
#663=CARTESIAN_POINT('',(-0.075,2.76231332015677E-19,0.1217512));
#664=CARTESIAN_POINT('',(-0.0717011581745432,-0.00307710384137697,0.1196512));
#665=CARTESIAN_POINT('',(-0.0717011581745432,-0.00307710384137695,0.1175512));
#666=CARTESIAN_POINT('',(-0.075,2.76231332015677E-19,0.1175512));
#667=CARTESIAN_POINT('',(-2.77555756156289E-17,0.,0.1217512));
#668=CARTESIAN_POINT('',(-2.42861286636753E-17,2.0832928289249E-18,0.1217512));
#669=CARTESIAN_POINT('',(-0.0485875278606213,-0.0538002285924402,0.1217512));
#670=CARTESIAN_POINT('',(-0.0538002285924402,-0.0485875278606213,0.1217512));
#671=CARTESIAN_POINT('',(-0.0530330085889911,-0.0530330085889911,0.1217512));
#672=CARTESIAN_POINT('',(-0.0528762161568015,-0.0485245341714959,0.1217512));
#673=CARTESIAN_POINT('',(-2.42861286636753E-17,2.0832928289249E-18,0.1217512));
#674=CARTESIAN_POINT('',(-0.0485245341714959,-0.0528762161568015,0.1217512));
#675=CARTESIAN_POINT('',(-0.0530330085889911,-0.0530330085889911,0.1217512));
#676=CARTESIAN_POINT('',(-0.0530330085889911,-0.0530330085889911,0.1175492));
#677=CARTESIAN_POINT('',(-0.0528762161568014,-0.0485245341714959,0.1196512));
#678=CARTESIAN_POINT('',(-0.0528762161568014,-0.0485245341714959,0.1175512));
#679=CARTESIAN_POINT('',(-0.0530330085889911,-0.0530330085889911,0.1217512));
#680=CARTESIAN_POINT('',(-0.0485245341714959,-0.0528762161568014,0.1196512));
#681=CARTESIAN_POINT('',(-0.0485245341714959,-0.0528762161568014,0.1175512));
#682=CARTESIAN_POINT('',(-0.0530330085889911,-0.0530330085889911,0.1175512));
#683=CARTESIAN_POINT('',(-2.77555756156289E-17,0.,0.1217512));
#684=CARTESIAN_POINT('',(-2.42861286636753E-17,2.0832928289249E-18,0.1217512));
#685=CARTESIAN_POINT('',(0.00368593603576526,-0.0723990768984364,0.1217512));
#686=CARTESIAN_POINT('',(-0.00368593603576524,-0.0723990768984365,0.1217512));
#687=CARTESIAN_POINT('',(-6.93889390390723E-18,-0.075,0.1217512));
#688=CARTESIAN_POINT('',(-0.00307710384137689,-0.0717011581745431,0.1217512));
#689=CARTESIAN_POINT('',(-2.42861286636753E-17,2.0832928289249E-18,0.1217512));
#690=CARTESIAN_POINT('',(0.00307710384137687,-0.0717011581745431,0.1217512));
#691=CARTESIAN_POINT('',(-6.93889390390723E-18,-0.075,0.1217512));
#692=CARTESIAN_POINT('',(-6.93889390390723E-18,-0.075,0.1175492));
#693=CARTESIAN_POINT('',(-0.00307710384137681,-0.0717011581745431,0.1196512));
#694=CARTESIAN_POINT('',(-0.00307710384137683,-0.0717011581745431,0.1175512));
#695=CARTESIAN_POINT('',(-6.93889390390723E-18,-0.075,0.1217512));
#696=CARTESIAN_POINT('',(0.0030771038413768,-0.0717011581745431,0.1196512));
#697=CARTESIAN_POINT('',(0.00307710384137681,-0.0717011581745431,0.1175512));
#698=CARTESIAN_POINT('',(-6.93889390390723E-18,-0.075,0.1175512));
#699=CARTESIAN_POINT('',(-2.42861286636753E-17,2.0832928289249E-18,0.1188));
#700=CARTESIAN_POINT('',(0.0337866933498054,-0.0815682933128409,0.1188));
#701=CARTESIAN_POINT('',(0.0337866933498053,-0.0815682933128409,0.127406924962997));
#702=CARTESIAN_POINT('',(0.0337866933498053,-0.0815682933128409,0.1175512));
#703=CARTESIAN_POINT('',(-2.42861286636753E-17,2.0832928289249E-18,0.127406924962997));
#704=CARTESIAN_POINT('',(-2.42861286636753E-17,2.0832928289249E-18,0.1175512));
#705=CARTESIAN_POINT('',(0.,-0.0876353065729813,0.127406924962997));
#706=CARTESIAN_POINT('',(0.0309837597745585,-0.0748014130610492,0.127406924962997));
#707=CARTESIAN_POINT('',(0.0332864664816254,-0.0803606388234175,0.127406924962997));
#708=CARTESIAN_POINT('',(-2.42861286636753E-17,2.0832928289249E-18,0.127406924962997));
#709=CARTESIAN_POINT('',(-2.42861286636753E-17,2.0832928289249E-18,0.1188));
#710=CARTESIAN_POINT('',(0.0332864664816254,-0.0803606388234175,0.1188));
#711=CARTESIAN_POINT('',(0.0332864664816254,-0.0803606388234175,0.1217512));
#712=CARTESIAN_POINT('',(-2.42861286636753E-17,2.0832928289249E-18,0.1217512));
#713=CARTESIAN_POINT('',(0.,-0.0797372864364906,0.1217512));
#714=CARTESIAN_POINT('',(0.0281913879763283,-0.0680600311945736,0.1217512));
#715=CARTESIAN_POINT('',(0.0277418104403637,-0.0669746550099095,0.1217512));
#716=CARTESIAN_POINT('',(-2.42861286636753E-17,2.0832928289249E-18,0.1217512));
#717=CARTESIAN_POINT('',(-2.42861286636753E-17,2.0832928289249E-18,0.1217512));
#718=CARTESIAN_POINT('',(-2.42861286636753E-17,2.0832928289249E-18,0.1217512));
#719=CARTESIAN_POINT('',(-2.42861286636753E-17,2.0832928289249E-18,0.1217512));
#720=CARTESIAN_POINT('',(-2.42861286636753E-17,2.0832928289249E-18,0.1217512));
#721=CARTESIAN_POINT('',(0.,-0.07213,0.127406924962997));
#722=CARTESIAN_POINT('',(-2.42861286636753E-17,2.0832928289249E-18,0.127406924962997));
#723=CARTESIAN_POINT('',(0.0277418104403637,-0.0669746550099095,0.127406924962997));
#724=CARTESIAN_POINT('',(0.0255018060634928,-0.0615668060634928,0.127406924962997));
#725=CARTESIAN_POINT('',(0.0274641015126242,-0.0663042063501686,0.127406924962997));
#726=CARTESIAN_POINT('',(-2.42861286636753E-17,2.0832928289249E-18,0.127406924962997));
#727=CARTESIAN_POINT('',(-2.42861286636753E-17,2.0832928289249E-18,0.1188));
#728=CARTESIAN_POINT('',(0.0274641015126242,-0.0663042063501686,0.1188));
#729=CARTESIAN_POINT('',(0.0274641015126242,-0.0663042063501686,0.1175512));
#730=CARTESIAN_POINT('',(-2.42861286636753E-17,2.0832928289249E-18,0.1175512));
#731=CARTESIAN_POINT('',(-2.42861286636753E-17,2.0832928289249E-18,0.1175512));
#732=CARTESIAN_POINT('',(-2.42861286636753E-17,2.0832928289249E-18,0.1175512));
#733=CARTESIAN_POINT('',(-2.42861286636753E-17,2.0832928289249E-18,0.1175512));
#734=CARTESIAN_POINT('',(-2.42861286636753E-17,2.0832928289249E-18,0.1175512));
#735=CARTESIAN_POINT('',(-2.42861286636753E-17,2.0832928289249E-18,0.1188));
#736=CARTESIAN_POINT('',(0.0277418104403637,-0.0669746550099095,0.1188));
#737=CARTESIAN_POINT('',(0.,-0.0800280201364906,0.1175512));
#738=CARTESIAN_POINT('',(0.0282941778617231,-0.0683081879299683,0.1175512));
#739=CARTESIAN_POINT('',(-3.46944695195361E-18,4.62592926927149E-18,0.0811674666666669));
#740=MECHANICAL_DESIGN_GEOMETRIC_PRESENTATION_REPRESENTATION('',(#405),
#741);
#741=(
GEOMETRIC_REPRESENTATION_CONTEXT(3)
GLOBAL_UNCERTAINTY_ASSIGNED_CONTEXT((#742))
GLOBAL_UNIT_ASSIGNED_CONTEXT((#745,#744,#743))
REPRESENTATION_CONTEXT('Part 29','TOP_LEVEL_ASSEMBLY_PART')
);
#742=UNCERTAINTY_MEASURE_WITH_UNIT(LENGTH_MEASURE(1.E-8),#745,
'DISTANCE_ACCURACY_VALUE','Maximum Tolerance applied to model');
#743=(
NAMED_UNIT(*)
SI_UNIT($,.STERADIAN.)
SOLID_ANGLE_UNIT()
);
#744=(
NAMED_UNIT(*)
PLANE_ANGLE_UNIT()
SI_UNIT($,.RADIAN.)
);
#745=(
LENGTH_UNIT()
NAMED_UNIT(*)
SI_UNIT($,.METRE.)
);
#746=PRODUCT_DEFINITION_SHAPE('','',#747);
#747=PRODUCT_DEFINITION('','',#749,#748);
#748=PRODUCT_DEFINITION_CONTEXT('',#755,'design');
#749=PRODUCT_DEFINITION_FORMATION_WITH_SPECIFIED_SOURCE('','',#751,
 .NOT_KNOWN.);
#750=PRODUCT_RELATED_PRODUCT_CATEGORY('','',(#751));
#751=PRODUCT('Part 29','Part 29','Part 29',(#753));
#752=PRODUCT_CATEGORY('','');
#753=PRODUCT_CONTEXT('',#755,'mechanical');
#754=APPLICATION_PROTOCOL_DEFINITION('international standard',
'ap242_managed_model_based_3d_engineering',2011,#755);
#755=APPLICATION_CONTEXT('managed model based 3d engineering');
ENDSEC;
END-ISO-10303-21;
