ISO-10303-21;
HEADER;
/* Generated by software containing ST-Developer
 * from STEP Tools, Inc. (www.steptools.com) 
 */
/* OPTION: using custom renumber hook */

FILE_DESCRIPTION(
/* description */ ('STEP AP242',
'CAx-IF Rec.Pracs.---Representation and Presentation of Product Manufa
cturing Information (PMI)---4.0---2014-10-13',
'CAx-IF Rec.Pracs.---3D Tessellated Geometry---0.4---2014-09-14','2;1'),

/* implementation_level */ '2;1');

FILE_NAME(
/* name */ '68fb1d8b34e6012dc82c93e7',
/* time_stamp */ '2025-10-24T06:32:43Z',
/* author */ (''),
/* organization */ (''),
/* preprocessor_version */ 'ST-DEVELOPER v20',
/* originating_system */ 'ONSHAPE BY PTC INC, 1.205',
/* authorisation */ '  ');

FILE_SCHEMA (('AP242_MANAGED_MODEL_BASED_3D_ENGINEERING_MIM_LF { 1 0 10303 442 1 1 4 }'));
ENDSEC;

DATA;
#10=SHAPE_REPRESENTATION_RELATIONSHIP('','',#271,#11);
#11=ADVANCED_BREP_SHAPE_REPRESENTATION('',(#269),#453);
#12=CYLINDRICAL_SURFACE('',#283,0.002);
#13=CYLINDRICAL_SURFACE('',#286,0.002);
#14=CYLINDRICAL_SURFACE('',#293,0.0857852548360825);
#15=CYLINDRICAL_SURFACE('',#295,0.0711614795394192);
#16=CYLINDRICAL_SURFACE('',#297,0.0495900383402727);
#17=CYLINDRICAL_SURFACE('',#300,0.07346);
#18=CIRCLE('',#276,0.07346);
#19=CIRCLE('',#277,0.071161479539419);
#20=CIRCLE('',#279,0.002);
#21=CIRCLE('',#280,0.002);
#22=CIRCLE('',#281,0.071161479539419);
#23=CIRCLE('',#282,0.0495900383402727);
#24=CIRCLE('',#284,0.002);
#25=CIRCLE('',#287,0.002);
#26=CIRCLE('',#289,0.071161479539419);
#27=CIRCLE('',#290,0.0495900383402727);
#28=CIRCLE('',#291,0.0711614795394192);
#29=CIRCLE('',#292,0.0857852548360825);
#30=CIRCLE('',#294,0.0857852548360825);
#31=CIRCLE('',#299,0.07346);
#32=ORIENTED_EDGE('',*,*,#100,.F.);
#33=ORIENTED_EDGE('',*,*,#101,.F.);
#34=ORIENTED_EDGE('',*,*,#102,.T.);
#35=ORIENTED_EDGE('',*,*,#103,.T.);
#36=ORIENTED_EDGE('',*,*,#104,.F.);
#37=ORIENTED_EDGE('',*,*,#105,.F.);
#38=ORIENTED_EDGE('',*,*,#106,.T.);
#39=ORIENTED_EDGE('',*,*,#107,.T.);
#40=ORIENTED_EDGE('',*,*,#108,.T.);
#41=ORIENTED_EDGE('',*,*,#109,.T.);
#42=ORIENTED_EDGE('',*,*,#110,.F.);
#43=ORIENTED_EDGE('',*,*,#111,.F.);
#44=ORIENTED_EDGE('',*,*,#108,.F.);
#45=ORIENTED_EDGE('',*,*,#112,.T.);
#46=ORIENTED_EDGE('',*,*,#105,.T.);
#47=ORIENTED_EDGE('',*,*,#113,.T.);
#48=ORIENTED_EDGE('',*,*,#114,.F.);
#49=ORIENTED_EDGE('',*,*,#115,.F.);
#50=ORIENTED_EDGE('',*,*,#116,.F.);
#51=ORIENTED_EDGE('',*,*,#117,.T.);
#52=ORIENTED_EDGE('',*,*,#118,.F.);
#53=ORIENTED_EDGE('',*,*,#119,.F.);
#54=ORIENTED_EDGE('',*,*,#114,.T.);
#55=ORIENTED_EDGE('',*,*,#120,.T.);
#56=ORIENTED_EDGE('',*,*,#121,.F.);
#57=ORIENTED_EDGE('',*,*,#119,.T.);
#58=ORIENTED_EDGE('',*,*,#122,.T.);
#59=ORIENTED_EDGE('',*,*,#123,.T.);
#60=ORIENTED_EDGE('',*,*,#115,.T.);
#61=ORIENTED_EDGE('',*,*,#124,.T.);
#62=ORIENTED_EDGE('',*,*,#110,.T.);
#63=ORIENTED_EDGE('',*,*,#125,.F.);
#64=ORIENTED_EDGE('',*,*,#123,.F.);
#65=ORIENTED_EDGE('',*,*,#126,.F.);
#66=ORIENTED_EDGE('',*,*,#127,.T.);
#67=ORIENTED_EDGE('',*,*,#128,.F.);
#68=ORIENTED_EDGE('',*,*,#103,.F.);
#69=ORIENTED_EDGE('',*,*,#129,.T.);
#70=ORIENTED_EDGE('',*,*,#120,.F.);
#71=ORIENTED_EDGE('',*,*,#124,.F.);
#72=ORIENTED_EDGE('',*,*,#102,.F.);
#73=ORIENTED_EDGE('',*,*,#130,.T.);
#74=ORIENTED_EDGE('',*,*,#111,.T.);
#75=ORIENTED_EDGE('',*,*,#129,.F.);
#76=ORIENTED_EDGE('',*,*,#131,.F.);
#77=ORIENTED_EDGE('',*,*,#116,.T.);
#78=ORIENTED_EDGE('',*,*,#121,.T.);
#79=ORIENTED_EDGE('',*,*,#125,.T.);
#80=ORIENTED_EDGE('',*,*,#109,.F.);
#81=ORIENTED_EDGE('',*,*,#113,.F.);
#82=ORIENTED_EDGE('',*,*,#104,.T.);
#83=ORIENTED_EDGE('',*,*,#128,.T.);
#84=ORIENTED_EDGE('',*,*,#117,.F.);
#85=ORIENTED_EDGE('',*,*,#131,.T.);
#86=ORIENTED_EDGE('',*,*,#127,.F.);
#87=ORIENTED_EDGE('',*,*,#132,.F.);
#88=ORIENTED_EDGE('',*,*,#122,.F.);
#89=ORIENTED_EDGE('',*,*,#118,.T.);
#90=ORIENTED_EDGE('',*,*,#132,.T.);
#91=ORIENTED_EDGE('',*,*,#126,.T.);
#92=ORIENTED_EDGE('',*,*,#133,.F.);
#93=ORIENTED_EDGE('',*,*,#106,.F.);
#94=ORIENTED_EDGE('',*,*,#130,.F.);
#95=ORIENTED_EDGE('',*,*,#101,.T.);
#96=ORIENTED_EDGE('',*,*,#100,.T.);
#97=ORIENTED_EDGE('',*,*,#112,.F.);
#98=ORIENTED_EDGE('',*,*,#107,.F.);
#99=ORIENTED_EDGE('',*,*,#133,.T.);
#100=EDGE_CURVE('',#134,#135,#158,.F.);
#101=EDGE_CURVE('',#136,#134,#159,.T.);
#102=EDGE_CURVE('',#136,#137,#160,.T.);
#103=EDGE_CURVE('',#137,#138,#161,.T.);
#104=EDGE_CURVE('',#139,#138,#162,.T.);
#105=EDGE_CURVE('',#135,#139,#163,.T.);
#106=EDGE_CURVE('',#140,#141,#164,.T.);
#107=EDGE_CURVE('',#141,#142,#165,.F.);
#108=EDGE_CURVE('',#142,#143,#166,.T.);
#109=EDGE_CURVE('',#143,#144,#167,.T.);
#110=EDGE_CURVE('',#145,#144,#168,.T.);
#111=EDGE_CURVE('',#140,#145,#169,.T.);
#112=EDGE_CURVE('',#142,#135,#18,.T.);
#113=EDGE_CURVE('',#139,#143,#19,.F.);
#114=EDGE_CURVE('',#146,#146,#20,.F.);
#115=EDGE_CURVE('',#147,#147,#21,.F.);
#116=EDGE_CURVE('',#148,#149,#22,.T.);
#117=EDGE_CURVE('',#148,#150,#170,.T.);
#118=EDGE_CURVE('',#151,#150,#23,.F.);
#119=EDGE_CURVE('',#149,#151,#171,.T.);
#120=EDGE_CURVE('',#152,#152,#24,.T.);
#121=EDGE_CURVE('',#149,#153,#172,.T.);
#122=EDGE_CURVE('',#151,#154,#173,.T.);
#123=EDGE_CURVE('',#154,#153,#174,.T.);
#124=EDGE_CURVE('',#155,#155,#25,.T.);
#125=EDGE_CURVE('',#153,#144,#26,.T.);
#126=EDGE_CURVE('',#156,#154,#27,.T.);
#127=EDGE_CURVE('',#156,#157,#175,.T.);
#128=EDGE_CURVE('',#138,#157,#28,.T.);
#129=EDGE_CURVE('',#137,#145,#29,.T.);
#130=EDGE_CURVE('',#136,#140,#30,.F.);
#131=EDGE_CURVE('',#148,#157,#176,.T.);
#132=EDGE_CURVE('',#150,#156,#177,.T.);
#133=EDGE_CURVE('',#141,#134,#31,.T.);
#134=VERTEX_POINT('',#382);
#135=VERTEX_POINT('',#383);
#136=VERTEX_POINT('',#385);
#137=VERTEX_POINT('',#387);
#138=VERTEX_POINT('',#389);
#139=VERTEX_POINT('',#391);
#140=VERTEX_POINT('',#395);
#141=VERTEX_POINT('',#396);
#142=VERTEX_POINT('',#398);
#143=VERTEX_POINT('',#400);
#144=VERTEX_POINT('',#402);
#145=VERTEX_POINT('',#404);
#146=VERTEX_POINT('',#411);
#147=VERTEX_POINT('',#413);
#148=VERTEX_POINT('',#415);
#149=VERTEX_POINT('',#416);
#150=VERTEX_POINT('',#418);
#151=VERTEX_POINT('',#420);
#152=VERTEX_POINT('',#424);
#153=VERTEX_POINT('',#427);
#154=VERTEX_POINT('',#429);
#155=VERTEX_POINT('',#433);
#156=VERTEX_POINT('',#437);
#157=VERTEX_POINT('',#439);
#158=LINE('',#381,#178);
#159=LINE('',#384,#179);
#160=LINE('',#386,#180);
#161=LINE('',#388,#181);
#162=LINE('',#390,#182);
#163=LINE('',#392,#183);
#164=LINE('',#394,#184);
#165=LINE('',#397,#185);
#166=LINE('',#399,#186);
#167=LINE('',#401,#187);
#168=LINE('',#403,#188);
#169=LINE('',#405,#189);
#170=LINE('',#417,#190);
#171=LINE('',#421,#191);
#172=LINE('',#426,#192);
#173=LINE('',#428,#193);
#174=LINE('',#430,#194);
#175=LINE('',#438,#195);
#176=LINE('',#445,#196);
#177=LINE('',#447,#197);
#178=VECTOR('',#305,1.);
#179=VECTOR('',#306,1.);
#180=VECTOR('',#307,1.);
#181=VECTOR('',#308,1.);
#182=VECTOR('',#309,1.);
#183=VECTOR('',#310,1.);
#184=VECTOR('',#313,1.);
#185=VECTOR('',#314,1.);
#186=VECTOR('',#315,1.);
#187=VECTOR('',#316,1.);
#188=VECTOR('',#317,1.);
#189=VECTOR('',#318,1.);
#190=VECTOR('',#333,1.);
#191=VECTOR('',#336,1.);
#192=VECTOR('',#343,1.);
#193=VECTOR('',#344,1.);
#194=VECTOR('',#345,1.);
#195=VECTOR('',#356,1.);
#196=VECTOR('',#367,1.);
#197=VECTOR('',#370,1.);
#198=EDGE_LOOP('',(#32,#33,#34,#35,#36,#37));
#199=EDGE_LOOP('',(#38,#39,#40,#41,#42,#43));
#200=EDGE_LOOP('',(#44,#45,#46,#47));
#201=EDGE_LOOP('',(#48));
#202=EDGE_LOOP('',(#49));
#203=EDGE_LOOP('',(#50,#51,#52,#53));
#204=EDGE_LOOP('',(#54));
#205=EDGE_LOOP('',(#55));
#206=EDGE_LOOP('',(#56,#57,#58,#59));
#207=EDGE_LOOP('',(#60));
#208=EDGE_LOOP('',(#61));
#209=EDGE_LOOP('',(#62,#63,#64,#65,#66,#67,#68,#69));
#210=EDGE_LOOP('',(#70));
#211=EDGE_LOOP('',(#71));
#212=EDGE_LOOP('',(#72,#73,#74,#75));
#213=EDGE_LOOP('',(#76,#77,#78,#79,#80,#81,#82,#83));
#214=EDGE_LOOP('',(#84,#85,#86,#87));
#215=EDGE_LOOP('',(#88,#89,#90,#91));
#216=EDGE_LOOP('',(#92,#93,#94,#95));
#217=EDGE_LOOP('',(#96,#97,#98,#99));
#218=FACE_BOUND('',#198,.T.);
#219=FACE_BOUND('',#199,.T.);
#220=FACE_BOUND('',#200,.T.);
#221=FACE_BOUND('',#201,.T.);
#222=FACE_BOUND('',#202,.T.);
#223=FACE_BOUND('',#203,.T.);
#224=FACE_BOUND('',#204,.T.);
#225=FACE_BOUND('',#205,.T.);
#226=FACE_BOUND('',#206,.T.);
#227=FACE_BOUND('',#207,.T.);
#228=FACE_BOUND('',#208,.T.);
#229=FACE_BOUND('',#209,.T.);
#230=FACE_BOUND('',#210,.T.);
#231=FACE_BOUND('',#211,.T.);
#232=FACE_BOUND('',#212,.T.);
#233=FACE_BOUND('',#213,.T.);
#234=FACE_BOUND('',#214,.T.);
#235=FACE_BOUND('',#215,.T.);
#236=FACE_BOUND('',#216,.T.);
#237=FACE_BOUND('',#217,.T.);
#238=PLANE('',#273);
#239=PLANE('',#274);
#240=PLANE('',#275);
#241=PLANE('',#278);
#242=PLANE('',#285);
#243=PLANE('',#288);
#244=PLANE('',#296);
#245=PLANE('',#298);
#246=ADVANCED_FACE('',(#218),#238,.F.);
#247=ADVANCED_FACE('',(#219),#239,.T.);
#248=ADVANCED_FACE('',(#220),#240,.T.);
#249=ADVANCED_FACE('',(#221,#222,#223),#241,.F.);
#250=ADVANCED_FACE('',(#224,#225),#12,.F.);
#251=ADVANCED_FACE('',(#226),#242,.F.);
#252=ADVANCED_FACE('',(#227,#228),#13,.F.);
#253=ADVANCED_FACE('',(#229,#230,#231),#243,.T.);
#254=ADVANCED_FACE('',(#232),#14,.T.);
#255=ADVANCED_FACE('',(#233),#15,.F.);
#256=ADVANCED_FACE('',(#234),#244,.T.);
#257=ADVANCED_FACE('',(#235),#16,.F.);
#258=ADVANCED_FACE('',(#236),#245,.T.);
#259=ADVANCED_FACE('',(#237),#17,.F.);
#260=CLOSED_SHELL('',(#246,#247,#248,#249,#250,#251,#252,#253,#254,#255,
#256,#257,#258,#259));
#261=STYLED_ITEM('',(#262),#269);
#262=PRESENTATION_STYLE_ASSIGNMENT((#263));
#263=SURFACE_STYLE_USAGE(.BOTH.,#264);
#264=SURFACE_SIDE_STYLE('',(#265));
#265=SURFACE_STYLE_FILL_AREA(#266);
#266=FILL_AREA_STYLE('',(#267));
#267=FILL_AREA_STYLE_COLOUR('',#268);
#268=COLOUR_RGB('',0.972549019607843,0.529411764705882,0.00392156862745098);
#269=MANIFOLD_SOLID_BREP('Part 27',#260);
#270=SHAPE_DEFINITION_REPRESENTATION(#458,#271);
#271=SHAPE_REPRESENTATION('Part 27',(#272),#453);
#272=AXIS2_PLACEMENT_3D('',#379,#301,#302);
#273=AXIS2_PLACEMENT_3D('',#380,#303,#304);
#274=AXIS2_PLACEMENT_3D('',#393,#311,#312);
#275=AXIS2_PLACEMENT_3D('',#406,#319,#320);
#276=AXIS2_PLACEMENT_3D('',#407,#321,#322);
#277=AXIS2_PLACEMENT_3D('',#408,#323,#324);
#278=AXIS2_PLACEMENT_3D('',#409,#325,#326);
#279=AXIS2_PLACEMENT_3D('',#410,#327,#328);
#280=AXIS2_PLACEMENT_3D('',#412,#329,#330);
#281=AXIS2_PLACEMENT_3D('',#414,#331,#332);
#282=AXIS2_PLACEMENT_3D('',#419,#334,#335);
#283=AXIS2_PLACEMENT_3D('',#422,#337,#338);
#284=AXIS2_PLACEMENT_3D('',#423,#339,#340);
#285=AXIS2_PLACEMENT_3D('',#425,#341,#342);
#286=AXIS2_PLACEMENT_3D('',#431,#346,#347);
#287=AXIS2_PLACEMENT_3D('',#432,#348,#349);
#288=AXIS2_PLACEMENT_3D('',#434,#350,#351);
#289=AXIS2_PLACEMENT_3D('',#435,#352,#353);
#290=AXIS2_PLACEMENT_3D('',#436,#354,#355);
#291=AXIS2_PLACEMENT_3D('',#440,#357,#358);
#292=AXIS2_PLACEMENT_3D('',#441,#359,#360);
#293=AXIS2_PLACEMENT_3D('',#442,#361,#362);
#294=AXIS2_PLACEMENT_3D('',#443,#363,#364);
#295=AXIS2_PLACEMENT_3D('',#444,#365,#366);
#296=AXIS2_PLACEMENT_3D('',#446,#368,#369);
#297=AXIS2_PLACEMENT_3D('',#448,#371,#372);
#298=AXIS2_PLACEMENT_3D('',#449,#373,#374);
#299=AXIS2_PLACEMENT_3D('',#450,#375,#376);
#300=AXIS2_PLACEMENT_3D('',#451,#377,#378);
#301=DIRECTION('',(0.,0.,1.));
#302=DIRECTION('',(1.,0.,0.));
#303=DIRECTION('',(0.5,0.866025403784438,0.));
#304=DIRECTION('',(-0.866025403784437,0.5,0.));
#305=DIRECTION('',(0.,0.,-1.));
#306=DIRECTION('',(-0.866025403784439,0.5,0.));
#307=DIRECTION('',(0.,0.,1.));
#308=DIRECTION('',(-0.866025403784437,0.5,0.));
#309=DIRECTION('',(0.,0.,1.));
#310=DIRECTION('',(-0.866025403784438,0.5,0.));
#311=DIRECTION('',(-1.,0.,0.));
#312=DIRECTION('',(0.,0.,1.));
#313=DIRECTION('',(0.,-1.,0.));
#314=DIRECTION('',(0.,0.,-1.));
#315=DIRECTION('',(0.,-1.,0.));
#316=DIRECTION('',(0.,0.,1.));
#317=DIRECTION('',(0.,-1.,0.));
#318=DIRECTION('',(0.,0.,1.));
#319=DIRECTION('',(0.,0.,-1.));
#320=DIRECTION('',(-1.,0.,0.));
#321=DIRECTION('',(0.,0.,-1.));
#322=DIRECTION('',(-1.,0.,0.));
#323=DIRECTION('',(0.,0.,-1.));
#324=DIRECTION('',(-1.,0.,0.));
#325=DIRECTION('',(0.,0.,1.));
#326=DIRECTION('',(1.,0.,0.));
#327=DIRECTION('',(0.,0.,1.));
#328=DIRECTION('',(1.,0.,0.));
#329=DIRECTION('',(0.,0.,1.));
#330=DIRECTION('',(1.,0.,0.));
#331=DIRECTION('',(0.,0.,1.));
#332=DIRECTION('',(1.,0.,0.));
#333=DIRECTION('',(-0.781926678392169,0.623370411247269,0.));
#334=DIRECTION('',(0.,0.,1.));
#335=DIRECTION('',(1.,0.,0.));
#336=DIRECTION('',(-0.353013444986719,-0.935618248891399,0.));
#337=DIRECTION('',(0.,0.,1.));
#338=DIRECTION('',(1.,0.,0.));
#339=DIRECTION('',(0.,0.,1.));
#340=DIRECTION('',(1.,0.,0.));
#341=DIRECTION('',(0.9356182488914,-0.353013444986719,0.));
#342=DIRECTION('',(0.353013444986719,0.935618248891399,0.));
#343=DIRECTION('',(0.,0.,1.));
#344=DIRECTION('',(0.,0.,1.));
#345=DIRECTION('',(0.353013444986719,0.935618248891399,0.));
#346=DIRECTION('',(0.,0.,1.));
#347=DIRECTION('',(1.,0.,0.));
#348=DIRECTION('',(0.,0.,1.));
#349=DIRECTION('',(1.,0.,0.));
#350=DIRECTION('',(0.,0.,1.));
#351=DIRECTION('',(1.,0.,0.));
#352=DIRECTION('',(0.,0.,1.));
#353=DIRECTION('',(1.,0.,0.));
#354=DIRECTION('',(0.,0.,1.));
#355=DIRECTION('',(1.,0.,0.));
#356=DIRECTION('',(0.781926678392169,-0.623370411247269,0.));
#357=DIRECTION('',(0.,0.,1.));
#358=DIRECTION('',(1.,0.,0.));
#359=DIRECTION('',(0.,0.,1.));
#360=DIRECTION('',(1.,0.,0.));
#361=DIRECTION('',(0.,0.,1.));
#362=DIRECTION('',(1.,0.,0.));
#363=DIRECTION('',(0.,0.,-1.));
#364=DIRECTION('',(-1.,0.,0.));
#365=DIRECTION('',(0.,0.,1.));
#366=DIRECTION('',(1.,0.,0.));
#367=DIRECTION('',(0.,0.,1.));
#368=DIRECTION('',(-0.623370411247269,-0.781926678392169,0.));
#369=DIRECTION('',(0.781926678392169,-0.623370411247269,0.));
#370=DIRECTION('',(0.,0.,1.));
#371=DIRECTION('',(0.,0.,1.));
#372=DIRECTION('',(1.,0.,0.));
#373=DIRECTION('',(0.,0.,-1.));
#374=DIRECTION('',(-1.,0.,0.));
#375=DIRECTION('',(0.,0.,-1.));
#376=DIRECTION('',(-1.,0.,0.));
#377=DIRECTION('',(0.,0.,-1.));
#378=DIRECTION('',(-1.,0.,0.));
#379=CARTESIAN_POINT('',(0.,0.,0.));
#380=CARTESIAN_POINT('',(0.0622041468609055,-0.0359135809348548,0.130982));
#381=CARTESIAN_POINT('',(0.0636182261620048,-0.03673,0.127406924962997));
#382=CARTESIAN_POINT('',(0.0636182261620048,-0.03673,0.1237183558));
#383=CARTESIAN_POINT('',(0.0636182261620048,-0.03673,0.128374080762997));
#384=CARTESIAN_POINT('',(0.068955218060087,-0.0398113137090207,0.1237183558));
#385=CARTESIAN_POINT('',(0.0742922099581693,-0.0428926274180413,0.1237183558));
#386=CARTESIAN_POINT('',(0.0742922099581693,-0.0428926274180413,0.130982));
#387=CARTESIAN_POINT('',(0.0742922099581693,-0.0428926274180413,0.133984));
#388=CARTESIAN_POINT('',(0.0622041468609055,-0.0359135809348548,0.133984));
#389=CARTESIAN_POINT('',(0.0616276490520237,-0.0355807397697098,0.133984));
#390=CARTESIAN_POINT('',(0.0616276490520237,-0.0355807397697098,0.130982));
#391=CARTESIAN_POINT('',(0.0616276490520237,-0.0355807397697098,0.128374080762997));
#392=CARTESIAN_POINT('',(0.068955218060087,-0.0398113137090207,0.128374080762997));
#393=CARTESIAN_POINT('',(0.,0.0718271618697097,0.130982));
#394=CARTESIAN_POINT('',(0.,0.0796226274180412,0.1237183558));
#395=CARTESIAN_POINT('',(0.,0.0857852548360825,0.1237183558));
#396=CARTESIAN_POINT('',(0.,0.07346,0.1237183558));
#397=CARTESIAN_POINT('',(0.,0.07346,0.127406924962997));
#398=CARTESIAN_POINT('',(0.,0.07346,0.128374080762997));
#399=CARTESIAN_POINT('',(0.,0.0796226274180412,0.128374080762997));
#400=CARTESIAN_POINT('',(4.35738390702699E-18,0.0711614795394194,0.128374080762997));
#401=CARTESIAN_POINT('',(4.35738390702699E-18,0.0711614795394194,0.130982));
#402=CARTESIAN_POINT('',(4.35738390702699E-18,0.0711614795394194,0.133984));
#403=CARTESIAN_POINT('',(0.,0.0718271618697097,0.133984));
#404=CARTESIAN_POINT('',(0.,0.0857852548360825,0.133984));
#405=CARTESIAN_POINT('',(0.,0.0857852548360825,0.130982));
#406=CARTESIAN_POINT('',(0.,-0.07213,0.128374080762997));
#407=CARTESIAN_POINT('',(-2.42861286636753E-17,2.0832928289249E-18,0.128374080762997));
#408=CARTESIAN_POINT('',(1.03164121615128E-16,4.16333634234434E-16,0.128374080762997));
#409=CARTESIAN_POINT('',(0.0889968151033209,1.11022302462516E-16,0.130984));
#410=CARTESIAN_POINT('',(0.0338613811429112,0.0433405914483697,0.130984));
#411=CARTESIAN_POINT('',(0.0358613811429112,0.0433405914483697,0.130984));
#412=CARTESIAN_POINT('',(0.0545900383402727,0.00670281388728311,0.130984));
#413=CARTESIAN_POINT('',(0.0565900383402727,0.00670281388728311,0.130984));
#414=CARTESIAN_POINT('',(1.03164121615128E-16,4.16333634234434E-16,0.130984));
#415=CARTESIAN_POINT('',(0.0674179332875971,-0.0227767083106473,0.130984));
#416=CARTESIAN_POINT('',(0.0291566912024706,0.0649141242593858,0.130984));
#417=CARTESIAN_POINT('',(0.058175875358407,-0.0154087215015301,0.130984));
#418=CARTESIAN_POINT('',(0.048933817429217,-0.00804073469241299,0.130984));
#419=CARTESIAN_POINT('',(-2.42861286636753E-17,2.0832928289249E-18,0.130984));
#420=CARTESIAN_POINT('',(0.0215210473854822,0.0446767995946615,0.130984));
#421=CARTESIAN_POINT('',(0.0253388692939764,0.0547954619270237,0.130984));
#422=CARTESIAN_POINT('',(0.0338613811429112,0.0433405914483697,0.130982));
#423=CARTESIAN_POINT('',(0.0338613811429112,0.0433405914483697,0.133984));
#424=CARTESIAN_POINT('',(0.0358613811429112,0.0433405914483697,0.133984));
#425=CARTESIAN_POINT('',(0.0253388692939764,0.0547954619270237,0.130982));
#426=CARTESIAN_POINT('',(0.0291566912024706,0.0649141242593858,0.130982));
#427=CARTESIAN_POINT('',(0.0291566912024706,0.0649141242593858,0.133984));
#428=CARTESIAN_POINT('',(0.0215210473854822,0.0446767995946615,0.130982));
#429=CARTESIAN_POINT('',(0.0215210473854822,0.0446767995946615,0.133984));
#430=CARTESIAN_POINT('',(0.0253388692939764,0.0547954619270237,0.133984));
#431=CARTESIAN_POINT('',(0.0545900383402727,0.00670281388728311,0.130982));
#432=CARTESIAN_POINT('',(0.0545900383402727,0.00670281388728311,0.133984));
#433=CARTESIAN_POINT('',(0.0565900383402727,0.00670281388728311,0.133984));
#434=CARTESIAN_POINT('',(-2.77555756156289E-17,1.38777878078145E-17,0.133984));
#435=CARTESIAN_POINT('',(1.03164121615128E-16,4.16333634234434E-16,0.133984));
#436=CARTESIAN_POINT('',(-2.42861286636753E-17,2.0832928289249E-18,0.133984));
#437=CARTESIAN_POINT('',(0.048933817429217,-0.00804073469241299,0.133984));
#438=CARTESIAN_POINT('',(0.058175875358407,-0.0154087215015301,0.133984));
#439=CARTESIAN_POINT('',(0.0674179332875971,-0.0227767083106473,0.133984));
#440=CARTESIAN_POINT('',(1.87350135405495E-16,-1.42247325030098E-16,0.133984));
#441=CARTESIAN_POINT('',(-2.42861286636753E-17,2.0832928289249E-18,0.133984));
#442=CARTESIAN_POINT('',(-2.42861286636753E-17,2.0832928289249E-18,0.130982));
#443=CARTESIAN_POINT('',(-2.42861286636753E-17,2.0832928289249E-18,0.1237183558));
#444=CARTESIAN_POINT('',(1.87350135405495E-16,-1.42247325030098E-16,0.130982));
#445=CARTESIAN_POINT('',(0.0674179332875971,-0.0227767083106473,0.130982));
#446=CARTESIAN_POINT('',(0.058175875358407,-0.0154087215015301,0.130982));
#447=CARTESIAN_POINT('',(0.048933817429217,-0.00804073469241299,0.130982));
#448=CARTESIAN_POINT('',(-2.42861286636753E-17,2.0832928289249E-18,0.130982));
#449=CARTESIAN_POINT('',(0.,-0.0797372864364906,0.1237183558));
#450=CARTESIAN_POINT('',(-2.42861286636753E-17,2.0832928289249E-18,0.1237183558));
#451=CARTESIAN_POINT('',(-2.42861286636753E-17,2.0832928289249E-18,0.127406924962997));
#452=MECHANICAL_DESIGN_GEOMETRIC_PRESENTATION_REPRESENTATION('',(#261),
#453);
#453=(
GEOMETRIC_REPRESENTATION_CONTEXT(3)
GLOBAL_UNCERTAINTY_ASSIGNED_CONTEXT((#454))
GLOBAL_UNIT_ASSIGNED_CONTEXT((#457,#456,#455))
REPRESENTATION_CONTEXT('Part 27','TOP_LEVEL_ASSEMBLY_PART')
);
#454=UNCERTAINTY_MEASURE_WITH_UNIT(LENGTH_MEASURE(1.E-8),#457,
'DISTANCE_ACCURACY_VALUE','Maximum Tolerance applied to model');
#455=(
NAMED_UNIT(*)
SI_UNIT($,.STERADIAN.)
SOLID_ANGLE_UNIT()
);
#456=(
NAMED_UNIT(*)
PLANE_ANGLE_UNIT()
SI_UNIT($,.RADIAN.)
);
#457=(
LENGTH_UNIT()
NAMED_UNIT(*)
SI_UNIT($,.METRE.)
);
#458=PRODUCT_DEFINITION_SHAPE('','',#459);
#459=PRODUCT_DEFINITION('','',#461,#460);
#460=PRODUCT_DEFINITION_CONTEXT('',#467,'design');
#461=PRODUCT_DEFINITION_FORMATION_WITH_SPECIFIED_SOURCE('','',#463,
 .NOT_KNOWN.);
#462=PRODUCT_RELATED_PRODUCT_CATEGORY('','',(#463));
#463=PRODUCT('Part 27','Part 27','Part 27',(#465));
#464=PRODUCT_CATEGORY('','');
#465=PRODUCT_CONTEXT('',#467,'mechanical');
#466=APPLICATION_PROTOCOL_DEFINITION('international standard',
'ap242_managed_model_based_3d_engineering',2011,#467);
#467=APPLICATION_CONTEXT('managed model based 3d engineering');
ENDSEC;
END-ISO-10303-21;
