ISO-10303-21;
HEADER;
/* Generated by software containing ST-Developer
 * from STEP Tools, Inc. (www.steptools.com) 
 */
/* OPTION: using custom renumber hook */

FILE_DESCRIPTION(
/* description */ ('STEP AP242',
'CAx-IF Rec.Pracs.---Representation and Presentation of Product Manufa
cturing Information (PMI)---4.0---2014-10-13',
'CAx-IF Rec.Pracs.---3D Tessellated Geometry---0.4---2014-09-14','2;1'),

/* implementation_level */ '2;1');

FILE_NAME(
/* name */ '68fb1e0d34e6012dc82c9438',
/* time_stamp */ '2025-10-24T06:34:53Z',
/* author */ (''),
/* organization */ (''),
/* preprocessor_version */ 'ST-DEVELOPER v20',
/* originating_system */ 'ONSHAPE BY PTC INC, 1.205',
/* authorisation */ '  ');

FILE_SCHEMA (('AP242_MANAGED_MODEL_BASED_3D_ENGINEERING_MIM_LF { 1 0 10303 442 1 1 4 }'));
ENDSEC;

DATA;
#10=SHAPE_REPRESENTATION_RELATIONSHIP('','',#111,#11);
#11=ADVANCED_BREP_SHAPE_REPRESENTATION('',(#109),#181);
#12=CYLINDRICAL_SURFACE('',#116,0.03659632);
#13=CYLINDRICAL_SURFACE('',#120,0.0310534558);
#14=LINE('',#158,#22);
#15=LINE('',#162,#23);
#16=LINE('',#167,#24);
#17=LINE('',#168,#25);
#18=LINE('',#173,#26);
#19=LINE('',#174,#27);
#20=LINE('',#176,#28);
#21=LINE('',#177,#29);
#22=VECTOR('',#129,1.);
#23=VECTOR('',#132,1.);
#24=VECTOR('',#137,1.);
#25=VECTOR('',#138,1.);
#26=VECTOR('',#143,1.);
#27=VECTOR('',#144,1.);
#28=VECTOR('',#147,1.);
#29=VECTOR('',#148,1.);
#30=ORIENTED_EDGE('',*,*,#54,.T.);
#31=ORIENTED_EDGE('',*,*,#55,.T.);
#32=ORIENTED_EDGE('',*,*,#56,.F.);
#33=ORIENTED_EDGE('',*,*,#57,.F.);
#34=ORIENTED_EDGE('',*,*,#58,.T.);
#35=ORIENTED_EDGE('',*,*,#59,.F.);
#36=ORIENTED_EDGE('',*,*,#54,.F.);
#37=ORIENTED_EDGE('',*,*,#60,.T.);
#38=ORIENTED_EDGE('',*,*,#61,.T.);
#39=ORIENTED_EDGE('',*,*,#62,.F.);
#40=ORIENTED_EDGE('',*,*,#58,.F.);
#41=ORIENTED_EDGE('',*,*,#63,.T.);
#42=ORIENTED_EDGE('',*,*,#64,.F.);
#43=ORIENTED_EDGE('',*,*,#56,.T.);
#44=ORIENTED_EDGE('',*,*,#65,.T.);
#45=ORIENTED_EDGE('',*,*,#61,.F.);
#46=ORIENTED_EDGE('',*,*,#57,.T.);
#47=ORIENTED_EDGE('',*,*,#64,.T.);
#48=ORIENTED_EDGE('',*,*,#63,.F.);
#49=ORIENTED_EDGE('',*,*,#60,.F.);
#50=ORIENTED_EDGE('',*,*,#55,.F.);
#51=ORIENTED_EDGE('',*,*,#59,.T.);
#52=ORIENTED_EDGE('',*,*,#62,.T.);
#53=ORIENTED_EDGE('',*,*,#65,.F.);
#54=EDGE_CURVE('',#66,#67,#74,.T.);
#55=EDGE_CURVE('',#67,#68,#14,.T.);
#56=EDGE_CURVE('',#69,#68,#75,.T.);
#57=EDGE_CURVE('',#66,#69,#15,.T.);
#58=EDGE_CURVE('',#70,#71,#76,.T.);
#59=EDGE_CURVE('',#67,#71,#16,.T.);
#60=EDGE_CURVE('',#66,#70,#17,.T.);
#61=EDGE_CURVE('',#72,#73,#77,.T.);
#62=EDGE_CURVE('',#71,#73,#18,.T.);
#63=EDGE_CURVE('',#70,#72,#19,.T.);
#64=EDGE_CURVE('',#69,#72,#20,.T.);
#65=EDGE_CURVE('',#68,#73,#21,.T.);
#66=VERTEX_POINT('',#156);
#67=VERTEX_POINT('',#157);
#68=VERTEX_POINT('',#159);
#69=VERTEX_POINT('',#161);
#70=VERTEX_POINT('',#165);
#71=VERTEX_POINT('',#166);
#72=VERTEX_POINT('',#171);
#73=VERTEX_POINT('',#172);
#74=CIRCLE('',#114,0.03659632);
#75=CIRCLE('',#115,0.0310534558);
#76=CIRCLE('',#117,0.03659632);
#77=CIRCLE('',#119,0.0310534558);
#78=EDGE_LOOP('',(#30,#31,#32,#33));
#79=EDGE_LOOP('',(#34,#35,#36,#37));
#80=EDGE_LOOP('',(#38,#39,#40,#41));
#81=EDGE_LOOP('',(#42,#43,#44,#45));
#82=EDGE_LOOP('',(#46,#47,#48,#49));
#83=EDGE_LOOP('',(#50,#51,#52,#53));
#84=FACE_BOUND('',#78,.T.);
#85=FACE_BOUND('',#79,.T.);
#86=FACE_BOUND('',#80,.T.);
#87=FACE_BOUND('',#81,.T.);
#88=FACE_BOUND('',#82,.T.);
#89=FACE_BOUND('',#83,.T.);
#90=PLANE('',#113);
#91=PLANE('',#118);
#92=PLANE('',#121);
#93=PLANE('',#122);
#94=ADVANCED_FACE('',(#84),#90,.F.);
#95=ADVANCED_FACE('',(#85),#12,.T.);
#96=ADVANCED_FACE('',(#86),#91,.T.);
#97=ADVANCED_FACE('',(#87),#13,.F.);
#98=ADVANCED_FACE('',(#88),#92,.F.);
#99=ADVANCED_FACE('',(#89),#93,.T.);
#100=CLOSED_SHELL('',(#94,#95,#96,#97,#98,#99));
#101=STYLED_ITEM('',(#102),#109);
#102=PRESENTATION_STYLE_ASSIGNMENT((#103));
#103=SURFACE_STYLE_USAGE(.BOTH.,#104);
#104=SURFACE_SIDE_STYLE('',(#105));
#105=SURFACE_STYLE_FILL_AREA(#106);
#106=FILL_AREA_STYLE('',(#107));
#107=FILL_AREA_STYLE_COLOUR('',#108);
#108=COLOUR_RGB('',0.768627450980392,0.886274509803922,0.952941176470588);
#109=MANIFOLD_SOLID_BREP('Part 2',#100);
#110=SHAPE_DEFINITION_REPRESENTATION(#186,#111);
#111=SHAPE_REPRESENTATION('Part 2',(#112),#181);
#112=AXIS2_PLACEMENT_3D('',#153,#123,#124);
#113=AXIS2_PLACEMENT_3D('',#154,#125,#126);
#114=AXIS2_PLACEMENT_3D('',#155,#127,#128);
#115=AXIS2_PLACEMENT_3D('',#160,#130,#131);
#116=AXIS2_PLACEMENT_3D('',#163,#133,#134);
#117=AXIS2_PLACEMENT_3D('',#164,#135,#136);
#118=AXIS2_PLACEMENT_3D('',#169,#139,#140);
#119=AXIS2_PLACEMENT_3D('',#170,#141,#142);
#120=AXIS2_PLACEMENT_3D('',#175,#145,#146);
#121=AXIS2_PLACEMENT_3D('',#178,#149,#150);
#122=AXIS2_PLACEMENT_3D('',#179,#151,#152);
#123=DIRECTION('',(0.,0.,1.));
#124=DIRECTION('',(1.,0.,0.));
#125=DIRECTION('',(-1.,0.,0.));
#126=DIRECTION('',(0.,0.,1.));
#127=DIRECTION('',(1.,0.,0.));
#128=DIRECTION('',(0.,0.,-1.));
#129=DIRECTION('',(0.,0.,-1.));
#130=DIRECTION('',(1.,0.,0.));
#131=DIRECTION('',(0.,0.,-1.));
#132=DIRECTION('',(0.,-1.22464679914735E-16,1.));
#133=DIRECTION('',(1.,0.,0.));
#134=DIRECTION('',(0.,0.,-1.));
#135=DIRECTION('',(1.,0.,0.));
#136=DIRECTION('',(0.,0.,-1.));
#137=DIRECTION('',(-1.,0.,0.));
#138=DIRECTION('',(-1.,0.,0.));
#139=DIRECTION('',(-1.,0.,0.));
#140=DIRECTION('',(0.,0.,1.));
#141=DIRECTION('',(1.,0.,0.));
#142=DIRECTION('',(0.,0.,-1.));
#143=DIRECTION('',(0.,0.,-1.));
#144=DIRECTION('',(0.,-1.22464679914735E-16,1.));
#145=DIRECTION('',(1.,0.,0.));
#146=DIRECTION('',(0.,0.,-1.));
#147=DIRECTION('',(-1.,0.,0.));
#148=DIRECTION('',(-1.,0.,0.));
#149=DIRECTION('',(0.,1.,1.22464679914735E-16));
#150=DIRECTION('',(1.,0.,0.));
#151=DIRECTION('',(0.,-1.,0.));
#152=DIRECTION('',(1.,0.,0.));
#153=CARTESIAN_POINT('',(0.,0.,0.));
#154=CARTESIAN_POINT('',(0.2064512,4.1423540698253E-18,-0.0338248879));
#155=CARTESIAN_POINT('',(0.2064512,0.,0.));
#156=CARTESIAN_POINT('',(0.2064512,4.48175661485723E-18,-0.03659632));
#157=CARTESIAN_POINT('',(0.2064512,0.,0.03659632));
#158=CARTESIAN_POINT('',(0.2064512,0.,0.0338248879));
#159=CARTESIAN_POINT('',(0.2064512,0.,0.0310534558));
#160=CARTESIAN_POINT('',(0.2064512,0.,0.));
#161=CARTESIAN_POINT('',(0.2064512,3.80295152479338E-18,-0.0310534558));
#162=CARTESIAN_POINT('',(0.2064512,4.1423540698253E-18,-0.0338248879));
#163=CARTESIAN_POINT('',(0.4826,0.,0.));
#164=CARTESIAN_POINT('',(0.1810512,0.,0.));
#165=CARTESIAN_POINT('',(0.1810512,4.48175661485723E-18,-0.03659632));
#166=CARTESIAN_POINT('',(0.1810512,0.,0.03659632));
#167=CARTESIAN_POINT('',(0.1937512,0.,0.03659632));
#168=CARTESIAN_POINT('',(0.1937512,4.48175661485722E-18,-0.03659632));
#169=CARTESIAN_POINT('',(0.1810512,4.1423540698253E-18,-0.0338248879));
#170=CARTESIAN_POINT('',(0.1810512,0.,0.));
#171=CARTESIAN_POINT('',(0.1810512,3.80295152479338E-18,-0.0310534558));
#172=CARTESIAN_POINT('',(0.1810512,0.,0.0310534558));
#173=CARTESIAN_POINT('',(0.1810512,0.,0.0338248879));
#174=CARTESIAN_POINT('',(0.1810512,4.1423540698253E-18,-0.0338248879));
#175=CARTESIAN_POINT('',(0.4826,0.,0.));
#176=CARTESIAN_POINT('',(0.1937512,3.80295152479338E-18,-0.0310534558));
#177=CARTESIAN_POINT('',(0.1937512,0.,0.0310534558));
#178=CARTESIAN_POINT('',(0.3818015,-1.3997712914254E-17,0.114299999999998));
#179=CARTESIAN_POINT('',(0.3818015,0.,-0.114299999999998));
#180=MECHANICAL_DESIGN_GEOMETRIC_PRESENTATION_REPRESENTATION('',(#101),
#181);
#181=(
GEOMETRIC_REPRESENTATION_CONTEXT(3)
GLOBAL_UNCERTAINTY_ASSIGNED_CONTEXT((#182))
GLOBAL_UNIT_ASSIGNED_CONTEXT((#185,#184,#183))
REPRESENTATION_CONTEXT('Part 2','TOP_LEVEL_ASSEMBLY_PART')
);
#182=UNCERTAINTY_MEASURE_WITH_UNIT(LENGTH_MEASURE(1.E-8),#185,
'DISTANCE_ACCURACY_VALUE','Maximum Tolerance applied to model');
#183=(
NAMED_UNIT(*)
SI_UNIT($,.STERADIAN.)
SOLID_ANGLE_UNIT()
);
#184=(
NAMED_UNIT(*)
PLANE_ANGLE_UNIT()
SI_UNIT($,.RADIAN.)
);
#185=(
LENGTH_UNIT()
NAMED_UNIT(*)
SI_UNIT($,.METRE.)
);
#186=PRODUCT_DEFINITION_SHAPE('','',#187);
#187=PRODUCT_DEFINITION('','',#189,#188);
#188=PRODUCT_DEFINITION_CONTEXT('',#195,'design');
#189=PRODUCT_DEFINITION_FORMATION_WITH_SPECIFIED_SOURCE('','',#191,
 .NOT_KNOWN.);
#190=PRODUCT_RELATED_PRODUCT_CATEGORY('','',(#191));
#191=PRODUCT('Part 2','Part 2','Part 2',(#193));
#192=PRODUCT_CATEGORY('','');
#193=PRODUCT_CONTEXT('',#195,'mechanical');
#194=APPLICATION_PROTOCOL_DEFINITION('international standard',
'ap242_managed_model_based_3d_engineering',2011,#195);
#195=APPLICATION_CONTEXT('managed model based 3d engineering');
ENDSEC;
END-ISO-10303-21;
