ISO-10303-21;
HEADER;
/* Generated by software containing ST-Developer
 * from STEP Tools, Inc. (www.steptools.com) 
 */
/* OPTION: using custom renumber hook */

FILE_DESCRIPTION(
/* description */ ('STEP AP242',
'CAx-IF Rec.Pracs.---Representation and Presentation of Product Manufa
cturing Information (PMI)---4.0---2014-10-13',
'CAx-IF Rec.Pracs.---3D Tessellated Geometry---0.4---2014-09-14','2;1'),

/* implementation_level */ '2;1');

FILE_NAME(
/* name */ '68fb1e6a34e6012dc82c944c',
/* time_stamp */ '2025-10-24T06:36:26Z',
/* author */ (''),
/* organization */ (''),
/* preprocessor_version */ 'ST-DEVELOPER v20',
/* originating_system */ 'ONSHAPE BY PTC INC, 1.205',
/* authorisation */ '  ');

FILE_SCHEMA (('AP242_MANAGED_MODEL_BASED_3D_ENGINEERING_MIM_LF { 1 0 10303 442 1 1 4 }'));
ENDSEC;

DATA;
#10=SHAPE_REPRESENTATION_RELATIONSHIP('','',#109,#11);
#11=ADVANCED_BREP_SHAPE_REPRESENTATION('',(#107),#183);
#12=PLANE('',#120);
#13=PLANE('',#124);
#14=PLANE('',#125);
#15=ORIENTED_EDGE('',*,*,#31,.F.);
#16=ORIENTED_EDGE('',*,*,#32,.T.);
#17=ORIENTED_EDGE('',*,*,#33,.F.);
#18=ORIENTED_EDGE('',*,*,#34,.T.);
#19=ORIENTED_EDGE('',*,*,#35,.T.);
#20=ORIENTED_EDGE('',*,*,#36,.F.);
#21=ORIENTED_EDGE('',*,*,#33,.T.);
#22=ORIENTED_EDGE('',*,*,#31,.T.);
#23=ORIENTED_EDGE('',*,*,#35,.F.);
#24=ORIENTED_EDGE('',*,*,#37,.F.);
#25=ORIENTED_EDGE('',*,*,#38,.T.);
#26=ORIENTED_EDGE('',*,*,#34,.F.);
#27=ORIENTED_EDGE('',*,*,#32,.F.);
#28=ORIENTED_EDGE('',*,*,#37,.T.);
#29=ORIENTED_EDGE('',*,*,#36,.T.);
#30=ORIENTED_EDGE('',*,*,#38,.F.);
#31=EDGE_CURVE('',#39,#39,#47,.T.);
#32=EDGE_CURVE('',#40,#40,#48,.T.);
#33=EDGE_CURVE('',#41,#41,#49,.T.);
#34=EDGE_CURVE('',#42,#42,#50,.T.);
#35=EDGE_CURVE('',#43,#43,#51,.T.);
#36=EDGE_CURVE('',#44,#44,#52,.T.);
#37=EDGE_CURVE('',#45,#45,#53,.T.);
#38=EDGE_CURVE('',#46,#46,#54,.T.);
#39=VERTEX_POINT('',#161);
#40=VERTEX_POINT('',#163);
#41=VERTEX_POINT('',#166);
#42=VERTEX_POINT('',#168);
#43=VERTEX_POINT('',#171);
#44=VERTEX_POINT('',#173);
#45=VERTEX_POINT('',#177);
#46=VERTEX_POINT('',#179);
#47=CIRCLE('',#112,0.00396875);
#48=CIRCLE('',#113,0.00396875);
#49=CIRCLE('',#115,0.00798195);
#50=CIRCLE('',#116,0.00798195);
#51=CIRCLE('',#118,0.0261985);
#52=CIRCLE('',#119,0.0261985);
#53=CIRCLE('',#122,0.0300863);
#54=CIRCLE('',#123,0.0300863);
#55=EDGE_LOOP('',(#15));
#56=EDGE_LOOP('',(#16));
#57=EDGE_LOOP('',(#17));
#58=EDGE_LOOP('',(#18));
#59=EDGE_LOOP('',(#19));
#60=EDGE_LOOP('',(#20));
#61=EDGE_LOOP('',(#21));
#62=EDGE_LOOP('',(#22));
#63=EDGE_LOOP('',(#23));
#64=EDGE_LOOP('',(#24));
#65=EDGE_LOOP('',(#25));
#66=EDGE_LOOP('',(#26));
#67=EDGE_LOOP('',(#27));
#68=EDGE_LOOP('',(#28));
#69=EDGE_LOOP('',(#29));
#70=EDGE_LOOP('',(#30));
#71=FACE_BOUND('',#55,.T.);
#72=FACE_BOUND('',#56,.T.);
#73=FACE_BOUND('',#57,.T.);
#74=FACE_BOUND('',#58,.T.);
#75=FACE_BOUND('',#59,.T.);
#76=FACE_BOUND('',#60,.T.);
#77=FACE_BOUND('',#61,.T.);
#78=FACE_BOUND('',#62,.T.);
#79=FACE_BOUND('',#63,.T.);
#80=FACE_BOUND('',#64,.T.);
#81=FACE_BOUND('',#65,.T.);
#82=FACE_BOUND('',#66,.T.);
#83=FACE_BOUND('',#67,.T.);
#84=FACE_BOUND('',#68,.T.);
#85=FACE_BOUND('',#69,.T.);
#86=FACE_BOUND('',#70,.T.);
#87=CYLINDRICAL_SURFACE('',#111,0.00396875);
#88=CYLINDRICAL_SURFACE('',#114,0.00798195);
#89=CYLINDRICAL_SURFACE('',#117,0.0261985);
#90=CYLINDRICAL_SURFACE('',#121,0.0300863);
#91=ADVANCED_FACE('',(#71,#72),#87,.F.);
#92=ADVANCED_FACE('',(#73,#74),#88,.F.);
#93=ADVANCED_FACE('',(#75,#76),#89,.T.);
#94=ADVANCED_FACE('',(#77,#78,#79),#12,.F.);
#95=ADVANCED_FACE('',(#80,#81),#90,.T.);
#96=ADVANCED_FACE('',(#82,#83,#84),#13,.T.);
#97=ADVANCED_FACE('',(#85,#86),#14,.F.);
#98=CLOSED_SHELL('',(#91,#92,#93,#94,#95,#96,#97));
#99=STYLED_ITEM('',(#100),#107);
#100=PRESENTATION_STYLE_ASSIGNMENT((#101));
#101=SURFACE_STYLE_USAGE(.BOTH.,#102);
#102=SURFACE_SIDE_STYLE('',(#103));
#103=SURFACE_STYLE_FILL_AREA(#104);
#104=FILL_AREA_STYLE('',(#105));
#105=FILL_AREA_STYLE_COLOUR('',#106);
#106=COLOUR_RGB('',0.917647058823529,0.917647058823529,0.917647058823529);
#107=MANIFOLD_SOLID_BREP('Part 1',#98);
#108=SHAPE_DEFINITION_REPRESENTATION(#188,#109);
#109=SHAPE_REPRESENTATION('Part 1',(#110),#183);
#110=AXIS2_PLACEMENT_3D('',#158,#126,#127);
#111=AXIS2_PLACEMENT_3D('',#159,#128,#129);
#112=AXIS2_PLACEMENT_3D('',#160,#130,#131);
#113=AXIS2_PLACEMENT_3D('',#162,#132,#133);
#114=AXIS2_PLACEMENT_3D('',#164,#134,#135);
#115=AXIS2_PLACEMENT_3D('',#165,#136,#137);
#116=AXIS2_PLACEMENT_3D('',#167,#138,#139);
#117=AXIS2_PLACEMENT_3D('',#169,#140,#141);
#118=AXIS2_PLACEMENT_3D('',#170,#142,#143);
#119=AXIS2_PLACEMENT_3D('',#172,#144,#145);
#120=AXIS2_PLACEMENT_3D('',#174,#146,#147);
#121=AXIS2_PLACEMENT_3D('',#175,#148,#149);
#122=AXIS2_PLACEMENT_3D('',#176,#150,#151);
#123=AXIS2_PLACEMENT_3D('',#178,#152,#153);
#124=AXIS2_PLACEMENT_3D('',#180,#154,#155);
#125=AXIS2_PLACEMENT_3D('',#181,#156,#157);
#126=DIRECTION('',(0.,0.,1.));
#127=DIRECTION('',(1.,0.,0.));
#128=DIRECTION('',(-1.,0.,0.));
#129=DIRECTION('',(0.,0.,1.));
#130=DIRECTION('',(-1.,0.,0.));
#131=DIRECTION('',(0.,0.,1.));
#132=DIRECTION('',(-1.,0.,0.));
#133=DIRECTION('',(0.,0.,1.));
#134=DIRECTION('',(-1.,0.,0.));
#135=DIRECTION('',(0.,0.,1.));
#136=DIRECTION('',(-1.,0.,0.));
#137=DIRECTION('',(0.,0.,1.));
#138=DIRECTION('',(-1.,0.,0.));
#139=DIRECTION('',(0.,0.,1.));
#140=DIRECTION('',(-1.,0.,0.));
#141=DIRECTION('',(0.,0.,1.));
#142=DIRECTION('',(-1.,0.,0.));
#143=DIRECTION('',(0.,0.,1.));
#144=DIRECTION('',(-1.,0.,0.));
#145=DIRECTION('',(0.,0.,1.));
#146=DIRECTION('',(-1.,0.,0.));
#147=DIRECTION('',(0.,-1.,0.));
#148=DIRECTION('',(1.,0.,0.));
#149=DIRECTION('',(0.,0.,-1.));
#150=DIRECTION('',(-1.,0.,0.));
#151=DIRECTION('',(0.,0.,1.));
#152=DIRECTION('',(-1.,0.,0.));
#153=DIRECTION('',(0.,0.,1.));
#154=DIRECTION('',(-1.,0.,0.));
#155=DIRECTION('',(0.,-1.,0.));
#156=DIRECTION('',(-1.,0.,0.));
#157=DIRECTION('',(0.,-1.,0.));
#158=CARTESIAN_POINT('',(0.,0.,0.));
#159=CARTESIAN_POINT('',(0.1397,-0.01309925,3.6049722235143E-18));
#160=CARTESIAN_POINT('',(0.1397,-0.01309925,3.6049722235143E-18));
#161=CARTESIAN_POINT('',(0.1397,-0.01309925,0.00396875));
#162=CARTESIAN_POINT('',(0.10795,-0.01309925,3.6049722235143E-18));
#163=CARTESIAN_POINT('',(0.10795,-0.01309925,0.00396875));
#164=CARTESIAN_POINT('',(0.1397,0.,4.88753475922711E-19));
#165=CARTESIAN_POINT('',(0.1397,0.,4.88753475922711E-19));
#166=CARTESIAN_POINT('',(0.1397,0.,0.00798195));
#167=CARTESIAN_POINT('',(0.10795,0.,4.88753475922711E-19));
#168=CARTESIAN_POINT('',(0.10795,0.,0.00798195));
#169=CARTESIAN_POINT('',(0.1397,0.,1.6041954583731E-18));
#170=CARTESIAN_POINT('',(0.1397,0.,1.6041954583731E-18));
#171=CARTESIAN_POINT('',(0.1397,0.,0.0261985));
#172=CARTESIAN_POINT('',(0.1143,0.,1.6041954583731E-18));
#173=CARTESIAN_POINT('',(0.1143,0.,0.0261985));
#174=CARTESIAN_POINT('',(0.1397,0.,0.));
#175=CARTESIAN_POINT('',(0.10795,0.,0.));
#176=CARTESIAN_POINT('',(0.10795,0.,0.));
#177=CARTESIAN_POINT('',(0.10795,0.,0.0300863));
#178=CARTESIAN_POINT('',(0.1143,0.,0.));
#179=CARTESIAN_POINT('',(0.1143,0.,0.0300863));
#180=CARTESIAN_POINT('',(0.10795,0.,0.));
#181=CARTESIAN_POINT('',(0.1143,0.,0.));
#182=MECHANICAL_DESIGN_GEOMETRIC_PRESENTATION_REPRESENTATION('',(#99),#183);
#183=(
GEOMETRIC_REPRESENTATION_CONTEXT(3)
GLOBAL_UNCERTAINTY_ASSIGNED_CONTEXT((#184))
GLOBAL_UNIT_ASSIGNED_CONTEXT((#187,#186,#185))
REPRESENTATION_CONTEXT('Part 1','TOP_LEVEL_ASSEMBLY_PART')
);
#184=UNCERTAINTY_MEASURE_WITH_UNIT(LENGTH_MEASURE(1.E-8),#187,
'DISTANCE_ACCURACY_VALUE','Maximum Tolerance applied to model');
#185=(
NAMED_UNIT(*)
SI_UNIT($,.STERADIAN.)
SOLID_ANGLE_UNIT()
);
#186=(
NAMED_UNIT(*)
PLANE_ANGLE_UNIT()
SI_UNIT($,.RADIAN.)
);
#187=(
LENGTH_UNIT()
NAMED_UNIT(*)
SI_UNIT($,.METRE.)
);
#188=PRODUCT_DEFINITION_SHAPE('','',#189);
#189=PRODUCT_DEFINITION('','',#191,#190);
#190=PRODUCT_DEFINITION_CONTEXT('',#197,'design');
#191=PRODUCT_DEFINITION_FORMATION_WITH_SPECIFIED_SOURCE('','',#193,
 .NOT_KNOWN.);
#192=PRODUCT_RELATED_PRODUCT_CATEGORY('','',(#193));
#193=PRODUCT('Part 1','Part 1','Part 1',(#195));
#194=PRODUCT_CATEGORY('','');
#195=PRODUCT_CONTEXT('',#197,'mechanical');
#196=APPLICATION_PROTOCOL_DEFINITION('international standard',
'ap242_managed_model_based_3d_engineering',2011,#197);
#197=APPLICATION_CONTEXT('managed model based 3d engineering');
ENDSEC;
END-ISO-10303-21;
