%TF.GenerationSoftware,KiCad,Pcbnew,9.0.2*%
%TF.CreationDate,2025-06-24T16:46:08-07:00*%
%TF.ProjectId,power6V,706f7765-7236-4562-9e6b-696361645f70,rev?*%
%TF.SameCoordinates,Original*%
%TF.FileFunction,Legend,Bot*%
%TF.FilePolarity,Positive*%
%FSLAX46Y46*%
G04 Gerber Fmt 4.6, Leading zero omitted, Abs format (unit mm)*
G04 Created by KiCad (PCBNEW 9.0.2) date 2025-06-24 16:46:08*
%MOMM*%
%LPD*%
G01*
G04 APERTURE LIST*
%ADD10C,0.100000*%
G04 APERTURE END LIST*
D10*
X121994924Y-94809524D02*
X122794924Y-94809524D01*
X122794924Y-94390477D02*
X122642543Y-94466668D01*
X122528258Y-94123811D02*
X121994924Y-93933335D01*
X121994924Y-93933335D02*
X122528258Y-93742858D01*
X122033020Y-93133334D02*
X121994924Y-93209525D01*
X121994924Y-93209525D02*
X121994924Y-93361906D01*
X121994924Y-93361906D02*
X122033020Y-93438096D01*
X122033020Y-93438096D02*
X122109210Y-93476192D01*
X122109210Y-93476192D02*
X122413972Y-93476192D01*
X122413972Y-93476192D02*
X122490162Y-93438096D01*
X122490162Y-93438096D02*
X122528258Y-93361906D01*
X122528258Y-93361906D02*
X122528258Y-93209525D01*
X122528258Y-93209525D02*
X122490162Y-93133334D01*
X122490162Y-93133334D02*
X122413972Y-93095239D01*
X122413972Y-93095239D02*
X122337781Y-93095239D01*
X122337781Y-93095239D02*
X122261591Y-93476192D01*
X122528258Y-91800001D02*
X121880639Y-91800001D01*
X121880639Y-91800001D02*
X121804448Y-91838096D01*
X121804448Y-91838096D02*
X121766353Y-91876192D01*
X121766353Y-91876192D02*
X121728258Y-91952382D01*
X121728258Y-91952382D02*
X121728258Y-92066668D01*
X121728258Y-92066668D02*
X121766353Y-92142858D01*
X122033020Y-91800001D02*
X121994924Y-91876192D01*
X121994924Y-91876192D02*
X121994924Y-92028573D01*
X121994924Y-92028573D02*
X122033020Y-92104763D01*
X122033020Y-92104763D02*
X122071115Y-92142858D01*
X122071115Y-92142858D02*
X122147305Y-92180954D01*
X122147305Y-92180954D02*
X122375877Y-92180954D01*
X122375877Y-92180954D02*
X122452067Y-92142858D01*
X122452067Y-92142858D02*
X122490162Y-92104763D01*
X122490162Y-92104763D02*
X122528258Y-92028573D01*
X122528258Y-92028573D02*
X122528258Y-91876192D01*
X122528258Y-91876192D02*
X122490162Y-91800001D01*
X121994924Y-91304763D02*
X122033020Y-91380953D01*
X122033020Y-91380953D02*
X122071115Y-91419048D01*
X122071115Y-91419048D02*
X122147305Y-91457144D01*
X122147305Y-91457144D02*
X122375877Y-91457144D01*
X122375877Y-91457144D02*
X122452067Y-91419048D01*
X122452067Y-91419048D02*
X122490162Y-91380953D01*
X122490162Y-91380953D02*
X122528258Y-91304763D01*
X122528258Y-91304763D02*
X122528258Y-91190477D01*
X122528258Y-91190477D02*
X122490162Y-91114286D01*
X122490162Y-91114286D02*
X122452067Y-91076191D01*
X122452067Y-91076191D02*
X122375877Y-91038096D01*
X122375877Y-91038096D02*
X122147305Y-91038096D01*
X122147305Y-91038096D02*
X122071115Y-91076191D01*
X122071115Y-91076191D02*
X122033020Y-91114286D01*
X122033020Y-91114286D02*
X121994924Y-91190477D01*
X121994924Y-91190477D02*
X121994924Y-91304763D01*
X122528258Y-90809524D02*
X122528258Y-90504762D01*
X122794924Y-90695238D02*
X122109210Y-90695238D01*
X122109210Y-90695238D02*
X122033020Y-90657143D01*
X122033020Y-90657143D02*
X121994924Y-90580953D01*
X121994924Y-90580953D02*
X121994924Y-90504762D01*
X122528258Y-89628571D02*
X121728258Y-89628571D01*
X122490162Y-89628571D02*
X122528258Y-89552381D01*
X122528258Y-89552381D02*
X122528258Y-89400000D01*
X122528258Y-89400000D02*
X122490162Y-89323809D01*
X122490162Y-89323809D02*
X122452067Y-89285714D01*
X122452067Y-89285714D02*
X122375877Y-89247619D01*
X122375877Y-89247619D02*
X122147305Y-89247619D01*
X122147305Y-89247619D02*
X122071115Y-89285714D01*
X122071115Y-89285714D02*
X122033020Y-89323809D01*
X122033020Y-89323809D02*
X121994924Y-89400000D01*
X121994924Y-89400000D02*
X121994924Y-89552381D01*
X121994924Y-89552381D02*
X122033020Y-89628571D01*
X121994924Y-88790476D02*
X122033020Y-88866666D01*
X122033020Y-88866666D02*
X122109210Y-88904761D01*
X122109210Y-88904761D02*
X122794924Y-88904761D01*
X122033020Y-88180951D02*
X121994924Y-88257142D01*
X121994924Y-88257142D02*
X121994924Y-88409523D01*
X121994924Y-88409523D02*
X122033020Y-88485713D01*
X122033020Y-88485713D02*
X122109210Y-88523809D01*
X122109210Y-88523809D02*
X122413972Y-88523809D01*
X122413972Y-88523809D02*
X122490162Y-88485713D01*
X122490162Y-88485713D02*
X122528258Y-88409523D01*
X122528258Y-88409523D02*
X122528258Y-88257142D01*
X122528258Y-88257142D02*
X122490162Y-88180951D01*
X122490162Y-88180951D02*
X122413972Y-88142856D01*
X122413972Y-88142856D02*
X122337781Y-88142856D01*
X122337781Y-88142856D02*
X122261591Y-88523809D01*
X122528258Y-87799999D02*
X121994924Y-87799999D01*
X122452067Y-87799999D02*
X122490162Y-87761904D01*
X122490162Y-87761904D02*
X122528258Y-87685714D01*
X122528258Y-87685714D02*
X122528258Y-87571428D01*
X122528258Y-87571428D02*
X122490162Y-87495237D01*
X122490162Y-87495237D02*
X122413972Y-87457142D01*
X122413972Y-87457142D02*
X121994924Y-87457142D01*
X122528258Y-87190475D02*
X122528258Y-86885713D01*
X122794924Y-87076189D02*
X122109210Y-87076189D01*
X122109210Y-87076189D02*
X122033020Y-87038094D01*
X122033020Y-87038094D02*
X121994924Y-86961904D01*
X121994924Y-86961904D02*
X121994924Y-86885713D01*
X122528258Y-86695237D02*
X121994924Y-86504761D01*
X122528258Y-86314284D02*
X121994924Y-86504761D01*
X121994924Y-86504761D02*
X121804448Y-86580951D01*
X121804448Y-86580951D02*
X121766353Y-86619046D01*
X121766353Y-86619046D02*
X121728258Y-86695237D01*
X121994924Y-85285713D02*
X122033020Y-85361903D01*
X122033020Y-85361903D02*
X122071115Y-85399998D01*
X122071115Y-85399998D02*
X122147305Y-85438094D01*
X122147305Y-85438094D02*
X122375877Y-85438094D01*
X122375877Y-85438094D02*
X122452067Y-85399998D01*
X122452067Y-85399998D02*
X122490162Y-85361903D01*
X122490162Y-85361903D02*
X122528258Y-85285713D01*
X122528258Y-85285713D02*
X122528258Y-85171427D01*
X122528258Y-85171427D02*
X122490162Y-85095236D01*
X122490162Y-85095236D02*
X122452067Y-85057141D01*
X122452067Y-85057141D02*
X122375877Y-85019046D01*
X122375877Y-85019046D02*
X122147305Y-85019046D01*
X122147305Y-85019046D02*
X122071115Y-85057141D01*
X122071115Y-85057141D02*
X122033020Y-85095236D01*
X122033020Y-85095236D02*
X121994924Y-85171427D01*
X121994924Y-85171427D02*
X121994924Y-85285713D01*
X122528258Y-84790474D02*
X122528258Y-84485712D01*
X121994924Y-84676188D02*
X122680639Y-84676188D01*
X122680639Y-84676188D02*
X122756829Y-84638093D01*
X122756829Y-84638093D02*
X122794924Y-84561903D01*
X122794924Y-84561903D02*
X122794924Y-84485712D01*
X120745065Y-94238095D02*
X120706969Y-94314286D01*
X120706969Y-94314286D02*
X120706969Y-94466667D01*
X120706969Y-94466667D02*
X120745065Y-94542857D01*
X120745065Y-94542857D02*
X120783160Y-94580952D01*
X120783160Y-94580952D02*
X120859350Y-94619048D01*
X120859350Y-94619048D02*
X121087922Y-94619048D01*
X121087922Y-94619048D02*
X121164112Y-94580952D01*
X121164112Y-94580952D02*
X121202207Y-94542857D01*
X121202207Y-94542857D02*
X121240303Y-94466667D01*
X121240303Y-94466667D02*
X121240303Y-94314286D01*
X121240303Y-94314286D02*
X121202207Y-94238095D01*
X120706969Y-93780953D02*
X120745065Y-93857143D01*
X120745065Y-93857143D02*
X120783160Y-93895238D01*
X120783160Y-93895238D02*
X120859350Y-93933334D01*
X120859350Y-93933334D02*
X121087922Y-93933334D01*
X121087922Y-93933334D02*
X121164112Y-93895238D01*
X121164112Y-93895238D02*
X121202207Y-93857143D01*
X121202207Y-93857143D02*
X121240303Y-93780953D01*
X121240303Y-93780953D02*
X121240303Y-93666667D01*
X121240303Y-93666667D02*
X121202207Y-93590476D01*
X121202207Y-93590476D02*
X121164112Y-93552381D01*
X121164112Y-93552381D02*
X121087922Y-93514286D01*
X121087922Y-93514286D02*
X120859350Y-93514286D01*
X120859350Y-93514286D02*
X120783160Y-93552381D01*
X120783160Y-93552381D02*
X120745065Y-93590476D01*
X120745065Y-93590476D02*
X120706969Y-93666667D01*
X120706969Y-93666667D02*
X120706969Y-93780953D01*
X120706969Y-93171428D02*
X121240303Y-93171428D01*
X121164112Y-93171428D02*
X121202207Y-93133333D01*
X121202207Y-93133333D02*
X121240303Y-93057143D01*
X121240303Y-93057143D02*
X121240303Y-92942857D01*
X121240303Y-92942857D02*
X121202207Y-92866666D01*
X121202207Y-92866666D02*
X121126017Y-92828571D01*
X121126017Y-92828571D02*
X120706969Y-92828571D01*
X121126017Y-92828571D02*
X121202207Y-92790476D01*
X121202207Y-92790476D02*
X121240303Y-92714285D01*
X121240303Y-92714285D02*
X121240303Y-92600000D01*
X121240303Y-92600000D02*
X121202207Y-92523809D01*
X121202207Y-92523809D02*
X121126017Y-92485714D01*
X121126017Y-92485714D02*
X120706969Y-92485714D01*
X120706969Y-92104761D02*
X121240303Y-92104761D01*
X121164112Y-92104761D02*
X121202207Y-92066666D01*
X121202207Y-92066666D02*
X121240303Y-91990476D01*
X121240303Y-91990476D02*
X121240303Y-91876190D01*
X121240303Y-91876190D02*
X121202207Y-91799999D01*
X121202207Y-91799999D02*
X121126017Y-91761904D01*
X121126017Y-91761904D02*
X120706969Y-91761904D01*
X121126017Y-91761904D02*
X121202207Y-91723809D01*
X121202207Y-91723809D02*
X121240303Y-91647618D01*
X121240303Y-91647618D02*
X121240303Y-91533333D01*
X121240303Y-91533333D02*
X121202207Y-91457142D01*
X121202207Y-91457142D02*
X121126017Y-91419047D01*
X121126017Y-91419047D02*
X120706969Y-91419047D01*
X120706969Y-90923809D02*
X120745065Y-90999999D01*
X120745065Y-90999999D02*
X120783160Y-91038094D01*
X120783160Y-91038094D02*
X120859350Y-91076190D01*
X120859350Y-91076190D02*
X121087922Y-91076190D01*
X121087922Y-91076190D02*
X121164112Y-91038094D01*
X121164112Y-91038094D02*
X121202207Y-90999999D01*
X121202207Y-90999999D02*
X121240303Y-90923809D01*
X121240303Y-90923809D02*
X121240303Y-90809523D01*
X121240303Y-90809523D02*
X121202207Y-90733332D01*
X121202207Y-90733332D02*
X121164112Y-90695237D01*
X121164112Y-90695237D02*
X121087922Y-90657142D01*
X121087922Y-90657142D02*
X120859350Y-90657142D01*
X120859350Y-90657142D02*
X120783160Y-90695237D01*
X120783160Y-90695237D02*
X120745065Y-90733332D01*
X120745065Y-90733332D02*
X120706969Y-90809523D01*
X120706969Y-90809523D02*
X120706969Y-90923809D01*
X121240303Y-90314284D02*
X120706969Y-90314284D01*
X121164112Y-90314284D02*
X121202207Y-90276189D01*
X121202207Y-90276189D02*
X121240303Y-90199999D01*
X121240303Y-90199999D02*
X121240303Y-90085713D01*
X121240303Y-90085713D02*
X121202207Y-90009522D01*
X121202207Y-90009522D02*
X121126017Y-89971427D01*
X121126017Y-89971427D02*
X120706969Y-89971427D01*
X120745065Y-89019046D02*
X120706969Y-88942855D01*
X120706969Y-88942855D02*
X120706969Y-88790474D01*
X120706969Y-88790474D02*
X120745065Y-88714284D01*
X120745065Y-88714284D02*
X120821255Y-88676188D01*
X120821255Y-88676188D02*
X120859350Y-88676188D01*
X120859350Y-88676188D02*
X120935541Y-88714284D01*
X120935541Y-88714284D02*
X120973636Y-88790474D01*
X120973636Y-88790474D02*
X120973636Y-88904760D01*
X120973636Y-88904760D02*
X121011731Y-88980950D01*
X121011731Y-88980950D02*
X121087922Y-89019046D01*
X121087922Y-89019046D02*
X121126017Y-89019046D01*
X121126017Y-89019046D02*
X121202207Y-88980950D01*
X121202207Y-88980950D02*
X121240303Y-88904760D01*
X121240303Y-88904760D02*
X121240303Y-88790474D01*
X121240303Y-88790474D02*
X121202207Y-88714284D01*
X120745065Y-88028569D02*
X120706969Y-88104760D01*
X120706969Y-88104760D02*
X120706969Y-88257141D01*
X120706969Y-88257141D02*
X120745065Y-88333331D01*
X120745065Y-88333331D02*
X120821255Y-88371427D01*
X120821255Y-88371427D02*
X121126017Y-88371427D01*
X121126017Y-88371427D02*
X121202207Y-88333331D01*
X121202207Y-88333331D02*
X121240303Y-88257141D01*
X121240303Y-88257141D02*
X121240303Y-88104760D01*
X121240303Y-88104760D02*
X121202207Y-88028569D01*
X121202207Y-88028569D02*
X121126017Y-87990474D01*
X121126017Y-87990474D02*
X121049826Y-87990474D01*
X121049826Y-87990474D02*
X120973636Y-88371427D01*
X121240303Y-87647617D02*
X120706969Y-87647617D01*
X121164112Y-87647617D02*
X121202207Y-87609522D01*
X121202207Y-87609522D02*
X121240303Y-87533332D01*
X121240303Y-87533332D02*
X121240303Y-87419046D01*
X121240303Y-87419046D02*
X121202207Y-87342855D01*
X121202207Y-87342855D02*
X121126017Y-87304760D01*
X121126017Y-87304760D02*
X120706969Y-87304760D01*
X120745065Y-86961903D02*
X120706969Y-86885712D01*
X120706969Y-86885712D02*
X120706969Y-86733331D01*
X120706969Y-86733331D02*
X120745065Y-86657141D01*
X120745065Y-86657141D02*
X120821255Y-86619045D01*
X120821255Y-86619045D02*
X120859350Y-86619045D01*
X120859350Y-86619045D02*
X120935541Y-86657141D01*
X120935541Y-86657141D02*
X120973636Y-86733331D01*
X120973636Y-86733331D02*
X120973636Y-86847617D01*
X120973636Y-86847617D02*
X121011731Y-86923807D01*
X121011731Y-86923807D02*
X121087922Y-86961903D01*
X121087922Y-86961903D02*
X121126017Y-86961903D01*
X121126017Y-86961903D02*
X121202207Y-86923807D01*
X121202207Y-86923807D02*
X121240303Y-86847617D01*
X121240303Y-86847617D02*
X121240303Y-86733331D01*
X121240303Y-86733331D02*
X121202207Y-86657141D01*
X120745065Y-85971426D02*
X120706969Y-86047617D01*
X120706969Y-86047617D02*
X120706969Y-86199998D01*
X120706969Y-86199998D02*
X120745065Y-86276188D01*
X120745065Y-86276188D02*
X120821255Y-86314284D01*
X120821255Y-86314284D02*
X121126017Y-86314284D01*
X121126017Y-86314284D02*
X121202207Y-86276188D01*
X121202207Y-86276188D02*
X121240303Y-86199998D01*
X121240303Y-86199998D02*
X121240303Y-86047617D01*
X121240303Y-86047617D02*
X121202207Y-85971426D01*
X121202207Y-85971426D02*
X121126017Y-85933331D01*
X121126017Y-85933331D02*
X121049826Y-85933331D01*
X121049826Y-85933331D02*
X120973636Y-86314284D01*
X120783160Y-85590474D02*
X120745065Y-85552379D01*
X120745065Y-85552379D02*
X120706969Y-85590474D01*
X120706969Y-85590474D02*
X120745065Y-85628570D01*
X120745065Y-85628570D02*
X120783160Y-85590474D01*
X120783160Y-85590474D02*
X120706969Y-85590474D01*
X120783160Y-85209522D02*
X120745065Y-85171427D01*
X120745065Y-85171427D02*
X120706969Y-85209522D01*
X120706969Y-85209522D02*
X120745065Y-85247617D01*
X120745065Y-85247617D02*
X120783160Y-85209522D01*
X120783160Y-85209522D02*
X120706969Y-85209522D01*
X120783160Y-84828570D02*
X120745065Y-84790474D01*
X120745065Y-84790474D02*
X120706969Y-84828570D01*
X120706969Y-84828570D02*
X120745065Y-84866665D01*
X120745065Y-84866665D02*
X120783160Y-84828570D01*
X120783160Y-84828570D02*
X120706969Y-84828570D01*
X119419014Y-94409524D02*
X120219014Y-94409524D01*
X119952348Y-93419048D02*
X119266633Y-93419048D01*
X119266633Y-93419048D02*
X119190443Y-93457144D01*
X119190443Y-93457144D02*
X119152348Y-93533334D01*
X119152348Y-93533334D02*
X119152348Y-93571429D01*
X120219014Y-93419048D02*
X120180919Y-93457144D01*
X120180919Y-93457144D02*
X120142824Y-93419048D01*
X120142824Y-93419048D02*
X120180919Y-93380953D01*
X120180919Y-93380953D02*
X120219014Y-93419048D01*
X120219014Y-93419048D02*
X120142824Y-93419048D01*
X119952348Y-92695239D02*
X119419014Y-92695239D01*
X119952348Y-93038096D02*
X119533300Y-93038096D01*
X119533300Y-93038096D02*
X119457110Y-93000001D01*
X119457110Y-93000001D02*
X119419014Y-92923811D01*
X119419014Y-92923811D02*
X119419014Y-92809525D01*
X119419014Y-92809525D02*
X119457110Y-92733334D01*
X119457110Y-92733334D02*
X119495205Y-92695239D01*
X119457110Y-92352382D02*
X119419014Y-92276191D01*
X119419014Y-92276191D02*
X119419014Y-92123810D01*
X119419014Y-92123810D02*
X119457110Y-92047620D01*
X119457110Y-92047620D02*
X119533300Y-92009524D01*
X119533300Y-92009524D02*
X119571395Y-92009524D01*
X119571395Y-92009524D02*
X119647586Y-92047620D01*
X119647586Y-92047620D02*
X119685681Y-92123810D01*
X119685681Y-92123810D02*
X119685681Y-92238096D01*
X119685681Y-92238096D02*
X119723776Y-92314286D01*
X119723776Y-92314286D02*
X119799967Y-92352382D01*
X119799967Y-92352382D02*
X119838062Y-92352382D01*
X119838062Y-92352382D02*
X119914252Y-92314286D01*
X119914252Y-92314286D02*
X119952348Y-92238096D01*
X119952348Y-92238096D02*
X119952348Y-92123810D01*
X119952348Y-92123810D02*
X119914252Y-92047620D01*
X119952348Y-91780953D02*
X119952348Y-91476191D01*
X120219014Y-91666667D02*
X119533300Y-91666667D01*
X119533300Y-91666667D02*
X119457110Y-91628572D01*
X119457110Y-91628572D02*
X119419014Y-91552382D01*
X119419014Y-91552382D02*
X119419014Y-91476191D01*
X119457110Y-90257143D02*
X119419014Y-90333334D01*
X119419014Y-90333334D02*
X119419014Y-90485715D01*
X119419014Y-90485715D02*
X119457110Y-90561905D01*
X119457110Y-90561905D02*
X119495205Y-90600000D01*
X119495205Y-90600000D02*
X119571395Y-90638096D01*
X119571395Y-90638096D02*
X119799967Y-90638096D01*
X119799967Y-90638096D02*
X119876157Y-90600000D01*
X119876157Y-90600000D02*
X119914252Y-90561905D01*
X119914252Y-90561905D02*
X119952348Y-90485715D01*
X119952348Y-90485715D02*
X119952348Y-90333334D01*
X119952348Y-90333334D02*
X119914252Y-90257143D01*
X119419014Y-89914286D02*
X120219014Y-89914286D01*
X119419014Y-89571429D02*
X119838062Y-89571429D01*
X119838062Y-89571429D02*
X119914252Y-89609524D01*
X119914252Y-89609524D02*
X119952348Y-89685715D01*
X119952348Y-89685715D02*
X119952348Y-89800001D01*
X119952348Y-89800001D02*
X119914252Y-89876191D01*
X119914252Y-89876191D02*
X119876157Y-89914286D01*
X119419014Y-89076191D02*
X119457110Y-89152381D01*
X119457110Y-89152381D02*
X119495205Y-89190476D01*
X119495205Y-89190476D02*
X119571395Y-89228572D01*
X119571395Y-89228572D02*
X119799967Y-89228572D01*
X119799967Y-89228572D02*
X119876157Y-89190476D01*
X119876157Y-89190476D02*
X119914252Y-89152381D01*
X119914252Y-89152381D02*
X119952348Y-89076191D01*
X119952348Y-89076191D02*
X119952348Y-88961905D01*
X119952348Y-88961905D02*
X119914252Y-88885714D01*
X119914252Y-88885714D02*
X119876157Y-88847619D01*
X119876157Y-88847619D02*
X119799967Y-88809524D01*
X119799967Y-88809524D02*
X119571395Y-88809524D01*
X119571395Y-88809524D02*
X119495205Y-88847619D01*
X119495205Y-88847619D02*
X119457110Y-88885714D01*
X119457110Y-88885714D02*
X119419014Y-88961905D01*
X119419014Y-88961905D02*
X119419014Y-89076191D01*
X119419014Y-88352381D02*
X119457110Y-88428571D01*
X119457110Y-88428571D02*
X119495205Y-88466666D01*
X119495205Y-88466666D02*
X119571395Y-88504762D01*
X119571395Y-88504762D02*
X119799967Y-88504762D01*
X119799967Y-88504762D02*
X119876157Y-88466666D01*
X119876157Y-88466666D02*
X119914252Y-88428571D01*
X119914252Y-88428571D02*
X119952348Y-88352381D01*
X119952348Y-88352381D02*
X119952348Y-88238095D01*
X119952348Y-88238095D02*
X119914252Y-88161904D01*
X119914252Y-88161904D02*
X119876157Y-88123809D01*
X119876157Y-88123809D02*
X119799967Y-88085714D01*
X119799967Y-88085714D02*
X119571395Y-88085714D01*
X119571395Y-88085714D02*
X119495205Y-88123809D01*
X119495205Y-88123809D02*
X119457110Y-88161904D01*
X119457110Y-88161904D02*
X119419014Y-88238095D01*
X119419014Y-88238095D02*
X119419014Y-88352381D01*
X119457110Y-87780952D02*
X119419014Y-87704761D01*
X119419014Y-87704761D02*
X119419014Y-87552380D01*
X119419014Y-87552380D02*
X119457110Y-87476190D01*
X119457110Y-87476190D02*
X119533300Y-87438094D01*
X119533300Y-87438094D02*
X119571395Y-87438094D01*
X119571395Y-87438094D02*
X119647586Y-87476190D01*
X119647586Y-87476190D02*
X119685681Y-87552380D01*
X119685681Y-87552380D02*
X119685681Y-87666666D01*
X119685681Y-87666666D02*
X119723776Y-87742856D01*
X119723776Y-87742856D02*
X119799967Y-87780952D01*
X119799967Y-87780952D02*
X119838062Y-87780952D01*
X119838062Y-87780952D02*
X119914252Y-87742856D01*
X119914252Y-87742856D02*
X119952348Y-87666666D01*
X119952348Y-87666666D02*
X119952348Y-87552380D01*
X119952348Y-87552380D02*
X119914252Y-87476190D01*
X119457110Y-86790475D02*
X119419014Y-86866666D01*
X119419014Y-86866666D02*
X119419014Y-87019047D01*
X119419014Y-87019047D02*
X119457110Y-87095237D01*
X119457110Y-87095237D02*
X119533300Y-87133333D01*
X119533300Y-87133333D02*
X119838062Y-87133333D01*
X119838062Y-87133333D02*
X119914252Y-87095237D01*
X119914252Y-87095237D02*
X119952348Y-87019047D01*
X119952348Y-87019047D02*
X119952348Y-86866666D01*
X119952348Y-86866666D02*
X119914252Y-86790475D01*
X119914252Y-86790475D02*
X119838062Y-86752380D01*
X119838062Y-86752380D02*
X119761871Y-86752380D01*
X119761871Y-86752380D02*
X119685681Y-87133333D01*
X119952348Y-85914285D02*
X119952348Y-85609523D01*
X120219014Y-85799999D02*
X119533300Y-85799999D01*
X119533300Y-85799999D02*
X119457110Y-85761904D01*
X119457110Y-85761904D02*
X119419014Y-85685714D01*
X119419014Y-85685714D02*
X119419014Y-85609523D01*
X119419014Y-85228571D02*
X119457110Y-85304761D01*
X119457110Y-85304761D02*
X119495205Y-85342856D01*
X119495205Y-85342856D02*
X119571395Y-85380952D01*
X119571395Y-85380952D02*
X119799967Y-85380952D01*
X119799967Y-85380952D02*
X119876157Y-85342856D01*
X119876157Y-85342856D02*
X119914252Y-85304761D01*
X119914252Y-85304761D02*
X119952348Y-85228571D01*
X119952348Y-85228571D02*
X119952348Y-85114285D01*
X119952348Y-85114285D02*
X119914252Y-85038094D01*
X119914252Y-85038094D02*
X119876157Y-84999999D01*
X119876157Y-84999999D02*
X119799967Y-84961904D01*
X119799967Y-84961904D02*
X119571395Y-84961904D01*
X119571395Y-84961904D02*
X119495205Y-84999999D01*
X119495205Y-84999999D02*
X119457110Y-85038094D01*
X119457110Y-85038094D02*
X119419014Y-85114285D01*
X119419014Y-85114285D02*
X119419014Y-85228571D01*
X118131059Y-91990475D02*
X118664393Y-91990475D01*
X118931059Y-91990475D02*
X118892964Y-92028571D01*
X118892964Y-92028571D02*
X118854869Y-91990475D01*
X118854869Y-91990475D02*
X118892964Y-91952380D01*
X118892964Y-91952380D02*
X118931059Y-91990475D01*
X118931059Y-91990475D02*
X118854869Y-91990475D01*
X118664393Y-91266666D02*
X118016774Y-91266666D01*
X118016774Y-91266666D02*
X117940583Y-91304761D01*
X117940583Y-91304761D02*
X117902488Y-91342857D01*
X117902488Y-91342857D02*
X117864393Y-91419047D01*
X117864393Y-91419047D02*
X117864393Y-91533333D01*
X117864393Y-91533333D02*
X117902488Y-91609523D01*
X118169155Y-91266666D02*
X118131059Y-91342857D01*
X118131059Y-91342857D02*
X118131059Y-91495238D01*
X118131059Y-91495238D02*
X118169155Y-91571428D01*
X118169155Y-91571428D02*
X118207250Y-91609523D01*
X118207250Y-91609523D02*
X118283440Y-91647619D01*
X118283440Y-91647619D02*
X118512012Y-91647619D01*
X118512012Y-91647619D02*
X118588202Y-91609523D01*
X118588202Y-91609523D02*
X118626297Y-91571428D01*
X118626297Y-91571428D02*
X118664393Y-91495238D01*
X118664393Y-91495238D02*
X118664393Y-91342857D01*
X118664393Y-91342857D02*
X118626297Y-91266666D01*
X118664393Y-90885713D02*
X118131059Y-90885713D01*
X118588202Y-90885713D02*
X118626297Y-90847618D01*
X118626297Y-90847618D02*
X118664393Y-90771428D01*
X118664393Y-90771428D02*
X118664393Y-90657142D01*
X118664393Y-90657142D02*
X118626297Y-90580951D01*
X118626297Y-90580951D02*
X118550107Y-90542856D01*
X118550107Y-90542856D02*
X118131059Y-90542856D01*
X118131059Y-90047618D02*
X118169155Y-90123808D01*
X118169155Y-90123808D02*
X118207250Y-90161903D01*
X118207250Y-90161903D02*
X118283440Y-90199999D01*
X118283440Y-90199999D02*
X118512012Y-90199999D01*
X118512012Y-90199999D02*
X118588202Y-90161903D01*
X118588202Y-90161903D02*
X118626297Y-90123808D01*
X118626297Y-90123808D02*
X118664393Y-90047618D01*
X118664393Y-90047618D02*
X118664393Y-89933332D01*
X118664393Y-89933332D02*
X118626297Y-89857141D01*
X118626297Y-89857141D02*
X118588202Y-89819046D01*
X118588202Y-89819046D02*
X118512012Y-89780951D01*
X118512012Y-89780951D02*
X118283440Y-89780951D01*
X118283440Y-89780951D02*
X118207250Y-89819046D01*
X118207250Y-89819046D02*
X118169155Y-89857141D01*
X118169155Y-89857141D02*
X118131059Y-89933332D01*
X118131059Y-89933332D02*
X118131059Y-90047618D01*
X118131059Y-89438093D02*
X118664393Y-89438093D01*
X118512012Y-89438093D02*
X118588202Y-89399998D01*
X118588202Y-89399998D02*
X118626297Y-89361903D01*
X118626297Y-89361903D02*
X118664393Y-89285712D01*
X118664393Y-89285712D02*
X118664393Y-89209522D01*
X118169155Y-88638093D02*
X118131059Y-88714284D01*
X118131059Y-88714284D02*
X118131059Y-88866665D01*
X118131059Y-88866665D02*
X118169155Y-88942855D01*
X118169155Y-88942855D02*
X118245345Y-88980951D01*
X118245345Y-88980951D02*
X118550107Y-88980951D01*
X118550107Y-88980951D02*
X118626297Y-88942855D01*
X118626297Y-88942855D02*
X118664393Y-88866665D01*
X118664393Y-88866665D02*
X118664393Y-88714284D01*
X118664393Y-88714284D02*
X118626297Y-88638093D01*
X118626297Y-88638093D02*
X118550107Y-88599998D01*
X118550107Y-88599998D02*
X118473916Y-88599998D01*
X118473916Y-88599998D02*
X118397726Y-88980951D01*
X118131059Y-87647617D02*
X118664393Y-87647617D01*
X118931059Y-87647617D02*
X118892964Y-87685713D01*
X118892964Y-87685713D02*
X118854869Y-87647617D01*
X118854869Y-87647617D02*
X118892964Y-87609522D01*
X118892964Y-87609522D02*
X118931059Y-87647617D01*
X118931059Y-87647617D02*
X118854869Y-87647617D01*
X118664393Y-87380951D02*
X118664393Y-87076189D01*
X118931059Y-87266665D02*
X118245345Y-87266665D01*
X118245345Y-87266665D02*
X118169155Y-87228570D01*
X118169155Y-87228570D02*
X118131059Y-87152380D01*
X118131059Y-87152380D02*
X118131059Y-87076189D01*
X118207250Y-86809522D02*
X118169155Y-86771427D01*
X118169155Y-86771427D02*
X118131059Y-86809522D01*
X118131059Y-86809522D02*
X118169155Y-86847618D01*
X118169155Y-86847618D02*
X118207250Y-86809522D01*
X118207250Y-86809522D02*
X118131059Y-86809522D01*
X117147866Y-93590476D02*
X117147866Y-92980953D01*
X117262152Y-91723810D02*
X117224057Y-91609524D01*
X117224057Y-91609524D02*
X117185961Y-91571429D01*
X117185961Y-91571429D02*
X117109771Y-91533333D01*
X117109771Y-91533333D02*
X116995485Y-91533333D01*
X116995485Y-91533333D02*
X116919295Y-91571429D01*
X116919295Y-91571429D02*
X116881200Y-91609524D01*
X116881200Y-91609524D02*
X116843104Y-91685714D01*
X116843104Y-91685714D02*
X116843104Y-91990476D01*
X116843104Y-91990476D02*
X117643104Y-91990476D01*
X117643104Y-91990476D02*
X117643104Y-91723810D01*
X117643104Y-91723810D02*
X117605009Y-91647619D01*
X117605009Y-91647619D02*
X117566914Y-91609524D01*
X117566914Y-91609524D02*
X117490723Y-91571429D01*
X117490723Y-91571429D02*
X117414533Y-91571429D01*
X117414533Y-91571429D02*
X117338342Y-91609524D01*
X117338342Y-91609524D02*
X117300247Y-91647619D01*
X117300247Y-91647619D02*
X117262152Y-91723810D01*
X117262152Y-91723810D02*
X117262152Y-91990476D01*
X116919295Y-91190476D02*
X116881200Y-91152381D01*
X116881200Y-91152381D02*
X116843104Y-91190476D01*
X116843104Y-91190476D02*
X116881200Y-91228572D01*
X116881200Y-91228572D02*
X116919295Y-91190476D01*
X116919295Y-91190476D02*
X116843104Y-91190476D01*
X117643104Y-90276191D02*
X116843104Y-90085715D01*
X116843104Y-90085715D02*
X117414533Y-89933334D01*
X117414533Y-89933334D02*
X116843104Y-89780953D01*
X116843104Y-89780953D02*
X117643104Y-89590477D01*
X116843104Y-88942857D02*
X117262152Y-88942857D01*
X117262152Y-88942857D02*
X117338342Y-88980952D01*
X117338342Y-88980952D02*
X117376438Y-89057143D01*
X117376438Y-89057143D02*
X117376438Y-89209524D01*
X117376438Y-89209524D02*
X117338342Y-89285714D01*
X116881200Y-88942857D02*
X116843104Y-89019048D01*
X116843104Y-89019048D02*
X116843104Y-89209524D01*
X116843104Y-89209524D02*
X116881200Y-89285714D01*
X116881200Y-89285714D02*
X116957390Y-89323810D01*
X116957390Y-89323810D02*
X117033580Y-89323810D01*
X117033580Y-89323810D02*
X117109771Y-89285714D01*
X117109771Y-89285714D02*
X117147866Y-89209524D01*
X117147866Y-89209524D02*
X117147866Y-89019048D01*
X117147866Y-89019048D02*
X117185961Y-88942857D01*
X117376438Y-88676190D02*
X117376438Y-88371428D01*
X117643104Y-88561904D02*
X116957390Y-88561904D01*
X116957390Y-88561904D02*
X116881200Y-88523809D01*
X116881200Y-88523809D02*
X116843104Y-88447619D01*
X116843104Y-88447619D02*
X116843104Y-88371428D01*
X116881200Y-87799999D02*
X116843104Y-87876190D01*
X116843104Y-87876190D02*
X116843104Y-88028571D01*
X116843104Y-88028571D02*
X116881200Y-88104761D01*
X116881200Y-88104761D02*
X116957390Y-88142857D01*
X116957390Y-88142857D02*
X117262152Y-88142857D01*
X117262152Y-88142857D02*
X117338342Y-88104761D01*
X117338342Y-88104761D02*
X117376438Y-88028571D01*
X117376438Y-88028571D02*
X117376438Y-87876190D01*
X117376438Y-87876190D02*
X117338342Y-87799999D01*
X117338342Y-87799999D02*
X117262152Y-87761904D01*
X117262152Y-87761904D02*
X117185961Y-87761904D01*
X117185961Y-87761904D02*
X117109771Y-88142857D01*
X116843104Y-87419047D02*
X117376438Y-87419047D01*
X117224057Y-87419047D02*
X117300247Y-87380952D01*
X117300247Y-87380952D02*
X117338342Y-87342857D01*
X117338342Y-87342857D02*
X117376438Y-87266666D01*
X117376438Y-87266666D02*
X117376438Y-87190476D01*
X116881200Y-86961905D02*
X116843104Y-86885714D01*
X116843104Y-86885714D02*
X116843104Y-86733333D01*
X116843104Y-86733333D02*
X116881200Y-86657143D01*
X116881200Y-86657143D02*
X116957390Y-86619047D01*
X116957390Y-86619047D02*
X116995485Y-86619047D01*
X116995485Y-86619047D02*
X117071676Y-86657143D01*
X117071676Y-86657143D02*
X117109771Y-86733333D01*
X117109771Y-86733333D02*
X117109771Y-86847619D01*
X117109771Y-86847619D02*
X117147866Y-86923809D01*
X117147866Y-86923809D02*
X117224057Y-86961905D01*
X117224057Y-86961905D02*
X117262152Y-86961905D01*
X117262152Y-86961905D02*
X117338342Y-86923809D01*
X117338342Y-86923809D02*
X117376438Y-86847619D01*
X117376438Y-86847619D02*
X117376438Y-86733333D01*
X117376438Y-86733333D02*
X117338342Y-86657143D01*
X116843104Y-86161905D02*
X116881200Y-86238095D01*
X116881200Y-86238095D02*
X116919295Y-86276190D01*
X116919295Y-86276190D02*
X116995485Y-86314286D01*
X116995485Y-86314286D02*
X117224057Y-86314286D01*
X117224057Y-86314286D02*
X117300247Y-86276190D01*
X117300247Y-86276190D02*
X117338342Y-86238095D01*
X117338342Y-86238095D02*
X117376438Y-86161905D01*
X117376438Y-86161905D02*
X117376438Y-86047619D01*
X117376438Y-86047619D02*
X117338342Y-85971428D01*
X117338342Y-85971428D02*
X117300247Y-85933333D01*
X117300247Y-85933333D02*
X117224057Y-85895238D01*
X117224057Y-85895238D02*
X116995485Y-85895238D01*
X116995485Y-85895238D02*
X116919295Y-85933333D01*
X116919295Y-85933333D02*
X116881200Y-85971428D01*
X116881200Y-85971428D02*
X116843104Y-86047619D01*
X116843104Y-86047619D02*
X116843104Y-86161905D01*
X117376438Y-85552380D02*
X116843104Y-85552380D01*
X117300247Y-85552380D02*
X117338342Y-85514285D01*
X117338342Y-85514285D02*
X117376438Y-85438095D01*
X117376438Y-85438095D02*
X117376438Y-85323809D01*
X117376438Y-85323809D02*
X117338342Y-85247618D01*
X117338342Y-85247618D02*
X117262152Y-85209523D01*
X117262152Y-85209523D02*
X116843104Y-85209523D01*
M02*
