%TF.GenerationSoftware,KiCad,Pcbnew,9.0.2*%
%TF.CreationDate,2025-06-24T16:46:08-07:00*%
%TF.ProjectId,power6V,706f7765-7236-4562-9e6b-696361645f70,rev?*%
%TF.SameCoordinates,Original*%
%TF.FileFunction,Copper,L1,Top*%
%TF.FilePolarity,Positive*%
%FSLAX46Y46*%
G04 Gerber Fmt 4.6, Leading zero omitted, Abs format (unit mm)*
G04 Created by KiCad (PCBNEW 9.0.2) date 2025-06-24 16:46:08*
%MOMM*%
%LPD*%
G01*
G04 APERTURE LIST*
G04 Aperture macros list*
%AMRoundRect*
0 Rectangle with rounded corners*
0 $1 Rounding radius*
0 $2 $3 $4 $5 $6 $7 $8 $9 X,Y pos of 4 corners*
0 Add a 4 corners polygon primitive as box body*
4,1,4,$2,$3,$4,$5,$6,$7,$8,$9,$2,$3,0*
0 Add four circle primitives for the rounded corners*
1,1,$1+$1,$2,$3*
1,1,$1+$1,$4,$5*
1,1,$1+$1,$6,$7*
1,1,$1+$1,$8,$9*
0 Add four rect primitives between the rounded corners*
20,1,$1+$1,$2,$3,$4,$5,0*
20,1,$1+$1,$4,$5,$6,$7,0*
20,1,$1+$1,$6,$7,$8,$9,0*
20,1,$1+$1,$8,$9,$2,$3,0*%
G04 Aperture macros list end*
%TA.AperFunction,SMDPad,CuDef*%
%ADD10RoundRect,0.190500X-1.079500X-0.444500X1.079500X-0.444500X1.079500X0.444500X-1.079500X0.444500X0*%
%TD*%
%TA.AperFunction,SMDPad,CuDef*%
%ADD11RoundRect,0.190500X1.079500X0.444500X-1.079500X0.444500X-1.079500X-0.444500X1.079500X-0.444500X0*%
%TD*%
%TA.AperFunction,SMDPad,CuDef*%
%ADD12RoundRect,0.250000X-0.250000X-0.750000X0.250000X-0.750000X0.250000X0.750000X-0.250000X0.750000X0*%
%TD*%
%TA.AperFunction,SMDPad,CuDef*%
%ADD13RoundRect,0.218750X-0.218750X-0.381250X0.218750X-0.381250X0.218750X0.381250X-0.218750X0.381250X0*%
%TD*%
%TA.AperFunction,SMDPad,CuDef*%
%ADD14RoundRect,0.250000X-0.262500X-0.450000X0.262500X-0.450000X0.262500X0.450000X-0.262500X0.450000X0*%
%TD*%
%TA.AperFunction,SMDPad,CuDef*%
%ADD15RoundRect,0.225000X-0.375000X0.225000X-0.375000X-0.225000X0.375000X-0.225000X0.375000X0.225000X0*%
%TD*%
%TA.AperFunction,SMDPad,CuDef*%
%ADD16R,5.080000X1.500000*%
%TD*%
%TA.AperFunction,ViaPad*%
%ADD17C,5.000000*%
%TD*%
%TA.AperFunction,ViaPad*%
%ADD18C,0.600000*%
%TD*%
%TA.AperFunction,ViaPad*%
%ADD19C,1.000000*%
%TD*%
%TA.AperFunction,Conductor*%
%ADD20C,1.000000*%
%TD*%
%TA.AperFunction,Conductor*%
%ADD21C,0.300000*%
%TD*%
G04 APERTURE END LIST*
D10*
%TO.P,C2,2*%
%TO.N,GND*%
X126560000Y-75730000D03*
%TO.P,C2,1*%
%TO.N,Net-(J2-Pin_1)*%
X126560000Y-83030000D03*
%TD*%
D11*
%TO.P,C2,1*%
%TO.N,Net-(J3-Pin_1)*%
X126560000Y-96180000D03*
%TO.P,C2,2*%
%TO.N,GND*%
X126560000Y-103480000D03*
%TD*%
D12*
%TO.P,,2*%
%TO.N,Net-(J3-Pin_1)*%
X131580000Y-94100000D03*
%TD*%
%TO.P,REF\u002A\u002A,1*%
%TO.N,Net-(J2-Pin_1)*%
X131600000Y-85090000D03*
%TD*%
D13*
%TO.P,FB2,2*%
%TO.N,Net-(J3-Pin_1)*%
X126564500Y-94110000D03*
%TO.P,FB2,1*%
%TO.N,Net-(D1-K)*%
X124439500Y-94110000D03*
%TD*%
%TO.P,FB1,2*%
%TO.N,Net-(J2-Pin_1)*%
X126565000Y-85110000D03*
%TO.P,FB1,1*%
%TO.N,Net-(J1-In)*%
X124440000Y-85110000D03*
%TD*%
D14*
%TO.P,R1,1*%
%TO.N,Net-(J1-In)*%
X117877500Y-94110000D03*
%TO.P,R1,2*%
%TO.N,Net-(D1-K)*%
X119702500Y-94110000D03*
%TD*%
D15*
%TO.P,D1,1,K*%
%TO.N,Net-(D1-K)*%
X122060000Y-94100000D03*
%TO.P,D1,2,A*%
%TO.N,GND*%
X122060000Y-97400000D03*
%TD*%
D16*
%TO.P,J1,1,In*%
%TO.N,Net-(J1-In)*%
X111502500Y-89610000D03*
%TO.P,J1,2,Ext*%
%TO.N,GND*%
X111502500Y-93860000D03*
X111502500Y-85360000D03*
%TD*%
D17*
%TO.N,GND*%
X127779500Y-89620500D03*
X113450000Y-101660000D03*
X113450000Y-77990000D03*
D18*
X125740000Y-74600000D03*
X127400000Y-74600000D03*
X125720000Y-104610000D03*
X127380000Y-104610000D03*
D19*
X111490000Y-83480000D03*
X109690000Y-83480000D03*
X113290000Y-83480000D03*
X113380000Y-95870000D03*
X111580000Y-95870000D03*
X109780000Y-95870000D03*
X115210000Y-85330000D03*
X115250000Y-93920000D03*
X122020000Y-98820000D03*
%TD*%
D20*
%TO.N,Net-(J3-Pin_1)*%
X126564500Y-94110000D02*
X126564500Y-96175500D01*
X126564500Y-96175500D02*
X126560000Y-96180000D01*
%TO.N,Net-(J2-Pin_1)*%
X126565000Y-85110000D02*
X126565000Y-83035000D01*
X126565000Y-83035000D02*
X126560000Y-83030000D01*
D21*
%TO.N,GND*%
X127400000Y-75720000D02*
X127390000Y-75730000D01*
X127400000Y-74600000D02*
X127400000Y-75720000D01*
X125740000Y-74600000D02*
X125740000Y-75610000D01*
X125720000Y-103490000D02*
X125730000Y-103480000D01*
X125720000Y-104610000D02*
X125720000Y-103490000D01*
X127380000Y-104610000D02*
X127380000Y-103600000D01*
D20*
%TO.N,Net-(J3-Pin_1)*%
X128290000Y-94105000D02*
X131575000Y-94105000D01*
X131575000Y-94105000D02*
X131580000Y-94100000D01*
%TO.N,Net-(J2-Pin_1)*%
X128320000Y-85095000D02*
X131595000Y-85095000D01*
X131595000Y-85095000D02*
X131600000Y-85090000D01*
D21*
%TO.N,GND*%
X113380000Y-93920000D02*
X113370000Y-93910000D01*
X113380000Y-95870000D02*
X113380000Y-93920000D01*
X111580000Y-95870000D02*
X111580000Y-93910000D01*
X109780000Y-95870000D02*
X109780000Y-93860000D01*
X113290000Y-83480000D02*
X113290000Y-85360000D01*
X111490000Y-83480000D02*
X111490000Y-85360000D01*
X109690000Y-85350000D02*
X109680000Y-85360000D01*
X109690000Y-83480000D02*
X109690000Y-85350000D01*
X122060000Y-97400000D02*
X122060000Y-98780000D01*
X122060000Y-98780000D02*
X122020000Y-98820000D01*
X111502500Y-93860000D02*
X115190000Y-93860000D01*
X115190000Y-93860000D02*
X115250000Y-93920000D01*
X111502500Y-85360000D02*
X115180000Y-85360000D01*
X115180000Y-85360000D02*
X115210000Y-85330000D01*
D20*
%TO.N,Net-(J3-Pin_1)*%
X126564500Y-94110000D02*
X128285000Y-94110000D01*
X128285000Y-94110000D02*
X128290000Y-94105000D01*
%TO.N,Net-(J2-Pin_1)*%
X126565000Y-85110000D02*
X128305000Y-85110000D01*
X128305000Y-85110000D02*
X128320000Y-85095000D01*
%TO.N,Net-(D1-K)*%
X122060000Y-94100000D02*
X124429500Y-94100000D01*
X124429500Y-94100000D02*
X124439500Y-94110000D01*
X119702500Y-94110000D02*
X122050000Y-94110000D01*
X122050000Y-94110000D02*
X122060000Y-94100000D01*
%TO.N,Net-(J1-In)*%
X117877500Y-92007500D02*
X117877500Y-94110000D01*
X115470000Y-89620000D02*
X119980000Y-85110000D01*
X119980000Y-85110000D02*
X124440000Y-85110000D01*
X111502500Y-89610000D02*
X115480000Y-89610000D01*
X115480000Y-89610000D02*
X117877500Y-92007500D01*
%TD*%
M02*
