ISO-10303-21;
HEADER;
/* Generated by software containing ST-Developer
 * from STEP Tools, Inc. (www.steptools.com) 
 */
/* OPTION: using custom renumber hook */

FILE_DESCRIPTION(
/* description */ ('STEP AP242',
'CAx-IF Rec.Pracs.---Representation and Presentation of Product Manufa
cturing Information (PMI)---4.0---2014-10-13',
'CAx-IF Rec.Pracs.---3D Tessellated Geometry---0.4---2014-09-14','2;1'),

/* implementation_level */ '2;1');

FILE_NAME(
/* name */ '68fb1a4678a1d30a472b20ec',
/* time_stamp */ '2025-10-24T06:18:46Z',
/* author */ (''),
/* organization */ (''),
/* preprocessor_version */ 'ST-DEVELOPER v20',
/* originating_system */ 'ONSHAPE BY PTC INC, 1.205',
/* authorisation */ '  ');

FILE_SCHEMA (('AP242_MANAGED_MODEL_BASED_3D_ENGINEERING_MIM_LF { 1 0 10303 442 1 1 4 }'));
ENDSEC;

DATA;
#10=SHAPE_REPRESENTATION_RELATIONSHIP('','',#212,#11);
#11=ADVANCED_BREP_SHAPE_REPRESENTATION('',(#210),#350);
#12=CYLINDRICAL_SURFACE('',#229,0.0025527);
#13=CYLINDRICAL_SURFACE('',#230,0.0025527);
#14=CYLINDRICAL_SURFACE('',#231,0.0025527);
#15=CYLINDRICAL_SURFACE('',#232,0.0025527);
#16=B_SPLINE_CURVE_WITH_KNOTS('',3,(#316,#317,#318,#319),.UNSPECIFIED.,
 .F.,.F.,(4,4),(0.587817925828534,1.),.UNSPECIFIED.);
#17=B_SPLINE_CURVE_WITH_KNOTS('',3,(#323,#324,#325,#326),.UNSPECIFIED.,
 .F.,.F.,(4,4),(0.,1.),.UNSPECIFIED.);
#18=B_SPLINE_CURVE_WITH_KNOTS('',3,(#330,#331,#332,#333),.UNSPECIFIED.,
 .F.,.F.,(4,4),(0.,0.428182074171165),.UNSPECIFIED.);
#19=LINE('',#297,#32);
#20=LINE('',#299,#33);
#21=LINE('',#301,#34);
#22=LINE('',#303,#35);
#23=LINE('',#305,#36);
#24=LINE('',#321,#37);
#25=LINE('',#328,#38);
#26=LINE('',#335,#39);
#27=LINE('',#336,#40);
#28=LINE('',#338,#41);
#29=LINE('',#340,#42);
#30=LINE('',#341,#43);
#31=LINE('',#344,#44);
#32=VECTOR('',#245,1.);
#33=VECTOR('',#246,1.);
#34=VECTOR('',#247,1.);
#35=VECTOR('',#248,1.);
#36=VECTOR('',#249,1.);
#37=VECTOR('',#260,1.);
#38=VECTOR('',#261,1.);
#39=VECTOR('',#264,1.);
#40=VECTOR('',#265,1.);
#41=VECTOR('',#268,1.);
#42=VECTOR('',#271,1.);
#43=VECTOR('',#272,1.);
#44=VECTOR('',#277,1.);
#45=ORIENTED_EDGE('',*,*,#93,.F.);
#46=ORIENTED_EDGE('',*,*,#94,.F.);
#47=ORIENTED_EDGE('',*,*,#95,.F.);
#48=ORIENTED_EDGE('',*,*,#96,.F.);
#49=ORIENTED_EDGE('',*,*,#97,.T.);
#50=ORIENTED_EDGE('',*,*,#98,.F.);
#51=ORIENTED_EDGE('',*,*,#99,.F.);
#52=ORIENTED_EDGE('',*,*,#100,.T.);
#53=ORIENTED_EDGE('',*,*,#101,.T.);
#54=ORIENTED_EDGE('',*,*,#102,.F.);
#55=ORIENTED_EDGE('',*,*,#103,.F.);
#56=ORIENTED_EDGE('',*,*,#104,.F.);
#57=ORIENTED_EDGE('',*,*,#105,.F.);
#58=ORIENTED_EDGE('',*,*,#106,.T.);
#59=ORIENTED_EDGE('',*,*,#107,.F.);
#60=ORIENTED_EDGE('',*,*,#108,.F.);
#61=ORIENTED_EDGE('',*,*,#109,.T.);
#62=ORIENTED_EDGE('',*,*,#110,.T.);
#63=ORIENTED_EDGE('',*,*,#97,.F.);
#64=ORIENTED_EDGE('',*,*,#111,.T.);
#65=ORIENTED_EDGE('',*,*,#110,.F.);
#66=ORIENTED_EDGE('',*,*,#112,.F.);
#67=ORIENTED_EDGE('',*,*,#112,.T.);
#68=ORIENTED_EDGE('',*,*,#109,.F.);
#69=ORIENTED_EDGE('',*,*,#113,.F.);
#70=ORIENTED_EDGE('',*,*,#98,.T.);
#71=ORIENTED_EDGE('',*,*,#114,.F.);
#72=ORIENTED_EDGE('',*,*,#100,.F.);
#73=ORIENTED_EDGE('',*,*,#115,.T.);
#74=ORIENTED_EDGE('',*,*,#107,.T.);
#75=ORIENTED_EDGE('',*,*,#99,.T.);
#76=ORIENTED_EDGE('',*,*,#113,.T.);
#77=ORIENTED_EDGE('',*,*,#108,.T.);
#78=ORIENTED_EDGE('',*,*,#115,.F.);
#79=ORIENTED_EDGE('',*,*,#106,.F.);
#80=ORIENTED_EDGE('',*,*,#116,.T.);
#81=ORIENTED_EDGE('',*,*,#101,.F.);
#82=ORIENTED_EDGE('',*,*,#114,.T.);
#83=ORIENTED_EDGE('',*,*,#96,.T.);
#84=ORIENTED_EDGE('',*,*,#116,.F.);
#85=ORIENTED_EDGE('',*,*,#105,.T.);
#86=ORIENTED_EDGE('',*,*,#111,.F.);
#87=ORIENTED_EDGE('',*,*,#93,.T.);
#88=ORIENTED_EDGE('',*,*,#102,.T.);
#89=ORIENTED_EDGE('',*,*,#94,.T.);
#90=ORIENTED_EDGE('',*,*,#103,.T.);
#91=ORIENTED_EDGE('',*,*,#95,.T.);
#92=ORIENTED_EDGE('',*,*,#104,.T.);
#93=EDGE_CURVE('',#117,#117,#135,.F.);
#94=EDGE_CURVE('',#118,#118,#136,.F.);
#95=EDGE_CURVE('',#119,#119,#137,.F.);
#96=EDGE_CURVE('',#120,#121,#138,.F.);
#97=EDGE_CURVE('',#120,#122,#19,.T.);
#98=EDGE_CURVE('',#123,#122,#20,.T.);
#99=EDGE_CURVE('',#124,#123,#21,.T.);
#100=EDGE_CURVE('',#124,#125,#22,.T.);
#101=EDGE_CURVE('',#125,#121,#23,.T.);
#102=EDGE_CURVE('',#126,#126,#139,.T.);
#103=EDGE_CURVE('',#127,#127,#140,.T.);
#104=EDGE_CURVE('',#128,#128,#141,.T.);
#105=EDGE_CURVE('',#129,#130,#142,.T.);
#106=EDGE_CURVE('',#129,#131,#16,.T.);
#107=EDGE_CURVE('',#132,#131,#24,.T.);
#108=EDGE_CURVE('',#133,#132,#17,.F.);
#109=EDGE_CURVE('',#133,#134,#25,.T.);
#110=EDGE_CURVE('',#134,#130,#18,.T.);
#111=EDGE_CURVE('',#120,#130,#26,.T.);
#112=EDGE_CURVE('',#122,#134,#27,.T.);
#113=EDGE_CURVE('',#123,#133,#28,.T.);
#114=EDGE_CURVE('',#125,#131,#29,.T.);
#115=EDGE_CURVE('',#124,#132,#30,.T.);
#116=EDGE_CURVE('',#129,#121,#31,.F.);
#117=VERTEX_POINT('',#289);
#118=VERTEX_POINT('',#291);
#119=VERTEX_POINT('',#293);
#120=VERTEX_POINT('',#295);
#121=VERTEX_POINT('',#296);
#122=VERTEX_POINT('',#298);
#123=VERTEX_POINT('',#300);
#124=VERTEX_POINT('',#302);
#125=VERTEX_POINT('',#304);
#126=VERTEX_POINT('',#308);
#127=VERTEX_POINT('',#310);
#128=VERTEX_POINT('',#312);
#129=VERTEX_POINT('',#314);
#130=VERTEX_POINT('',#315);
#131=VERTEX_POINT('',#320);
#132=VERTEX_POINT('',#322);
#133=VERTEX_POINT('',#327);
#134=VERTEX_POINT('',#329);
#135=CIRCLE('',#215,0.0025527);
#136=CIRCLE('',#216,0.0025527);
#137=CIRCLE('',#217,0.0025527);
#138=CIRCLE('',#218,0.0025527);
#139=CIRCLE('',#220,0.0025527);
#140=CIRCLE('',#221,0.0025527);
#141=CIRCLE('',#222,0.0025527);
#142=CIRCLE('',#223,0.0025527);
#143=EDGE_LOOP('',(#45));
#144=EDGE_LOOP('',(#46));
#145=EDGE_LOOP('',(#47));
#146=EDGE_LOOP('',(#48,#49,#50,#51,#52,#53));
#147=EDGE_LOOP('',(#54));
#148=EDGE_LOOP('',(#55));
#149=EDGE_LOOP('',(#56));
#150=EDGE_LOOP('',(#57,#58,#59,#60,#61,#62));
#151=EDGE_LOOP('',(#63,#64,#65,#66));
#152=EDGE_LOOP('',(#67,#68,#69,#70));
#153=EDGE_LOOP('',(#71,#72,#73,#74));
#154=EDGE_LOOP('',(#75,#76,#77,#78));
#155=EDGE_LOOP('',(#79,#80,#81,#82));
#156=EDGE_LOOP('',(#83,#84,#85,#86));
#157=EDGE_LOOP('',(#87));
#158=EDGE_LOOP('',(#88));
#159=EDGE_LOOP('',(#89));
#160=EDGE_LOOP('',(#90));
#161=EDGE_LOOP('',(#91));
#162=EDGE_LOOP('',(#92));
#163=FACE_BOUND('',#143,.T.);
#164=FACE_BOUND('',#144,.T.);
#165=FACE_BOUND('',#145,.T.);
#166=FACE_BOUND('',#146,.T.);
#167=FACE_BOUND('',#147,.T.);
#168=FACE_BOUND('',#148,.T.);
#169=FACE_BOUND('',#149,.T.);
#170=FACE_BOUND('',#150,.T.);
#171=FACE_BOUND('',#151,.T.);
#172=FACE_BOUND('',#152,.T.);
#173=FACE_BOUND('',#153,.T.);
#174=FACE_BOUND('',#154,.T.);
#175=FACE_BOUND('',#155,.T.);
#176=FACE_BOUND('',#156,.T.);
#177=FACE_BOUND('',#157,.T.);
#178=FACE_BOUND('',#158,.T.);
#179=FACE_BOUND('',#159,.T.);
#180=FACE_BOUND('',#160,.T.);
#181=FACE_BOUND('',#161,.T.);
#182=FACE_BOUND('',#162,.T.);
#183=PLANE('',#214);
#184=PLANE('',#219);
#185=PLANE('',#224);
#186=PLANE('',#225);
#187=PLANE('',#226);
#188=PLANE('',#227);
#189=PLANE('',#228);
#190=ADVANCED_FACE('',(#163,#164,#165,#166),#183,.F.);
#191=ADVANCED_FACE('',(#167,#168,#169,#170),#184,.F.);
#192=ADVANCED_FACE('',(#171),#185,.F.);
#193=ADVANCED_FACE('',(#172),#186,.F.);
#194=ADVANCED_FACE('',(#173),#187,.T.);
#195=ADVANCED_FACE('',(#174),#188,.T.);
#196=ADVANCED_FACE('',(#175),#189,.F.);
#197=ADVANCED_FACE('',(#176),#12,.F.);
#198=ADVANCED_FACE('',(#177,#178),#13,.F.);
#199=ADVANCED_FACE('',(#179,#180),#14,.F.);
#200=ADVANCED_FACE('',(#181,#182),#15,.F.);
#201=CLOSED_SHELL('',(#190,#191,#192,#193,#194,#195,#196,#197,#198,#199,
#200));
#202=STYLED_ITEM('',(#203),#210);
#203=PRESENTATION_STYLE_ASSIGNMENT((#204));
#204=SURFACE_STYLE_USAGE(.BOTH.,#205);
#205=SURFACE_SIDE_STYLE('',(#206));
#206=SURFACE_STYLE_FILL_AREA(#207);
#207=FILL_AREA_STYLE('',(#208));
#208=FILL_AREA_STYLE_COLOUR('',#209);
#209=COLOUR_RGB('',0.768627450980392,0.886274509803922,0.952941176470588);
#210=MANIFOLD_SOLID_BREP('Part 14',#201);
#211=SHAPE_DEFINITION_REPRESENTATION(#355,#212);
#212=SHAPE_REPRESENTATION('Part 14',(#213),#350);
#213=AXIS2_PLACEMENT_3D('',#286,#233,#234);
#214=AXIS2_PLACEMENT_3D('',#287,#235,#236);
#215=AXIS2_PLACEMENT_3D('',#288,#237,#238);
#216=AXIS2_PLACEMENT_3D('',#290,#239,#240);
#217=AXIS2_PLACEMENT_3D('',#292,#241,#242);
#218=AXIS2_PLACEMENT_3D('',#294,#243,#244);
#219=AXIS2_PLACEMENT_3D('',#306,#250,#251);
#220=AXIS2_PLACEMENT_3D('',#307,#252,#253);
#221=AXIS2_PLACEMENT_3D('',#309,#254,#255);
#222=AXIS2_PLACEMENT_3D('',#311,#256,#257);
#223=AXIS2_PLACEMENT_3D('',#313,#258,#259);
#224=AXIS2_PLACEMENT_3D('',#334,#262,#263);
#225=AXIS2_PLACEMENT_3D('',#337,#266,#267);
#226=AXIS2_PLACEMENT_3D('',#339,#269,#270);
#227=AXIS2_PLACEMENT_3D('',#342,#273,#274);
#228=AXIS2_PLACEMENT_3D('',#343,#275,#276);
#229=AXIS2_PLACEMENT_3D('',#345,#278,#279);
#230=AXIS2_PLACEMENT_3D('',#346,#280,#281);
#231=AXIS2_PLACEMENT_3D('',#347,#282,#283);
#232=AXIS2_PLACEMENT_3D('',#348,#284,#285);
#233=DIRECTION('',(0.,0.,1.));
#234=DIRECTION('',(1.,0.,0.));
#235=DIRECTION('',(0.,0.,1.));
#236=DIRECTION('',(1.,0.,0.));
#237=DIRECTION('',(0.,0.,1.));
#238=DIRECTION('',(1.,0.,0.));
#239=DIRECTION('',(0.,0.,1.));
#240=DIRECTION('',(1.,0.,0.));
#241=DIRECTION('',(0.,0.,1.));
#242=DIRECTION('',(1.,0.,0.));
#243=DIRECTION('',(0.,0.,1.));
#244=DIRECTION('',(1.,0.,0.));
#245=DIRECTION('',(0.,1.,0.));
#246=DIRECTION('',(-1.,0.,0.));
#247=DIRECTION('',(0.,1.,0.));
#248=DIRECTION('',(-1.,0.,0.));
#249=DIRECTION('',(0.,1.,0.));
#250=DIRECTION('',(0.,0.,-1.));
#251=DIRECTION('',(-1.,0.,0.));
#252=DIRECTION('',(0.,0.,1.));
#253=DIRECTION('',(1.,0.,0.));
#254=DIRECTION('',(0.,0.,1.));
#255=DIRECTION('',(1.,0.,0.));
#256=DIRECTION('',(0.,0.,1.));
#257=DIRECTION('',(1.,0.,0.));
#258=DIRECTION('',(0.,0.,1.));
#259=DIRECTION('',(1.,0.,0.));
#260=DIRECTION('',(-1.,0.,0.));
#261=DIRECTION('',(-1.,0.,0.));
#262=DIRECTION('',(1.,0.,0.));
#263=DIRECTION('',(0.,1.,0.));
#264=DIRECTION('',(0.,0.,1.));
#265=DIRECTION('',(0.,0.,1.));
#266=DIRECTION('',(0.,-1.,0.));
#267=DIRECTION('',(0.,0.,-1.));
#268=DIRECTION('',(0.,0.,1.));
#269=DIRECTION('',(0.,-1.,0.));
#270=DIRECTION('',(0.,0.,-1.));
#271=DIRECTION('',(0.,0.,1.));
#272=DIRECTION('',(0.,0.,1.));
#273=DIRECTION('',(1.,0.,0.));
#274=DIRECTION('',(0.,1.,0.));
#275=DIRECTION('',(1.,0.,0.));
#276=DIRECTION('',(0.,1.,0.));
#277=DIRECTION('',(0.,0.,1.));
#278=DIRECTION('',(0.,0.,1.));
#279=DIRECTION('',(1.,0.,0.));
#280=DIRECTION('',(0.,0.,1.));
#281=DIRECTION('',(1.,0.,0.));
#282=DIRECTION('',(0.,0.,1.));
#283=DIRECTION('',(1.,0.,0.));
#284=DIRECTION('',(0.,0.,1.));
#285=DIRECTION('',(1.,0.,0.));
#286=CARTESIAN_POINT('',(0.,0.,0.));
#287=CARTESIAN_POINT('',(0.17855379999615,-0.1139,0.));
#288=CARTESIAN_POINT('',(0.1397,-0.1016,0.));
#289=CARTESIAN_POINT('',(0.1422527,-0.1016,0.));
#290=CARTESIAN_POINT('',(0.1524,-0.1016,0.));
#291=CARTESIAN_POINT('',(0.1549527,-0.1016,0.));
#292=CARTESIAN_POINT('',(0.1651,-0.1016,0.));
#293=CARTESIAN_POINT('',(0.1676527,-0.1016,0.));
#294=CARTESIAN_POINT('',(0.127,-0.1016,0.));
#295=CARTESIAN_POINT('',(0.12859199999615,-0.0996045518542791,0.));
#296=CARTESIAN_POINT('',(0.12859199999615,-0.10359544814572,0.));
#297=CARTESIAN_POINT('',(0.12859199999615,-0.1139,0.));
#298=CARTESIAN_POINT('',(0.12859199999615,-0.0889,0.));
#299=CARTESIAN_POINT('',(0.17855379999615,-0.0889,0.));
#300=CARTESIAN_POINT('',(0.17855379999615,-0.0889,0.));
#301=CARTESIAN_POINT('',(0.17855379999615,-0.1139,0.));
#302=CARTESIAN_POINT('',(0.17855379999615,-0.1139,0.));
#303=CARTESIAN_POINT('',(0.17855379999615,-0.1139,0.));
#304=CARTESIAN_POINT('',(0.12859199999615,-0.1139,0.));
#305=CARTESIAN_POINT('',(0.12859199999615,-0.1139,0.));
#306=CARTESIAN_POINT('',(0.17855379999615,-0.1014,0.0285001519944541));
#307=CARTESIAN_POINT('',(0.1397,-0.1016,0.0285001519944541));
#308=CARTESIAN_POINT('',(0.1422527,-0.1016,0.0285001519944541));
#309=CARTESIAN_POINT('',(0.1524,-0.1016,0.0285001519944541));
#310=CARTESIAN_POINT('',(0.1549527,-0.1016,0.0285001519944541));
#311=CARTESIAN_POINT('',(0.1651,-0.1016,0.0285001519944541));
#312=CARTESIAN_POINT('',(0.1676527,-0.1016,0.0285001519944541));
#313=CARTESIAN_POINT('',(0.127,-0.1016,0.0285001519944541));
#314=CARTESIAN_POINT('',(0.12859199999615,-0.10359544814572,0.0285001519944541));
#315=CARTESIAN_POINT('',(0.12859199999615,-0.0996045518542791,0.0285001519944541));
#316=CARTESIAN_POINT('',(0.12859199999615,-0.103595448145713,0.0285001519944541));
#317=CARTESIAN_POINT('',(0.12859199999615,-0.107030298763809,0.0285001519944541));
#318=CARTESIAN_POINT('',(0.12859199999615,-0.110465149381904,0.0285001519944541));
#319=CARTESIAN_POINT('',(0.12859199999615,-0.1139,0.0285001519944541));
#320=CARTESIAN_POINT('',(0.12859199999615,-0.1139,0.0285001519944541));
#321=CARTESIAN_POINT('',(0.17855379999615,-0.1139,0.0285001519944541));
#322=CARTESIAN_POINT('',(0.17855379999615,-0.1139,0.0285001519944541));
#323=CARTESIAN_POINT('',(0.17855379999615,-0.1139,0.0285001519944541));
#324=CARTESIAN_POINT('',(0.17855379999615,-0.105566666666667,0.0285001519944541));
#325=CARTESIAN_POINT('',(0.17855379999615,-0.0972333333333334,0.0285001519944541));
#326=CARTESIAN_POINT('',(0.17855379999615,-0.0889,0.0285001519944541));
#327=CARTESIAN_POINT('',(0.17855379999615,-0.0889,0.0285001519944541));
#328=CARTESIAN_POINT('',(0.17855379999615,-0.0889,0.0285001519944541));
#329=CARTESIAN_POINT('',(0.12859199999615,-0.0889,0.0285001519944541));
#330=CARTESIAN_POINT('',(0.12859199999615,-0.0889,0.0285001519944541));
#331=CARTESIAN_POINT('',(0.12859199999615,-0.0924681839514264,0.0285001519944541));
#332=CARTESIAN_POINT('',(0.12859199999615,-0.0960363679028527,0.0285001519944541));
#333=CARTESIAN_POINT('',(0.12859199999615,-0.0996045518542791,0.0285001519944541));
#334=CARTESIAN_POINT('',(0.12859199999615,-0.1014,0.0300001394944541));
#335=CARTESIAN_POINT('',(0.12859199999615,-0.0996045518542791,-1.99999999999853E-6));
#336=CARTESIAN_POINT('',(0.12859199999615,-0.0889,0.014250075997227));
#337=CARTESIAN_POINT('',(0.17855379999615,-0.0889,0.014250075997227));
#338=CARTESIAN_POINT('',(0.17855379999615,-0.0889,0.014250075997227));
#339=CARTESIAN_POINT('',(0.17855379999615,-0.1139,0.014250075997227));
#340=CARTESIAN_POINT('',(0.12859199999615,-0.1139,0.014250075997227));
#341=CARTESIAN_POINT('',(0.17855379999615,-0.1139,0.014250075997227));
#342=CARTESIAN_POINT('',(0.17855379999615,-0.1014,0.0300001394944541));
#343=CARTESIAN_POINT('',(0.12859199999615,-0.1014,0.0300001394944541));
#344=CARTESIAN_POINT('',(0.12859199999615,-0.10359544814572,-1.99999999999853E-6));
#345=CARTESIAN_POINT('',(0.127,-0.1016,-1.99999999999853E-6));
#346=CARTESIAN_POINT('',(0.1397,-0.1016,-1.99999999999853E-6));
#347=CARTESIAN_POINT('',(0.1524,-0.1016,-1.99999999999853E-6));
#348=CARTESIAN_POINT('',(0.1651,-0.1016,-1.99999999999853E-6));
#349=MECHANICAL_DESIGN_GEOMETRIC_PRESENTATION_REPRESENTATION('',(#202),
#350);
#350=(
GEOMETRIC_REPRESENTATION_CONTEXT(3)
GLOBAL_UNCERTAINTY_ASSIGNED_CONTEXT((#351))
GLOBAL_UNIT_ASSIGNED_CONTEXT((#354,#353,#352))
REPRESENTATION_CONTEXT('Part 14','TOP_LEVEL_ASSEMBLY_PART')
);
#351=UNCERTAINTY_MEASURE_WITH_UNIT(LENGTH_MEASURE(2.E-5),#354,
'DISTANCE_ACCURACY_VALUE','Maximum Tolerance applied to model');
#352=(
NAMED_UNIT(*)
SI_UNIT($,.STERADIAN.)
SOLID_ANGLE_UNIT()
);
#353=(
NAMED_UNIT(*)
PLANE_ANGLE_UNIT()
SI_UNIT($,.RADIAN.)
);
#354=(
LENGTH_UNIT()
NAMED_UNIT(*)
SI_UNIT($,.METRE.)
);
#355=PRODUCT_DEFINITION_SHAPE('','',#356);
#356=PRODUCT_DEFINITION('','',#358,#357);
#357=PRODUCT_DEFINITION_CONTEXT('',#364,'design');
#358=PRODUCT_DEFINITION_FORMATION_WITH_SPECIFIED_SOURCE('','',#360,
 .NOT_KNOWN.);
#359=PRODUCT_RELATED_PRODUCT_CATEGORY('','',(#360));
#360=PRODUCT('Part 14','Part 14','Part 14',(#362));
#361=PRODUCT_CATEGORY('','');
#362=PRODUCT_CONTEXT('',#364,'mechanical');
#363=APPLICATION_PROTOCOL_DEFINITION('international standard',
'ap242_managed_model_based_3d_engineering',2011,#364);
#364=APPLICATION_CONTEXT('managed model based 3d engineering');
ENDSEC;
END-ISO-10303-21;
