ISO-10303-21;
HEADER;
/* Generated by software containing ST-Developer
 * from STEP Tools, Inc. (www.steptools.com) 
 */
/* OPTION: using custom renumber hook */

FILE_DESCRIPTION(
/* description */ ('STEP AP242 Edition 2',
'CAx-IF Rec.Pracs.---Representation and Presentation of Product Manufa
cturing Information (PMI)---4.0---2014-10-13',
'CAx-IF Rec.Pracs.---3D Tessellated Geometry---0.4---2014-09-14','2;1',
'CAx-IF Rec.Pracs.---User Defined Attributes---1.5---2016-08-15'),
/* implementation_level */ '2;1');

FILE_NAME(
/* name */ 'Part Studio 1 - Top Wood Panel',
/* time_stamp */ '2026-05-27T23:08:38Z',
/* author */ (''),
/* organization */ (''),
/* preprocessor_version */ 'ST-DEVELOPER v20',
/* originating_system */ 'ONSHAPE BY PTC INC, 1.215',
/* authorisation */ '  ');

FILE_SCHEMA (('AP242_MANAGED_MODEL_BASED_3D_ENGINEERING_MIM_LF { 1 0 10303 442 3 1 4 }'));
ENDSEC;

DATA;
#10=SHAPE_REPRESENTATION_RELATIONSHIP('','',#647,#11);
#11=ADVANCED_BREP_SHAPE_REPRESENTATION('',(#645),#1065);
#12=CYLINDRICAL_SURFACE('',#687,0.0025527);
#13=CYLINDRICAL_SURFACE('',#688,0.0025527);
#14=CYLINDRICAL_SURFACE('',#689,0.0025527);
#15=CYLINDRICAL_SURFACE('',#690,0.005);
#16=CYLINDRICAL_SURFACE('',#691,0.005);
#17=CYLINDRICAL_SURFACE('',#692,0.005);
#18=CYLINDRICAL_SURFACE('',#693,0.005);
#19=CYLINDRICAL_SURFACE('',#694,0.005);
#20=CYLINDRICAL_SURFACE('',#695,0.005);
#21=CYLINDRICAL_SURFACE('',#696,0.005);
#22=CYLINDRICAL_SURFACE('',#697,0.005);
#23=CYLINDRICAL_SURFACE('',#698,0.0025527);
#24=CYLINDRICAL_SURFACE('',#699,0.0025527);
#25=CYLINDRICAL_SURFACE('',#700,0.0025527);
#26=CIRCLE('',#655,0.0025527);
#27=CIRCLE('',#656,0.0025527);
#28=CIRCLE('',#657,0.0025527);
#29=CIRCLE('',#658,0.0025527);
#30=CIRCLE('',#659,0.0025527);
#31=CIRCLE('',#660,0.0025527);
#32=CIRCLE('',#661,0.005);
#33=CIRCLE('',#662,0.005);
#34=CIRCLE('',#663,0.005);
#35=CIRCLE('',#664,0.005);
#36=CIRCLE('',#665,0.005);
#37=CIRCLE('',#666,0.005);
#38=CIRCLE('',#667,0.005);
#39=CIRCLE('',#668,0.005);
#40=CIRCLE('',#670,0.0025527);
#41=CIRCLE('',#671,0.0025527);
#42=CIRCLE('',#672,0.0025527);
#43=CIRCLE('',#673,0.0025527);
#44=CIRCLE('',#674,0.0025527);
#45=CIRCLE('',#675,0.0025527);
#46=CIRCLE('',#676,0.005);
#47=CIRCLE('',#677,0.005);
#48=CIRCLE('',#678,0.005);
#49=CIRCLE('',#679,0.005);
#50=CIRCLE('',#680,0.005);
#51=CIRCLE('',#681,0.005);
#52=CIRCLE('',#682,0.005);
#53=CIRCLE('',#683,0.005);
#54=ORIENTED_EDGE('',*,*,#222,.T.);
#55=ORIENTED_EDGE('',*,*,#223,.F.);
#56=ORIENTED_EDGE('',*,*,#224,.T.);
#57=ORIENTED_EDGE('',*,*,#225,.T.);
#58=ORIENTED_EDGE('',*,*,#226,.F.);
#59=ORIENTED_EDGE('',*,*,#227,.T.);
#60=ORIENTED_EDGE('',*,*,#228,.T.);
#61=ORIENTED_EDGE('',*,*,#229,.T.);
#62=ORIENTED_EDGE('',*,*,#230,.T.);
#63=ORIENTED_EDGE('',*,*,#231,.T.);
#64=ORIENTED_EDGE('',*,*,#232,.F.);
#65=ORIENTED_EDGE('',*,*,#233,.T.);
#66=ORIENTED_EDGE('',*,*,#234,.T.);
#67=ORIENTED_EDGE('',*,*,#235,.T.);
#68=ORIENTED_EDGE('',*,*,#236,.F.);
#69=ORIENTED_EDGE('',*,*,#237,.T.);
#70=ORIENTED_EDGE('',*,*,#238,.T.);
#71=ORIENTED_EDGE('',*,*,#239,.T.);
#72=ORIENTED_EDGE('',*,*,#240,.F.);
#73=ORIENTED_EDGE('',*,*,#241,.T.);
#74=ORIENTED_EDGE('',*,*,#242,.F.);
#75=ORIENTED_EDGE('',*,*,#243,.T.);
#76=ORIENTED_EDGE('',*,*,#244,.T.);
#77=ORIENTED_EDGE('',*,*,#245,.F.);
#78=ORIENTED_EDGE('',*,*,#246,.F.);
#79=ORIENTED_EDGE('',*,*,#247,.T.);
#80=ORIENTED_EDGE('',*,*,#248,.T.);
#81=ORIENTED_EDGE('',*,*,#249,.F.);
#82=ORIENTED_EDGE('',*,*,#250,.T.);
#83=ORIENTED_EDGE('',*,*,#251,.T.);
#84=ORIENTED_EDGE('',*,*,#252,.T.);
#85=ORIENTED_EDGE('',*,*,#253,.T.);
#86=ORIENTED_EDGE('',*,*,#254,.T.);
#87=ORIENTED_EDGE('',*,*,#255,.T.);
#88=ORIENTED_EDGE('',*,*,#240,.T.);
#89=ORIENTED_EDGE('',*,*,#256,.T.);
#90=ORIENTED_EDGE('',*,*,#230,.F.);
#91=ORIENTED_EDGE('',*,*,#257,.T.);
#92=ORIENTED_EDGE('',*,*,#236,.T.);
#93=ORIENTED_EDGE('',*,*,#258,.T.);
#94=ORIENTED_EDGE('',*,*,#223,.T.);
#95=ORIENTED_EDGE('',*,*,#259,.T.);
#96=ORIENTED_EDGE('',*,*,#260,.T.);
#97=ORIENTED_EDGE('',*,*,#261,.T.);
#98=ORIENTED_EDGE('',*,*,#262,.T.);
#99=ORIENTED_EDGE('',*,*,#263,.T.);
#100=ORIENTED_EDGE('',*,*,#264,.F.);
#101=ORIENTED_EDGE('',*,*,#265,.T.);
#102=ORIENTED_EDGE('',*,*,#226,.T.);
#103=ORIENTED_EDGE('',*,*,#266,.T.);
#104=ORIENTED_EDGE('',*,*,#267,.F.);
#105=ORIENTED_EDGE('',*,*,#268,.T.);
#106=ORIENTED_EDGE('',*,*,#269,.T.);
#107=ORIENTED_EDGE('',*,*,#270,.F.);
#108=ORIENTED_EDGE('',*,*,#271,.F.);
#109=ORIENTED_EDGE('',*,*,#272,.T.);
#110=ORIENTED_EDGE('',*,*,#273,.T.);
#111=ORIENTED_EDGE('',*,*,#274,.F.);
#112=ORIENTED_EDGE('',*,*,#275,.F.);
#113=ORIENTED_EDGE('',*,*,#276,.F.);
#114=ORIENTED_EDGE('',*,*,#277,.F.);
#115=ORIENTED_EDGE('',*,*,#278,.F.);
#116=ORIENTED_EDGE('',*,*,#279,.F.);
#117=ORIENTED_EDGE('',*,*,#280,.F.);
#118=ORIENTED_EDGE('',*,*,#232,.T.);
#119=ORIENTED_EDGE('',*,*,#281,.T.);
#120=ORIENTED_EDGE('',*,*,#238,.F.);
#121=ORIENTED_EDGE('',*,*,#282,.T.);
#122=ORIENTED_EDGE('',*,*,#228,.F.);
#123=ORIENTED_EDGE('',*,*,#283,.T.);
#124=ORIENTED_EDGE('',*,*,#284,.T.);
#125=ORIENTED_EDGE('',*,*,#285,.T.);
#126=ORIENTED_EDGE('',*,*,#286,.F.);
#127=ORIENTED_EDGE('',*,*,#287,.T.);
#128=ORIENTED_EDGE('',*,*,#288,.F.);
#129=ORIENTED_EDGE('',*,*,#289,.T.);
#130=ORIENTED_EDGE('',*,*,#225,.F.);
#131=ORIENTED_EDGE('',*,*,#290,.T.);
#132=ORIENTED_EDGE('',*,*,#234,.F.);
#133=ORIENTED_EDGE('',*,*,#291,.T.);
#134=ORIENTED_EDGE('',*,*,#292,.T.);
#135=ORIENTED_EDGE('',*,*,#260,.F.);
#136=ORIENTED_EDGE('',*,*,#293,.T.);
#137=ORIENTED_EDGE('',*,*,#288,.T.);
#138=ORIENTED_EDGE('',*,*,#284,.F.);
#139=ORIENTED_EDGE('',*,*,#294,.T.);
#140=ORIENTED_EDGE('',*,*,#264,.T.);
#141=ORIENTED_EDGE('',*,*,#295,.T.);
#142=ORIENTED_EDGE('',*,*,#286,.T.);
#143=ORIENTED_EDGE('',*,*,#296,.T.);
#144=ORIENTED_EDGE('',*,*,#262,.F.);
#145=ORIENTED_EDGE('',*,*,#297,.T.);
#146=ORIENTED_EDGE('',*,*,#280,.T.);
#147=ORIENTED_EDGE('',*,*,#255,.F.);
#148=ORIENTED_EDGE('',*,*,#279,.T.);
#149=ORIENTED_EDGE('',*,*,#254,.F.);
#150=ORIENTED_EDGE('',*,*,#278,.T.);
#151=ORIENTED_EDGE('',*,*,#253,.F.);
#152=ORIENTED_EDGE('',*,*,#293,.F.);
#153=ORIENTED_EDGE('',*,*,#259,.F.);
#154=ORIENTED_EDGE('',*,*,#222,.F.);
#155=ORIENTED_EDGE('',*,*,#289,.F.);
#156=ORIENTED_EDGE('',*,*,#256,.F.);
#157=ORIENTED_EDGE('',*,*,#239,.F.);
#158=ORIENTED_EDGE('',*,*,#281,.F.);
#159=ORIENTED_EDGE('',*,*,#231,.F.);
#160=ORIENTED_EDGE('',*,*,#227,.F.);
#161=ORIENTED_EDGE('',*,*,#265,.F.);
#162=ORIENTED_EDGE('',*,*,#294,.F.);
#163=ORIENTED_EDGE('',*,*,#283,.F.);
#164=ORIENTED_EDGE('',*,*,#266,.F.);
#165=ORIENTED_EDGE('',*,*,#229,.F.);
#166=ORIENTED_EDGE('',*,*,#282,.F.);
#167=ORIENTED_EDGE('',*,*,#241,.F.);
#168=ORIENTED_EDGE('',*,*,#258,.F.);
#169=ORIENTED_EDGE('',*,*,#235,.F.);
#170=ORIENTED_EDGE('',*,*,#290,.F.);
#171=ORIENTED_EDGE('',*,*,#224,.F.);
#172=ORIENTED_EDGE('',*,*,#257,.F.);
#173=ORIENTED_EDGE('',*,*,#233,.F.);
#174=ORIENTED_EDGE('',*,*,#291,.F.);
#175=ORIENTED_EDGE('',*,*,#237,.F.);
#176=ORIENTED_EDGE('',*,*,#295,.F.);
#177=ORIENTED_EDGE('',*,*,#263,.F.);
#178=ORIENTED_EDGE('',*,*,#296,.F.);
#179=ORIENTED_EDGE('',*,*,#285,.F.);
#180=ORIENTED_EDGE('',*,*,#297,.F.);
#181=ORIENTED_EDGE('',*,*,#261,.F.);
#182=ORIENTED_EDGE('',*,*,#292,.F.);
#183=ORIENTED_EDGE('',*,*,#287,.F.);
#184=ORIENTED_EDGE('',*,*,#277,.T.);
#185=ORIENTED_EDGE('',*,*,#252,.F.);
#186=ORIENTED_EDGE('',*,*,#276,.T.);
#187=ORIENTED_EDGE('',*,*,#251,.F.);
#188=ORIENTED_EDGE('',*,*,#275,.T.);
#189=ORIENTED_EDGE('',*,*,#250,.F.);
#190=ORIENTED_EDGE('',*,*,#246,.T.);
#191=ORIENTED_EDGE('',*,*,#298,.F.);
#192=ORIENTED_EDGE('',*,*,#272,.F.);
#193=ORIENTED_EDGE('',*,*,#299,.T.);
#194=ORIENTED_EDGE('',*,*,#299,.F.);
#195=ORIENTED_EDGE('',*,*,#271,.T.);
#196=ORIENTED_EDGE('',*,*,#300,.T.);
#197=ORIENTED_EDGE('',*,*,#247,.F.);
#198=ORIENTED_EDGE('',*,*,#300,.F.);
#199=ORIENTED_EDGE('',*,*,#274,.T.);
#200=ORIENTED_EDGE('',*,*,#301,.T.);
#201=ORIENTED_EDGE('',*,*,#248,.F.);
#202=ORIENTED_EDGE('',*,*,#249,.T.);
#203=ORIENTED_EDGE('',*,*,#301,.F.);
#204=ORIENTED_EDGE('',*,*,#273,.F.);
#205=ORIENTED_EDGE('',*,*,#298,.T.);
#206=ORIENTED_EDGE('',*,*,#242,.T.);
#207=ORIENTED_EDGE('',*,*,#302,.F.);
#208=ORIENTED_EDGE('',*,*,#268,.F.);
#209=ORIENTED_EDGE('',*,*,#303,.T.);
#210=ORIENTED_EDGE('',*,*,#303,.F.);
#211=ORIENTED_EDGE('',*,*,#267,.T.);
#212=ORIENTED_EDGE('',*,*,#304,.T.);
#213=ORIENTED_EDGE('',*,*,#243,.F.);
#214=ORIENTED_EDGE('',*,*,#304,.F.);
#215=ORIENTED_EDGE('',*,*,#270,.T.);
#216=ORIENTED_EDGE('',*,*,#305,.T.);
#217=ORIENTED_EDGE('',*,*,#244,.F.);
#218=ORIENTED_EDGE('',*,*,#245,.T.);
#219=ORIENTED_EDGE('',*,*,#305,.F.);
#220=ORIENTED_EDGE('',*,*,#269,.F.);
#221=ORIENTED_EDGE('',*,*,#302,.T.);
#222=EDGE_CURVE('',#306,#307,#366,.F.);
#223=EDGE_CURVE('',#308,#307,#367,.T.);
#224=EDGE_CURVE('',#308,#309,#368,.T.);
#225=EDGE_CURVE('',#309,#306,#369,.T.);
#226=EDGE_CURVE('',#310,#311,#370,.T.);
#227=EDGE_CURVE('',#310,#312,#371,.T.);
#228=EDGE_CURVE('',#312,#313,#372,.T.);
#229=EDGE_CURVE('',#313,#311,#373,.F.);
#230=EDGE_CURVE('',#314,#315,#374,.T.);
#231=EDGE_CURVE('',#315,#316,#375,.T.);
#232=EDGE_CURVE('',#317,#316,#376,.T.);
#233=EDGE_CURVE('',#317,#314,#377,.F.);
#234=EDGE_CURVE('',#318,#319,#378,.T.);
#235=EDGE_CURVE('',#319,#320,#379,.F.);
#236=EDGE_CURVE('',#321,#320,#380,.T.);
#237=EDGE_CURVE('',#321,#318,#381,.T.);
#238=EDGE_CURVE('',#322,#323,#382,.T.);
#239=EDGE_CURVE('',#323,#324,#383,.F.);
#240=EDGE_CURVE('',#325,#324,#384,.T.);
#241=EDGE_CURVE('',#325,#322,#385,.T.);
#242=EDGE_CURVE('',#326,#327,#386,.T.);
#243=EDGE_CURVE('',#326,#328,#387,.T.);
#244=EDGE_CURVE('',#328,#329,#388,.T.);
#245=EDGE_CURVE('',#327,#329,#389,.T.);
#246=EDGE_CURVE('',#330,#331,#390,.T.);
#247=EDGE_CURVE('',#330,#332,#391,.T.);
#248=EDGE_CURVE('',#332,#333,#392,.T.);
#249=EDGE_CURVE('',#331,#333,#393,.T.);
#250=EDGE_CURVE('',#334,#334,#26,.F.);
#251=EDGE_CURVE('',#335,#335,#27,.F.);
#252=EDGE_CURVE('',#336,#336,#28,.F.);
#253=EDGE_CURVE('',#337,#337,#29,.F.);
#254=EDGE_CURVE('',#338,#338,#30,.F.);
#255=EDGE_CURVE('',#339,#339,#31,.F.);
#256=EDGE_CURVE('',#324,#315,#32,.T.);
#257=EDGE_CURVE('',#314,#321,#33,.T.);
#258=EDGE_CURVE('',#320,#308,#34,.T.);
#259=EDGE_CURVE('',#307,#340,#35,.T.);
#260=EDGE_CURVE('',#340,#341,#394,.T.);
#261=EDGE_CURVE('',#341,#342,#36,.F.);
#262=EDGE_CURVE('',#342,#343,#395,.T.);
#263=EDGE_CURVE('',#343,#344,#37,.F.);
#264=EDGE_CURVE('',#345,#344,#396,.T.);
#265=EDGE_CURVE('',#345,#310,#38,.T.);
#266=EDGE_CURVE('',#311,#325,#39,.T.);
#267=EDGE_CURVE('',#346,#347,#397,.T.);
#268=EDGE_CURVE('',#346,#348,#398,.T.);
#269=EDGE_CURVE('',#348,#349,#399,.T.);
#270=EDGE_CURVE('',#347,#349,#400,.T.);
#271=EDGE_CURVE('',#350,#351,#401,.T.);
#272=EDGE_CURVE('',#350,#352,#402,.T.);
#273=EDGE_CURVE('',#352,#353,#403,.T.);
#274=EDGE_CURVE('',#351,#353,#404,.T.);
#275=EDGE_CURVE('',#354,#354,#40,.T.);
#276=EDGE_CURVE('',#355,#355,#41,.T.);
#277=EDGE_CURVE('',#356,#356,#42,.T.);
#278=EDGE_CURVE('',#357,#357,#43,.T.);
#279=EDGE_CURVE('',#358,#358,#44,.T.);
#280=EDGE_CURVE('',#359,#359,#45,.T.);
#281=EDGE_CURVE('',#316,#323,#46,.F.);
#282=EDGE_CURVE('',#322,#313,#47,.F.);
#283=EDGE_CURVE('',#312,#360,#48,.T.);
#284=EDGE_CURVE('',#360,#361,#405,.T.);
#285=EDGE_CURVE('',#361,#362,#49,.F.);
#286=EDGE_CURVE('',#363,#362,#406,.T.);
#287=EDGE_CURVE('',#363,#364,#50,.F.);
#288=EDGE_CURVE('',#365,#364,#407,.T.);
#289=EDGE_CURVE('',#365,#306,#51,.T.);
#290=EDGE_CURVE('',#309,#319,#52,.F.);
#291=EDGE_CURVE('',#318,#317,#53,.F.);
#292=EDGE_CURVE('',#364,#341,#408,.F.);
#293=EDGE_CURVE('',#340,#365,#409,.T.);
#294=EDGE_CURVE('',#360,#345,#410,.F.);
#295=EDGE_CURVE('',#344,#361,#411,.T.);
#296=EDGE_CURVE('',#362,#343,#412,.F.);
#297=EDGE_CURVE('',#342,#363,#413,.T.);
#298=EDGE_CURVE('',#352,#331,#414,.T.);
#299=EDGE_CURVE('',#350,#330,#415,.T.);
#300=EDGE_CURVE('',#351,#332,#416,.T.);
#301=EDGE_CURVE('',#353,#333,#417,.T.);
#302=EDGE_CURVE('',#348,#327,#418,.T.);
#303=EDGE_CURVE('',#346,#326,#419,.T.);
#304=EDGE_CURVE('',#347,#328,#420,.T.);
#305=EDGE_CURVE('',#349,#329,#421,.T.);
#306=VERTEX_POINT('',#890);
#307=VERTEX_POINT('',#891);
#308=VERTEX_POINT('',#893);
#309=VERTEX_POINT('',#895);
#310=VERTEX_POINT('',#899);
#311=VERTEX_POINT('',#900);
#312=VERTEX_POINT('',#902);
#313=VERTEX_POINT('',#904);
#314=VERTEX_POINT('',#908);
#315=VERTEX_POINT('',#909);
#316=VERTEX_POINT('',#911);
#317=VERTEX_POINT('',#913);
#318=VERTEX_POINT('',#917);
#319=VERTEX_POINT('',#918);
#320=VERTEX_POINT('',#920);
#321=VERTEX_POINT('',#922);
#322=VERTEX_POINT('',#926);
#323=VERTEX_POINT('',#927);
#324=VERTEX_POINT('',#929);
#325=VERTEX_POINT('',#931);
#326=VERTEX_POINT('',#935);
#327=VERTEX_POINT('',#936);
#328=VERTEX_POINT('',#938);
#329=VERTEX_POINT('',#940);
#330=VERTEX_POINT('',#943);
#331=VERTEX_POINT('',#944);
#332=VERTEX_POINT('',#946);
#333=VERTEX_POINT('',#948);
#334=VERTEX_POINT('',#951);
#335=VERTEX_POINT('',#953);
#336=VERTEX_POINT('',#955);
#337=VERTEX_POINT('',#957);
#338=VERTEX_POINT('',#959);
#339=VERTEX_POINT('',#961);
#340=VERTEX_POINT('',#966);
#341=VERTEX_POINT('',#968);
#342=VERTEX_POINT('',#970);
#343=VERTEX_POINT('',#972);
#344=VERTEX_POINT('',#974);
#345=VERTEX_POINT('',#976);
#346=VERTEX_POINT('',#981);
#347=VERTEX_POINT('',#982);
#348=VERTEX_POINT('',#984);
#349=VERTEX_POINT('',#986);
#350=VERTEX_POINT('',#989);
#351=VERTEX_POINT('',#990);
#352=VERTEX_POINT('',#992);
#353=VERTEX_POINT('',#994);
#354=VERTEX_POINT('',#997);
#355=VERTEX_POINT('',#999);
#356=VERTEX_POINT('',#1001);
#357=VERTEX_POINT('',#1003);
#358=VERTEX_POINT('',#1005);
#359=VERTEX_POINT('',#1007);
#360=VERTEX_POINT('',#1011);
#361=VERTEX_POINT('',#1013);
#362=VERTEX_POINT('',#1015);
#363=VERTEX_POINT('',#1017);
#364=VERTEX_POINT('',#1019);
#365=VERTEX_POINT('',#1021);
#366=LINE('',#889,#422);
#367=LINE('',#892,#423);
#368=LINE('',#894,#424);
#369=LINE('',#896,#425);
#370=LINE('',#898,#426);
#371=LINE('',#901,#427);
#372=LINE('',#903,#428);
#373=LINE('',#905,#429);
#374=LINE('',#907,#430);
#375=LINE('',#910,#431);
#376=LINE('',#912,#432);
#377=LINE('',#914,#433);
#378=LINE('',#916,#434);
#379=LINE('',#919,#435);
#380=LINE('',#921,#436);
#381=LINE('',#923,#437);
#382=LINE('',#925,#438);
#383=LINE('',#928,#439);
#384=LINE('',#930,#440);
#385=LINE('',#932,#441);
#386=LINE('',#934,#442);
#387=LINE('',#937,#443);
#388=LINE('',#939,#444);
#389=LINE('',#941,#445);
#390=LINE('',#942,#446);
#391=LINE('',#945,#447);
#392=LINE('',#947,#448);
#393=LINE('',#949,#449);
#394=LINE('',#967,#450);
#395=LINE('',#971,#451);
#396=LINE('',#975,#452);
#397=LINE('',#980,#453);
#398=LINE('',#983,#454);
#399=LINE('',#985,#455);
#400=LINE('',#987,#456);
#401=LINE('',#988,#457);
#402=LINE('',#991,#458);
#403=LINE('',#993,#459);
#404=LINE('',#995,#460);
#405=LINE('',#1012,#461);
#406=LINE('',#1016,#462);
#407=LINE('',#1020,#463);
#408=LINE('',#1026,#464);
#409=LINE('',#1027,#465);
#410=LINE('',#1029,#466);
#411=LINE('',#1030,#467);
#412=LINE('',#1032,#468);
#413=LINE('',#1033,#469);
#414=LINE('',#1049,#470);
#415=LINE('',#1050,#471);
#416=LINE('',#1052,#472);
#417=LINE('',#1054,#473);
#418=LINE('',#1057,#474);
#419=LINE('',#1058,#475);
#420=LINE('',#1060,#476);
#421=LINE('',#1062,#477);
#422=VECTOR('',#713,1.);
#423=VECTOR('',#714,1.);
#424=VECTOR('',#715,1.);
#425=VECTOR('',#716,1.);
#426=VECTOR('',#719,1.);
#427=VECTOR('',#720,1.);
#428=VECTOR('',#721,1.);
#429=VECTOR('',#722,1.);
#430=VECTOR('',#725,1.);
#431=VECTOR('',#726,1.);
#432=VECTOR('',#727,1.);
#433=VECTOR('',#728,1.);
#434=VECTOR('',#731,1.);
#435=VECTOR('',#732,1.);
#436=VECTOR('',#733,1.);
#437=VECTOR('',#734,1.);
#438=VECTOR('',#737,1.);
#439=VECTOR('',#738,1.);
#440=VECTOR('',#739,1.);
#441=VECTOR('',#740,1.);
#442=VECTOR('',#743,1.);
#443=VECTOR('',#744,1.);
#444=VECTOR('',#745,1.);
#445=VECTOR('',#746,1.);
#446=VECTOR('',#747,1.);
#447=VECTOR('',#748,1.);
#448=VECTOR('',#749,1.);
#449=VECTOR('',#750,1.);
#450=VECTOR('',#771,1.);
#451=VECTOR('',#774,1.);
#452=VECTOR('',#777,1.);
#453=VECTOR('',#784,1.);
#454=VECTOR('',#785,1.);
#455=VECTOR('',#786,1.);
#456=VECTOR('',#787,1.);
#457=VECTOR('',#788,1.);
#458=VECTOR('',#789,1.);
#459=VECTOR('',#790,1.);
#460=VECTOR('',#791,1.);
#461=VECTOR('',#810,1.);
#462=VECTOR('',#813,1.);
#463=VECTOR('',#816,1.);
#464=VECTOR('',#825,1.);
#465=VECTOR('',#826,1.);
#466=VECTOR('',#829,1.);
#467=VECTOR('',#830,1.);
#468=VECTOR('',#833,1.);
#469=VECTOR('',#834,1.);
#470=VECTOR('',#865,1.);
#471=VECTOR('',#866,1.);
#472=VECTOR('',#869,1.);
#473=VECTOR('',#872,1.);
#474=VECTOR('',#877,1.);
#475=VECTOR('',#878,1.);
#476=VECTOR('',#881,1.);
#477=VECTOR('',#884,1.);
#478=EDGE_LOOP('',(#54,#55,#56,#57));
#479=EDGE_LOOP('',(#58,#59,#60,#61));
#480=EDGE_LOOP('',(#62,#63,#64,#65));
#481=EDGE_LOOP('',(#66,#67,#68,#69));
#482=EDGE_LOOP('',(#70,#71,#72,#73));
#483=EDGE_LOOP('',(#74,#75,#76,#77));
#484=EDGE_LOOP('',(#78,#79,#80,#81));
#485=EDGE_LOOP('',(#82));
#486=EDGE_LOOP('',(#83));
#487=EDGE_LOOP('',(#84));
#488=EDGE_LOOP('',(#85));
#489=EDGE_LOOP('',(#86));
#490=EDGE_LOOP('',(#87));
#491=EDGE_LOOP('',(#88,#89,#90,#91,#92,#93,#94,#95,#96,#97,#98,#99,#100,
#101,#102,#103));
#492=EDGE_LOOP('',(#104,#105,#106,#107));
#493=EDGE_LOOP('',(#108,#109,#110,#111));
#494=EDGE_LOOP('',(#112));
#495=EDGE_LOOP('',(#113));
#496=EDGE_LOOP('',(#114));
#497=EDGE_LOOP('',(#115));
#498=EDGE_LOOP('',(#116));
#499=EDGE_LOOP('',(#117));
#500=EDGE_LOOP('',(#118,#119,#120,#121,#122,#123,#124,#125,#126,#127,#128,
#129,#130,#131,#132,#133));
#501=EDGE_LOOP('',(#134,#135,#136,#137));
#502=EDGE_LOOP('',(#138,#139,#140,#141));
#503=EDGE_LOOP('',(#142,#143,#144,#145));
#504=EDGE_LOOP('',(#146));
#505=EDGE_LOOP('',(#147));
#506=EDGE_LOOP('',(#148));
#507=EDGE_LOOP('',(#149));
#508=EDGE_LOOP('',(#150));
#509=EDGE_LOOP('',(#151));
#510=EDGE_LOOP('',(#152,#153,#154,#155));
#511=EDGE_LOOP('',(#156,#157,#158,#159));
#512=EDGE_LOOP('',(#160,#161,#162,#163));
#513=EDGE_LOOP('',(#164,#165,#166,#167));
#514=EDGE_LOOP('',(#168,#169,#170,#171));
#515=EDGE_LOOP('',(#172,#173,#174,#175));
#516=EDGE_LOOP('',(#176,#177,#178,#179));
#517=EDGE_LOOP('',(#180,#181,#182,#183));
#518=EDGE_LOOP('',(#184));
#519=EDGE_LOOP('',(#185));
#520=EDGE_LOOP('',(#186));
#521=EDGE_LOOP('',(#187));
#522=EDGE_LOOP('',(#188));
#523=EDGE_LOOP('',(#189));
#524=EDGE_LOOP('',(#190,#191,#192,#193));
#525=EDGE_LOOP('',(#194,#195,#196,#197));
#526=EDGE_LOOP('',(#198,#199,#200,#201));
#527=EDGE_LOOP('',(#202,#203,#204,#205));
#528=EDGE_LOOP('',(#206,#207,#208,#209));
#529=EDGE_LOOP('',(#210,#211,#212,#213));
#530=EDGE_LOOP('',(#214,#215,#216,#217));
#531=EDGE_LOOP('',(#218,#219,#220,#221));
#532=FACE_BOUND('',#478,.T.);
#533=FACE_BOUND('',#479,.T.);
#534=FACE_BOUND('',#480,.T.);
#535=FACE_BOUND('',#481,.T.);
#536=FACE_BOUND('',#482,.T.);
#537=FACE_BOUND('',#483,.T.);
#538=FACE_BOUND('',#484,.T.);
#539=FACE_BOUND('',#485,.T.);
#540=FACE_BOUND('',#486,.T.);
#541=FACE_BOUND('',#487,.T.);
#542=FACE_BOUND('',#488,.T.);
#543=FACE_BOUND('',#489,.T.);
#544=FACE_BOUND('',#490,.T.);
#545=FACE_BOUND('',#491,.T.);
#546=FACE_BOUND('',#492,.T.);
#547=FACE_BOUND('',#493,.T.);
#548=FACE_BOUND('',#494,.T.);
#549=FACE_BOUND('',#495,.T.);
#550=FACE_BOUND('',#496,.T.);
#551=FACE_BOUND('',#497,.T.);
#552=FACE_BOUND('',#498,.T.);
#553=FACE_BOUND('',#499,.T.);
#554=FACE_BOUND('',#500,.T.);
#555=FACE_BOUND('',#501,.T.);
#556=FACE_BOUND('',#502,.T.);
#557=FACE_BOUND('',#503,.T.);
#558=FACE_BOUND('',#504,.T.);
#559=FACE_BOUND('',#505,.T.);
#560=FACE_BOUND('',#506,.T.);
#561=FACE_BOUND('',#507,.T.);
#562=FACE_BOUND('',#508,.T.);
#563=FACE_BOUND('',#509,.T.);
#564=FACE_BOUND('',#510,.T.);
#565=FACE_BOUND('',#511,.T.);
#566=FACE_BOUND('',#512,.T.);
#567=FACE_BOUND('',#513,.T.);
#568=FACE_BOUND('',#514,.T.);
#569=FACE_BOUND('',#515,.T.);
#570=FACE_BOUND('',#516,.T.);
#571=FACE_BOUND('',#517,.T.);
#572=FACE_BOUND('',#518,.T.);
#573=FACE_BOUND('',#519,.T.);
#574=FACE_BOUND('',#520,.T.);
#575=FACE_BOUND('',#521,.T.);
#576=FACE_BOUND('',#522,.T.);
#577=FACE_BOUND('',#523,.T.);
#578=FACE_BOUND('',#524,.T.);
#579=FACE_BOUND('',#525,.T.);
#580=FACE_BOUND('',#526,.T.);
#581=FACE_BOUND('',#527,.T.);
#582=FACE_BOUND('',#528,.T.);
#583=FACE_BOUND('',#529,.T.);
#584=FACE_BOUND('',#530,.T.);
#585=FACE_BOUND('',#531,.T.);
#586=PLANE('',#649);
#587=PLANE('',#650);
#588=PLANE('',#651);
#589=PLANE('',#652);
#590=PLANE('',#653);
#591=PLANE('',#654);
#592=PLANE('',#669);
#593=PLANE('',#684);
#594=PLANE('',#685);
#595=PLANE('',#686);
#596=PLANE('',#701);
#597=PLANE('',#702);
#598=PLANE('',#703);
#599=PLANE('',#704);
#600=PLANE('',#705);
#601=PLANE('',#706);
#602=PLANE('',#707);
#603=PLANE('',#708);
#604=ADVANCED_FACE('',(#532),#586,.F.);
#605=ADVANCED_FACE('',(#533),#587,.F.);
#606=ADVANCED_FACE('',(#534),#588,.T.);
#607=ADVANCED_FACE('',(#535),#589,.F.);
#608=ADVANCED_FACE('',(#536),#590,.F.);
#609=ADVANCED_FACE('',(#537,#538,#539,#540,#541,#542,#543,#544,#545),#591,
 .T.);
#610=ADVANCED_FACE('',(#546,#547,#548,#549,#550,#551,#552,#553,#554),#592,
 .F.);
#611=ADVANCED_FACE('',(#555),#593,.F.);
#612=ADVANCED_FACE('',(#556),#594,.T.);
#613=ADVANCED_FACE('',(#557),#595,.F.);
#614=ADVANCED_FACE('',(#558,#559),#12,.F.);
#615=ADVANCED_FACE('',(#560,#561),#13,.F.);
#616=ADVANCED_FACE('',(#562,#563),#14,.F.);
#617=ADVANCED_FACE('',(#564),#15,.F.);
#618=ADVANCED_FACE('',(#565),#16,.T.);
#619=ADVANCED_FACE('',(#566),#17,.F.);
#620=ADVANCED_FACE('',(#567),#18,.T.);
#621=ADVANCED_FACE('',(#568),#19,.T.);
#622=ADVANCED_FACE('',(#569),#20,.T.);
#623=ADVANCED_FACE('',(#570),#21,.T.);
#624=ADVANCED_FACE('',(#571),#22,.T.);
#625=ADVANCED_FACE('',(#572,#573),#23,.F.);
#626=ADVANCED_FACE('',(#574,#575),#24,.F.);
#627=ADVANCED_FACE('',(#576,#577),#25,.F.);
#628=ADVANCED_FACE('',(#578),#596,.F.);
#629=ADVANCED_FACE('',(#579),#597,.T.);
#630=ADVANCED_FACE('',(#580),#598,.T.);
#631=ADVANCED_FACE('',(#581),#599,.F.);
#632=ADVANCED_FACE('',(#582),#600,.F.);
#633=ADVANCED_FACE('',(#583),#601,.T.);
#634=ADVANCED_FACE('',(#584),#602,.T.);
#635=ADVANCED_FACE('',(#585),#603,.F.);
#636=CLOSED_SHELL('',(#604,#605,#606,#607,#608,#609,#610,#611,#612,#613,
#614,#615,#616,#617,#618,#619,#620,#621,#622,#623,#624,#625,#626,#627,#628,
#629,#630,#631,#632,#633,#634,#635));
#637=STYLED_ITEM('',(#638),#645);
#638=PRESENTATION_STYLE_ASSIGNMENT((#639));
#639=SURFACE_STYLE_USAGE(.BOTH.,#640);
#640=SURFACE_SIDE_STYLE('',(#641));
#641=SURFACE_STYLE_FILL_AREA(#642);
#642=FILL_AREA_STYLE('',(#643));
#643=FILL_AREA_STYLE_COLOUR('',#644);
#644=COLOUR_RGB('',0.835294117647059,0.764705882352941,0.580392156862745);
#645=MANIFOLD_SOLID_BREP('Top Wood Panel',#636);
#646=SHAPE_DEFINITION_REPRESENTATION(#1070,#647);
#647=SHAPE_REPRESENTATION('Top Wood Panel',(#648),#1065);
#648=AXIS2_PLACEMENT_3D('',#887,#709,#710);
#649=AXIS2_PLACEMENT_3D('',#888,#711,#712);
#650=AXIS2_PLACEMENT_3D('',#897,#717,#718);
#651=AXIS2_PLACEMENT_3D('',#906,#723,#724);
#652=AXIS2_PLACEMENT_3D('',#915,#729,#730);
#653=AXIS2_PLACEMENT_3D('',#924,#735,#736);
#654=AXIS2_PLACEMENT_3D('',#933,#741,#742);
#655=AXIS2_PLACEMENT_3D('',#950,#751,#752);
#656=AXIS2_PLACEMENT_3D('',#952,#753,#754);
#657=AXIS2_PLACEMENT_3D('',#954,#755,#756);
#658=AXIS2_PLACEMENT_3D('',#956,#757,#758);
#659=AXIS2_PLACEMENT_3D('',#958,#759,#760);
#660=AXIS2_PLACEMENT_3D('',#960,#761,#762);
#661=AXIS2_PLACEMENT_3D('',#962,#763,#764);
#662=AXIS2_PLACEMENT_3D('',#963,#765,#766);
#663=AXIS2_PLACEMENT_3D('',#964,#767,#768);
#664=AXIS2_PLACEMENT_3D('',#965,#769,#770);
#665=AXIS2_PLACEMENT_3D('',#969,#772,#773);
#666=AXIS2_PLACEMENT_3D('',#973,#775,#776);
#667=AXIS2_PLACEMENT_3D('',#977,#778,#779);
#668=AXIS2_PLACEMENT_3D('',#978,#780,#781);
#669=AXIS2_PLACEMENT_3D('',#979,#782,#783);
#670=AXIS2_PLACEMENT_3D('',#996,#792,#793);
#671=AXIS2_PLACEMENT_3D('',#998,#794,#795);
#672=AXIS2_PLACEMENT_3D('',#1000,#796,#797);
#673=AXIS2_PLACEMENT_3D('',#1002,#798,#799);
#674=AXIS2_PLACEMENT_3D('',#1004,#800,#801);
#675=AXIS2_PLACEMENT_3D('',#1006,#802,#803);
#676=AXIS2_PLACEMENT_3D('',#1008,#804,#805);
#677=AXIS2_PLACEMENT_3D('',#1009,#806,#807);
#678=AXIS2_PLACEMENT_3D('',#1010,#808,#809);
#679=AXIS2_PLACEMENT_3D('',#1014,#811,#812);
#680=AXIS2_PLACEMENT_3D('',#1018,#814,#815);
#681=AXIS2_PLACEMENT_3D('',#1022,#817,#818);
#682=AXIS2_PLACEMENT_3D('',#1023,#819,#820);
#683=AXIS2_PLACEMENT_3D('',#1024,#821,#822);
#684=AXIS2_PLACEMENT_3D('',#1025,#823,#824);
#685=AXIS2_PLACEMENT_3D('',#1028,#827,#828);
#686=AXIS2_PLACEMENT_3D('',#1031,#831,#832);
#687=AXIS2_PLACEMENT_3D('',#1034,#835,#836);
#688=AXIS2_PLACEMENT_3D('',#1035,#837,#838);
#689=AXIS2_PLACEMENT_3D('',#1036,#839,#840);
#690=AXIS2_PLACEMENT_3D('',#1037,#841,#842);
#691=AXIS2_PLACEMENT_3D('',#1038,#843,#844);
#692=AXIS2_PLACEMENT_3D('',#1039,#845,#846);
#693=AXIS2_PLACEMENT_3D('',#1040,#847,#848);
#694=AXIS2_PLACEMENT_3D('',#1041,#849,#850);
#695=AXIS2_PLACEMENT_3D('',#1042,#851,#852);
#696=AXIS2_PLACEMENT_3D('',#1043,#853,#854);
#697=AXIS2_PLACEMENT_3D('',#1044,#855,#856);
#698=AXIS2_PLACEMENT_3D('',#1045,#857,#858);
#699=AXIS2_PLACEMENT_3D('',#1046,#859,#860);
#700=AXIS2_PLACEMENT_3D('',#1047,#861,#862);
#701=AXIS2_PLACEMENT_3D('',#1048,#863,#864);
#702=AXIS2_PLACEMENT_3D('',#1051,#867,#868);
#703=AXIS2_PLACEMENT_3D('',#1053,#870,#871);
#704=AXIS2_PLACEMENT_3D('',#1055,#873,#874);
#705=AXIS2_PLACEMENT_3D('',#1056,#875,#876);
#706=AXIS2_PLACEMENT_3D('',#1059,#879,#880);
#707=AXIS2_PLACEMENT_3D('',#1061,#882,#883);
#708=AXIS2_PLACEMENT_3D('',#1063,#885,#886);
#709=DIRECTION('',(0.,0.,1.));
#710=DIRECTION('',(1.,0.,0.));
#711=DIRECTION('',(1.,-6.12323399573677E-17,0.));
#712=DIRECTION('',(-6.12323399573677E-17,-1.,0.));
#713=DIRECTION('',(6.12323399573677E-17,1.,6.68191177523049E-49));
#714=DIRECTION('',(4.09149093386052E-65,6.68191177523049E-49,-1.));
#715=DIRECTION('',(6.12323399573677E-17,1.,2.18952885050752E-47));
#716=DIRECTION('',(4.09149093386052E-65,6.68191177523049E-49,-1.));
#717=DIRECTION('',(1.,-6.12323399573677E-17,0.));
#718=DIRECTION('',(-6.12323399573677E-17,-1.,0.));
#719=DIRECTION('',(4.09149093386052E-65,6.68191177523049E-49,-1.));
#720=DIRECTION('',(6.12323399573677E-17,1.,6.68191177523049E-49));
#721=DIRECTION('',(4.09149093386052E-65,6.68191177523049E-49,-1.));
#722=DIRECTION('',(6.12323399573677E-17,1.,6.68191177523049E-49));
#723=DIRECTION('',(1.,-6.12323399573677E-17,0.));
#724=DIRECTION('',(-6.12323399573677E-17,-1.,0.));
#725=DIRECTION('',(4.09149093386052E-65,6.68191177523049E-49,-1.));
#726=DIRECTION('',(6.12323399573677E-17,1.,6.68191177523049E-49));
#727=DIRECTION('',(4.09149093386052E-65,6.68191177523049E-49,-1.));
#728=DIRECTION('',(6.12323399573677E-17,1.,2.18952885050752E-47));
#729=DIRECTION('',(-2.32496687241486E-15,1.42363161921324E-31,-1.));
#730=DIRECTION('',(-1.,0.,2.32496687241486E-15));
#731=DIRECTION('',(-1.,6.12323399573677E-17,2.32496687241486E-15));
#732=DIRECTION('',(6.12323399573677E-17,1.,2.18952885050752E-47));
#733=DIRECTION('',(-1.,6.12323399573677E-17,2.32496687241486E-15));
#734=DIRECTION('',(6.12323399573677E-17,1.,2.18952885050752E-47));
#735=DIRECTION('',(0.,-6.68191177523049E-49,1.));
#736=DIRECTION('',(0.,-1.,-6.68191177523049E-49));
#737=DIRECTION('',(1.,-6.12323399573677E-17,-4.09149093386052E-65));
#738=DIRECTION('',(6.12323399573677E-17,1.,6.68191177523049E-49));
#739=DIRECTION('',(1.,-6.12323399573677E-17,-4.09149093386052E-65));
#740=DIRECTION('',(6.12323399573677E-17,1.,6.68191177523049E-49));
#741=DIRECTION('',(-6.12323399573677E-17,-1.,-6.68191177523049E-49));
#742=DIRECTION('',(1.,-6.12323399573677E-17,-4.09149093386052E-65));
#743=DIRECTION('',(4.09149093386052E-65,6.68191177523049E-49,-1.));
#744=DIRECTION('',(1.,-6.12323399573677E-17,-4.09149093386052E-65));
#745=DIRECTION('',(-3.1540426835942E-16,1.93129413841888E-32,-1.));
#746=DIRECTION('',(1.,-6.12323399573677E-17,-4.09149093386052E-65));
#747=DIRECTION('',(4.09149093386052E-65,6.68191177523049E-49,-1.));
#748=DIRECTION('',(1.,-6.12323399573677E-17,-4.09149093386052E-65));
#749=DIRECTION('',(-3.1540426835942E-16,1.93129413841888E-32,-1.));
#750=DIRECTION('',(1.,-6.12323399573677E-17,-4.09149093386052E-65));
#751=DIRECTION('',(-6.12323399573677E-17,-1.,-6.68191177523049E-49));
#752=DIRECTION('',(-1.,6.12323399573677E-17,0.));
#753=DIRECTION('',(-6.12323399573677E-17,-1.,-6.68191177523049E-49));
#754=DIRECTION('',(-1.,6.12323399573677E-17,0.));
#755=DIRECTION('',(-6.12323399573677E-17,-1.,-6.68191177523049E-49));
#756=DIRECTION('',(-1.,6.12323399573677E-17,0.));
#757=DIRECTION('',(-6.12323399573677E-17,-1.,-6.68191177523049E-49));
#758=DIRECTION('',(-1.,6.12323399573677E-17,0.));
#759=DIRECTION('',(-6.12323399573677E-17,-1.,-6.68191177523049E-49));
#760=DIRECTION('',(-1.,6.12323399573677E-17,0.));
#761=DIRECTION('',(-6.12323399573677E-17,-1.,-6.68191177523049E-49));
#762=DIRECTION('',(-1.,6.12323399573677E-17,0.));
#763=DIRECTION('',(-6.12323399573677E-17,-1.,-6.68191177523049E-49));
#764=DIRECTION('',(-1.,6.12323399573677E-17,0.));
#765=DIRECTION('',(-6.12323399573677E-17,-1.,-6.68191177523049E-49));
#766=DIRECTION('',(-1.,6.12323399573677E-17,0.));
#767=DIRECTION('',(-6.12323399573677E-17,-1.,-6.68191177523049E-49));
#768=DIRECTION('',(-1.,6.12323399573677E-17,0.));
#769=DIRECTION('',(6.12323399573677E-17,1.,6.68191177523049E-49));
#770=DIRECTION('',(1.,-6.12323399573677E-17,0.));
#771=DIRECTION('',(-1.,6.12323399573677E-17,4.09149093386052E-65));
#772=DIRECTION('',(6.12323399573677E-17,1.,6.68191177523049E-49));
#773=DIRECTION('',(1.,-6.12323399573677E-17,0.));
#774=DIRECTION('',(-1.60151964688775E-16,9.80647954666344E-33,-1.));
#775=DIRECTION('',(6.12323399573677E-17,1.,6.68191177523049E-49));
#776=DIRECTION('',(1.,-6.12323399573677E-17,0.));
#777=DIRECTION('',(-1.,6.12323399573677E-17,4.09149093386052E-65));
#778=DIRECTION('',(6.12323399573677E-17,1.,6.68191177523049E-49));
#779=DIRECTION('',(1.,-6.12323399573677E-17,0.));
#780=DIRECTION('',(-6.12323399573677E-17,-1.,-6.68191177523049E-49));
#781=DIRECTION('',(-1.,6.12323399573677E-17,0.));
#782=DIRECTION('',(-6.12323399573677E-17,-1.,-6.68191177523049E-49));
#783=DIRECTION('',(1.,-6.12323399573677E-17,-4.09149093386052E-65));
#784=DIRECTION('',(1.,-6.12323399573677E-17,-4.09149093386052E-65));
#785=DIRECTION('',(4.09149093386052E-65,6.68191177523049E-49,-1.));
#786=DIRECTION('',(1.,-6.12323399573677E-17,-4.09149093386052E-65));
#787=DIRECTION('',(-3.1540426835942E-16,1.93129413841888E-32,-1.));
#788=DIRECTION('',(1.,-6.12323399573677E-17,-4.09149093386052E-65));
#789=DIRECTION('',(4.09149093386052E-65,6.68191177523049E-49,-1.));
#790=DIRECTION('',(1.,-6.12323399573677E-17,-4.09149093386052E-65));
#791=DIRECTION('',(-3.1540426835942E-16,1.93129413841888E-32,-1.));
#792=DIRECTION('',(6.12323399573677E-17,1.,6.68191177523049E-49));
#793=DIRECTION('',(1.,-6.12323399573677E-17,0.));
#794=DIRECTION('',(6.12323399573677E-17,1.,6.68191177523049E-49));
#795=DIRECTION('',(1.,-6.12323399573677E-17,0.));
#796=DIRECTION('',(6.12323399573677E-17,1.,6.68191177523049E-49));
#797=DIRECTION('',(1.,-6.12323399573677E-17,0.));
#798=DIRECTION('',(6.12323399573677E-17,1.,6.68191177523049E-49));
#799=DIRECTION('',(1.,-6.12323399573677E-17,0.));
#800=DIRECTION('',(6.12323399573677E-17,1.,6.68191177523049E-49));
#801=DIRECTION('',(1.,-6.12323399573677E-17,0.));
#802=DIRECTION('',(6.12323399573677E-17,1.,6.68191177523049E-49));
#803=DIRECTION('',(1.,-6.12323399573677E-17,0.));
#804=DIRECTION('',(-6.12323399573677E-17,-1.,-6.68191177523049E-49));
#805=DIRECTION('',(-1.,6.12323399573677E-17,0.));
#806=DIRECTION('',(-6.12323399573677E-17,-1.,-6.68191177523049E-49));
#807=DIRECTION('',(-1.,6.12323399573677E-17,0.));
#808=DIRECTION('',(-6.12323399573677E-17,-1.,-6.68191177523049E-49));
#809=DIRECTION('',(-1.,6.12323399573677E-17,0.));
#810=DIRECTION('',(-1.,6.12323399573677E-17,4.09149093386052E-65));
#811=DIRECTION('',(-6.12323399573677E-17,-1.,-6.68191177523049E-49));
#812=DIRECTION('',(-1.,6.12323399573677E-17,0.));
#813=DIRECTION('',(-1.60151964688775E-16,9.80647954666344E-33,-1.));
#814=DIRECTION('',(-6.12323399573677E-17,-1.,-6.68191177523049E-49));
#815=DIRECTION('',(-1.,6.12323399573677E-17,0.));
#816=DIRECTION('',(-1.,6.12323399573677E-17,4.09149093386052E-65));
#817=DIRECTION('',(-6.12323399573677E-17,-1.,-6.68191177523049E-49));
#818=DIRECTION('',(-1.,6.12323399573677E-17,0.));
#819=DIRECTION('',(-6.12323399573677E-17,-1.,-6.68191177523049E-49));
#820=DIRECTION('',(-1.,6.12323399573677E-17,0.));
#821=DIRECTION('',(-6.12323399573677E-17,-1.,-6.68191177523049E-49));
#822=DIRECTION('',(-1.,6.12323399573677E-17,0.));
#823=DIRECTION('',(0.,6.68191177523049E-49,-1.));
#824=DIRECTION('',(0.,1.,6.68191177523049E-49));
#825=DIRECTION('',(6.12323399573677E-17,1.,6.68191177523049E-49));
#826=DIRECTION('',(6.12323399573677E-17,1.,6.68191177523049E-49));
#827=DIRECTION('',(0.,6.68191177523049E-49,-1.));
#828=DIRECTION('',(0.,1.,6.68191177523049E-49));
#829=DIRECTION('',(6.12323399573677E-17,1.,6.68191177523049E-49));
#830=DIRECTION('',(6.12323399573677E-17,1.,6.68191177523049E-49));
#831=DIRECTION('',(1.,-6.12323399573677E-17,-1.60151964688775E-16));
#832=DIRECTION('',(-1.60151964688775E-16,0.,-1.));
#833=DIRECTION('',(6.12323399573677E-17,1.,0.));
#834=DIRECTION('',(6.12323399573677E-17,1.,0.));
#835=DIRECTION('',(6.12323399573677E-17,1.,6.68191177523049E-49));
#836=DIRECTION('',(1.,-6.12323399573677E-17,0.));
#837=DIRECTION('',(6.12323399573677E-17,1.,6.68191177523049E-49));
#838=DIRECTION('',(1.,-6.12323399573677E-17,0.));
#839=DIRECTION('',(6.12323399573677E-17,1.,6.68191177523049E-49));
#840=DIRECTION('',(1.,-6.12323399573677E-17,0.));
#841=DIRECTION('',(-6.12323399573677E-17,-1.,-6.68191177523049E-49));
#842=DIRECTION('',(-1.,6.12323399573677E-17,0.));
#843=DIRECTION('',(-6.12323399573677E-17,-1.,-6.68191177523049E-49));
#844=DIRECTION('',(-1.,6.12323399573677E-17,0.));
#845=DIRECTION('',(6.12323399573677E-17,1.,6.68191177523049E-49));
#846=DIRECTION('',(1.,-6.12323399573677E-17,0.));
#847=DIRECTION('',(6.12323399573677E-17,1.,6.68191177523049E-49));
#848=DIRECTION('',(1.,-6.12323399573677E-17,0.));
#849=DIRECTION('',(6.12323399573677E-17,1.,2.18952885050752E-47));
#850=DIRECTION('',(1.,-6.12323399573677E-17,0.));
#851=DIRECTION('',(-6.12323399573677E-17,-1.,-2.18952885050752E-47));
#852=DIRECTION('',(-1.,6.12323399573677E-17,0.));
#853=DIRECTION('',(-6.12323399573677E-17,-1.,-6.68191177523049E-49));
#854=DIRECTION('',(-1.,6.12323399573677E-17,0.));
#855=DIRECTION('',(6.12323399573677E-17,1.,6.68191177523049E-49));
#856=DIRECTION('',(1.,-6.12323399573677E-17,0.));
#857=DIRECTION('',(6.12323399573677E-17,1.,6.68191177523049E-49));
#858=DIRECTION('',(1.,-6.12323399573677E-17,0.));
#859=DIRECTION('',(6.12323399573677E-17,1.,6.68191177523049E-49));
#860=DIRECTION('',(1.,-6.12323399573677E-17,0.));
#861=DIRECTION('',(6.12323399573677E-17,1.,6.68191177523049E-49));
#862=DIRECTION('',(1.,-6.12323399573677E-17,0.));
#863=DIRECTION('',(-1.,6.12323399573677E-17,-6.42816947757959E-81));
#864=DIRECTION('',(6.12323399573677E-17,1.,0.));
#865=DIRECTION('',(-6.12323399573677E-17,-1.,-6.68191177523049E-49));
#866=DIRECTION('',(-6.12323399573677E-17,-1.,-6.68191177523049E-49));
#867=DIRECTION('',(-6.42816947757959E-81,6.68191177523049E-49,-1.));
#868=DIRECTION('',(0.,1.,6.68191177523049E-49));
#869=DIRECTION('',(-6.12323399573677E-17,-1.,-6.68191177523049E-49));
#870=DIRECTION('',(-1.,6.12323399573677E-17,3.1540426835942E-16));
#871=DIRECTION('',(3.1540426835942E-16,0.,1.));
#872=DIRECTION('',(-6.12323399573677E-17,-1.,-6.68191177523049E-49));
#873=DIRECTION('',(-6.42816947757959E-81,6.68191177523049E-49,-1.));
#874=DIRECTION('',(0.,1.,6.68191177523049E-49));
#875=DIRECTION('',(-1.,6.12323399573677E-17,-6.42816947757959E-81));
#876=DIRECTION('',(6.12323399573677E-17,1.,0.));
#877=DIRECTION('',(-6.12323399573677E-17,-1.,-6.68191177523049E-49));
#878=DIRECTION('',(-6.12323399573677E-17,-1.,-6.68191177523049E-49));
#879=DIRECTION('',(-6.42816947757959E-81,6.68191177523049E-49,-1.));
#880=DIRECTION('',(0.,1.,6.68191177523049E-49));
#881=DIRECTION('',(-6.12323399573677E-17,-1.,-6.68191177523049E-49));
#882=DIRECTION('',(-1.,6.12323399573677E-17,3.1540426835942E-16));
#883=DIRECTION('',(3.1540426835942E-16,0.,1.));
#884=DIRECTION('',(-6.12323399573677E-17,-1.,-6.68191177523049E-49));
#885=DIRECTION('',(-6.42816947757959E-81,6.68191177523049E-49,-1.));
#886=DIRECTION('',(0.,1.,6.68191177523049E-49));
#887=CARTESIAN_POINT('',(0.,0.,0.));
#888=CARTESIAN_POINT('',(-0.0687854658585153,0.161825,-0.0931187618788391));
#889=CARTESIAN_POINT('',(-0.0687854658585153,0.163,0.0851889816107056));
#890=CARTESIAN_POINT('',(-0.0687854658585153,0.165,0.0851889816107056));
#891=CARTESIAN_POINT('',(-0.0687854658585153,0.161825,0.0851889816107056));
#892=CARTESIAN_POINT('',(-0.0687854658585153,0.161825,-0.0931187618788391));
#893=CARTESIAN_POINT('',(-0.0687854658585153,0.161825,0.100588981610706));
#894=CARTESIAN_POINT('',(-0.0687854658585153,0.161825,0.100588981610706));
#895=CARTESIAN_POINT('',(-0.0687854658585153,0.165,0.100588981610706));
#896=CARTESIAN_POINT('',(-0.0687854658585153,0.165,-0.0931187618788391));
#897=CARTESIAN_POINT('',(-0.0687854658585153,0.161825,-0.0931187618788391));
#898=CARTESIAN_POINT('',(-0.0687854658585153,0.161825,-0.0931187618788391));
#899=CARTESIAN_POINT('',(-0.0687854658585153,0.161825,-0.271426505368384));
#900=CARTESIAN_POINT('',(-0.0687854658585153,0.161825,-0.286826505368384));
#901=CARTESIAN_POINT('',(-0.0687854658585153,0.161825,-0.271426505368384));
#902=CARTESIAN_POINT('',(-0.0687854658585153,0.165,-0.271426505368384));
#903=CARTESIAN_POINT('',(-0.0687854658585153,0.165,-0.0931187618788391));
#904=CARTESIAN_POINT('',(-0.0687854658585153,0.165,-0.286826505368384));
#905=CARTESIAN_POINT('',(-0.0687854658585153,0.161825,-0.286826505368384));
#906=CARTESIAN_POINT('',(-0.0117854658585153,0.161825,-0.0931187618788391));
#907=CARTESIAN_POINT('',(-0.0117854658585153,0.161825,-0.0931187618788391));
#908=CARTESIAN_POINT('',(-0.0117854658585153,0.161825,0.100588981610705));
#909=CARTESIAN_POINT('',(-0.0117854658585153,0.161825,-0.286826505368384));
#910=CARTESIAN_POINT('',(-0.0117854658585153,0.165,-0.286826505368384));
#911=CARTESIAN_POINT('',(-0.0117854658585153,0.165,-0.286826505368384));
#912=CARTESIAN_POINT('',(-0.0117854658585153,0.165,-0.0931187618788391));
#913=CARTESIAN_POINT('',(-0.0117854658585153,0.165,0.100588981610705));
#914=CARTESIAN_POINT('',(-0.0117854658585153,0.161825,0.100588981610705));
#915=CARTESIAN_POINT('',(-0.0677854658585153,0.161825,0.105588981610706));
#916=CARTESIAN_POINT('',(-0.0677854658585153,0.165,0.105588981610706));
#917=CARTESIAN_POINT('',(-0.0167854658585153,0.165,0.105588981610705));
#918=CARTESIAN_POINT('',(-0.0637854658585153,0.165,0.105588981610706));
#919=CARTESIAN_POINT('',(-0.0637854658585153,0.161825,0.105588981610706));
#920=CARTESIAN_POINT('',(-0.0637854658585153,0.161825,0.105588981610706));
#921=CARTESIAN_POINT('',(-0.0677854658585153,0.161825,0.105588981610706));
#922=CARTESIAN_POINT('',(-0.0167854658585153,0.161825,0.105588981610705));
#923=CARTESIAN_POINT('',(-0.0167854658585153,0.165,0.105588981610705));
#924=CARTESIAN_POINT('',(-0.0402854658585153,0.161825,-0.291826505368384));
#925=CARTESIAN_POINT('',(-0.0402854658585153,0.165,-0.291826505368384));
#926=CARTESIAN_POINT('',(-0.0637854658585153,0.165,-0.291826505368384));
#927=CARTESIAN_POINT('',(-0.0167854658585153,0.165,-0.291826505368384));
#928=CARTESIAN_POINT('',(-0.0167854658585153,0.161825,-0.291826505368384));
#929=CARTESIAN_POINT('',(-0.0167854658585153,0.161825,-0.291826505368384));
#930=CARTESIAN_POINT('',(-0.0402854658585153,0.161825,-0.291826505368384));
#931=CARTESIAN_POINT('',(-0.0637854658585153,0.161825,-0.291826505368384));
#932=CARTESIAN_POINT('',(-0.0637854658585153,0.161825,-0.291826505368384));
#933=CARTESIAN_POINT('',(-0.0387854658585153,0.161825,-0.0931187618788391));
#934=CARTESIAN_POINT('',(-0.0875357995649526,0.161825,-0.0931187618788391));
#935=CARTESIAN_POINT('',(-0.0875357995649526,0.161825,-0.206675755467252));
#936=CARTESIAN_POINT('',(-0.0875357995649526,0.161825,-0.250675755467252));
#937=CARTESIAN_POINT('',(-0.0387854658585153,0.161825,-0.206675755467252));
#938=CARTESIAN_POINT('',(-0.0703357995649526,0.161825,-0.206675755467252));
#939=CARTESIAN_POINT('',(-0.0703357995649525,0.161825,-0.0931187618788391));
#940=CARTESIAN_POINT('',(-0.0703357995649526,0.161825,-0.250675755467252));
#941=CARTESIAN_POINT('',(-0.0387854658585153,0.161825,-0.250675755467252));
#942=CARTESIAN_POINT('',(-0.0875357995649526,0.161825,-0.0931187618788391));
#943=CARTESIAN_POINT('',(-0.0875357995649526,0.161825,-0.148575755467252));
#944=CARTESIAN_POINT('',(-0.0875357995649526,0.161825,-0.192575755467252));
#945=CARTESIAN_POINT('',(-0.0387854658585153,0.161825,-0.148575755467252));
#946=CARTESIAN_POINT('',(-0.0703357995649526,0.161825,-0.148575755467252));
#947=CARTESIAN_POINT('',(-0.0703357995649525,0.161825,-0.0931187618788391));
#948=CARTESIAN_POINT('',(-0.0703357995649526,0.161825,-0.192575755467252));
#949=CARTESIAN_POINT('',(-0.0387854658585153,0.161825,-0.192575755467252));
#950=CARTESIAN_POINT('',(-0.0524377641561707,0.161825,0.0972062381211612));
#951=CARTESIAN_POINT('',(-0.0549904641561707,0.161825,0.0972062381211612));
#952=CARTESIAN_POINT('',(-0.0397377641561708,0.161825,0.0972062381211612));
#953=CARTESIAN_POINT('',(-0.0422904641561707,0.161825,0.0972062381211612));
#954=CARTESIAN_POINT('',(-0.0270377641561707,0.161825,0.0972062381211612));
#955=CARTESIAN_POINT('',(-0.0295904641561707,0.161825,0.0972062381211612));
#956=CARTESIAN_POINT('',(-0.0270377641561707,0.161825,-0.283793761878839));
#957=CARTESIAN_POINT('',(-0.0295904641561707,0.161825,-0.283793761878839));
#958=CARTESIAN_POINT('',(-0.0524377641561707,0.161825,-0.283793761878839));
#959=CARTESIAN_POINT('',(-0.0549904641561707,0.161825,-0.283793761878839));
#960=CARTESIAN_POINT('',(-0.0397377641561708,0.161825,-0.283793761878839));
#961=CARTESIAN_POINT('',(-0.0422904641561707,0.161825,-0.283793761878839));
#962=CARTESIAN_POINT('',(-0.0167854658585153,0.161825,-0.286826505368384));
#963=CARTESIAN_POINT('',(-0.0167854658585153,0.161825,0.100588981610705));
#964=CARTESIAN_POINT('',(-0.0637854658585153,0.161825,0.100588981610706));
#965=CARTESIAN_POINT('',(-0.0737854658585153,0.161825,0.0851889816107056));
#966=CARTESIAN_POINT('',(-0.0737854658585153,0.161825,0.0801889816107056));
#967=CARTESIAN_POINT('',(-0.0814854658585153,0.161825,0.0801889816107056));
#968=CARTESIAN_POINT('',(-0.0891854658585153,0.161825,0.0801889816107056));
#969=CARTESIAN_POINT('',(-0.0891854658585153,0.161825,0.0751889816107055));
#970=CARTESIAN_POINT('',(-0.0941854658585153,0.161825,0.0751889816107055));
#971=CARTESIAN_POINT('',(-0.0941854658585153,0.161825,-0.0931187618788392));
#972=CARTESIAN_POINT('',(-0.0941854658585153,0.161825,-0.261426505368384));
#973=CARTESIAN_POINT('',(-0.0891854658585153,0.161825,-0.261426505368384));
#974=CARTESIAN_POINT('',(-0.0891854658585153,0.161825,-0.266426505368384));
#975=CARTESIAN_POINT('',(-0.0814854658585153,0.161825,-0.266426505368384));
#976=CARTESIAN_POINT('',(-0.0737854658585153,0.161825,-0.266426505368384));
#977=CARTESIAN_POINT('',(-0.0737854658585153,0.161825,-0.271426505368384));
#978=CARTESIAN_POINT('',(-0.0637854658585153,0.161825,-0.286826505368384));
#979=CARTESIAN_POINT('',(-0.0387854658585153,0.165,-0.0931187618788391));
#980=CARTESIAN_POINT('',(-0.0387854658585153,0.165,-0.206675755467252));
#981=CARTESIAN_POINT('',(-0.0875357995649526,0.165,-0.206675755467252));
#982=CARTESIAN_POINT('',(-0.0703357995649526,0.165,-0.206675755467252));
#983=CARTESIAN_POINT('',(-0.0875357995649526,0.165,-0.0931187618788391));
#984=CARTESIAN_POINT('',(-0.0875357995649526,0.165,-0.250675755467252));
#985=CARTESIAN_POINT('',(-0.0387854658585153,0.165,-0.250675755467252));
#986=CARTESIAN_POINT('',(-0.0703357995649526,0.165,-0.250675755467252));
#987=CARTESIAN_POINT('',(-0.0703357995649525,0.165,-0.0931187618788391));
#988=CARTESIAN_POINT('',(-0.0387854658585153,0.165,-0.148575755467252));
#989=CARTESIAN_POINT('',(-0.0875357995649526,0.165,-0.148575755467252));
#990=CARTESIAN_POINT('',(-0.0703357995649526,0.165,-0.148575755467252));
#991=CARTESIAN_POINT('',(-0.0875357995649526,0.165,-0.0931187618788391));
#992=CARTESIAN_POINT('',(-0.0875357995649526,0.165,-0.192575755467252));
#993=CARTESIAN_POINT('',(-0.0387854658585153,0.165,-0.192575755467252));
#994=CARTESIAN_POINT('',(-0.0703357995649526,0.165,-0.192575755467252));
#995=CARTESIAN_POINT('',(-0.0703357995649525,0.165,-0.0931187618788391));
#996=CARTESIAN_POINT('',(-0.0524377641561707,0.165,0.0972062381211612));
#997=CARTESIAN_POINT('',(-0.0498850641561707,0.165,0.0972062381211612));
#998=CARTESIAN_POINT('',(-0.0397377641561708,0.165,0.0972062381211612));
#999=CARTESIAN_POINT('',(-0.0371850641561708,0.165,0.0972062381211612));
#1000=CARTESIAN_POINT('',(-0.0270377641561707,0.165,0.0972062381211612));
#1001=CARTESIAN_POINT('',(-0.0244850641561707,0.165,0.0972062381211612));
#1002=CARTESIAN_POINT('',(-0.0270377641561707,0.165,-0.283793761878839));
#1003=CARTESIAN_POINT('',(-0.0244850641561707,0.165,-0.283793761878839));
#1004=CARTESIAN_POINT('',(-0.0524377641561707,0.165,-0.283793761878839));
#1005=CARTESIAN_POINT('',(-0.0498850641561707,0.165,-0.283793761878839));
#1006=CARTESIAN_POINT('',(-0.0397377641561708,0.165,-0.283793761878839));
#1007=CARTESIAN_POINT('',(-0.0371850641561708,0.165,-0.283793761878839));
#1008=CARTESIAN_POINT('',(-0.0167854658585153,0.165,-0.286826505368384));
#1009=CARTESIAN_POINT('',(-0.0637854658585153,0.165,-0.286826505368384));
#1010=CARTESIAN_POINT('',(-0.0737854658585153,0.165,-0.271426505368384));
#1011=CARTESIAN_POINT('',(-0.0737854658585153,0.165,-0.266426505368384));
#1012=CARTESIAN_POINT('',(-0.0814854658585153,0.165,-0.266426505368384));
#1013=CARTESIAN_POINT('',(-0.0891854658585153,0.165,-0.266426505368384));
#1014=CARTESIAN_POINT('',(-0.0891854658585153,0.165,-0.261426505368384));
#1015=CARTESIAN_POINT('',(-0.0941854658585153,0.165,-0.261426505368384));
#1016=CARTESIAN_POINT('',(-0.0941854658585153,0.165,-0.0931187618788392));
#1017=CARTESIAN_POINT('',(-0.0941854658585153,0.165,0.0751889816107055));
#1018=CARTESIAN_POINT('',(-0.0891854658585153,0.165,0.0751889816107055));
#1019=CARTESIAN_POINT('',(-0.0891854658585153,0.165,0.0801889816107056));
#1020=CARTESIAN_POINT('',(-0.0814854658585153,0.165,0.0801889816107056));
#1021=CARTESIAN_POINT('',(-0.0737854658585153,0.165,0.0801889816107056));
#1022=CARTESIAN_POINT('',(-0.0737854658585153,0.165,0.0851889816107056));
#1023=CARTESIAN_POINT('',(-0.0637854658585153,0.165,0.100588981610706));
#1024=CARTESIAN_POINT('',(-0.0167854658585153,0.165,0.100588981610705));
#1025=CARTESIAN_POINT('',(-0.0814854658585153,0.163,0.0801889816107056));
#1026=CARTESIAN_POINT('',(-0.0891854658585153,0.163,0.0801889816107056));
#1027=CARTESIAN_POINT('',(-0.0737854658585153,0.165,0.0801889816107056));
#1028=CARTESIAN_POINT('',(-0.0814854658585153,0.163,-0.266426505368384));
#1029=CARTESIAN_POINT('',(-0.0737854658585153,0.163,-0.266426505368384));
#1030=CARTESIAN_POINT('',(-0.0891854658585153,0.165,-0.266426505368384));
#1031=CARTESIAN_POINT('',(-0.0941854658585153,0.163,-0.0931187618788392));
#1032=CARTESIAN_POINT('',(-0.0941854658585153,0.163,-0.261426505368384));
#1033=CARTESIAN_POINT('',(-0.0941854658585153,0.163,0.0751889816107055));
#1034=CARTESIAN_POINT('',(-0.0397377641561708,0.161823,-0.283793761878839));
#1035=CARTESIAN_POINT('',(-0.0524377641561707,0.161823,-0.283793761878839));
#1036=CARTESIAN_POINT('',(-0.0270377641561707,0.161823,-0.283793761878839));
#1037=CARTESIAN_POINT('',(-0.0737854658585153,0.163,0.0851889816107056));
#1038=CARTESIAN_POINT('',(-0.0167854658585153,0.161825,-0.286826505368384));
#1039=CARTESIAN_POINT('',(-0.0737854658585153,0.161825,-0.271426505368384));
#1040=CARTESIAN_POINT('',(-0.0637854658585153,0.161825,-0.286826505368384));
#1041=CARTESIAN_POINT('',(-0.0637854658585153,0.161825,0.100588981610706));
#1042=CARTESIAN_POINT('',(-0.0167854658585153,0.161825,0.100588981610705));
#1043=CARTESIAN_POINT('',(-0.0891854658585153,0.163,-0.261426505368384));
#1044=CARTESIAN_POINT('',(-0.0891854658585153,0.163,0.0751889816107055));
#1045=CARTESIAN_POINT('',(-0.0270377641561707,0.161823,0.0972062381211612));
#1046=CARTESIAN_POINT('',(-0.0397377641561708,0.161823,0.0972062381211612));
#1047=CARTESIAN_POINT('',(-0.0524377641561707,0.161823,0.0972062381211612));
#1048=CARTESIAN_POINT('',(-0.0875357995649526,0.1708,-0.170575755467252));
#1049=CARTESIAN_POINT('',(-0.0875357995649526,0.1708,-0.192575755467252));
#1050=CARTESIAN_POINT('',(-0.0875357995649526,0.1708,-0.148575755467252));
#1051=CARTESIAN_POINT('',(-0.0789357995649526,0.1708,-0.148575755467252));
#1052=CARTESIAN_POINT('',(-0.0703357995649526,0.1708,-0.148575755467252));
#1053=CARTESIAN_POINT('',(-0.0703357995649526,0.1708,-0.170575755467252));
#1054=CARTESIAN_POINT('',(-0.0703357995649526,0.1708,-0.192575755467252));
#1055=CARTESIAN_POINT('',(-0.0789357995649526,0.1708,-0.192575755467252));
#1056=CARTESIAN_POINT('',(-0.0875357995649526,0.1708,-0.228675755467251));
#1057=CARTESIAN_POINT('',(-0.0875357995649526,0.1708,-0.250675755467252));
#1058=CARTESIAN_POINT('',(-0.0875357995649526,0.1708,-0.206675755467252));
#1059=CARTESIAN_POINT('',(-0.0789357995649526,0.1708,-0.206675755467252));
#1060=CARTESIAN_POINT('',(-0.0703357995649526,0.1708,-0.206675755467252));
#1061=CARTESIAN_POINT('',(-0.0703357995649526,0.1708,-0.228675755467251));
#1062=CARTESIAN_POINT('',(-0.0703357995649526,0.1708,-0.250675755467252));
#1063=CARTESIAN_POINT('',(-0.0789357995649526,0.1708,-0.250675755467252));
#1064=MECHANICAL_DESIGN_GEOMETRIC_PRESENTATION_REPRESENTATION('',(#637),
#1065);
#1065=(
GEOMETRIC_REPRESENTATION_CONTEXT(3)
GLOBAL_UNCERTAINTY_ASSIGNED_CONTEXT((#1066))
GLOBAL_UNIT_ASSIGNED_CONTEXT((#1069,#1068,#1067))
REPRESENTATION_CONTEXT('Top Wood Panel','TOP_LEVEL_ASSEMBLY_PART')
);
#1066=UNCERTAINTY_MEASURE_WITH_UNIT(LENGTH_MEASURE(1.E-8),#1069,
'DISTANCE_ACCURACY_VALUE','Maximum Tolerance applied to model');
#1067=(
NAMED_UNIT(*)
SI_UNIT($,.STERADIAN.)
SOLID_ANGLE_UNIT()
);
#1068=(
NAMED_UNIT(*)
PLANE_ANGLE_UNIT()
SI_UNIT($,.RADIAN.)
);
#1069=(
LENGTH_UNIT()
NAMED_UNIT(*)
SI_UNIT($,.METRE.)
);
#1070=PRODUCT_DEFINITION_SHAPE('','',#1071);
#1071=PRODUCT_DEFINITION('','',#1073,#1072);
#1072=PRODUCT_DEFINITION_CONTEXT('',#1079,'design');
#1073=PRODUCT_DEFINITION_FORMATION_WITH_SPECIFIED_SOURCE('','',#1075,
 .NOT_KNOWN.);
#1074=PRODUCT_RELATED_PRODUCT_CATEGORY('','',(#1075));
#1075=PRODUCT('Top Wood Panel','Top Wood Panel','Top Wood Panel',(#1077));
#1076=PRODUCT_CATEGORY('','');
#1077=PRODUCT_CONTEXT('',#1079,'mechanical');
#1078=APPLICATION_PROTOCOL_DEFINITION('international standard',
'ap242_managed_model_based_3d_engineering',2020,#1079);
#1079=APPLICATION_CONTEXT('managed model based 3d engineering');
ENDSEC;
END-ISO-10303-21;
